<svg xmlns="http://www.w3.org/2000/svg" width="18" height="18" viewBox="0 0 18 18"><defs><style>.a{fill:none;}</style></defs><rect class="a" width="18" height="18"/><g transform="translate(0 -38.93)"><path d="M6.472,44.1a.439.439,0,0,1,0-.416l2.19-4.046a.391.391,0,0,1,.675,0l2.19,4.046a.439.439,0,0,1,0,.416.386.386,0,0,1-.337.208H6.81A.386.386,0,0,1,6.472,44.1ZM3.739,49.984H14.261a.385.385,0,0,0,.337-.208.439.439,0,0,0,0-.416l-1.911-3.53a.386.386,0,0,0-.337-.208h-6.7a.385.385,0,0,0-.337.208L3.4,49.36a.439.439,0,0,0,0,.416A.385.385,0,0,0,3.739,49.984Zm14.209,5.566L15.758,51.5a.386.386,0,0,0-.337-.208H2.58a.385.385,0,0,0-.337.208L.052,55.549a.439.439,0,0,0,0,.416.386.386,0,0,0,.337.208H17.61a.385.385,0,0,0,.337-.208A.44.44,0,0,0,17.948,55.549Z" transform="translate(0)"/></g></svg>
