<svg xmlns="http://www.w3.org/2000/svg" xmlns:xlink="http://www.w3.org/1999/xlink" width="20" height="20" viewBox="0 0 20 20"><defs><style>.a{fill:none;}.b{clip-path:url(#a);}.c{fill:#282828;}.d{fill:#fafafa;}.e{fill:#303c42;}.f{fill:#e3e3e3;}.g{fill:#fff;opacity:0.4;}.h{fill:url(#b);}</style><clipPath id="a"><rect class="a" width="20" height="20"/></clipPath><linearGradient id="b" x1="-1.991" y1="-0.61" x2="-1.97" y2="-0.586" gradientUnits="objectBoundingBox"><stop offset="0" stop-opacity="0.102"/><stop offset="1" stop-opacity="0"/></linearGradient></defs><g class="b"><rect class="a" width="20" height="20" transform="translate(0)"/><g transform="translate(0 -60.995)"><path class="c" d="M10,63.995A10.5,10.5,0,0,0,.02,71.368a.412.412,0,0,0,0,.255,10.441,10.441,0,0,0,19.96,0,.413.413,0,0,0,0-.255A10.5,10.5,0,0,0,10,63.995Z"/><path class="d" d="M30.945,98.537a9.571,9.571,0,0,1-9.054-6.6,9.508,9.508,0,0,1,18.108,0A9.571,9.571,0,0,1,30.945,98.537Z" transform="translate(-20.945 -20.437)"/><g transform="translate(5.106 66.601)"><circle class="e" cx="4.894" cy="4.894" r="4.894" transform="translate(0 0)"/><circle class="c" cx="4.894" cy="4.894" r="4.894" transform="translate(0 0)"/></g><ellipse class="f" cx="3.989" cy="4.144" rx="3.989" ry="4.144" transform="translate(6.011 67.351)"/><ellipse class="g" cx="1.197" cy="1.197" rx="1.197" ry="1.197" transform="translate(7.168 68.252)"/><path class="h" d="M175.208,169.521h0a4.886,4.886,0,0,1-6.951,6.862l0,0,2.951,2.951c.134.006.268.016.4.016a9.416,9.416,0,0,0,8.338-5.092Z" transform="translate(-161.397 -101.173)"/></g></g></svg>
