<svg width="28" height="30" viewBox="0 0 28 30" fill="none" xmlns="http://www.w3.org/2000/svg">
<path fill-rule="evenodd" clip-rule="evenodd" d="M13.9944 1.63133C15.4439 1.63133 16.6194 2.89085 16.6194 4.4458V25.5447C16.6194 27.0996 15.4439 28.3591 13.9944 28.3591C12.5448 28.3591 11.3695 27.0996 11.3695 25.5447V4.4458C11.3695 2.89085 12.5448 1.63133 13.9944 1.63133Z" fill="#7563EB"/>
<path fill-rule="evenodd" clip-rule="evenodd" d="M13.9987 2.33273C12.9064 2.33434 12.0227 3.28277 12.0227 4.45149V25.539C12.0227 26.7077 12.9064 27.6562 13.9987 27.6562C15.0895 27.6562 15.9732 26.7077 15.9732 25.539V4.45149C15.9732 3.28117 15.0895 2.33273 13.9987 2.33124V2.33273ZM13.9988 29.0562C12.1875 29.0515 10.7219 27.478 10.719 25.539V4.45152C10.719 2.51094 12.189 0.937439 14.0002 0.937439C15.8115 0.937439 17.28 2.51095 17.28 4.45152V25.539C17.2785 27.4812 15.81 29.0545 13.9988 29.0562Z" fill="#1E1E1E"/>
<path fill-rule="evenodd" clip-rule="evenodd" d="M23.835 8.99044C25.2845 8.99044 26.46 10.2493 26.46 11.8035V25.5415C26.46 27.094 25.2845 28.3529 23.835 28.3529C22.3854 28.3529 21.2101 27.094 21.2101 25.5415V11.8035C21.2101 10.2493 22.3854 8.99044 23.835 8.99044Z" fill="#7563EB"/>
<path fill-rule="evenodd" clip-rule="evenodd" d="M23.8395 9.68284C22.7487 9.68581 21.8649 10.6327 21.8649 11.8014V25.5328C21.8649 26.7015 22.7487 27.6484 23.8395 27.6484C24.9304 27.6484 25.8141 26.7015 25.8141 25.5328V11.7922C25.8083 10.6266 24.9259 9.68581 23.8395 9.68284ZM23.8395 29.0562C22.0297 29.0531 20.5655 27.4813 20.5641 25.5437V11.8014C20.5641 9.86086 22.0326 8.28748 23.8438 8.28748C25.6566 8.28748 27.1251 9.86086 27.1251 11.8014V25.5328C27.1265 27.4765 25.658 29.0531 23.8438 29.0562H23.8395Z" fill="#1E1E1E"/>
<path fill-rule="evenodd" clip-rule="evenodd" d="M4.14762 16.2185C5.59719 16.2185 6.77259 17.4784 6.77259 19.032V25.5439C6.77259 27.0991 5.59719 28.3589 4.14762 28.3589C2.69804 28.3589 1.52264 27.0992 1.52264 25.5439V19.032C1.52264 17.4784 2.69804 16.2185 4.14762 16.2185Z" fill="#7563EB"/>
<path fill-rule="evenodd" clip-rule="evenodd" d="M4.15353 16.9156C3.06267 16.9173 2.18046 17.864 2.17746 19.0313V25.5406C2.17746 26.7093 3.06125 27.6562 4.15203 27.6562C5.24292 27.6562 6.1266 26.7093 6.1266 25.5406V19.0313C6.12371 17.8656 5.24137 16.9219 4.15353 16.9188V16.9156ZM4.15355 29.0529C2.34377 29.0498 0.878123 27.4795 0.875244 25.5405V19.0312C0.875244 17.0905 2.34377 15.517 4.155 15.517C5.96623 15.517 7.43617 17.0905 7.43617 19.0312V25.5405C7.43473 27.4811 5.96479 29.0545 4.15355 29.0529Z" fill="#1E1E1E"/>
<path opacity="0.1" fill-rule="evenodd" clip-rule="evenodd" d="M1.77075 24.3878V26.7121C1.77075 27.6037 2.82893 28.3216 4.12895 28.3216C5.42902 28.3216 6.49003 27.6006 6.49003 26.7121V20.8716C5.20603 22.4374 3.58683 23.6449 1.77075 24.3878V24.3878Z" fill="#080909"/>
<path opacity="0.1" fill-rule="evenodd" clip-rule="evenodd" d="M11.7192 17.7746V25.9616C11.7192 26.8494 12.7167 27.5683 13.9462 27.5683C15.1755 27.5683 16.173 26.8494 16.173 25.9616V13.281C14.8853 14.9878 13.3876 16.4992 11.7192 17.7746H11.7192Z" fill="#080909"/>
<path opacity="0.1" fill-rule="evenodd" clip-rule="evenodd" d="M21.7762 21.628V25.9623C21.7762 26.8498 22.7467 27.5684 23.9373 27.5684C25.1294 27.5684 26.1015 26.8498 26.1015 25.9623V17.1248C24.8584 18.8296 23.4025 20.3451 21.7762 21.628H21.7762Z" fill="#080909"/>
</svg>
