<svg width="50" height="50" viewBox="0 0 50 50" fill="none" xmlns="http://www.w3.org/2000/svg">
<path fill-rule="evenodd" clip-rule="evenodd" d="M47.9324 22.4683C46.7013 21.4308 44.8652 21.5822 43.8218 22.8144L37.1437 29.68H37.1507C36.7893 28.4383 35.6426 27.5313 34.2853 27.5313H23.225C21.7899 26.9035 20.2032 26.5548 18.5357 26.5548C13.9155 26.5548 9.92006 28.795 8.01224 33.0402L16.8408 41.826L16.8572 41.8131L18.3774 40.3462C19.1049 39.6433 20.0773 39.2507 21.0887 39.2507H34.101C36.1271 39.2507 38.0735 38.46 39.5258 37.0462L48.2784 26.5796C49.3176 25.3497 49.1631 23.5089 47.9324 22.4684L47.9324 22.4683Z" fill="#FED2A4"/>
<path fill-rule="evenodd" clip-rule="evenodd" d="M38.8384 10.737C38.8384 16.1317 34.4691 20.5045 29.079 20.5045C23.689 20.5045 19.3197 16.1317 19.3197 10.737C19.3197 5.34276 23.689 0.969409 29.079 0.969409C34.4691 0.969409 38.8384 5.34278 38.8384 10.737Z" fill="#FFCF48"/>
<path fill-rule="evenodd" clip-rule="evenodd" d="M16.6467 44.3723L11.9197 49.033L0.960772 37.981L5.60395 33.3202C6.36586 32.5577 7.60262 32.5573 8.36501 33.3202L16.6467 41.6088C17.4137 42.3764 17.4045 43.6138 16.6467 44.3723V44.3723Z" fill="#E7633F"/>
<path fill-rule="evenodd" clip-rule="evenodd" d="M22.9817 33.9112C23.3633 33.5287 23.3633 32.9099 22.9817 32.5275C22.5997 32.1463 21.9809 32.1463 21.5985 32.5275C21.2173 32.9099 21.2173 33.5287 21.5985 33.9112C21.9809 34.2923 22.5997 34.2923 22.9817 33.9112Z" fill="black"/>
<path fill-rule="evenodd" clip-rule="evenodd" d="M37.8881 10.739C37.8881 15.5841 33.9463 19.5258 29.1013 19.5258C24.2563 19.5258 20.3145 15.5841 20.3145 10.739C20.3145 5.89432 24.2563 1.9526 29.1013 1.9526C33.9463 1.9526 37.8881 5.8943 37.8881 10.739ZM18.3622 10.7392C18.3622 16.6607 23.1798 21.4786 29.1013 21.4786C35.0229 21.4786 39.8405 16.6607 39.8405 10.7392C39.8405 4.81758 35.0229 0 29.1013 0C23.1798 0 18.3622 4.81758 18.3622 10.7392Z" fill="black"/>
<path fill-rule="evenodd" clip-rule="evenodd" d="M6.31867 34.0104C6.64064 33.6884 7.13499 33.6304 7.52756 33.873C7.69651 33.976 7.21134 33.5343 15.9836 42.2943C16.3739 42.6846 16.3529 43.3064 15.9889 43.6703L11.9537 47.6456L2.36094 37.9795L6.31867 34.0104ZM18.5572 27.5316C20.0526 27.5316 21.4983 27.8326 22.8552 28.4262C22.9789 28.4804 23.112 28.5082 23.2466 28.5082H34.3333C35.3919 28.5082 36.286 29.3715 36.286 30.4606C36.286 31.5374 35.4102 32.4133 34.3333 32.4133H26.3678C25.8288 32.4133 25.3917 32.8505 25.3917 33.3895C25.3917 33.9289 25.8288 34.3656 26.3678 34.3656H34.3333C36.4867 34.3656 38.2384 32.614 38.2384 30.4606C38.2384 30.2889 38.2262 30.1188 38.2041 29.9502C43.777 24.2216 44.5628 23.4167 44.5964 23.3767C45.2922 22.5554 46.5274 22.4512 47.349 23.144C48.1715 23.8394 48.2757 25.0739 47.5779 25.8997L38.8213 36.368C37.5426 37.5956 35.8637 38.2713 34.0891 38.2713H21.1104C19.8385 38.2713 18.6346 38.7576 17.7214 39.6399L16.8918 40.4406L9.2432 32.7925C11.0308 29.439 14.3851 27.5317 18.5572 27.5317V27.5316ZM11.2531 49.7113C11.6315 50.0928 12.2476 50.097 12.631 49.7194L17.3642 45.0562C18.1684 44.2522 18.4129 43.0615 18.0593 42.0267L19.0774 41.0447C19.6256 40.5152 20.3473 40.2234 21.1103 40.2234H34.089C36.3916 40.2234 38.5679 39.3392 40.2178 37.7336C40.2856 37.6676 39.7024 38.3546 49.0721 27.1561C50.4617 25.512 50.2539 23.0431 48.6082 21.6519C46.9729 20.2737 44.523 20.4716 43.1295 22.0875L37.3685 28.0087C36.6411 27.1134 35.5318 26.5553 34.3332 26.5553H23.4465C21.8972 25.9072 20.2535 25.5791 18.5575 25.5791C13.8563 25.5791 9.75122 27.7504 7.54829 31.8215C6.62015 31.6457 5.64135 31.9264 4.93715 32.6306L0.292703 37.2887C-0.0864972 37.669 -0.0872806 38.2844 0.291136 38.6659L11.2531 49.7113Z" fill="black"/>
</svg>
