<svg xmlns="http://www.w3.org/2000/svg" xmlns:xlink="http://www.w3.org/1999/xlink" width="50" height="50" viewBox="0 0 50 50"><defs><style>.a{fill:none;}.b{clip-path:url(#a);}.c{fill:#f6f6f6;}.d{fill:#e9e9e9;}.e{fill:#37474f;}.f{fill:#facf39;}.g{fill:#e7633f;}.h{fill:#c34725;}.i{stroke:#000;stroke-width:0.25px;}.j{fill:#fed370;}</style><clipPath id="a"><rect class="a" width="50" height="50"/></clipPath></defs><g class="b"><rect class="a" width="50" height="50" rx="4"/><g transform="translate(3 3)"><path class="c" d="M41.637,5.3H37.587V7.473a1.719,1.719,0,0,1-1.719,1.719h-.1a1.719,1.719,0,0,1-1.719-1.719V5.3H10.156V7.473A1.719,1.719,0,0,1,8.437,9.191h-.1A1.719,1.719,0,0,1,6.614,7.473V5.3H2.363A1.719,1.719,0,0,0,.645,7.015V41.637a1.719,1.719,0,0,0,1.719,1.719H41.637a1.719,1.719,0,0,0,1.719-1.719V7.015A1.719,1.719,0,0,0,41.637,5.3Z"/><path class="d" d="M41.637,5.3H37.587V7.473A1.71,1.71,0,0,1,37.168,8.6V35.449a1.719,1.719,0,0,1-1.719,1.719H.645v4.469a1.719,1.719,0,0,0,1.719,1.719H41.637a1.719,1.719,0,0,0,1.719-1.719V7.015A1.719,1.719,0,0,0,41.637,5.3Z"/><path class="e" d="M8.437,9.191h-.1A1.719,1.719,0,0,1,6.614,7.473V2.363A1.719,1.719,0,0,1,8.332.645h.1a1.719,1.719,0,0,1,1.719,1.719V7.473A1.719,1.719,0,0,1,8.437,9.191Z"/><path class="e" d="M35.869,9.191h-.1a1.719,1.719,0,0,1-1.719-1.719V2.363A1.719,1.719,0,0,1,35.764.645h.1a1.719,1.719,0,0,1,1.719,1.719V7.473A1.719,1.719,0,0,1,35.869,9.191Z"/><path class="f" d="M41.637,5.3H37.587V7.473a1.719,1.719,0,0,1-1.719,1.719h-.1a1.719,1.719,0,0,1-1.719-1.719V5.3H10.156V7.473A1.719,1.719,0,0,1,8.437,9.191h-.1A1.719,1.719,0,0,1,6.614,7.473V5.3H2.363A1.719,1.719,0,0,0,.645,7.015v7.3a1.719,1.719,0,0,0,1.719,1.719H41.637a1.719,1.719,0,0,0,1.719-1.719v-7.3A1.719,1.719,0,0,0,41.637,5.3Z"/><path class="g" d="M41.637,5.3H37.587V7.473a1.719,1.719,0,0,1-1.719,1.719h-.1a1.719,1.719,0,0,1-1.719-1.719V5.3H10.156V7.473A1.719,1.719,0,0,1,8.437,9.191h-.1A1.719,1.719,0,0,1,6.614,7.473V5.3H2.363A1.719,1.719,0,0,0,.645,7.015v7.3a1.719,1.719,0,0,0,1.719,1.719H41.637a1.719,1.719,0,0,0,1.719-1.719v-7.3A1.719,1.719,0,0,0,41.637,5.3Z"/><path class="h" d="M41.637,5.3H37.587V7.473a1.71,1.71,0,0,1-.3.972v7.594h4.351a1.719,1.719,0,0,0,1.719-1.719v-7.3A1.719,1.719,0,0,0,41.637,5.3Z"/><path class="i" d="M7.824,42.711H2.363a1.075,1.075,0,0,1-1.074-1.074V16.425a2.349,2.349,0,0,0,1.074.259H34.045a.645.645,0,0,0,0-1.289H2.363A1.075,1.075,0,0,1,1.289,14.32v-7.3A1.075,1.075,0,0,1,2.363,5.941H5.969V7.473A2.366,2.366,0,0,0,8.333,9.836H8.5a2.367,2.367,0,0,0,2.275-2c0-.02.006-.039.008-.059s.007-.059.01-.089q.009-.1.009-.211V5.941h3.11a.645.645,0,0,0,0-1.289H10.8V2.363A2.366,2.366,0,0,0,8.437,0h-.1A2.366,2.366,0,0,0,5.969,2.363V4.652H2.363A2.366,2.366,0,0,0,0,7.015V41.637A2.366,2.366,0,0,0,2.363,44h5.46a.645.645,0,1,0,0-1.289ZM7.258,2.363A1.075,1.075,0,0,1,8.333,1.289h.1A1.075,1.075,0,0,1,9.511,2.363V7.473A1.075,1.075,0,0,1,8.437,8.547h-.1A1.075,1.075,0,0,1,7.258,7.473Z"/><path class="i" d="M41.637,4.652h-3.4V2.363A2.366,2.366,0,0,0,35.869,0h-.1A2.366,2.366,0,0,0,33.4,2.363V4.652H16.919a.645.645,0,1,0,0,1.289H33.4V7.473a2.366,2.366,0,0,0,2.363,2.363h.1a2.366,2.366,0,0,0,2.363-2.363V5.941h3.4a1.075,1.075,0,0,1,1.074,1.074v7.3a1.075,1.075,0,0,1-1.074,1.074H37.053a.645.645,0,1,0,0,1.289h4.584a2.349,2.349,0,0,0,1.074-.259V29.381a.645.645,0,0,0,1.289,0V7.015A2.366,2.366,0,0,0,41.637,4.652ZM36.943,7.473a1.075,1.075,0,0,1-1.074,1.074h-.1A1.075,1.075,0,0,1,34.69,7.473V2.363a1.075,1.075,0,0,1,1.074-1.074h.1a1.075,1.075,0,0,1,1.074,1.074Z"/><path class="i" d="M43.355,31.744a.644.644,0,0,0-.645.645v9.248a1.075,1.075,0,0,1-1.074,1.074H10.832a.645.645,0,1,0,0,1.289H41.637A2.366,2.366,0,0,0,44,41.637V32.389A.644.644,0,0,0,43.355,31.744Z"/><path d="M12.25,10.668a.644.644,0,0,0,.645.645H31.306a.645.645,0,0,0,0-1.289H12.895A.644.644,0,0,0,12.25,10.668Z"/><g transform="translate(9.96 -227.6)"><path class="j" d="M23.621,265.127a.781.781,0,0,0-.224.7l.664,3.883a.782.782,0,0,1-1.137.824L19.438,268.7a.773.773,0,0,0-.728,0l-3.487,1.833a.784.784,0,0,1-1.137-.824l.1-.568.568-3.315a.786.786,0,0,0-.224-.7L11.7,262.374a.781.781,0,0,1,.434-1.335l3.9-.568a.775.775,0,0,0,.588-.428l1.744-3.532a.784.784,0,0,1,1.405,0l1.744,3.532a.786.786,0,0,0,.588.428l1.207.172,2.7.39a.781.781,0,0,1,.434,1.335Z" transform="translate(-6.95 -6.998)"/><path d="M60.4,254.1a.478.478,0,0,1-.07-.952l1-.147a.3.3,0,0,0,.23-.166L63.3,249.3a1.261,1.261,0,0,1,2.261,0l.3.607a.477.477,0,1,1-.856.422l-.3-.607a.3.3,0,0,0-.549,0l-1.737,3.532a1.259,1.259,0,0,1-.952.69l-1,.147A.262.262,0,0,1,60.4,254.1Z" transform="translate(-52.31 0)"/><path d="M111.741,306.826a1.291,1.291,0,0,1-.588-.147l-3.487-1.833a.325.325,0,0,0-.287,0l-.728.383a.477.477,0,0,1-.447-.843l.728-.383a1.273,1.273,0,0,1,1.175,0l3.487,1.833a.277.277,0,0,0,.319-.026.292.292,0,0,0,.121-.3l-.664-3.883a1.255,1.255,0,0,1,.364-1.118l2.823-2.753a.308.308,0,0,0-.172-.524l-3.9-.568a1.269,1.269,0,0,1-.952-.69l-.517-1.047a.477.477,0,0,1,.856-.422l.517,1.047a.3.3,0,0,0,.23.166l3.9.568a1.266,1.266,0,0,1,.7,2.159l-2.817,2.753a.323.323,0,0,0-.089.268l.664,3.883a1.238,1.238,0,0,1-.5,1.233A1.221,1.221,0,0,1,111.741,306.826Z" transform="translate(-95.402 -42.725)"/><path d="M7.908,334.984a1.268,1.268,0,0,1-1.245-1.475l.664-3.883a.283.283,0,0,0-.089-.268L4.421,326.6a1.266,1.266,0,0,1,.7-2.159l.818-.121a.478.478,0,0,1,.141.945l-.818.121a.308.308,0,0,0-.172.524l2.823,2.753a1.255,1.255,0,0,1,.364,1.118l-.664,3.883a.3.3,0,0,0,.121.3.3.3,0,0,0,.319.026l.926-.485a.477.477,0,1,1,.447.843l-.932.485A1.215,1.215,0,0,1,7.908,334.984Z" transform="translate(0 -70.883)"/></g></g></g></svg>
