<svg xmlns="http://www.w3.org/2000/svg" xmlns:xlink="http://www.w3.org/1999/xlink" width="50" height="50" viewBox="0 0 50 50"><defs><style>.a{fill:none;}.b{clip-path:url(#a);}.c{fill:#e7633f;}.d{fill:#2aad52;}.e{fill:#b05a3d;}.f{fill:#d7875f;}.g{fill:#37474f;}.h{fill:#1a272e;}.i{fill:#ffcf48;}.j{fill:#fee4d0;}.k{fill:#ffd6b6;}.l{fill:#f6f6f6;}.m{fill:#7563eb;}</style><clipPath id="a"><rect class="a" width="50" height="50"/></clipPath></defs><g class="b"><rect class="a" width="50" height="50" rx="4"/><g transform="translate(-316 -160)"><g transform="translate(319 163)"><path class="c" d="M18.019,41.428H1.5a.213.213,0,0,1-.212-.238L1.9,35.866a4.83,4.83,0,0,1,4.8-4.275h6.115a4.83,4.83,0,0,1,4.8,4.275l.616,5.325A.213.213,0,0,1,18.019,41.428Z"/><path class="d" d="M17.615,35.866a4.83,4.83,0,0,0-4.8-4.275H11.1a4.83,4.83,0,0,1,4.8,4.275l.643,5.562h1.473a.213.213,0,0,0,.212-.238Z"/><path class="e" d="M7.536,27.884v3.878a2.222,2.222,0,0,0,2.222,2.222h0a2.222,2.222,0,0,0,2.222-2.222V27.884Z"/><path class="f" d="M17.034,21.152H15.681V17.889A4.279,4.279,0,0,0,11.4,13.61H8.115a4.279,4.279,0,0,0-4.279,4.278v3.263H2.483A1.383,1.383,0,0,0,1.1,22.535v.654a1.383,1.383,0,0,0,1.383,1.383H3.845a5.922,5.922,0,0,0,11.828,0h1.362a1.383,1.383,0,0,0,1.383-1.383v-.654A1.383,1.383,0,0,0,17.034,21.152Z"/><path class="g" d="M3.836,18.322h1.7A1.221,1.221,0,0,0,6.654,17.6l.442-.99a.454.454,0,0,1,.693-.173l2.094,1.629a1.221,1.221,0,0,0,.75.257h5.048V14.645a3.328,3.328,0,0,0-3.328-3.328H8.307a1.1,1.1,0,0,0-1.1,1.1V13H5.447a1.611,1.611,0,0,0-1.611,1.611v3.713Z"/><path class="g" d="M12.8,7.606v9.5H33.927V6.775a3.783,3.783,0,0,0-3.783-3.783H28.607l-.116-.239A3.742,3.742,0,0,0,25.125.645H19.765A6.962,6.962,0,0,0,12.8,7.606Z"/><path class="h" d="M30.143,2.992H28.607l-.116-.239A3.742,3.742,0,0,0,25.125.645H23.109a3.742,3.742,0,0,1,3.366,2.108l.116.239h1.536a3.783,3.783,0,0,1,3.783,3.783V17.1h2.016V6.775A3.783,3.783,0,0,0,30.143,2.992Z"/><path class="i" d="M34.8,42.888H11.935a.3.3,0,0,1-.293-.329l.852-7.368a6.683,6.683,0,0,1,6.64-5.916H27.6a6.683,6.683,0,0,1,6.64,5.916l.852,7.368A.3.3,0,0,1,34.8,42.888Z"/><path class="j" d="M20.29,24.147v6.2a3.075,3.075,0,0,0,3.075,3.075h0a3.075,3.075,0,0,0,3.075-3.075v-6.2Z"/><path class="j" d="M35.347,16.746v.905a1.914,1.914,0,0,1-1.914,1.914H31.548a8.194,8.194,0,0,1-16.366,0H13.3a1.914,1.914,0,0,1-1.914-1.914v-.905A1.914,1.914,0,0,1,13.3,14.832H15.17V11.411H22.05a6.642,6.642,0,0,0,6.54-5.482.346.346,0,0,1,.574-.2,7.256,7.256,0,0,1,2.4,5.4v3.7h1.873A1.914,1.914,0,0,1,35.347,16.746Z"/><path class="k" d="M33.433,14.832H31.56v-3.7a7.256,7.256,0,0,0-2.4-5.4.346.346,0,0,0-.574.2,6.591,6.591,0,0,1-.381,1.326,7.242,7.242,0,0,1,1.116,3.874v3.7l-.012,4.733a8.193,8.193,0,0,1-7.066,7.69,8.273,8.273,0,0,0,1.117.076,8.193,8.193,0,0,0,8.183-7.766h1.885a1.914,1.914,0,0,0,1.914-1.914v-.905A1.914,1.914,0,0,0,33.433,14.832Z"/><circle class="l" cx="7.554" cy="7.554" r="7.554" transform="translate(27.793 28.248)"/><path class="m" d="M39.924,34.523H36.9a.277.277,0,0,1-.277-.277V31.225a.277.277,0,0,0-.277-.277H34.344a.277.277,0,0,0-.277.277v3.021a.277.277,0,0,1-.277.277H30.77a.277.277,0,0,0-.277.277V36.8a.277.277,0,0,0,.277.277h3.021a.277.277,0,0,1,.277.277v3.021a.277.277,0,0,0,.277.277h2.005a.277.277,0,0,0,.277-.277V37.358a.277.277,0,0,1,.277-.277h3.021A.277.277,0,0,0,40.2,36.8V34.8A.277.277,0,0,0,39.924,34.523Z"/><path d="M7.439,22.082v-.454c0-.565-.289-1.023-.645-1.023s-.645.458-.645,1.023v.454c0,.565.289,1.023.645,1.023S7.439,22.647,7.439,22.082Z"/><path d="M12.723,20.605c-.356,0-.645.458-.645,1.023v.454c0,.565.289,1.023.645,1.023s.645-.458.645-1.023v-.454C13.368,21.063,13.079,20.605,12.723,20.605Z"/><path d="M19.263,16.822c.356,0,.645-.428.645-.956v-.587c0-.528-.289-.956-.645-.956s-.645.428-.645.956v.587C18.618,16.394,18.907,16.822,19.263,16.822Z"/><path d="M27.468,16.822c.356,0,.645-.428.645-.956v-.587c0-.528-.289-.956-.645-.956s-.645.428-.645.956v.587C26.823,16.394,27.112,16.822,27.468,16.822Z"/><path d="M40.419,29.361a.645.645,0,0,0-.8,1.012,6.876,6.876,0,1,1-2.169-1.154.645.645,0,1,0,.392-1.228,8.2,8.2,0,0,0-7.374,1.225,7.258,7.258,0,0,0-2.874-.585h-.511V27.157a8.851,8.851,0,0,0,5.054-6.948h1.294a2.561,2.561,0,0,0,2.558-2.558v-.905a2.561,2.561,0,0,0-1.42-2.29V6.774a4.433,4.433,0,0,0-4.428-4.428H29.009A4.413,4.413,0,0,0,25.125,0H19.766a7.582,7.582,0,0,0-4.081,1.186.645.645,0,0,0,.693,1.087,6.3,6.3,0,0,1,3.389-.984h5.359a3.115,3.115,0,0,1,2.787,1.745l.117.24a.645.645,0,0,0,.579.362h1.536a3.142,3.142,0,0,1,3.138,3.138v7.413H32.2V11.128A7.936,7.936,0,0,0,29.6,5.253a.99.99,0,0,0-1.641.564,5.983,5.983,0,0,1-5.906,4.949H14.128a.645.645,0,1,0,0,1.289h.4v2.132H13.448V7.606a6.263,6.263,0,0,1,1.228-3.743A.645.645,0,0,0,13.639,3.1a7.544,7.544,0,0,0-1.479,4.507v6.849a2.561,2.561,0,0,0-1.42,2.29v.905c0,.009,0,.018,0,.026h-.107a.578.578,0,0,1-.354-.121l-2.1-1.63a1.1,1.1,0,0,0-1.677.42l-.441.989a.577.577,0,0,1-.526.341H4.481V14.608a.967.967,0,0,1,.967-.966H7.212A.645.645,0,0,0,7.856,13v-.586a.452.452,0,0,1,.451-.451h2.041a.645.645,0,0,0,0-1.289H8.307a1.742,1.742,0,0,0-1.739,1.682H5.448a2.258,2.258,0,0,0-2.256,2.255v5.9H2.483A2.03,2.03,0,0,0,.455,22.535v.654a2.03,2.03,0,0,0,2.027,2.028h.778a6.562,6.562,0,0,0,3.631,4.956v.773H6.7a5.473,5.473,0,0,0-5.439,4.846L.646,41.117a.857.857,0,0,0,.853.956h7.74a.645.645,0,0,0,0-1.289H5.122V37.2a.645.645,0,0,0-1.289,0v3.587H1.982l.56-4.844a4.184,4.184,0,0,1,4.158-3.7h.23a2.867,2.867,0,0,0,5.655,0h.234a7.305,7.305,0,0,0-.967,2.882L11,42.487a.94.94,0,0,0,.933,1.046H32.618a8.2,8.2,0,0,0,7.8-14.172ZM25.8,30.346a2.431,2.431,0,1,1-4.862,0V27.637a8.9,8.9,0,0,0,4.862,0Zm-13.768-13.6A1.271,1.271,0,0,1,13.3,15.476h1.873a.645.645,0,0,0,.645-.645V12.055H22.05a7.27,7.27,0,0,0,7.06-5.476,6.646,6.646,0,0,1,1.806,4.549v3.7a.645.645,0,0,0,.645.645h1.873A1.271,1.271,0,0,1,34.7,16.746v.905a1.271,1.271,0,0,1-1.269,1.269H31.548a.644.644,0,0,0-.644.611,7.556,7.556,0,0,1-4.7,6.6l-.023.01a7.582,7.582,0,0,1-5.63,0l-.032-.012a7.541,7.541,0,0,1-4.689-6.6.645.645,0,0,0-.644-.611H13.3a1.271,1.271,0,0,1-1.269-1.269Zm-.691,15.017a1.578,1.578,0,1,1-3.156,0V30.638a6.588,6.588,0,0,0,3.156,0Zm1.48-.816h-.191v-.775a6.574,6.574,0,0,0,3.319-3.7.645.645,0,0,0-1.214-.433,5.291,5.291,0,0,1-3,3.125h0a5.3,5.3,0,0,1-3.939,0l-.021-.008A5.272,5.272,0,0,1,4.489,24.54a.645.645,0,0,0-.644-.611H2.483a.739.739,0,0,1-.738-.739v-.654a.74.74,0,0,1,.738-.739H3.836a.645.645,0,0,0,.645-.645V18.966H5.54a1.868,1.868,0,0,0,1.7-1.1l.343-.768,1.9,1.48a1.873,1.873,0,0,0,1.145.393H11.1A2.559,2.559,0,0,0,13.3,20.209h1.294a8.83,8.83,0,0,0,5.054,6.948v1.474h-.511a7.316,7.316,0,0,0-5.414,2.39A5.506,5.506,0,0,0,12.817,30.946Zm3.885,11.3V37.033a.645.645,0,1,0-1.289,0v5.211H12.327l.807-6.978a6.037,6.037,0,0,1,6-5.345h.511v.425a3.72,3.72,0,1,0,7.44,0V29.92H27.6a6.009,6.009,0,0,1,1.783.267,8.186,8.186,0,0,0,.9,12.056H16.7Z"/><path d="M34.344,41.3h2.005a.922.922,0,0,0,.921-.921V37.726h2.653a.922.922,0,0,0,.921-.921V34.8a.922.922,0,0,0-.921-.921H37.27V31.225a.922.922,0,0,0-.921-.921H34.344a.922.922,0,0,0-.921.921v2.653H30.77a.922.922,0,0,0-.921.921V36.8a.922.922,0,0,0,.921.921h2.653v2.653A.922.922,0,0,0,34.344,41.3Zm-3.207-4.864V35.167h2.653a.922.922,0,0,0,.921-.921V31.593h1.269v2.653a.922.922,0,0,0,.921.921h2.653v1.269H36.9a.922.922,0,0,0-.921.921v2.653H34.712V37.358a.922.922,0,0,0-.921-.921H31.138Z"/></g></g></g></svg>
