<svg xmlns="http://www.w3.org/2000/svg" xmlns:xlink="http://www.w3.org/1999/xlink" width="50" height="50" viewBox="0 0 50 50"><defs><style>.a{fill:none;}.b{clip-path:url(#a);}.c{fill:#fee4d0;}.d{fill:#ffd6b6;}.e{fill:#ffcf48;}.f{fill:#e5b940;}.g{fill:#37474f;}.h{fill:#1a272e;}.i{fill:#f6f6f6;}.j{fill:#7563eb;}</style><clipPath id="a"><rect class="a" width="50" height="50"/></clipPath></defs><g class="b"><rect class="a" width="50" height="50" rx="4"/><g transform="translate(10.92 3)"><path class="c" d="M29.7,18.11h-.143V12.336H7.779V18.11H7.636a2.418,2.418,0,1,0,0,4.836h.143v.077a7.859,7.859,0,0,0,7.859,7.859h6.056a7.859,7.859,0,0,0,7.859-7.859v-.077H29.7a2.418,2.418,0,1,0,0-4.836Z" transform="translate(-4.575 -1.48)"/><path d="M17.006,22.548a.645.645,0,0,1-.645-.645V20.617a.645.645,0,1,1,1.289,0V21.9A.645.645,0,0,1,17.006,22.548Z" transform="translate(-5.912 -2.397)"/><path d="M23.8,22.548a.645.645,0,0,1-.645-.645V20.617a.645.645,0,1,1,1.289,0V21.9A.645.645,0,0,1,23.8,22.548Z" transform="translate(-6.727 -2.397)"/><path class="d" d="M34.1,20.528a2.418,2.418,0,0,1-2.418,2.418h-.143v.078a7.859,7.859,0,0,1-7.859,7.859H21.762a7.859,7.859,0,0,0,7.859-7.859V12.336h1.918v5.773h.143A2.419,2.419,0,0,1,34.1,20.528Z" transform="translate(-6.56 -1.48)"/><path class="c" d="M25.9,47.366V40.177a4.11,4.11,0,0,0-3.532-4.07c-.851-.12-.863-.094-.863-.986V33.411H17.8v1.711c0,.892-.011.866-.863.986a4.11,4.11,0,0,0-3.532,4.07v7.189Z" transform="translate(-5.557 -4.009)"/><path class="d" d="M18.4,33.411h3.7V34.5H18.4Z" transform="translate(-6.156 -4.009)"/><path class="e" d="M25.895,40.525v7.189H13.4V40.525a4.108,4.108,0,0,1,2.833-3.907,4.213,4.213,0,0,1,.7-.163,2.183,2.183,0,0,0,.679-.146l.159.036.4.227a2.986,2.986,0,0,0,2.927.01l.426-.237.159-.036.037.019a2.743,2.743,0,0,0,.642.126,4.222,4.222,0,0,1,.7.163,4.108,4.108,0,0,1,2.834,3.907Z" transform="translate(-5.557 -4.357)"/><path class="f" d="M26.961,40.525v7.189H25.515V40.525a4.139,4.139,0,0,0-1.707-3.335,4.1,4.1,0,0,0-1.127-.572c-.128-.041-.258-.077-.389-.107l.3-.166.159-.036.037.02a2.749,2.749,0,0,0,.642.126,4.2,4.2,0,0,1,.7.163,4.107,4.107,0,0,1,2.833,3.907Z" transform="translate(-6.624 -4.357)"/><path class="g" d="M27.517.956a2.368,2.368,0,0,0-1.582.6.253.253,0,0,1-.333,0,2.921,2.921,0,0,0-1.9-.7,3.144,3.144,0,0,0-1.162.228,3.188,3.188,0,0,0-.526.269q-.125.08-.242.171c-.084.066-.194.157-.3.253a.264.264,0,0,1-.4-.052l0,0A2.451,2.451,0,0,0,18.838.738a2.37,2.37,0,0,0-1.875.988l0,0a.264.264,0,0,1-.4.052c-.1-.1-.212-.187-.3-.253s-.159-.118-.242-.171a3.184,3.184,0,0,0-.526-.269A3.144,3.144,0,0,0,14.331.859a2.921,2.921,0,0,0-1.9.7.253.253,0,0,1-.333,0,2.4,2.4,0,0,0-3.96,1.42v14.5a.258.258,0,0,0,.445.179A10.218,10.218,0,0,0,11.37,12.47a.667.667,0,0,1,.8-.559c.5.109,1.072.235,1.133.246a31.257,31.257,0,0,0,4.9.449l.812-.007.812.007a31.258,31.258,0,0,0,4.9-.449c.061-.01.637-.136,1.133-.246a.667.667,0,0,1,.8.559,10.217,10.217,0,0,0,2.786,5.191.259.259,0,0,0,.445-.179V2.979A2.391,2.391,0,0,0,27.517.956Z" transform="translate(-4.925 -0.088)"/><path class="h" d="M32.4,3.009v14.5a.258.258,0,0,1-.445.179,12.416,12.416,0,0,1-1.471-1.867V3.009a2.154,2.154,0,0,0-1.434-1.815,2.355,2.355,0,0,1,.972-.208A2.391,2.391,0,0,1,32.4,3.009Z" transform="translate(-7.435 -0.118)"/><circle class="i" cx="6.442" cy="6.442" r="6.442" transform="translate(22.575 0.643)"/><path d="M39.358,3.093a.643.643,0,0,0-1.062.725,5.793,5.793,0,1,1-1.986-1.809A.643.643,0,0,0,36.934.884a7.075,7.075,0,0,0-7.5.408,3.167,3.167,0,0,0-.377-.348,3.339,3.339,0,0,0-1.977-.72,3.015,3.015,0,0,0-1.751.559A3.578,3.578,0,0,0,23.265.129a3.761,3.761,0,0,0-1.4.274,3.849,3.849,0,0,0-.632.323c-.1.064-.2.134-.294.207l-.024.019A3.178,3.178,0,0,0,18.357.008a3.142,3.142,0,0,0-2.113.944L16.219.933C16.126.86,16.027.79,15.925.726A3.833,3.833,0,0,0,15.293.4a3.76,3.76,0,0,0-1.4-.274,3.579,3.579,0,0,0-2.064.656A3.014,3.014,0,0,0,10.078.225,3.339,3.339,0,0,0,8.1.945,2.487,2.487,0,0,0,7.058,2.891V15.367l-.009,0v.662a3.061,3.061,0,0,0,.016,6.043,8.513,8.513,0,0,0,8.486,7.975h.533v1.068c0,.1,0,.21,0,.3l-.232.034-.075.01a4.753,4.753,0,0,0-4.085,4.706v.9a.643.643,0,0,0,1.286,0v-.9a3.468,3.468,0,0,1,2.979-3.433l.073-.01a4.962,4.962,0,0,0,.512-.089,4.452,4.452,0,0,0,4.137.014c.137.031.287.052.454.075l.073.01a3.468,3.468,0,0,1,2.979,3.433v6.546H22.433V37.865a.643.643,0,1,0-1.286,0v4.849H16.009V37.865a.643.643,0,1,0-1.286,0v4.849H12.975V39.978a.643.643,0,1,0-1.286,0v3.38a.643.643,0,0,0,.643.643H24.825a.643.643,0,0,0,.643-.643V36.168a4.753,4.753,0,0,0-4.085-4.706l-.075-.01c-.078-.011-.161-.023-.232-.034,0-.094,0-.209,0-.3V30.045h.533A8.473,8.473,0,0,0,27.4,27.766a.643.643,0,1,0-.876-.941,7.191,7.191,0,0,1-4.917,1.934H15.551a7.224,7.224,0,0,1-7.216-7.216v-.078a.643.643,0,0,0-.643-.643H7.548a1.775,1.775,0,0,1-.49-3.48v.052a.9.9,0,0,0,1.553.623,10.759,10.759,0,0,0,2.958-5.542.032.032,0,0,1,.013-.023.016.016,0,0,1,.015,0c1.073.236,1.134.247,1.163.252a31.868,31.868,0,0,0,5,.458h.013l.806-.007.806.007H19.4a31.862,31.862,0,0,0,5-.458c.029,0,.09-.015,1.163-.252a.016.016,0,0,1,.015,0,.032.032,0,0,1,.013.023,10.758,10.758,0,0,0,2.958,5.542.9.9,0,0,0,1.553-.623v-.052a1.775,1.775,0,0,1-.49,3.48h-.143a.643.643,0,0,0-.643.643v.078a7.152,7.152,0,0,1-.687,3.078.643.643,0,1,0,1.162.549,8.4,8.4,0,0,0,.795-3.1,3.061,3.061,0,0,0,.016-6.043V13.3a7.084,7.084,0,0,0,9.25-10.208ZM17.37,31.113V30.045h2.418v1.068c0,.193,0,.365.014.522a3.18,3.18,0,0,1-2.443-.029C17.369,31.457,17.37,31.294,17.37,31.113Zm11.444-14.74a8.916,8.916,0,0,1-1.953-4.084,1.323,1.323,0,0,0-.555-.893,1.309,1.309,0,0,0-.742-.23,1.294,1.294,0,0,0-.279.03c-.94.207-1.085.236-1.1.24a30.559,30.559,0,0,1-4.792.439l-.805-.007h-.012l-.805.007a30.558,30.558,0,0,1-4.788-.439c-.022,0-.168-.034-1.107-.241a1.309,1.309,0,0,0-1.021.2,1.323,1.323,0,0,0-.555.893,8.916,8.916,0,0,1-1.953,4.085V2.891c0-.711.978-1.381,1.735-1.381a1.731,1.731,0,0,1,1.154.44.9.9,0,0,0,1.177.009,2.291,2.291,0,0,1,1.483-.545,2.514,2.514,0,0,1,.923.182,2.557,2.557,0,0,1,.42.214c.066.042.13.087.191.135s.154.123.251.215a.906.906,0,0,0,1.393-.182,1.724,1.724,0,0,1,1.373-.687,1.844,1.844,0,0,1,1.644.69.907.907,0,0,0,1.391.179c.1-.092.2-.174.251-.215s.125-.093.191-.135a2.554,2.554,0,0,1,.42-.214,2.515,2.515,0,0,1,.923-.182,2.29,2.29,0,0,1,1.483.545.9.9,0,0,0,1.177-.009,1.731,1.731,0,0,1,1.154-.44,2.07,2.07,0,0,1,1.371.617,7.07,7.07,0,0,0,.364,10.261v3.985Z" transform="translate(-4.487 0)"/><path class="j" d="M268.666,293.2a.832.832,0,0,1-.589-.244l-1.335-1.335a.832.832,0,0,1,1.177-1.177l.746.746,2.273-2.274a.832.832,0,1,1,1.177,1.177l-1.76,1.76-1.1,1.1A.831.831,0,0,1,268.666,293.2Zm0,0" transform="translate(-240.03 -283.897)"/><path d="M265.471,281.558a1.332,1.332,0,0,0-1.884,0l-1.921,1.921-.393-.393a1.332,1.332,0,0,0-1.883,1.883l1.335,1.335a1.332,1.332,0,0,0,1.883,0l2.862-2.862a1.332,1.332,0,0,0,0-1.883Zm-.706,1.177L261.9,285.6a.333.333,0,0,1-.471,0l-1.335-1.335a.333.333,0,1,1,.471-.471l.746.746a.5.5,0,0,0,.706,0l2.274-2.273a.333.333,0,1,1,.471.471Zm0,0" transform="translate(-233.031 -276.895)"/></g></g></svg>
