<svg xmlns="http://www.w3.org/2000/svg" xmlns:xlink="http://www.w3.org/1999/xlink" width="50" height="50" viewBox="0 0 50 50"><defs><style>.a{fill:#f6f6f6;}.b{fill:none;}.c{clip-path:url(#a);}.d{clip-path:url(#b);}.e{fill:#e7633f;}.f{fill:#ffcf48;}</style><clipPath id="a"><rect class="b" width="50" height="50"/></clipPath><clipPath id="b"><rect class="a" width="44" height="44" rx="4" transform="translate(319 163)"/></clipPath></defs><g class="c"><rect class="b" width="50" height="50"/><g class="d" transform="translate(-316 -160)"><g transform="translate(319 163)"><path class="a" d="M38.788,26.7H5.212A1.713,1.713,0,0,0,3.5,28.41V42.228h37V28.41A1.713,1.713,0,0,0,38.788,26.7Z"/><path class="a" d="M36.461,26.7H7.539V17.36a1.713,1.713,0,0,1,1.713-1.713h25.5a1.713,1.713,0,0,1,1.713,1.713V26.7Z"/><path class="e" d="M38.788,26.7H5.212A1.713,1.713,0,0,0,3.5,28.41v3.769c3.083,0,3.083,2.056,6.167,2.056s3.083-2.056,6.167-2.056S18.916,34.234,22,34.234s3.084-2.056,6.167-2.056,3.084,2.056,6.167,2.056,3.084-2.056,6.167-2.056V28.41A1.713,1.713,0,0,0,38.788,26.7Z"/><path class="e" d="M36.461,17.36a1.713,1.713,0,0,0-1.713-1.713H9.252A1.713,1.713,0,0,0,7.539,17.36v3.278a4.635,4.635,0,0,0,2.127.453c3.083,0,3.083-2.056,6.167-2.056S18.916,21.091,22,21.091s3.084-2.056,6.167-2.056,3.084,2.056,6.167,2.056a4.637,4.637,0,0,0,2.127-.454Z"/><path d="M15.233,27.556a.846.846,0,0,1-.168-.016.868.868,0,0,1-.161-.049.848.848,0,0,1-.149-.079.878.878,0,0,1-.131-.107.822.822,0,0,1-.107-.131.872.872,0,0,1-.079-.148.91.91,0,0,1-.049-.161.862.862,0,0,1-.017-.168.847.847,0,0,1,.017-.168.868.868,0,0,1,.049-.161.848.848,0,0,1,.079-.149.835.835,0,0,1,.237-.237.848.848,0,0,1,.149-.079.858.858,0,0,1,.936.186.878.878,0,0,1,.107.131.848.848,0,0,1,.079.149.868.868,0,0,1,.049.161.846.846,0,0,1,.016.168.86.86,0,0,1-.016.168.91.91,0,0,1-.049.161.861.861,0,0,1-.794.53Z"/><path class="f" d="M14.609,10.772h0a2.63,2.63,0,0,1-3.719,0h0a2.63,2.63,0,0,1-.5-3.024l2.358-4.778,2.358,4.778A2.63,2.63,0,0,1,14.609,10.772Z"/><path class="f" d="M23.86,9.573h0a2.63,2.63,0,0,1-3.719,0h0a2.63,2.63,0,0,1-.5-3.024L22,1.772l2.358,4.778A2.63,2.63,0,0,1,23.86,9.573Z"/><path class="f" d="M33.11,10.772h0a2.63,2.63,0,0,1-3.719,0h0a2.63,2.63,0,0,1-.5-3.024l2.358-4.778,2.358,4.778A2.63,2.63,0,0,1,33.11,10.772Z"/><path d="M43.141,41.369h-1.78V28.41a2.575,2.575,0,0,0-2.572-2.572H37.321V17.36a2.575,2.575,0,0,0-2.572-2.572H32.11v-2.5a3.487,3.487,0,0,0,2.27-4.925L32.021,2.59a.859.859,0,0,0-1.541,0L28.122,7.368a3.487,3.487,0,0,0,2.27,4.925v2.5H22.859V11.094a3.487,3.487,0,0,0,2.27-4.925L22.771,1.391a.859.859,0,0,0-1.541,0L18.871,6.169a3.487,3.487,0,0,0,2.27,4.925v3.694H13.609V12.3a3.492,3.492,0,0,0,2.27-4.927L13.52,2.59a.859.859,0,0,0-1.541,0L9.621,7.368A3.492,3.492,0,0,0,11.89,12.3v2.492H9.252A2.575,2.575,0,0,0,6.679,17.36v8.477H5.212A2.575,2.575,0,0,0,2.639,28.41V41.369H.859a.859.859,0,0,0,0,1.719H43.141a.859.859,0,0,0,0-1.719ZM30,10.164a1.77,1.77,0,0,1-.336-2.036l1.588-3.217,1.588,3.217a1.77,1.77,0,0,1-.336,2.036h0a1.777,1.777,0,0,1-2.5,0Zm-9.251-1.2a1.77,1.77,0,0,1-.336-2.036L22,3.713,23.588,6.93a1.77,1.77,0,0,1-.336,2.036h0a1.776,1.776,0,0,1-2.5,0Zm-9.251,1.2a1.77,1.77,0,0,1-.336-2.036L12.75,4.912l1.588,3.217A1.77,1.77,0,0,1,14,10.164h0a1.777,1.777,0,0,1-2.5,0Zm-3.1,7.2a.855.855,0,0,1,.854-.854h25.5a.855.855,0,0,1,.854.854v2.7a4.158,4.158,0,0,1-1.268.174,4.025,4.025,0,0,1-2.607-.884,5.993,5.993,0,0,0-7.121,0,4.287,4.287,0,0,1-5.214,0,5.691,5.691,0,0,0-3.56-1.172,5.69,5.69,0,0,0-3.56,1.172,4.024,4.024,0,0,1-2.607.884A4.16,4.16,0,0,1,8.4,20.058v-2.7h0ZM39.642,41.369H4.358V33.11a4.362,4.362,0,0,1,1.747.812,5.69,5.69,0,0,0,3.56,1.172,5.691,5.691,0,0,0,3.56-1.172,4.024,4.024,0,0,1,2.607-.884,4.024,4.024,0,0,1,2.607.884,5.993,5.993,0,0,0,7.12,0,4.288,4.288,0,0,1,5.214,0,5.993,5.993,0,0,0,7.121,0,4.364,4.364,0,0,1,1.748-.812Zm0-10a5.8,5.8,0,0,0-2.7,1.12,4.288,4.288,0,0,1-5.214,0,5.993,5.993,0,0,0-7.121,0,4.287,4.287,0,0,1-5.214,0,5.69,5.69,0,0,0-3.56-1.172,5.691,5.691,0,0,0-3.56,1.172,4.024,4.024,0,0,1-2.607.884,4.024,4.024,0,0,1-2.607-.884,5.8,5.8,0,0,0-2.7-1.12V28.41a.855.855,0,0,1,.854-.854h6.6a.859.859,0,0,0,0-1.719H8.4V21.83a6.288,6.288,0,0,0,1.268.121,5.691,5.691,0,0,0,3.56-1.172,4.024,4.024,0,0,1,2.607-.884,4.024,4.024,0,0,1,2.607.884,5.993,5.993,0,0,0,7.12,0,4.288,4.288,0,0,1,5.214,0,5.691,5.691,0,0,0,3.56,1.172A6.292,6.292,0,0,0,35.6,21.83v4.008H18.66a.859.859,0,0,0,0,1.719H38.788a.855.855,0,0,1,.854.854v2.961Z"/><path d="M7.539,40.262a.866.866,0,0,1-.608-.252.863.863,0,0,1-.186-.279A.868.868,0,0,1,6.7,39.57a.873.873,0,0,1,0-.336.868.868,0,0,1,.049-.161.863.863,0,0,1,.186-.279.862.862,0,0,1,1.215,0,.847.847,0,0,1,.186.279.868.868,0,0,1,.049.161.83.83,0,0,1,0,.336.868.868,0,0,1-.049.161.847.847,0,0,1-.186.279.864.864,0,0,1-.439.235A.853.853,0,0,1,7.539,40.262Z"/><path d="M16.775,37.692a.846.846,0,0,1-.168-.017.868.868,0,0,1-.161-.049.848.848,0,0,1-.149-.079.872.872,0,0,1-.131-.107.863.863,0,0,1-.107-.131.914.914,0,0,1-.079-.149A.868.868,0,0,1,15.933,37a.83.83,0,0,1,0-.336.868.868,0,0,1,.049-.161.914.914,0,0,1,.079-.149.863.863,0,0,1,.107-.131.823.823,0,0,1,.131-.107.848.848,0,0,1,.149-.079.868.868,0,0,1,.161-.049.85.85,0,0,1,.336,0,.909.909,0,0,1,.161.049.872.872,0,0,1,.148.079.823.823,0,0,1,.131.107.924.924,0,0,1,.107.131.914.914,0,0,1,.079.149.868.868,0,0,1,.049.161.872.872,0,0,1,0,.336.868.868,0,0,1-.049.161.914.914,0,0,1-.079.149.924.924,0,0,1-.107.131.872.872,0,0,1-.278.186.91.91,0,0,1-.161.049A.862.862,0,0,1,16.775,37.692Z"/><path d="M26.711,40.262a.862.862,0,0,1-.168-.017.91.91,0,0,1-.161-.049.872.872,0,0,1-.148-.079.823.823,0,0,1-.131-.107A.924.924,0,0,1,26,39.879a.914.914,0,0,1-.079-.149.868.868,0,0,1-.049-.161.872.872,0,0,1,0-.336.868.868,0,0,1,.049-.161A.914.914,0,0,1,26,38.925a.975.975,0,0,1,.107-.131.872.872,0,0,1,.278-.186.909.909,0,0,1,.161-.049.85.85,0,0,1,.336,0,.868.868,0,0,1,.161.049.848.848,0,0,1,.149.079.873.873,0,0,1,.131.107.863.863,0,0,1,.186.279.868.868,0,0,1,.049.161.83.83,0,0,1,0,.336.868.868,0,0,1-.049.161.914.914,0,0,1-.079.149.855.855,0,0,1-.714.382Z"/><path d="M36.462,38.205a.854.854,0,0,1-.168-.016.868.868,0,0,1-.161-.049.914.914,0,0,1-.149-.079.969.969,0,0,1-.131-.107.926.926,0,0,1-.107-.131.861.861,0,0,1-.128-.309.854.854,0,0,1-.016-.168.846.846,0,0,1,.016-.168.868.868,0,0,1,.049-.161.88.88,0,0,1,.079-.149.918.918,0,0,1,.107-.131.858.858,0,0,1,1.323.131.88.88,0,0,1,.079.149.868.868,0,0,1,.049.161.847.847,0,0,1,.017.168.855.855,0,0,1-.017.168.888.888,0,0,1-.049.161.854.854,0,0,1-.793.53Z"/><path d="M27.91,24.159a.847.847,0,0,1-.168-.017.868.868,0,0,1-.161-.049.848.848,0,0,1-.149-.079.835.835,0,0,1-.237-.237.88.88,0,0,1-.079-.149.868.868,0,0,1-.049-.161.847.847,0,0,1-.017-.168.862.862,0,0,1,.017-.168.909.909,0,0,1,.049-.161.872.872,0,0,1,.079-.148.853.853,0,0,1,.237-.238.848.848,0,0,1,.149-.079.868.868,0,0,1,.161-.049.851.851,0,0,1,.336,0,.909.909,0,0,1,.161.049.872.872,0,0,1,.148.079.828.828,0,0,1,.131.107.856.856,0,0,1,.186.278.91.91,0,0,1,.049.161.861.861,0,0,1,.016.168.846.846,0,0,1-.016.168.868.868,0,0,1-.049.161.847.847,0,0,1-.186.279.822.822,0,0,1-.131.107.872.872,0,0,1-.148.079.91.91,0,0,1-.161.049A.868.868,0,0,1,27.91,24.159Z"/><path d="M16.69,22.988a.855.855,0,0,1-.168-.017.868.868,0,0,1-.161-.049.914.914,0,0,1-.149-.079.835.835,0,0,1-.237-.237.914.914,0,0,1-.079-.149.868.868,0,0,1-.049-.161.873.873,0,0,1,0-.336A.868.868,0,0,1,15.9,21.8a.853.853,0,0,1,.465-.465.868.868,0,0,1,.161-.049.851.851,0,0,1,.336,0,.868.868,0,0,1,.161.049.914.914,0,0,1,.149.079.835.835,0,0,1,.237.237.914.914,0,0,1,.079.149.868.868,0,0,1,.049.161.872.872,0,0,1,0,.336.868.868,0,0,1-.049.161.914.914,0,0,1-.079.149.969.969,0,0,1-.107.131.863.863,0,0,1-.279.186.868.868,0,0,1-.161.049A.846.846,0,0,1,16.69,22.988Z"/></g></g></g></svg>
