<svg xmlns="http://www.w3.org/2000/svg" width="50" height="50" viewBox="0 0 50 50"><defs><style>.a{fill:none;}.b{fill:#ffcf48;}.c{fill:#020202;}</style></defs><rect class="a" width="50" height="50"/><g transform="translate(5.987 2.64)"><g transform="translate(0.859 0.859)"><path class="b" d="M283.751,348.875A6.875,6.875,0,1,1,276.875,342,6.875,6.875,0,0,1,283.751,348.875Zm0,0" transform="translate(-247.655 -313.467)"/><path class="b" d="M283.751,16.875A6.875,6.875,0,1,1,276.875,10,6.875,6.875,0,0,1,283.751,16.875Zm0,0" transform="translate(-247.655 -10)"/><path class="b" d="M25.469,173.735A7.735,7.735,0,1,1,17.735,166,7.735,7.735,0,0,1,25.469,173.735Zm0,0" transform="translate(-10 -152.593)"/></g><path class="c" d="M40.346,15.469a7.732,7.732,0,1,0-6.925-4.286l-7.842,5.459a8.6,8.6,0,0,0-14.24,1.2.859.859,0,0,0,1.5.834,6.875,6.875,0,1,1,0,6.657.859.859,0,0,0-1.5.834,8.6,8.6,0,0,0,14.24,1.2l7.841,5.459a7.745,7.745,0,1,0,.934-1.444l-7.843-5.46a8.6,8.6,0,0,0,0-7.828l7.842-5.46A7.7,7.7,0,0,0,40.346,15.469Zm0-13.751A6.016,6.016,0,1,1,34.33,7.735,6.023,6.023,0,0,1,40.346,1.719Zm0,28.533a6.016,6.016,0,1,1-6.016,6.016A6.023,6.023,0,0,1,40.346,30.251Zm0,0" transform="translate(-10.266)"/><path class="c" d="M1.719,246.859A.859.859,0,1,1,.859,246,.859.859,0,0,1,1.719,246.859Zm0,0" transform="translate(0 -224.858)"/></g></svg>
