<svg xmlns="http://www.w3.org/2000/svg" xmlns:xlink="http://www.w3.org/1999/xlink" width="50" height="50" viewBox="0 0 50 50"><defs><style>.a{fill:none;}.b{clip-path:url(#a);}.c,.e{fill:#f6f6f6;}.c{opacity:0;}.d{fill:#282828;}.f{fill:#e7633f;}.g{fill:#ffcf48;}</style><clipPath id="a"><rect class="a" width="50" height="50"/></clipPath></defs><g class="b"><rect class="c" width="50" height="50"/><g transform="translate(-316 -160)"><g transform="translate(319 167.634)"><path class="d" d="M41.789,12.437H39.166a4.731,4.731,0,0,1-2.668-.848,3.509,3.509,0,0,0-1.985-.614h-.245l.536,1.65a.572.572,0,0,1-.88.639l-2.2-1.6a.571.571,0,0,0-.672,0l-2.2,1.6a.572.572,0,0,1-.88-.639l.536-1.65H25.887l.469,1.443a.729.729,0,0,1-1.123.815l-2.8-2.037a.728.728,0,0,0-.857,0l-2.8,2.037a.729.729,0,0,1-1.123-.815l.469-1.443H15.488l.536,1.65a.572.572,0,0,1-.88.639l-2.2-1.6a.571.571,0,0,0-.672,0l-2.2,1.6a.572.572,0,0,1-.88-.639l.536-1.65H9.488a3.509,3.509,0,0,0-1.985.614,4.731,4.731,0,0,1-2.668.848H2.211A1.566,1.566,0,0,0,.644,14V32.52a1.566,1.566,0,0,0,1.566,1.566H41.789a1.566,1.566,0,0,0,1.566-1.566V14a1.566,1.566,0,0,0-1.566-1.566Zm0,0"/><path class="e" d="M3.388,31.055V15.469a.288.288,0,0,1,.288-.288H40.324a.288.288,0,0,1,.288.288V31.055a.288.288,0,0,1-.288.288H3.677a.288.288,0,0,1-.288-.288Zm0,0"/><path class="f" d="M10.7,17.559H7.145a1.612,1.612,0,0,0-1.61,1.61v3.557a1.612,1.612,0,0,0,1.61,1.61h3.019v2.48H6.609a1.074,1.074,0,0,0,0,2.148H10.7a1.612,1.612,0,0,0,1.61-1.61V19.169a1.612,1.612,0,0,0-1.61-1.61Zm-.538,4.629H7.683v-2.48h2.481Zm0,0"/><path class="f" d="M19.391,17.559H15.834a1.612,1.612,0,0,0-1.61,1.61v3.557a1.612,1.612,0,0,0,1.61,1.61h3.019v2.48H15.3a1.074,1.074,0,0,0,0,2.148h4.093A1.612,1.612,0,0,0,21,27.355V19.169a1.612,1.612,0,0,0-1.61-1.61Zm-.538,4.629H16.372v-2.48h2.481Zm0,0"/><path class="f" d="M28.08,17.559H24.523a1.612,1.612,0,0,0-1.61,1.61v3.557a1.612,1.612,0,0,0,1.61,1.61h3.019v2.48H23.987a1.074,1.074,0,0,0,0,2.148H28.08a1.612,1.612,0,0,0,1.61-1.61V19.169a1.612,1.612,0,0,0-1.61-1.61Zm-.538,4.629H25.061v-2.48h2.481Zm0,0"/><path class="f" d="M36.855,17.559H33.3a1.612,1.612,0,0,0-1.61,1.61v3.557a1.612,1.612,0,0,0,1.61,1.61h3.019v2.48H32.762a1.074,1.074,0,0,0,0,2.148h4.093a1.612,1.612,0,0,0,1.61-1.61V19.169a1.612,1.612,0,0,0-1.61-1.61Zm-.538,4.629H33.836v-2.48h2.481Zm0,0"/><path class="g" d="M22.694,1.149l1.071,3.3a.73.73,0,0,0,.694.5h3.467a.729.729,0,0,1,.429,1.319l-2.8,2.038a.729.729,0,0,0-.265.815l1.071,3.3a.729.729,0,0,1-1.122.815l-2.8-2.037a.728.728,0,0,0-.857,0l-2.8,2.037a.729.729,0,0,1-1.122-.815l1.071-3.3a.729.729,0,0,0-.265-.815l-2.8-2.038a.729.729,0,0,1,.429-1.319h3.466a.729.729,0,0,0,.694-.5l1.071-3.3a.729.729,0,0,1,1.387,0Zm0,0"/><path class="g" d="M15.392,9.4l2.2-1.6a.606.606,0,0,0,.078-.067L16.337,6.77h-1.8a.572.572,0,0,1-.544-.4l-.84-2.584a.572.572,0,0,0-1.087,0l-.84,2.584a.572.572,0,0,1-.543.4H7.966A.572.572,0,0,0,7.63,7.8l2.2,1.6a.572.572,0,0,1,.208.639L9.2,12.625a.572.572,0,0,0,.88.639l2.2-1.6a.571.571,0,0,1,.672,0l2.2,1.6a.572.572,0,0,0,.88-.639l-.84-2.585a.572.572,0,0,1,.208-.639Zm0,0"/><path class="g" d="M36.034,6.77H33.317a.572.572,0,0,1-.544-.4l-.84-2.584a.572.572,0,0,0-1.088,0l-.84,2.584a.572.572,0,0,1-.544.4h-1.8l-1.331.967a.587.587,0,0,0,.078.067l2.2,1.6a.572.572,0,0,1,.208.639l-.84,2.585a.572.572,0,0,0,.88.639l2.2-1.6a.572.572,0,0,1,.672,0l2.2,1.6a.572.572,0,0,0,.88-.639l-.84-2.585a.572.572,0,0,1,.208-.639l2.2-1.6a.572.572,0,0,0-.336-1.034Zm0,0"/><path d="M41.256,31.055V15.469a.934.934,0,0,0-.933-.933H3.676a.934.934,0,0,0-.933.933V31.055a.934.934,0,0,0,.933.933H40.323A.934.934,0,0,0,41.256,31.055ZM39.967,30.7H4.033V15.826H39.967Zm0,0"/><path d="M10.808,19.707a.644.644,0,0,0-.645-.645H7.683a.644.644,0,0,0-.645.645v2.48a.645.645,0,0,0,.645.645h2.481a.645.645,0,0,0,.645-.645ZM9.519,21.543H8.328V20.352H9.519Zm0,0"/><path d="M6.609,26.172a1.719,1.719,0,1,0,0,3.438H10.7a2.257,2.257,0,0,0,2.255-2.255V19.169A2.257,2.257,0,0,0,10.7,16.914H7.145A2.257,2.257,0,0,0,4.89,19.169v3.557a2.257,2.257,0,0,0,2.255,2.255H9.519v1.191Zm3.555-2.48H7.145a.967.967,0,0,1-.966-.965V19.169a.967.967,0,0,1,.966-.965H10.7a.967.967,0,0,1,.966.965v8.186a.967.967,0,0,1-.966.965H6.609a.43.43,0,0,1,0-.859h3.555a.644.644,0,0,0,.645-.645v-2.48a.645.645,0,0,0-.645-.645Zm0,0"/><path d="M15.3,26.172a1.719,1.719,0,1,0,0,3.438h4.093a2.257,2.257,0,0,0,2.255-2.255V19.169a2.257,2.257,0,0,0-2.255-2.255H15.834a2.257,2.257,0,0,0-2.255,2.255v3.557a2.257,2.257,0,0,0,2.255,2.255h2.374v1.191Zm3.555-2.48H15.834a.967.967,0,0,1-.966-.965V19.169a.967.967,0,0,1,.966-.965h3.557a.966.966,0,0,1,.965.965v8.186a.966.966,0,0,1-.965.965H15.3a.43.43,0,0,1,0-.859h3.555a.644.644,0,0,0,.645-.645v-2.48a.645.645,0,0,0-.645-.645Zm0,0"/><path d="M19.5,19.707a.644.644,0,0,0-.645-.645H16.372a.644.644,0,0,0-.645.645v2.48a.645.645,0,0,0,.645.645h2.481a.645.645,0,0,0,.645-.645Zm-1.289,1.836H17.017V20.352h1.192Zm0,0"/><path d="M27.542,19.063H25.061a.644.644,0,0,0-.645.645v2.48a.645.645,0,0,0,.645.645h2.481a.645.645,0,0,0,.645-.645v-2.48a.644.644,0,0,0-.645-.645Zm-.645,2.48H25.706V20.352H26.9Zm0,0"/><path d="M23.987,26.172a1.719,1.719,0,0,0,0,3.438H28.08a2.257,2.257,0,0,0,2.255-2.255V23.1a.645.645,0,0,0-1.289,0v4.259a.967.967,0,0,1-.965.965H23.987a.43.43,0,0,1,0-.859h3.555a.644.644,0,0,0,.645-.645v-2.48a.645.645,0,0,0-.645-.645H24.523a.967.967,0,0,1-.965-.965V19.169a.966.966,0,0,1,.965-.965H28.08a.967.967,0,0,1,.965.965v.919a.645.645,0,0,0,1.289,0v-.919a2.257,2.257,0,0,0-2.255-2.255H24.523a2.257,2.257,0,0,0-2.255,2.255v3.557a2.257,2.257,0,0,0,2.255,2.255H26.9v1.191Zm0,0"/><path d="M36.962,19.707a.644.644,0,0,0-.645-.645H33.836a.644.644,0,0,0-.645.645v2.48a.645.645,0,0,0,.645.645h2.481a.645.645,0,0,0,.645-.645Zm-1.289,1.836H34.481V20.352h1.192Zm0,0"/><path d="M32.762,26.172a1.719,1.719,0,1,0,0,3.438h4.093a2.257,2.257,0,0,0,2.255-2.255V19.169a2.257,2.257,0,0,0-2.255-2.255H33.3a2.257,2.257,0,0,0-2.255,2.255v3.557A2.257,2.257,0,0,0,33.3,24.981h2.375v1.191Zm3.555-2.48H33.3a.967.967,0,0,1-.966-.965V19.169A.967.967,0,0,1,33.3,18.2h3.557a.966.966,0,0,1,.965.965v8.186a.966.966,0,0,1-.965.965H32.762a.43.43,0,0,1,0-.859h3.555a.644.644,0,0,0,.645-.645v-2.48a.645.645,0,0,0-.645-.645Zm0,0"/><path d="M41.789,11.793H39.166a4.075,4.075,0,0,1-2.3-.736,4.14,4.14,0,0,0-2.124-.72l-.144-.444,2.155-1.566a1.216,1.216,0,0,0-.715-2.2H33.37l-.823-2.534a1.216,1.216,0,0,0-2.314,0L29.41,6.126h-.181a1.368,1.368,0,0,0,0-.872A1.353,1.353,0,0,0,27.925,4.3H27.6a.645.645,0,0,0,0,1.289h.326a.085.085,0,0,1,.05.153l-2.8,2.038a1.37,1.37,0,0,0-.5,1.536l1.071,3.3a.085.085,0,0,1-.131.1l-2.8-2.038a1.371,1.371,0,0,0-1.615,0l-2.8,2.038a.085.085,0,0,1-.131-.1l1.072-3.3a1.37,1.37,0,0,0-.5-1.536l-2.8-2.038a.085.085,0,0,1,.05-.153h3.466a1.371,1.371,0,0,0,1.307-.949l1.071-3.3a.085.085,0,0,1,.161,0l1.071,3.3a1.37,1.37,0,0,0,1.307.949h.133a.645.645,0,0,0,0-1.289h-.133a.084.084,0,0,1-.081-.058L23.307.949a1.374,1.374,0,0,0-2.613,0l-1.071,3.3a.084.084,0,0,1-.081.058H16.075a1.382,1.382,0,0,0-1.3,1.821H14.59l-.823-2.534a1.216,1.216,0,0,0-2.313,0L10.63,6.126H7.966a1.216,1.216,0,0,0-.715,2.2L9.406,9.892l-.144.444a4.14,4.14,0,0,0-2.124.721,4.078,4.078,0,0,1-2.3.736H2.211A2.213,2.213,0,0,0,0,14V32.52a2.213,2.213,0,0,0,2.211,2.211H4.194a.645.645,0,0,0,0-1.289H2.211a.923.923,0,0,1-.922-.922V14a.923.923,0,0,1,.922-.922H4.834a5.358,5.358,0,0,0,3.032-.961A2.864,2.864,0,0,1,8.82,11.7l-.237.728a1.216,1.216,0,0,0,1.871,1.36L12.61,12.22l2.156,1.566a1.216,1.216,0,0,0,1.871-1.36l-.262-.806h.851l-.2.6a1.374,1.374,0,0,0,2.114,1.536l2.8-2.037a.084.084,0,0,1,.1,0l2.8,2.037a1.374,1.374,0,0,0,2.114-1.536l-.2-.6h.851l-.262.807a1.216,1.216,0,0,0,1.872,1.36L31.39,12.22l2.155,1.566a1.216,1.216,0,0,0,1.872-1.36l-.237-.728a2.857,2.857,0,0,1,.953.423,5.36,5.36,0,0,0,3.032.961h2.623a.923.923,0,0,1,.922.921V32.521a.923.923,0,0,1-.922.921H7.2a.645.645,0,0,0,0,1.289H41.789A2.213,2.213,0,0,0,44,32.521V14a2.213,2.213,0,0,0-2.211-2.211Zm-28.464-.647a1.214,1.214,0,0,0-1.43,0L9.878,12.611l.77-2.371a1.212,1.212,0,0,0-.442-1.36L8.19,7.415h2.493a1.213,1.213,0,0,0,1.157-.84L12.61,4.2l.77,2.371a1.213,1.213,0,0,0,1.157.84h1.591l.451.328L15.013,8.88a1.213,1.213,0,0,0-.442,1.36l.77,2.371Zm2.631-.815-.142-.438,1.862-1.353.4.288a.085.085,0,0,1,.031.095l-.458,1.408Zm10.4,0L25.9,8.922a.084.084,0,0,1,.031-.095l.4-.288,1.862,1.353-.142.438Zm5.75.815a1.213,1.213,0,0,0-1.43,0l-2.017,1.465.77-2.371a1.213,1.213,0,0,0-.442-1.36L27.421,7.743l.452-.328h1.591a1.214,1.214,0,0,0,1.157-.84L31.39,4.2l.77,2.371a1.213,1.213,0,0,0,1.156.84H35.81L33.793,8.88a1.213,1.213,0,0,0-.442,1.36l.77,2.371Zm0,0"/></g></g></g></svg>
