<svg id="Schedule_" data-name="Schedule " xmlns="http://www.w3.org/2000/svg" width="50" height="50" viewBox="0 0 50 50">
  <g id="Group_6801" data-name="Group 6801" transform="translate(-312 -1117)">
    <g id="Anniversary" transform="translate(312 1117)">
      <rect id="Boundary" width="50" height="50" rx="4" fill="none"/>
      <g id="anniversary-2" data-name="anniversary" transform="translate(3 3)">
        <g id="Group_784" data-name="Group 784">
          <path id="Path_740" data-name="Path 740" d="M41.637,5.3H37.587V7.473a1.719,1.719,0,0,1-1.719,1.719h-.1a1.719,1.719,0,0,1-1.719-1.719V5.3H10.156V7.473A1.719,1.719,0,0,1,8.437,9.191h-.1A1.719,1.719,0,0,1,6.614,7.473V5.3H2.363A1.719,1.719,0,0,0,.645,7.015V41.637a1.719,1.719,0,0,0,1.719,1.719H41.637a1.719,1.719,0,0,0,1.719-1.719V7.015A1.719,1.719,0,0,0,41.637,5.3Z" fill="#f6f6f6"/>
          <path id="Path_741" data-name="Path 741" d="M41.637,5.3H37.587V7.473A1.71,1.71,0,0,1,37.168,8.6V35.449a1.719,1.719,0,0,1-1.719,1.719H.645v4.469a1.719,1.719,0,0,0,1.719,1.719H41.637a1.719,1.719,0,0,0,1.719-1.719V7.015A1.719,1.719,0,0,0,41.637,5.3Z" fill="#e9e9e9"/>
          <path id="Path_744" data-name="Path 744" d="M8.437,9.191h-.1A1.719,1.719,0,0,1,6.614,7.473V2.363A1.719,1.719,0,0,1,8.332.645h.1a1.719,1.719,0,0,1,1.719,1.719V7.473A1.719,1.719,0,0,1,8.437,9.191Z" fill="#f6f6f6"/>
          <path id="Path_745" data-name="Path 745" d="M35.869,9.191h-.1a1.719,1.719,0,0,1-1.719-1.719V2.363A1.719,1.719,0,0,1,35.764.645h.1a1.719,1.719,0,0,1,1.719,1.719V7.473A1.719,1.719,0,0,1,35.869,9.191Z" fill="#f6f6f6"/>
          <path id="Path_746" data-name="Path 746" d="M41.637,5.3H37.587V7.473a1.719,1.719,0,0,1-1.719,1.719h-.1a1.719,1.719,0,0,1-1.719-1.719V5.3H10.156V7.473A1.719,1.719,0,0,1,8.437,9.191h-.1A1.719,1.719,0,0,1,6.614,7.473V5.3H2.363A1.719,1.719,0,0,0,.645,7.015v7.3a1.719,1.719,0,0,0,1.719,1.719H41.637a1.719,1.719,0,0,0,1.719-1.719v-7.3A1.719,1.719,0,0,0,41.637,5.3Z" fill="#facf39"/>
          <path id="Path_748" data-name="Path 748" d="M41.637,5.3H37.587V7.473a1.71,1.71,0,0,1-.3.972v7.594h4.351a1.719,1.719,0,0,0,1.719-1.719v-7.3A1.719,1.719,0,0,0,41.637,5.3Z" opacity="0.078"/>
        </g>
        <g id="Group_785" data-name="Group 785">
          <path id="Path_750" data-name="Path 750" d="M7.824,42.711H2.363a1.075,1.075,0,0,1-1.074-1.074V16.425a2.349,2.349,0,0,0,1.074.259H38.045a.645.645,0,0,0,0-1.289H2.363A1.075,1.075,0,0,1,1.289,14.32v-7.3A1.075,1.075,0,0,1,2.363,5.941H5.969V7.473A2.366,2.366,0,0,0,8.333,9.836H8.5a2.367,2.367,0,0,0,2.275-2c0-.02.006-.039.008-.059s.007-.059.01-.089q.009-.1.009-.211V5.941h3.11a.645.645,0,0,0,0-1.289H10.8V2.363A2.366,2.366,0,0,0,8.437,0h-.1A2.366,2.366,0,0,0,5.969,2.363V4.652H2.363A2.366,2.366,0,0,0,0,7.015V41.637A2.366,2.366,0,0,0,2.363,44h5.46a.645.645,0,1,0,0-1.289ZM7.258,2.363A1.075,1.075,0,0,1,8.333,1.289h.1A1.075,1.075,0,0,1,9.511,2.363V7.473A1.075,1.075,0,0,1,8.437,8.547h-.1A1.075,1.075,0,0,1,7.258,7.473Z" stroke="#000" stroke-width="0.25"/>
          <path id="Path_751" data-name="Path 751" d="M41.637,4.652h-3.4V2.363A2.366,2.366,0,0,0,35.869,0h-.1A2.366,2.366,0,0,0,33.4,2.363V4.652H16.919a.645.645,0,1,0,0,1.289H33.4V7.473a2.366,2.366,0,0,0,2.363,2.363h.1a2.366,2.366,0,0,0,2.363-2.363V5.941h3.4a1.075,1.075,0,0,1,1.074,1.074v7.3a1.075,1.075,0,0,1-1.074,1.074H37.053a.645.645,0,1,0,0,1.289h4.584a2.349,2.349,0,0,0,1.074-.259V29.381a.645.645,0,0,0,1.289,0V7.015A2.366,2.366,0,0,0,41.637,4.652ZM36.943,7.473a1.075,1.075,0,0,1-1.074,1.074h-.1A1.075,1.075,0,0,1,34.69,7.473V2.363a1.075,1.075,0,0,1,1.074-1.074h.1a1.075,1.075,0,0,1,1.074,1.074Z" stroke="#000" stroke-width="0.25"/>
          <path id="Path_752" data-name="Path 752" d="M43.355,31.744a.644.644,0,0,0-.645.645v9.248a1.075,1.075,0,0,1-1.074,1.074H10.832a.645.645,0,1,0,0,1.289H41.637A2.366,2.366,0,0,0,44,41.637V32.389A.644.644,0,0,0,43.355,31.744Z" stroke="#000" stroke-width="0.25"/>
        </g>
      </g>
    </g>
    <line id="Line_302" data-name="Line 302" y2="21" transform="translate(333.274 1139.5)" fill="none" stroke="#000" stroke-linecap="round" stroke-width="1.6"/>
    <line id="Line_303" data-name="Line 303" y2="21" transform="translate(343.726 1139.5)" fill="none" stroke="#000" stroke-linecap="round" stroke-width="1.6"/>
    <line id="Line_304" data-name="Line 304" x1="32" transform="translate(321 1151.5)" fill="none" stroke="#000" stroke-linecap="round" stroke-width="1.6"/>
    <path id="Path_3452" data-name="Path 3452" d="M270.94,297.947a1.7,1.7,0,0,1-1.206-.5L267,294.711a1.706,1.706,0,0,1,2.412-2.413l1.53,1.53,4.659-4.66a1.706,1.706,0,0,1,2.412,2.413l-3.607,3.607-2.259,2.259A1.7,1.7,0,0,1,270.94,297.947Zm0,0" transform="translate(51.933 850.351)" fill="#e7633f" stroke="#000" stroke-linecap="round" stroke-linejoin="round" stroke-width="1"/>
  </g>
</svg>
