<svg xmlns="http://www.w3.org/2000/svg" xmlns:xlink="http://www.w3.org/1999/xlink" width="50" height="50" viewBox="0 0 50 50"><defs><style>.a{fill:none;}.b{clip-path:url(#a);}.c{fill:#ffcf48;fill-rule:evenodd;}</style><clipPath id="a"><rect class="a" width="50" height="50"/></clipPath></defs><g class="b"><rect class="a" width="50" height="50" rx="4"/><g transform="translate(-316 -160)"><g transform="translate(319 163)"><path class="c" d="M26.657,34.382l3.616-19.545c.331-1.243-.1-1.675-1.332-1.342l-19.4,3.669c-1.232.333-1.39.927-.485,1.835l3.563,3.583L1.364,33.921a1.729,1.729,0,0,0,0,2.425L7.6,42.633a1.7,1.7,0,0,0,2.409,0l11.26-11.341,3.565,3.584c.9.907,1.49.748,1.819-.493Zm0,0"/><path d="M28.748,12.65,9.382,16.313l-.065.015c-.348.094-1.406.381-1.655,1.314a2.168,2.168,0,0,0,.782,1.968L11.4,22.583.749,33.31a2.6,2.6,0,0,0,0,3.647L6.99,43.243a2.566,2.566,0,0,0,3.638,0l2.73-2.749a.867.867,0,0,0-1.23-1.221L9.4,42.022a.832.832,0,0,1-1.178,0L1.979,35.736a.868.868,0,0,1,0-1.2L13.236,23.193a.866.866,0,0,0,0-1.222L9.672,18.387a2.434,2.434,0,0,1-.238-.272,2.328,2.328,0,0,1,.305-.106L29.1,14.347q.033-.006.065-.015a2.45,2.45,0,0,1,.339-.07,2.443,2.443,0,0,1-.07.352c-.006.022-.011.044-.015.065L25.811,34.19a2.366,2.366,0,0,1-.1.3,2.4,2.4,0,0,1-.257-.229L21.888,30.68a.867.867,0,0,0-.614-.255h0a.866.866,0,0,0-.614.256l-2.99,3.012a.867.867,0,0,0,1.23,1.221l2.376-2.393,2.95,2.965a2.154,2.154,0,0,0,1.962.785c.933-.25,1.216-1.317,1.309-1.668.006-.021.01-.043.014-.064l3.61-19.513a2.143,2.143,0,0,0-.316-2.069,2.125,2.125,0,0,0-2.056-.309Zm0,0"/><path d="M33.58,11.355A.864.864,0,0,0,34.2,11.1l5.243-5.283a.867.867,0,1,0-1.23-1.221L32.965,9.878a.867.867,0,0,0,.615,1.477Zm0,0"/><path d="M43.133,14.762H35.716a.867.867,0,0,0,0,1.734h7.417a.867.867,0,1,0,0-1.734Zm0,0"/><path d="M28.474,9.2a.867.867,0,0,0,.867-.867V.867a.867.867,0,1,0-1.733,0V8.335A.867.867,0,0,0,28.474,9.2Zm0,0"/><path d="M34.2,20.159a.867.867,0,0,0-1.23,1.221l5.243,5.283a.867.867,0,1,0,1.23-1.221Zm0,0"/><path d="M22.755,11.1a.867.867,0,0,0,1.23-1.221L18.742,4.595a.867.867,0,1,0-1.23,1.221Zm0,0"/><path d="M14.987,36.339l-.012.01A.867.867,0,0,0,16.063,37.7l.012-.01a.867.867,0,1,0-1.089-1.349Zm0,0"/></g></g></g></svg>
