<svg xmlns="http://www.w3.org/2000/svg" xmlns:xlink="http://www.w3.org/1999/xlink" width="108.898" height="108.898" viewBox="0 0 108.898 108.898"><defs><style>.a{fill:#282828;}.b{fill:#7cb342;}.c{fill:#fff;opacity:0.2;}.d{fill:url(#a);}</style><linearGradient id="a" x1="-0.771" y1="1.462" x2="-0.748" y2="1.442" gradientUnits="objectBoundingBox"><stop offset="0" stop-opacity="0.102"/><stop offset="1" stop-opacity="0"/></linearGradient></defs><path class="a" d="M54.449,0A54.449,54.449,0,1,0,108.9,54.449,54.511,54.511,0,0,0,54.449,0Z"/><path class="b" d="M71.223,121.112a49.89,49.89,0,1,1,49.89-49.89A49.946,49.946,0,0,1,71.223,121.112Z" transform="translate(-16.774 -16.774)"/><path class="c" d="M25.893,76.046a50.073,50.073,0,0,1,83.213-37.619,50.087,50.087,0,1,0-70.678,70.678A49.892,49.892,0,0,1,25.893,76.046Z" transform="translate(-16.774 -16.774)"/><path class="a" d="M149.834,150l-39.423,39.423L89.225,168.239A2.279,2.279,0,1,0,86,171.463l22.8,22.8a2.279,2.279,0,0,0,3.224,0l41.035-41.035A2.28,2.28,0,0,0,149.834,150Z" transform="translate(-67.331 -117.682)"/><path class="d" d="M258.116,171.192l-18.734-18.734a2.279,2.279,0,0,1,0,3.224l-41.035,41.035a2.279,2.279,0,0,1-3.224,0l26.205,26.2a50.2,50.2,0,0,0,36.959-48.334C258.288,173.441,258.192,172.319,258.116,171.192Z" transform="translate(-153.95 -120.402)"/></svg>
