<svg xmlns="http://www.w3.org/2000/svg" width="16" height="16" viewBox="0 0 16 16"><defs><style>.a{fill:none;}</style></defs><g transform="translate(6858 -8850)"><rect class="a" width="16" height="16" transform="translate(-6858 8850)"/><g transform="translate(-6857 8847)"><path d="M5.7,118.451a2.771,2.771,0,0,1-2.767-2.767v-5.015H1.79A1.792,1.792,0,0,0,0,112.458v7.132a1.792,1.792,0,0,0,1.79,1.791H9.929a1.792,1.792,0,0,0,1.79-1.791v-1.139Zm0,0" transform="translate(0 -103.413)"/><path d="M138.417,5.79A1.79,1.79,0,0,0,136.627,4H129.79A1.79,1.79,0,0,0,128,5.79v6.48a1.79,1.79,0,0,0,1.79,1.79h6.836a1.79,1.79,0,0,0,1.79-1.79Zm0,0" transform="translate(-124.094)"/></g></g></svg>
