<svg xmlns="http://www.w3.org/2000/svg" width="18" height="18" viewBox="0 0 18 18"><defs><style>.a{fill:#282828;}</style></defs><path class="a" d="M10.65,20.838a8.638,8.638,0,0,0,3.481-.708,9.222,9.222,0,0,0,4.815-4.815,8.941,8.941,0,0,0,0-6.954,9.226,9.226,0,0,0-4.824-4.819,8.918,8.918,0,0,0-6.944,0A9.226,9.226,0,0,0,2.354,8.361a8.914,8.914,0,0,0,0,6.954A9.252,9.252,0,0,0,7.178,20.13,8.616,8.616,0,0,0,10.65,20.838ZM7.623,15.653a.782.782,0,0,1-.778-.787.747.747,0,0,1,.231-.546l2.472-2.472L7.076,9.384a.758.758,0,0,1-.231-.556.724.724,0,0,1,.231-.551.771.771,0,0,1,.546-.218.735.735,0,0,1,.556.222l2.481,2.472,2.481-2.481a.758.758,0,0,1,.556-.231.775.775,0,0,1,.778.778.778.778,0,0,1-.231.556l-2.472,2.472,2.463,2.463a.778.778,0,0,1,.231.556.769.769,0,0,1-.222.56.757.757,0,0,1-.565.227.81.81,0,0,1-.565-.231L10.66,12.958,8.2,15.421A.78.78,0,0,1,7.623,15.653Z" transform="translate(-1.65 -2.838)"/></svg>
