<svg width="25" height="25" viewBox="0 0 25 25" fill="none" xmlns="http://www.w3.org/2000/svg">
<path fill-rule="evenodd" clip-rule="evenodd" d="M14.3025 4.68709V2.82024C14.3025 -0.76372 0.13217 -0.76372 0.13217 2.82024V13.7395C0.13217 15.1484 2.33759 16.0267 4.99075 16.3389C4.02029 16.7742 3.40225 17.3621 3.40225 18.1072V21.383C3.40225 23.175 6.96665 24.1128 10.4875 24.1128C14.0083 24.1128 17.5727 23.175 17.5727 21.383V19.7361C20.9068 19.6445 24.1128 18.7148 24.1128 17.0153V7.18799C24.1128 4.9254 18.467 4.09291 14.3025 4.68709Z" fill="#1E1E1E"/>
<path fill-rule="evenodd" clip-rule="evenodd" d="M23.0191 7.21833C23.0191 7.77338 20.9029 8.85308 17.024 8.85308C13.145 8.85308 11.0288 7.77338 11.0288 7.21833C11.0288 6.66327 13.145 5.58356 17.024 5.58356C20.9029 5.58356 23.0191 6.66327 23.0191 7.21833Z" fill="#FFD553"/>
<path fill-rule="evenodd" clip-rule="evenodd" d="M11.0285 15.2752C11.1333 15.3358 11.2424 15.3947 11.3594 15.4507C11.2492 15.4463 11.1392 15.4419 11.0285 15.4392V15.2752Z" fill="#303C42"/>
<path fill-rule="evenodd" clip-rule="evenodd" d="M7.21533 1.22009C11.0943 1.22009 13.2104 2.2998 13.2104 2.85486C13.2104 3.40991 11.0942 4.48962 7.21533 4.48962C3.33641 4.48962 1.22021 3.40991 1.22021 2.85486C1.22021 2.2998 3.33636 1.22009 7.21533 1.22009Z" fill="#FFD553"/>
<path fill-rule="evenodd" clip-rule="evenodd" d="M1.21991 4.37288C2.54241 5.16832 4.88497 5.58054 7.21505 5.58054C9.54514 5.58054 11.8877 5.16832 13.2102 4.37288V4.91414C11.3162 5.33393 9.94015 6.10051 9.94015 7.21454V7.53679C9.086 7.67374 8.16399 7.75916 7.2151 7.75916C3.33611 7.75916 1.21996 6.67996 1.21996 6.12517V4.37287L1.21991 4.37288Z" fill="#FFCA28"/>
<path fill-rule="evenodd" clip-rule="evenodd" d="M1.21991 7.64246C2.54248 8.43898 4.88517 8.85177 7.21539 8.85177C8.15886 8.85177 9.07592 8.76697 9.9406 8.63771V11.356C9.08639 11.4932 8.16433 11.5787 7.21539 11.5787C3.33619 11.5787 1.21991 10.4981 1.21991 9.94252V7.64246Z" fill="#FFCA28"/>
<path fill-rule="evenodd" clip-rule="evenodd" d="M1.21991 13.756V11.456C2.54248 12.2525 4.88518 12.6653 7.2154 12.6653C8.15887 12.6653 9.07592 12.5805 9.9406 12.4512V15.1696C9.08639 15.3067 8.16433 15.3922 7.2154 15.3922C3.33624 15.3922 1.21991 14.3115 1.21991 13.756Z" fill="#FFCA28"/>
<path fill-rule="evenodd" clip-rule="evenodd" d="M10.4848 16.4799C14.3637 16.4799 16.4799 17.5596 16.4799 18.1146C16.4799 18.6697 14.3637 19.7494 10.4848 19.7494C6.60584 19.7494 4.48958 18.6697 4.48958 18.1146C4.48958 17.5596 6.6058 16.4799 10.4848 16.4799Z" fill="#FFD553"/>
<path fill-rule="evenodd" clip-rule="evenodd" d="M10.4849 23.0191C6.6059 23.0191 4.48975 21.9399 4.48975 21.3851V19.6327C5.81224 20.4282 8.15478 20.8404 10.4849 20.8404C12.7152 20.8404 14.9601 20.4637 16.3082 19.7339C16.3648 19.7361 16.4231 19.7363 16.48 19.7381V21.3851C16.48 21.9399 14.3638 23.0191 10.4849 23.0191V23.0191Z" fill="#FFCA28"/>
<path fill-rule="evenodd" clip-rule="evenodd" d="M17.571 18.6419V18.1163C17.571 17.436 17.0559 16.8861 16.2251 16.4647C16.4915 16.4755 16.7587 16.4827 17.0262 16.4827C19.3554 16.4827 21.697 16.0706 23.019 15.2754V17.0273C23.019 17.5543 21.0886 18.5438 17.571 18.6419Z" fill="#FFCA28"/>
<path fill-rule="evenodd" clip-rule="evenodd" d="M17.0238 15.3922C13.1449 15.3922 11.0287 14.3129 11.0287 13.7582V12.0058C12.3512 12.8013 14.6938 13.2135 17.0238 13.2135C19.3539 13.2135 21.6965 12.8013 23.0189 12.0058V13.7582C23.0189 14.3129 20.9027 15.3922 17.0238 15.3922Z" fill="#FFCA28"/>
<path opacity="0.1" fill-rule="evenodd" clip-rule="evenodd" d="M16.2249 16.4649C17.0562 16.8862 17.5714 17.436 17.5714 18.1162V18.6418C17.9567 18.6311 18.3147 18.6057 18.6615 18.5754C18.6615 18.3462 18.6615 18.1761 18.6615 18.1162C18.6615 17.4685 18.4198 16.9211 18.0143 16.4559C17.6864 16.4723 17.3567 16.4829 17.0264 16.4829C16.7587 16.4829 16.4915 16.4756 16.2249 16.4649Z" fill="black"/>
<path opacity="0.1" fill-rule="evenodd" clip-rule="evenodd" d="M11.578 14.3303C12.3709 14.8116 14.047 15.3079 16.5053 15.3739C15.1598 14.7415 13.3538 14.4217 11.578 14.3303Z" fill="black"/>
<path opacity="0.1" fill-rule="evenodd" clip-rule="evenodd" d="M9.39678 11.4232C9.57717 11.3997 9.76558 11.3845 9.94069 11.3563V8.63525C9.76427 8.66171 9.57734 8.67651 9.39678 8.69888C9.39678 9.5066 9.39678 10.513 9.39678 11.4232Z" fill="black"/>
<path opacity="0.1" fill-rule="evenodd" clip-rule="evenodd" d="M9.39678 13.7569C9.39678 14.2638 9.59828 14.7044 9.94069 15.0881V12.4548C9.76427 12.4812 9.57734 12.4959 9.39678 12.5182C9.39678 13.2456 9.39678 13.7569 9.39678 13.7569V13.7569Z" fill="black"/>
<path opacity="0.1" fill-rule="evenodd" clip-rule="evenodd" d="M9.39678 7.21471C9.39678 7.25183 9.39678 7.39262 9.39678 7.60372C9.57746 7.58023 9.76617 7.56506 9.94155 7.53698V7.21471C9.94155 6.10067 11.317 5.33402 13.2102 4.91417V4.37289C12.5778 4.75348 11.7083 5.04363 10.7222 5.24559C9.90278 5.74705 9.39678 6.39818 9.39678 7.21472V7.21471Z" fill="black"/>
<path fill-rule="evenodd" clip-rule="evenodd" d="M17.024 12.1226C13.145 12.1226 11.0288 11.0415 11.0288 10.4857V8.73021C12.3513 9.52708 14.6939 9.94005 17.024 9.94005C19.354 9.94005 21.6966 9.52708 23.0191 8.73021V10.4857C23.0191 11.0414 20.9029 12.1226 17.024 12.1226Z" fill="#FFCA28"/>
<path fill-rule="evenodd" clip-rule="evenodd" d="M14.3025 4.68709V2.82024C14.3025 -0.76372 0.13217 -0.76372 0.13217 2.82024V13.7395C0.13217 15.1484 2.33759 16.0267 4.99075 16.3389C4.02029 16.7742 3.40225 17.3621 3.40225 18.1072V21.383C3.40225 23.175 6.96665 24.1128 10.4875 24.1128C14.0083 24.1128 17.5727 23.175 17.5727 21.383V19.7361C20.9068 19.6445 24.1128 18.7148 24.1128 17.0153V7.18799C24.1128 4.9254 18.467 4.09291 14.3025 4.68709Z" fill="url(#paint0_linear_19_400)"/>
<defs>
<linearGradient id="paint0_linear_19_400" x1="-3.11101" y1="32.292" x2="-1.92301" y2="31.734" gradientUnits="userSpaceOnUse">
<stop stop-color="white" stop-opacity="0.2"/>
<stop offset="1" stop-color="white" stop-opacity="0.01"/>
</linearGradient>
</defs>
</svg>
