<svg width="28" height="28" viewBox="0 0 28 28" fill="none" xmlns="http://www.w3.org/2000/svg">
<path fill-rule="evenodd" clip-rule="evenodd" d="M2.00084 18.7948C2.37493 18.4331 3.43704 18.4663 3.94975 18.5614L5.42313 18.7413C4.09846 15.2514 4.5331 9.91753 7.22549 7.22545C8.91423 5.5367 11.16 4.54549 13.5496 4.43416C15.923 4.32364 18.2363 5.08607 20.0636 6.58205L20.6839 7.08912L19.522 8.25096C19.479 8.29396 19.4643 8.35404 19.4821 8.41224C19.5002 8.4697 19.5465 8.5112 19.6063 8.52228L25.2417 9.56555C25.3192 9.57999 25.3999 9.53104 25.4243 9.45477C25.4319 9.43054 25.4334 9.4045 25.4288 9.37875L24.385 3.74337C24.3739 3.68382 24.3329 3.63746 24.2749 3.61942C24.2167 3.60164 24.1567 3.61632 24.1139 3.65912L22.9866 4.78611L22.4759 4.33703C20.1376 2.27983 17.1273 1.14713 13.9998 1.14713C10.5666 1.14687 7.33909 2.4839 4.91136 4.91162C2.48391 7.33906 1.14694 10.5668 1.14694 14C1.14694 15.1739 1.69364 17.6838 2.00084 18.7948Z" fill="#7563EB"/>
<path fill-rule="evenodd" clip-rule="evenodd" d="M24.8915 9.73473L22.5104 9.21712C23.0757 10.7019 23.7194 13.7007 23.5037 15.288C23.2205 17.3742 22.2764 19.2715 20.7737 20.7741C19.085 22.4627 16.8389 23.4541 14.4491 23.5652C12.0755 23.676 9.76245 22.9131 7.93533 21.4177L7.31589 20.9099L8.47718 19.7487C8.52018 19.7056 8.53492 19.6459 8.51686 19.5882C8.4991 19.5299 8.45243 19.4887 8.39319 19.4779L2.75731 18.4342C2.70525 18.4246 2.65218 18.4411 2.61477 18.4782C2.57745 18.5158 2.56119 18.5689 2.57046 18.6212L3.61428 24.2562C3.62538 24.316 3.66658 24.3621 3.72454 24.3801C3.78225 24.3981 3.84257 24.3832 3.8856 24.3404L5.01262 23.2132L5.52335 23.6623C7.86163 25.7194 10.8717 26.8525 13.9995 26.8525C17.4326 26.8525 20.6601 25.5156 23.0878 23.088C25.5155 20.6607 26.8523 17.4332 26.8523 14.0003C26.8523 12.8453 26.2345 10.2804 25.9284 9.16534C25.5544 9.52525 25.4029 9.82954 24.8915 9.73473L24.8915 9.73473Z" fill="#FFCF48"/>
<path fill-rule="evenodd" clip-rule="evenodd" d="M24.636 8.77365L20.6769 8.04088L21.2464 7.47147C21.4445 7.27332 21.4445 6.95101 21.2464 6.75287C17.2507 2.7572 10.7491 2.7572 6.75316 6.75287C5.10935 8.39694 4.06613 10.5759 3.81595 12.8886C3.63609 14.5523 3.86903 16.2546 4.48893 17.8118L4.74219 18.4472L2.82165 18.0919C2.80337 18.0883 2.78374 18.0857 2.76346 18.0847L2.50991 18.0764L2.42697 17.826C2.02139 16.5931 1.81579 15.3059 1.81554 13.9996C1.81554 10.7452 3.08318 7.68531 5.38429 5.38394C7.68561 3.08287 10.7452 1.81548 13.9997 1.81548C17.254 1.81548 20.3139 3.08287 22.615 5.38422C22.8129 5.58209 23.1352 5.58209 23.3334 5.38394L23.9028 4.81453L24.636 8.77365ZM19.5425 8.86382L21.9564 9.31087L22.043 9.46469C23.0456 11.2379 23.4318 13.2354 23.1594 15.2404C22.8863 17.2512 21.9765 19.0795 20.528 20.528C18.9012 22.1548 16.7367 23.1102 14.4338 23.2176C12.1461 23.3243 9.9166 22.5892 8.15637 21.1482L7.83323 20.8843L8.72369 19.9939C8.85765 19.8602 8.90586 19.6649 8.84968 19.4843C8.79327 19.3034 8.64305 19.1697 8.45703 19.1354L6.04387 18.6884L5.957 18.5356C4.95374 16.7617 4.56776 14.7638 4.83983 12.7585C5.11296 10.748 6.02274 8.91976 7.47147 7.47123C9.09856 5.8439 11.2629 4.88903 13.566 4.7816C15.8529 4.67493 18.0824 5.40976 19.843 6.85079L20.1658 7.11515L19.2758 8.00508C19.1418 8.13906 19.0937 8.33436 19.1498 8.51497C19.206 8.69585 19.3565 8.82907 19.5425 8.86382V8.86382ZM25.5723 10.1737C25.9782 11.4071 26.184 12.6944 26.184 13.9996C26.1838 17.2543 24.9164 20.3139 22.6153 22.615C20.3142 24.9163 17.2542 26.1835 13.9999 26.1835C10.7452 26.1835 7.6856 24.9163 5.38427 22.615C5.18636 22.4171 4.86406 22.4169 4.66619 22.615L4.09653 23.1844L3.36347 19.2253L7.32285 19.9583L6.75316 20.5278C6.55531 20.7259 6.55531 21.0482 6.75316 21.2461C10.7491 25.242 17.2504 25.242 21.2464 21.2461C22.8905 19.602 23.9337 17.423 24.1836 15.1104C24.3634 13.4472 24.1308 11.7449 23.5108 10.1871L23.2576 9.55204L25.1779 9.90733C25.1969 9.91093 25.2165 9.91326 25.2364 9.91456L25.4976 9.94674L25.5723 10.1737ZM24.3774 3.28763C24.1965 3.23171 24.0012 3.2799 23.8675 3.41362L22.9709 4.31026L22.705 4.07657C20.3034 1.96355 17.2118 0.799744 13.9997 0.799744C10.474 0.800002 7.15903 2.17304 4.66596 4.66608C2.17294 7.15911 0.799927 10.4738 0.799927 13.9998C0.799927 16.3246 1.4095 18.6063 2.56224 20.5982L2.58491 20.6369L2.60293 20.699L3.27364 24.319C3.30814 24.505 3.44162 24.6558 3.62197 24.7117C3.80311 24.7676 3.99867 24.7194 4.13212 24.5859L5.02904 23.689L5.29493 23.9235C7.6965 26.036 10.7878 27.1996 13.9999 27.1998C17.5254 27.1998 20.8403 25.8265 23.3336 23.3335C25.827 20.8402 27.2 17.5252 27.1997 13.9998C27.1997 11.675 26.5904 9.39295 25.4374 7.40106L25.415 7.36266L25.3967 7.30134L24.726 3.68055C24.6918 3.49451 24.558 3.34404 24.3774 3.28763Z" fill="black"/>
<path fill-rule="evenodd" clip-rule="evenodd" d="M12.4837 12.6506V11.976C12.4837 11.5124 12.8612 11.135 13.3249 11.135H14.6746C15.1384 11.135 15.5156 11.5124 15.5156 11.976C15.5156 12.256 15.7436 12.484 16.0237 12.484C16.3038 12.484 16.5318 12.256 16.5318 11.976C16.5318 11.0284 15.7931 10.2165 14.8495 10.1281L14.5074 10.0959V9.27836C14.5074 8.99809 14.2798 8.77038 13.9998 8.77038C13.7197 8.77038 13.4917 8.99809 13.4917 9.27836V10.0959L13.1495 10.1281C12.2065 10.2165 11.4675 11.0284 11.4675 11.976V12.6506C11.4675 13.6745 12.301 14.5076 13.3249 14.5076H14.6743C15.1384 14.5076 15.5156 14.8846 15.5156 15.3483V16.0229C15.5156 16.4868 15.1384 16.8642 14.6743 16.8642H13.3249C12.8612 16.8642 12.4837 16.4868 12.4837 16.0229C12.4837 15.7429 12.2556 15.5155 11.9756 15.5155C11.6955 15.5155 11.4675 15.7429 11.4675 16.0229C11.4675 16.9706 12.2065 17.7825 13.1498 17.8713L13.4919 17.9028V18.7208C13.4919 19.0008 13.7197 19.2288 13.9998 19.2288C14.2798 19.2288 14.5076 19.0008 14.5076 18.7208V17.9035L14.8495 17.8711C15.7931 17.7822 16.5318 16.9706 16.5318 16.0229V15.3483C16.5318 14.3247 15.6985 13.4916 14.6746 13.4916H13.3249C12.8611 13.4916 12.4837 13.1143 12.4837 12.6506H12.4837Z" fill="black"/>
</svg>
