<svg width="166" height="46" viewBox="0 0 166 46" fill="none" xmlns="http://www.w3.org/2000/svg">
<path fill-rule="evenodd" clip-rule="evenodd" d="M39.403 36.3338C32.0365 43.1729 20.5198 42.7472 13.6786 35.3824C6.83848 28.0174 7.26425 16.5032 14.6302 9.66355C21.9972 2.82429 33.5145 3.25054 40.3546 10.6149C47.1958 17.9798 46.7701 29.4946 39.403 36.3338H39.403Z" fill="#FFCF48"/>
<path fill-rule="evenodd" clip-rule="evenodd" d="M39.3991 32.0712C32.0323 38.909 20.5152 38.4834 13.6737 31.1199C10.9501 28.1871 9.38229 24.5963 8.9423 20.905C8.33291 26.0255 9.8888 31.371 13.6737 35.4454C20.5152 42.8095 32.0323 43.2345 39.3991 36.3967C43.8326 32.2808 45.7483 26.4733 45.0826 20.8948C44.5915 25.0282 42.6894 29.0162 39.3991 32.0712Z" fill="#DD9F17"/>
<path fill-rule="evenodd" clip-rule="evenodd" d="M14.5595 11.7368C21.9264 4.89869 33.4445 5.32426 40.2862 12.6874C43.3361 15.9706 44.9375 20.0784 45.1274 24.2293C45.3468 19.5192 43.7499 14.7279 40.2862 10.9997C33.4445 3.63719 21.9264 3.21098 14.5595 10.0491C10.4778 13.8387 8.53126 19.063 8.76661 24.2213C8.98093 19.6284 10.9229 15.1126 14.5595 11.7368Z" fill="#FFCF48"/>
<path fill-rule="evenodd" clip-rule="evenodd" d="M26.996 5.61132C22.5932 5.61132 18.3899 7.26195 15.1616 10.258C8.13306 16.7825 7.72491 27.8066 14.2526 34.8328C17.5332 38.363 22.1805 40.388 27.0039 40.388C31.4073 40.388 35.6099 38.738 38.8383 35.7413C45.8674 29.2168 46.2755 18.1928 39.7478 11.1672C36.4672 7.63635 31.8194 5.61132 26.996 5.61132ZM27.0038 42C21.7341 42 16.6554 39.7869 13.0713 35.9289C5.93869 28.2521 6.38436 16.2064 14.0644 9.07727C17.5923 5.80341 22.1849 4 26.9959 4C32.2661 4 37.3442 6.21246 40.929 10.0705C48.0616 17.7473 47.6153 29.7936 39.9353 36.9221C36.4074 40.1966 31.8153 42 27.0038 42Z" fill="#E6E6E6"/>
<path fill-rule="evenodd" clip-rule="evenodd" d="M25.7762 26.5049H17.3319L18.6419 22.2442L17.3319 17.9837H25.7762V26.5049Z" fill="#A5452F"/>
<path fill-rule="evenodd" clip-rule="evenodd" d="M21.5504 19.0287L25.7776 17.9837L25.7782 20.2246L21.5504 19.0287Z" fill="#3D2B28"/>
<path fill-rule="evenodd" clip-rule="evenodd" d="M21.5504 27.7523H34.2616L36.5104 19.0291H21.5504V27.7523Z" fill="#E7633F"/>
<mask id="mask0_3451_103483" style="mask-type:alpha" maskUnits="userSpaceOnUse" x="9" y="5" width="36" height="36">
<path fill-rule="evenodd" clip-rule="evenodd" d="M27.0075 5.61467C22.6047 5.61467 18.402 7.26509 15.1736 10.261C8.14448 16.7849 7.73689 27.8079 14.2641 34.8335C17.5447 38.3639 22.1925 40.3883 27.016 40.3883C31.4188 40.3883 35.6215 38.7383 38.8498 35.742C45.879 29.2181 46.2871 18.195 39.7594 11.17C36.4787 7.63951 31.8315 5.61467 27.0075 5.61467H27.0075Z" fill="white"/>
</mask>
<g mask="url(#mask0_3451_103483)">
<path fill-rule="evenodd" clip-rule="evenodd" d="M30.7942 42.1981C30.7113 42.1981 30.6271 42.1879 30.543 42.1663C30.0059 42.0276 29.6831 41.4807 29.8212 40.9444L35.7244 18.0416C35.8625 17.5048 36.4099 17.1809 36.947 17.3201C37.4835 17.4582 37.8069 18.0052 37.6688 18.5421L31.7656 41.4448C31.6491 41.8975 31.241 42.1981 30.7942 42.1981Z" fill="#15161E"/>
</g>
<path fill-rule="evenodd" clip-rule="evenodd" d="M53.9986 23.0019C53.9986 18.087 57.9285 15.0032 62.7564 15.0032C66.3699 15.0032 68.5538 16.835 69.6696 18.7598L66.1758 20.4985C65.5698 19.4783 64.3325 18.5281 62.7564 18.5281C60.1117 18.5281 58.2441 20.4523 58.2441 23.0019C58.2441 25.5296 60.1117 27.4769 62.7564 27.4769C63.9448 27.4769 65.1579 27.0129 65.7398 26.5493V25.3435H62.1014V21.8436H69.9121V27.9867C68.1897 29.8185 65.8129 31.0012 62.7564 31.0012C57.9285 31.0012 53.9986 27.9174 53.9986 23.0019V23.0019Z" fill="#15161E"/>
<path fill-rule="evenodd" clip-rule="evenodd" d="M79.1706 27.8447V26.8475C78.783 26.3139 77.9093 26.059 77.0846 26.059C76.1148 26.059 75.2175 26.477 75.2175 27.3574C75.2175 28.2389 76.1148 28.6557 77.0846 28.6557C77.9093 28.6557 78.783 28.3777 79.1706 27.8447V27.8447ZM79.1706 30.7197V29.6069C78.4426 30.4416 77.0362 30.9984 75.5325 30.9984C73.7379 30.9984 71.5068 29.8156 71.5068 27.3113C71.5068 24.5983 73.738 23.694 75.5325 23.694C77.0846 23.694 78.4674 24.1815 79.1706 25.0157V23.9028C79.1706 22.9293 78.2975 22.2564 76.7938 22.2564C75.6298 22.2564 74.4659 22.6974 73.5197 23.4623L72.1375 20.9811C73.6406 19.7521 75.654 19.2422 77.4486 19.2422C80.262 19.2422 82.9054 20.2394 82.9054 23.7173V30.7198L79.1706 30.7197Z" fill="#15161E"/>
<path fill-rule="evenodd" clip-rule="evenodd" d="M100.391 30.7203V23.902C100.391 23.044 99.9547 22.3947 98.8392 22.3947C97.8204 22.3947 97.0931 23.0208 96.7291 23.4847V30.7203H92.995V23.902C92.995 23.044 92.5827 22.3947 91.4666 22.3947C90.4478 22.3947 89.7452 23.0208 89.3571 23.4847V30.7203H85.6224V19.5187H89.3571V20.8867C89.8662 20.238 91.3698 19.2405 93.2127 19.2405C94.9104 19.2405 96.0507 19.9131 96.5356 21.2348C97.214 20.2605 98.7424 19.2405 100.585 19.2405C102.744 19.2405 104.102 20.3068 104.102 22.6034V30.7203H100.391Z" fill="#15161E"/>
<path fill-rule="evenodd" clip-rule="evenodd" d="M112.294 22.1175C110.669 22.1175 110.039 23.0448 109.893 23.8558H114.719C114.622 23.068 114.016 22.1175 112.294 22.1175ZM106.086 25.1081C106.086 21.8622 108.632 19.2422 112.294 19.2422C115.763 19.2422 118.285 21.6771 118.285 25.4793V26.2915H109.942C110.209 27.2881 111.178 28.1229 112.876 28.1229C113.701 28.1229 115.059 27.7755 115.738 27.1719L117.363 29.5137C116.199 30.511 114.259 30.9984 112.464 30.9984C108.85 30.9984 106.086 28.749 106.086 25.1081Z" fill="#15161E"/>
<path fill-rule="evenodd" clip-rule="evenodd" d="M126.091 27.8447C127.57 27.8447 128.686 26.8012 128.686 25.108C128.686 23.439 127.57 22.3955 126.091 22.3955C125.29 22.3955 124.32 22.8128 123.859 23.4159V26.8475C124.32 27.4504 125.29 27.8447 126.091 27.8447ZM120.125 30.7198V15.2539H123.859V20.8417C124.781 19.7296 126.043 19.2422 127.327 19.2422C130.262 19.2422 132.493 21.4454 132.493 25.1082C132.493 28.9115 130.213 30.9983 127.327 30.9983C126.018 30.9983 124.83 30.4879 123.859 29.4213V30.7198H120.125Z" fill="#15161E"/>
<path fill-rule="evenodd" clip-rule="evenodd" d="M141.367 27.8446V26.8475C140.979 26.3138 140.106 26.0589 139.281 26.0589C138.311 26.0589 137.414 26.4769 137.414 27.3573C137.414 28.2389 138.311 28.6557 139.281 28.6557C140.106 28.6557 140.979 28.3776 141.367 27.8446V27.8446ZM141.366 30.7197V29.6069C140.639 30.4416 139.232 30.9984 137.728 30.9984C135.934 30.9984 133.703 29.8156 133.703 27.3113C133.703 24.5983 135.934 23.694 137.728 23.694C139.28 23.694 140.663 24.1815 141.366 25.0157V23.9028C141.366 22.9293 140.493 22.2564 138.99 22.2564C137.826 22.2564 136.662 22.6974 135.716 23.4623L134.333 20.9811C135.837 19.7521 137.85 19.2422 139.644 19.2422C142.458 19.2422 145.101 20.2394 145.101 23.7173V30.7198L141.366 30.7197Z" fill="#15161E"/>
<path fill-rule="evenodd" clip-rule="evenodd" d="M147.812 30.7205V15.2546H151.555V30.7205H147.812Z" fill="#15161E"/>
<path fill-rule="evenodd" clip-rule="evenodd" d="M154.265 30.7205V15.2546H157.996V30.7205H154.265Z" fill="#15161E"/>
</svg>
