<svg width="179" height="47" viewBox="0 0 179 47" fill="none" xmlns="http://www.w3.org/2000/svg">
<path d="M23.5 47C36.4787 47 47 36.4787 47 23.5C47 10.5213 36.4787 0 23.5 0C10.5213 0 0 10.5213 0 23.5C0 36.4787 10.5213 47 23.5 47Z" fill="#FFD900"/>
<path d="M69.9754 16.366H65.9364C65.8315 16.366 65.744 16.4709 65.744 16.5583V17.3451C65.744 17.5375 65.5517 17.6424 65.4468 17.45C64.8523 16.7681 63.5759 16.0687 61.6175 16.0687C57.4911 16.0687 54.641 19.5133 54.641 23.4474C54.641 27.5739 57.6834 30.8262 61.6175 30.8262C63.4885 30.8262 64.6599 30.2317 65.3594 29.5497C65.4643 29.4448 65.6566 29.5497 65.6566 29.6547V29.847C65.6566 32.6096 64.2753 33.6762 61.9148 33.6762C60.2362 33.6762 59.0647 32.6971 58.6626 31.3157C58.6626 31.2108 58.5576 31.1234 58.4702 31.2108L54.7284 32.2949C54.6235 32.2949 54.5361 32.3998 54.6235 32.4873C55.1131 35.145 57.8757 37.6978 62.1071 37.6978C67.7198 37.6978 70.1678 33.956 70.1678 29.6372V16.5583C70.1678 16.4709 70.0803 16.366 69.9754 16.366ZM62.4044 26.8046C60.5335 26.8046 59.1521 25.5282 59.1521 23.4649C59.1521 21.4017 60.6209 20.1253 62.4044 20.1253C64.1879 20.1253 65.6566 21.4017 65.6566 23.4649C65.6566 25.5282 64.2753 26.8046 62.4044 26.8046Z" fill="white"/>
<path d="M86.0093 29.0602V21.6815C86.0093 18.6391 84.2433 15.8765 79.3125 15.8765C74.9762 15.8765 73.0179 18.5342 72.7206 20.7024C72.7206 20.8073 72.8255 20.8947 72.9129 20.8947L76.5498 21.6815C76.6548 21.6815 76.7422 21.6815 76.7422 21.4892C76.9345 20.4051 77.8263 19.4259 79.295 19.4259C80.7638 19.4259 81.4632 20.2128 81.4632 21.1045C81.4632 21.5941 81.1659 21.9963 80.3791 22.0837L76.8296 22.6782C74.3642 23.0803 72.4059 24.5491 72.4059 27.2068C72.4059 29.5673 74.2768 31.7355 77.6164 31.7355C79.3824 31.7355 80.6589 31.0535 81.5506 30.0569C81.6555 29.952 81.8478 29.952 81.8478 30.1618C81.8478 30.6514 81.9528 30.9486 81.9528 31.141C81.9528 31.2459 82.0577 31.3333 82.1451 31.3333H85.8869C85.9918 31.3333 86.0792 31.2284 86.0792 31.141C86.0093 30.8262 86.0093 29.952 86.0093 29.0602ZM81.4807 25.5282C81.4807 27.8887 80.0993 28.4832 78.718 28.4832C77.4416 28.4832 76.952 27.6964 76.952 26.9096C76.952 25.8255 77.6339 25.4408 78.6306 25.231L81.2883 24.8288C81.3932 24.8288 81.4807 24.9338 81.4807 25.0212V25.5282Z" fill="white"/>
<path d="M106.764 15.8765C104.788 15.8765 103.424 16.471 102.235 18.0446C102.131 18.1495 101.938 18.1495 101.938 18.0446C101.151 16.6633 99.6826 15.9814 97.6019 15.9814C96.1331 15.9814 94.5595 16.6633 93.5628 17.6599C93.4579 17.7649 93.2656 17.6599 93.2656 17.555V16.6633C93.2656 16.5584 93.1607 16.471 93.0732 16.471H89.0342C88.9293 16.471 88.8419 16.5759 88.8419 16.6633V31.3333C88.8419 31.4382 88.9468 31.5256 89.0342 31.5256H93.2656C93.3705 31.5256 93.4579 31.4207 93.4579 31.3333V22.8705C93.4579 21.4892 94.3497 20.2128 95.9233 20.2128C97.6019 20.2128 98.3887 21.2969 98.3887 22.7656V31.3333C98.3887 31.4382 98.4936 31.5256 98.5811 31.5256H102.708C102.812 31.5256 102.9 31.4207 102.9 31.3333V22.8705C102.9 21.4892 103.792 20.3177 105.453 20.3177C107.131 20.3177 107.813 21.4018 107.813 22.8705V31.4207C107.813 31.5256 107.918 31.6131 108.006 31.6131H112.045C112.15 31.6131 112.237 31.5082 112.237 31.4207V21.8739C112.272 17.555 109.614 15.8765 106.764 15.8765Z" fill="white"/>
<path d="M122.011 15.8765C118.077 15.8765 114.528 18.9189 114.528 23.8497C114.528 28.8679 118.269 31.9103 122.396 31.9103C126.138 31.9103 128.498 29.8471 129.285 27.2942C129.285 27.1893 129.285 27.1019 129.18 27.1019L125.735 26.1227C125.631 26.1227 125.543 26.1227 125.543 26.2277C125.054 27.3117 124.162 27.9937 122.588 27.9937C120.91 27.9937 119.441 26.9096 119.144 25.3359C119.144 25.231 119.249 25.1436 119.336 25.1436H129.46C129.565 25.1436 129.652 25.0387 129.652 24.9512C129.652 24.654 129.757 24.1644 129.757 23.6748C129.582 18.7265 126.732 15.8765 122.011 15.8765ZM124.861 22.0837H119.249C119.144 22.0837 119.056 21.9788 119.056 21.8913C119.249 20.8073 120.245 19.5309 122.011 19.5309C124.074 19.5309 124.861 20.7198 125.054 21.8913C125.054 21.9788 125.054 22.0837 124.861 22.0837Z" fill="white"/>
<path d="M140.79 15.9814C139.024 15.9814 137.538 16.5759 136.751 17.3627C136.646 17.4676 136.454 17.3627 136.454 17.2578V9.68672C136.454 9.58181 136.349 9.49438 136.262 9.49438H132.135C132.03 9.49438 131.943 9.59929 131.943 9.68672V31.2284C131.943 31.3333 132.048 31.4207 132.135 31.4207H136.174C136.279 31.4207 136.366 31.3158 136.366 31.2284V30.3366C136.366 30.1443 136.559 30.0394 136.664 30.2317C137.451 31.1235 138.832 31.8054 140.598 31.8054C144.829 31.8054 147.784 28.4657 147.784 23.9371C147.784 19.321 145.214 15.9814 140.79 15.9814ZM139.811 27.5915C138.045 27.5915 136.366 26.3151 136.366 23.8497C136.366 21.2968 138.045 20.1078 139.811 20.1078C141.577 20.1078 143.151 21.2968 143.151 23.8497C143.256 26.4025 141.577 27.5915 139.811 27.5915Z" fill="white"/>
<path d="M162.926 29.0602V21.6815C162.926 18.6391 161.16 15.8765 156.229 15.8765C151.893 15.8765 149.935 18.5342 149.638 20.7024C149.638 20.8073 149.743 20.8947 149.83 20.8947L153.467 21.6815C153.572 21.6815 153.659 21.6815 153.659 21.4892C153.852 20.4051 154.743 19.4259 156.212 19.4259C157.681 19.4259 158.38 20.2128 158.38 21.1045C158.38 21.5941 158.083 21.9963 157.296 22.0837L153.747 22.6782C151.281 23.0803 149.323 24.5491 149.323 27.2068C149.323 29.5673 151.194 31.7355 154.533 31.7355C156.299 31.7355 157.576 31.0535 158.468 30.0569C158.572 29.952 158.765 29.952 158.765 30.1618C158.765 30.6514 158.87 30.9486 158.87 31.141C158.87 31.2459 158.975 31.3333 159.062 31.3333H162.804C162.909 31.3333 162.996 31.2284 162.996 31.141C162.926 30.8262 162.926 29.952 162.926 29.0602ZM158.398 25.5282C158.398 27.8887 157.016 28.4832 155.635 28.4832C154.359 28.4832 153.869 27.6964 153.869 26.9096C153.869 25.8255 154.551 25.4408 155.548 25.231L158.205 24.8288C158.31 24.8288 158.398 24.9338 158.398 25.0212V25.5282Z" fill="white"/>
<path d="M170.2 9.49438H165.969C165.864 9.49438 165.776 9.59929 165.776 9.68672V31.2284C165.776 31.3333 165.881 31.4207 165.969 31.4207H170.2C170.305 31.4207 170.392 31.3158 170.392 31.2284V9.68672C170.41 9.58181 170.305 9.49438 170.2 9.49438Z" fill="white"/>
<path d="M177.876 9.49438H173.645C173.54 9.49438 173.452 9.59929 173.452 9.68672V31.2284C173.452 31.3333 173.557 31.4207 173.645 31.4207H177.876C177.981 31.4207 178.068 31.3158 178.068 31.2284V9.68672C178.068 9.58181 177.981 9.49438 177.876 9.49438Z" fill="white"/>
<path d="M34.3582 14.8273L23.2202 16.5759V16.0338C23.2202 15.282 22.5558 14.705 21.8039 14.8273L12.2395 16.3311C11.4527 16.4535 10.9806 17.2927 11.3128 18.0271L13.8657 23.7797C14.0055 24.0945 14.0055 24.4442 13.8831 24.7414L11.5227 30.3891C11.1555 31.2808 11.8898 32.225 12.834 32.0677L23.2202 30.4416V30.9836C23.2202 31.7355 23.8846 32.3125 24.6365 32.1901L34.7429 30.5989C35.3374 30.5115 35.7745 29.9869 35.7745 29.3925V16.0338C35.7745 15.282 35.1101 14.705 34.3582 14.8273Z" fill="#FC5819"/>
</svg>
