<svg width="90" height="90" viewBox="0 0 90 90" fill="none" xmlns="http://www.w3.org/2000/svg">
<path d="M46.9336 88.0664C70.7185 88.0664 90 68.7849 90 45C90 21.2151 70.7185 1.93359 46.9336 1.93359C23.1487 1.93359 3.86719 21.2151 3.86719 45C3.86719 68.7849 23.1487 88.0664 46.9336 88.0664Z" fill="#FFCF48"/>
<path d="M32.646 63.0229H46.4817V70.2704H32.646V63.0229Z" fill="#4B4B4F"/>
<path d="M32.646 63.0229H36.1338V70.2704H32.646V63.0229Z" fill="#767881"/>
<path d="M55.6972 70.0952H22.4225C21.9293 70.0952 21.5259 70.4988 21.5259 70.992V75.487C21.5259 75.9802 21.9295 76.3838 22.4225 76.3838H55.6972V70.0952Z" fill="#4B4B4F"/>
<path d="M25.0137 75.4865V70.9916C25.0137 70.4983 25.4173 70.0947 25.9106 70.0947H22.4225C21.9293 70.0947 21.5259 70.4983 21.5259 70.9916V75.4865C21.5259 75.9797 21.9295 76.3833 22.4225 76.3833H25.9104C25.4173 76.3833 25.0137 75.9797 25.0137 75.4865Z" fill="#767881"/>
<path d="M78.2322 10.3647H0.896836C0.403594 10.3647 0 10.7683 0 11.2616V62.3021C0.000649464 62.5398 0.0953458 62.7675 0.263395 62.9356C0.431443 63.1036 0.65918 63.1983 0.896836 63.199H55.6973V36.3459C55.6973 35.6676 56.2493 35.1154 56.9278 35.1154H79.129V11.2616C79.129 10.7683 78.7254 10.3647 78.2322 10.3647Z" fill="#4B4B4F"/>
<path d="M3.93701 54.2308C3.93743 54.3734 3.99426 54.51 4.09508 54.6108C4.1959 54.7116 4.33252 54.7684 4.47508 54.7687H55.6976V36.3458C55.6976 35.6675 56.2495 35.1153 56.928 35.1153H75.1924V19.1597H3.93701V54.2308Z" fill="white"/>
<path d="M7.42504 54.2308V19.1597H3.93701V54.2308C3.93743 54.3734 3.99426 54.51 4.09508 54.6108C4.1959 54.7116 4.33252 54.7684 4.47508 54.7687H7.96311C7.82056 54.7683 7.68397 54.7115 7.58316 54.6107C7.48235 54.51 7.4255 54.3734 7.42504 54.2308Z" fill="#D9EAFC"/>
<path d="M39.5648 61.3888C40.902 61.3888 41.986 60.3048 41.986 58.9676C41.986 57.6304 40.902 56.5464 39.5648 56.5464C38.2276 56.5464 37.1436 57.6304 37.1436 58.9676C37.1436 60.3048 38.2276 61.3888 39.5648 61.3888Z" fill="#4B4B4F"/>
<path d="M55.6976 39.2251H46.3066C46.0166 39.2251 45.7793 39.4624 45.7793 39.7524V50.2359C45.7793 50.5259 46.0166 50.7632 46.3066 50.7632H55.6976V39.2251Z" fill="#C3DDF4"/>
<path d="M49.2671 50.2359V39.7524C49.2671 39.4624 49.5044 39.2251 49.7945 39.2251H46.3066C46.0166 39.2251 45.7793 39.4624 45.7793 39.7524V50.2359C45.7793 50.5259 46.0166 50.7632 46.3066 50.7632H49.7945C49.5044 50.7632 49.2671 50.5259 49.2671 50.2359Z" fill="#AEC1ED"/>
<path d="M56.928 35.1155H65.1226V23.6226C65.1226 23.1392 64.7271 22.7437 64.2437 22.7437H14.8857C14.4023 22.7437 14.0068 23.1392 14.0068 23.6226V35.3164C14.0068 35.7998 14.4023 36.1953 14.8857 36.1953H55.708C55.7825 35.5878 56.3009 35.1155 56.928 35.1155Z" fill="#C3DDF4"/>
<path d="M17.4947 35.3164V23.6226C17.4947 23.1392 17.8902 22.7437 18.3736 22.7437H14.8857C14.4023 22.7437 14.0068 23.1392 14.0068 23.6226V35.3164C14.0068 35.7998 14.4023 36.1953 14.8857 36.1953H18.3736C17.8902 36.1953 17.4947 35.7998 17.4947 35.3164Z" fill="#AEC1ED"/>
<path d="M74.6543 14.9385H4.47508C4.33247 14.9389 4.19583 14.9957 4.09501 15.0966C3.99419 15.1975 3.93738 15.3341 3.93701 15.4767V19.3356H75.1924V15.4767C75.192 15.3341 75.1352 15.1975 75.0344 15.0966C74.9336 14.9957 74.7969 14.9389 74.6543 14.9385Z" fill="#E7633F"/>
<path d="M7.96311 14.9385H4.47508C4.33247 14.9389 4.19583 14.9957 4.09501 15.0966C3.99419 15.1975 3.93738 15.3341 3.93701 15.4767V19.3356H7.42486V15.4767C7.42528 15.3341 7.48212 15.1974 7.58297 15.0966C7.68382 14.9957 7.82048 14.9389 7.96311 14.9385Z" fill="#FF9518"/>
<path d="M30.1471 42.0078H15.3516C14.6235 42.0078 14.0332 41.4177 14.0332 40.6895C14.0332 39.9612 14.6235 39.3711 15.3516 39.3711H30.1471C30.8752 39.3711 31.4654 39.9612 31.4654 40.6895C31.4654 41.4177 30.8752 42.0078 30.1471 42.0078ZM30.1471 46.3122H15.3516C14.6235 46.3122 14.0332 45.7221 14.0332 44.9938C14.0332 44.2655 14.6235 43.6754 15.3516 43.6754H30.1471C30.4967 43.6754 30.8321 43.8143 31.0793 44.0616C31.3265 44.3088 31.4654 44.6442 31.4654 44.9938C31.4654 45.3435 31.3265 45.6788 31.0793 45.926C30.8321 46.1733 30.4967 46.3122 30.1471 46.3122ZM30.1471 50.6165H15.3516C14.6235 50.6165 14.0332 50.0264 14.0332 49.2982C14.0332 48.5699 14.6235 47.9798 15.3516 47.9798H30.1471C30.8752 47.9798 31.4654 48.5699 31.4654 49.2982C31.4654 50.0264 30.8752 50.6165 30.1471 50.6165ZM41.7585 42.0078H34.1426C33.4145 42.0078 32.8242 41.4177 32.8242 40.6895C32.8242 39.9612 33.4145 39.3711 34.1426 39.3711H41.7585C42.4866 39.3711 43.0768 39.9612 43.0768 40.6895C43.0768 41.4177 42.4866 42.0078 41.7585 42.0078ZM41.7585 46.3122H34.1426C33.4145 46.3122 32.8242 45.7221 32.8242 44.9938C32.8242 44.2655 33.4145 43.6754 34.1426 43.6754H41.7585C42.1081 43.6754 42.4435 43.8143 42.6907 44.0616C42.9379 44.3088 43.0768 44.6442 43.0768 44.9938C43.0768 45.3435 42.9379 45.6788 42.6907 45.926C42.4435 46.1733 42.1081 46.3122 41.7585 46.3122ZM41.7585 50.6165H34.1426C33.4145 50.6165 32.8242 50.0264 32.8242 49.2982C32.8242 48.5699 33.4145 47.9798 34.1426 47.9798H41.7585C42.4866 47.9798 43.0768 48.5699 43.0768 49.2982C43.0768 50.0264 42.4866 50.6165 41.7585 50.6165Z" fill="#5DC1D8"/>
<path d="M88.5937 34.9395C89.3671 34.9395 89.9999 35.5723 89.9999 36.3457V78.8443C89.9999 79.6178 89.3671 80.2506 88.5937 80.2506H56.9277C56.1543 80.2506 55.5215 79.6178 55.5215 78.8443V36.3457C55.5215 35.5723 56.1543 34.9395 56.9277 34.9395H88.5937Z" fill="#4B4B4F"/>
<path d="M59.3379 74.7291C58.8545 74.7291 58.459 74.3336 58.459 73.8502V38.5278C58.459 38.0444 58.8545 37.6489 59.3379 37.6489H86.1837C86.6671 37.6489 87.0626 38.0444 87.0626 38.5278V73.8502C87.0626 74.3336 86.6671 74.7291 86.1837 74.7291H59.3379Z" fill="white"/>
<path d="M61.9468 73.8502V38.5278C61.9468 38.0444 62.3423 37.6489 62.8257 37.6489H59.3379C58.8545 37.6489 58.459 38.0444 58.459 38.5278V73.8502C58.459 74.3336 58.8545 74.7291 59.3379 74.7291H62.8257C62.3423 74.7291 61.9468 74.3336 61.9468 73.8502Z" fill="#D9EAFC"/>
<path d="M71.1152 78.2447C70.6318 78.2447 70.2363 77.8492 70.2363 77.3658V77.0239C70.2363 76.5405 70.6318 76.145 71.1152 76.145H74.4064C74.8898 76.145 75.2853 76.5405 75.2853 77.0239V77.3658C75.2853 77.8492 74.8898 78.2447 74.4064 78.2447H71.1152Z" fill="#767881"/>
<path d="M87.0626 41.0403V38.5278C87.0626 38.0444 86.6671 37.6489 86.1837 37.6489H59.3379C58.8545 37.6489 58.459 38.0444 58.459 38.5278V41.0403H87.0626Z" fill="#E7633F"/>
<path d="M62.8257 37.6489H59.3379C58.8545 37.6489 58.459 38.0444 58.459 38.5278V41.0403H61.9468V38.5278C61.9468 38.0444 62.3423 37.6489 62.8257 37.6489Z" fill="#FF9518"/>
<path d="M78.7524 57.1172H66.7695C66.0414 57.1172 65.4512 56.5271 65.4512 55.7988C65.4512 55.0706 66.0414 54.4805 66.7695 54.4805H78.7524C79.102 54.4805 79.4373 54.6194 79.6846 54.8666C79.9318 55.1138 80.0707 55.4492 80.0707 55.7988C80.0707 56.1485 79.9318 56.4838 79.6846 56.731C79.4373 56.9783 79.102 57.1172 78.7524 57.1172ZM78.7524 61.1825H66.7695C66.4199 61.1825 66.0846 61.0436 65.8373 60.7963C65.5901 60.5491 65.4512 60.2138 65.4512 59.8641C65.4512 59.5145 65.5901 59.1791 65.8373 58.9319C66.0846 58.6847 66.4199 58.5458 66.7695 58.5458H78.7524C79.102 58.5458 79.4373 58.6847 79.6846 58.9319C79.9318 59.1791 80.0707 59.5145 80.0707 59.8641C80.0707 60.2138 79.9318 60.5491 79.6846 60.7963C79.4373 61.0436 79.102 61.1825 78.7524 61.1825ZM78.7524 65.2474H66.7695C66.4199 65.2474 66.0846 65.1085 65.8373 64.8613C65.5901 64.614 65.4512 64.2787 65.4512 63.9291C65.4512 63.5794 65.5901 63.2441 65.8373 62.9968C66.0846 62.7496 66.4199 62.6107 66.7695 62.6107H78.7524C79.102 62.6107 79.4373 62.7496 79.6846 62.9968C79.9318 63.2441 80.0707 63.5794 80.0707 63.9291C80.0707 64.2787 79.9318 64.614 79.6846 64.8613C79.4373 65.1085 79.102 65.2474 78.7524 65.2474Z" fill="#5DC1D8"/>
<path d="M84.3319 51.3735C84.3319 51.8569 83.9364 52.2524 83.453 52.2524H62.0684C61.585 52.2524 61.1895 51.8569 61.1895 51.3735V44.1235C61.1895 43.6401 61.585 43.2446 62.0684 43.2446H83.453C83.9364 43.2446 84.3319 43.6401 84.3319 44.1235V51.3735Z" fill="#C3DDF4"/>
<path d="M64.6773 51.3735V44.1235C64.6773 43.6401 65.0728 43.2446 65.5562 43.2446H62.0684C61.585 43.2446 61.1895 43.6401 61.1895 44.1235V51.3735C61.1895 51.8569 61.585 52.2524 62.0684 52.2524H65.5562C65.0728 52.2524 64.6773 51.8569 64.6773 51.3735Z" fill="#AEC1ED"/>
<path d="M81.1682 71.9676C81.1682 72.451 80.7727 72.8465 80.2893 72.8465H65.2324C64.749 72.8465 64.3535 72.451 64.3535 71.9676V68.9951C64.3535 68.5117 64.749 68.1162 65.2324 68.1162H80.2893C80.7727 68.1162 81.1682 68.5117 81.1682 68.9951V71.9676Z" fill="#C3DDF4"/>
<path d="M67.8414 71.9676V68.9951C67.8414 68.5117 68.2369 68.1162 68.7203 68.1162H65.2324C64.749 68.1162 64.3535 68.5117 64.3535 68.9951V71.9676C64.3535 72.451 64.749 72.8465 65.2324 72.8465H68.7203C68.2369 72.8465 67.8414 72.451 67.8414 71.9676Z" fill="#AEC1ED"/>
</svg>
