<svg xmlns="http://www.w3.org/2000/svg" width="124" height="90" viewBox="0 0 124 90"><defs><style>.a{fill:none;}.b{fill:#95bf47;}.c{fill:#5e8e3e;}.d{fill:#fff;}</style></defs><g transform="translate(-40 -32)"><rect class="a" width="124" height="90" transform="translate(40 32)"/><g transform="translate(67 37)"><path class="b" d="M61.855,15.775a.729.729,0,0,0-.691-.634c-.288,0-5.99-.115-5.99-.115s-4.78-4.607-5.241-5.126a1.916,1.916,0,0,0-1.728-.23s-.921.288-2.419.749A17.174,17.174,0,0,0,44.635,7.6c-1.67-3.225-4.2-4.953-7.2-4.953h0A2.362,2.362,0,0,0,36.8,2.7c-.115-.115-.173-.23-.288-.288A6.4,6.4,0,0,0,31.5.4c-3.859.115-7.717,2.937-10.885,7.89a32.462,32.462,0,0,0-4.377,11.288c-4.435,1.382-7.545,2.361-7.66,2.361-2.246.691-2.3.749-2.592,2.88C5.874,26.43,0,71.87,0,71.87l49.3,8.524,21.367-5.3C70.609,75.1,61.912,16.178,61.855,15.775ZM43.31,11.225q-1.728.518-3.8,1.209a21.309,21.309,0,0,0-1.152-7.026C41.294,5.869,42.734,9.209,43.31,11.225Zm-6.393,1.958c-2.592.806-5.414,1.67-8.236,2.534a19.865,19.865,0,0,1,4.147-8.063,8.377,8.377,0,0,1,2.764-2.016A16.9,16.9,0,0,1,36.917,13.183Zm-5.3-10.194a3.744,3.744,0,0,1,2.3.634,10.2,10.2,0,0,0-2.995,2.361A22.449,22.449,0,0,0,25.8,16.7c-2.361.749-4.665,1.44-6.738,2.073C20.446,12.492,25.686,3.162,31.619,2.989Z" transform="translate(0 -0.394)"/><g transform="translate(13.131 9.218)"><path class="c" d="M97.464,21.929c-.288,0-5.99-.115-5.99-.115s-4.78-4.607-5.241-5.126A.925.925,0,0,0,85.6,16.4V87.182l21.367-5.3s-8.7-58.918-8.754-59.321A.837.837,0,0,0,97.464,21.929Z" transform="translate(-49.432 -16.4)"/><path class="d" d="M47.1,44.471l-2.477,9.272a13.8,13.8,0,0,0-6.047-1.037c-4.838.288-4.838,3.34-4.838,4.089.288,4.147,11.173,5.068,11.807,14.8.461,7.66-4.032,12.9-10.6,13.3A16.149,16.149,0,0,1,22.8,80.7l1.67-7.084S28.847,76.9,32.3,76.665A3.056,3.056,0,0,0,35.3,73.382c-.346-5.414-9.215-5.068-9.791-14-.461-7.487,4.435-15.032,15.262-15.723C44.973,43.376,47.1,44.471,47.1,44.471Z" transform="translate(-22.8 -27.942)"/></g></g></g></svg>
