<svg width="30" height="30" viewBox="0 0 30 30" fill="none" xmlns="http://www.w3.org/2000/svg">
<path d="M13.6484 6.79688H16.3512V9.49899H13.6484V6.79688Z" fill="#DCDCDC"/>
<path d="M26.3045 13.4844H3.69379V24.3984C3.69379 25.6107 4.67665 26.5938 5.88922 26.5938H24.1093C25.3213 26.5938 26.3045 25.611 26.3045 24.3984V13.4844Z" fill="#F7D162"/>
<path d="M3.69379 13.4844H26.3045V15.8466H3.69379V13.4844Z" fill="#F4B70C"/>
<path d="M13.0059 13.4844H16.9961V15.8466H13.0059V13.4844Z" fill="#F4B70C"/>
<path d="M1.65661 14.1387H3.03901V24.3965C3.03901 25.9686 4.31804 27.2479 5.89023 27.2479H24.1103C25.6825 27.2479 26.9615 25.9686 26.9615 24.3965V14.1387H28.3439C28.7066 14.1387 29.0003 13.8448 29.0003 13.4824V9.49666C29.0003 9.13432 28.7066 8.84089 28.3439 8.84089H24.6534C24.7136 8.75803 24.7713 8.67052 24.8254 8.57727C25.4383 7.51348 25.388 6.10513 24.6753 4.39105C24.1429 3.10986 23.3378 2.38627 22.2827 2.24079C21.0529 2.07069 19.5794 2.73767 17.9041 4.22259C17.0493 4.98037 16.3667 5.75291 16.0418 6.13822H13.9588C13.6339 5.75291 12.9513 4.98037 12.0964 4.22259C10.4208 2.73767 8.94765 2.07069 7.71757 2.24079C6.66279 2.38627 5.85769 3.10986 5.32524 4.39105C4.6123 6.10513 4.56225 7.51348 5.1751 8.57727C5.22898 8.67052 5.28695 8.75803 5.34712 8.84089H1.65661C1.29371 8.84089 1.00027 9.13432 1.00027 9.49666V13.4824C1.00027 13.8448 1.29371 14.1387 1.65661 14.1387ZM4.35086 24.3965V14.1387H12.3488V25.9355H5.89023C5.04137 25.9355 4.35086 25.245 4.35086 24.3965ZM25.6491 24.3965C25.6491 25.245 24.9592 25.9355 24.1103 25.9355H17.6512V12.6207C17.6512 12.2584 17.3575 11.9647 16.9951 11.9647C16.6328 11.9647 16.3393 12.2584 16.3393 12.6207V25.9355H13.6612V14.1387H16.3393V19.2271C16.3393 19.5895 16.6328 19.8829 16.9951 19.8829C17.3575 19.8829 17.6512 19.5895 17.6512 19.2271V14.1387H25.6491V24.3965ZM13.6612 10.153H16.3393V12.8267H13.6612V10.153ZM27.6879 12.8267H17.6515V10.153H27.6879V12.8267ZM18.7746 5.20461C20.1113 4.01968 21.2936 3.42927 22.1033 3.54057C22.6724 3.61933 23.1173 4.06234 23.4636 4.89505C24.0009 6.18717 24.0805 7.23045 23.6938 7.91192C23.297 8.612 22.487 8.80616 22.3106 8.84089H17.0074V7.02918C17.285 6.69746 17.9482 5.93723 18.7746 5.20461ZM15.6953 8.84089H14.305V7.45059H15.6953V8.84089ZM6.30618 7.91192C5.92004 7.23045 5.99962 6.18717 6.53672 4.89505C6.88294 4.06234 7.3276 3.6196 7.89642 3.54057C8.70317 3.42927 9.88074 4.01558 11.212 5.19285C12.042 5.92629 12.7125 6.69555 12.9929 7.02945V8.84089H7.68995C7.51466 8.80616 6.70354 8.61254 6.30618 7.91192ZM2.31239 10.153H12.3488V12.8267H2.31239V10.153Z" fill="#282828"/>
</svg>
