<svg xmlns="http://www.w3.org/2000/svg" xmlns:xlink="http://www.w3.org/1999/xlink" width="44" height="43.987" viewBox="0 0 44 43.987"><defs><style>.a,.i{fill:none;}.b{fill:#ffcf48;}.c{fill:#dd9f17;}.d{fill:#e6e6e6;}.e{fill:#a5452f;}.f{fill:#3d2b28;}.g{fill:#e7633f;}.h{clip-path:url(#a);}.i{stroke:#15161e;stroke-linecap:round;stroke-miterlimit:10;stroke-width:2px;}</style><clipPath id="a"><path class="a" d="M42,21.841a20.127,20.127,0,1,0,14.766,6.431A20.086,20.086,0,0,0,42,21.841Z" transform="translate(-21.866 -21.841)"/></clipPath></defs><g transform="translate(-32 -19)"><g transform="translate(-485 -349)"><g transform="translate(517 368)"><g transform="translate(0 0)"><g transform="translate(0.941 0.933)"><path class="b" d="M55.9,56.962A21.068,21.068,0,1,1,57,27.2,21.089,21.089,0,0,1,55.9,56.962Z" transform="translate(-20.48 -20.468)"/></g><g transform="translate(0.946 19.558)"><path class="c" d="M55.9,60.814A21.074,21.074,0,0,1,20.635,47.89a21.072,21.072,0,1,0,41.847-.012A20.966,20.966,0,0,1,55.9,60.814Z" transform="translate(-20.486 -47.878)"/></g><g transform="translate(0.867 1.376)"><path class="b" d="M27.1,28.7a21.073,21.073,0,0,1,35.394,14.46,21.073,21.073,0,1,0-42.1-.009A20.986,20.986,0,0,1,27.1,28.7Z" transform="translate(-20.371 -21.121)"/></g><path class="d" d="M41.1,63.083a21.994,21.994,0,1,1,14.972-5.877A22.1,22.1,0,0,1,41.1,63.083Zm-.01-42.122a20.128,20.128,0,1,0,14.765,6.431A20.089,20.089,0,0,0,41.092,20.961Z" transform="translate(-19.096 -19.096)"/></g><g transform="translate(1.884 1.865)"><path class="e" d="M44.759,52.777H34.987L36.5,47.848l-1.516-4.929h9.772Z" transform="translate(-26.064 -28.596)"/><path class="f" d="M42.172,44.126l4.886-1.207v2.588Z" transform="translate(-28.363 -28.596)"/><path class="g" d="M42.172,54.791H56.884l2.6-10.1H42.172Z" transform="translate(-28.363 -29.165)"/><g class="h"><line class="i" y1="26.516" x2="6.836" transform="translate(24.509 14.672)"/></g></g></g></g></g></svg>
