<svg width="35" height="35" viewBox="0 0 35 35" fill="none" xmlns="http://www.w3.org/2000/svg">
<rect x="0.544922" y="0.595703" width="33.6956" height="33.6956" rx="16.8478" fill="#E7633F"/>
<path d="M25.6777 12.581H22.417C22.5165 12.4994 22.613 12.4135 22.7066 12.3234C23.1897 11.8325 23.4591 11.1715 23.4565 10.4838C23.4539 9.79614 23.1795 9.13723 22.6928 8.64997C22.2061 8.1627 21.5464 7.8864 20.8567 7.88099C20.167 7.87558 19.5029 8.14149 19.0086 8.62106C18.5546 9.13848 18.1727 9.71459 17.8733 10.3338C17.6733 10.7261 17.5121 11.1368 17.3919 11.5602C17.2714 11.1372 17.1102 10.7267 16.9105 10.3346C16.6109 9.71411 16.2284 9.13692 15.7736 8.61867C15.5315 8.36755 15.2415 8.16718 14.9207 8.02943C14.5998 7.89167 14.2545 7.81928 13.9052 7.81649C13.5559 7.8137 13.2095 7.88056 12.8865 8.01317C12.5635 8.14577 12.2704 8.34147 12.0243 8.58869C11.7782 8.83591 11.5842 9.12967 11.4536 9.45273C11.3231 9.7758 11.2586 10.1216 11.2641 10.4699C11.2695 10.8182 11.3447 11.1618 11.4853 11.4807C11.6259 11.7995 11.8291 12.0872 12.0828 12.3266C12.1748 12.4151 12.2708 12.4999 12.3708 12.581H9.10847C8.75203 12.5816 8.41044 12.7233 8.15862 12.9748C7.9068 13.2263 7.76538 13.5672 7.76538 13.9226V17.4081C7.76538 17.6068 7.84437 17.7974 7.98516 17.9381C8.12596 18.0788 8.31698 18.158 8.51631 18.1585H8.94882V25.7295C8.94882 26.0849 9.09025 26.4257 9.34206 26.6773C9.59388 26.9288 9.93547 27.0704 10.2919 27.0711H24.4935C24.8499 27.0704 25.1915 26.9288 25.4433 26.6773C25.6952 26.4257 25.8366 26.0849 25.8366 25.7295V18.1585H26.269C26.4683 18.158 26.6594 18.0788 26.8001 17.9381C26.9409 17.7974 27.02 17.6068 27.02 17.4081V13.9226C27.02 13.5673 26.8787 13.2265 26.6271 12.975C26.3754 12.7235 26.034 12.5818 25.6777 12.581ZM24.3346 18.1585V25.5711H18.1429V18.1585H24.3346ZM19.0664 11.3418C19.3021 10.7335 19.6427 10.1709 20.0726 9.67944C20.1769 9.57648 20.3004 9.49501 20.4363 9.4397C20.5722 9.38438 20.7178 9.35629 20.8645 9.35703C21.0113 9.35778 21.1564 9.38735 21.2918 9.44404C21.4271 9.50073 21.5499 9.58344 21.6532 9.68745C21.7564 9.79145 21.8381 9.9147 21.8936 10.0502C21.9491 10.1857 21.9772 10.3307 21.9765 10.4771C21.9757 10.6234 21.9461 10.7682 21.8892 10.9031C21.8323 11.038 21.7494 11.1604 21.6451 11.2634C20.8526 11.9554 19.8819 12.4129 18.8425 12.5842C18.8128 12.5872 18.7829 12.5845 18.7543 12.5762C18.7611 12.1462 18.8679 11.7236 19.0664 11.3418ZM25.5181 14.0817V16.6585H18.1429V14.0817H25.5181ZM16.6408 18.1616V25.5743H10.4475V18.1616H16.6408ZM15.9397 12.585C14.9009 12.4137 13.9307 11.9565 13.1386 11.265C12.9322 11.0529 12.8168 10.769 12.8168 10.4734C12.8168 10.1779 12.9322 9.89395 13.1386 9.68183C13.2406 9.57916 13.3619 9.49753 13.4955 9.4416C13.6291 9.38567 13.7725 9.35653 13.9175 9.35586C14.0624 9.35519 14.206 9.383 14.3402 9.4377C14.4743 9.49239 14.5963 9.57293 14.6992 9.67465L14.7065 9.68183C15.1365 10.1729 15.477 10.7353 15.7125 11.3434C15.911 11.725 16.0179 12.1472 16.0247 12.577C15.9969 12.5838 15.9681 12.5854 15.9397 12.5818V12.585ZM16.6408 14.085V16.6617H9.26576V14.0817L16.6408 14.085Z" fill="white"/>
</svg>
