<svg width="34" height="76" viewBox="0 0 34 76" fill="none" xmlns="http://www.w3.org/2000/svg">
<path d="M21.9658 -5.2603e-07C28.6121 -2.35512e-07 34 5.38788 34 12.0342L34 63.9658C34 70.6121 28.6121 76 21.9658 76L4.92632e-07 76L3.8147e-06 -1.48619e-06L21.9658 -5.2603e-07Z" fill="#E7633F"/>
<path d="M21.2354 24.9123L21.2354 21.6516C21.317 21.7511 21.4029 21.8476 21.493 21.9413C21.9839 22.4243 22.6449 22.6937 23.3326 22.6911C24.0203 22.6885 24.6792 22.4141 25.1664 21.9274C25.6537 21.4407 25.93 20.781 25.9354 20.0913C25.9408 19.4016 25.6749 18.7376 25.1953 18.2432C24.6779 17.7893 24.1018 17.4073 23.4826 17.1079C23.0903 16.908 22.6796 16.7467 22.2562 16.6265C22.6793 16.5061 23.0897 16.3449 23.4818 16.1451C24.1023 15.8455 24.6795 15.463 25.1977 15.0082C25.4489 14.7661 25.6492 14.4761 25.787 14.1553C25.9247 13.8345 25.9971 13.4892 25.9999 13.1398C26.0027 12.7905 25.9358 12.4442 25.8032 12.1211C25.6706 11.7981 25.4749 11.505 25.2277 11.2589C24.9805 11.0129 24.6867 10.8188 24.3637 10.6882C24.0406 10.5577 23.6948 10.4933 23.3465 10.4987C22.9982 10.5042 22.6546 10.5794 22.3357 10.72C22.0169 10.8606 21.7293 11.0637 21.4898 11.3174C21.4013 11.4094 21.3165 11.5054 21.2354 11.6055L21.2354 8.34309C21.2348 7.98665 21.0932 7.64506 20.8416 7.39324C20.5901 7.14142 20.2492 7 19.8938 7L16.4083 7C16.2096 7 16.019 7.07899 15.8783 7.21978C15.7376 7.36058 15.6584 7.5516 15.658 7.75093L15.658 8.18344L8.08692 8.18344C7.73153 8.18344 7.39066 8.32486 7.13914 8.57668C6.88762 8.8285 6.74598 9.17009 6.74535 9.52653L6.74535 23.7281C6.74598 24.0846 6.88761 24.4262 7.13914 24.678C7.39066 24.9298 7.73153 25.0712 8.08692 25.0712L15.658 25.0712L15.658 25.5036C15.6584 25.7029 15.7376 25.894 15.8783 26.0348C16.019 26.1756 16.2096 26.2546 16.4083 26.2546L19.8938 26.2546C20.2491 26.2547 20.5899 26.1133 20.8414 25.8617C21.0929 25.6101 21.2346 25.2686 21.2354 24.9123ZM15.658 23.5693L8.24532 23.5693L8.24532 17.3775L15.658 17.3775L15.658 23.5693ZM22.4746 18.301C23.0829 18.5368 23.6455 18.8773 24.137 19.3072C24.2399 19.4115 24.3214 19.5351 24.3767 19.6709C24.432 19.8068 24.4601 19.9524 24.4594 20.0991C24.4586 20.2459 24.4291 20.3911 24.3724 20.5264C24.3157 20.6617 24.233 20.7845 24.129 20.8878C24.025 20.991 23.9017 21.0728 23.7662 21.1282C23.6307 21.1837 23.4857 21.2118 23.3393 21.2111C23.193 21.2103 23.0482 21.1807 22.9133 21.1238C22.7784 21.067 22.656 20.9841 22.553 20.8798C21.861 20.0872 21.4035 19.1165 21.2322 18.0771C21.2292 18.0475 21.232 18.0175 21.2403 17.9889C21.6702 17.9957 22.0928 18.1026 22.4746 18.301ZM19.7347 24.7527L17.1579 24.7527L17.1579 17.3775L19.7347 17.3775L19.7347 24.7527ZM15.6548 15.8755L8.24209 15.8755L8.24209 9.68216L15.6548 9.68216L15.6548 15.8755ZM21.2314 15.1743C21.4027 14.1355 21.8599 13.1654 22.5514 12.3732C22.7635 12.1668 23.0474 12.0514 23.343 12.0514C23.6385 12.0514 23.9225 12.1668 24.1346 12.3732C24.2372 12.4752 24.3189 12.5965 24.3748 12.7301C24.4307 12.8638 24.4599 13.0072 24.4605 13.1521C24.4612 13.297 24.4334 13.4407 24.3787 13.5748C24.324 13.7089 24.2435 13.8309 24.1418 13.9339L24.1346 13.9411C23.6435 14.3712 23.0811 14.7116 22.473 14.9472C22.0914 15.1456 21.6692 15.2525 21.2394 15.2593C21.2327 15.2315 21.231 15.2027 21.2346 15.1743L21.2314 15.1743ZM19.7314 15.8755L17.1547 15.8755L17.1547 8.50038L19.7347 8.50038L19.7314 15.8755Z" fill="white"/>
<path d="M12.8726 34.756L15.2106 33.4322L15.2106 32.8649L12.8726 32.8649L12.8726 31.6615L18.8724 31.6615L18.8724 33.9136C18.8724 34.3777 18.7893 34.7732 18.6232 35.0998C18.4627 35.4264 18.2421 35.67 17.9613 35.8304C17.6862 35.9966 17.3768 36.0797 17.0329 36.0797C16.6375 36.0797 16.2794 35.9651 15.9585 35.7359C15.6433 35.5067 15.4255 35.1657 15.3052 34.713L12.8726 36.1485L12.8726 34.756ZM16.1132 32.8649L16.1132 33.8706C16.1132 34.1972 16.1905 34.4408 16.3453 34.6012C16.5057 34.7617 16.7263 34.8419 17.0071 34.8419C17.2822 34.8419 17.4942 34.7617 17.6432 34.6012C17.798 34.4408 17.8753 34.1972 17.8753 33.8706L17.8753 32.8649L16.1132 32.8649ZM15.3567 41.595C15.1848 41.595 15.0301 41.5835 14.8926 41.5606L14.8926 38.0793C14.5487 38.108 14.2794 38.2283 14.0846 38.4403C13.8897 38.6524 13.7923 38.9131 13.7923 39.2226C13.7923 39.6695 13.9843 39.9876 14.3682 40.1767L14.3682 41.4747C13.9098 41.3371 13.5316 41.0735 13.2336 40.6838C12.9413 40.2942 12.7952 39.8157 12.7952 39.2483C12.7952 38.7899 12.8955 38.3773 13.096 38.0105C13.3023 37.6495 13.5917 37.3659 13.9642 37.1596C14.3367 36.959 14.7665 36.8587 15.2536 36.8587C15.7464 36.8587 16.1791 36.959 16.5516 37.1596C16.924 37.3601 17.2106 37.6409 17.4111 38.0019C17.6117 38.363 17.712 38.7784 17.712 39.2483C17.712 39.7011 17.6146 40.1051 17.4197 40.4603C17.2249 40.8214 16.947 41.0993 16.5859 41.2941C16.2307 41.4947 15.8209 41.595 15.3567 41.595ZM15.7006 40.3486C16.01 40.3429 16.2564 40.2311 16.4398 40.0134C16.6289 39.7956 16.7235 39.5291 16.7235 39.214C16.7235 38.916 16.6318 38.6638 16.4484 38.4575C16.2708 38.257 16.0215 38.1338 15.7006 38.0879L15.7006 40.3486ZM17.6346 49.075L12.8726 47.6824L12.8726 46.3845L16.1991 45.5163L12.8726 44.6481L12.8726 43.3416L17.6346 41.9404L17.6346 43.161L14.0072 44.0034L17.6346 44.9146L17.6346 46.1868L14.0158 47.0807L17.6346 47.9231L17.6346 49.075ZM15.2708 49.4166C15.7522 49.4166 16.1791 49.5112 16.5516 49.7003C16.924 49.8951 17.2106 50.1559 17.4111 50.4825C17.6117 50.8149 17.712 51.1845 17.712 51.5914C17.712 51.9467 17.6404 52.2561 17.4971 52.5197C17.3538 52.7891 17.1733 53.004 16.9556 53.1644L17.6346 53.1644L17.6346 54.3764L12.8726 54.3764L12.8726 53.1644L13.5688 53.1644C13.3453 53.0097 13.1591 52.7948 13.0101 52.5197C12.8668 52.2504 12.7952 51.9381 12.7952 51.5828C12.7952 51.1816 12.8983 50.8149 13.1046 50.4825C13.3109 50.1559 13.6003 49.8951 13.9728 49.7003C14.351 49.5112 14.7837 49.4166 15.2708 49.4166ZM15.2536 53.1644C15.5459 53.1644 15.7951 53.1071 16.0014 52.9925C16.2135 52.8779 16.3739 52.7232 16.4828 52.5283C16.5974 52.3335 16.6547 52.1243 16.6547 51.9008C16.6547 51.6773 16.6003 51.471 16.4914 51.2819C16.3825 51.0928 16.2221 50.9381 16.01 50.8178C15.8037 50.7031 15.5573 50.6458 15.2708 50.6458C14.9843 50.6458 14.7321 50.7031 14.5144 50.8178C14.3023 50.9381 14.139 51.0928 14.0244 51.2819C13.9098 51.4768 13.8525 51.6831 13.8525 51.9008C13.8525 52.1243 13.9069 52.3335 14.0158 52.5283C14.1304 52.7232 14.2909 52.8779 14.4972 52.9925C14.7092 53.1071 14.9613 53.1644 15.2536 53.1644ZM16.8954 56.7552C17.1475 56.9099 17.3452 57.1105 17.4885 57.3569C17.6318 57.609 17.7034 57.8956 17.7034 58.2165L16.4398 58.2165L16.4398 57.8984C16.4398 57.5202 16.351 57.2337 16.1733 57.0388C15.9957 56.8497 15.6863 56.7552 15.245 56.7552L12.8726 56.7552L12.8726 55.5518L17.6346 55.5518L17.6346 56.7552L16.8954 56.7552ZM15.2708 58.7176C15.7522 58.7176 16.1791 58.8121 16.5516 59.0012C16.924 59.1961 17.2106 59.4597 17.4111 59.792C17.6117 60.1244 17.712 60.494 17.712 60.9009C17.712 61.2104 17.6432 61.5055 17.5057 61.7863C17.3739 62.0671 17.1962 62.2906 16.9728 62.4567L19.2335 62.4567L19.2335 63.6773L12.8726 63.6773L12.8726 62.4567L13.5774 62.4567C13.3425 62.3078 13.1534 62.0986 13.0101 61.8293C12.8668 61.5599 12.7952 61.2476 12.7952 60.8923C12.7952 60.4912 12.8983 60.1244 13.1046 59.792C13.3109 59.4597 13.6003 59.1961 13.9728 59.0012C14.351 58.8121 14.7837 58.7176 15.2708 58.7176ZM15.2536 62.4653C15.5459 62.4653 15.7951 62.408 16.0014 62.2934C16.2135 62.1788 16.3739 62.0241 16.4828 61.8293C16.5974 61.6344 16.6547 61.4252 16.6547 61.2018C16.6547 60.9783 16.6003 60.772 16.4914 60.5829C16.3825 60.3938 16.2221 60.239 16.01 60.1187C15.8037 60.0041 15.5573 59.9468 15.2708 59.9468C14.9843 59.9468 14.7321 60.0041 14.5144 60.1187C14.3023 60.239 14.139 60.3938 14.0244 60.5829C13.9098 60.7777 13.8525 60.984 13.8525 61.2018C13.8525 61.4252 13.9069 61.6344 14.0158 61.8293C14.1304 62.0241 14.2909 62.1788 14.4972 62.2934C14.7092 62.408 14.9613 62.4653 15.2536 62.4653ZM12.7952 66.675C12.7952 66.2853 12.864 65.9358 13.0015 65.6263C13.1448 65.3169 13.3367 65.0704 13.5774 64.8871C13.8181 64.7094 14.0846 64.612 14.3768 64.5948L14.3768 65.8068C14.1934 65.8297 14.0416 65.9186 13.9212 66.0733C13.8009 66.2337 13.7407 66.4315 13.7407 66.6664C13.7407 66.8956 13.7866 67.0733 13.8783 67.1993C13.97 67.3311 14.0874 67.397 14.2307 67.397C14.3854 67.397 14.5 67.3168 14.5745 67.1564C14.6548 67.0016 14.7407 66.7524 14.8324 66.4085C14.9184 66.0532 15.0072 65.761 15.0989 65.5318C15.1906 65.3083 15.331 65.1134 15.5201 64.9472C15.7092 64.7868 15.9642 64.7066 16.2851 64.7066C16.5487 64.7066 16.7894 64.7811 17.0071 64.9301C17.2249 65.0848 17.3968 65.3025 17.5229 65.5833C17.649 65.8699 17.712 66.2051 17.712 66.589C17.712 67.1564 17.5687 67.6091 17.2822 67.9472C17.0014 68.2853 16.6203 68.4715 16.139 68.5059L16.139 67.3541C16.3281 67.3369 16.4771 67.2566 16.5859 67.1134C16.7006 66.9759 16.7579 66.7896 16.7579 66.5547C16.7579 66.3369 16.7177 66.1678 16.6375 66.0475C16.5573 65.9329 16.4455 65.8756 16.3023 65.8756C16.1418 65.8756 16.0186 65.9558 15.9327 66.1163C15.8524 66.2767 15.7693 66.526 15.6834 66.8641C15.5974 67.2079 15.5086 67.4916 15.4169 67.7151C15.3252 67.9386 15.182 68.1306 14.9871 68.291C14.798 68.4572 14.5459 68.5432 14.2307 68.5489C13.9556 68.5489 13.7092 68.4715 13.4915 68.3168C13.2737 68.1678 13.1018 67.95 12.9757 67.6635C12.8554 67.3827 12.7952 67.0532 12.7952 66.675Z" fill="white"/>
</svg>
