<svg xmlns="http://www.w3.org/2000/svg" width="16" height="16" viewBox="0 0 16 16"><defs><style>.a{fill:none;}</style></defs><g transform="translate(6836 -8863)"><rect class="a" width="16" height="16" transform="translate(-6836 8863)"/><g transform="translate(-6911.98 8574.293)"><path d="M92.654,299.618l-3.289-3.289a.577.577,0,0,0-.817,0L82.184,302.7a.192.192,0,0,0,0,.272l3.831,3.833a.193.193,0,0,0,.272,0l6.367-6.367A.577.577,0,0,0,92.654,299.618Z" transform="translate(-3.781 -4.586)"/><path d="M81.529,319.4l-3.8-3.8a.213.213,0,0,0-.357.095l-1.374,5a.412.412,0,0,0,.513.5l4.929-1.438A.213.213,0,0,0,81.529,319.4Z" transform="translate(0 -16.505)"/><path d="M107.7,291.494l-2.444-2.444a1.174,1.174,0,0,0-1.66,0l-1.223,1.224a.577.577,0,0,0,0,.816l3.288,3.288a.578.578,0,0,0,.817,0l1.223-1.224A1.174,1.174,0,0,0,107.7,291.494Z" transform="translate(-16.132)"/></g></g></svg>
