<svg xmlns="http://www.w3.org/2000/svg" width="22" height="22" viewBox="0 0 22 22"><defs><style>.a{fill:#282828;}.b{fill:#fff;}.c{fill:none;}</style></defs><g transform="translate(3.486 0.48)"><path class="a" d="M345.184,319.186H334.447a1.855,1.855,0,0,0-1.844,1.866v17.789a1.855,1.855,0,0,0,1.844,1.866h10.737a1.855,1.855,0,0,0,1.844-1.866V321.052A1.855,1.855,0,0,0,345.184,319.186Zm-11.351,2.107a.861.861,0,0,1,.853-.864h10.258a.861.861,0,0,1,.854.865V336H333.832Z" transform="translate(-332.603 -319.186)"/><path class="b" d="M349.86,325.385a.862.862,0,0,0-.851-.87H338.788a.862.862,0,0,0-.85.869v14.789H349.86Zm-5.535.87h-.851a.435.435,0,0,1,0-.87h.851a.435.435,0,0,1,0,.87Zm4.259,0a.435.435,0,1,1,.426-.435A.431.431,0,0,1,348.584,326.255Z" transform="translate(-336.687 -323.265)"/><path class="b" d="M356.918,399.58h2.61a.435.435,0,1,0,0-.87h-2.61a.435.435,0,0,0,0,.87Z" transform="translate(-351.01 -380.178)"/></g><rect class="c" width="22" height="21.885"/></svg>
