<svg width="20" height="20" viewBox="0 0 20 20" fill="none" xmlns="http://www.w3.org/2000/svg">
<path fill-rule="evenodd" clip-rule="evenodd" d="M11.7741 0.734842C10.7943 -0.244947 9.20571 -0.244947 8.22592 0.734842L0.734842 8.22592C-0.244947 9.20571 -0.244947 10.7943 0.734842 11.7741L8.22592 19.2651C9.20571 20.2449 10.7943 20.2449 11.7741 19.2651L19.2651 11.7741C20.2449 10.7943 20.2449 9.20571 19.2651 8.22592L11.7741 0.734842ZM8.99636 5.98404C8.99636 5.42979 9.44567 4.98047 9.99993 4.98047C10.5542 4.98047 11.0035 5.42978 11.0035 5.98404V9.9983C11.0035 10.5525 10.5542 11.0019 9.99993 11.0019C9.44568 11.0019 8.99636 10.5526 8.99636 9.9983V5.98404ZM11.0035 14.0153C11.0035 14.5695 10.5542 15.0189 9.99992 15.0189C9.44567 15.0189 8.99635 14.5695 8.99635 14.0153C8.99635 13.461 9.44566 13.0117 9.99992 13.0117C10.5542 13.0117 11.0035 13.461 11.0035 14.0153Z" fill="#E7633F"/>
</svg>
