<svg xmlns="http://www.w3.org/2000/svg" width="20" height="20" viewBox="0 0 20 20"><defs><style>.a{fill:none;}.b{fill:#282828;}</style></defs><g transform="translate(-418 -293)"><rect class="a" width="20" height="20" transform="translate(418 293)"/><path class="b" d="M7.036,8.832h7.3a.512.512,0,0,0,.4-.179.635.635,0,0,0,.159-.436.6.6,0,0,0-.159-.426.526.526,0,0,0-.4-.169h-7.3a.522.522,0,0,0-.406.169.609.609,0,0,0-.154.426.647.647,0,0,0,.154.436A.508.508,0,0,0,7.036,8.832Zm0,9.077h7.3a.519.519,0,0,0,.4-.174.6.6,0,0,0,.159-.421.635.635,0,0,0-.159-.436.512.512,0,0,0-.4-.179h-7.3a.508.508,0,0,0-.406.179.647.647,0,0,0-.154.436.614.614,0,0,0,.154.421A.515.515,0,0,0,7.036,17.909ZM5.2,21.775h12.31A2.748,2.748,0,0,0,19.64,21a3.311,3.311,0,0,0,.714-2.308V6.863a3.311,3.311,0,0,0-.714-2.308,2.748,2.748,0,0,0-2.131-.779H5.2a2.76,2.76,0,0,0-2.127.774,3.294,3.294,0,0,0-.718,2.313V18.688A3.294,3.294,0,0,0,3.072,21,2.76,2.76,0,0,0,5.2,21.775Zm.065-1.754a1.248,1.248,0,0,1-.965-.369,1.568,1.568,0,0,1-.34-1.1V7A1.568,1.568,0,0,1,4.3,5.9a1.248,1.248,0,0,1,.965-.369h12.18a1.248,1.248,0,0,1,.965.369,1.568,1.568,0,0,1,.34,1.1V18.555a1.568,1.568,0,0,1-.34,1.1,1.248,1.248,0,0,1-.965.369Zm.979-4.985h10.23a1.1,1.1,0,0,0,.872-.354,1.4,1.4,0,0,0,.312-.959V11.786a1.4,1.4,0,0,0-.312-.959,1.1,1.1,0,0,0-.872-.354H6.243a1.091,1.091,0,0,0-.863.354,1.4,1.4,0,0,0-.312.959v1.938a1.4,1.4,0,0,0,.312.959A1.091,1.091,0,0,0,6.243,15.037Zm.793-1.662a.506.506,0,0,1-.4-.185.655.655,0,0,1-.159-.441.6.6,0,0,1,.159-.421.519.519,0,0,1,.4-.174h4.272a.519.519,0,0,1,.4.174.6.6,0,0,1,.159.421.655.655,0,0,1-.159.441.506.506,0,0,1-.4.185Z" transform="translate(416.646 290.225)"/></g></svg>
