<svg xmlns="http://www.w3.org/2000/svg" width="16" height="16" viewBox="0 0 16 16"><defs><style>.a{fill:#282828;}.b{fill:none;}</style></defs><g transform="translate(-389 -928)"><g transform="translate(390.239 929.239)"><path class="a" d="M13.385,4.009h-.67V2.67a.67.67,0,0,0-1.339,0V4.009H6.018V2.67a.67.67,0,1,0-1.339,0V4.009h-.67A2.009,2.009,0,0,0,2,6.018v.67H15.394v-.67A2.009,2.009,0,0,0,13.385,4.009Z" transform="translate(-2 -2)"/><path class="a" d="M2,16.358a2.009,2.009,0,0,0,2.009,2.009h9.376a2.009,2.009,0,0,0,2.009-2.009V11H2Z" transform="translate(-2 -4.973)"/></g><rect class="b" width="16" height="16" transform="translate(389 928)"/></g></svg>
