<svg width="35" height="35" viewBox="0 0 35 35" fill="none" xmlns="http://www.w3.org/2000/svg">
<path d="M22.0415 0.71289C28.6878 0.71289 34.0757 6.10098 34.0757 12.7473C34.0757 16.0135 34.0757 19.1079 34.0757 22.3742C34.0757 29.0204 28.6878 34.4085 22.0415 34.4085L0.380045 34.4085L0.380047 0.712889L22.0415 0.71289Z" fill="#E7633F"/>
<path d="M25.5129 12.6982H22.2522C22.3517 12.6166 22.4482 12.5307 22.5418 12.4406C23.0249 11.9497 23.2943 11.2887 23.2917 10.601C23.2891 9.91332 23.0147 9.25442 22.528 8.76716C22.0413 8.27989 21.3816 8.00359 20.6919 7.99818C20.0022 7.99277 19.3381 8.25868 18.8438 8.73825C18.3898 9.25567 18.0079 9.83178 17.7085 10.451C17.5085 10.8433 17.3473 11.254 17.2271 11.6774C17.1066 11.2543 16.9454 10.8439 16.7457 10.4518C16.4461 9.8313 16.0636 9.25411 15.6088 8.73586C15.3667 8.48473 15.0767 8.28437 14.7559 8.14661C14.435 8.00885 14.0897 7.93647 13.7404 7.93368C13.3911 7.93088 13.0447 7.99774 12.7217 8.13035C12.3987 8.26296 12.1056 8.45866 11.8595 8.70588C11.6134 8.9531 11.4194 9.24685 11.2888 9.56992C11.1583 9.89299 11.0938 10.2388 11.0993 10.5871C11.1047 10.9353 11.18 11.279 11.3205 11.5979C11.4611 11.9167 11.6643 12.2043 11.918 12.4438C12.01 12.5323 12.106 12.6171 12.206 12.6982H8.94367C8.58723 12.6988 8.24564 12.8404 7.99383 13.092C7.74201 13.3435 7.60059 13.6844 7.60059 14.0397V17.5253C7.60059 17.724 7.67958 17.9146 7.82037 18.0553C7.96116 18.196 8.15219 18.2752 8.35151 18.2756H8.78403V25.8467C8.78403 26.2021 8.92545 26.5429 9.17727 26.7945C9.42908 27.046 9.77067 27.1876 10.1271 27.1882H24.3287C24.6851 27.1876 25.0267 27.046 25.2786 26.7945C25.5304 26.5429 25.6718 26.2021 25.6718 25.8467V18.2756H26.1042C26.3035 18.2752 26.4946 18.196 26.6354 18.0553C26.7761 17.9146 26.8552 17.724 26.8552 17.5253V14.0397C26.8552 13.6845 26.7139 13.3437 26.4623 13.0922C26.2106 12.8407 25.8692 12.699 25.5129 12.6982ZM24.1698 18.2756V25.6883H17.9781V18.2756H24.1698ZM18.9016 11.459C19.1373 10.8507 19.4779 10.2881 19.9078 9.79663C20.0121 9.69367 20.1356 9.6122 20.2715 9.55689C20.4074 9.50157 20.553 9.47348 20.6997 9.47422C20.8465 9.47496 20.9916 9.50454 21.127 9.56123C21.2623 9.61792 21.3851 9.70063 21.4884 9.80463C21.5916 9.90864 21.6733 10.0319 21.7288 10.1674C21.7843 10.3029 21.8124 10.4479 21.8117 10.5943C21.8109 10.7406 21.7813 10.8854 21.7244 11.0203C21.6676 11.1552 21.5847 11.2776 21.4803 11.3806C20.6878 12.0726 19.7171 12.5301 18.6777 12.7013C18.648 12.7044 18.6181 12.7016 18.5895 12.6933C18.5963 12.2633 18.7032 11.8408 18.9016 11.459ZM25.3533 14.1989V16.7757H17.9781V14.1989H25.3533ZM16.4761 18.2788V25.6915H10.2827V18.2788H16.4761ZM15.7749 12.7022C14.7361 12.5309 13.7659 12.0737 12.9738 11.3822C12.7674 11.1701 12.652 10.8861 12.652 10.5906C12.652 10.2951 12.7674 10.0111 12.9738 9.79902C13.0758 9.69635 13.1971 9.61472 13.3307 9.55879C13.4643 9.50286 13.6077 9.47372 13.7527 9.47305C13.8976 9.47238 14.0412 9.50019 14.1754 9.55488C14.3095 9.60958 14.4315 9.69012 14.5344 9.79184L14.5417 9.79902C14.9718 10.2901 15.3122 10.8524 15.5478 11.4606C15.7462 11.8421 15.8531 12.2644 15.8599 12.6942C15.8321 12.7009 15.8033 12.7026 15.7749 12.699V12.7022ZM16.4761 14.2021V16.7788H9.10097V14.1989L16.4761 14.2021Z" fill="white"/>
</svg>
