<svg width="24" height="24" viewBox="0 0 24 24" fill="none" xmlns="http://www.w3.org/2000/svg">
<path fill-rule="evenodd" clip-rule="evenodd" d="M19.3004 10.5326L9.70049 17.7162C9.20049 18.1267 8.5005 18.0241 8.10051 17.4083L4.30054 12.0719C3.90055 11.5588 4.00055 10.8404 4.60054 10.4299L14.2004 3.2463C14.7004 2.8358 15.4004 2.93843 15.8004 3.55417L19.6004 8.89059C19.9004 9.50633 19.8004 10.2247 19.3004 10.5326Z" fill="white" stroke="#090A21" stroke-width="1.5" stroke-miterlimit="10" stroke-linecap="round" stroke-linejoin="round"/>
<path d="M12.0008 11.8676C12.1008 11.8676 12.2008 11.9702 12.4008 11.8676C12.5008 11.8676 12.7008 11.765 12.8008 11.6624C12.9008 11.5597 13.0008 11.4571 13.1008 11.3545C13.2008 11.2519 13.2008 11.1492 13.2008 10.944C13.2008 10.8414 13.2008 10.7387 13.1008 10.6361C13.0008 10.5335 12.9008 10.4309 12.8008 10.4309C12.7008 10.4309 12.6008 10.4309 12.5008 10.4309C12.4008 10.4309 12.2008 10.5335 12.1008 10.5335C11.9008 10.6361 11.8008 10.6361 11.6008 10.6361C11.5008 10.6361 11.4008 10.6361 11.2008 10.6361C11.1008 10.6361 11.0008 10.5335 10.9008 10.3282C10.8008 10.2256 10.8008 10.123 10.8008 9.91775C10.8008 9.81513 10.8008 9.60988 10.9008 9.50726C11.0008 9.40463 11.1008 9.30201 11.2008 9.19939C11.3008 9.09676 11.5008 8.99414 11.6008 8.99414C11.7008 8.99414 11.9008 8.99414 12.0008 8.99414" fill="white"/>
<path d="M12.0008 11.8676C12.1008 11.8676 12.2008 11.9702 12.4008 11.8676C12.5008 11.8676 12.7008 11.765 12.8008 11.6624C12.9008 11.5597 13.0008 11.4571 13.1008 11.3545C13.2008 11.2519 13.2008 11.1492 13.2008 10.944C13.2008 10.8414 13.2008 10.7387 13.1008 10.6361C13.0008 10.5335 12.9008 10.4309 12.8008 10.4309C12.7008 10.4309 12.6008 10.4309 12.5008 10.4309C12.4008 10.4309 12.2008 10.5335 12.1008 10.5335C11.9008 10.6361 11.8008 10.6361 11.6008 10.6361C11.5008 10.6361 11.4008 10.6361 11.2008 10.6361C11.1008 10.6361 11.0008 10.5335 10.9008 10.3282C10.8008 10.2256 10.8008 10.123 10.8008 9.91775C10.8008 9.81513 10.8008 9.60988 10.9008 9.50726C11.0008 9.40463 11.1008 9.30201 11.2008 9.19939C11.3008 9.09676 11.5008 8.99414 11.6008 8.99414C11.7008 8.99414 11.9008 8.99414 12.0008 8.99414" stroke="#090A21" stroke-width="1.5" stroke-miterlimit="10" stroke-linecap="round" stroke-linejoin="round"/>
<path d="M13.1008 12.2787L12.8008 11.7656" stroke="#090A21" stroke-width="1.5" stroke-miterlimit="10" stroke-linecap="round" stroke-linejoin="round"/>
<path d="M11.1012 9.30218L10.7012 8.78906" stroke="#090A21" stroke-width="1.5" stroke-miterlimit="10" stroke-linecap="round" stroke-linejoin="round"/>
<path fill-rule="evenodd" clip-rule="evenodd" d="M7.40077 12.3799L6.80078 11.6616L7.60077 11.1484" fill="white"/>
<path d="M7.40077 12.3799L6.80078 11.6616L7.60077 11.1484" stroke="#090A21" stroke-width="1.5" stroke-miterlimit="10" stroke-linecap="round" stroke-linejoin="round"/>
<path fill-rule="evenodd" clip-rule="evenodd" d="M15.1004 6.73505L14.6004 5.91406L13.9004 6.5298" fill="white"/>
<path d="M15.1004 6.73505L14.6004 5.91406L13.9004 6.5298" stroke="#090A21" stroke-width="1.5" stroke-miterlimit="10" stroke-linecap="round" stroke-linejoin="round"/>
<path fill-rule="evenodd" clip-rule="evenodd" d="M8.70117 14.3301L9.20117 15.0484L10.0012 14.5353" fill="white"/>
<path d="M8.70117 14.3301L9.20117 15.0484L10.0012 14.5353" stroke="#090A21" stroke-width="1.5" stroke-miterlimit="10" stroke-linecap="round" stroke-linejoin="round"/>
<path fill-rule="evenodd" clip-rule="evenodd" d="M16.4012 8.58203L17.0012 9.3004L16.2012 9.91614" fill="white"/>
<path d="M16.4012 8.58203L17.0012 9.3004L16.2012 9.91614" stroke="#090A21" stroke-width="1.5" stroke-miterlimit="10" stroke-linecap="round" stroke-linejoin="round"/>
<path fill-rule="evenodd" clip-rule="evenodd" d="M19.1998 21.0005H3.59999C3.3 21.0005 3 20.6927 3 20.3848V9.09621C3 8.78834 3.3 8.48047 3.59999 8.48047H19.1998C19.4998 8.48047 19.7998 8.78834 19.7998 9.09621V20.4874C19.7998 20.7953 19.5998 21.0005 19.1998 21.0005Z" fill="#FFCF48" stroke="#090A21" stroke-width="1.5" stroke-miterlimit="10" stroke-linecap="round" stroke-linejoin="round"/>
<path fill-rule="evenodd" clip-rule="evenodd" d="M17.3002 16.8951H21.0001V12.6875H17.4002C16.3002 12.6875 15.4002 13.6111 15.4002 14.74C15.3002 15.8688 16.2002 16.8951 17.3002 16.8951Z" fill="white" stroke="#090A21" stroke-width="1.5" stroke-miterlimit="10" stroke-linecap="round" stroke-linejoin="round"/>
</svg>
