<svg width="64" height="63" viewBox="0 0 64 63" fill="none" xmlns="http://www.w3.org/2000/svg">
<path d="M14.2007 47.6366L9.08849 45.0816C8.78473 44.9322 8.43433 44.9086 8.11329 45.0159C7.79224 45.1232 7.52643 45.3527 7.37349 45.6547L4.81849 50.7669C4.67879 51.0688 4.66216 51.4133 4.77213 51.7273C4.8821 52.0412 5.11003 52.3001 5.40759 52.4488C5.70515 52.5976 6.04896 52.6247 6.36613 52.5243C6.6833 52.4239 6.94889 52.2039 7.10662 51.911L9.09068 47.9428L13.0588 49.9269C13.3622 50.0783 13.7134 50.103 14.035 49.9955C14.3566 49.888 14.6224 49.6572 14.7738 49.3538C14.9252 49.0504 14.9499 48.6992 14.8424 48.3776C14.7349 48.056 14.5041 47.7902 14.2007 47.6388V47.6366Z" fill="#1A1A1A"/>
<path d="M21.2969 57.727C14.7344 57.7074 10.5366 51.8405 9.7819 46.0611C9.73194 45.7284 9.55446 45.4282 9.28703 45.224C9.01959 45.0199 8.68321 44.9278 8.34909 44.9673C8.01463 45.0136 7.712 45.1901 7.50713 45.4585C7.30226 45.7269 7.21176 46.0653 7.25534 46.4002C8.1544 53.282 13.2688 60.2645 21.2969 60.2908C21.6357 60.2908 21.9607 60.1562 22.2002 59.9166C22.4398 59.677 22.5744 59.3521 22.5744 59.0133C22.5744 58.6744 22.4398 58.3495 22.2002 58.11C21.9607 57.8704 21.6357 57.7358 21.2969 57.7358V57.727Z" fill="#1A1A1A"/>
<path d="M60.2013 11.8513C59.8975 11.702 59.5472 11.6784 59.2261 11.7857C58.9051 11.893 58.6393 12.1225 58.4863 12.4245L56.5023 16.3926L52.5341 14.4085C52.2307 14.2571 51.8795 14.2324 51.5579 14.3399C51.2363 14.4474 50.9705 14.6782 50.8191 14.9816C50.6677 15.2851 50.643 15.6362 50.7505 15.9579C50.858 16.2795 51.0889 16.5452 51.3923 16.6967L56.5044 19.2517C56.6824 19.3405 56.8787 19.3869 57.0776 19.3873C57.3154 19.3875 57.5484 19.3209 57.7503 19.1953C57.9521 19.0696 58.1147 18.8898 58.2194 18.6763L60.7744 13.5642C60.9249 13.2609 60.9491 12.9104 60.8416 12.5894C60.7342 12.2684 60.504 12.003 60.2013 11.8513V11.8513Z" fill="#BABABA"/>
<path d="M58.3444 17.9432C57.4454 11.0614 52.331 4.07886 44.3029 4.05261C43.964 4.05261 43.6391 4.1872 43.3996 4.42678C43.16 4.66636 43.0254 4.9913 43.0254 5.33011C43.0254 5.66893 43.16 5.99386 43.3996 6.23344C43.6391 6.47302 43.964 6.60761 44.3029 6.60761C50.8654 6.6273 55.0632 12.4942 55.8179 18.2736C55.8582 18.5805 56.0086 18.8625 56.2412 19.0669C56.4737 19.2713 56.7726 19.3843 57.0823 19.3848C57.1376 19.3888 57.1931 19.3888 57.2485 19.3848C57.4151 19.3622 57.5757 19.307 57.721 19.2223C57.8663 19.1376 57.9935 19.0251 58.0953 18.8912C58.1971 18.7573 58.2714 18.6047 58.3142 18.442C58.3569 18.2794 58.3672 18.1099 58.3444 17.9432V17.9432Z" fill="#BABABA"/>
<path d="M35.354 36.0035C35.354 37.8213 37.5896 39.3897 40.4662 39.755V32.2454C37.5896 32.6172 35.354 34.1856 35.354 36.0035Z" fill="#1A1A1A"/>
<path d="M43.021 42.4739V49.9771C45.8976 49.6117 48.1332 48.0389 48.1332 46.2255C48.1332 44.4121 45.8954 42.8304 43.021 42.4739Z" fill="#1A1A1A"/>
<path d="M41.746 19.3916C37.4494 19.3916 33.2493 20.6657 29.6768 23.0528C26.1043 25.4398 23.3199 28.8327 21.6756 32.8022C20.0314 36.7718 19.6012 41.1398 20.4394 45.3538C21.2776 49.5679 23.3466 53.4387 26.3848 56.4769C29.423 59.5151 33.2938 61.5841 37.5079 62.4223C41.7219 63.2605 46.0899 62.8303 50.0595 61.1861C54.029 59.5418 57.4219 56.7574 59.8089 53.1849C62.196 49.6124 63.4701 45.4123 63.4701 41.1157C63.4637 35.356 61.1729 29.8341 57.1003 25.7615C53.0276 21.6888 47.5057 19.398 41.746 19.3916V19.3916Z" fill="#1A1A1A"/>
<path d="M40.6282 39.6628H42.5751C43.945 39.599 45.2846 40.0795 46.3017 40.9995C47.3188 41.9195 47.9309 43.2043 48.0045 44.5737C47.9557 45.7824 47.4776 46.9342 46.6561 47.8222C45.8347 48.7103 44.7235 49.2764 43.5223 49.419V51.2412C43.4766 51.719 43.2545 52.1626 42.8994 52.4854C42.5443 52.8082 42.0816 52.9871 41.6016 52.9871C41.1217 52.9871 40.659 52.8082 40.3039 52.4854C39.9487 52.1626 39.7267 51.719 39.681 51.2412V49.5065H37.1216C36.8756 49.5368 36.626 49.5145 36.3892 49.4411C36.1525 49.3677 35.9341 49.2448 35.7484 49.0805C35.5627 48.9163 35.414 48.7146 35.3122 48.4886C35.2104 48.2626 35.1577 48.0175 35.1577 47.7697C35.1577 47.5218 35.2104 47.2767 35.3122 47.0507C35.414 46.8248 35.5627 46.623 35.7484 46.4588C35.9341 46.2946 36.1525 46.1717 36.3892 46.0982C36.626 46.0248 36.8756 46.0025 37.1216 46.0328H42.5751C42.7776 46.0536 42.9823 46.0318 43.1758 45.9685C43.3693 45.9053 43.5475 45.8022 43.6986 45.6658C43.8498 45.5294 43.9706 45.3628 44.0534 45.1767C44.1361 44.9907 44.1788 44.7894 44.1788 44.5857C44.1788 44.3821 44.1361 44.1808 44.0534 43.9948C43.9706 43.8087 43.8498 43.6421 43.6986 43.5057C43.5475 43.3693 43.3693 43.2662 43.1758 43.203C42.9823 43.1397 42.7776 43.1179 42.5751 43.1387H40.6282C39.2583 43.2025 37.9187 42.722 36.9016 41.802C35.8845 40.882 35.2724 39.5972 35.1988 38.2278C35.2476 37.019 35.7257 35.8673 36.5472 34.9793C37.3686 34.0912 38.4797 33.5251 39.681 33.3825V31.5581C39.7267 31.0803 39.9487 30.6368 40.3039 30.3139C40.659 29.9911 41.1217 29.8123 41.6016 29.8123C42.0816 29.8123 42.5443 29.9911 42.8994 30.3139C43.2545 30.6368 43.4766 31.0803 43.5223 31.5581V33.295H46.0838C46.3298 33.2647 46.5795 33.287 46.8162 33.3604C47.053 33.4338 47.2714 33.5567 47.4571 33.7209C47.6428 33.8852 47.7914 34.0869 47.8933 34.3129C47.9951 34.5389 48.0478 34.784 48.0478 35.0318C48.0478 35.2797 47.9951 35.5248 47.8933 35.7507C47.7914 35.9767 47.6428 36.1785 47.4571 36.3427C47.2714 36.5069 47.053 36.6298 46.8162 36.7033C46.5795 36.7767 46.3298 36.799 46.0838 36.7687H40.6282C40.4257 36.7479 40.221 36.7697 40.0275 36.833C39.8339 36.8962 39.6558 36.9993 39.5047 37.1357C39.3535 37.2721 39.2326 37.4387 39.1499 37.6248C39.0672 37.8108 39.0245 38.0121 39.0245 38.2157C39.0245 38.4194 39.0672 38.6207 39.1499 38.8067C39.2326 38.9928 39.3535 39.1594 39.5047 39.2958C39.6558 39.4322 39.8339 39.5353 40.0275 39.5985C40.221 39.6618 40.4257 39.6836 40.6282 39.6628Z" fill="white"/>
<path d="M18.2452 39.2231C14.6247 38.8027 11.1942 37.3767 8.34263 35.1066C5.49102 32.8366 3.33225 29.8131 2.11093 26.379C0.889615 22.9448 0.654586 19.2373 1.43248 15.6764C2.21037 12.1155 3.97007 8.84367 6.5122 6.23165C9.05433 3.61964 12.2772 1.77187 15.8157 0.897726C19.3542 0.0235765 23.0668 0.157997 26.5328 1.28576C29.9988 2.41352 33.0796 4.48952 35.4262 7.27854C37.7728 10.0676 39.2913 13.4581 39.8096 17.0659L39.6193 17.0812C36.4401 17.3609 33.345 18.2522 30.504 19.7062L31.0443 19.1528C31.3128 18.8773 31.5003 18.5332 31.5861 18.1583C31.6719 17.7833 31.6527 17.3919 31.5306 17.0271C31.4086 16.6623 31.1884 16.3382 30.8942 16.0904C30.6 15.8425 30.2433 15.6805 29.863 15.6221L24.7027 14.8324L22.3752 9.87994C22.1852 9.54565 21.91 9.26767 21.5776 9.07429C21.2452 8.88092 20.8676 8.77904 20.483 8.77904C20.0985 8.77904 19.7208 8.88092 19.3885 9.07429C19.0561 9.26767 18.7809 9.54565 18.5908 9.87994L16.2765 14.8368L11.103 15.6221C10.7228 15.6801 10.3659 15.8417 10.0716 16.0893C9.77734 16.3369 9.55703 16.6609 9.43494 17.0256C9.31284 17.3903 9.29368 17.7817 9.37957 18.1566C9.46547 18.5314 9.65308 18.8754 9.92179 19.1506L13.7171 23.0421L12.8158 28.559C12.7531 28.9465 12.8005 29.3439 12.9527 29.7057C13.105 30.0676 13.3559 30.3793 13.6768 30.6054C13.9978 30.8314 14.3758 30.9627 14.7678 30.9842C15.1598 31.0056 15.5499 30.9165 15.8937 30.7268L20.4874 28.1893L21.0343 28.4912C19.1974 31.5893 18.2336 35.127 18.2452 38.7287C18.2452 38.8928 18.2452 39.059 18.2452 39.2231V39.2231Z" fill="#BABABA"/>
</svg>
