<svg xmlns="http://www.w3.org/2000/svg" width="30" height="30" viewBox="0 0 30 30"><defs><style>.a{fill:none;}.b,.e{fill:#282828;}.c{fill:#ffcf48;}.d{fill:#fff;opacity:0.2;}.e{stroke:#282828;stroke-width:0.1px;}</style></defs><rect class="a" width="30" height="30"/><g transform="translate(-205.896 -489.714)"><path class="b" d="M231.852,511.716h-2.861v-2.86a.566.566,0,1,0-1.133,0v2.86H225a.567.567,0,0,0,0,1.134h2.861v2.861a.566.566,0,1,0,1.133,0V512.85h2.861a.567.567,0,0,0,0-1.134Z" transform="translate(-0.034 -0.274)"/><g transform="translate(0 -15)"><path class="c" d="M400.355,540.317a1.338,1.338,0,0,1-1.334,1.335H391a1.339,1.339,0,0,1-1.336-1.335V532.3A1.339,1.339,0,0,1,391,530.964h8.016a1.337,1.337,0,0,1,1.334,1.336Z" transform="translate(-181.819 -9.297)"/><path class="d" d="M394.342,532.3h6.011a1.338,1.338,0,0,0-1.332-1.336H391a1.339,1.339,0,0,0-1.336,1.336v8.017A1.337,1.337,0,0,0,391,541.651h.669v-6.68A2.67,2.67,0,0,1,394.342,532.3Z" transform="translate(-181.819 -9.297)"/><path class="e" d="M955.638,553.525h-7.276a2.639,2.639,0,0,1-2.637-2.636v-7.278a2.639,2.639,0,0,1,2.637-2.636h7.276a2.639,2.639,0,0,1,2.637,2.636v7.278A2.639,2.639,0,0,1,955.638,553.525Zm-7.276-11.5a1.588,1.588,0,0,0-1.587,1.586v7.278a1.588,1.588,0,0,0,1.587,1.586h7.276a1.588,1.588,0,0,0,1.587-1.586v-7.278a1.588,1.588,0,0,0-1.587-1.586Z" transform="translate(-738.829 -20.261)"/></g><g transform="translate(0 -30)"><path class="c" d="M400.355,540.317a1.338,1.338,0,0,1-1.334,1.335H391a1.339,1.339,0,0,1-1.336-1.335V532.3A1.339,1.339,0,0,1,391,530.964h8.016a1.337,1.337,0,0,1,1.334,1.336Z" transform="translate(-181.819 -9.297)"/><path class="d" d="M394.342,532.3h6.011a1.338,1.338,0,0,0-1.332-1.336H391a1.339,1.339,0,0,0-1.336,1.336v8.017A1.337,1.337,0,0,0,391,541.651h.669v-6.68A2.67,2.67,0,0,1,394.342,532.3Z" transform="translate(-181.819 -9.297)"/><path class="e" d="M955.638,553.525h-7.276a2.639,2.639,0,0,1-2.637-2.636v-7.278a2.639,2.639,0,0,1,2.637-2.636h7.276a2.639,2.639,0,0,1,2.637,2.636v7.278A2.639,2.639,0,0,1,955.638,553.525Zm-7.276-11.5a1.588,1.588,0,0,0-1.587,1.586v7.278a1.588,1.588,0,0,0,1.587,1.586h7.276a1.588,1.588,0,0,0,1.587-1.586v-7.278a1.588,1.588,0,0,0-1.587-1.586Z" transform="translate(-738.829 -20.261)"/></g><g transform="translate(15 -30)"><path class="c" d="M400.355,540.317a1.338,1.338,0,0,1-1.334,1.335H391a1.339,1.339,0,0,1-1.336-1.335V532.3A1.339,1.339,0,0,1,391,530.964h8.016a1.337,1.337,0,0,1,1.334,1.336Z" transform="translate(-181.819 -9.297)"/><path class="d" d="M394.342,532.3h6.011a1.338,1.338,0,0,0-1.332-1.336H391a1.339,1.339,0,0,0-1.336,1.336v8.017A1.337,1.337,0,0,0,391,541.651h.669v-6.68A2.67,2.67,0,0,1,394.342,532.3Z" transform="translate(-181.819 -9.297)"/><path class="e" d="M955.638,553.525h-7.276a2.639,2.639,0,0,1-2.637-2.636v-7.278a2.639,2.639,0,0,1,2.637-2.636h7.276a2.639,2.639,0,0,1,2.637,2.636v7.278A2.639,2.639,0,0,1,955.638,553.525Zm-7.276-11.5a1.588,1.588,0,0,0-1.587,1.586v7.278a1.588,1.588,0,0,0,1.587,1.586h7.276a1.588,1.588,0,0,0,1.587-1.586v-7.278a1.588,1.588,0,0,0-1.587-1.586Z" transform="translate(-738.829 -20.261)"/></g></g></svg>
