<svg xmlns="http://www.w3.org/2000/svg" width="30" height="30" viewBox="0 0 30 30"><defs><style>.a{fill:none;}.b{fill:#282828;}.c{fill:#49545e;}.d,.f{fill:#fff;}.d{opacity:0.07;}.d,.f,.g{isolation:isolate;}.e{fill:#ffcf48;}.f{opacity:0.2;}.g{opacity:0.1;}</style></defs><rect class="a" width="30" height="30"/><g transform="translate(0.997 1.001)"><path class="b" d="M27.781,11.608,14.417.153a.634.634,0,0,0-.828,0L.226,11.608A.636.636,0,0,0,.64,12.727H2.549V27.364A.636.636,0,0,0,3.185,28H24.822a.636.636,0,0,0,.636-.636V12.727h1.909a.636.636,0,0,0,.414-1.119Z" transform="translate(0 0)"/><path class="c" d="M170.669,267.46V256.005h7.636V267.46Z" transform="translate(-160.484 -240.732)"/><path class="d" d="M171.942,258.551a1.273,1.273,0,0,1,1.273-1.273h5.091v-1.273h-7.636v11.455h1.273v-8.909Z" transform="translate(-160.484 -240.733)"/><path class="e" d="M61.965,34.7a.636.636,0,0,0-.636.636V49.977s-5.049-.031-5.091,0V37.886a.636.636,0,0,0-.636-.636H46.692a.636.636,0,0,0-.636.636V49.977H40.965V35.34a.636.636,0,0,0-.636-.636H39.5l11.643-9.98L62.79,34.7Z" transform="translate(-37.143 -23.249)"/><path class="f" d="M40.328,34.7a.636.636,0,0,1,.636.636V49.977H42.8V35.34a.587.587,0,0,0-.522-.636H41.6l9.545-9.98L39.5,34.7Z" transform="translate(-37.143 -23.249)"/><path class="g" d="M234.669,24.724l9.545,9.98h-.677a.587.587,0,0,0-.522.636V49.977h1.835V35.34a.636.636,0,0,1,.636-.636h.825Z" transform="translate(-220.666 -23.249)"/></g></svg>
