<svg width="24" height="24" viewBox="0 0 24 24" fill="none" xmlns="http://www.w3.org/2000/svg">
<path fill-rule="evenodd" clip-rule="evenodd" d="M16.7504 9.67269L14.7941 11.6798C14.6401 11.0606 14.3372 10.5058 13.8968 10.0541C13.4569 9.60253 12.9161 9.29177 12.3123 9.13377L14.2689 7.12664C14.9314 6.44681 16.0878 6.44681 16.7504 7.12664C17.4346 7.82859 17.4346 8.97066 16.7504 9.67268V9.67269ZM13.0876 13.1165C12.457 13.313 11.7944 13.1348 11.3441 12.6732C10.8878 12.2047 10.7278 11.5158 10.9124 10.8837C11.5444 10.6881 12.2064 10.8658 12.6561 11.327C13.1127 11.7954 13.2725 12.4845 13.0876 13.1165V13.1165ZM9.73177 16.8735C9.06947 17.5533 7.91279 17.5533 7.25021 16.8735C6.56602 16.1715 6.56602 15.0294 7.25021 14.3272L9.20655 12.32C9.36055 12.9395 9.6634 13.4944 10.1038 13.9458C10.5441 14.3976 11.0849 14.7084 11.6884 14.8662L9.73177 16.8735ZM17.9923 5.85259C16.6234 4.44839 14.3971 4.44839 13.0284 5.85259L10.1033 8.85361C9.92033 9.04118 9.75946 9.26428 9.59968 9.53703C9.33352 9.70103 9.11632 9.86633 8.93328 10.0538L6.00825 13.0548C4.63983 14.4591 4.63983 16.7438 6.00825 18.1477C6.69269 18.85 7.59137 19.2006 8.49035 19.2006C9.38933 19.2006 10.288 18.85 10.9722 18.1477L13.8972 15.1467C14.0802 14.959 14.2411 14.7361 14.4011 14.4633C14.6671 14.299 14.8843 14.134 15.0672 13.9463L17.9923 10.9455C19.3607 9.54136 19.3607 7.25656 17.9923 5.85258L17.9923 5.85259Z" fill="#282828"/>
<path fill-rule="evenodd" clip-rule="evenodd" d="M10.5634 17.718C9.42332 18.8871 7.56798 18.8871 6.42819 17.718C5.28819 16.5486 5.28819 14.6459 6.42819 13.4762L9.35194 10.4771C9.51385 10.3111 9.7078 10.1635 9.96165 10.0126C10.4833 9.70367 11.0815 9.56984 11.6862 9.62622C12.3859 9.69197 13.0087 9.98621 13.4871 10.4771C13.9359 10.9373 14.2084 11.5308 14.2943 12.1944L13.8298 12.671C13.8052 12.696 13.7748 12.7142 13.7489 12.7378C13.7877 12.0642 13.5519 11.3919 13.0738 10.9012C12.4319 10.2427 11.4575 10.0134 10.5779 10.363C10.2674 10.4853 9.99421 10.6666 9.76555 10.9012L6.84185 13.9005C5.92958 14.8359 5.92958 16.3583 6.84185 17.2938C7.28331 17.7468 7.87088 17.9966 8.49586 17.9966C9.12083 17.9966 9.70811 17.7468 10.1498 17.2938L12.4116 14.9737C12.4729 14.977 12.5344 14.9824 12.5957 14.9824C12.8383 14.9824 13.0768 14.9496 13.3112 14.8991L10.5634 17.718Z" fill="#C1C1C0"/>
<path fill-rule="evenodd" clip-rule="evenodd" d="M17.5817 10.5231L14.654 13.5262C14.4919 13.6926 14.2976 13.8404 14.0434 13.9912C13.5208 14.3014 12.9232 14.4345 12.3165 14.3777C11.6159 14.3123 10.9924 14.0177 10.5132 13.5262C10.0637 13.0653 9.79088 12.4711 9.70487 11.807L10.17 11.3297C10.1946 11.3043 10.225 11.2863 10.251 11.2628C10.2121 11.9373 10.4482 12.6101 10.9274 13.1015C11.3693 13.5551 11.9577 13.8052 12.5836 13.8052C12.8674 13.8052 13.1513 13.7496 13.4264 13.6406C13.7372 13.5181 14.0108 13.3363 14.2398 13.1015L17.1676 10.0986C18.081 9.1619 18.081 7.63738 17.1676 6.70071C16.2832 5.79352 14.7397 5.79352 13.8551 6.70071L11.5857 9.0282C11.2839 9.0136 10.9845 9.03186 10.6939 9.09366L13.4411 6.27619C14.5825 5.10552 16.4403 5.10552 17.5817 6.27619C18.7233 7.44714 18.7233 9.35223 17.5817 10.5231V10.5231Z" fill="#C1C1C0"/>
</svg>
