<svg xmlns="http://www.w3.org/2000/svg" width="16" height="16" viewBox="0 0 16 16"><defs><style>.a{fill:none;}.b{fill:#282828;}</style></defs><g transform="translate(-600 -232)"><rect class="a" width="16" height="16" transform="translate(600 232)"/><g transform="translate(600 232)"><path class="b" d="M15.049,11.592,9.616,1.6a2.25,2.25,0,0,0-3.87,0l-.009.016L.32,11.576a2.249,2.249,0,0,0,1.934,3.4H13.106A2.249,2.249,0,0,0,15.049,11.592ZM7.681,13.175a1.35,1.35,0,1,1,1.35-1.35A1.351,1.351,0,0,1,7.681,13.175Zm1.35-4.95a1.35,1.35,0,1,1-2.7,0v-2.7a1.35,1.35,0,1,1,2.7,0Zm0,0" transform="translate(-0.001 -0.5)"/></g></g></svg>
