                <svg
                  xmlns="http://www.w3.org/2000/svg"
                  width="23"
                  height="22"
                  viewBox="0 0 22 22"
                >
                  <defs>
                    <style>
                      .aa {
                        fill: none;
                      }
                      .bb {
                        fill: #282828;
                        stroke: rgba(0, 0, 0, 0);
                        stroke-miterlimit: 10;
                      }
                      .cc {
                        fill: #fff;
                      }
                    </style>
                  </defs>
                  <g transform="translate(0.5 0.5)">
                    <rect class="aa" width="21" height="22" />
                    <g transform="translate(0)">
                      <path
                        class="bb"
                        [ngClass]="platform == 1 ? 'active' : ''"
                        d="M19.877,0H2.123A2.132,2.132,0,0,0,0,2.136V15.591a2.132,2.132,0,0,0,2.123,2.137H7.568a4.862,4.862,0,0,1-.791,2.859,1.04,1.04,0,0,1-.8.345.534.534,0,0,0,0,1.069h9.554a.534.534,0,0,0,0-1.069,1.04,1.04,0,0,1-.8-.345,4.862,4.862,0,0,1-.791-2.859h5.942A2.132,2.132,0,0,0,22,15.591V2.136A2.132,2.132,0,0,0,19.877,0Z"
                      />
                      <path
                        class="cc"
                        d="M319.288,662.49h17.449a1.056,1.056,0,0,1,1.043,1.067v10.234H318.244V663.557A1.057,1.057,0,0,1,319.288,662.49Z"
                        transform="translate(-317.044 -660.944)"
                      />
                      <ellipse
                        class="cc"
                        cx="1.067"
                        cy="1.067"
                        rx="1.067"
                        ry="1.067"
                        transform="translate(9.6 14.238)"
                      />
                    </g>
                  </g>
                </svg>
