<svg xmlns="http://www.w3.org/2000/svg" width="19" height="20" viewBox="0 0 19 20"><defs><style>.a{fill:none;}.b{fill:#ffcf48;}.c{opacity:0.156;}</style></defs><g transform="translate(-376 -175)"><rect class="a" width="19" height="20" transform="translate(376 175)"/><g transform="translate(376 178.75)"><path class="b" d="M132.489,9.9l-2.182,9.648H116.685L114.5,9.9l4.5,2.5,2.1-2.025,2.4-2.309,4.5,4.334Zm0,0" transform="translate(-113.996 -7.559)"/><path class="c" d="M120.158,45.093h-3.352l-2.3-9.648,4.746,2.5.385-.346Zm-1.168,0" transform="translate(-113.996 -33.101)"/><path d="M109.133,12.61a.488.488,0,0,0,.469.39h13.661a.488.488,0,0,0,.469-.39l2.187-9.648a.522.522,0,0,0-.173-.519.463.463,0,0,0-.52-.048l-1.718.952a.521.521,0,0,0-.2.686.471.471,0,0,0,.651.213l.778-.431-1.852,8.17h-12.9l-1.852-8.17L111.7,5.791a.464.464,0,0,0,.55-.074L116.433,1.7l4.183,4.021a.464.464,0,0,0,.55.074l1.264-.7a.521.521,0,0,0,.2-.686.47.47,0,0,0-.651-.213l-.964.534L116.758.633a.465.465,0,0,0-.65,0l-4.259,4.093L107.64,2.4a.463.463,0,0,0-.521.048.522.522,0,0,0-.173.519Zm0,0" transform="translate(-106.933 -0.5)"/></g></g></svg>
