<svg xmlns="http://www.w3.org/2000/svg" width="20" height="20" viewBox="0 0 20 20"><defs><style>.a{fill:none;}.b{fill:#7563eb;}.c{fill:#fff;}</style></defs><g transform="translate(-243 -737)"><rect class="a" width="20" height="20" transform="translate(243 737)"/><rect class="b" width="18" height="18" rx="3" transform="translate(244 738)"/><g transform="translate(242.905 736.964)"><path class="c" d="M10.76,16.189A6.78,6.78,0,0,0,17.5,11.212a.618.618,0,0,0,0-.3A6.78,6.78,0,0,0,10.76,5.93a6.78,6.78,0,0,0-6.743,4.977.618.618,0,0,0,0,.3A6.78,6.78,0,0,0,10.76,16.189Zm0-7.665a2.535,2.535,0,1,1-2.535,2.535A2.543,2.543,0,0,1,10.76,8.524Z" transform="translate(-0.666 -0.994)"/></g></g></svg>
