<svg xmlns="http://www.w3.org/2000/svg" width="12" height="12" viewBox="0 0 12 12"><defs><style>.a{fill:#858585;}.b{fill:#fff;stroke:#fff;}</style></defs><g transform="translate(-14 -214)"><circle class="a" cx="6" cy="6" r="6" transform="translate(14 214)"/><path class="b" d="M8.262,13.353a.511.511,0,0,1-.357-.874l1.616-1.62.726-.716L11.87,8.517a.5.5,0,0,1,.363-.152.507.507,0,0,1,.508.51.51.51,0,0,1-.151.364l-1.616,1.62-.726.728L8.638,13.2A.509.509,0,0,1,8.262,13.353Z" transform="matrix(0.999, -0.052, 0.052, 0.999, 9.198, 209.692)"/></g></svg>
