<svg xmlns="http://www.w3.org/2000/svg" xmlns:xlink="http://www.w3.org/1999/xlink" width="16" height="16" viewBox="0 0 16 16"><defs><style>.a{fill:none;}.b{clip-path:url(#a);}.c{fill:#be2a2a;}</style><clipPath id="a"><rect class="a" width="16" height="16"/></clipPath></defs><g class="b"><rect class="a" width="16" height="16"/><g transform="translate(2)"><path class="c" d="M74.667,2h-2V1.333A1.335,1.335,0,0,0,71.333,0H68.667a1.335,1.335,0,0,0-1.333,1.333V2h-2A1.335,1.335,0,0,0,64,3.333v1a.333.333,0,0,0,.333.333h.333v10A1.335,1.335,0,0,0,66,16h8a1.335,1.335,0,0,0,1.333-1.333v-10h.333A.333.333,0,0,0,76,4.333v-1A1.335,1.335,0,0,0,74.667,2ZM72,2H68V1.333a.667.667,0,0,1,.667-.667h2.667A.667.667,0,0,1,72,1.333V2Z" transform="translate(-64)"/><g transform="translate(0.667 2.667)"><path class="c" d="M116,159.333a.667.667,0,0,1-.667.667h-8a.667.667,0,0,1-.667-.667v-10H116v10Z" transform="translate(-106 -147.333)"/><path class="c" d="M96,86.667H85.333V86A.667.667,0,0,1,86,85.334h9.333A.667.667,0,0,1,96,86v.667Z" transform="translate(-85.333 -85.334)"/></g></g></g></svg>
