<svg xmlns="http://www.w3.org/2000/svg" xmlns:xlink="http://www.w3.org/1999/xlink" width="54.018" height="54.007" viewBox="0 0 54.018 54.007"><defs><style>.a,.i{fill:none;}.b{fill:#ffcf48;}.c{fill:#dd9f17;}.d{fill:#e6e6e6;}.e{fill:#a5452f;}.f{fill:#3d2b28;}.g{fill:#e7633f;}.h{clip-path:url(#a);}.i{stroke:#15161e;stroke-linecap:round;stroke-miterlimit:10;stroke-width:2px;}</style><clipPath id="a"><path class="a" d="M46.579,21.841a24.71,24.71,0,1,0,18.128,7.9A24.659,24.659,0,0,0,46.579,21.841Z" transform="translate(-21.866 -21.841)"/></clipPath></defs><g transform="translate(1.155 1.145)"><path class="b" d="M63.964,65.271a25.865,25.865,0,1,1,1.353-36.542A25.891,25.891,0,0,1,63.964,65.271Z" transform="translate(-20.48 -20.468)"/></g><g transform="translate(1.161 24.012)"><path class="c" d="M63.965,63.759a25.872,25.872,0,0,1-43.3-15.866,25.87,25.87,0,1,0,51.376-.015A25.74,25.74,0,0,1,63.965,63.759Z" transform="translate(-20.486 -47.878)"/></g><g transform="translate(1.064 1.69)"><path class="b" d="M28.632,30.429A25.87,25.87,0,0,1,72.085,48.181,25.871,25.871,0,1,0,20.4,48.17,25.765,25.765,0,0,1,28.632,30.429Z" transform="translate(-20.371 -21.121)"/></g><path class="d" d="M46.111,73.1a27,27,0,1,1,18.381-7.215A27.126,27.126,0,0,1,46.111,73.1ZM46.1,21.386a24.711,24.711,0,1,0,18.127,7.9A24.662,24.662,0,0,0,46.1,21.386Z" transform="translate(-19.096 -19.096)"/><g transform="translate(2.313 2.29)"><path class="e" d="M46.984,55.021h-12l1.861-6.051-1.861-6.051h12Z" transform="translate(-24.032 -25.335)"/><path class="f" d="M42.172,44.4l6-1.481V46.1Z" transform="translate(-25.218 -25.335)"/><path class="g" d="M42.172,57.09H60.234l3.2-12.394H42.172Z" transform="translate(-25.218 -25.629)"/><g class="h"><line class="i" y1="32.554" x2="8.393" transform="translate(30.09 18.013)"/></g></g></svg>
