<svg xmlns="http://www.w3.org/2000/svg" width="30" height="30" viewBox="0 0 30 30"><defs><style>.a{fill:#ffcf48;}.b{fill:none;}.c{fill:#ffd071;}.d{fill:#282828;stroke:#282828;stroke-width:0.3px;}</style></defs><g transform="translate(-166.001 -287)"><path class="a" d="M-8108.171-15716.919l-6.418-9.491,5.638-10.384,2.268,3.286,10.695,14.077-11.515,2.822Z" transform="translate(8289 16026)"/><g transform="translate(142.234 -284.767)"><g transform="translate(24 572)"><rect class="b" width="30" height="30" transform="translate(-0.233 -0.233)"/><g transform="translate(1.23 0.367)"><path class="c" d="M2.476,0A2.476,2.476,0,0,1,4.952,2.476c0,1.368.944,1.269-.423,1.269S2.17,2.238,2.17.87,1.109,0,2.476,0Z" transform="translate(17.752 6.553)"/><path class="d" d="M37.95,61.716l-4.365-5.7a1.43,1.43,0,0,0-2.352.117c-2.5,4.06-5.561,10.049-5.976,10.864A36.039,36.039,0,0,0,19.7,72.087a4.7,4.7,0,0,0-.832,1.435,4.817,4.817,0,0,0-.258,2.244,4.592,4.592,0,0,0,.375,1.294A7.883,7.883,0,0,0,21.9,80.686a4.2,4.2,0,0,0,2.022.452,7.9,7.9,0,0,0,1.637-.187A50.084,50.084,0,0,0,30.234,84a2.064,2.064,0,0,0,1,.255,2.092,2.092,0,0,0,1.231-.4l.31-.226a1.21,1.21,0,0,0,.236-1.73,30.413,30.413,0,0,1-2.09-3.263.436.436,0,0,0-.768.414,31.193,31.193,0,0,0,2.175,3.392.337.337,0,0,1-.066.482l-.31.226a1.211,1.211,0,0,1-1.293.086,45.65,45.65,0,0,1-4.008-2.577,17.711,17.711,0,0,0,3.509-1.625A21.867,21.867,0,0,0,32.274,77.6,71.937,71.937,0,0,0,44.4,74.878l.01,0c.364-.111.691-.212.967-.3a1.43,1.43,0,0,0,.705-2.233l-4.51-5.893a3.253,3.253,0,0,0-3.624-4.735ZM25.605,80.048a.439.439,0,0,0-.1.022,4.744,4.744,0,0,1-3.189-.15A7.221,7.221,0,0,1,19.784,76.7a3.723,3.723,0,0,1-.305-1.047,3.954,3.954,0,0,1,.214-1.841,3.824,3.824,0,0,1,.679-1.168,34.76,34.76,0,0,1,5.041-4.675,39.075,39.075,0,0,0,6.054,9.145A16.668,16.668,0,0,1,25.6,80.049Zm19.876-6.668a.55.55,0,0,1-.364.363l-.681.212L31.611,57.006a.436.436,0,1,0-.7.526l12.63,16.692a69.241,69.241,0,0,1-11.261,2.5,38.562,38.562,0,0,1-6.206-9.419c.547-1.074,3.489-6.8,5.9-10.717a.557.557,0,0,1,.917-.044l12.5,16.33a.552.552,0,0,1,.089.507Zm-4.373-8.5a2.379,2.379,0,0,1-.135.788L38.551,62.5c.057,0,.115-.007.173-.007a2.386,2.386,0,0,1,2.384,2.384Z" transform="translate(-18.577 -55.453)"/><path class="d" d="M142.736,83.6a.436.436,0,0,0-.085.611l.3.394a.436.436,0,1,0,.7-.527l-.3-.394A.436.436,0,0,0,142.736,83.6Z" transform="translate(-129.042 -80.454)"/><path class="d" d="M50.169,226.932a.436.436,0,0,0-.6-.137l-1.055.663a.436.436,0,1,0,.464.739l1.055-.663A.436.436,0,0,0,50.169,226.932Z" transform="translate(-45.066 -208.049)"/><path class="d" d="M57.45,238.516a.436.436,0,0,0-.6-.137l-1.055.663a.436.436,0,1,0,.464.739l1.055-.663A.436.436,0,0,0,57.45,238.516Z" transform="translate(-51.553 -218.37)"/><path class="d" d="M64.129,249.963l-1.055.663a.436.436,0,1,0,.464.739l1.055-.663a.436.436,0,1,0-.464-.739Z" transform="translate(-58.039 -228.691)"/></g></g></g></g></svg>
