<svg xmlns="http://www.w3.org/2000/svg" width="18" height="18" viewBox="0 0 18 18"><defs><style>.a{fill:none;}.b{fill:#282828;}</style></defs><g transform="translate(-419 -294)"><rect class="a" width="18" height="18" transform="translate(419 294)"/><path class="b" d="M11.139,6.3a.668.668,0,0,0-.478.189.613.613,0,0,0-.2.461v4.28a.686.686,0,0,0,.051.263,1.123,1.123,0,0,0,.152.255L12.6,14.245a.766.766,0,0,0,.482.3.736.736,0,0,0,.524-.123A.559.559,0,0,0,13.867,14a.735.735,0,0,0-.165-.51l-2.622-3.44.727,2.189V6.953a.619.619,0,0,0-.195-.461A.654.654,0,0,0,11.139,6.3Zm.3,12.535a8.055,8.055,0,0,0,3.171-.63,8.432,8.432,0,0,0,2.622-1.733,8.141,8.141,0,0,0,1.776-2.547,7.752,7.752,0,0,0,0-6.181A8.19,8.19,0,0,0,17.237,5.2a8.337,8.337,0,0,0-2.622-1.733,8.351,8.351,0,0,0-6.342,0A8.409,8.409,0,0,0,5.651,5.188a8.151,8.151,0,0,0-1.78,2.543,7.454,7.454,0,0,0-.647,3.082H4.738a6.167,6.167,0,0,1,.524-2.531A6.559,6.559,0,0,1,6.7,6.212a6.919,6.919,0,0,1,7.353-1.387A6.64,6.64,0,0,1,17.626,8.3a6.41,6.41,0,0,1,0,5.078A6.81,6.81,0,0,1,9.351,17.04a6.825,6.825,0,0,1-1.822-.909A6.365,6.365,0,0,1,6.1,14.747a.928.928,0,0,0-.52-.329.715.715,0,0,0-.571.115.641.641,0,0,0-.3.481.768.768,0,0,0,.195.6A8.6,8.6,0,0,0,8.911,18.43,7.9,7.9,0,0,0,11.444,18.838ZM2.251,9.282A.68.68,0,0,0,1.8,9.41a.4.4,0,0,0-.144.329.7.7,0,0,0,.173.416L3.7,12.714a.582.582,0,0,0,.469.272.56.56,0,0,0,.461-.272l1.886-2.568a.688.688,0,0,0,.165-.407A.4.4,0,0,0,6.53,9.41a.7.7,0,0,0-.457-.128Z" transform="translate(417.345 292.162)"/></g></svg>
