<svg xmlns="http://www.w3.org/2000/svg" xmlns:xlink="http://www.w3.org/1999/xlink" width="18" height="18" viewBox="0 0 18 18"><defs><style>.a{fill:none;}.b{clip-path:url(#a);}.c{fill:#7563eb;}</style><clipPath id="a"><rect class="a" width="18" height="18"/></clipPath></defs><g class="b"><rect class="a" width="18" height="18"/><g transform="translate(1.006 1.006)"><g transform="translate(0 0)"><path class="c" d="M11.849,81.246a.374.374,0,0,0-.514,0L4.425,88.162a.364.364,0,0,0,.094.582l.567.284v.955l-1.738.5L1.594,88.726l.5-1.74h.955l.284.568a.364.364,0,0,0,.267.2.364.364,0,0,0,.315-.1l6.911-6.917a.364.364,0,0,0,0-.514L9.485,78.88a.363.363,0,0,0-.257-.107h0a.363.363,0,0,0-.257.108L1.558,86.366s0,.009-.007.013a.356.356,0,0,0-.085.143L.836,88.732.014,91.614a.364.364,0,0,0,.35.463.37.37,0,0,0,.1-.014l2.879-.823,2.207-.631c.007,0,.011-.007.018-.009a.671.671,0,0,0,.123-.072s.011-.006.015-.01L13.184,83.1a.364.364,0,0,0,0-.515Z" transform="translate(0 -76.09)"/><path class="c" d="M295.977,2.6,293.8.415a1.486,1.486,0,0,0-2.056,0L290.41,1.76a.364.364,0,0,0,0,.513l3.709,3.713a.363.363,0,0,0,.513,0l1.344-1.333a1.455,1.455,0,0,0,0-2.057Z" transform="translate(-280.416 -0.002)"/></g></g></g></svg>
