<svg xmlns="http://www.w3.org/2000/svg" xmlns:xlink="http://www.w3.org/1999/xlink" width="32" height="32" viewBox="0 0 32 32"><defs><style>.a,.e{fill:none;}.b{clip-path:url(#a);}.c{opacity:0;}.d{fill:#fff;}.e{stroke:#5d5d5d;}.f{fill:#1e1e1e;}.g{fill:#76a52e;}.h{fill:#84b92c;}</style><clipPath id="a"><rect class="a" width="32" height="32"/></clipPath></defs><g class="b"><g class="c" transform="translate(-56.028 -378.945)"><rect class="d" width="32" height="32" transform="translate(56.028 378.945)"/><rect class="e" width="31" height="31" transform="translate(56.528 379.445)"/></g><g transform="translate(-56.028 -378.945)"><path class="f" d="M86.661,394.278a14.662,14.662,0,0,0-13.966-13.966,9.563,9.563,0,0,0-1.333,0A14.662,14.662,0,0,0,57.4,394.278c-.017,0,0,1.344,0,1.333a14.662,14.662,0,0,0,13.966,13.967s1.36.027,1.333,0a14.662,14.662,0,0,0,13.967-13.966Z"/><path class="d" d="M85.327,395.611a13.329,13.329,0,0,1-12.633,12.633c.009-.034-1.288,0-1.333,0a13.328,13.328,0,0,1-12.633-12.633c.008.015.023-1.247,0-1.333a13.328,13.328,0,0,1,12.633-12.633,10.215,10.215,0,0,0,1.333,0,13.329,13.329,0,0,1,12.633,12.633Z"/><path class="g" d="M69.777,400.471a2.275,2.275,0,0,1-1.651-.7L65.1,396.746a2.34,2.34,0,1,1,3.309-3.309l1.368,1.368,5.1-5.1a2.34,2.34,0,1,1,3.309,3.309l-6.742,6.742A2.281,2.281,0,0,1,69.777,400.471Z"/><path class="f" d="M69.777,399.821a1.624,1.624,0,0,0,1.205-.522l6.749-6.749a1.69,1.69,0,1,0-2.39-2.39l-5.564,5.564L67.949,393.9a1.69,1.69,0,0,0-2.39,2.39l3.033,3.033a1.637,1.637,0,0,0,1.185.5m0,1.3a2.935,2.935,0,0,1-2.117-.895l-3.02-3.02a2.99,2.99,0,1,1,4.229-4.229l.908.908,4.644-4.644a2.99,2.99,0,0,1,4.229,4.229l-6.736,6.736A2.926,2.926,0,0,1,69.777,401.121Z"/><path class="h" d="M75.341,390.181l-5.564,5.564-1.828-1.828a1.685,1.685,0,0,0-2.383-.007l-.007.007c-.02.02-.02.04-.04.04.02.02.02.04.04.04l3.033,3.033a1.671,1.671,0,0,0,1.185.5,1.645,1.645,0,0,0,1.185-.5l6.749-6.749c.02-.02.02-.04.04-.04-.02-.02-.02-.04-.04-.04a1.644,1.644,0,0,0-2.324-.065C75.371,390.15,75.356,390.166,75.341,390.181Z"/></g></g></svg>
