<svg width="422" height="420" viewBox="0 0 422 420" fill="none" xmlns="http://www.w3.org/2000/svg">
<rect y="297.5" width="273" height="27" rx="13.5" fill="#F7F7F7"/>
<rect y="340.5" width="273" height="27" rx="13.5" fill="#F7F7F7"/>
<rect y="383.5" width="273" height="25" rx="12.5" fill="#F7F7F7"/>
<rect x="297" y="286" width="124.667" height="134" rx="16" fill="#F7F7F7"/>
<rect width="109" height="27" rx="13.5" fill="#F7F7F7"/>
<rect x="328" width="39" height="27" rx="13.5" fill="#F7F7F7"/>
<rect x="273" width="39" height="27" rx="13.5" fill="#F7F7F7"/>
<rect x="383" width="39" height="27" rx="13.5" fill="#F7F7F7"/>
<rect y="55" width="124.667" height="161" rx="16" fill="#F7F7F7"/>
<rect y="235" width="125" height="27" rx="13.5" fill="#F7F7F7"/>
<rect x="148.667" y="55" width="124.667" height="161" rx="16" fill="#F7F7F7"/>
<rect x="149" y="235" width="124" height="27" rx="13.5" fill="#F7F7F7"/>
<rect x="297.333" y="55" width="124.667" height="161" rx="16" fill="#F7F7F7"/>
<rect x="297" y="235" width="125" height="27" rx="13.5" fill="#F7F7F7"/>
</svg>
