<svg xmlns="http://www.w3.org/2000/svg" width="16" height="16" viewBox="0 0 16 16"><defs><style>.a{fill:none;}.b{fill:#858585;}</style></defs><g transform="translate(-100 -385)"><rect class="a" width="16" height="16" transform="translate(100 385)"/><g transform="translate(100 385)"><g transform="translate(0 0)"><path class="b" d="M8,0a8,8,0,1,0,8,8A8.009,8.009,0,0,0,8,0M8,14.546A6.545,6.545,0,1,1,14.545,8,6.553,6.553,0,0,1,8,14.546" transform="translate(0 -0.001)"/><path class="b" d="M19.105,12.109l-2.6-1.3V6.754a.753.753,0,1,0-1.507,0v4.522a.753.753,0,0,0,.417.674l3.015,1.508a.754.754,0,0,0,.674-1.349" transform="translate(-7.826 -3.179)"/></g></g></g></svg>
