<svg xmlns="http://www.w3.org/2000/svg" width="30" height="30" viewBox="0 0 30 30"><defs><style>.a{fill:none;}.b{fill:#282828;}.c{fill:#f6f6f6;}.d{fill:#fff;opacity:0.2;isolation:isolate;}</style></defs><rect class="a" width="30" height="30" transform="translate(0)"/><g transform="translate(-0.35 -20.583)"><path class="b" d="M86.2,41.613c-.732-1.093-1.734-2.589-1.734-6.847V32.847a8.968,8.968,0,0,0-6.4-8.578v-.377a2.559,2.559,0,1,0-5.117,0v.377a8.968,8.968,0,0,0-6.4,8.578v1.919c0,4.258-1,5.754-1.734,6.847A3.622,3.622,0,0,0,64,43.721c0,2.085,4.347,2.817,7.872,3.069a3.811,3.811,0,0,0,7.284,0c3.525-.252,7.872-.984,7.872-3.069A3.621,3.621,0,0,0,86.2,41.613Zm-9.41-17.619a8.059,8.059,0,0,0-2.559,0v-.1a1.279,1.279,0,1,1,2.559,0Z" transform="translate(-60.164)"/><path class="c" d="M221.011,448.514a2.536,2.536,0,0,1-2.232-1.328c.906.038,1.693.049,2.232.049s1.326-.011,2.232-.049A2.537,2.537,0,0,1,221.011,448.514Z" transform="translate(-205.661 -400.315)"/><path class="c" d="M95.568,105.8c-5.858,0-10.235-1.013-10.235-1.919a2.435,2.435,0,0,1,.608-1.4c.776-1.159,1.95-2.912,1.95-7.559V93.009a7.676,7.676,0,0,1,15.352,0v1.919c0,4.648,1.174,6.4,1.95,7.559a2.435,2.435,0,0,1,.608,1.4C105.8,104.789,101.426,105.8,95.568,105.8Z" transform="translate(-80.218 -60.162)"/><path class="d" d="M87.892,93.009v1.919c0,4.648-1.174,6.4-1.95,7.559a2.435,2.435,0,0,0-.608,1.4c0,.525,1.477,1.085,3.856,1.464a4.8,4.8,0,0,1,.363-1.252c.485-1.268,1.219-3.185,1.219-8.268v-2.1c0-4.63,2.152-8.4,4.8-8.4A7.684,7.684,0,0,0,87.892,93.009Z" transform="translate(-80.218 -60.162)"/><g transform="translate(0.35 30.318)"><path class="b" d="M479.644,171.568a.589.589,0,0,0-1.118.373,12.219,12.219,0,0,1,0,7.816.589.589,0,0,0,1.118.373,13.41,13.41,0,0,0,0-8.562Z" transform="translate(-450.346 -171.165)"/><path class="b" d="M438.461,184.694a.59.59,0,0,0-.373.745,9.911,9.911,0,0,1,0,6.329.59.59,0,0,0,.373.745.6.6,0,0,0,.186.03.589.589,0,0,0,.559-.4,11.095,11.095,0,0,0,0-7.072A.592.592,0,0,0,438.461,184.694Z" transform="translate(-412.14 -183.92)"/><path class="b" d="M1.178,175.868a12.332,12.332,0,0,1,.641-3.908A.589.589,0,1,0,.7,171.587a13.422,13.422,0,0,0,0,8.562.589.589,0,0,0,1.118-.373A12.326,12.326,0,0,1,1.178,175.868Z" transform="translate(0 -171.185)"/><path class="b" d="M44.363,191.763a9.913,9.913,0,0,1,0-6.329.589.589,0,1,0-1.118-.372,11.1,11.1,0,0,0,0,7.072.589.589,0,0,0,.559.4.6.6,0,0,0,.186-.03A.59.59,0,0,0,44.363,191.763Z" transform="translate(-40.312 -183.915)"/></g></g></svg>
