<svg width="78" height="30" viewBox="0 0 78 30" fill="none" xmlns="http://www.w3.org/2000/svg">
<rect x="0.220215" y="0.595703" width="77.1863" height="29.4043" rx="14.7021" fill="#E7633F"/>
<path d="M23.893 10.8983H21.0901C21.1756 10.8281 21.2586 10.7543 21.3391 10.6768C21.7543 10.2549 21.9858 9.6867 21.9836 9.09559C21.9814 8.50447 21.7455 7.93809 21.3272 7.51925C20.9088 7.1004 20.3417 6.8629 19.7489 6.85825C19.156 6.8536 18.5852 7.08217 18.1603 7.4944C17.7701 7.93916 17.4418 8.43437 17.1844 8.96665C17.0125 9.30385 16.874 9.65691 16.7706 10.0208C16.6671 9.65718 16.5285 9.30435 16.3568 8.96732C16.0992 8.43397 15.7705 7.93783 15.3795 7.49234C15.1715 7.27648 14.9222 7.10426 14.6464 6.98584C14.3706 6.86743 14.0738 6.80521 13.7735 6.80281C13.4733 6.80041 13.1755 6.85788 12.8979 6.97187C12.6202 7.08585 12.3683 7.25407 12.1568 7.46657C11.9452 7.67908 11.7784 7.93159 11.6662 8.20929C11.554 8.48699 11.4986 8.78427 11.5033 9.08363C11.508 9.38298 11.5726 9.67839 11.6935 9.95246C11.8143 10.2265 11.9889 10.4738 12.207 10.6796C12.2861 10.7557 12.3686 10.8286 12.4546 10.8983H9.65034C9.34395 10.8988 9.05033 11.0206 8.83387 11.2368C8.61741 11.453 8.49585 11.746 8.49585 12.0515V15.0476C8.49585 15.2184 8.56375 15.3822 8.68477 15.5031C8.80579 15.6241 8.97 15.6922 9.14133 15.6926H9.51311V22.2005C9.51311 22.506 9.63468 22.799 9.85113 23.0152C10.0676 23.2314 10.3612 23.3531 10.6676 23.3537H22.875C23.1814 23.3531 23.475 23.2314 23.6915 23.0152C23.9079 22.799 24.0295 22.506 24.0295 22.2005V15.6926H24.4012C24.5725 15.6922 24.7367 15.6241 24.8578 15.5031C24.9788 15.3822 25.0468 15.2184 25.0468 15.0476V12.0515C25.0468 11.7461 24.9253 11.4532 24.709 11.237C24.4927 11.0208 24.1992 10.899 23.893 10.8983ZM22.7385 15.6926V22.0643H17.4162V15.6926H22.7385ZM18.21 9.8331C18.4126 9.31021 18.7053 8.82663 19.0749 8.40416C19.1645 8.31566 19.2707 8.24563 19.3875 8.19808C19.5044 8.15054 19.6295 8.12639 19.7556 8.12703C19.8818 8.12767 20.0065 8.15309 20.1229 8.20182C20.2392 8.25055 20.3448 8.32164 20.4335 8.41104C20.5223 8.50044 20.5925 8.60638 20.6402 8.72284C20.6879 8.83931 20.7121 8.964 20.7114 9.0898C20.7108 9.21559 20.6853 9.34002 20.6364 9.45599C20.5875 9.57196 20.5163 9.6772 20.4266 9.76569C19.7454 10.3606 18.911 10.7538 18.0175 10.901C17.992 10.9036 17.9663 10.9013 17.9417 10.8941C17.9475 10.5245 18.0394 10.1613 18.21 9.8331ZM23.7557 12.1883V14.4032H17.4162V12.1883H23.7557ZM16.125 15.6953V22.0671H10.8014V15.6953H16.125ZM15.5223 10.9017C14.6294 10.7545 13.7955 10.3615 13.1146 9.76708C12.9372 9.58475 12.8379 9.34069 12.8379 9.08665C12.8379 8.8326 12.9372 8.58855 13.1146 8.40622C13.2022 8.31796 13.3065 8.2478 13.4214 8.19972C13.5362 8.15164 13.6595 8.12659 13.7841 8.12602C13.9086 8.12545 14.0321 8.14935 14.1474 8.19636C14.2627 8.24338 14.3676 8.31261 14.4561 8.40005L14.4623 8.40622C14.832 8.82833 15.1246 9.31173 15.3271 9.83448C15.4977 10.1625 15.5895 10.5254 15.5954 10.8948C15.5715 10.9007 15.5467 10.902 15.5223 10.8989V10.9017ZM16.125 12.1911V14.4059H9.78555V12.1883L16.125 12.1911Z" fill="white"/>
<path d="M32.8722 18.1875L31.5484 15.8494H30.9811V18.1875H29.7777V12.1876H32.0298C32.494 12.1876 32.8894 12.2707 33.216 12.4369C33.5426 12.5974 33.7862 12.818 33.9466 13.0988C34.1128 13.3738 34.1959 13.6833 34.1959 14.0271C34.1959 14.4225 34.0813 14.7807 33.8521 15.1016C33.6229 15.4168 33.2819 15.6345 32.8292 15.7549L34.2647 18.1875H32.8722ZM30.9811 14.9469H31.9868C32.3134 14.9469 32.557 14.8695 32.7174 14.7148C32.8779 14.5543 32.9581 14.3337 32.9581 14.0529C32.9581 13.7779 32.8779 13.5658 32.7174 13.4168C32.557 13.2621 32.3134 13.1847 31.9868 13.1847H30.9811V14.9469ZM39.7112 15.7033C39.7112 15.8752 39.6997 16.03 39.6768 16.1675H36.1955C36.2242 16.5113 36.3445 16.7807 36.5565 16.9755C36.7686 17.1703 37.0293 17.2677 37.3388 17.2677C37.7857 17.2677 38.1038 17.0758 38.2929 16.6918H39.5909C39.4533 17.1503 39.1897 17.5285 38.8001 17.8265C38.4104 18.1187 37.9319 18.2649 37.3646 18.2649C36.9061 18.2649 36.4935 18.1646 36.1268 17.964C35.7657 17.7577 35.4821 17.4683 35.2758 17.0958C35.0752 16.7233 34.9749 16.2936 34.9749 15.8065C34.9749 15.3136 35.0752 14.881 35.2758 14.5085C35.4763 14.136 35.7571 13.8495 36.1182 13.6489C36.4792 13.4483 36.8946 13.3481 37.3646 13.3481C37.8173 13.3481 38.2213 13.4455 38.5766 13.6403C38.9376 13.8352 39.2155 14.1131 39.4104 14.4741C39.6109 14.8294 39.7112 15.2391 39.7112 15.7033ZM38.4648 15.3595C38.4591 15.05 38.3473 14.8036 38.1296 14.6202C37.9118 14.4311 37.6453 14.3366 37.3302 14.3366C37.0322 14.3366 36.78 14.4283 36.5737 14.6116C36.3732 14.7893 36.25 15.0386 36.2041 15.3595H38.4648ZM47.1912 13.4254L45.7986 18.1875H44.5007L43.6325 14.8609L42.7643 18.1875H41.4578L40.0567 13.4254H41.2773L42.1196 17.0529L43.0308 13.4254H44.303L45.1969 17.0443L46.0393 13.4254H47.1912ZM47.5329 15.7893C47.5329 15.3079 47.6274 14.881 47.8165 14.5085C48.0114 14.136 48.2721 13.8495 48.5987 13.6489C48.9311 13.4483 49.3007 13.3481 49.7076 13.3481C50.0629 13.3481 50.3723 13.4197 50.6359 13.563C50.9053 13.7062 51.1202 13.8867 51.2806 14.1045V13.4254H52.4926V18.1875H51.2806V17.4912C51.1259 17.7147 50.911 17.901 50.6359 18.05C50.3666 18.1932 50.0543 18.2649 49.699 18.2649C49.2979 18.2649 48.9311 18.1617 48.5987 17.9554C48.2721 17.7491 48.0114 17.4597 47.8165 17.0872C47.6274 16.709 47.5329 16.2764 47.5329 15.7893ZM51.2806 15.8065C51.2806 15.5142 51.2233 15.2649 51.1087 15.0586C50.9941 14.8466 50.8394 14.6861 50.6445 14.5773C50.4497 14.4627 50.2405 14.4053 50.017 14.4053C49.7935 14.4053 49.5873 14.4598 49.3981 14.5687C49.209 14.6775 49.0543 14.838 48.934 15.05C48.8194 15.2563 48.7621 15.5027 48.7621 15.7893C48.7621 16.0758 48.8194 16.3279 48.934 16.5457C49.0543 16.7577 49.209 16.9211 49.3981 17.0357C49.593 17.1503 49.7993 17.2076 50.017 17.2076C50.2405 17.2076 50.4497 17.1531 50.6445 17.0443C50.8394 16.9296 50.9941 16.7692 51.1087 16.5629C51.2233 16.3509 51.2806 16.0987 51.2806 15.8065ZM54.8714 14.1647C55.0261 13.9125 55.2267 13.7148 55.4731 13.5716C55.7252 13.4283 56.0118 13.3567 56.3327 13.3567V14.6202H56.0146C55.6364 14.6202 55.3499 14.7091 55.155 14.8867C54.9659 15.0644 54.8714 15.3738 54.8714 15.8151V18.1875H53.668V13.4254H54.8714V14.1647ZM56.8338 15.7893C56.8338 15.3079 56.9283 14.881 57.1174 14.5085C57.3123 14.136 57.5759 13.8495 57.9083 13.6489C58.2406 13.4483 58.6102 13.3481 59.0171 13.3481C59.3266 13.3481 59.6217 13.4168 59.9025 13.5544C60.1833 13.6862 60.4068 13.8638 60.573 14.0873V11.8266H61.7936V18.1875H60.573V17.4826C60.424 17.7176 60.2148 17.9067 59.9455 18.05C59.6761 18.1932 59.3638 18.2649 59.0085 18.2649C58.6074 18.2649 58.2406 18.1617 57.9083 17.9554C57.5759 17.7491 57.3123 17.4597 57.1174 17.0872C56.9283 16.709 56.8338 16.2764 56.8338 15.7893ZM60.5816 15.8065C60.5816 15.5142 60.5242 15.2649 60.4096 15.0586C60.295 14.8466 60.1403 14.6861 59.9455 14.5773C59.7506 14.4627 59.5415 14.4053 59.318 14.4053C59.0945 14.4053 58.8882 14.4598 58.6991 14.5687C58.51 14.6775 58.3552 14.838 58.2349 15.05C58.1203 15.2563 58.063 15.5027 58.063 15.7893C58.063 16.0758 58.1203 16.3279 58.2349 16.5457C58.3552 16.7577 58.51 16.9211 58.6991 17.0357C58.8939 17.1503 59.1002 17.2076 59.318 17.2076C59.5415 17.2076 59.7506 17.1531 59.9455 17.0443C60.1403 16.9296 60.295 16.7692 60.4096 16.5629C60.5242 16.3509 60.5816 16.0987 60.5816 15.8065ZM64.7912 18.2649C64.4015 18.2649 64.052 18.1961 63.7425 18.0586C63.4331 17.9153 63.1867 17.7233 63.0033 17.4826C62.8256 17.242 62.7282 16.9755 62.711 16.6832H63.923C63.946 16.8666 64.0348 17.0185 64.1895 17.1388C64.35 17.2592 64.5477 17.3193 64.7826 17.3193C65.0118 17.3193 65.1895 17.2735 65.3156 17.1818C65.4474 17.0901 65.5133 16.9726 65.5133 16.8294C65.5133 16.6746 65.433 16.56 65.2726 16.4855C65.1179 16.4053 64.8686 16.3193 64.5247 16.2277C64.1694 16.1417 63.8772 16.0529 63.648 15.9612C63.4245 15.8695 63.2296 15.7291 63.0635 15.54C62.903 15.3509 62.8228 15.0959 62.8228 14.775C62.8228 14.5114 62.8973 14.2707 63.0463 14.0529C63.201 13.8352 63.4187 13.6632 63.6995 13.5372C63.9861 13.4111 64.3213 13.3481 64.7053 13.3481C65.2726 13.3481 65.7253 13.4913 66.0634 13.7779C66.4015 14.0586 66.5877 14.4397 66.6221 14.9211H65.4703C65.4531 14.732 65.3729 14.583 65.2296 14.4741C65.0921 14.3595 64.9058 14.3022 64.6709 14.3022C64.4531 14.3022 64.2841 14.3423 64.1637 14.4225C64.0491 14.5028 63.9918 14.6145 63.9918 14.7578C63.9918 14.9182 64.072 15.0414 64.2325 15.1274C64.3929 15.2076 64.6422 15.2907 64.9803 15.3767C65.3242 15.4626 65.6078 15.5515 65.8313 15.6431C66.0548 15.7348 66.2468 15.8781 66.4072 16.0729C66.5734 16.262 66.6594 16.5142 66.6651 16.8294C66.6651 17.1044 66.5877 17.3508 66.433 17.5686C66.284 17.7864 66.0663 17.9583 65.7797 18.0844C65.4989 18.2047 65.1694 18.2649 64.7912 18.2649Z" fill="white"/>
</svg>
