<svg width="44" height="45" viewBox="0 0 44 45" fill="none" xmlns="http://www.w3.org/2000/svg">
<path d="M7.23202e-05 37.1003C2.65852e-05 38.9094 0.719023 40.6452 2.0003 41.929C3.28159 43.2128 5.02118 43.9404 6.83963 43.9533C19.0439 44.0492 43.323 44.2002 43.323 43.8955C43.3233 38.2355 42.203 32.6308 40.0259 27.4016C37.8488 22.1724 34.6577 17.4211 30.6347 13.4189C26.6117 9.41677 21.8357 6.24219 16.5794 4.07648C11.323 1.91077 5.68936 0.796358 7.23202e-05 0.796875V37.1003Z" fill="#E7633F"/>
<path d="M25.8369 20.8017H22.5762C22.6757 20.7201 22.7722 20.6342 22.8658 20.5441C23.3488 20.0532 23.6183 19.3922 23.6157 18.7045C23.6131 18.0168 23.3387 17.3579 22.852 16.8707C22.3653 16.3834 21.7056 16.1071 21.0159 16.1017C20.3262 16.0963 19.6621 16.3622 19.1678 16.8418C18.7138 17.3592 18.3319 17.9353 18.0324 18.5545C17.8325 18.9468 17.6713 19.3575 17.5511 19.7809C17.4306 19.3579 17.2694 18.9474 17.0697 18.5553C16.77 17.9348 16.3876 17.3576 15.9327 16.8394C15.6907 16.5883 15.4007 16.3879 15.0799 16.2501C14.759 16.1124 14.4137 16.04 14.0644 16.0372C13.7151 16.0344 13.3687 16.1013 13.0457 16.2339C12.7227 16.3665 12.4296 16.5622 12.1835 16.8094C11.9374 17.0566 11.7433 17.3504 11.6128 17.6734C11.4822 17.9965 11.4178 18.3423 11.4233 18.6906C11.4287 19.0389 11.5039 19.3825 11.6445 19.7014C11.7851 20.0202 11.9883 20.3079 12.242 20.5473C12.334 20.6358 12.43 20.7206 12.53 20.8017H9.26765C8.91121 20.8023 8.56962 20.944 8.3178 21.1955C8.06598 21.447 7.92456 21.7879 7.92456 22.1433V25.6288C7.92456 25.8275 8.00355 26.0181 8.14434 26.1588C8.28514 26.2995 8.47616 26.3787 8.67549 26.3792H9.108V33.9502C9.108 34.3056 9.24943 34.6464 9.50124 34.898C9.75306 35.1495 10.0946 35.2911 10.4511 35.2918H24.6527C25.0091 35.2911 25.3507 35.1495 25.6025 34.898C25.8543 34.6464 25.9958 34.3056 25.9958 33.9502V26.3792H26.4282C26.6275 26.3787 26.8185 26.2995 26.9593 26.1588C27.1001 26.0181 27.1792 25.8275 27.1792 25.6288V22.1433C27.1792 21.788 27.0379 21.4472 26.7863 21.1957C26.5346 20.9442 26.1932 20.8025 25.8369 20.8017ZM24.4938 26.3792V33.7918H18.3021V26.3792H24.4938ZM19.2256 19.5625C19.4613 18.9542 19.8018 18.3916 20.2317 17.9001C20.3361 17.7972 20.4596 17.7157 20.5955 17.6604C20.7314 17.6051 20.8769 17.577 21.0237 17.5777C21.1705 17.5785 21.3156 17.6081 21.4509 17.6647C21.5863 17.7214 21.7091 17.8041 21.8123 17.9081C21.9156 18.0122 21.9973 18.1354 22.0528 18.2709C22.1083 18.4064 22.1364 18.5514 22.1357 18.6978C22.1349 18.8441 22.1052 18.9889 22.0484 19.1238C21.9915 19.2587 21.9086 19.3811 21.8043 19.4841C21.0118 20.1761 20.0411 20.6336 19.0017 20.8049C18.972 20.8079 18.9421 20.8052 18.9134 20.7969C18.9203 20.3669 19.0271 19.9443 19.2256 19.5625ZM25.6773 22.3024V24.8792H18.3021V22.3024H25.6773ZM16.8 26.3823V33.795H10.6067V26.3823H16.8ZM16.0989 20.8057C15.0601 20.6344 14.0899 20.1772 13.2978 19.4857C13.0914 19.2736 12.976 18.9897 12.976 18.6941C12.976 18.3986 13.0914 18.1146 13.2978 17.9025C13.3998 17.7999 13.5211 17.7182 13.6547 17.6623C13.7883 17.6064 13.9317 17.5772 14.0766 17.5766C14.2216 17.5759 14.3652 17.6037 14.4994 17.6584C14.6335 17.7131 14.7555 17.7936 14.8584 17.8954L14.8657 17.9025C15.2957 18.3936 15.6362 18.956 15.8717 19.5641C16.0702 19.9457 16.177 20.3679 16.1839 20.7977C16.1561 20.8045 16.1273 20.8061 16.0989 20.8025V20.8057ZM16.8 22.3057V24.8824H9.42494V22.3024L16.8 22.3057Z" fill="white"/>
</svg>
