<svg xmlns="http://www.w3.org/2000/svg" width="18" height="18" viewBox="0 0 18 18"><defs><style>.a{fill:none;}.b{fill:#282828;}</style></defs><g transform="translate(-821 -421)"><rect class="a" width="18" height="18" transform="translate(821 421)"/><g transform="translate(821 421)"><g transform="translate(0 0)"><rect class="a" width="18" height="18" transform="translate(0 0)"/><path class="b" d="M19.667,0c-4.335,0-9,.735-9,2.348,0,.359.289.615.647.945a71.147,71.147,0,0,1,5.313,6.669,2.675,2.675,0,0,1,.586,1.66v5.2c0,.807,1.272,1.174,2.455,1.174s2.455-.367,2.455-1.174v-5.2a2.66,2.66,0,0,1,.444-1.448h2.828a1.638,1.638,0,0,0,1.464-.865l.818-1.566A1.5,1.5,0,0,0,27.6,6.22a1.637,1.637,0,0,0-1.331-.735A23.4,23.4,0,0,1,28.02,3.293c.358-.33.647-.586.647-.945C28.667.735,24,0,19.667,0Zm5.726,8.609H23.785l1.247-1.565h1.18ZM19.667,3.13a23.275,23.275,0,0,1-6.688-.783,23.276,23.276,0,0,1,6.688-.783,23.275,23.275,0,0,1,6.688.783A23.275,23.275,0,0,1,19.667,3.13Z" transform="translate(-10.667 0)"/></g></g></g></svg>
