<svg xmlns="http://www.w3.org/2000/svg" width="18" height="18" viewBox="0 0 18 18"><defs><style>.a{fill:none;}.b{fill:#282828;}</style></defs><g transform="translate(-419 -294)"><rect class="a" width="18" height="18" transform="translate(419 294)"/><path class="b" d="M5.28,11.671a5.013,5.013,0,0,0,.315,1.781,5.229,5.229,0,0,0,.843,1.481A4.713,4.713,0,0,0,7.595,15.97a.825.825,0,0,0,.657.164.806.806,0,0,0,.481-.314.779.779,0,0,0,.153-.536.676.676,0,0,0-.319-.5,3.843,3.843,0,0,1-1.241-1.313,3.51,3.51,0,0,1-.472-1.795A3.55,3.55,0,0,1,7.368,9.79a3.851,3.851,0,0,1,1.37-1.345,3.723,3.723,0,0,1,1.912-.5,3.675,3.675,0,0,1,1.9.5,3.835,3.835,0,0,1,1.9,3.213.828.828,0,0,0,.255.545.754.754,0,0,0,.542.218.773.773,0,0,0,.556-.223.733.733,0,0,0,.231-.55,4.93,4.93,0,0,0-.421-2.022,5.355,5.355,0,0,0-1.167-1.677,5.479,5.479,0,0,0-1.718-1.136,5.452,5.452,0,0,0-4.144,0A5.494,5.494,0,0,0,6.868,7.945,5.34,5.34,0,0,0,5.7,9.627,5.006,5.006,0,0,0,5.28,11.671Zm-3.63,0a8.386,8.386,0,0,0,.593,3.144,8.917,8.917,0,0,0,1.63,2.645,8.614,8.614,0,0,0,2.352,1.872.914.914,0,0,0,.574.136.8.8,0,0,0,.449-.2.819.819,0,0,0,.241-.413.75.75,0,0,0-.051-.5.96.96,0,0,0-.444-.432,6.968,6.968,0,0,1-1.9-1.54,7.241,7.241,0,0,1-1.3-2.149,7.236,7.236,0,0,1,.1-5.362,7.209,7.209,0,0,1,1.569-2.3A7.346,7.346,0,0,1,7.794,5.024a7.268,7.268,0,0,1,2.847-.559,7.337,7.337,0,0,1,5.208,2.108,7.273,7.273,0,0,1,1.574,2.3,6.938,6.938,0,0,1,.569,2.8.769.769,0,0,0,.273.632.925.925,0,0,0,.6.223.783.783,0,0,0,.546-.223.818.818,0,0,0,.241-.632,8.359,8.359,0,0,0-.7-3.412A9.007,9.007,0,0,0,17,5.442a9.178,9.178,0,0,0-2.875-1.913,8.829,8.829,0,0,0-3.481-.691,8.782,8.782,0,0,0-3.463.691A9.178,9.178,0,0,0,4.3,5.442,9.007,9.007,0,0,0,2.354,8.259,8.359,8.359,0,0,0,1.65,11.671Zm8.685,6.4a.316.316,0,0,0,.106.277.4.4,0,0,0,.278.091.441.441,0,0,0,.292-.123l1.3-1.3L13.78,20.6a.387.387,0,0,0,.19.2.34.34,0,0,0,.282.014l.88-.345a.315.315,0,0,0,.181-.2A.351.351,0,0,0,15.289,20L13.743,16.47l1.852-.064a.409.409,0,0,0,.292-.1A.339.339,0,0,0,16,16.061a.362.362,0,0,0-.125-.273l-4.833-4.862a.342.342,0,0,0-.4-.1.348.348,0,0,0-.222.341Z" transform="translate(417.35 291.162)"/></g></svg>
