<svg width="70" height="70" viewBox="0 0 70 70" fill="none" xmlns="http://www.w3.org/2000/svg">
<path d="M23.2377 14.5033H44.7408L49.3827 10.7845C50.1496 10.1831 50.7076 9.3554 50.9774 8.41886C51.2472 7.48232 51.215 6.48459 50.8855 5.56736C50.5711 4.64638 49.9746 3.84784 49.1806 3.28514C48.3866 2.72243 47.4355 2.42416 46.4624 2.43267H21.5161C20.5427 2.42575 19.5918 2.72545 18.7983 3.28927C18.0048 3.8531 17.4089 4.65243 17.0952 5.57392C16.7657 6.49042 16.7332 7.48739 17.0021 8.42344C17.2711 9.35949 17.8279 10.1871 18.5936 10.7889L23.2377 14.5033Z" fill="#BABABA"/>
<path d="M45.1084 18.5281H22.8703C15.005 26.6737 10.3751 37.4048 9.84595 48.7156C9.84595 57.7259 14.6147 66.8237 25.27 66.8237H43.3781C52.4803 66.8237 58.1328 59.8849 58.1328 48.7156C57.6037 37.4048 52.9738 26.6737 45.1084 18.5281ZM32.97 40.659H35.0022C36.4356 40.6426 37.8223 41.168 38.8849 42.1301C39.9475 43.0922 40.6077 44.4202 40.7332 45.8481C40.8587 47.2761 40.4404 48.6988 39.5619 49.8316C38.6834 50.9643 37.4096 51.7236 35.9953 51.9575V54.0684C35.9781 54.5904 35.7586 55.0852 35.3833 55.4484C35.008 55.8115 34.5062 56.0145 33.9839 56.0145C33.4617 56.0145 32.9598 55.8115 32.5845 55.4484C32.2092 55.0852 31.9897 54.5904 31.9725 54.0684V52.0603H29.295C28.773 52.043 28.2782 51.8236 27.915 51.4483C27.5519 51.0729 27.3489 50.5711 27.3489 50.0489C27.3489 49.5266 27.5519 49.0248 27.915 48.6495C28.2782 48.2741 28.773 48.0547 29.295 48.0375H35.0022C35.4469 48.0375 35.8734 47.8608 36.1878 47.5464C36.5023 47.2319 36.6789 46.8054 36.6789 46.3607C36.6789 45.916 36.5023 45.4896 36.1878 45.1751C35.8734 44.8607 35.4469 44.684 35.0022 44.684H32.9634C31.5301 44.7005 30.1433 44.1751 29.0807 43.2129C28.0181 42.2508 27.358 40.9229 27.2325 39.4949C27.107 38.0669 27.5253 36.6442 28.4038 35.5115C29.2822 34.3787 30.556 33.6194 31.9703 33.3856V31.2725C31.9614 31.0027 32.0069 30.734 32.1039 30.4822C32.201 30.2304 32.3478 30.0007 32.5354 29.8067C32.7231 29.6128 32.9478 29.4585 33.1963 29.3532C33.4447 29.2479 33.7119 29.1936 33.9817 29.1936C34.2516 29.1936 34.5187 29.2479 34.7672 29.3532C35.0156 29.4585 35.2404 29.6128 35.428 29.8067C35.6157 30.0007 35.7624 30.2304 35.8595 30.4822C35.9566 30.734 36.002 31.0027 35.9931 31.2725V33.285H38.675C39.197 33.3022 39.6918 33.5216 40.055 33.897C40.4181 34.2723 40.6212 34.7741 40.6212 35.2964C40.6212 35.8186 40.4181 36.3204 40.055 36.6958C39.6918 37.0711 39.197 37.2905 38.675 37.3078H32.97C32.5253 37.3078 32.0988 37.4844 31.7844 37.7989C31.4699 38.1133 31.2933 38.5398 31.2933 38.9845C31.2933 39.4292 31.4699 39.8557 31.7844 40.1701C32.0988 40.4845 32.5253 40.6612 32.97 40.6612V40.659Z" fill="#1A1A1A"/>
</svg>
