<svg xmlns="http://www.w3.org/2000/svg" xmlns:xlink="http://www.w3.org/1999/xlink" width="134" height="134" viewBox="0 0 134 134"><defs><style>.a{fill:none;}.b{fill:#fff;}.c{fill:#030504;}.d{fill:#cfcfcf;}.e{fill:#e04a2e;}.f{fill:#1a1818;}.g{opacity:0.4;}.h{clip-path:url(#a);}.i{fill:#ffc330;}.j{fill:#dddcdc;}.k{fill:#060708;}.l{clip-path:url(#b);}</style><clipPath id="a"><rect class="a" width="26.335" height="26.335" transform="translate(73.762 345.367)"/></clipPath><clipPath id="b"><rect class="a" width="34.605" height="34.605" transform="translate(128.885 345.681)"/></clipPath></defs><g transform="translate(-54.177 -275.813)"><rect class="a" width="134" height="134" transform="translate(54.177 275.813)"/><path class="b" d="M112.555,389.684H61.3a3.957,3.957,0,0,1-3.8-4.1V303.15a3.957,3.957,0,0,1,3.8-4.1h51.251a3.957,3.957,0,0,1,3.794,4.1v82.433A3.957,3.957,0,0,1,112.555,389.684Z"/><path class="c" d="M112.555,390.684H61.3a4.96,4.96,0,0,1-4.8-5.1V303.15a4.961,4.961,0,0,1,4.8-5.1h51.251a4.96,4.96,0,0,1,4.794,5.1v82.434A4.96,4.96,0,0,1,112.555,390.684ZM61.3,300.049a2.963,2.963,0,0,0-2.8,3.1v82.434a2.963,2.963,0,0,0,2.8,3.1h51.251a2.962,2.962,0,0,0,2.794-3.1V303.15a2.963,2.963,0,0,0-2.794-3.1Z"/><circle class="d" cx="7.084" cy="7.084" r="7.084" transform="translate(64.33 306.498)"/><rect class="d" width="21.022" height="0.81" transform="translate(82.199 308.613)"/><rect class="d" width="12.84" height="1.554" transform="translate(82.199 311.205)"/><rect class="d" width="27.668" height="1.143" transform="translate(82.199 314.313)"/><rect class="d" width="27.668" height="1.143" transform="translate(82.199 314.313)"/><rect class="e" width="18.351" height="1.143" transform="translate(82.199 314.313)"/><rect class="d" width="56.837" height="4.936" transform="translate(58.51 325.784)"/><rect class="d" width="15.812" height="2.462" transform="translate(65.633 335.723)"/><path class="f" d="M70.262,382.538H69.131l-2.535-3.85v3.85H65.465v-5.662H66.6l2.535,3.881v-3.881h1.131Z"/><path class="f" d="M74.509,378.311a2,2,0,0,1,.814.79,2.4,2.4,0,0,1,.3,1.216,2.37,2.37,0,0,1-.3,1.21,2.031,2.031,0,0,1-.814.791,2.605,2.605,0,0,1-2.334,0,2.025,2.025,0,0,1-.814-.791,2.37,2.37,0,0,1-.3-1.21,2.4,2.4,0,0,1,.3-1.216,1.99,1.99,0,0,1,.814-.79,2.639,2.639,0,0,1,2.334,0ZM72.54,379.35a1.584,1.584,0,0,0,0,1.933,1.132,1.132,0,0,0,1.6,0,1.584,1.584,0,0,0,0-1.933,1.132,1.132,0,0,0-1.6,0Z"/><path class="f" d="M78.8,381.568v.97H78.2a1.642,1.642,0,0,1-1.144-.361,1.563,1.563,0,0,1-.4-1.2v-1.925h-.617V378.1h.617V377h1.131v1.1h1v.954h-1v1.941a.627.627,0,0,0,.129.45.6.6,0,0,0,.433.128Z"/><path class="f" d="M82.485,377.774v1.468h2.006v.866H82.485v1.524h2.246v.906H81.354v-5.662h3.377v.9Z"/><path class="f" d="M88.268,378.3a1.44,1.44,0,0,1,.569.714V378.1H89.96v4.443H88.837v-.93a1.458,1.458,0,0,1-.569.718,1.69,1.69,0,0,1-.962.268,1.9,1.9,0,0,1-1.011-.273,1.832,1.832,0,0,1-.7-.79,3.044,3.044,0,0,1,0-2.43,1.843,1.843,0,0,1,.7-.79,1.914,1.914,0,0,1,1.011-.272A1.712,1.712,0,0,1,88.268,378.3Zm-1.46,1.067a1.335,1.335,0,0,0-.321.947,1.32,1.32,0,0,0,.321.942,1.216,1.216,0,0,0,1.7-.008,1.492,1.492,0,0,0,0-1.877,1.119,1.119,0,0,0-.846-.349A1.108,1.108,0,0,0,86.808,379.37Z"/><path class="f" d="M92.776,378.275a1.748,1.748,0,0,1,.914-.245v1.212h-.328q-1.244,0-1.244,1.155v2.141H90.987V378.1h1.131v.85A1.862,1.862,0,0,1,92.776,378.275Z"/><path class="f" d="M98.19,378.536a2.041,2.041,0,0,1,.457,1.42v2.582H97.524v-2.454a1.159,1.159,0,0,0-.273-.822.968.968,0,0,0-.745-.293,1,1,0,0,0-.77.313,1.274,1.274,0,0,0-.289.9v2.358H94.316V378.1h1.131v.89a1.417,1.417,0,0,1,.581-.7,1.734,1.734,0,0,1,.935-.253A1.574,1.574,0,0,1,98.19,378.536Z"/><path class="f" d="M103.78,380.533h-3.256a1.223,1.223,0,0,0,.321.874,1.03,1.03,0,0,0,.738.281,1.071,1.071,0,0,0,.653-.192.855.855,0,0,0,.333-.522h1.2a1.926,1.926,0,0,1-.377.834,1.971,1.971,0,0,1-.743.578,2.546,2.546,0,0,1-2.161-.068,1.944,1.944,0,0,1-.786-.791,2.481,2.481,0,0,1-.281-1.21A2.513,2.513,0,0,1,99.7,379.1a1.912,1.912,0,0,1,.786-.79,2.4,2.4,0,0,1,1.155-.272,2.351,2.351,0,0,1,1.151.272,1.929,1.929,0,0,1,.762.75,2.182,2.182,0,0,1,.269,1.087A2.124,2.124,0,0,1,103.78,380.533ZM102.4,379.21a1.088,1.088,0,0,0-.758-.281,1.112,1.112,0,0,0-.77.281,1.145,1.145,0,0,0-.345.826h2.158A1,1,0,0,0,102.4,379.21Z"/><path class="f" d="M107.322,378.3a1.5,1.5,0,0,1,.573.714V376.6h1.123v5.935h-1.123v-.93a1.524,1.524,0,0,1-.573.718,1.673,1.673,0,0,1-.959.268,1.9,1.9,0,0,1-1.011-.273,1.83,1.83,0,0,1-.7-.79,3.044,3.044,0,0,1,0-2.43,1.841,1.841,0,0,1,.7-.79,1.919,1.919,0,0,1,1.011-.272A1.7,1.7,0,0,1,107.322,378.3Zm-1.456,1.067a1.335,1.335,0,0,0-.321.947,1.32,1.32,0,0,0,.321.942,1.215,1.215,0,0,0,1.7-.008,1.489,1.489,0,0,0,0-1.877,1.118,1.118,0,0,0-.846-.349A1.1,1.1,0,0,0,105.866,379.37Z"/><g class="g"><g class="h"><rect class="a" width="26.335" height="26.335" transform="translate(73.762 345.367)"/><path class="i" d="M88.771,353.4l-.8-2.028-1.716,1.357-2.159-.322.317,2.164-1.358,1.707,2.033.807.8,2.028,1.715-1.356,2.161.32-.317-2.164,1.358-1.707Z"/><path class="j" d="M90.4,353.237l-.867,2.005.867,2.008-2.167.247-1.305,1.755-1.3-1.752-2.172-.253.866-2.005-.867-2.008,2.167-.247,1.306-1.754,1.3,1.751,2.173.253Zm5.855,2.005a9.323,9.323,0,1,0-4.45,7.952A9.324,9.324,0,0,0,96.256,355.242Z"/><path class="e" d="M86.929,364.569a9.279,9.279,0,0,1-4.885-1.38v7.964l4.885-3.978,4.885,3.978-.008-7.959A9.288,9.288,0,0,1,86.929,364.569Z"/><path class="k" d="M96.8,355.242A9.876,9.876,0,1,0,81.5,363.483v7.67a.55.55,0,0,0,.9.425l4.536-3.7,4.539,3.7a.548.548,0,0,0,.895-.426l-.008-7.663A9.873,9.873,0,0,0,96.8,355.242ZM91.264,370l-3.989-3.248a.55.55,0,0,0-.693,0L82.592,370v-5.885a9.863,9.863,0,0,0,8.666,0Zm-4.335-5.977a8.777,8.777,0,1,1,8.778-8.778h0A8.789,8.789,0,0,1,86.929,364.02Z"/><path class="k" d="M87.478,348.11a.549.549,0,0,0-.549-.549,7.69,7.69,0,0,0-7.682,7.681c0,.116,0,.235.009.352a.549.549,0,0,0,.547.524h.025a.549.549,0,0,0,.523-.574v0c-.006-.1-.006-.2-.006-.3a6.591,6.591,0,0,1,6.584-6.583A.549.549,0,0,0,87.478,348.11Z"/><path class="k" d="M94.6,354.89a.549.549,0,0,0-1.1.019v.032c.005.1.007.2.007.3a6.591,6.591,0,0,1-6.584,6.584.549.549,0,0,0,0,1.1h0a7.691,7.691,0,0,0,7.682-7.682C94.61,355.124,94.607,355.006,94.6,354.89Z"/><path class="k" d="M90.152,358.465h0a.547.547,0,0,0,.155-.467l-.282-1.929,1.21-1.525a.548.548,0,0,0-.089-.771.5.5,0,0,0-.138-.08l-1.814-.716-.715-1.808a.549.549,0,0,0-.852-.233L86.1,352.145l-1.925-.286a.548.548,0,0,0-.467.16h0a.549.549,0,0,0-.155.468l.283,1.928-1.211,1.526a.548.548,0,0,0,.089.771.559.559,0,0,0,.138.08l1.814.716.715,1.807a.549.549,0,0,0,.713.308.559.559,0,0,0,.138-.08l1.529-1.209,1.925.286A.545.545,0,0,0,90.152,358.465Zm-2.884-1.138-1.134.9-.529-1.343a.549.549,0,0,0-.308-.308l-1.347-.533.9-1.13a.549.549,0,0,0,.113-.42l-.216-1.436,1.427.211a.545.545,0,0,0,.421-.112l1.134-.9.529,1.343a.549.549,0,0,0,.308.308l1.348.533-.9,1.13a.552.552,0,0,0-.112.42l.213,1.438-1.427-.211A.548.548,0,0,0,87.268,357.327Z"/><path class="k" d="M80.564,356.925a.549.549,0,0,0-1.056.3l0,.016a.549.549,0,0,0,1.056-.3Z"/><path class="k" d="M93.821,353.958a.548.548,0,0,0,.549-.55.538.538,0,0,0-.016-.133l-.007-.026a.549.549,0,1,0-.526.709Z"/></g></g><path class="b" d="M179.86,403.915H112.515a5.2,5.2,0,0,1-4.987-5.388V290.207a5.2,5.2,0,0,1,4.987-5.389H179.86a5.2,5.2,0,0,1,4.986,5.389v108.32A5.2,5.2,0,0,1,179.86,403.915Z"/><path class="c" d="M179.86,404.915H112.515a6.2,6.2,0,0,1-5.987-6.388V290.207a6.2,6.2,0,0,1,5.987-6.389H179.86a6.2,6.2,0,0,1,5.986,6.389v108.32A6.2,6.2,0,0,1,179.86,404.915Zm-67.345-119.1a4.207,4.207,0,0,0-3.987,4.389v108.32a4.207,4.207,0,0,0,3.987,4.388H179.86a4.207,4.207,0,0,0,3.986-4.388V290.207a4.207,4.207,0,0,0-3.986-4.389Z"/><circle class="d" cx="9.309" cy="9.309" r="9.309" transform="translate(116.492 294.606)"/><rect class="d" width="27.623" height="1.065" transform="translate(139.972 297.385)"/><rect class="d" width="16.872" height="2.042" transform="translate(139.972 300.792)"/><rect class="d" width="36.356" height="1.502" transform="translate(139.972 304.875)"/><rect class="d" width="36.356" height="1.502" transform="translate(139.972 304.875)"/><rect class="e" width="24.113" height="1.502" transform="translate(139.972 304.875)"/><rect class="d" width="75.284" height="6.486" transform="translate(108.545 319.948)"/><rect class="d" width="20.778" height="3.235" transform="translate(118.203 333.009)"/><path class="f" d="M129.5,388.264v1.929h2.635v1.139H129.5v2h2.951v1.191h-4.437v-7.441h4.437v1.18Z"/><path class="f" d="M137.1,388.96a1.9,1.9,0,0,1,.748.938v-1.212h1.476v5.839h-1.476V393.3a1.922,1.922,0,0,1-.748.944,2.224,2.224,0,0,1-1.265.353,2.5,2.5,0,0,1-1.328-.359,2.417,2.417,0,0,1-.922-1.038,4,4,0,0,1,0-3.193,2.423,2.423,0,0,1,.922-1.038,2.506,2.506,0,0,1,1.328-.359A2.245,2.245,0,0,1,137.1,388.96Zm-1.918,1.4a1.751,1.751,0,0,0-.422,1.244,1.731,1.731,0,0,0,.422,1.238,1.6,1.6,0,0,0,2.229-.01,1.959,1.959,0,0,0,0-2.467,1.474,1.474,0,0,0-1.112-.458A1.453,1.453,0,0,0,135.179,390.362Z"/><path class="f" d="M143.02,388.923a2.3,2.3,0,0,1,1.2-.321v1.591h-.432q-1.633,0-1.634,1.518v2.814H140.67v-5.839h1.486V389.8A2.454,2.454,0,0,1,143.02,388.923Z"/><path class="f" d="M150.134,389.266a2.679,2.679,0,0,1,.6,1.865v3.394h-1.476V391.3a1.526,1.526,0,0,0-.358-1.081,1.276,1.276,0,0,0-.98-.384,1.311,1.311,0,0,0-1.012.411,1.679,1.679,0,0,0-.379,1.18v3.1h-1.487v-5.839h1.487v1.17a1.857,1.857,0,0,1,.764-.922,2.272,2.272,0,0,1,1.228-.332A2.065,2.065,0,0,1,150.134,389.266Z"/><path class="f" d="M157.48,391.89H153.2a1.609,1.609,0,0,0,.421,1.149,1.356,1.356,0,0,0,.97.369,1.413,1.413,0,0,0,.859-.253,1.122,1.122,0,0,0,.437-.685h1.57a2.5,2.5,0,0,1-.495,1.1,2.6,2.6,0,0,1-.975.759,3.138,3.138,0,0,1-1.323.274,3.1,3.1,0,0,1-1.517-.364,2.55,2.55,0,0,1-1.033-1.038,3.627,3.627,0,0,1,0-3.188,2.514,2.514,0,0,1,1.033-1.038,3.142,3.142,0,0,1,1.517-.359,3.075,3.075,0,0,1,1.513.359,2.523,2.523,0,0,1,1,.985,2.864,2.864,0,0,1,.353,1.428A2.738,2.738,0,0,1,157.48,391.89Zm-1.818-1.739a1.424,1.424,0,0,0-1-.369,1.458,1.458,0,0,0-1.011.369,1.506,1.506,0,0,0-.453,1.085h2.835A1.309,1.309,0,0,0,155.662,390.151Z"/><path class="f" d="M162.134,388.96a1.972,1.972,0,0,1,.753.938v-3.172h1.476v7.8h-1.476V393.3a2,2,0,0,1-.753.944,2.2,2.2,0,0,1-1.26.353,2.5,2.5,0,0,1-1.328-.359,2.417,2.417,0,0,1-.922-1.038,4,4,0,0,1,0-3.193,2.423,2.423,0,0,1,.922-1.038,2.506,2.506,0,0,1,1.328-.359A2.219,2.219,0,0,1,162.134,388.96Zm-1.913,1.4a1.751,1.751,0,0,0-.422,1.244,1.731,1.731,0,0,0,.422,1.238,1.6,1.6,0,0,0,2.229-.01,1.959,1.959,0,0,0,0-2.467,1.474,1.474,0,0,0-1.112-.458A1.453,1.453,0,0,0,160.221,390.362Z"/><g class="l"><rect class="a" width="34.605" height="34.605" transform="translate(128.885 345.681)"/><path class="i" d="M148.608,356.237l-1.055-2.665-2.254,1.783-2.837-.423.416,2.844-1.784,2.243,2.671,1.06,1.055,2.665,2.253-1.782,2.839.421-.416-2.844,1.784-2.243Z"/><path class="j" d="M150.749,356.023l-1.138,2.634,1.138,2.639-2.847.324-1.715,2.306-1.709-2.3-2.853-.333,1.137-2.635-1.139-2.638,2.848-.325,1.716-2.3,1.709,2.3,2.854.333Zm7.693,2.634a12.251,12.251,0,1,0-5.847,10.449A12.25,12.25,0,0,0,158.442,358.657Z"/><path class="e" d="M146.187,370.913a12.185,12.185,0,0,1-6.419-1.814v10.465l6.419-5.226,6.419,5.226-.011-10.458A12.2,12.2,0,0,1,146.187,370.913Z"/><path class="k" d="M159.164,358.657a12.977,12.977,0,1,0-20.114,10.83v10.077a.721.721,0,0,0,1.176.559l5.961-4.856,5.964,4.856a.72.72,0,0,0,1.176-.56l-.01-10.069A12.979,12.979,0,0,0,159.164,358.657Zm-7.28,19.389-5.242-4.268a.72.72,0,0,0-.91,0l-5.244,4.269v-7.733a12.958,12.958,0,0,0,11.387,0Zm-5.7-7.854a11.535,11.535,0,1,1,11.534-11.535h0A11.548,11.548,0,0,1,146.187,370.192Z"/><path class="k" d="M146.908,349.285a.721.721,0,0,0-.721-.721,10.1,10.1,0,0,0-10.094,10.093c0,.153,0,.309.011.463a.721.721,0,0,0,.719.688h.034a.72.72,0,0,0,.686-.754v0c-.007-.13-.007-.264-.007-.394a8.661,8.661,0,0,1,8.651-8.651A.721.721,0,0,0,146.908,349.285Z"/><path class="k" d="M156.269,358.2a.722.722,0,1,0-1.443.025l0,.042c.007.129.009.262.009.4a8.661,8.661,0,0,1-8.651,8.652.721.721,0,1,0,0,1.442h0a10.1,10.1,0,0,0,10.094-10.094C156.28,358.5,156.276,358.347,156.269,358.2Z"/><path class="k" d="M150.422,362.893h0a.719.719,0,0,0,.2-.615l-.371-2.535,1.59-2a.72.72,0,0,0-.116-1.013.729.729,0,0,0-.183-.106l-2.382-.94-.941-2.375A.719.719,0,0,0,147.1,353l-2.01,1.589-2.529-.376a.724.724,0,0,0-.615.21h0a.722.722,0,0,0-.2.615l.372,2.534-1.592,2a.723.723,0,0,0,.3,1.119l2.383.94.941,2.375a.721.721,0,0,0,1.118.3l2.009-1.589,2.53.376A.721.721,0,0,0,150.422,362.893Zm-3.79-1.5-1.49,1.184-.695-1.765a.718.718,0,0,0-.4-.4l-1.771-.7,1.179-1.485a.722.722,0,0,0,.148-.552l-.283-1.887,1.875.278a.723.723,0,0,0,.553-.148l1.491-1.184.695,1.765a.721.721,0,0,0,.4.4l1.771.7-1.179,1.485a.722.722,0,0,0-.148.552l.28,1.89-1.875-.278A.726.726,0,0,0,146.632,361.4Z"/><path class="k" d="M137.823,360.869a.721.721,0,0,0-1.388.39l.005.021a.722.722,0,0,0,1.389-.391Z"/><path class="k" d="M155.244,356.97a.721.721,0,0,0,.721-.723.688.688,0,0,0-.022-.175l-.008-.034a.722.722,0,1,0-.691.931Z"/></g><rect class="c" width="2" height="13.805" transform="translate(145.187 322.209)"/><rect class="c" width="11.372" height="2" transform="translate(154.585 339.695) rotate(-45)"/><rect class="c" width="2" height="11.372" transform="translate(128.334 333.068) rotate(-45)"/><rect class="c" width="17.919" height="0.859" transform="translate(102.928 361.88)"/><path class="c" d="M120.3,364.2l3.265-1.885-3.265-1.885Z"/><rect class="c" width="0.859" height="18.743" transform="translate(97.21 366.113) rotate(-89.603)"/><path class="c" d="M115.391,367.7l3.278-1.862-3.252-1.908Z"/></g></svg>
