<svg xmlns="http://www.w3.org/2000/svg" width="134" height="134" viewBox="0 0 134 134"><defs><style>.a{fill:none;}.b{fill:#fff;}.c{fill:#030504;}.d{fill:#cfcfcf;}.e{fill:#e04a2e;}.f{fill:#1a1818;}</style></defs><g transform="translate(-375.07 -275.813)"><rect class="a" width="134" height="134" transform="translate(375.07 275.813)"/><path class="b" d="M433.447,389.684H382.2a3.957,3.957,0,0,1-3.795-4.1V303.15a3.957,3.957,0,0,1,3.795-4.1h51.25a3.957,3.957,0,0,1,3.8,4.1v82.433A3.957,3.957,0,0,1,433.447,389.684Z"/><path class="c" d="M433.447,390.684H382.2a4.96,4.96,0,0,1-4.795-5.1V303.15a4.961,4.961,0,0,1,4.795-5.1h51.25a4.961,4.961,0,0,1,4.8,5.1v82.434A4.96,4.96,0,0,1,433.447,390.684ZM382.2,300.049a2.963,2.963,0,0,0-2.795,3.1v82.434a2.962,2.962,0,0,0,2.795,3.1h51.25a2.963,2.963,0,0,0,2.8-3.1V303.15a2.963,2.963,0,0,0-2.8-3.1Z"/><circle class="d" cx="7.084" cy="7.084" r="7.084" transform="translate(385.223 306.498)"/><rect class="d" width="21.022" height="0.81" transform="translate(403.092 308.613)"/><rect class="d" width="12.84" height="1.554" transform="translate(403.092 311.205)"/><rect class="d" width="27.668" height="1.143" transform="translate(403.092 314.313)"/><rect class="d" width="27.668" height="1.143" transform="translate(403.092 314.313)"/><rect class="e" width="18.351" height="1.143" transform="translate(403.092 314.313)"/><rect class="d" width="56.837" height="4.936" transform="translate(379.403 325.784)"/><rect class="d" width="15.812" height="2.462" transform="translate(386.526 335.723)"/><path class="f" d="M391.155,382.538h-1.131l-2.535-3.85v3.85h-1.131v-5.662h1.131l2.535,3.881v-3.881h1.131Z"/><path class="f" d="M395.4,378.311a2,2,0,0,1,.814.79,2.4,2.4,0,0,1,.3,1.216,2.37,2.37,0,0,1-.3,1.21,2.031,2.031,0,0,1-.814.791,2.605,2.605,0,0,1-2.334,0,2.031,2.031,0,0,1-.814-.791,2.37,2.37,0,0,1-.3-1.21,2.4,2.4,0,0,1,.3-1.216,2,2,0,0,1,.814-.79,2.639,2.639,0,0,1,2.334,0Zm-1.969,1.039a1.584,1.584,0,0,0,0,1.933,1.132,1.132,0,0,0,1.6,0,1.584,1.584,0,0,0,0-1.933,1.132,1.132,0,0,0-1.6,0Z"/><path class="f" d="M399.689,381.568v.97H399.1a1.64,1.64,0,0,1-1.143-.361,1.559,1.559,0,0,1-.4-1.2v-1.925h-.618V378.1h.618V377h1.13v1.1h.995v.954h-.995v1.941a.627.627,0,0,0,.129.45.6.6,0,0,0,.433.128Z"/><path class="f" d="M403.378,377.774v1.468h2.006v.866h-2.006v1.524h2.246v.906h-3.377v-5.662h3.377v.9Z"/><path class="f" d="M409.161,378.3a1.44,1.44,0,0,1,.569.714V378.1h1.123v4.443H409.73v-.93a1.458,1.458,0,0,1-.569.718,1.69,1.69,0,0,1-.962.268,1.9,1.9,0,0,1-1.011-.273,1.838,1.838,0,0,1-.7-.79,3.044,3.044,0,0,1,0-2.43,1.85,1.85,0,0,1,.7-.79,1.914,1.914,0,0,1,1.011-.272A1.712,1.712,0,0,1,409.161,378.3Zm-1.46,1.067a1.335,1.335,0,0,0-.321.947,1.32,1.32,0,0,0,.321.942,1.216,1.216,0,0,0,1.7-.008,1.492,1.492,0,0,0,0-1.877,1.119,1.119,0,0,0-.846-.349A1.108,1.108,0,0,0,407.7,379.37Z"/><path class="f" d="M413.669,378.275a1.747,1.747,0,0,1,.914-.245v1.212h-.328q-1.244,0-1.244,1.155v2.141H411.88V378.1h1.131v.85A1.862,1.862,0,0,1,413.669,378.275Z"/><path class="f" d="M419.083,378.536a2.041,2.041,0,0,1,.457,1.42v2.582h-1.123v-2.454a1.154,1.154,0,0,0-.273-.822.968.968,0,0,0-.745-.293,1,1,0,0,0-.77.313,1.274,1.274,0,0,0-.289.9v2.358h-1.131V378.1h1.131v.89a1.417,1.417,0,0,1,.581-.7,1.734,1.734,0,0,1,.935-.253A1.574,1.574,0,0,1,419.083,378.536Z"/><path class="f" d="M424.673,380.533h-3.256a1.223,1.223,0,0,0,.321.874,1.032,1.032,0,0,0,.738.281,1.071,1.071,0,0,0,.653-.192.855.855,0,0,0,.333-.522h1.2a1.915,1.915,0,0,1-.377.834,1.971,1.971,0,0,1-.743.578,2.546,2.546,0,0,1-2.161-.068,1.944,1.944,0,0,1-.786-.791,2.481,2.481,0,0,1-.281-1.21,2.513,2.513,0,0,1,.281-1.216,1.912,1.912,0,0,1,.786-.79,2.4,2.4,0,0,1,1.155-.272,2.351,2.351,0,0,1,1.151.272,1.923,1.923,0,0,1,.762.75,2.182,2.182,0,0,1,.269,1.087A2.124,2.124,0,0,1,424.673,380.533Zm-1.383-1.323a1.088,1.088,0,0,0-.758-.281,1.112,1.112,0,0,0-.77.281,1.145,1.145,0,0,0-.345.826h2.158A1,1,0,0,0,423.29,379.21Z"/><path class="f" d="M428.215,378.3a1.5,1.5,0,0,1,.573.714V376.6h1.123v5.935h-1.123v-.93a1.524,1.524,0,0,1-.573.718,1.673,1.673,0,0,1-.959.268,1.9,1.9,0,0,1-1.011-.273,1.83,1.83,0,0,1-.7-.79,3.044,3.044,0,0,1,0-2.43,1.841,1.841,0,0,1,.7-.79,1.919,1.919,0,0,1,1.011-.272A1.7,1.7,0,0,1,428.215,378.3Zm-1.456,1.067a1.335,1.335,0,0,0-.321.947,1.32,1.32,0,0,0,.321.942,1.215,1.215,0,0,0,1.7-.008,1.489,1.489,0,0,0,0-1.877,1.118,1.118,0,0,0-.846-.349A1.106,1.106,0,0,0,426.759,379.37Z"/><path class="b" d="M500.752,403.915H433.408a5.2,5.2,0,0,1-4.987-5.388V290.207a5.2,5.2,0,0,1,4.987-5.389h67.344a5.2,5.2,0,0,1,4.987,5.389v108.32A5.2,5.2,0,0,1,500.752,403.915Z"/><path class="c" d="M500.753,404.915H433.408a6.2,6.2,0,0,1-5.987-6.388V290.207a6.2,6.2,0,0,1,5.987-6.389h67.345a6.2,6.2,0,0,1,5.986,6.389v108.32A6.2,6.2,0,0,1,500.753,404.915Zm-67.345-119.1a4.207,4.207,0,0,0-3.987,4.389v108.32a4.207,4.207,0,0,0,3.987,4.388h67.345a4.207,4.207,0,0,0,3.986-4.388V290.207a4.207,4.207,0,0,0-3.986-4.389Z"/><circle class="d" cx="9.309" cy="9.309" r="9.309" transform="translate(437.384 294.606)"/><rect class="d" width="27.623" height="1.065" transform="translate(460.864 297.385)"/><rect class="d" width="16.872" height="2.042" transform="translate(460.864 300.792)"/><rect class="d" width="36.356" height="1.502" transform="translate(460.864 304.875)"/><rect class="d" width="36.356" height="1.502" transform="translate(460.864 304.875)"/><rect class="e" width="24.113" height="1.502" transform="translate(460.864 304.875)"/><rect class="d" width="75.284" height="6.486" transform="translate(429.438 319.948)"/><rect class="d" width="20.778" height="3.235" transform="translate(439.096 333.009)"/><path class="f" d="M450.391,388.264v1.929h2.634v1.139h-2.634v2h2.951v1.191H448.9v-7.441h4.438v1.18Z"/><path class="f" d="M457.99,388.96a1.9,1.9,0,0,1,.748.938v-1.212h1.475v5.839h-1.475V393.3a1.928,1.928,0,0,1-.748.944,2.227,2.227,0,0,1-1.266.353,2.5,2.5,0,0,1-1.327-.359,2.419,2.419,0,0,1-.923-1.038,4,4,0,0,1,0-3.193,2.425,2.425,0,0,1,.923-1.038,2.505,2.505,0,0,1,1.327-.359A2.248,2.248,0,0,1,457.99,388.96Zm-1.919,1.4a1.755,1.755,0,0,0-.421,1.244,1.735,1.735,0,0,0,.421,1.238,1.6,1.6,0,0,0,2.229-.01,1.956,1.956,0,0,0,0-2.467,1.471,1.471,0,0,0-1.112-.458A1.453,1.453,0,0,0,456.071,390.362Z"/><path class="f" d="M463.913,388.923a2.3,2.3,0,0,1,1.2-.321v1.591h-.432q-1.635,0-1.634,1.518v2.814h-1.487v-5.839h1.487V389.8A2.446,2.446,0,0,1,463.913,388.923Z"/><path class="f" d="M471.027,389.266a2.684,2.684,0,0,1,.6,1.865v3.394h-1.475V391.3a1.527,1.527,0,0,0-.358-1.081,1.277,1.277,0,0,0-.981-.384,1.31,1.31,0,0,0-1.011.411,1.679,1.679,0,0,0-.38,1.18v3.1h-1.486v-5.839h1.486v1.17a1.862,1.862,0,0,1,.764-.922,2.277,2.277,0,0,1,1.228-.332A2.067,2.067,0,0,1,471.027,389.266Z"/><path class="f" d="M478.373,391.89h-4.279a1.61,1.61,0,0,0,.422,1.149,1.354,1.354,0,0,0,.969.369,1.411,1.411,0,0,0,.859-.253,1.119,1.119,0,0,0,.438-.685h1.57a2.5,2.5,0,0,1-.495,1.1,2.6,2.6,0,0,1-.975.759,3.138,3.138,0,0,1-1.323.274,3.1,3.1,0,0,1-1.518-.364,2.547,2.547,0,0,1-1.032-1.038,3.627,3.627,0,0,1,0-3.188,2.512,2.512,0,0,1,1.032-1.038,3.146,3.146,0,0,1,1.518-.359,3.077,3.077,0,0,1,1.513.359,2.53,2.53,0,0,1,1,.985,2.863,2.863,0,0,1,.353,1.428A2.828,2.828,0,0,1,478.373,391.89Zm-1.818-1.739a1.424,1.424,0,0,0-1-.369,1.461,1.461,0,0,0-1.012.369,1.51,1.51,0,0,0-.453,1.085h2.835A1.308,1.308,0,0,0,476.555,390.151Z"/><path class="f" d="M483.026,388.96a1.968,1.968,0,0,1,.754.938v-3.172h1.475v7.8H483.78V393.3a2,2,0,0,1-.754.944,2.2,2.2,0,0,1-1.26.353,2.5,2.5,0,0,1-1.327-.359,2.419,2.419,0,0,1-.923-1.038,4,4,0,0,1,0-3.193,2.425,2.425,0,0,1,.923-1.038,2.505,2.505,0,0,1,1.327-.359A2.217,2.217,0,0,1,483.026,388.96Zm-1.913,1.4a1.755,1.755,0,0,0-.421,1.244,1.735,1.735,0,0,0,.421,1.238,1.6,1.6,0,0,0,2.229-.01,1.956,1.956,0,0,0,0-2.467,1.471,1.471,0,0,0-1.112-.458A1.453,1.453,0,0,0,481.113,390.362Z"/><rect class="c" width="17.919" height="0.859" transform="translate(423.82 361.88)"/><path class="c" d="M441.188,364.2l3.265-1.885-3.265-1.885Z"/><rect class="c" width="0.859" height="18.743" transform="translate(418.103 366.113) rotate(-89.603)"/><path class="c" d="M436.283,367.7l3.278-1.862-3.252-1.908Z"/></g></svg>
