<svg xmlns="http://www.w3.org/2000/svg" xmlns:xlink="http://www.w3.org/1999/xlink" width="134" height="134" viewBox="0 0 134 134"><defs><style>.a{fill:none;}.b{fill:#fff;}.c{fill:#030504;}.d{fill:#cfcfcf;}.e{fill:#e04a2e;}.f{fill:#1a1818;}.g{clip-path:url(#a);}.h{fill:#ffc330;}.i{fill:#dddcdc;}.j{fill:#060708;}</style><clipPath id="a"><rect class="a" width="34.605" height="34.605" transform="translate(300.998 345.681)"/></clipPath></defs><g transform="translate(-226.291 -275.813)"><rect class="a" width="134" height="134" transform="translate(226.291 275.813)"/><path class="b" d="M284.668,389.684H233.417a3.957,3.957,0,0,1-3.8-4.1V303.15a3.957,3.957,0,0,1,3.8-4.1h51.251a3.957,3.957,0,0,1,3.794,4.1v82.433A3.956,3.956,0,0,1,284.668,389.684Z"/><path class="c" d="M284.668,390.684H233.417a4.96,4.96,0,0,1-4.8-5.1V303.15a4.961,4.961,0,0,1,4.8-5.1h51.251a4.96,4.96,0,0,1,4.794,5.1v82.434A4.96,4.96,0,0,1,284.668,390.684Zm-51.251-90.635a2.963,2.963,0,0,0-2.8,3.1v82.434a2.963,2.963,0,0,0,2.8,3.1h51.251a2.962,2.962,0,0,0,2.794-3.1V303.15a2.963,2.963,0,0,0-2.794-3.1Z"/><circle class="d" cx="7.084" cy="7.084" r="7.084" transform="translate(236.444 306.498)"/><rect class="d" width="21.022" height="0.81" transform="translate(254.312 308.613)"/><rect class="d" width="12.84" height="1.554" transform="translate(254.312 311.205)"/><rect class="d" width="27.668" height="1.143" transform="translate(254.312 314.313)"/><rect class="d" width="27.668" height="1.143" transform="translate(254.312 314.313)"/><rect class="e" width="18.351" height="1.143" transform="translate(254.312 314.313)"/><rect class="d" width="56.837" height="4.936" transform="translate(230.623 325.784)"/><rect class="d" width="15.812" height="2.462" transform="translate(237.746 335.723)"/><path class="f" d="M242.375,382.538h-1.131l-2.535-3.85v3.85h-1.131v-5.662h1.131l2.535,3.881v-3.881h1.131Z"/><path class="f" d="M246.622,378.311a1.99,1.99,0,0,1,.814.79,2.4,2.4,0,0,1,.3,1.216,2.37,2.37,0,0,1-.3,1.21,2.025,2.025,0,0,1-.814.791,2.605,2.605,0,0,1-2.334,0,2.031,2.031,0,0,1-.814-.791,2.37,2.37,0,0,1-.3-1.21,2.4,2.4,0,0,1,.3-1.216,2,2,0,0,1,.814-.79,2.639,2.639,0,0,1,2.334,0Zm-1.969,1.039a1.584,1.584,0,0,0,0,1.933,1.132,1.132,0,0,0,1.6,0,1.584,1.584,0,0,0,0-1.933,1.132,1.132,0,0,0-1.6,0Z"/><path class="f" d="M250.91,381.568v.97h-.594a1.64,1.64,0,0,1-1.143-.361,1.559,1.559,0,0,1-.4-1.2v-1.925h-.618V378.1h.618V377h1.131v1.1h.994v.954h-.994v1.941a.632.632,0,0,0,.128.45.6.6,0,0,0,.433.128Z"/><path class="f" d="M254.6,377.774v1.468H256.6v.866H254.6v1.524h2.246v.906h-3.377v-5.662h3.377v.9Z"/><path class="f" d="M260.381,378.3a1.447,1.447,0,0,1,.57.714V378.1h1.123v4.443h-1.123v-.93a1.466,1.466,0,0,1-.57.718,1.688,1.688,0,0,1-.962.268,1.9,1.9,0,0,1-1.011-.273,1.838,1.838,0,0,1-.7-.79,3.044,3.044,0,0,1,0-2.43,1.85,1.85,0,0,1,.7-.79,1.914,1.914,0,0,1,1.011-.272A1.709,1.709,0,0,1,260.381,378.3Zm-1.46,1.067a1.335,1.335,0,0,0-.321.947,1.32,1.32,0,0,0,.321.942,1.216,1.216,0,0,0,1.7-.008,1.489,1.489,0,0,0,0-1.877,1.211,1.211,0,0,0-1.7,0Z"/><path class="f" d="M264.889,378.275a1.751,1.751,0,0,1,.915-.245v1.212h-.329q-1.244,0-1.244,1.155v2.141H263.1V378.1h1.131v.85A1.87,1.87,0,0,1,264.889,378.275Z"/><path class="f" d="M270.3,378.536a2.041,2.041,0,0,1,.458,1.42v2.582h-1.123v-2.454a1.159,1.159,0,0,0-.273-.822.972.972,0,0,0-.746-.293,1,1,0,0,0-.77.313,1.279,1.279,0,0,0-.289.9v2.358h-1.131V378.1h1.131v.89a1.422,1.422,0,0,1,.581-.7,1.737,1.737,0,0,1,.935-.253A1.574,1.574,0,0,1,270.3,378.536Z"/><path class="f" d="M275.893,380.533h-3.256a1.223,1.223,0,0,0,.321.874,1.034,1.034,0,0,0,.738.281,1.069,1.069,0,0,0,.653-.192.861.861,0,0,0,.334-.522h1.195a1.915,1.915,0,0,1-.377.834,1.976,1.976,0,0,1-.742.578,2.549,2.549,0,0,1-2.162-.068,1.944,1.944,0,0,1-.786-.791,2.481,2.481,0,0,1-.281-1.21,2.513,2.513,0,0,1,.281-1.216,1.912,1.912,0,0,1,.786-.79,2.4,2.4,0,0,1,1.155-.272,2.351,2.351,0,0,1,1.151.272,1.923,1.923,0,0,1,.762.75,2.182,2.182,0,0,1,.269,1.087A2.124,2.124,0,0,1,275.893,380.533Zm-1.383-1.323a1.086,1.086,0,0,0-.758-.281,1.112,1.112,0,0,0-.77.281,1.149,1.149,0,0,0-.345.826H274.8A1,1,0,0,0,274.51,379.21Z"/><path class="f" d="M279.435,378.3a1.493,1.493,0,0,1,.573.714V376.6h1.123v5.935h-1.123v-.93a1.512,1.512,0,0,1-.573.718,1.673,1.673,0,0,1-.959.268,1.9,1.9,0,0,1-1.01-.273,1.832,1.832,0,0,1-.7-.79,3.044,3.044,0,0,1,0-2.43,1.843,1.843,0,0,1,.7-.79,1.913,1.913,0,0,1,1.01-.272A1.7,1.7,0,0,1,279.435,378.3Zm-1.456,1.067a1.335,1.335,0,0,0-.321.947,1.32,1.32,0,0,0,.321.942,1.216,1.216,0,0,0,1.7-.008,1.492,1.492,0,0,0,0-1.877,1.121,1.121,0,0,0-.847-.349A1.106,1.106,0,0,0,277.979,379.37Z"/><path class="b" d="M351.973,403.915H284.628a5.2,5.2,0,0,1-4.987-5.388V290.207a5.2,5.2,0,0,1,4.987-5.389h67.345a5.2,5.2,0,0,1,4.986,5.389v108.32A5.2,5.2,0,0,1,351.973,403.915Z"/><path class="c" d="M351.973,404.915H284.628a6.2,6.2,0,0,1-5.987-6.388V290.207a6.2,6.2,0,0,1,5.987-6.389h67.345a6.2,6.2,0,0,1,5.986,6.389v108.32A6.2,6.2,0,0,1,351.973,404.915Zm-67.345-119.1a4.208,4.208,0,0,0-3.987,4.389v108.32a4.207,4.207,0,0,0,3.987,4.388h67.345a4.207,4.207,0,0,0,3.986-4.388V290.207a4.207,4.207,0,0,0-3.986-4.389Z"/><circle class="d" cx="9.309" cy="9.309" r="9.309" transform="translate(288.605 294.606)"/><rect class="d" width="27.623" height="1.065" transform="translate(312.085 297.385)"/><rect class="d" width="16.872" height="2.042" transform="translate(312.085 300.792)"/><rect class="d" width="36.356" height="1.502" transform="translate(312.085 304.875)"/><rect class="d" width="36.356" height="1.502" transform="translate(312.085 304.875)"/><rect class="e" width="24.113" height="1.502" transform="translate(312.085 304.875)"/><rect class="d" width="75.284" height="6.486" transform="translate(280.658 319.948)"/><rect class="d" width="20.778" height="3.235" transform="translate(290.316 333.009)"/><path class="f" d="M301.611,388.264v1.929h2.635v1.139h-2.635v2h2.951v1.191h-4.437v-7.441h4.437v1.18Z"/><path class="f" d="M309.21,388.96a1.9,1.9,0,0,1,.748.938v-1.212h1.476v5.839h-1.476V393.3a1.922,1.922,0,0,1-.748.944,2.222,2.222,0,0,1-1.265.353,2.493,2.493,0,0,1-1.327-.359,2.412,2.412,0,0,1-.923-1.038,4,4,0,0,1,0-3.193,2.418,2.418,0,0,1,.923-1.038,2.5,2.5,0,0,1,1.327-.359A2.243,2.243,0,0,1,309.21,388.96Zm-1.918,1.4a1.756,1.756,0,0,0-.422,1.244,1.735,1.735,0,0,0,.422,1.238,1.6,1.6,0,0,0,2.229-.01,1.959,1.959,0,0,0,0-2.467,1.473,1.473,0,0,0-1.112-.458A1.453,1.453,0,0,0,307.292,390.362Z"/><path class="f" d="M315.134,388.923a2.3,2.3,0,0,1,1.2-.321v1.591H315.9q-1.634,0-1.634,1.518v2.814h-1.486v-5.839h1.486V389.8A2.449,2.449,0,0,1,315.134,388.923Z"/><path class="f" d="M322.247,389.266a2.679,2.679,0,0,1,.6,1.865v3.394h-1.476V391.3a1.531,1.531,0,0,0-.357-1.081,1.278,1.278,0,0,0-.981-.384,1.312,1.312,0,0,0-1.012.411,1.679,1.679,0,0,0-.379,1.18v3.1h-1.486v-5.839h1.486v1.17a1.856,1.856,0,0,1,.764-.922,2.275,2.275,0,0,1,1.228-.332A2.065,2.065,0,0,1,322.247,389.266Z"/><path class="f" d="M329.594,391.89h-4.279a1.609,1.609,0,0,0,.421,1.149,1.356,1.356,0,0,0,.97.369,1.413,1.413,0,0,0,.859-.253,1.122,1.122,0,0,0,.437-.685h1.571a2.527,2.527,0,0,1-.495,1.1,2.6,2.6,0,0,1-.976.759,3.134,3.134,0,0,1-1.322.274,3.1,3.1,0,0,1-1.518-.364,2.55,2.55,0,0,1-1.033-1.038,3.627,3.627,0,0,1,0-3.188,2.514,2.514,0,0,1,1.033-1.038,3.144,3.144,0,0,1,1.518-.359,3.073,3.073,0,0,1,1.512.359,2.523,2.523,0,0,1,1,.985,2.853,2.853,0,0,1,.353,1.428A2.818,2.818,0,0,1,329.594,391.89Zm-1.818-1.739a1.428,1.428,0,0,0-1-.369,1.459,1.459,0,0,0-1.012.369,1.51,1.51,0,0,0-.453,1.085h2.835A1.311,1.311,0,0,0,327.776,390.151Z"/><path class="f" d="M334.247,388.96a1.961,1.961,0,0,1,.753.938v-3.172h1.476v7.8H335V393.3a1.99,1.99,0,0,1-.753.944,2.2,2.2,0,0,1-1.26.353,2.493,2.493,0,0,1-1.327-.359,2.413,2.413,0,0,1-.923-1.038,4,4,0,0,1,0-3.193,2.418,2.418,0,0,1,.923-1.038,2.5,2.5,0,0,1,1.327-.359A2.219,2.219,0,0,1,334.247,388.96Zm-1.913,1.4a1.756,1.756,0,0,0-.422,1.244,1.735,1.735,0,0,0,.422,1.238,1.6,1.6,0,0,0,2.229-.01,1.959,1.959,0,0,0,0-2.467,1.473,1.473,0,0,0-1.112-.458A1.453,1.453,0,0,0,332.334,390.362Z"/><g class="g"><rect class="a" width="34.605" height="34.605" transform="translate(300.998 345.681)"/><path class="h" d="M320.721,356.237l-1.054-2.665-2.255,1.783-2.837-.423.416,2.844-1.784,2.243,2.671,1.06,1.055,2.665,2.253-1.782,2.84.421-.417-2.844,1.784-2.243Z"/><path class="i" d="M322.863,356.023l-1.139,2.634,1.139,2.639-2.848.324-1.715,2.306-1.708-2.3-2.854-.333,1.137-2.635-1.138-2.638,2.847-.325,1.716-2.3,1.709,2.3,2.855.333Zm7.693,2.634a12.252,12.252,0,1,0-5.848,10.449A12.251,12.251,0,0,0,330.556,358.657Z"/><path class="e" d="M318.3,370.913a12.187,12.187,0,0,1-6.419-1.814v10.465l6.419-5.226,6.419,5.226-.011-10.458A12.2,12.2,0,0,1,318.3,370.913Z"/><path class="j" d="M331.277,358.657a12.977,12.977,0,1,0-20.114,10.83v10.077a.721.721,0,0,0,1.176.559l5.961-4.856,5.964,4.856a.722.722,0,0,0,1.177-.56l-.011-10.069A12.977,12.977,0,0,0,331.277,358.657ZM324,378.046l-5.242-4.268a.72.72,0,0,0-.91,0l-5.244,4.269v-7.733a12.958,12.958,0,0,0,11.387,0Zm-5.7-7.854a11.535,11.535,0,1,1,11.534-11.535h0A11.548,11.548,0,0,1,318.3,370.192Z"/><path class="j" d="M319.021,349.285a.721.721,0,0,0-.721-.721,10.1,10.1,0,0,0-10.094,10.093c0,.153,0,.309.011.463a.722.722,0,0,0,.719.688h.034a.722.722,0,0,0,.687-.754v0c-.008-.13-.008-.264-.008-.394a8.661,8.661,0,0,1,8.651-8.651A.721.721,0,0,0,319.021,349.285Z"/><path class="j" d="M328.382,358.2a.721.721,0,1,0-1.442.025l0,.042c.006.129.008.262.008.4a8.661,8.661,0,0,1-8.651,8.652.721.721,0,1,0,0,1.442h0a10.1,10.1,0,0,0,10.094-10.094C328.393,358.5,328.39,358.347,328.382,358.2Z"/><path class="j" d="M322.536,362.893h0a.722.722,0,0,0,.2-.615l-.371-2.535,1.591-2a.723.723,0,0,0-.3-1.119l-2.383-.94-.941-2.375a.721.721,0,0,0-.933-.413.74.74,0,0,0-.185.106l-2.01,1.589-2.529-.376a.721.721,0,0,0-.614.21h0a.722.722,0,0,0-.2.615l.372,2.534-1.591,2a.72.72,0,0,0,.116,1.013.729.729,0,0,0,.183.106l2.382.94.941,2.375a.721.721,0,0,0,.936.4.7.7,0,0,0,.182-.105l2.009-1.589,2.53.376A.724.724,0,0,0,322.536,362.893Zm-3.791-1.5-1.489,1.184-.7-1.765a.723.723,0,0,0-.4-.4l-1.771-.7,1.179-1.485a.723.723,0,0,0,.149-.552l-.284-1.887,1.876.278a.722.722,0,0,0,.552-.148l1.491-1.184.7,1.765a.721.721,0,0,0,.4.4l1.771.7-1.179,1.485a.722.722,0,0,0-.148.552l.28,1.89-1.875-.278A.726.726,0,0,0,318.745,361.4Z"/><path class="j" d="M309.937,360.869a.721.721,0,0,0-1.389.39l.006.021a.721.721,0,0,0,1.388-.391Z"/><path class="j" d="M327.357,356.97a.721.721,0,0,0,.721-.723.688.688,0,0,0-.022-.175l-.008-.034a.721.721,0,1,0-.691.931Z"/></g><rect class="c" width="2" height="13.805" transform="translate(317.3 322.209)"/><rect class="c" width="11.372" height="2" transform="translate(326.698 339.695) rotate(-45)"/><rect class="c" width="2" height="11.372" transform="translate(300.447 333.068) rotate(-45)"/><rect class="c" width="17.919" height="0.859" transform="translate(275.041 361.88)"/><path class="c" d="M292.409,364.2l3.265-1.885-3.265-1.885Z"/><rect class="c" width="0.859" height="18.743" transform="translate(269.323 366.113) rotate(-89.603)"/><path class="c" d="M287.5,367.7l3.278-1.862-3.252-1.908Z"/></g></svg>
