<svg width="30" height="30" viewBox="0 0 30 30" fill="none" xmlns="http://www.w3.org/2000/svg">
<path d="M8.60001 12.95H7.47501V14H8.60001V12.95Z" fill="#282828"/>
<path d="M18.35 22.85C18.5278 22.7274 18.7171 22.6052 18.875 22.475C18.9121 22.4445 18.914 22.431 18.95 22.4C19.3147 22.0866 19.6419 21.7203 19.925 21.35C20.0556 21.1793 20.1809 21.0106 20.3 20.825C20.4704 20.5595 20.5941 20.3002 20.75 20C20.8132 19.8783 20.9181 19.7494 20.975 19.625C21.4803 18.5218 21.7359 17.3168 21.725 16.1V15.275H22.775V16.1C22.7873 17.5813 22.4614 19.0513 21.8 20.375C21.7769 20.4213 21.7489 20.4791 21.725 20.525C21.4438 21.0653 21.1274 21.5525 20.75 22.025C20.4189 22.4396 20.022 22.7969 19.625 23.15C19.3355 23.4075 19.046 23.6792 18.725 23.9L18.35 22.85Z" fill="#282828"/>
<path d="M24.95 11.825H23.9V13.025H24.95V11.825Z" fill="#282828"/>
<path fill-rule="evenodd" clip-rule="evenodd" d="M24.95 11.825H23.9V9.12504C18.6068 9.01561 16.0487 7.36265 15.125 6.57504C14.2016 7.36486 11.6432 9.02003 6.35001 9.12504V15.725C6.3459 17.4611 6.79572 19.1499 7.62501 20.675C8.4543 22.2002 9.69073 23.5599 11.15 24.5L13.325 25.85L13.775 25.25L11.525 23.75C10.262 22.8812 9.23284 21.7349 8.52501 20.375C7.90498 19.1838 7.54515 17.8868 7.47501 16.55V16.175C7.47419 16.1097 7.47447 16.0155 7.47501 15.95V15.125V14V12.95V10.175C7.47503 10.03 7.52246 9.90262 7.62501 9.80004C7.72757 9.69747 7.85497 9.65006 8.00001 9.65004C13.0405 9.65004 14.6619 7.72194 14.675 7.70004C14.7281 7.63535 14.8244 7.58597 14.9 7.55004C14.9756 7.51412 15.0413 7.47536 15.125 7.47504C15.2084 7.47569 15.2754 7.5128 15.35 7.55004C15.4246 7.58728 15.5244 7.63379 15.575 7.70004C15.5869 7.71545 17.21 9.65004 22.25 9.65004C22.3951 9.65004 22.5225 9.69747 22.625 9.80004C22.7276 9.90262 22.775 10.03 22.775 10.175V15.275V16.1C22.7873 17.5813 22.4614 19.0513 21.8 20.375C21.5123 20.9643 21.1571 21.5012 20.75 22.025C20.4189 22.4396 20.022 22.7969 19.625 23.15L19.7 23.225C19.3029 23.581 18.8793 23.8457 18.425 24.125L16.55 25.325L17 26L18.725 24.95C20.2819 24.0293 21.577 22.6953 22.475 21.125C23.373 19.5548 23.8959 17.759 23.9 15.95V11.825V13.025H24.95V11.825ZM24.95 11.825V15.95C24.945 17.949 24.4426 19.9149 23.45 21.65C22.4574 23.3851 21.0455 24.8327 19.325 25.85L15.425 28.175C15.3376 28.2265 15.2264 28.2522 15.125 28.25C15.0236 28.2479 14.9102 28.2301 14.825 28.175L10.55 25.4C8.93763 24.361 7.56662 22.8852 6.65001 21.2C5.73341 19.5149 5.29624 17.6434 5.30001 15.725V8.97504C3.08619 8.51492 2.62143 7.16457 2.60001 7.10004C2.59566 7.08685 2.6034 7.03886 2.60001 7.02504C2.56485 6.88434 2.52542 6.77442 2.60001 6.65004C2.6746 6.52567 2.83434 6.46026 2.97501 6.42504L3.35001 6.27504C2.93579 6.03556 2.61344 5.71492 2.37501 5.30004C2.13659 4.88517 1.99841 4.42856 2.00001 3.95004V2.52504C2.00013 2.42828 2.0262 2.38358 2.07501 2.30004C2.12383 2.2165 2.21578 2.12263 2.30001 2.07504C2.38425 2.02745 2.42828 1.99874 2.52501 2.00004C2.62175 2.00135 2.74209 2.0252 2.82501 2.07504C2.87586 2.10565 7.64251 4.90558 10.775 5.22504V3.20004C10.775 3.10138 10.7995 3.05979 10.85 2.97504C10.9005 2.89029 10.9132 2.79695 11 2.75004C11.0868 2.70313 11.2015 2.67087 11.3 2.67504C11.3986 2.67922 11.5175 2.69596 11.6 2.75004L13.475 3.95004L14.675 2.22504C14.728 2.15667 14.8224 2.11312 14.9 2.07504C14.9776 2.03697 15.0385 2.00004 15.125 2.00004C15.2115 2.00004 15.2724 2.03697 15.35 2.07504C15.4276 2.11312 15.5221 2.15667 15.575 2.22504L16.775 3.95004L18.65 2.75004C18.7325 2.696 18.8515 2.6792 18.95 2.67504C19.0486 2.67089 19.1633 2.70313 19.25 2.75004C19.3368 2.79695 19.3495 2.89031 19.4 2.97504C19.4505 3.05977 19.475 3.1014 19.475 3.20004V5.22504C22.6075 4.90558 27.3742 2.10565 27.425 2.07504C27.5079 2.0252 27.6283 2.00135 27.725 2.00004C27.8218 1.99874 27.8658 2.02746 27.95 2.07504C28.0343 2.12263 28.1262 2.21651 28.175 2.30004C28.2238 2.38358 28.2499 2.42828 28.25 2.52504V3.95004C28.2518 4.42875 28.1135 4.88497 27.875 5.30004C27.6365 5.71512 27.3144 6.03548 26.9 6.27504L27.275 6.42504C27.2884 6.42836 27.3369 6.42062 27.35 6.42504C27.4182 6.44772 27.4457 6.45301 27.5 6.50004C27.5543 6.54708 27.6179 6.58581 27.65 6.65004C27.6822 6.71428 27.7199 6.80339 27.725 6.87504C27.7301 6.94669 27.6727 7.03189 27.65 7.10004C27.6287 7.16409 27.1626 8.51457 24.95 8.97504V11.825ZM8.60001 16.1C8.6149 17.3958 8.90197 18.6987 9.50001 19.85C10.1241 21.0515 11.0104 22.0816 12.125 22.85L15.125 24.875L17.825 23.225C18.0026 23.1159 18.1819 22.973 18.35 22.85C18.5278 22.7274 18.7171 22.6052 18.875 22.475C18.9111 22.4438 18.9145 22.432 18.95 22.4C19.3147 22.0866 19.6419 21.7203 19.925 21.35C20.0586 21.178 20.1807 21.0058 20.3 20.825C20.4704 20.5595 20.5941 20.3002 20.75 20C20.8132 19.8783 20.9181 19.7494 20.975 19.625C21.4589 18.5405 21.727 17.3028 21.725 16.1V10.775C20.2079 10.7626 18.6555 10.4558 17.225 9.95004L15.5 11.675C15.4492 11.7259 15.4164 11.7975 15.35 11.825C15.2836 11.8525 15.1969 11.825 15.125 11.825C15.0532 11.825 14.9664 11.8525 14.9 11.825C14.8336 11.7975 14.8008 11.7259 14.75 11.675L13.025 9.95004C11.5946 10.4556 10.1171 10.7628 8.60001 10.775V16.1ZM13.775 9.95004L15.125 11.3L16.475 9.95004C16.3001 9.87118 16.1178 9.74255 15.95 9.65004C15.6555 9.48763 15.3942 9.32749 15.125 9.12504C14.8563 9.32711 14.594 9.48785 14.3 9.65004C14.1318 9.74288 13.9504 9.87092 13.775 9.95004ZM14.675 25.85L14.825 26C14.9122 26.0591 15.0198 26.0727 15.125 26.075C15.2303 26.0774 15.3353 26.0552 15.425 26L15.575 25.85L16.025 26.525L15.125 27.05L14.225 26.45L14.675 25.85ZM26.9 4.77504C27.0538 4.51942 27.1259 4.24837 27.125 3.95004V3.50004C25.5523 4.36641 22.0831 6.11811 19.475 6.35004V7.47504C20.8969 7.82158 22.3616 7.98307 23.825 8.00004C24.6765 8.00526 25.5303 7.74246 26.225 7.25004L24.8 6.87504C24.6848 6.84619 24.6497 6.81748 24.575 6.72504C24.5004 6.6326 24.429 6.54381 24.425 6.42504C24.421 6.30627 24.4317 6.14726 24.5 6.05004C24.5683 5.95283 24.6869 5.86152 24.8 5.82504L26.3 5.37504C26.564 5.23612 26.7462 5.03066 26.9 4.77504ZM18.425 7.10004C17.3563 6.78893 16.3817 6.21712 15.575 5.45004C15.5237 5.38705 15.4233 5.3351 15.35 5.30004C15.2767 5.26498 15.2062 5.30045 15.125 5.30004C15.0443 5.30048 14.973 5.26542 14.9 5.30004C14.8271 5.33466 14.7264 5.38776 14.675 5.45004C13.8672 6.21739 12.8949 6.7892 11.825 7.10004V4.25004L13.325 5.22504C13.444 5.30299 13.5603 5.327 13.7 5.30004C13.8397 5.27309 13.9936 5.19168 14.075 5.07504L15.125 3.50004L16.175 5.07504C16.2565 5.19168 16.4103 5.27309 16.55 5.30004C16.6897 5.327 16.806 5.30299 16.925 5.22504L18.425 4.25004V7.10004ZM6.42501 8.00004C7.88845 7.98299 9.35306 7.8215 10.775 7.47504V6.35004C8.16702 6.11825 4.69779 4.36641 3.12501 3.50004V3.95004C3.12438 4.24863 3.19572 4.51942 3.35001 4.77504C3.5043 5.03066 3.68554 5.23651 3.95001 5.37504L5.45001 5.82504C5.5631 5.86151 5.68168 5.95283 5.75001 6.05004C5.81835 6.14725 5.82897 6.30627 5.82501 6.42504C5.82106 6.54381 5.74967 6.6326 5.67501 6.72504C5.60036 6.81749 5.56527 6.84618 5.45001 6.87504L4.02501 7.25004C4.71903 7.74383 5.57331 8.0038 6.42501 8.00004Z" fill="#282828"/>
<path d="M13.775 9.95004L15.125 11.3L16.475 9.95004C16.3001 9.87118 16.1178 9.74255 15.95 9.65004L15.125 10.55L14.3 9.65004C14.1318 9.74288 13.9504 9.87092 13.775 9.95004Z" fill="#282828"/>
<path d="M20.75 22.025C21.1571 21.5012 21.5123 20.9643 21.8 20.375M20.75 22.025C20.4189 22.4396 20.022 22.797 19.625 23.15M20.75 22.025L20.375 21.725L19.925 21.35M20.75 22.025C21.1274 21.5525 21.4438 21.0653 21.725 20.525C21.7489 20.4791 21.7769 20.4213 21.8 20.375M22.775 16.1V15.275M22.775 16.1C22.7873 17.5813 22.4614 19.0513 21.8 20.375M22.775 16.1C22.7768 17.5694 22.4371 19.0702 21.8 20.375M7.47501 10.175C7.47503 10.03 7.52246 9.90262 7.62501 9.80004C7.72757 9.69747 7.85497 9.65006 8.00001 9.65004C13.0405 9.65004 14.6619 7.72194 14.675 7.70004C14.7281 7.63535 14.8244 7.58597 14.9 7.55004C14.9756 7.51412 15.0413 7.47536 15.125 7.47504C15.2084 7.47569 15.2754 7.5128 15.35 7.55004C15.4246 7.58728 15.5244 7.63379 15.575 7.70004C15.5869 7.71545 17.21 9.65004 22.25 9.65004C22.3951 9.65004 22.5225 9.69747 22.625 9.80004C22.7276 9.90262 22.775 10.03 22.775 10.175V15.275M7.47501 10.175V12.95M7.47501 10.175V15.125M7.47501 16.55C7.54515 17.8868 7.90498 19.1838 8.52501 20.375C9.23284 21.7349 10.262 22.8812 11.525 23.75L13.775 25.25L13.325 25.85L11.15 24.5C9.69073 23.5599 8.4543 22.2002 7.62501 20.675C6.79572 19.1499 6.3459 17.4611 6.35001 15.725V9.12504C11.6432 9.02003 14.2016 7.36486 15.125 6.57504C16.0487 7.36265 18.6068 9.01561 23.9 9.12504M7.47501 16.55V16.175M7.47501 16.55C7.4685 16.4259 7.47658 16.2996 7.47501 16.175M7.47501 16.55H8.60001V16.1M21.725 16.1V10.775C20.2079 10.7626 18.6555 10.4558 17.225 9.95004L15.5 11.675C15.4492 11.7259 15.4164 11.7975 15.35 11.825C15.2836 11.8525 15.1969 11.825 15.125 11.825C15.0532 11.825 14.9664 11.8525 14.9 11.825C14.8336 11.7975 14.8008 11.7259 14.75 11.675L13.025 9.95004C11.5946 10.4556 10.1171 10.7628 8.60001 10.775V16.1M21.725 16.1V15.275H22.775M21.725 16.1C21.727 17.3028 21.4589 18.5405 20.975 19.625M21.725 16.1C21.7359 17.3168 21.4803 18.5218 20.975 19.625M19.925 21.35C20.0586 21.178 20.1807 21.0058 20.3 20.825M19.925 21.35C19.6419 21.7203 19.3147 22.0866 18.95 22.4M19.925 21.35C20.0556 21.1793 20.1809 21.0106 20.3 20.825M7.47501 12.95H8.60001V14H7.47501M7.47501 12.95V14M7.47501 14V15.125M24.95 11.825V15.95C24.945 17.949 24.4426 19.9149 23.45 21.65C22.4574 23.3851 21.0455 24.8327 19.325 25.85L15.425 28.175C15.3376 28.2265 15.2264 28.2522 15.125 28.25C15.0236 28.2479 14.9102 28.2301 14.825 28.175L10.55 25.4C8.93763 24.361 7.56662 22.8852 6.65001 21.2C5.73341 19.5149 5.29624 17.6434 5.30001 15.725V8.97504C3.08619 8.51492 2.62143 7.16457 2.60001 7.10004C2.59566 7.08685 2.6034 7.03886 2.60001 7.02504C2.56485 6.88434 2.52542 6.77442 2.60001 6.65004C2.6746 6.52567 2.83434 6.46026 2.97501 6.42504L3.35001 6.27504C2.93579 6.03556 2.61344 5.71492 2.37501 5.30004C2.13659 4.88517 1.99841 4.42856 2.00001 3.95004V2.52504C2.00013 2.42828 2.0262 2.38358 2.07501 2.30004C2.12383 2.2165 2.21578 2.12263 2.30001 2.07504C2.38425 2.02745 2.42828 1.99874 2.52501 2.00004C2.62175 2.00135 2.74209 2.0252 2.82501 2.07504C2.87586 2.10565 7.64251 4.90558 10.775 5.22504V3.20004C10.775 3.10138 10.7995 3.05979 10.85 2.97504C10.9005 2.89029 10.9132 2.79695 11 2.75004C11.0868 2.70313 11.2015 2.67087 11.3 2.67504C11.3986 2.67922 11.5175 2.69596 11.6 2.75004L13.475 3.95004L14.675 2.22504C14.728 2.15667 14.8224 2.11312 14.9 2.07504C14.9776 2.03697 15.0385 2.00004 15.125 2.00004C15.2115 2.00004 15.2724 2.03697 15.35 2.07504C15.4276 2.11312 15.5221 2.15667 15.575 2.22504L16.775 3.95004L18.65 2.75004C18.7325 2.696 18.8515 2.6792 18.95 2.67504C19.0486 2.67089 19.1633 2.70313 19.25 2.75004C19.3368 2.79695 19.3495 2.89031 19.4 2.97504C19.4505 3.05977 19.475 3.1014 19.475 3.20004V5.22504C22.6075 4.90558 27.3742 2.10565 27.425 2.07504C27.5079 2.0252 27.6283 2.00135 27.725 2.00004C27.8218 1.99874 27.8658 2.02746 27.95 2.07504C28.0343 2.12263 28.1262 2.21651 28.175 2.30004C28.2238 2.38358 28.2499 2.42828 28.25 2.52504V3.95004C28.2518 4.42875 28.1135 4.88497 27.875 5.30004C27.6365 5.71512 27.3144 6.03548 26.9 6.27504L27.275 6.42504C27.2884 6.42836 27.3369 6.42062 27.35 6.42504C27.4182 6.44772 27.4457 6.45301 27.5 6.50004C27.5543 6.54708 27.6179 6.58581 27.65 6.65004C27.6822 6.71428 27.7199 6.80339 27.725 6.87504C27.7301 6.94669 27.6727 7.03189 27.65 7.10004C27.6287 7.16409 27.1626 8.51457 24.95 8.97504M24.95 11.825H23.9M24.95 11.825V13.025M24.95 11.825V8.97504M23.9 11.825V15.95C23.8959 17.759 23.373 19.5548 22.475 21.125C21.577 22.6953 20.2819 24.0293 18.725 24.95L17 26L16.55 25.325L18.425 24.125C18.8793 23.8457 19.3029 23.581 19.7 23.225L19.625 23.15M23.9 11.825V13.025M23.9 11.825V9.12504M18.95 22.4C18.9145 22.432 18.9111 22.4438 18.875 22.475M18.95 22.4C18.914 22.431 18.9121 22.4445 18.875 22.475M18.95 22.4L19.625 23.15M7.47501 15.125V15.95C7.47447 16.0155 7.47419 16.1097 7.47501 16.175M7.47501 15.125H8.60001V15.95C8.59951 16.0066 8.59937 16.0436 8.60001 16.1M7.47501 15.125V16.175M23.9 9.12504V13.025M23.9 13.025H24.95M24.95 13.025V8.97504M18.35 22.85C18.5278 22.7274 18.7171 22.6052 18.875 22.475M18.35 22.85C18.182 22.973 18.0026 23.1159 17.825 23.225L15.125 24.875L12.125 22.85C11.0104 22.0816 10.1241 21.0515 9.50001 19.85C8.90197 18.6987 8.6149 17.3958 8.60001 16.1M18.35 22.85L18.725 23.9C19.046 23.6792 19.3355 23.4075 19.625 23.15M18.35 22.85C18.5208 22.7251 18.7149 22.6136 18.875 22.475M20.975 19.625C20.9181 19.7494 20.8132 19.8783 20.75 20C20.5941 20.3002 20.4704 20.5595 20.3 20.825M20.975 19.625C20.7869 20.0466 20.5561 20.4371 20.3 20.825M14.3 9.65004C14.1318 9.74288 13.9504 9.87092 13.775 9.95004L15.125 11.3L16.475 9.95004C16.3001 9.87118 16.1178 9.74255 15.95 9.65004M14.3 9.65004L15.125 10.55L15.95 9.65004M14.3 9.65004L14.075 9.50004C14.4464 9.30412 14.8012 9.0174 15.125 8.75004C15.4488 9.01816 15.8035 9.30336 16.175 9.50004L15.95 9.65004M14.3 9.65004C14.594 9.48785 14.8563 9.32711 15.125 9.12504C15.3942 9.32748 15.6555 9.48763 15.95 9.65004M14.675 25.85L14.825 26C14.9122 26.0591 15.0198 26.0727 15.125 26.075C15.2303 26.0774 15.3353 26.0552 15.425 26L15.575 25.85L16.025 26.525L15.125 27.05L14.225 26.45L14.675 25.85ZM10.775 7.47504C9.35306 7.8215 7.88845 7.98299 6.42501 8.00004C5.57331 8.0038 4.71903 7.74383 4.02501 7.25004L5.45001 6.87504C5.56527 6.84618 5.60036 6.81749 5.67501 6.72504C5.74967 6.6326 5.82106 6.54381 5.82501 6.42504C5.82897 6.30627 5.81835 6.14725 5.75001 6.05004C5.68168 5.95283 5.5631 5.86151 5.45001 5.82504L3.95001 5.37504C3.68554 5.23651 3.5043 5.03066 3.35001 4.77504C3.19572 4.51942 3.12438 4.24863 3.12501 3.95004V3.50004C4.69779 4.36641 8.16702 6.11825 10.775 6.35004V7.47504ZM18.425 7.10004C17.3563 6.78893 16.3817 6.21712 15.575 5.45004C15.5237 5.38705 15.4233 5.3351 15.35 5.30004C15.2767 5.26498 15.2062 5.30045 15.125 5.30004C15.0443 5.30048 14.973 5.26542 14.9 5.30004C14.8271 5.33466 14.7264 5.38776 14.675 5.45004C13.8672 6.21739 12.8949 6.7892 11.825 7.10004V4.25004L13.325 5.22504C13.444 5.30299 13.5603 5.327 13.7 5.30004C13.8397 5.27309 13.9936 5.19168 14.075 5.07504L15.125 3.50004L16.175 5.07504C16.2565 5.19168 16.4103 5.27309 16.55 5.30004C16.6897 5.327 16.806 5.30299 16.925 5.22504L18.425 4.25004V7.10004ZM27.125 3.95004C27.1259 4.24837 27.0538 4.51942 26.9 4.77504C26.7462 5.03066 26.564 5.23612 26.3 5.37504L24.8 5.82504C24.6869 5.86152 24.5683 5.95283 24.5 6.05004C24.4317 6.14726 24.421 6.30627 24.425 6.42504C24.429 6.54381 24.5004 6.6326 24.575 6.72504C24.6497 6.81748 24.6848 6.84619 24.8 6.87504L26.225 7.25004C25.5303 7.74246 24.6765 8.00526 23.825 8.00004C22.3616 7.98307 20.8969 7.82158 19.475 7.47504V6.35004C22.0831 6.11811 25.5523 4.36641 27.125 3.50004V3.95004Z" stroke="#282828" stroke-width="0.288708" stroke-miterlimit="10"/>
<path d="M15.9941 21H17.0488V19.5986H18.0205V18.6709H17.0488V13.9541H15.4912C14.5195 15.4141 13.4844 17.0791 12.5566 18.6709V19.5986H15.9941V21ZM13.6064 18.6904V18.6221C14.3291 17.3867 15.1885 16.0146 15.9453 14.877H16.0088V18.6904H13.6064Z" fill="#282828"/>
</svg>
