<svg xmlns="http://www.w3.org/2000/svg" width="50" height="50" viewBox="0 0 50 50"><defs><style>.a{fill:#e3e3e3;}.b{fill:#ffcf48;}.c{fill:none;}</style></defs><g transform="translate(-1.182 -6)"><path class="a" d="M4.716,20.072H47.073v18.16H4.716Z" transform="translate(0.297 10.174)"/><path d="M47.37,39.36H5.013a.83.83,0,0,1-.831-.831V20.369a.83.83,0,0,1,.831-.831H47.37a.83.83,0,0,1,.831.831v18.16A.83.83,0,0,1,47.37,39.36ZM5.843,37.7h40.7V21.2H5.843Z" transform="translate(0 10.707)"/><path class="a" d="M4.716,31.733H47.073v5.814H4.716Z" transform="translate(0.297 4.742)"/><path d="M47.37,38.675H5.013a.83.83,0,0,1-.831-.831V32.031a.83.83,0,0,1,.831-.831H47.37a.83.83,0,0,1,.831.831v5.814A.83.83,0,0,1,47.37,38.675ZM5.843,37.014h40.7V32.861H5.843Z" transform="translate(0 5.275)"/><path class="a" d="M4.716,13.079H47.073V37.146H4.716Z" transform="translate(0.297 -1.079)"/><path d="M47.37,38.273H5.013a.83.83,0,0,1-.831-.831V13.376a.83.83,0,0,1,.831-.831H47.37a.83.83,0,0,1,.831.831V37.443A.83.83,0,0,1,47.37,38.273ZM5.843,36.612h40.7V14.206H5.843Z" transform="translate(0 -0.545)"/><path class="a" d="M40.962,19.425a3.271,3.271,0,0,1-3.311-3.23,3.1,3.1,0,0,1,.048-.461H11.118a3.132,3.132,0,0,1,.048.461,3.271,3.271,0,0,1-3.311,3.23,3.352,3.352,0,0,1-.473-.047V28.7a3.345,3.345,0,0,1,.473-.047,3.271,3.271,0,0,1,3.311,3.23,3.1,3.1,0,0,1-.048.461H37.7a3.133,3.133,0,0,1-.048-.461,3.271,3.271,0,0,1,3.311-3.23,3.352,3.352,0,0,1,.473.047V19.378a3.377,3.377,0,0,1-.473.047Z" transform="translate(1.783 0.938)"/><path d="M38,33.472H11.415a.831.831,0,0,1-.821-.954,2.317,2.317,0,0,0,.039-.338,2.444,2.444,0,0,0-2.48-2.4,2.122,2.122,0,0,0-.314.032.893.893,0,0,1-.682-.192A.847.847,0,0,1,6.849,29V19.675a.83.83,0,0,1,.946-.822,2.527,2.527,0,0,0,.357.038,2.444,2.444,0,0,0,2.48-2.4,1.97,1.97,0,0,0-.033-.3.873.873,0,0,1,.189-.685.843.843,0,0,1,.626-.308H38a.831.831,0,0,1,.821.954,2.318,2.318,0,0,0-.039.338,2.444,2.444,0,0,0,2.48,2.4,2.122,2.122,0,0,0,.314-.032.9.9,0,0,1,.682.192.847.847,0,0,1,.307.625V29a.833.833,0,0,1-.285.627.818.818,0,0,1-.661.2,2.528,2.528,0,0,0-.357-.038,2.444,2.444,0,0,0-2.48,2.4,1.969,1.969,0,0,0,.033.3.873.873,0,0,1-.189.685.843.843,0,0,1-.627.308ZM12.277,31.811H37.134A4.109,4.109,0,0,1,40.9,28.134v-7.6a4.109,4.109,0,0,1-3.767-3.677H12.277A4.109,4.109,0,0,1,8.51,20.538v7.6A4.109,4.109,0,0,1,12.277,31.811Z" transform="translate(1.486 -0.085)"/><path class="b" d="M4.77,0A4.77,4.77,0,1,1,0,4.77,4.77,4.77,0,0,1,4.77,0Z" transform="translate(21.647 18.397)"/><path d="M19.529,27.786a5.456,5.456,0,1,1,5.456-5.457A5.462,5.462,0,0,1,19.529,27.786Zm0-9.541a4.084,4.084,0,1,0,4.084,4.084A4.089,4.089,0,0,0,19.529,18.245Z" transform="translate(6.887 1.524)"/><path d="M27.683,22.243H24.795a.831.831,0,1,1,0-1.661h2.888a.831.831,0,1,1,0,1.661Z" transform="translate(11.024 2.319)"/><path d="M13.465,22.243H10.576a.831.831,0,1,1,0-1.661h2.888a.831.831,0,1,1,0,1.661Z" transform="translate(3.1 2.319)"/></g><rect class="c" width="50" height="50" rx="4"/></svg>
