<svg xmlns="http://www.w3.org/2000/svg" width="16" height="16" viewBox="0 0 16 16"><defs><style>.a{fill:#e3e3e3;}.b{fill:#282828;}.c{fill:none;}</style></defs><g transform="translate(-815 -899)"><g transform="translate(405.526 839.818)"><path class="a" d="M450.187,123.668h-4.955l-2.11,3.9h9.248Z" transform="translate(-30.272 -58.866)"/><path class="b" d="M424.338,71.986,418.4,60.757a1.036,1.036,0,0,0-1.856,0l-5.936,11.229a1.18,1.18,0,0,0,.032,1.154,1.045,1.045,0,0,0,.9.519H423.41a1.045,1.045,0,0,0,.9-.519A1.18,1.18,0,0,0,424.338,71.986Zm-2.812-3.606h-8.1l1.7-3.212h4.708Zm-4.273-7.248a.238.238,0,0,1,.441,0l1.71,3.235h-3.862Zm6.368,11.6a.25.25,0,0,1-.211.132H411.537a.25.25,0,0,1-.211-.132.376.376,0,0,1-.01-.367L413,69.18h8.951l1.681,3.18A.376.376,0,0,1,423.621,72.727Z"/></g><rect class="c" width="16" height="16" transform="translate(815 899)"/></g></svg>
