<svg xmlns="http://www.w3.org/2000/svg" width="14" height="14" viewBox="0 0 14 14">
    <g id="Group_10561" data-name="Group 10561" transform="translate(-168.312 -180.83)">
      <rect id="Rectangle_3115" data-name="Rectangle 3115" width="14" height="14" rx="2" transform="translate(168.312 180.83)" fill="none"/>
      <g id="export" transform="translate(168.662 181.18)">
        <g id="Group_10560" data-name="Group 10560" transform="translate(-0.35 -0.35)">
          <g id="Group_10559" data-name="Group 10559">
            <path id="Path_9774" data-name="Path 9774" d="M222.952.926h2.442l-5.584,5.586a.463.463,0,1,0,.653.656l5.586-5.586V4.024a.463.463,0,1,0,.926,0V.464A.464.464,0,0,0,226.511,0h-3.56a.463.463,0,1,0,0,.926Z" transform="translate(-213.361 0.385)" fill="#fff"/>
            <path id="Path_9774_-_Outline" data-name="Path 9774 - Outline" d="M222.987-.35h3.56a.851.851,0,0,1,.85.85v3.56a.848.848,0,1,1-1.7,0V2.548l-4.928,4.928a.848.848,0,0,1-1.2-1.2L224.5,1.347h-1.512a.854.854,0,0,1-.85-.843A.851.851,0,0,1,222.987-.35Zm3.56,4.488a.079.079,0,0,0,.079-.079V.5a.079.079,0,0,0-.079-.079h-3.56a.077.077,0,1,0,0,.155h3.373L220.119,6.82a.078.078,0,0,0,0,.111.077.077,0,0,0,.108,0L226.471.686V4.059A.078.078,0,0,0,226.547,4.138Z" transform="translate(-213.397 0.35)" fill="#fff"/>
            <path id="Path_9775" data-name="Path 9775" d="M2.777,13.229h7.672a2.78,2.78,0,0,0,2.777-2.777V6.838a.463.463,0,0,0-.926,0v3.611A1.854,1.854,0,0,1,10.449,12.3H2.777A1.854,1.854,0,0,1,.926,10.449V2.78A1.854,1.854,0,0,1,2.777.928H6.358a.464.464,0,0,0,0-.928H2.777A2.78,2.78,0,0,0,0,2.777v7.672A2.782,2.782,0,0,0,2.777,13.229Z" transform="translate(0.386 0.385)" fill="#fff"/>
            <path id="Path_9775_-_Outline" data-name="Path 9775 - Outline" d="M10.485,13.65H2.812A3.167,3.167,0,0,1-.35,10.485V2.812A3.166,3.166,0,0,1,2.812-.35H6.394a.85.85,0,0,1,0,1.7H2.812A1.467,1.467,0,0,0,1.347,2.815v7.67a1.467,1.467,0,0,0,1.466,1.466h7.672a1.467,1.467,0,0,0,1.466-1.466V6.874a.848.848,0,0,1,1.7,0v3.614A3.166,3.166,0,0,1,10.485,13.65ZM2.812.421A2.394,2.394,0,0,0,.421,2.812v7.672a2.4,2.4,0,0,0,2.391,2.394h7.672a2.394,2.394,0,0,0,2.391-2.391V6.874a.077.077,0,0,0-.155,0v3.611a2.239,2.239,0,0,1-2.237,2.237H2.812A2.239,2.239,0,0,1,.576,10.485V2.815A2.239,2.239,0,0,1,2.812.578H6.394A.077.077,0,0,0,6.47.5.078.078,0,0,0,6.394.421Z" transform="translate(0.35 0.35)" fill="#fff"/>
          </g>
        </g>
      </g>
    </g>
  </svg>
