<svg xmlns="http://www.w3.org/2000/svg" width="16" height="16" viewBox="0 0 16 16"><g transform="translate(-0.001)"><g transform="translate(0.001)"><path d="M8,0a8,8,0,1,0,8,8A8,8,0,0,0,8,0Zm3.8,5.757-.76.76L9.5,4.97l-.587.587L10.457,7.1,6.663,10.9,5.117,9.351l-.587.587,1.547,1.547-.378.378-.007-.007a.3.3,0,0,1-.191.137l-1.442.322a.3.3,0,0,1-.358-.358l.321-1.442a.3.3,0,0,1,.137-.191l-.007-.007L10.257,4.21a.23.23,0,0,1,.324,0L11.8,5.433A.229.229,0,0,1,11.8,5.757Z" transform="translate(-0.001)"/></g></g></svg>
