<svg xmlns="http://www.w3.org/2000/svg" width="47.39" height="71.999" viewBox="0 0 47.39 71.999"><defs><style>.a{fill:#cac0c9;}.a,.b,.c,.d,.e,.f,.g,.h{fill-rule:evenodd;}.b{fill:#ab9faa;}.c{fill:#c3c3c3;}.d{fill:#ff5f00;}.e{opacity:0.104;}.f{fill:#fff;}.g{fill:#dfdfdf;}.h{fill:#a1a1a1;}</style></defs><g transform="translate(0)"><g transform="translate(0.944 0.914)"><path class="a" d="M220.261,153.914V142.035L214.3,136.61l-8.02,5.425v11.879l6.924,1.841Z" transform="translate(-190.517 -118.314)"/><path class="b" d="M271.347,187.07V175.191h-5.625v5.2a2.858,2.858,0,0,1,.22.22l3.023,3.618,2.125,2.541Z" transform="translate(-241.604 -151.469)"/><path class="c" d="M139.336,225.356a2.124,2.124,0,0,0-1.139-3.25l-4.551-1.6-7.253-2.538-2.694-3.226-2.125-2.541-3.023-3.618a1.925,1.925,0,0,0-3.176,0l-3.023,3.618-1.92,2.293-2.9,3.474-7.253,2.538-4.551,1.6a2.124,2.124,0,0,0-1.139,3.25l2.634,3.886,4.274,6.22.289,7.4.132,4.631a2.246,2.246,0,0,0,2.867,2.065l4.695-1.149,7.482-1.829,7.482,1.829,4.695,1.149a2.246,2.246,0,0,0,2.867-2.065l.132-4.631.289-7.4,4.274-6.22Z" transform="translate(-94.213 -179.45)"/><path class="d" d="M111.274,30.222l8.548-12.1L111.274,6.5h-9.759a2.114,2.114,0,0,0-2.1,2.109V23.386a6.858,6.858,0,0,0,6.844,6.836Z" transform="translate(-98.683 -6.5)"/><path class="d" d="M315.458,23.386V8.609a2.117,2.117,0,0,0-2.1-2.109h-9.763l-4.029,11.891,4.029,11.831h5.016A6.859,6.859,0,0,0,315.458,23.386Z" transform="translate(-270.688 -6.5)"/><path class="e" d="M340.083,23.386V8.609a2.117,2.117,0,0,0-2.1-2.109h-6.688a2.117,2.117,0,0,1,2.1,2.109V23.386a6.861,6.861,0,0,1-5.176,6.628v.208h5.016A6.859,6.859,0,0,0,340.083,23.386Z" transform="translate(-295.313 -6.5)"/><path class="f" d="M191.534,298l2.229-3.242,1.375-2.029a1.11,1.11,0,0,0-.593-1.7l-2.374-.832-3.785-1.325-2.514-3.006-1.576-1.889a1.008,1.008,0,0,0-1.66,0l-1.576,1.889-2.514,3.006-3.785,1.325-2.374.832a1.11,1.11,0,0,0-.593,1.7l1.54,2.261L175.4,298l.148,3.862.072,2.413a1.167,1.167,0,0,0,1.5,1.077l2.446-.6,3.905-.957,3.9.957,2.45.6a1.167,1.167,0,0,0,1.5-1.077l.072-2.413Z" transform="translate(-160.716 -244.584)"/><path class="g" d="M288.519,329.049l1.375-2.029a1.11,1.11,0,0,0-.593-1.7l-2.374-.832-2.983-1.045c.056.856.08,1.721.08,2.593a38.522,38.522,0,0,1-2.165,12.943l.265.064,2.45.6a1.167,1.167,0,0,0,1.5-1.077l.072-2.413.148-3.862Z" transform="translate(-255.472 -278.876)"/><path class="h" d="M275.91,231.248l2.634-3.886a2.124,2.124,0,0,0-1.139-3.25l-4.551-1.6-7.253-2.538-2.438-2.922-.257-.3-2.125-2.541-3.023-3.618a2.842,2.842,0,0,0-.22-.22,3.259,3.259,0,0,0-.389-.288,34.918,34.918,0,0,1,4.743,15.941l2.983,1.045,2.374.832a1.11,1.11,0,0,1,.593,1.7l-1.375,2.029-2.229,3.242-.148,3.862-.072,2.413a1.167,1.167,0,0,1-1.5,1.077l-2.45-.6-.265-.064a29.179,29.179,0,0,1-3.608,7.032l7.453,1.821,4.695,1.149a2.246,2.246,0,0,0,2.867-2.065l.132-4.631.289-7.4Z" transform="translate(-233.421 -181.456)"/><path class="d" d="M204.068,30.222V6.5H183.752V30.222h20.315Z" transform="translate(-171.161 -6.5)"/></g><path d="M134.74,44.6a3.377,3.377,0,0,0-2.024-2.047l-.048-.018-4.528-1.59-6.938-2.43-1.99-2.384V25.747h7.074a7.881,7.881,0,0,0,7.874-7.87V3.163A3.167,3.167,0,0,0,131,0h-39.6a3.167,3.167,0,0,0-3.164,3.163V17.877a7.879,7.879,0,0,0,7.871,7.87h7.078V36.131l-1.99,2.384-6.939,2.43-4.527,1.59-.048.018A3.377,3.377,0,0,0,87.647,44.6a3.233,3.233,0,0,0,.389,2.733l.023.036,1.523,2.252a1.063,1.063,0,1,0,1.76-1.191L89.832,46.2a1.143,1.143,0,0,1-.165-.939,1.276,1.276,0,0,1,.783-.728l4.5-1.58,7.215-2.527a1.062,1.062,0,0,0,.464-.322l7.786-9.328a.889.889,0,0,1,1.557,0l7.786,9.328a1.064,1.064,0,0,0,.464.322l7.214,2.526,4.5,1.581a1.276,1.276,0,0,1,.783.728,1.143,1.143,0,0,1-.165.939l-2.6,3.844L125.7,56.236a1.064,1.064,0,0,0-.186.56l-.287,7.38-.131,4.58a1.211,1.211,0,0,1-.442.89,1.393,1.393,0,0,1-1.117.191l-12.091-2.96a1.062,1.062,0,0,0-.505,0L98.85,69.836a1.393,1.393,0,0,1-1.117-.191,1.211,1.211,0,0,1-.442-.89l-.131-4.591L96.873,56.8a1.062,1.062,0,0,0-.186-.561l-2.529-3.678a1.063,1.063,0,1,0-1.751,1.2l2.354,3.425.275,7.051.132,4.611c0,.019,0,.038,0,.057A3.244,3.244,0,0,0,98.482,72a4.047,4.047,0,0,0,.813-.084l.039-.009,11.86-2.9,11.86,2.9.039.009a3.488,3.488,0,0,0,2.836-.568,3.327,3.327,0,0,0,1.288-2.442c0-.019,0-.038,0-.057l.131-4.6.275-7.062,4.082-5.946,2.62-3.87.023-.036a3.232,3.232,0,0,0,.389-2.733ZM132.035,3.163V17.877a5.753,5.753,0,0,1-5.749,5.744h-3.923V2.125H131a1.04,1.04,0,0,1,1.039,1.038ZM90.353,17.877V3.163a1.04,1.04,0,0,1,1.039-1.038h8.633v8.594a1.063,1.063,0,1,0,2.125,0V2.125h18.088v21.5H102.15V15.585a1.063,1.063,0,1,0-2.125,0v8.036H96.1a5.751,5.751,0,0,1-5.746-5.744Zm23.209,11.487a3.527,3.527,0,0,0-2.266-1.178,1.054,1.054,0,0,0-.2,0,3.527,3.527,0,0,0-2.266,1.178l-.027.031-3.5,4.191V25.746h11.786v7.839l-3.5-4.191Z" transform="translate(-87.499 0)"/><path d="M164.864,286.671l1.532,2.252,0,0,1.88,2.744.135,3.53.072,2.4c0,.017,0,.034,0,.051a2.232,2.232,0,0,0,.872,1.645,2.316,2.316,0,0,0,1.892.384l.034-.008,6.065-1.484,6.066,1.485.034.008a2.621,2.621,0,0,0,.538.057,2.195,2.195,0,0,0,2.227-2.086c0-.017,0-.034,0-.051l.072-2.394.136-3.538,2.047-2.98,1.368-2.021.024-.036a2.188,2.188,0,0,0,.254-1.851,2.262,2.262,0,0,0-1.346-1.383l-.049-.019-5.85-2.052-3.88-4.648-.035-.04a2.36,2.36,0,0,0-1.509-.772,1.067,1.067,0,0,0-.194,0,2.343,2.343,0,0,0-1.515.779l-.029.034-3.88,4.648-5.85,2.052-.049.019a2.262,2.262,0,0,0-1.346,1.383,2.188,2.188,0,0,0,.254,1.851C164.847,286.646,164.855,286.659,164.864,286.671Zm1.851-1.3,6.095-2.137a1.064,1.064,0,0,0,.464-.321l4.051-4.853.027-.025.031.029,4.047,4.849a1.066,1.066,0,0,0,.464.321l6.095,2.137a.362.362,0,0,1,.1.064.261.261,0,0,1-.027.062l-1.348,1.991-2.217,3.228a1.063,1.063,0,0,0-.186.561l-.148,3.855-.071,2.37a.208.208,0,0,1-.026.092.263.263,0,0,1-.17.007l-6.295-1.541a1.065,1.065,0,0,0-.506,0l-6.3,1.541a.268.268,0,0,1-.17-.007.2.2,0,0,1-.026-.092l-.071-2.379-.148-3.846a1.064,1.064,0,0,0-.185-.56l-2.052-2.995-1.514-2.226a.256.256,0,0,1-.026-.061A.355.355,0,0,1,166.715,285.376Z" transform="translate(-153.657 -237.072)"/></g></svg>
