<?xml version="1.0" encoding="utf-8"?>
<!-- Generated by IcoMoon.io -->
<svg version="1.1" xmlns="http://www.w3.org/2000/svg" xmlns:xlink="http://www.w3.org/1999/xlink" width="624" height="64" viewBox="0 0 624 64">
<svg id="icon-icon_Apps_HiFi-M_Active_24" width="24" height="24" viewBox="0 0 24 24" x="0" y="0">
<path fill="#282828" d="M20.738 17.382h-2.289v-2.288c0-0.25-0.203-0.453-0.453-0.453s-0.453 0.203-0.453 0.453v0 2.288h-2.289c-0.241 0.012-0.433 0.21-0.433 0.453s0.191 0.442 0.432 0.453l0.001 0h2.289v2.289c0 0.25 0.203 0.453 0.453 0.453s0.453-0.203 0.453-0.453v0-2.289h2.289c0.241-0.012 0.433-0.21 0.433-0.453s-0.191-0.442-0.432-0.453l-0.001-0z"></path>
<path fill="#ffcf48" d="M10.112 21.045c-0.001 0.589-0.478 1.066-1.067 1.068h-6.413c-0.59-0.001-1.067-0.479-1.069-1.068v-6.413c0.001-0.59 0.479-1.068 1.069-1.069h6.413c0.589 0.002 1.066 0.48 1.067 1.069v0z"></path>
<path fill="#fff" opacity="0.2" d="M5.301 14.632h4.809c-0.001-0.589-0.477-1.067-1.066-1.069h-6.413c-0.59 0.001-1.068 0.479-1.069 1.069v6.413c0.001 0.59 0.479 1.067 1.069 1.068h0.535v-5.344c0-0 0-0.001 0-0.001 0-1.179 0.956-2.135 2.135-2.136h0z"></path>
<path fill="#282828" d="M8.73 22.84h-5.821c-1.165-0.001-2.109-0.944-2.11-2.109v-5.822c0.001-1.165 0.945-2.108 2.11-2.109h5.821c1.165 0.001 2.109 0.944 2.11 2.109v5.822c-0.001 1.165-0.945 2.108-2.11 2.109h-0zM2.909 13.64c-0.701 0-1.269 0.568-1.27 1.269v5.822c0.001 0.701 0.569 1.269 1.27 1.269h5.821c0.701 0 1.269-0.568 1.27-1.269v-5.822c-0.001-0.701-0.569-1.269-1.27-1.269v0z"></path>
<path fill="#ffcf48" d="M10.112 9.045c-0.001 0.589-0.478 1.066-1.067 1.068h-6.413c-0.59-0.001-1.067-0.479-1.069-1.068v-6.413c0.001-0.59 0.479-1.068 1.069-1.069h6.413c0.589 0.002 1.066 0.48 1.067 1.069v0z"></path>
<path fill="#fff" opacity="0.2" d="M5.301 2.632h4.809c-0.001-0.589-0.477-1.067-1.066-1.069h-6.413c-0.59 0.001-1.068 0.479-1.069 1.069v6.413c0.001 0.59 0.479 1.067 1.069 1.068h0.535v-5.344c0-0 0-0.001 0-0.001 0-1.179 0.956-2.135 2.135-2.136h0z"></path>
<path fill="#282828" d="M8.73 10.84h-5.821c-1.165-0.001-2.109-0.944-2.11-2.109v-5.822c0.001-1.165 0.945-2.108 2.11-2.109h5.821c1.165 0.001 2.109 0.944 2.11 2.109v5.822c-0.001 1.165-0.945 2.108-2.11 2.109h-0zM2.909 1.64c-0.701 0-1.269 0.568-1.27 1.269v5.822c0.001 0.701 0.569 1.269 1.27 1.269h5.821c0.701 0 1.269-0.568 1.27-1.269v-5.822c-0.001-0.701-0.569-1.269-1.27-1.269v0z"></path>
<path fill="#ffcf48" d="M22.112 9.045c-0.001 0.589-0.478 1.066-1.067 1.068h-6.413c-0.59-0.001-1.067-0.479-1.069-1.068v-6.413c0.001-0.59 0.479-1.068 1.069-1.069h6.413c0.589 0.002 1.066 0.48 1.067 1.069v0z"></path>
<path fill="#fff" opacity="0.2" d="M17.301 2.632h4.809c-0.001-0.589-0.477-1.067-1.066-1.069h-6.413c-0.59 0.001-1.068 0.479-1.069 1.069v6.413c0.001 0.59 0.479 1.067 1.069 1.068h0.535v-5.344c0-0 0-0.001 0-0.001 0-1.179 0.956-2.135 2.135-2.136h0z"></path>
<path fill="#282828" d="M20.73 10.84h-5.821c-1.165-0.001-2.109-0.944-2.11-2.109v-5.822c0.001-1.165 0.945-2.108 2.11-2.109h5.821c1.165 0.001 2.109 0.944 2.11 2.109v5.822c-0.001 1.165-0.945 2.108-2.11 2.109h-0zM14.909 1.64c-0.701 0-1.269 0.568-1.27 1.269v5.822c0.001 0.701 0.569 1.269 1.27 1.269h5.821c0.701 0 1.269-0.568 1.27-1.269v-5.822c-0.001-0.701-0.569-1.269-1.27-1.269v0z"></path>
</svg>
<svg id="icon-icon_Apps_HiFi-M_Inactive_24" width="24" height="24" viewBox="0 0 24 24" x="40" y="0">
<path fill="#282828" d="M20.738 17.382h-2.289v-2.288c0-0.25-0.203-0.453-0.453-0.453s-0.453 0.203-0.453 0.453v0 2.288h-2.289c-0.241 0.012-0.433 0.21-0.433 0.453s0.191 0.442 0.432 0.453l0.001 0h2.289v2.289c0 0.25 0.203 0.453 0.453 0.453s0.453-0.203 0.453-0.453v0-2.289h2.289c0.241-0.012 0.433-0.21 0.433-0.453s-0.191-0.442-0.432-0.453l-0.001-0z"></path>
<path fill="#f6f6f6" d="M10.112 21.045c-0.001 0.589-0.478 1.066-1.067 1.068h-6.413c-0.59-0.001-1.067-0.479-1.069-1.068v-6.413c0.001-0.59 0.479-1.068 1.069-1.069h6.413c0.589 0.002 1.066 0.48 1.067 1.069v0z"></path>
<path fill="#fff" opacity="0.2" d="M5.301 14.632h4.809c-0.001-0.589-0.477-1.067-1.066-1.069h-6.413c-0.59 0.001-1.068 0.479-1.069 1.069v6.413c0.001 0.59 0.479 1.067 1.069 1.068h0.535v-5.344c0-0 0-0.001 0-0.001 0-1.179 0.956-2.135 2.135-2.136h0z"></path>
<path fill="#282828" d="M8.73 22.84h-5.821c-1.165-0.001-2.109-0.944-2.11-2.109v-5.822c0.001-1.165 0.945-2.108 2.11-2.109h5.821c1.165 0.001 2.109 0.944 2.11 2.109v5.822c-0.001 1.165-0.945 2.108-2.11 2.109h-0zM2.909 13.64c-0.701 0-1.269 0.568-1.27 1.269v5.822c0.001 0.701 0.569 1.269 1.27 1.269h5.821c0.701 0 1.269-0.568 1.27-1.269v-5.822c-0.001-0.701-0.569-1.269-1.27-1.269v0z"></path>
<path fill="#f6f6f6" d="M10.112 9.045c-0.001 0.589-0.478 1.066-1.067 1.068h-6.413c-0.59-0.001-1.067-0.479-1.069-1.068v-6.413c0.001-0.59 0.479-1.068 1.069-1.069h6.413c0.589 0.002 1.066 0.48 1.067 1.069v0z"></path>
<path fill="#fff" opacity="0.2" d="M5.301 2.632h4.809c-0.001-0.589-0.477-1.067-1.066-1.069h-6.413c-0.59 0.001-1.068 0.479-1.069 1.069v6.413c0.001 0.59 0.479 1.067 1.069 1.068h0.535v-5.344c0-0 0-0.001 0-0.001 0-1.179 0.956-2.135 2.135-2.136h0z"></path>
<path fill="#282828" d="M8.73 10.84h-5.821c-1.165-0.001-2.109-0.944-2.11-2.109v-5.822c0.001-1.165 0.945-2.108 2.11-2.109h5.821c1.165 0.001 2.109 0.944 2.11 2.109v5.822c-0.001 1.165-0.945 2.108-2.11 2.109h-0zM2.909 1.64c-0.701 0-1.269 0.568-1.27 1.269v5.822c0.001 0.701 0.569 1.269 1.27 1.269h5.821c0.701 0 1.269-0.568 1.27-1.269v-5.822c-0.001-0.701-0.569-1.269-1.27-1.269v0z"></path>
<path fill="#f6f6f6" d="M22.112 9.045c-0.001 0.589-0.478 1.066-1.067 1.068h-6.413c-0.59-0.001-1.067-0.479-1.069-1.068v-6.413c0.001-0.59 0.479-1.068 1.069-1.069h6.413c0.589 0.002 1.066 0.48 1.067 1.069v0z"></path>
<path fill="#fff" opacity="0.2" d="M17.301 2.632h4.809c-0.001-0.589-0.477-1.067-1.066-1.069h-6.413c-0.59 0.001-1.068 0.479-1.069 1.069v6.413c0.001 0.59 0.479 1.067 1.069 1.068h0.535v-5.344c0-0 0-0.001 0-0.001 0-1.179 0.956-2.135 2.135-2.136h0z"></path>
<path fill="#282828" d="M20.73 10.84h-5.821c-1.165-0.001-2.109-0.944-2.11-2.109v-5.822c0.001-1.165 0.945-2.108 2.11-2.109h5.821c1.165 0.001 2.109 0.944 2.11 2.109v5.822c-0.001 1.165-0.945 2.108-2.11 2.109h-0zM14.909 1.64c-0.701 0-1.269 0.568-1.27 1.269v5.822c0.001 0.701 0.569 1.269 1.27 1.269h5.821c0.701 0 1.269-0.568 1.27-1.269v-5.822c-0.001-0.701-0.569-1.269-1.27-1.269v0z"></path>
</svg>
<svg id="icon-icon_Notifications_HiFi-M_Active_24" width="24" height="24" viewBox="0 0 24 24" x="80" y="0">
<path fill="#282828" d="M20.552 16.824c-0.586-0.874-1.387-2.071-1.387-5.478v-1.535c-0.005-3.224-2.136-5.949-5.066-6.849l-0.051-0.013v-0.3c0-1.131-0.916-2.047-2.047-2.047s-2.047 0.916-2.047 2.047v0.3c-2.981 0.913-5.112 3.638-5.117 6.861v1.536c0 3.407-0.8 4.6-1.387 5.478-0.38 0.457-0.624 1.040-0.661 1.678l-0 0.008c0 1.668 3.478 2.254 6.3 2.455 0.396 1.256 1.55 2.15 2.913 2.15s2.517-0.895 2.908-2.129l0.006-0.022c2.82-0.2 6.3-0.787 6.3-2.455-0.038-0.646-0.283-1.229-0.668-1.691l0.004 0.005zM13.024 2.724c-0.308-0.052-0.662-0.082-1.023-0.082s-0.716 0.030-1.061 0.087l0.037-0.005v-0.077c0-0.565 0.458-1.023 1.023-1.023s1.023 0.458 1.023 1.023v0z"></path>
<path fill="#ffcf48" d="M12 22.092c-0.001 0-0.001 0-0.002 0-0.766 0-1.433-0.425-1.778-1.052l-0.005-0.010c0.725 0.031 1.355 0.039 1.786 0.039s1.061-0.008 1.786-0.039c-0.351 0.637-1.018 1.062-1.784 1.062-0.001 0-0.002 0-0.002 0h0z"></path>
<path fill="#ffcf48" d="M12 20.045c-4.687 0-8.188-0.811-8.188-1.535 0.042-0.433 0.219-0.818 0.489-1.119l-0.002 0.002c0.621-0.928 1.56-2.329 1.56-6.047v-1.535c0.044-3.358 2.776-6.063 6.141-6.063s6.096 2.705 6.14 6.058l0 0.004v1.535c0 3.718 0.939 5.12 1.56 6.047 0.268 0.299 0.445 0.684 0.486 1.109l0.001 0.008c0 0.727-3.501 1.535-8.187 1.535z"></path>
<path fill="#fff" opacity="0.2" d="M5.859 9.811v1.535c0 3.718-0.939 5.12-1.56 6.047-0.268 0.299-0.446 0.684-0.486 1.109l-0.001 0.008c0 0.42 1.182 0.868 3.085 1.171 0.056-0.374 0.157-0.71 0.3-1.024l-0.010 0.024c0.388-1.014 0.975-2.548 0.975-6.614v-1.681c0-3.7 1.722-6.716 3.838-6.716-3.39 0.003-6.138 2.751-6.141 6.141v0z"></path>
<path fill="#000" opacity="0.1" d="M19.7 17.393c-0.621-0.927-1.56-2.329-1.56-6.047v-1.535c-0.003-3.39-2.75-6.137-6.14-6.141h-0c2.116 0 3.838 3.013 3.838 6.716v1.679c0 4.067 0.587 5.6 0.975 6.614 0.133 0.29 0.234 0.626 0.287 0.979l0.003 0.021c1.9-0.3 3.085-0.751 3.085-1.171-0.042-0.432-0.22-0.817-0.49-1.117l0.002 0.002z"></path>
<path fill="#282828" d="M23.439 8.11c-0.065-0.188-0.24-0.321-0.447-0.321-0.26 0-0.471 0.211-0.471 0.471 0 0.054 0.009 0.105 0.025 0.153l-0.001-0.003c0.325 0.933 0.513 2.008 0.513 3.126s-0.188 2.194-0.534 3.195l0.021-0.069c-0.016 0.045-0.024 0.096-0.024 0.15 0 0.26 0.211 0.471 0.471 0.471 0.207 0 0.382-0.133 0.446-0.318l0.001-0.003c0.356-1.022 0.561-2.199 0.561-3.425s-0.206-2.403-0.584-3.5l0.023 0.075z"></path>
<path fill="#282828" d="M21.056 8.407c-0.19 0.064-0.325 0.24-0.325 0.449 0 0.054 0.009 0.106 0.026 0.155l-0.001-0.003c0.263 0.755 0.415 1.626 0.415 2.532s-0.152 1.776-0.432 2.587l0.017-0.056c-0.016 0.045-0.025 0.097-0.025 0.151 0 0.208 0.135 0.385 0.322 0.448l0.003 0.001c0.044 0.015 0.096 0.024 0.149 0.024h0c0 0 0 0 0 0 0.207 0 0.383-0.133 0.446-0.319l0.001-0.003c0.293-0.844 0.463-1.817 0.463-2.829s-0.169-1.985-0.482-2.891l0.019 0.062c-0.063-0.193-0.241-0.33-0.451-0.33-0.052 0-0.102 0.008-0.149 0.024l0.003-0.001z"></path>
<path fill="#282828" d="M0.942 11.535c0.001-1.119 0.189-2.194 0.533-3.196l-0.021 0.069c0.016-0.045 0.024-0.096 0.024-0.15 0-0.26-0.211-0.471-0.471-0.471-0.207 0-0.382 0.133-0.446 0.318l-0.001 0.003c-0.355 1.022-0.561 2.199-0.561 3.424s0.205 2.403 0.583 3.5l-0.023-0.075c0.065 0.188 0.24 0.321 0.447 0.321 0.26 0 0.471-0.211 0.471-0.471 0-0.054-0.009-0.105-0.025-0.153l0.001 0.003c-0.323-0.931-0.51-2.004-0.512-3.121v-0.001z"></path>
<path fill="#282828" d="M3.241 14.066c-0.263-0.755-0.415-1.626-0.415-2.532s0.152-1.776 0.432-2.587l-0.017 0.056c0.016-0.045 0.024-0.096 0.024-0.15 0-0.26-0.211-0.471-0.471-0.471-0.207 0-0.382 0.133-0.446 0.318l-0.001 0.003c-0.293 0.844-0.463 1.817-0.463 2.829s0.169 1.985 0.481 2.891l-0.019-0.062c0.064 0.189 0.24 0.323 0.447 0.323v0c0.053-0 0.105-0.009 0.152-0.025l-0.003 0.001c0.188-0.065 0.321-0.241 0.321-0.447 0-0.052-0.009-0.103-0.024-0.15l0.001 0.003z"></path>
</svg>
<svg id="icon-icon_Notifications_HiFi-M_Inactive_24" width="24" height="24" viewBox="0 0 24 24" x="120" y="0">
<path fill="#282828" d="M20.552 16.824c-0.586-0.874-1.387-2.071-1.387-5.478v-1.535c-0.005-3.224-2.136-5.949-5.066-6.849l-0.051-0.013v-0.3c0-1.131-0.916-2.047-2.047-2.047s-2.047 0.916-2.047 2.047v0.3c-2.981 0.913-5.112 3.638-5.117 6.861v1.536c0 3.407-0.8 4.6-1.387 5.478-0.38 0.457-0.624 1.040-0.661 1.678l-0 0.008c0 1.668 3.478 2.254 6.3 2.455 0.396 1.256 1.55 2.15 2.913 2.15s2.517-0.895 2.908-2.129l0.006-0.022c2.82-0.2 6.3-0.787 6.3-2.455-0.038-0.646-0.283-1.229-0.668-1.691l0.004 0.005zM13.024 2.724c-0.308-0.052-0.662-0.082-1.023-0.082s-0.716 0.030-1.061 0.087l0.037-0.005v-0.077c0-0.565 0.458-1.023 1.023-1.023s1.023 0.458 1.023 1.023v0z"></path>
<path fill="#f6f6f6" d="M12 22.092c-0.001 0-0.001 0-0.002 0-0.766 0-1.433-0.425-1.778-1.052l-0.005-0.010c0.725 0.031 1.355 0.039 1.786 0.039s1.061-0.008 1.786-0.039c-0.351 0.637-1.018 1.062-1.784 1.062-0.001 0-0.002 0-0.002 0h0z"></path>
<path fill="#f6f6f6" d="M12 20.045c-4.687 0-8.188-0.811-8.188-1.535 0.042-0.433 0.219-0.818 0.489-1.119l-0.002 0.002c0.621-0.928 1.56-2.329 1.56-6.047v-1.535c0.044-3.358 2.776-6.063 6.141-6.063s6.096 2.705 6.14 6.058l0 0.004v1.535c0 3.718 0.939 5.12 1.56 6.047 0.268 0.299 0.445 0.684 0.486 1.109l0.001 0.008c0 0.727-3.501 1.535-8.187 1.535z"></path>
<path fill="#fff" opacity="0.2" d="M5.859 9.811v1.535c0 3.718-0.939 5.12-1.56 6.047-0.268 0.299-0.446 0.684-0.486 1.109l-0.001 0.008c0 0.42 1.182 0.868 3.085 1.171 0.056-0.374 0.157-0.71 0.3-1.024l-0.010 0.024c0.388-1.014 0.975-2.548 0.975-6.614v-1.681c0-3.7 1.722-6.716 3.838-6.716-3.39 0.003-6.138 2.751-6.141 6.141v0z"></path>
<path fill="#282828" d="M23.439 8.11c-0.065-0.188-0.24-0.321-0.447-0.321-0.26 0-0.471 0.211-0.471 0.471 0 0.054 0.009 0.105 0.025 0.153l-0.001-0.003c0.325 0.933 0.513 2.008 0.513 3.126s-0.188 2.194-0.534 3.195l0.021-0.069c-0.016 0.045-0.024 0.096-0.024 0.15 0 0.26 0.211 0.471 0.471 0.471 0.207 0 0.382-0.133 0.446-0.318l0.001-0.003c0.356-1.022 0.561-2.199 0.561-3.425s-0.206-2.403-0.584-3.5l0.023 0.075z"></path>
<path fill="#282828" d="M21.056 8.407c-0.19 0.064-0.325 0.24-0.325 0.449 0 0.054 0.009 0.106 0.026 0.155l-0.001-0.003c0.263 0.755 0.415 1.626 0.415 2.532s-0.152 1.776-0.432 2.587l0.017-0.056c-0.016 0.045-0.025 0.097-0.025 0.151 0 0.208 0.135 0.385 0.322 0.448l0.003 0.001c0.044 0.015 0.096 0.024 0.149 0.024h0c0 0 0 0 0 0 0.207 0 0.383-0.133 0.446-0.319l0.001-0.003c0.293-0.844 0.463-1.817 0.463-2.829s-0.169-1.985-0.482-2.891l0.019 0.062c-0.063-0.193-0.241-0.33-0.451-0.33-0.052 0-0.102 0.008-0.149 0.024l0.003-0.001z"></path>
<path fill="#282828" d="M0.942 11.535c0.001-1.119 0.189-2.194 0.533-3.196l-0.021 0.069c0.016-0.045 0.024-0.096 0.024-0.15 0-0.26-0.211-0.471-0.471-0.471-0.207 0-0.382 0.133-0.446 0.318l-0.001 0.003c-0.355 1.022-0.561 2.199-0.561 3.424s0.205 2.403 0.583 3.5l-0.023-0.075c0.065 0.188 0.24 0.321 0.447 0.321 0.26 0 0.471-0.211 0.471-0.471 0-0.054-0.009-0.105-0.025-0.153l0.001 0.003c-0.323-0.931-0.51-2.004-0.512-3.121v-0.001z"></path>
<path fill="#282828" d="M3.241 14.066c-0.263-0.755-0.415-1.626-0.415-2.532s0.152-1.776 0.432-2.587l-0.017 0.056c0.016-0.045 0.024-0.096 0.024-0.15 0-0.26-0.211-0.471-0.471-0.471-0.207 0-0.382 0.133-0.446 0.318l-0.001 0.003c-0.293 0.844-0.463 1.817-0.463 2.829s0.169 1.985 0.481 2.891l-0.019-0.062c0.064 0.189 0.24 0.323 0.447 0.323v0c0.053-0 0.105-0.009 0.152-0.025l-0.003 0.001c0.188-0.065 0.321-0.241 0.321-0.447 0-0.052-0.009-0.103-0.024-0.15l0.001 0.003z"></path>
</svg>
<svg id="icon-icon_accounts_HiFi-M_Active_24" width="24" height="24" viewBox="0 0 24 24" x="160" y="0">
<path fill="#282828" d="M21.188 4.412c-0.002-1.111-0.901-2.010-2.012-2.012h-16.364c-1.111 0.002-2.010 0.901-2.012 2.012v13.016c1.408 1.408 2.616 2.616 3.823 3.823l0.201 0.201h16.364c1.111-0.002 2.010-0.901 2.012-2.012v-13.016c-0.002-1.111-0.901-2.010-2.012-2.012h-0z"></path>
<path fill="#ffcf48" d="M21.188 5.418v12.010c-0.002 1.111-0.901 2.010-2.012 2.012h-15.358c0 0.556 0.45 1.006 1.006 1.006v0h16.364c0.556 0 1.006-0.45 1.006-1.006v0-13.016c0-0.556-0.45-1.006-1.006-1.006v0z"></path>
<path fill="#ffcf48" d="M1.806 17.428v-13.016c0-0.556 0.45-1.006 1.006-1.006v0h16.364c0.556 0 1.006 0.45 1.006 1.006v0 13.016c0 0.556-0.45 1.006-1.006 1.006h-16.364c-0.556 0-1.006-0.45-1.006-1.006v0z"></path>
<path fill="#000" opacity="0.1" d="M21.188 5.418v12.010c-0.002 1.111-0.901 2.010-2.012 2.012h-15.358c0 0.556 0.45 1.006 1.006 1.006v0h14.352c1.666-0.002 3.016-1.352 3.018-3.018v-11c0-0.001 0-0.003 0-0.004 0-0.556-0.45-1.006-1.006-1.006 0 0 0 0 0 0v0z"></path>
<path fill="#282828" d="M9.854 9.002c0 1.111-0.901 2.012-2.012 2.012s-2.012-0.901-2.012-2.012c0-1.111 0.901-2.012 2.012-2.012s2.012 0.901 2.012 2.012z"></path>
<path fill="#fff" d="M8.848 9.002c0 0.556-0.45 1.006-1.006 1.006s-1.006-0.45-1.006-1.006c0-0.556 0.45-1.006 1.006-1.006s1.006 0.45 1.006 1.006z"></path>
<path fill="#282828" d="M10.845 12.259c-0.871-0.467-1.906-0.741-3.005-0.741s-2.134 0.274-3.040 0.758l0.035-0.017c-0.602 0.282-1.012 0.88-1.018 1.574v0.231c0.009 0.54 0.449 0.974 0.991 0.974 0.005 0 0.011-0 0.016-0h6.035c0.004 0 0.009 0 0.014 0 0.542 0 0.982-0.434 0.992-0.973l0-0.001v-0.23c-0.006-0.696-0.418-1.294-1.009-1.57l-0.011-0.005z"></path>
<path fill="#000" d="M9.478 7.834v0c0.24 0.326 0.384 0.735 0.384 1.179 0 1.105-0.895 2-2 2-0.376 0-0.727-0.104-1.027-0.284l0.009 0.005-0.006 0.006 0.781 0.781-0.013 0.013c0.081 0 0.156-0.018 0.238-0.018 1.098 0.027 2.126 0.297 3.041 0.76l-0.041-0.019c0.602 0.282 1.013 0.88 1.019 1.574v0.231c-0.010 0.54-0.45 0.974-0.992 0.974-0.005 0-0.010-0-0.015-0h-6.035c-0.001 0-0.002 0-0.004 0-0.274 0-0.524-0.109-0.707-0.285l0 0 3.3 3.68 10.534-0.006z"></path>
<path fill="#fff" d="M10.86 14.032l-6.036 0.032v-0.23c0.008-0.298 0.188-0.551 0.444-0.666l0.005-0.002c0.744-0.404 1.629-0.642 2.569-0.642s1.825 0.238 2.598 0.657l-0.029-0.014c0.261 0.117 0.441 0.37 0.449 0.667l0 0.001z"></path>
<path fill="#282828" d="M17.667 14.032h-4.292c-0.278 0-0.503 0.225-0.503 0.503s0.225 0.503 0.503 0.503v0h4.292c0.278 0 0.503-0.225 0.503-0.503s-0.225-0.503-0.503-0.503v0z"></path>
<path fill="#282828" d="M17.667 11.014h-4.292c-0.278 0-0.503 0.225-0.503 0.503s0.225 0.503 0.503 0.503v0h4.292c0.278 0 0.503-0.225 0.503-0.503s-0.225-0.503-0.503-0.503v0z"></path>
<path fill="#282828" d="M17.667 7.996h-4.292c-0.278 0-0.503 0.225-0.503 0.503s0.225 0.503 0.503 0.503v0h4.292c0.278 0 0.503-0.225 0.503-0.503s-0.225-0.503-0.503-0.503v0z"></path>
</svg>
<svg id="icon-icon_accounts_HiFi-M_InActive_24" width="24" height="24" viewBox="0 0 24 24" x="200" y="0">
<path fill="#282828" d="M21.188 4.412c-0.002-1.111-0.901-2.010-2.012-2.012h-16.364c-1.111 0.002-2.010 0.901-2.012 2.012v13.016c1.408 1.408 2.616 2.616 3.823 3.823l0.201 0.201h16.364c1.111-0.002 2.010-0.901 2.012-2.012v-13.016c-0.002-1.111-0.901-2.010-2.012-2.012h-0z"></path>
<path fill="#f6f6f6" d="M21.188 5.418v12.010c-0.002 1.111-0.901 2.010-2.012 2.012h-15.358c0 0.556 0.45 1.006 1.006 1.006v0h16.364c0.556 0 1.006-0.45 1.006-1.006v0-13.016c0-0.556-0.45-1.006-1.006-1.006v0z"></path>
<path fill="#f6f6f6" d="M1.806 17.428v-13.016c0-0.556 0.45-1.006 1.006-1.006v0h16.364c0.556 0 1.006 0.45 1.006 1.006v0 13.016c0 0.556-0.45 1.006-1.006 1.006h-16.364c-0.556 0-1.006-0.45-1.006-1.006v0z"></path>
<path fill="#000" opacity="0.1" d="M21.188 5.418v12.010c-0.002 1.111-0.901 2.010-2.012 2.012h-15.358c0 0.556 0.45 1.006 1.006 1.006v0h14.352c1.666-0.002 3.016-1.352 3.018-3.018v-11c0-0.001 0-0.003 0-0.004 0-0.556-0.45-1.006-1.006-1.006 0 0 0 0 0 0v0z"></path>
<path fill="#282828" d="M9.854 9.002c0 1.111-0.901 2.012-2.012 2.012s-2.012-0.901-2.012-2.012c0-1.111 0.901-2.012 2.012-2.012s2.012 0.901 2.012 2.012z"></path>
<path fill="#fff" d="M8.848 9.002c0 0.556-0.45 1.006-1.006 1.006s-1.006-0.45-1.006-1.006c0-0.556 0.45-1.006 1.006-1.006s1.006 0.45 1.006 1.006z"></path>
<path fill="#282828" d="M10.845 12.259c-0.871-0.467-1.906-0.741-3.005-0.741s-2.134 0.274-3.040 0.758l0.035-0.017c-0.602 0.282-1.012 0.88-1.018 1.574v0.231c0.009 0.54 0.449 0.974 0.991 0.974 0.005 0 0.011-0 0.016-0h6.035c0.004 0 0.009 0 0.014 0 0.542 0 0.982-0.434 0.992-0.973l0-0.001v-0.23c-0.006-0.696-0.418-1.294-1.009-1.57l-0.011-0.005z"></path>
<path fill="#000" d="M9.478 7.834v0c0.24 0.326 0.384 0.735 0.384 1.179 0 1.105-0.895 2-2 2-0.376 0-0.727-0.104-1.027-0.284l0.009 0.005-0.006 0.006 0.781 0.781-0.013 0.013c0.081 0 0.156-0.018 0.238-0.018 1.098 0.027 2.126 0.297 3.041 0.76l-0.041-0.019c0.602 0.282 1.013 0.88 1.019 1.574v0.231c-0.010 0.54-0.45 0.974-0.992 0.974-0.005 0-0.010-0-0.015-0h-6.035c-0.001 0-0.002 0-0.004 0-0.274 0-0.524-0.109-0.707-0.285l0 0 3.3 3.68 10.534-0.006z"></path>
<path fill="#fff" d="M10.86 14.032l-6.036 0.032v-0.23c0.008-0.298 0.188-0.551 0.444-0.666l0.005-0.002c0.744-0.404 1.629-0.642 2.569-0.642s1.825 0.238 2.598 0.657l-0.029-0.014c0.261 0.117 0.441 0.37 0.449 0.667l0 0.001z"></path>
<path fill="#282828" d="M17.667 14.032h-4.292c-0.278 0-0.503 0.225-0.503 0.503s0.225 0.503 0.503 0.503v0h4.292c0.278 0 0.503-0.225 0.503-0.503s-0.225-0.503-0.503-0.503v0z"></path>
<path fill="#282828" d="M17.667 11.014h-4.292c-0.278 0-0.503 0.225-0.503 0.503s0.225 0.503 0.503 0.503v0h4.292c0.278 0 0.503-0.225 0.503-0.503s-0.225-0.503-0.503-0.503v0z"></path>
<path fill="#282828" d="M17.667 7.996h-4.292c-0.278 0-0.503 0.225-0.503 0.503s0.225 0.503 0.503 0.503v0h4.292c0.278 0 0.503-0.225 0.503-0.503s-0.225-0.503-0.503-0.503v0z"></path>
</svg>
<svg id="icon-icon_Dashboard_HiFi-M_Active_24" width="24" height="24" viewBox="0 0 24 24" x="240" y="0">
<path fill="#49545e" d="M4.083 18.569h16.007c-1.945 2.258-4.808 3.679-8.004 3.679s-6.058-1.421-7.992-3.665l-0.012-0.014z"></path>
<path fill="#050605" opacity="0.2" d="M18.461 18.569c-1.774 2.067-4.319 3.428-7.184 3.634l-0.034 0.002c0.271 0.020 0.539 0.046 0.816 0.046 0.016 0 0.035 0 0.054 0 3.187 0 6.042-1.422 7.965-3.667l0.012-0.014z"></path>
<path fill="#ffcf48" d="M12 1.464c5.814-0.141 10.64 4.775 10.791 10.993 0 0.003 0 0.006 0 0.009 0 2.020-0.542 3.914-1.487 5.544l0.028-0.053h-18.658c-0.918-1.579-1.46-3.474-1.46-5.496 0-0.001 0-0.003 0-0.004v0c0.152-6.216 4.974-11.13 10.786-10.993z"></path>
<path fill="#050605" opacity="0.1" d="M3.232 14.517c0.153-6.218 4.976-11.134 10.787-10.993 2.479 0.003 4.758 0.857 6.561 2.286l-0.022-0.017c-1.964-2.631-5.065-4.318-8.56-4.329h-0.002c-5.811-0.141-10.635 4.775-10.787 10.993 0.002 2.021 0.545 3.916 1.492 5.546l-0.028-0.053h1.133c-0.356-1.023-0.566-2.202-0.574-3.429l-0-0.004z"></path>
<path fill="#282828" d="M8.519 5.104c0 0.313-0.265 0.566-0.593 0.566s-0.593-0.253-0.593-0.566c0-0.313 0.265-0.566 0.593-0.566s0.593 0.253 0.593 0.566z"></path>
<path fill="#282828" d="M12.661 4.042c0 0.313-0.265 0.566-0.593 0.566s-0.593-0.253-0.593-0.566c0-0.313 0.265-0.566 0.593-0.566s0.593 0.253 0.593 0.566z"></path>
<path fill="#282828" d="M5.491 8c0 0.313-0.265 0.566-0.593 0.566s-0.593-0.253-0.593-0.566c0-0.313 0.266-0.566 0.593-0.566s0.593 0.253 0.593 0.566z"></path>
<path fill="#282828" d="M4.376 11.96c0 0.313-0.265 0.566-0.593 0.566s-0.593-0.253-0.593-0.566c0-0.313 0.265-0.566 0.593-0.566s0.593 0.253 0.593 0.566z"></path>
<path fill="#282828" d="M20.946 11.96c0 0.313-0.265 0.566-0.593 0.566s-0.593-0.253-0.593-0.566c0-0.313 0.265-0.566 0.593-0.566s0.593 0.253 0.593 0.566z"></path>
<path fill="#282828" d="M19.83 8.002c0 0.313-0.265 0.566-0.593 0.566s-0.593-0.253-0.593-0.566c0-0.313 0.265-0.566 0.593-0.566s0.593 0.253 0.593 0.566z"></path>
<path fill="#282828" d="M16.804 5.103c0 0.313-0.265 0.566-0.593 0.566s-0.593-0.253-0.593-0.566c0-0.313 0.265-0.566 0.593-0.566s0.593 0.253 0.593 0.566z"></path>
<path fill="#282828" d="M13.209 10.056l-0.559-2.664c-0.067-0.264-0.302-0.456-0.582-0.456s-0.516 0.192-0.582 0.452l-0.001 0.004-0.559 2.664c-0.728 0.372-1.221 1.113-1.233 1.969l-0 0.002c0.060 1.265 1.1 2.268 2.374 2.268s2.315-1.003 2.374-2.263l0-0.005c-0.012-0.858-0.505-1.599-1.22-1.965l-0.013-0.006zM12.069 13.156c-0.601-0.031-1.076-0.525-1.076-1.131 0-0.625 0.507-1.132 1.132-1.132s1.132 0.507 1.132 1.132v0c-0.014 0.63-0.528 1.134-1.16 1.134-0.010 0-0.020-0-0.030-0l0.001 0z"></path>
<path fill="#282828" d="M12 0.8c-6.186 0-11.2 5.014-11.2 11.2s5.014 11.2 11.2 11.2c6.186 0 11.2-5.014 11.2-11.2v0c-0.007-6.183-5.017-11.193-11.199-11.2h-0.001zM12 1.853c0.003 0 0.008 0 0.012 0 5.599 0 10.138 4.539 10.138 10.138 0 2.145-0.666 4.134-1.803 5.772l0.022-0.033h-16.738c-1.115-1.605-1.781-3.594-1.781-5.739 0-5.599 4.539-10.138 10.138-10.138 0.004 0 0.008 0 0.012 0h-0.001zM12 22.153c-2.986-0.002-5.669-1.298-7.52-3.357l-0.008-0.009h15.056c-1.86 2.066-4.543 3.36-7.528 3.361h-0z"></path>
</svg>
<svg id="icon-icon_Dashboard_HiFi-M_InActive_24" width="24" height="24" viewBox="0 0 24 24" x="280" y="0">
<path fill="#f6f6f6" d="M4.083 18.569h16.007c-1.945 2.258-4.808 3.679-8.004 3.679s-6.058-1.421-7.992-3.665l-0.012-0.014z"></path>
<path fill="#f6f6f6" d="M11.999 1.464c5.814-0.141 10.64 4.775 10.791 10.993 0 0.003 0 0.006 0 0.009 0 2.020-0.542 3.914-1.487 5.544l0.028-0.053h-18.658c-0.918-1.579-1.46-3.474-1.46-5.496 0-0.001 0-0.003 0-0.004v0c0.152-6.216 4.974-11.13 10.786-10.993z"></path>
<path fill="#282828" d="M8.519 5.104c0 0.313-0.265 0.566-0.593 0.566s-0.593-0.253-0.593-0.566c0-0.313 0.265-0.566 0.593-0.566s0.593 0.253 0.593 0.566z"></path>
<path fill="#282828" d="M12.661 4.042c0 0.313-0.265 0.566-0.593 0.566s-0.593-0.253-0.593-0.566c0-0.313 0.265-0.566 0.593-0.566s0.593 0.253 0.593 0.566z"></path>
<path fill="#282828" d="M5.491 8c0 0.313-0.265 0.566-0.593 0.566s-0.593-0.253-0.593-0.566c0-0.313 0.266-0.566 0.593-0.566s0.593 0.253 0.593 0.566z"></path>
<path fill="#282828" d="M4.376 11.96c0 0.313-0.265 0.566-0.593 0.566s-0.593-0.253-0.593-0.566c0-0.313 0.265-0.566 0.593-0.566s0.593 0.253 0.593 0.566z"></path>
<path fill="#282828" d="M20.946 11.96c0 0.313-0.265 0.566-0.593 0.566s-0.593-0.253-0.593-0.566c0-0.313 0.265-0.566 0.593-0.566s0.593 0.253 0.593 0.566z"></path>
<path fill="#282828" d="M19.83 8.002c0 0.313-0.265 0.566-0.593 0.566s-0.593-0.253-0.593-0.566c0-0.313 0.265-0.566 0.593-0.566s0.593 0.253 0.593 0.566z"></path>
<path fill="#282828" d="M16.804 5.103c0 0.313-0.265 0.566-0.593 0.566s-0.593-0.253-0.593-0.566c0-0.313 0.265-0.566 0.593-0.566s0.593 0.253 0.593 0.566z"></path>
<path fill="#282828" d="M13.209 10.056l-0.559-2.664c-0.067-0.264-0.302-0.456-0.582-0.456s-0.516 0.192-0.582 0.452l-0.001 0.004-0.559 2.664c-0.728 0.372-1.221 1.113-1.233 1.969l-0 0.002c0.060 1.265 1.1 2.268 2.374 2.268s2.315-1.003 2.374-2.263l0-0.005c-0.012-0.858-0.505-1.599-1.22-1.965l-0.013-0.006zM12.069 13.156c-0.601-0.031-1.076-0.525-1.076-1.131 0-0.625 0.507-1.132 1.132-1.132s1.132 0.507 1.132 1.132v0c-0.014 0.63-0.528 1.134-1.16 1.134-0.010 0-0.020-0-0.030-0l0.001 0z"></path>
<path fill="#282828" d="M12 0.8c-6.186 0-11.2 5.014-11.2 11.2s5.014 11.2 11.2 11.2c6.186 0 11.2-5.014 11.2-11.2v0c-0.007-6.183-5.017-11.193-11.199-11.2h-0.001zM12 1.853c0.003 0 0.008 0 0.012 0 5.599 0 10.138 4.539 10.138 10.138 0 2.145-0.666 4.134-1.803 5.772l0.022-0.033h-16.738c-1.115-1.605-1.781-3.594-1.781-5.739 0-5.599 4.539-10.138 10.138-10.138 0.004 0 0.008 0 0.012 0h-0.001zM12 22.153c-2.986-0.002-5.669-1.298-7.52-3.357l-0.008-0.009h15.056c-1.86 2.066-4.543 3.36-7.528 3.361h-0z"></path>
</svg>
<svg id="icon-icon_GamePlan_HiFi-M_Active_24" width="24" height="24" viewBox="0 0 24 24" x="320" y="0">
<path fill="#282828" d="M23.197 1.338c0.003-0.021 0.005-0.046 0.005-0.071 0-0.258-0.209-0.467-0.467-0.467-0.053 0-0.104 0.009-0.152 0.025l0.003-0.001c-0.028 0.009-2.832 0.91-9.187 0.91-4.332-0.077-8.508-0.412-12.606-0.992l0.539 0.063c-0.021-0.003-0.044-0.005-0.069-0.005-0.143 0-0.271 0.065-0.356 0.167l-0.001 0.001c-0.067 0.080-0.108 0.184-0.108 0.298 0 0.054 0.009 0.105 0.026 0.153l-0.001-0.003c0.577 1.883 0.909 4.047 0.909 6.288 0 0.033-0 0.067-0 0.1l0-0.005c0 0.219 0.152 0.403 0.356 0.453l0.003 0.001c1.387 0.204 2.44 1.385 2.441 2.813v0c0 1.768-0.755 2.658-2.374 2.8-0.24 0.022-0.426 0.222-0.426 0.465v0c0.002 0.142 0.003 0.31 0.003 0.477 0 2.766-0.335 5.453-0.967 8.024l0.048-0.23c-0.011 0.038-0.018 0.082-0.018 0.127 0 0.258 0.209 0.467 0.467 0.467 0.029 0 0.058-0.003 0.086-0.008l-0.003 0c2.257-0.441 4.953-0.772 7.697-0.919l0.153-0.007c4.128 0 13.394 0.921 13.487 0.931h0.047c0.258-0 0.466-0.209 0.466-0.467 0-0.027-0.002-0.053-0.007-0.079l0 0.003c-0.544-3.31-0.879-7.158-0.927-11.074l-0-0.049c0.116-3.705 0.45-7.222 0.992-10.67l-0.062 0.479z"></path>
<path fill="#ffcf48" d="M9.2 21.333c-2.676 0.119-5.19 0.412-7.645 0.87l0.335-0.052c0.488-2.225 0.77-4.782 0.775-7.404v-0.003c1.836-0.315 2.8-1.578 2.8-3.677 0-0.014 0-0.030 0-0.046 0-1.721-1.18-3.167-2.775-3.572l-0.025-0.005c-0.029-2.009-0.3-3.941-0.786-5.786l0.037 0.167c3.39 0.473 7.368 0.777 11.404 0.842l0.081 0.001c0.271 0.007 0.589 0.010 0.909 0.010 2.782 0 5.498-0.283 8.12-0.823l-0.259 0.045c-0.441 2.817-0.742 6.145-0.835 9.524l-0.002 0.11c0.043 3.804 0.349 7.499 0.901 11.113l-0.055-0.437c-2.134-0.2-9.422-0.877-12.98-0.877z"></path>
<path fill="#fff" opacity="0.2" d="M9.537 21.333h-0.085c0.745 0.006 1.628 0.037 2.585 0.086-0.939-0.052-1.8-0.086-2.5-0.086z"></path>
<path fill="#000" opacity="0.1" d="M20.945 2.139c-0.375 2.743-0.631 5.994-0.707 9.29l-0.002 0.104c0.037 3.762 0.302 7.423 0.783 11.017l-0.050-0.454 1.212 0.114c-0.497-3.177-0.804-6.872-0.847-10.631l-0-0.046c0.095-3.489 0.396-6.817 0.893-10.080l-0.056 0.446c-0.306 0.070-0.713 0.154-1.226 0.24z"></path>
<path fill="#fff" opacity="0.2" d="M12.035 2.648c0.4 0.011 0.807 0.019 1.2 0.019h0.058c-0.413-0.002-0.835-0.009-1.258-0.019z"></path>
<path fill="#fff" opacity="0.2" d="M2.668 14.743c-0.005 2.625-0.287 5.182-0.818 7.647l0.043-0.24c0.324-0.055 0.755-0.125 1.234-0.2 0.406-2.165 0.641-4.657 0.646-7.204v-0.004c1.619-0.315 2.471-1.578 2.471-3.677 0.003-0.051 0.004-0.112 0.004-0.172 0-1.595-1.026-2.95-2.454-3.442l-0.026-0.008c-0.025-1.951-0.252-3.835-0.662-5.65l0.034 0.181c-0.49-0.057-0.91-0.109-1.228-0.15 0.449 1.678 0.72 3.61 0.749 5.601l0 0.018c1.62 0.411 2.8 1.856 2.8 3.577 0 0.016-0 0.032-0 0.048l0-0.002c0.007 2.099-0.961 3.362-2.793 3.677z"></path>
<path fill="#282828" d="M19.467 18.533c0 1.031-0.836 1.867-1.867 1.867s-1.867-0.836-1.867-1.867c0-1.031 0.836-1.867 1.867-1.867s1.867 0.836 1.867 1.867z"></path>
<path fill="#e7633f" d="M18.533 18.532c0 0.515-0.418 0.933-0.933 0.933s-0.933-0.418-0.933-0.933c0-0.515 0.418-0.933 0.933-0.933s0.933 0.418 0.933 0.933z"></path>
<path fill="#282828" d="M7.138 16.201c-0.012-0.248-0.216-0.445-0.466-0.445s-0.455 0.197-0.466 0.444l-0 0.001c0.005 0.386 0.078 0.754 0.207 1.094l-0.007-0.022c0.067 0.181 0.238 0.308 0.439 0.308v0c0 0 0.001 0 0.001 0 0.057 0 0.111-0.010 0.161-0.029l-0.003 0.001c0.181-0.067 0.309-0.238 0.309-0.439 0-0.058-0.010-0.113-0.030-0.164l0.001 0.003c-0.087-0.223-0.14-0.48-0.145-0.75l-0-0.002z"></path>
<path fill="#282828" d="M9.875 6.555c0.109-0 0.209-0.038 0.288-0.101l-0.001 0.001c0.402-0.303 0.875-0.539 1.388-0.678l0.029-0.007c0.198-0.058 0.339-0.237 0.339-0.45 0-0.258-0.21-0.468-0.468-0.468-0.046 0-0.090 0.007-0.132 0.019l0.003-0.001c-0.664 0.181-1.243 0.472-1.748 0.856l0.012-0.009c-0.109 0.086-0.178 0.219-0.178 0.367 0 0.258 0.209 0.467 0.466 0.467h0z"></path>
<path fill="#282828" d="M9.472 18.533c-0.010 0-0.022 0-0.034 0-0.481 0-0.927-0.153-1.291-0.412l0.007 0.005c-0.072-0.047-0.159-0.075-0.254-0.075-0.258 0-0.467 0.209-0.467 0.467 0 0.149 0.070 0.283 0.179 0.368l0.001 0.001c0.513 0.363 1.152 0.58 1.841 0.58 0.032 0 0.064-0 0.097-0.001l-0.005 0c0.238-0.003 0.43-0.197 0.43-0.436 0-0.011-0-0.022-0.001-0.032l0 0.001c-0.018-0.261-0.235-0.466-0.499-0.466-0.002 0-0.004 0-0.005 0h0z"></path>
<path fill="#282828" d="M8.539 9.672v0c0.258-0.003 0.466-0.213 0.466-0.471 0-0 0-0.001 0-0.001v0c-0.001-0.024-0.001-0.053-0.001-0.082 0-0.526 0.096-1.029 0.272-1.493l-0.010 0.029c0.021-0.051 0.033-0.11 0.033-0.171 0-0.258-0.209-0.467-0.467-0.467-0.196 0-0.364 0.121-0.433 0.292l-0.001 0.003c-0.206 0.535-0.325 1.154-0.325 1.801 0 0.035 0 0.070 0.001 0.104l-0-0.005c0.001 0.255 0.207 0.461 0.462 0.461 0.001 0 0.002 0 0.003 0h-0z"></path>
<path fill="#282828" d="M10.372 11.664c-0.457-0.199-0.824-0.534-1.057-0.953l-0.006-0.011c-0.077-0.158-0.237-0.264-0.421-0.264-0.258 0-0.467 0.209-0.467 0.467 0 0.085 0.022 0.164 0.062 0.232l-0.001-0.002c0.333 0.609 0.845 1.085 1.464 1.364l0.020 0.008c0.064 0.036 0.141 0.057 0.223 0.057 0.258 0 0.467-0.209 0.467-0.467 0-0.192-0.115-0.356-0.281-0.428l-0.003-0.001z"></path>
<path fill="#282828" d="M13.223 5.498c0.193-0.024 0.416-0.037 0.643-0.037 0.344 0 0.68 0.031 1.006 0.090l-0.034-0.005c0.032 0.008 0.069 0.013 0.108 0.013 0.001 0 0.002 0 0.002 0h-0c0.256-0.002 0.463-0.211 0.463-0.467 0-0.218-0.149-0.401-0.35-0.452l-0.003-0.001c-0.358-0.071-0.77-0.111-1.191-0.111-0.25 0-0.496 0.014-0.738 0.042l0.030-0.003c-0.243 0.018-0.433 0.219-0.433 0.465 0 0.012 0 0.025 0.001 0.037l-0-0.002c0.015 0.242 0.215 0.433 0.459 0.433 0.014 0 0.027-0.001 0.041-0.002l-0.002 0z"></path>
<path fill="#282828" d="M13.724 13.067c-0.493-0.387-1.079-0.682-1.716-0.846l-0.033-0.007c-0.041-0.013-0.088-0.021-0.138-0.021-0.257 0-0.466 0.209-0.466 0.466 0 0.208 0.137 0.385 0.325 0.445l0.003 0.001c0.538 0.135 1.010 0.364 1.419 0.67l-0.010-0.007c0.085 0.085 0.202 0.138 0.332 0.138 0.258 0 0.467-0.209 0.467-0.467 0-0.151-0.072-0.285-0.183-0.37l-0.001-0.001z"></path>
<path fill="#282828" d="M14.092 14.506c-0.242 0.019-0.431 0.22-0.431 0.466 0 0.012 0 0.024 0.001 0.036l-0-0.002c0.006 0.084 0.010 0.17 0.010 0.261 0 0.019 0.001 0.042 0.001 0.065 0 0.437-0.071 0.858-0.203 1.251l0.008-0.028c-0.022 0.052-0.035 0.113-0.035 0.177 0 0.258 0.209 0.467 0.467 0.467 0.212 0 0.391-0.141 0.448-0.335l0.001-0.003c0.156-0.457 0.246-0.983 0.246-1.53 0-0.023-0-0.046-0-0.069l0 0.003c0-0.115 0-0.226-0.012-0.332-0.021-0.241-0.222-0.429-0.466-0.429-0.012 0-0.024 0-0.036 0.001l0.002-0z"></path>
<path fill="#282828" d="M12.622 17.745c-0.403 0.293-0.882 0.509-1.4 0.615l-0.024 0.004c-0.205 0.052-0.355 0.235-0.355 0.453 0 0.258 0.209 0.467 0.467 0.467 0.033 0 0.065-0.003 0.096-0.010l-0.003 0.001c0.68-0.142 1.28-0.416 1.797-0.796l-0.013 0.009c0.105-0.086 0.171-0.216 0.171-0.362 0-0.258-0.209-0.467-0.467-0.467-0.101 0-0.194 0.032-0.271 0.087l0.001-0.001z"></path>
<path fill="#282828" d="M16.493 7.006c0.065 0.185 0.238 0.315 0.442 0.315 0.258 0 0.467-0.209 0.467-0.467 0-0.045-0.006-0.089-0.019-0.131l0.001 0.003c-0.132-0.368-0.315-0.685-0.545-0.963l0.004 0.005c-0.086-0.097-0.211-0.157-0.349-0.157-0.258 0-0.467 0.209-0.467 0.467 0 0.104 0.034 0.2 0.091 0.277l-0.001-0.001c0.153 0.186 0.28 0.402 0.371 0.635l0.005 0.016z"></path>
<path fill="#282828" d="M18.223 12.020c0.081 0.101 0.202 0.167 0.338 0.174l0.001 0h0.026c0.129 0 0.246-0.052 0.33-0.137v0l0.412-0.412c0.085-0.085 0.137-0.201 0.137-0.33 0-0.147-0.068-0.278-0.174-0.364l-0.001-0.001-1.606-1.285 1.606-1.285c0.107-0.086 0.175-0.217 0.175-0.365 0-0.129-0.052-0.246-0.137-0.33v0l-0.412-0.412c-0.087-0.084-0.206-0.136-0.338-0.136-0.006 0-0.013 0-0.019 0l0.001-0c-0.137 0.008-0.258 0.074-0.338 0.173l-0.001 0.001-1.284 1.606-1.284-1.606c-0.081-0.101-0.202-0.166-0.338-0.174l-0.001-0c-0.004-0-0.008-0-0.013-0-0.133 0-0.254 0.052-0.343 0.136l-0.412 0.412c-0.085 0.085-0.137 0.201-0.137 0.33 0 0.147 0.068 0.278 0.174 0.364l0.001 0.001 1.606 1.285-1.606 1.285c-0.107 0.086-0.175 0.217-0.175 0.364 0 0.129 0.052 0.246 0.137 0.33v0l0.412 0.412c0.084 0.085 0.201 0.137 0.33 0.137h0.026c0.137-0.008 0.258-0.073 0.338-0.173l0.001-0.001 1.284-1.606z"></path>
</svg>
<svg id="icon-icon_GamePlan_HiFi-M_InActive_24" width="24" height="24" viewBox="0 0 24 24" x="360" y="0">
<path fill="#282828" d="M23.197 1.338c0.003-0.021 0.005-0.046 0.005-0.071 0-0.258-0.209-0.467-0.467-0.467-0.053 0-0.104 0.009-0.152 0.025l0.003-0.001c-0.028 0.009-2.832 0.91-9.187 0.91-4.332-0.077-8.508-0.412-12.606-0.992l0.539 0.063c-0.021-0.003-0.044-0.005-0.069-0.005-0.143 0-0.271 0.065-0.356 0.167l-0.001 0.001c-0.067 0.080-0.108 0.184-0.108 0.298 0 0.054 0.009 0.105 0.026 0.153l-0.001-0.003c0.577 1.883 0.909 4.047 0.909 6.288 0 0.033-0 0.067-0 0.1l0-0.005c0 0.219 0.152 0.403 0.356 0.453l0.003 0.001c1.387 0.204 2.44 1.385 2.441 2.813v0c0 1.768-0.755 2.658-2.374 2.8-0.24 0.022-0.426 0.222-0.426 0.465v0c0.002 0.142 0.003 0.31 0.003 0.477 0 2.766-0.335 5.453-0.967 8.024l0.048-0.23c-0.011 0.038-0.018 0.082-0.018 0.127 0 0.258 0.209 0.467 0.467 0.467 0.029 0 0.058-0.003 0.086-0.008l-0.003 0c2.257-0.441 4.953-0.772 7.697-0.919l0.153-0.007c4.128 0 13.394 0.921 13.487 0.931h0.047c0.258-0 0.466-0.209 0.466-0.467 0-0.027-0.002-0.053-0.007-0.079l0 0.003c-0.544-3.31-0.879-7.158-0.927-11.074l-0-0.049c0.116-3.705 0.45-7.222 0.992-10.67l-0.062 0.479z"></path>
<path fill="#f6f6f6" d="M9.2 21.333c-2.676 0.119-5.19 0.412-7.645 0.87l0.335-0.052c0.488-2.225 0.77-4.782 0.775-7.404v-0.003c1.836-0.315 2.8-1.578 2.8-3.677 0-0.014 0-0.030 0-0.046 0-1.721-1.18-3.167-2.775-3.572l-0.025-0.005c-0.029-2.009-0.3-3.941-0.786-5.786l0.037 0.167c3.39 0.473 7.368 0.777 11.404 0.842l0.081 0.001c0.271 0.007 0.589 0.010 0.909 0.010 2.782 0 5.498-0.283 8.12-0.823l-0.259 0.045c-0.441 2.817-0.742 6.145-0.835 9.524l-0.002 0.11c0.043 3.804 0.349 7.499 0.901 11.113l-0.055-0.437c-2.134-0.2-9.422-0.877-12.98-0.877z"></path>
<path fill="#fff" opacity="0.2" d="M9.537 21.333h-0.085c0.745 0.006 1.628 0.037 2.585 0.086-0.939-0.052-1.8-0.086-2.5-0.086z"></path>
<path fill="#fff" opacity="0.2" d="M12.035 2.648c0.4 0.011 0.807 0.019 1.2 0.019h0.058c-0.413-0.002-0.835-0.009-1.258-0.019z"></path>
<path fill="#fff" opacity="0.2" d="M2.668 14.743c-0.005 2.625-0.287 5.182-0.818 7.647l0.043-0.24c0.324-0.055 0.755-0.125 1.234-0.2 0.406-2.165 0.641-4.657 0.646-7.204v-0.004c1.619-0.315 2.471-1.578 2.471-3.677 0.003-0.051 0.004-0.112 0.004-0.172 0-1.595-1.026-2.95-2.454-3.442l-0.026-0.008c-0.025-1.951-0.252-3.835-0.662-5.65l0.034 0.181c-0.49-0.057-0.91-0.109-1.228-0.15 0.449 1.678 0.72 3.61 0.749 5.601l0 0.018c1.62 0.411 2.8 1.856 2.8 3.577 0 0.016-0 0.032-0 0.048l0-0.002c0.007 2.099-0.961 3.362-2.793 3.677z"></path>
<path fill="#282828" d="M19.467 18.533c0 1.031-0.836 1.867-1.867 1.867s-1.867-0.836-1.867-1.867c0-1.031 0.836-1.867 1.867-1.867s1.867 0.836 1.867 1.867z"></path>
<path fill="#f6f6f6" d="M18.533 18.532c0 0.515-0.418 0.933-0.933 0.933s-0.933-0.418-0.933-0.933c0-0.515 0.418-0.933 0.933-0.933s0.933 0.418 0.933 0.933z"></path>
<path fill="#282828" d="M7.138 16.201c-0.012-0.248-0.216-0.445-0.466-0.445s-0.455 0.197-0.466 0.444l-0 0.001c0.005 0.386 0.078 0.754 0.207 1.094l-0.007-0.022c0.067 0.181 0.238 0.308 0.439 0.308v0c0 0 0.001 0 0.001 0 0.057 0 0.111-0.010 0.161-0.029l-0.003 0.001c0.181-0.067 0.309-0.238 0.309-0.439 0-0.058-0.010-0.113-0.030-0.164l0.001 0.003c-0.087-0.223-0.14-0.48-0.145-0.75l-0-0.002z"></path>
<path fill="#282828" d="M9.875 6.555c0.109-0 0.209-0.038 0.288-0.101l-0.001 0.001c0.402-0.303 0.875-0.539 1.388-0.678l0.029-0.007c0.198-0.058 0.339-0.237 0.339-0.45 0-0.258-0.21-0.468-0.468-0.468-0.046 0-0.090 0.007-0.132 0.019l0.003-0.001c-0.664 0.181-1.243 0.472-1.748 0.856l0.012-0.009c-0.109 0.086-0.178 0.219-0.178 0.367 0 0.258 0.209 0.467 0.466 0.467h0z"></path>
<path fill="#282828" d="M9.472 18.533c-0.010 0-0.022 0-0.034 0-0.481 0-0.927-0.153-1.291-0.412l0.007 0.005c-0.072-0.047-0.159-0.075-0.254-0.075-0.258 0-0.467 0.209-0.467 0.467 0 0.149 0.070 0.283 0.179 0.368l0.001 0.001c0.513 0.363 1.152 0.58 1.841 0.58 0.032 0 0.064-0 0.097-0.001l-0.005 0c0.238-0.003 0.43-0.197 0.43-0.436 0-0.011-0-0.022-0.001-0.032l0 0.001c-0.018-0.261-0.235-0.466-0.499-0.466-0.002 0-0.004 0-0.005 0h0z"></path>
<path fill="#282828" d="M8.539 9.672v0c0.258-0.003 0.466-0.213 0.466-0.471 0-0 0-0.001 0-0.001v0c-0.001-0.024-0.001-0.053-0.001-0.082 0-0.526 0.096-1.029 0.272-1.493l-0.010 0.029c0.021-0.051 0.033-0.11 0.033-0.171 0-0.258-0.209-0.467-0.467-0.467-0.196 0-0.364 0.121-0.433 0.292l-0.001 0.003c-0.206 0.535-0.325 1.154-0.325 1.801 0 0.035 0 0.070 0.001 0.104l-0-0.005c0.001 0.255 0.207 0.461 0.462 0.461 0.001 0 0.002 0 0.003 0h-0z"></path>
<path fill="#282828" d="M10.372 11.664c-0.457-0.199-0.824-0.534-1.057-0.953l-0.006-0.011c-0.077-0.158-0.237-0.264-0.421-0.264-0.258 0-0.467 0.209-0.467 0.467 0 0.085 0.022 0.164 0.062 0.232l-0.001-0.002c0.333 0.609 0.845 1.085 1.464 1.364l0.020 0.008c0.064 0.036 0.141 0.057 0.223 0.057 0.258 0 0.467-0.209 0.467-0.467 0-0.192-0.115-0.356-0.281-0.428l-0.003-0.001z"></path>
<path fill="#282828" d="M13.223 5.498c0.193-0.024 0.416-0.037 0.643-0.037 0.344 0 0.68 0.031 1.006 0.090l-0.034-0.005c0.032 0.008 0.069 0.013 0.108 0.013 0.001 0 0.002 0 0.002 0h-0c0.256-0.002 0.463-0.211 0.463-0.467 0-0.218-0.149-0.401-0.35-0.452l-0.003-0.001c-0.358-0.071-0.77-0.111-1.191-0.111-0.25 0-0.496 0.014-0.738 0.042l0.030-0.003c-0.243 0.018-0.433 0.219-0.433 0.465 0 0.012 0 0.025 0.001 0.037l-0-0.002c0.015 0.242 0.215 0.433 0.459 0.433 0.014 0 0.027-0.001 0.041-0.002l-0.002 0z"></path>
<path fill="#282828" d="M13.724 13.067c-0.493-0.387-1.079-0.682-1.716-0.846l-0.033-0.007c-0.041-0.013-0.088-0.021-0.138-0.021-0.257 0-0.466 0.209-0.466 0.466 0 0.208 0.137 0.385 0.325 0.445l0.003 0.001c0.538 0.135 1.010 0.364 1.419 0.67l-0.010-0.007c0.085 0.085 0.202 0.138 0.332 0.138 0.258 0 0.467-0.209 0.467-0.467 0-0.151-0.072-0.285-0.183-0.37l-0.001-0.001z"></path>
<path fill="#282828" d="M14.092 14.506c-0.242 0.019-0.431 0.22-0.431 0.466 0 0.012 0 0.024 0.001 0.036l-0-0.002c0.006 0.084 0.010 0.17 0.010 0.261 0 0.019 0.001 0.042 0.001 0.065 0 0.437-0.071 0.858-0.203 1.251l0.008-0.028c-0.022 0.052-0.035 0.113-0.035 0.177 0 0.258 0.209 0.467 0.467 0.467 0.212 0 0.391-0.141 0.448-0.335l0.001-0.003c0.156-0.457 0.246-0.983 0.246-1.53 0-0.023-0-0.046-0-0.069l0 0.003c0-0.115 0-0.226-0.012-0.332-0.021-0.241-0.222-0.429-0.466-0.429-0.012 0-0.024 0-0.036 0.001l0.002-0z"></path>
<path fill="#282828" d="M12.622 17.745c-0.403 0.293-0.882 0.509-1.4 0.615l-0.024 0.004c-0.205 0.052-0.355 0.235-0.355 0.453 0 0.258 0.209 0.467 0.467 0.467 0.033 0 0.065-0.003 0.096-0.010l-0.003 0.001c0.68-0.142 1.28-0.416 1.797-0.796l-0.013 0.009c0.105-0.086 0.171-0.216 0.171-0.362 0-0.258-0.209-0.467-0.467-0.467-0.101 0-0.194 0.032-0.271 0.087l0.001-0.001z"></path>
<path fill="#282828" d="M16.493 7.006c0.065 0.185 0.238 0.315 0.442 0.315 0.258 0 0.467-0.209 0.467-0.467 0-0.045-0.006-0.089-0.019-0.131l0.001 0.003c-0.132-0.368-0.315-0.685-0.545-0.963l0.004 0.005c-0.086-0.097-0.211-0.157-0.349-0.157-0.258 0-0.467 0.209-0.467 0.467 0 0.104 0.034 0.2 0.091 0.277l-0.001-0.001c0.153 0.186 0.28 0.402 0.371 0.635l0.005 0.016z"></path>
<path fill="#282828" d="M18.223 12.020c0.081 0.101 0.202 0.167 0.338 0.174l0.001 0h0.026c0.129 0 0.246-0.052 0.33-0.137v0l0.412-0.412c0.085-0.085 0.137-0.201 0.137-0.33 0-0.147-0.068-0.278-0.174-0.364l-0.001-0.001-1.606-1.285 1.606-1.285c0.107-0.086 0.175-0.217 0.175-0.365 0-0.129-0.052-0.246-0.137-0.33v0l-0.412-0.412c-0.087-0.084-0.206-0.136-0.338-0.136-0.006 0-0.013 0-0.019 0l0.001-0c-0.137 0.008-0.258 0.074-0.338 0.173l-0.001 0.001-1.284 1.606-1.284-1.606c-0.081-0.101-0.202-0.166-0.338-0.174l-0.001-0c-0.004-0-0.008-0-0.013-0-0.133 0-0.254 0.052-0.343 0.136l-0.412 0.412c-0.085 0.085-0.137 0.201-0.137 0.33 0 0.147 0.068 0.278 0.174 0.364l0.001 0.001 1.606 1.285-1.606 1.285c-0.107 0.086-0.175 0.217-0.175 0.364 0 0.129 0.052 0.246 0.137 0.33v0l0.412 0.412c0.084 0.085 0.201 0.137 0.33 0.137h0.026c0.137-0.008 0.258-0.073 0.338-0.173l0.001-0.001 1.284-1.606z"></path>
</svg>
<svg id="icon-icon_Messages_HiFi-M_Active_24" width="24" height="24" viewBox="0 0 24 24" x="400" y="0">
<path fill="#282828" d="M1.309 23.2c0 0 0 0 0 0-0.281 0-0.508-0.227-0.509-0.508v-19.856c0.001-1.124 0.912-2.035 2.036-2.036h18.329c1.124 0.002 2.034 0.912 2.035 2.036v13.237c-0.001 1.124-0.912 2.035-2.036 2.036h-14.553l-4.942 4.943c-0.092 0.091-0.219 0.148-0.359 0.148-0 0-0.001 0-0.001 0h0z"></path>
<path fill="#ffcf48" d="M2.87 1.855c0 0 0 0 0 0-0.56 0-1.014 0.453-1.015 1.013v18.533l4.207-4.2c0.092-0.091 0.218-0.148 0.358-0.148 0 0 0.001 0 0.001 0h14.711c0 0 0 0 0 0 0.56 0 1.014-0.453 1.015-1.013v-13.172c-0.001-0.56-0.455-1.013-1.015-1.013 0 0 0 0 0 0h-18.262z"></path>
<path fill="#000" opacity="0.1" d="M21.132 1.855h-0.51v12.667c-0.001 0.56-0.455 1.013-1.015 1.013 0 0 0 0 0 0h-14.708c-0 0-0.001 0-0.001 0-0.14 0-0.266 0.057-0.358 0.148l-2.685 2.679v3.039l4.207-4.2c0.092-0.091 0.218-0.148 0.358-0.148 0 0 0.001 0 0.001 0h14.711c0 0 0 0 0 0 0.56 0 1.014-0.453 1.015-1.013v-13.172c-0.001-0.56-0.455-1.013-1.015-1.013 0 0 0 0 0 0v0z"></path>
<path fill="#282828" d="M17.801 5.806h-11.6c-0.291 0-0.528 0.236-0.528 0.528s0.236 0.528 0.528 0.528v0h11.6c0.291 0 0.528-0.236 0.528-0.528s-0.236-0.528-0.528-0.528v0z"></path>
<path fill="#282828" d="M17.801 8.97h-11.6c-0.291 0-0.528 0.236-0.528 0.528s0.236 0.528 0.528 0.528v0h11.6c0.291 0 0.528-0.236 0.528-0.528s-0.236-0.528-0.528-0.528v0z"></path>
<path fill="#282828" d="M12.528 12.134h-6.328c-0.291 0-0.528 0.236-0.528 0.528s0.236 0.528 0.528 0.528v0h6.328c0.291 0 0.528-0.236 0.528-0.528s-0.236-0.528-0.528-0.528v0z"></path>
</svg>
<svg id="icon-icon_Messages_HiFi-Inactive_24" width="24" height="24" viewBox="0 0 24 24" x="440" y="0">
<path fill="#282828" d="M1.309 23.2c0 0 0 0 0 0-0.281 0-0.508-0.227-0.509-0.508v-19.856c0.001-1.124 0.912-2.035 2.036-2.036h18.329c1.124 0.002 2.034 0.912 2.035 2.036v13.237c-0.001 1.124-0.912 2.035-2.036 2.036h-14.553l-4.942 4.943c-0.092 0.091-0.219 0.148-0.359 0.148-0 0-0.001 0-0.001 0h0z"></path>
<path fill="#f6f6f6" d="M2.87 1.855c0 0 0 0 0 0-0.56 0-1.014 0.453-1.015 1.013v18.533l4.207-4.2c0.092-0.091 0.218-0.148 0.358-0.148 0 0 0.001 0 0.001 0h14.711c0 0 0 0 0 0 0.56 0 1.014-0.453 1.015-1.013v-13.172c-0.001-0.56-0.455-1.013-1.015-1.013 0 0 0 0 0 0h-18.262z"></path>
<path fill="#282828" d="M17.801 5.806h-11.6c-0.291 0-0.528 0.236-0.528 0.528s0.236 0.528 0.528 0.528v0h11.6c0.291 0 0.528-0.236 0.528-0.528s-0.236-0.528-0.528-0.528v0z"></path>
<path fill="#282828" d="M17.801 8.97h-11.6c-0.291 0-0.528 0.236-0.528 0.528s0.236 0.528 0.528 0.528v0h11.6c0.291 0 0.528-0.236 0.528-0.528s-0.236-0.528-0.528-0.528v0z"></path>
<path fill="#282828" d="M12.528 12.134h-6.328c-0.291 0-0.528 0.236-0.528 0.528s0.236 0.528 0.528 0.528v0h6.328c0.291 0 0.528-0.236 0.528-0.528s-0.236-0.528-0.528-0.528v0z"></path>
</svg>
<svg id="icon-icon_Players_HiFi-M_Active_24" width="24" height="24" viewBox="0 0 24 24" x="480" y="0">
<path fill="#282828" d="M23.2 12c0-6.186-5.014-11.2-11.2-11.2s-11.2 5.014-11.2 11.2v0c-0.005 0.097-0.007 0.21-0.007 0.324 0 2.785 1.578 5.202 3.889 6.405l0.040 0.019c0.515 3.616 2.089 4.452 7.278 4.452 5.044 0 6.675-0.782 7.236-4.147 2.623-1.353 3.964-3.722 3.964-7.053z"></path>
<path fill="#f2f2f2" d="M22.181 13.284c-1.097-1.019-1.781-2.469-1.781-4.079 0-0.835 0.184-1.627 0.513-2.337l-0.014 0.034c0.86 1.453 1.368 3.203 1.368 5.071 0 0.462-0.031 0.917-0.091 1.363l0.006-0.052z"></path>
<path fill="#f2f2f2" d="M16.667 7.334c0 2.578-2.089 4.667-4.667 4.667s-4.667-2.089-4.667-4.667c0-2.578 2.089-4.667 4.667-4.667s4.667 2.089 4.667 4.667z"></path>
<path fill="#f2f2f2" d="M3.1 6.902c0.315 0.676 0.499 1.467 0.499 2.302 0 1.6-0.676 3.042-1.758 4.056l-0.003 0.003c-0.064-0.378-0.102-0.815-0.105-1.261v-0.002c0-1.877 0.508-3.636 1.393-5.146l-0.026 0.048z"></path>
<path fill="#fff" d="M12 22.267c-5.464 0-6.168-0.887-6.469-4.648 1.737-1.463 3.999-2.352 6.468-2.352s4.732 0.889 6.484 2.364l-0.015-0.012c-0.301 3.761-1.004 4.648-6.468 4.648z"></path>
<path fill="#d32f2f" d="M19.379 17.905c0.013-0.138 0.028-0.269 0.038-0.414 0.001-0.010 0.001-0.022 0.001-0.034 0-0.116-0.042-0.222-0.112-0.304l0.001 0.001c-1.485-1.74-4.284-2.821-7.3-2.821s-5.82 1.081-7.3 2.821c-0.069 0.081-0.111 0.188-0.111 0.304 0 0.012 0 0.024 0.001 0.036l-0-0.002c0 0.033 0.006 0.062 0.009 0.095-1.184-0.771-2.072-1.912-2.505-3.257l-0.012-0.043c1.501-1.192 2.455-3.016 2.455-5.064 0-1.181-0.317-2.288-0.872-3.24l0.017 0.031c1.772-2.442 4.549-4.061 7.711-4.246l0.028-0.001c-2.837 0.3-5.028 2.679-5.028 5.571 0 3.093 2.507 5.6 5.6 5.6s5.6-2.507 5.6-5.6c0-2.891-2.191-5.271-5.004-5.569l-0.024-0.002c3.194 0.184 5.975 1.804 7.729 4.218l0.020 0.030c-0.536 0.921-0.853 2.026-0.853 3.206 0 2.073 0.977 3.917 2.496 5.097l0.015 0.011c-0.381 1.519-1.317 2.774-2.576 3.563l-0.024 0.014z"></path>
<path fill="#f2f2f2" d="M22.181 13.284c-1.097-1.019-1.781-2.469-1.781-4.079 0-0.835 0.184-1.627 0.513-2.337l-0.014 0.034c0.86 1.453 1.368 3.203 1.368 5.071 0 0.462-0.031 0.917-0.091 1.363l0.006-0.052z"></path>
<path fill="#ffcf48" d="M19.379 17.905c0.013-0.138 0.028-0.269 0.038-0.414 0.001-0.010 0.001-0.022 0.001-0.034 0-0.116-0.042-0.222-0.112-0.304l0.001 0.001c-1.485-1.74-4.284-2.821-7.3-2.821s-5.82 1.081-7.3 2.821c-0.069 0.081-0.111 0.188-0.111 0.304 0 0.012 0 0.024 0.001 0.036l-0-0.002c0 0.033 0.006 0.062 0.009 0.095-1.184-0.771-2.072-1.912-2.505-3.257l-0.012-0.043c1.501-1.192 2.455-3.016 2.455-5.064 0-1.181-0.317-2.288-0.872-3.24l0.017 0.031c1.772-2.442 4.549-4.061 7.711-4.246l0.028-0.001c-2.837 0.3-5.028 2.679-5.028 5.571 0 3.093 2.507 5.6 5.6 5.6s5.6-2.507 5.6-5.6c0-2.891-2.191-5.271-5.004-5.569l-0.024-0.002c3.194 0.184 5.975 1.804 7.729 4.218l0.020 0.030c-0.536 0.921-0.853 2.026-0.853 3.206 0 2.073 0.977 3.917 2.496 5.097l0.015 0.011c-0.381 1.519-1.317 2.774-2.576 3.563l-0.024 0.014z"></path>
<path fill="#282828" d="M9.433 16.667c-0.364 0-0.7 0.226-0.7 1.867s0.336 1.867 0.7 1.867 0.7-0.226 0.7-1.867-0.333-1.867-0.7-1.867z"></path>
<path fill="#282828" d="M14.566 20.401c0.364 0 0.7-0.226 0.7-1.867s-0.336-1.867-0.7-1.867-0.7 0.226-0.7 1.867 0.333 1.867 0.7 1.867z"></path>
<path fill="#000" opacity="0.1" d="M1.839 13.263c0.165-0.158 0.318-0.324 0.461-0.498l0.008-0.010c-0.188-0.067-0.368-0.143-0.55-0.215 0.018 0.245 0.045 0.487 0.081 0.723z"></path>
<path fill="#000" opacity="0.1" d="M20.447 9.882c0.174 1.351 0.805 2.529 1.731 3.397l0.003 0.003c0.055-0.389 0.086-0.838 0.086-1.294 0-1.26-0.237-2.465-0.67-3.572l0.023 0.067c-0.356 0.525-0.742 0.983-1.171 1.398l-0.002 0.002z"></path>
<path fill="#000" opacity="0.1" d="M3.245 13.054c-0.342 0.465-0.727 0.869-1.156 1.22l-0.012 0.009c0.445 1.388 1.333 2.529 2.493 3.286l0.024 0.014c0-0.033-0.006-0.062-0.009-0.095-0.001-0.010-0.001-0.022-0.001-0.034 0-0.116 0.042-0.222 0.112-0.304l-0.001 0.001c1.485-1.74 4.284-2.821 7.3-2.821s5.82 1.081 7.3 2.821c0.069 0.081 0.111 0.188 0.111 0.304 0 0.012-0 0.024-0.001 0.036l0-0.002c-0.011 0.145-0.026 0.276-0.038 0.414 1.283-0.803 2.219-2.058 2.591-3.537l0.009-0.040c-1.164-0.92-2.003-2.205-2.344-3.682l-0.009-0.044c-2.825 2.045-6.359 3.271-10.18 3.271-0.169 0-0.337-0.002-0.504-0.007l0.025 0.001c-0.015 0-0.032 0-0.049 0-2.017 0-3.966-0.296-5.804-0.846l0.143 0.037z"></path>
</svg>
<svg id="icon-icon_Players_HiFi-M_Inactive_24" width="24" height="24" viewBox="0 0 24 24" x="520" y="0">
<path fill="#282828" d="M23.2 12c0-6.186-5.014-11.2-11.2-11.2s-11.2 5.014-11.2 11.2v0c-0.005 0.097-0.007 0.21-0.007 0.324 0 2.785 1.578 5.202 3.889 6.405l0.040 0.019c0.515 3.616 2.089 4.452 7.278 4.452 5.044 0 6.675-0.782 7.236-4.147 2.623-1.353 3.964-3.722 3.964-7.053z"></path>
<path fill="#f2f2f2" d="M22.181 13.284c-1.097-1.019-1.781-2.469-1.781-4.079 0-0.835 0.184-1.627 0.513-2.337l-0.014 0.034c0.86 1.453 1.368 3.203 1.368 5.071 0 0.462-0.031 0.917-0.091 1.363l0.006-0.052z"></path>
<path fill="#f2f2f2" d="M16.667 7.334c0 2.578-2.089 4.667-4.667 4.667s-4.667-2.089-4.667-4.667c0-2.578 2.089-4.667 4.667-4.667s4.667 2.089 4.667 4.667z"></path>
<path fill="#f2f2f2" d="M3.1 6.902c0.315 0.676 0.499 1.467 0.499 2.302 0 1.6-0.676 3.042-1.758 4.056l-0.003 0.003c-0.064-0.378-0.102-0.815-0.105-1.261v-0.002c0-1.877 0.508-3.636 1.393-5.146l-0.026 0.048z"></path>
<path fill="#f6f6f6" d="M12 22.267c-5.464 0-6.168-0.887-6.469-4.648 1.737-1.463 3.999-2.352 6.468-2.352s4.732 0.889 6.484 2.364l-0.015-0.012c-0.301 3.761-1.004 4.648-6.468 4.648z"></path>
<path fill="#d32f2f" d="M19.379 17.905c0.013-0.138 0.028-0.269 0.038-0.414 0.001-0.010 0.001-0.022 0.001-0.034 0-0.116-0.042-0.222-0.112-0.304l0.001 0.001c-1.485-1.74-4.284-2.821-7.3-2.821s-5.82 1.081-7.3 2.821c-0.069 0.081-0.111 0.188-0.111 0.304 0 0.012 0 0.024 0.001 0.036l-0-0.002c0 0.033 0.006 0.062 0.009 0.095-1.184-0.771-2.072-1.912-2.505-3.257l-0.012-0.043c1.501-1.192 2.455-3.016 2.455-5.064 0-1.181-0.317-2.288-0.872-3.24l0.017 0.031c1.772-2.442 4.549-4.061 7.711-4.246l0.028-0.001c-2.837 0.3-5.028 2.679-5.028 5.571 0 3.093 2.507 5.6 5.6 5.6s5.6-2.507 5.6-5.6c0-2.891-2.191-5.271-5.004-5.569l-0.024-0.002c3.194 0.184 5.975 1.804 7.729 4.218l0.020 0.030c-0.536 0.921-0.853 2.026-0.853 3.206 0 2.073 0.977 3.917 2.496 5.097l0.015 0.011c-0.381 1.519-1.317 2.774-2.576 3.563l-0.024 0.014z"></path>
<path fill="#f2f2f2" d="M22.181 13.284c-1.097-1.019-1.781-2.469-1.781-4.079 0-0.835 0.184-1.627 0.513-2.337l-0.014 0.034c0.86 1.453 1.368 3.203 1.368 5.071 0 0.462-0.031 0.917-0.091 1.363l0.006-0.052z"></path>
<path fill="#f6f6f6" d="M19.379 17.905c0.013-0.138 0.028-0.269 0.038-0.414 0.001-0.010 0.001-0.022 0.001-0.034 0-0.116-0.042-0.222-0.112-0.304l0.001 0.001c-1.485-1.74-4.284-2.821-7.3-2.821s-5.82 1.081-7.3 2.821c-0.069 0.081-0.111 0.188-0.111 0.304 0 0.012 0 0.024 0.001 0.036l-0-0.002c0 0.033 0.006 0.062 0.009 0.095-1.184-0.771-2.072-1.912-2.505-3.257l-0.012-0.043c1.501-1.192 2.455-3.016 2.455-5.064 0-1.181-0.317-2.288-0.872-3.24l0.017 0.031c1.772-2.442 4.549-4.061 7.711-4.246l0.028-0.001c-2.837 0.3-5.028 2.679-5.028 5.571 0 3.093 2.507 5.6 5.6 5.6s5.6-2.507 5.6-5.6c0-2.891-2.191-5.271-5.004-5.569l-0.024-0.002c3.194 0.184 5.975 1.804 7.729 4.218l0.020 0.030c-0.536 0.921-0.853 2.026-0.853 3.206 0 2.073 0.977 3.917 2.496 5.097l0.015 0.011c-0.381 1.519-1.317 2.774-2.576 3.563l-0.024 0.014z"></path>
<path fill="#282828" d="M9.433 16.667c-0.364 0-0.7 0.226-0.7 1.867s0.336 1.867 0.7 1.867 0.7-0.226 0.7-1.867-0.333-1.867-0.7-1.867z"></path>
<path fill="#282828" d="M14.566 20.401c0.364 0 0.7-0.226 0.7-1.867s-0.336-1.867-0.7-1.867-0.7 0.226-0.7 1.867 0.333 1.867 0.7 1.867z"></path>
<path fill="#000" opacity="0.1" d="M1.839 13.263c0.165-0.158 0.318-0.324 0.461-0.498l0.008-0.010c-0.188-0.067-0.368-0.143-0.55-0.215 0.018 0.245 0.045 0.487 0.081 0.723z"></path>
</svg>
<svg id="icon-icon_Points_HiFi-M_Active_24" width="24" height="24" viewBox="0 0 24 24" x="560" y="0">
<path fill="#282828" d="M14.037 5.055v-1.744c0-3.348-13.237-3.348-13.237 0v10.2c0 1.316 2.060 2.137 4.539 2.428-0.907 0.407-1.484 0.956-1.484 1.652v3.060c0 1.674 3.33 2.55 6.619 2.55s6.619-0.876 6.619-2.55v-1.538c3.115-0.086 6.109-0.954 6.109-2.542v-9.18c-0.002-2.114-5.275-2.891-9.165-2.336z"></path>
<path fill="#ffd553" d="M22.183 7.419c0 0.519-1.977 1.527-5.6 1.527s-5.6-1.009-5.6-1.527 1.977-1.527 5.6-1.527 5.6 1.008 5.6 1.527z"></path>
<path fill="#303c42" d="M10.982 14.945c0.1 0.058 0.2 0.115 0.306 0.169-0.1 0-0.2-0.008-0.306-0.011z"></path>
<path fill="#ffd553" d="M7.418 1.819c3.624 0 5.6 1.009 5.6 1.527s-1.977 1.527-5.6 1.527-5.6-1.009-5.6-1.527 1.977-1.527 5.6-1.527z"></path>
<path fill="#ffca28" d="M1.818 4.762c1.491 0.719 3.242 1.14 5.092 1.14 0.179 0 0.357-0.004 0.533-0.012l-0.025 0.001c0.152 0.007 0.329 0.011 0.508 0.011 1.85 0 3.601-0.42 5.164-1.171l-0.072 0.031v0.506c-1.769 0.392-3.055 1.109-3.055 2.15v0.3c-0.764 0.13-1.645 0.206-2.544 0.208h-0.002c-3.624 0-5.6-1.009-5.6-1.527v-1.637z"></path>
<path fill="#ffca28" d="M1.818 7.817c1.491 0.719 3.242 1.14 5.092 1.14 0.179 0 0.357-0.004 0.533-0.012l-0.025 0.001c0.902-0.004 1.783-0.077 2.644-0.213l-0.098 0.013v2.538c-0.764 0.13-1.645 0.206-2.544 0.208h-0.002c-3.624 0-5.6-1.009-5.6-1.527z"></path>
<path fill="#ffca28" d="M1.818 13.528v-2.147c1.491 0.719 3.242 1.14 5.092 1.14 0.179 0 0.357-0.004 0.533-0.012l-0.025 0.001c0.902-0.004 1.783-0.077 2.644-0.213l-0.098 0.013v2.538c-0.764 0.13-1.645 0.206-2.544 0.208h-0.002c-3.623-0.001-5.6-1.010-5.6-1.528z"></path>
<path fill="#ffd553" d="M10.474 16.073c3.623 0 5.6 1.009 5.6 1.527s-1.977 1.527-5.6 1.527-5.6-1.009-5.6-1.527 1.972-1.527 5.6-1.527z"></path>
<path fill="#ffca28" d="M10.473 22.183c-3.624 0-5.6-1.009-5.6-1.527v-1.638c1.491 0.719 3.242 1.14 5.092 1.14 0.179 0 0.357-0.004 0.533-0.012l-0.025 0.001c0.135 0.005 0.293 0.008 0.453 0.008 1.804 0 3.519-0.384 5.067-1.074l-0.079 0.032h0.16v1.54c0 0.521-1.977 1.53-5.6 1.53z"></path>
<path fill="#ffca28" d="M17.092 18.092v-0.491c0-0.636-0.481-1.15-1.258-1.544 0.249 0.010 0.5 0.017 0.749 0.017 0.152 0.007 0.329 0.011 0.508 0.011 1.849 0 3.601-0.42 5.163-1.171l-0.072 0.031v1.638c0.002 0.492-1.804 1.418-5.091 1.509z"></path>
<path fill="#ffca28" d="M16.583 15.056c-3.624 0-5.6-1.009-5.6-1.527v-1.638c1.653 0.714 3.578 1.129 5.6 1.129s3.947-0.415 5.694-1.165l-0.094 0.036v1.638c0 0.513-1.977 1.527-5.6 1.527z"></path>
<path fill="#000" opacity="0.1" d="M15.834 16.061c0.776 0.394 1.258 0.908 1.258 1.544v0.491c0.36-0.010 0.694-0.034 1.018-0.062v-0.429c0-0 0-0 0-0.001 0-0.599-0.228-1.144-0.602-1.554l0.002 0.002c-0.306 0.015-0.614 0.025-0.923 0.025-0.254-0.004-0.502-0.010-0.753-0.016z"></path>
<path fill="#000" opacity="0.1" d="M11.491 14.066c1.269 0.616 2.76 0.975 4.336 0.975 0.093 0 0.186-0.001 0.278-0.004l-0.014 0c-1.356-0.576-2.931-0.929-4.584-0.972l-0.016-0z"></path>
<path fill="#000" opacity="0.1" d="M9.46 11.346c0.169-0.022 0.345-0.036 0.509-0.062v-2.537c-0.165 0.025-0.34 0.038-0.509 0.059z"></path>
<path fill="#000" opacity="0.1" d="M9.46 13.529c0.005 0.481 0.195 0.917 0.501 1.241l-0.001-0.001v-2.463c-0.165 0.025-0.34 0.038-0.509 0.059z"></path>
<path fill="#000" opacity="0.1" d="M9.46 7.419v0.368c0.169-0.022 0.345-0.036 0.509-0.062v-0.3c0-1.041 1.285-1.758 3.055-2.15v-0.506c-0.672 0.375-1.452 0.659-2.279 0.809l-0.046 0.007c-0.699 0.342-1.184 1.025-1.239 1.827l-0 0.007z"></path>
<path fill="#ffca28" d="M16.583 12.001c-3.624 0-5.6-1.009-5.6-1.527v-1.641c1.653 0.714 3.578 1.129 5.6 1.129s3.947-0.415 5.694-1.165l-0.094 0.036v1.638c0 0.521-1.977 1.53-5.6 1.53z"></path>
</svg>
<svg id="icon-icon_Points_HiFi-M_Inactive_24" width="24" height="24" viewBox="0 0 24 24" x="600" y="0">
<path fill="#282828" d="M14.037 5.055v-1.744c0-3.348-13.237-3.348-13.237 0v10.2c0 1.316 2.060 2.137 4.539 2.428-0.907 0.407-1.484 0.956-1.484 1.652v3.060c0 1.674 3.33 2.55 6.619 2.55s6.619-0.876 6.619-2.55v-1.538c3.115-0.086 6.109-0.954 6.109-2.542v-9.18c-0.002-2.114-5.275-2.891-9.165-2.336z"></path>
<path fill="#fff" d="M22.183 7.419c0 0.519-1.977 1.527-5.6 1.527s-5.6-1.009-5.6-1.527 1.977-1.527 5.6-1.527 5.6 1.008 5.6 1.527z"></path>
<path fill="#303c42" d="M10.982 14.945c0.1 0.058 0.2 0.115 0.306 0.169-0.1 0-0.2-0.008-0.306-0.011z"></path>
<path fill="#fff" d="M7.418 1.819c3.624 0 5.6 1.009 5.6 1.527s-1.977 1.527-5.6 1.527-5.6-1.009-5.6-1.527 1.977-1.527 5.6-1.527z"></path>
<path fill="#fff" d="M1.818 4.762c1.491 0.719 3.242 1.14 5.092 1.14 0.179 0 0.357-0.004 0.533-0.012l-0.025 0.001c0.152 0.007 0.329 0.011 0.508 0.011 1.85 0 3.601-0.42 5.164-1.171l-0.072 0.031v0.506c-1.769 0.392-3.055 1.109-3.055 2.15v0.3c-0.764 0.13-1.645 0.206-2.544 0.208h-0.002c-3.624 0-5.6-1.009-5.6-1.527v-1.637z"></path>
<path fill="#fff" d="M1.818 7.817c1.491 0.719 3.242 1.14 5.092 1.14 0.179 0 0.357-0.004 0.533-0.012l-0.025 0.001c0.902-0.004 1.783-0.077 2.644-0.213l-0.098 0.013v2.538c-0.764 0.13-1.645 0.206-2.544 0.208h-0.002c-3.624 0-5.6-1.009-5.6-1.527z"></path>
<path fill="#fff" d="M1.818 13.528v-2.147c1.491 0.719 3.242 1.14 5.092 1.14 0.179 0 0.357-0.004 0.533-0.012l-0.025 0.001c0.902-0.004 1.783-0.077 2.644-0.213l-0.098 0.013v2.538c-0.764 0.13-1.645 0.206-2.544 0.208h-0.002c-3.623-0.001-5.6-1.010-5.6-1.528z"></path>
<path fill="#fff" d="M10.474 16.073c3.623 0 5.6 1.009 5.6 1.527s-1.977 1.527-5.6 1.527-5.6-1.009-5.6-1.527 1.972-1.527 5.6-1.527z"></path>
<path fill="#fff" d="M10.473 22.183c-3.624 0-5.6-1.009-5.6-1.527v-1.638c1.491 0.719 3.242 1.14 5.092 1.14 0.179 0 0.357-0.004 0.533-0.012l-0.025 0.001c0.135 0.005 0.293 0.008 0.453 0.008 1.804 0 3.519-0.384 5.067-1.074l-0.079 0.032h0.16v1.54c0 0.521-1.977 1.53-5.6 1.53z"></path>
<path fill="#fff" d="M17.092 18.092v-0.491c0-0.636-0.481-1.15-1.258-1.544 0.249 0.010 0.5 0.017 0.749 0.017 0.152 0.007 0.329 0.011 0.508 0.011 1.849 0 3.601-0.42 5.163-1.171l-0.072 0.031v1.638c0.002 0.492-1.804 1.418-5.091 1.509z"></path>
<path fill="#fff" d="M16.583 15.056c-3.624 0-5.6-1.009-5.6-1.527v-1.638c1.653 0.714 3.578 1.129 5.6 1.129s3.947-0.415 5.694-1.165l-0.094 0.036v1.638c0 0.513-1.977 1.527-5.6 1.527z"></path>
<path fill="#fff" d="M16.583 12.001c-3.624 0-5.6-1.009-5.6-1.527v-1.641c1.653 0.714 3.578 1.129 5.6 1.129s3.947-0.415 5.694-1.165l-0.094 0.036v1.638c0 0.521-1.977 1.53-5.6 1.53z"></path>
</svg>
<svg id="icon-icon_Profile_HiFi-M_Active_24" width="24" height="24" viewBox="0 0 24 24" x="0" y="40">
<path fill="#ffcf48" d="M3.386 22.213l2.1-1.156c0.134-0.076 0.294-0.12 0.465-0.12s0.331 0.045 0.47 0.123l-0.005-0.002 2.14 1.179-0.451-2.517c-0.008-0.049-0.013-0.105-0.013-0.162 0-0.272 0.109-0.519 0.285-0.699l-0 0 1.617-1.651c0.016-0.017 0.027-0.040 0.027-0.065 0-0.046-0.034-0.085-0.078-0.092l-0.001-0-2.2-0.334c-0.331-0.051-0.604-0.261-0.741-0.548l-0.003-0.006-0.988-2.1c-0.010-0.023-0.032-0.038-0.057-0.038-0.001 0-0.003 0-0.004 0h0l-1.052 2.142c-0.138 0.29-0.407 0.497-0.729 0.546l-0.005 0.001-2.2 0.335c-0.045 0.007-0.079 0.045-0.079 0.092 0 0.025 0.010 0.048 0.026 0.065l-0-0 1.618 1.651c0.176 0.18 0.285 0.427 0.285 0.699 0 0.057-0.005 0.113-0.014 0.168l0.001-0.006z"></path>
<path fill="#030504" opacity="0.1" d="M10.296 16.92c0.019-0.018 0.031-0.044 0.031-0.072 0-0.012-0.002-0.024-0.006-0.034l0 0.001c-0.012-0.037-0.044-0.064-0.082-0.069l-0-0-0.622-0.271-1.746 1.788c-0.195 0.201-0.315 0.475-0.315 0.777 0 0.063 0.005 0.125 0.015 0.186l-0.001-0.007 0.2 1.957-1.533-0.73c-0.149-0.085-0.327-0.135-0.516-0.135s-0.368 0.050-0.522 0.138l0.005-0.003-2.128 1.047-0.119 0.986 2.33-1.283c0.149-0.084 0.327-0.134 0.516-0.134s0.368 0.050 0.522 0.137l-0.005-0.003 2.377 1.309-0.5-2.8c-0.009-0.054-0.015-0.116-0.015-0.179 0-0.302 0.12-0.576 0.315-0.777l-0 0z"></path>
<path fill="#232e33" d="M10.075 16.158l-2.258-0.379-0.989-2.1c-0.16-0.332-0.494-0.558-0.88-0.558s-0.721 0.225-0.878 0.552l-0.003 0.006-1.041 2.142-2.206 0.335c-0.483 0.076-0.848 0.49-0.848 0.988 0 0.272 0.109 0.519 0.286 0.7l-0-0 1.617 1.651c0.017 0.017 0.027 0.040 0.027 0.065 0 0.005-0 0.010-0.001 0.015l0-0.001-0.434 2.65c-0.008 0.043-0.012 0.092-0.012 0.143 0 0.281 0.139 0.529 0.352 0.681l0.003 0.002c0.129 0.093 0.29 0.149 0.465 0.149 0.143 0 0.277-0.037 0.393-0.103l-0.004 0.002 2.316-1.245 2.259 1.245c0.112 0.063 0.246 0.101 0.389 0.101 0.174 0 0.335-0.056 0.467-0.15l-0.002 0.002c0.215-0.153 0.354-0.401 0.354-0.682 0-0.050-0.004-0.1-0.013-0.148l0.001 0.005-0.434-2.651c-0.001-0.004-0.001-0.009-0.001-0.014 0-0.025 0.010-0.048 0.027-0.065v0l1.616-1.651c0.177-0.18 0.285-0.427 0.285-0.7 0-0.499-0.365-0.912-0.843-0.988l-0.006-0.001zM3.521 18.858l-1.618-1.651c-0.016-0.017-0.026-0.040-0.026-0.065 0-0.047 0.034-0.085 0.079-0.092l0.001-0 2.2-0.335c0.327-0.050 0.596-0.258 0.731-0.541l0.003-0.006 1.052-2.142c0.001-0 0.002-0 0.003-0 0.026 0 0.048 0.016 0.057 0.039l0 0 0.988 2.1c0.14 0.293 0.413 0.503 0.738 0.553l0.006 0.001 2.2 0.334c0.036 0.004 0.065 0.029 0.074 0.062l0 0.001c0.004 0.009 0.006 0.020 0.006 0.031 0 0.025-0.011 0.048-0.028 0.064l-0 0-1.617 1.651c-0.176 0.18-0.285 0.427-0.285 0.699 0 0.057 0.005 0.113 0.014 0.168l-0.001-0.006 0.451 2.517-2.14-1.179c-0.134-0.076-0.294-0.12-0.465-0.12s-0.331 0.045-0.47 0.123l0.005-0.002-2.1 1.156 0.408-2.493c0.009-0.050 0.014-0.109 0.014-0.168 0-0.27-0.107-0.515-0.28-0.694l0 0z"></path>
<path fill="#ffcf48" d="M8.255 5.547c-0.544 0.743-1.412 1.22-2.392 1.22-0.973 0-1.836-0.47-2.375-1.196l-0.006-0.008c-0.121 0.089-0.227 0.176-0.328 0.269l0.003-0.002c-0.9 0.993-1.45 2.317-1.45 3.769 0 0.016 0 0.032 0 0.048l-0-0.002c0 0.455 0.21 0.545 0.541 0.545h7.4c0.029 0.007 0.063 0.011 0.097 0.011 0.25 0 0.453-0.203 0.453-0.453 0-0.032-0.003-0.064-0.010-0.095l0.001 0.003c-0.067-1.635-0.798-3.088-1.929-4.104l-0.005-0.005z"></path>
<path fill="#030504" opacity="0.1" d="M8.398 5.183c-0.080 0.096-0.161 0.183-0.246 0.265l-0.001 0.001c0.635 0.941 1.037 2.086 1.099 3.321l0.001 0.016c0.007 0.030 0.010 0.064 0.010 0.1 0 0.271-0.219 0.49-0.49 0.49-0.038 0-0.074-0.004-0.11-0.012l0.003 0.001h-7.351c0 0.087-0.010 0.177-0.010 0.258 0 0.492 0.228 0.59 0.586 0.59h8.017c0.032 0.007 0.069 0.012 0.106 0.012 0.271 0 0.49-0.219 0.49-0.49 0-0.035-0.004-0.070-0.011-0.103l0.001 0.003c-0.072-1.772-0.864-3.345-2.089-4.446l-0.006-0.005z"></path>
<path fill="#ffcf48" d="M7.939 3.784c0 1.147-0.93 2.077-2.077 2.077s-2.077-0.93-2.077-2.077c0-1.147 0.93-2.077 2.077-2.077s2.077 0.93 2.077 2.077z"></path>
<path fill="#030504" opacity="0.1" d="M6.943 2.006c0.193 0.307 0.309 0.68 0.31 1.080v0c0 1.151-0.933 2.084-2.084 2.084-0 0-0.001 0-0.001 0h0c-0.4-0.001-0.773-0.117-1.089-0.315l0.009 0.005c0.371 0.606 1.029 1.004 1.78 1.004 1.148 0 2.079-0.931 2.079-2.079 0-0.751-0.398-1.409-0.995-1.774l-0.009-0.005z"></path>
<path fill="#232e33" d="M8.675 4.732c0.103-0.282 0.165-0.608 0.169-0.947l0-0.002c0-0.012 0-0.026 0-0.040 0-1.647-1.336-2.983-2.983-2.983s-2.983 1.336-2.983 2.983c0 0.36 0.064 0.705 0.18 1.024l-0.007-0.021c-0.2 0.142-0.376 0.288-0.539 0.445l0.001-0.001c-1.062 1.164-1.713 2.72-1.713 4.428 0 0.012 0 0.023 0 0.035v-0.002c-0.002 0.029-0.004 0.063-0.004 0.098 0 0.746 0.604 1.35 1.35 1.35 0.036 0 0.071-0.001 0.106-0.004l-0.005 0h7.4c0.033 0.003 0.071 0.005 0.11 0.005 0.741 0 1.342-0.601 1.342-1.342 0-0.042-0.002-0.083-0.006-0.124l0 0.005c-0.086-1.974-1.005-3.717-2.411-4.899l-0.010-0.008zM10.075 10.064c-0.099 0.080-0.226 0.128-0.364 0.128-0.020 0-0.040-0.001-0.059-0.003l0.002 0h-7.4c-0.331 0-0.537-0.091-0.541-0.545-0-0.014-0-0.030-0-0.046 0-1.452 0.551-2.776 1.454-3.774l-0.004 0.005c0.098-0.091 0.204-0.178 0.315-0.26l0.010-0.007c0.544 0.734 1.408 1.204 2.381 1.204 0.98 0 1.849-0.477 2.387-1.211l0.006-0.008c1.137 1.021 1.868 2.473 1.936 4.097l0 0.012c0.001 0.013 0.002 0.028 0.002 0.043 0 0.139-0.048 0.267-0.129 0.368l0.001-0.001zM3.784 3.786c0-0 0-0.001 0-0.001 0-1.147 0.93-2.077 2.077-2.077s2.077 0.93 2.077 2.077c0 1.147-0.93 2.077-2.077 2.077v0c-1.147-0.001-2.076-0.93-2.077-2.076v-0z"></path>
<path fill="#ffcf48" d="M14.345 6.913c-0.295 0-0.535 0.24-0.535 0.535v0 2.206c0 0.296 0.24 0.536 0.535 0.536s0.535-0.24 0.535-0.536v0-2.206c-0.001-0.296-0.24-0.535-0.536-0.535 0 0 0 0 0 0v0z"></path>
<path fill="#030504" opacity="0.1" d="M13.789 9.185v0.806c0.013 0.298 0.258 0.535 0.558 0.535s0.545-0.237 0.558-0.534l0-0.001v-2.024c-0.268 0.501-0.646 0.912-1.104 1.21l-0.013 0.008z"></path>
<path fill="#ffcf48" d="M18.053 10.19c0 0 0 0 0 0 0.296 0 0.535-0.239 0.536-0.535v-7.413c0-0.296-0.24-0.536-0.536-0.536s-0.536 0.24-0.536 0.536v0 7.413c0.001 0.296 0.24 0.535 0.536 0.535 0 0 0 0 0 0v0z"></path>
<path fill="#030504" opacity="0.1" d="M17.494 6.891v2.839c0 0.308 0.25 0.558 0.558 0.558s0.558-0.25 0.558-0.558v0-4.4c-0.322 0.594-0.693 1.107-1.12 1.566l0.004-0.005z"></path>
<path fill="#ffcf48" d="M21.756 4.421c0 0 0 0 0 0-0.296 0-0.535 0.239-0.536 0.535v4.7c0 0.296 0.24 0.536 0.535 0.536s0.535-0.24 0.535-0.536v0-4.7c0-0.295-0.24-0.535-0.535-0.535v0z"></path>
<path fill="#030504" opacity="0.1" d="M21.208 8.227v1.5c0.013 0.298 0.258 0.535 0.558 0.535s0.545-0.237 0.558-0.534l0-0.001v-3.059c-0.322 0.593-0.693 1.105-1.121 1.563l0.004-0.004z"></path>
<path fill="#232e33" d="M18.052 11.097c0.796-0.001 1.44-0.646 1.441-1.442v-7.413c0-0.011 0-0.025 0-0.038 0-0.796-0.646-1.442-1.442-1.442s-1.442 0.646-1.442 1.442c0 0.013 0 0.027 0.001 0.040l-0-0.002v7.413c0.001 0.796 0.646 1.441 1.442 1.442h0zM17.516 2.242c0-0.296 0.24-0.536 0.536-0.536s0.536 0.24 0.536 0.536v0 7.413c0 0.296-0.24 0.536-0.536 0.536s-0.536-0.24-0.536-0.536v0z"></path>
<path fill="#232e33" d="M21.759 3.516c-0.796 0.001-1.441 0.646-1.442 1.442v4.7c-0 0.011-0 0.025-0 0.038 0 0.796 0.646 1.442 1.442 1.442s1.442-0.646 1.442-1.442c0-0.013-0-0.027-0.001-0.040l0 0.002v-4.7c-0.001-0.796-0.645-1.441-1.441-1.442h-0zM22.294 9.657c0 0.296-0.24 0.535-0.535 0.535s-0.535-0.24-0.535-0.535v0-4.7c0-0.296 0.24-0.535 0.535-0.535s0.535 0.24 0.535 0.536v0z"></path>
<path fill="#232e33" d="M15.787 9.655v-2.206c0-0.011 0-0.025 0-0.038 0-0.796-0.646-1.442-1.442-1.442s-1.442 0.646-1.442 1.442c0 0.013 0 0.027 0.001 0.040l-0-0.002v2.206c-0 0.011-0 0.025-0 0.038 0 0.796 0.646 1.442 1.442 1.442s1.442-0.646 1.442-1.442c0-0.013-0-0.027-0.001-0.040l0 0.002zM14.881 9.655c0 0.296-0.24 0.536-0.535 0.536s-0.535-0.24-0.535-0.536v0-2.206c0-0.296 0.24-0.535 0.535-0.535s0.535 0.24 0.535 0.535v0z"></path>
<path fill="#232e33" d="M20.795 17.631h-2.289v-2.288c0-0.25-0.203-0.453-0.453-0.453s-0.453 0.203-0.453 0.453v0 2.288h-2.289c-0.241 0.012-0.433 0.21-0.433 0.453s0.191 0.442 0.432 0.453l0.001 0h2.289v2.289c0 0.25 0.203 0.453 0.453 0.453s0.453-0.203 0.453-0.453v0-2.289h2.289c0.241-0.012 0.433-0.21 0.433-0.453s-0.191-0.442-0.432-0.453l-0.001-0z"></path>
</svg>
<svg id="icon-icon_Profile_HiFi-M_Inactive_24" width="24" height="24" viewBox="0 0 24 24" x="40" y="40">
<path fill="#f6f6f6" d="M3.386 22.213l2.1-1.156c0.134-0.076 0.294-0.12 0.465-0.12s0.331 0.045 0.47 0.123l-0.005-0.002 2.14 1.179-0.451-2.517c-0.008-0.049-0.013-0.105-0.013-0.162 0-0.272 0.109-0.519 0.285-0.699l-0 0 1.617-1.651c0.016-0.017 0.027-0.040 0.027-0.065 0-0.046-0.034-0.085-0.078-0.092l-0.001-0-2.2-0.334c-0.331-0.051-0.604-0.261-0.741-0.548l-0.003-0.006-0.988-2.1c-0.010-0.023-0.032-0.038-0.057-0.038-0.001 0-0.003 0-0.004 0h0l-1.052 2.142c-0.138 0.29-0.407 0.497-0.729 0.546l-0.005 0.001-2.2 0.335c-0.045 0.007-0.079 0.045-0.079 0.092 0 0.025 0.010 0.048 0.026 0.065l-0-0 1.618 1.651c0.176 0.18 0.285 0.427 0.285 0.699 0 0.057-0.005 0.113-0.014 0.168l0.001-0.006z"></path>
<path fill="#232e33" d="M10.075 16.158l-2.258-0.379-0.989-2.1c-0.16-0.332-0.494-0.558-0.88-0.558s-0.721 0.225-0.878 0.552l-0.003 0.006-1.041 2.142-2.206 0.335c-0.483 0.076-0.848 0.49-0.848 0.988 0 0.272 0.109 0.519 0.286 0.7l-0-0 1.617 1.651c0.017 0.017 0.027 0.040 0.027 0.065 0 0.005-0 0.010-0.001 0.015l0-0.001-0.434 2.65c-0.008 0.043-0.012 0.092-0.012 0.143 0 0.281 0.139 0.529 0.352 0.681l0.003 0.002c0.129 0.093 0.29 0.149 0.465 0.149 0.143 0 0.277-0.037 0.393-0.103l-0.004 0.002 2.316-1.245 2.259 1.245c0.112 0.063 0.246 0.101 0.389 0.101 0.174 0 0.335-0.056 0.467-0.15l-0.002 0.002c0.215-0.153 0.354-0.401 0.354-0.682 0-0.050-0.004-0.1-0.013-0.148l0.001 0.005-0.434-2.651c-0.001-0.004-0.001-0.009-0.001-0.014 0-0.025 0.010-0.048 0.027-0.065v0l1.616-1.651c0.177-0.18 0.285-0.427 0.285-0.7 0-0.499-0.365-0.912-0.843-0.988l-0.006-0.001zM3.521 18.858l-1.618-1.651c-0.016-0.017-0.026-0.040-0.026-0.065 0-0.047 0.034-0.085 0.079-0.092l0.001-0 2.2-0.335c0.327-0.050 0.596-0.258 0.731-0.541l0.003-0.006 1.052-2.142c0.001-0 0.002-0 0.003-0 0.026 0 0.048 0.016 0.057 0.039l0 0 0.988 2.1c0.14 0.293 0.413 0.503 0.738 0.553l0.006 0.001 2.2 0.334c0.036 0.004 0.065 0.029 0.074 0.062l0 0.001c0.004 0.009 0.006 0.020 0.006 0.031 0 0.025-0.011 0.048-0.028 0.064l-0 0-1.617 1.651c-0.176 0.18-0.285 0.427-0.285 0.699 0 0.057 0.005 0.113 0.014 0.168l-0.001-0.006 0.451 2.517-2.14-1.179c-0.134-0.076-0.294-0.12-0.465-0.12s-0.331 0.045-0.47 0.123l0.005-0.002-2.1 1.156 0.408-2.493c0.009-0.050 0.014-0.109 0.014-0.168 0-0.27-0.107-0.515-0.28-0.694l0 0z"></path>
<path fill="#f6f6f6" d="M8.255 5.547c-0.544 0.743-1.412 1.22-2.392 1.22-0.973 0-1.836-0.47-2.375-1.196l-0.006-0.008c-0.121 0.089-0.227 0.176-0.328 0.269l0.003-0.002c-0.9 0.993-1.45 2.317-1.45 3.769 0 0.016 0 0.032 0 0.048l-0-0.002c0 0.455 0.21 0.545 0.541 0.545h7.4c0.029 0.007 0.063 0.011 0.097 0.011 0.25 0 0.453-0.203 0.453-0.453 0-0.032-0.003-0.064-0.010-0.095l0.001 0.003c-0.067-1.635-0.798-3.088-1.929-4.104l-0.005-0.005z"></path>
<path fill="#f6f6f6" d="M7.939 3.784c0 1.147-0.93 2.077-2.077 2.077s-2.077-0.93-2.077-2.077c0-1.147 0.93-2.077 2.077-2.077s2.077 0.93 2.077 2.077z"></path>
<path fill="#232e33" d="M8.675 4.732c0.103-0.282 0.165-0.608 0.169-0.947l0-0.002c0-0.012 0-0.026 0-0.040 0-1.647-1.336-2.983-2.983-2.983s-2.983 1.336-2.983 2.983c0 0.36 0.064 0.705 0.18 1.024l-0.007-0.021c-0.2 0.142-0.376 0.288-0.539 0.445l0.001-0.001c-1.062 1.164-1.713 2.72-1.713 4.428 0 0.012 0 0.023 0 0.035v-0.002c-0.002 0.029-0.004 0.063-0.004 0.098 0 0.746 0.604 1.35 1.35 1.35 0.036 0 0.071-0.001 0.106-0.004l-0.005 0h7.4c0.033 0.003 0.071 0.005 0.11 0.005 0.741 0 1.342-0.601 1.342-1.342 0-0.042-0.002-0.083-0.006-0.124l0 0.005c-0.086-1.974-1.005-3.717-2.411-4.899l-0.010-0.008zM10.075 10.064c-0.099 0.080-0.226 0.128-0.364 0.128-0.020 0-0.040-0.001-0.059-0.003l0.002 0h-7.4c-0.331 0-0.537-0.091-0.541-0.545-0-0.014-0-0.030-0-0.046 0-1.452 0.551-2.776 1.454-3.774l-0.004 0.005c0.098-0.091 0.204-0.178 0.315-0.26l0.010-0.007c0.544 0.734 1.408 1.204 2.381 1.204 0.98 0 1.849-0.477 2.387-1.211l0.006-0.008c1.137 1.021 1.868 2.473 1.936 4.097l0 0.012c0.001 0.013 0.002 0.028 0.002 0.043 0 0.139-0.048 0.267-0.129 0.368l0.001-0.001zM3.784 3.786c0-0 0-0.001 0-0.001 0-1.147 0.93-2.077 2.077-2.077s2.077 0.93 2.077 2.077c0 1.147-0.93 2.077-2.077 2.077v0c-1.147-0.001-2.076-0.93-2.077-2.076v-0z"></path>
<path fill="#f6f6f6" d="M14.345 6.913c-0.295 0-0.535 0.24-0.535 0.535v0 2.206c0 0.296 0.24 0.536 0.535 0.536s0.535-0.24 0.535-0.536v0-2.206c-0.001-0.296-0.24-0.535-0.536-0.535 0 0 0 0 0 0v0z"></path>
<path fill="#f6f6f6" d="M18.053 10.19c0 0 0 0 0 0 0.296 0 0.535-0.239 0.536-0.535v-7.413c0-0.296-0.24-0.536-0.536-0.536s-0.536 0.24-0.536 0.536v0 7.413c0.001 0.296 0.24 0.535 0.536 0.535 0 0 0 0 0 0v0z"></path>
<path fill="#f6f6f6" d="M21.756 4.421c0 0 0 0 0 0-0.296 0-0.535 0.239-0.536 0.535v4.7c0 0.296 0.24 0.536 0.535 0.536s0.535-0.24 0.535-0.536v0-4.7c0-0.295-0.24-0.535-0.535-0.535v0z"></path>
<path fill="#232e33" d="M18.052 11.097c0.796-0.001 1.44-0.646 1.441-1.442v-7.413c0-0.011 0-0.025 0-0.038 0-0.796-0.646-1.442-1.442-1.442s-1.442 0.646-1.442 1.442c0 0.013 0 0.027 0.001 0.040l-0-0.002v7.413c0.001 0.796 0.646 1.441 1.442 1.442h0zM17.516 2.242c0-0.296 0.24-0.536 0.536-0.536s0.536 0.24 0.536 0.536v0 7.413c0 0.296-0.24 0.536-0.536 0.536s-0.536-0.24-0.536-0.536v0z"></path>
<path fill="#232e33" d="M21.759 3.516c-0.796 0.001-1.441 0.646-1.442 1.442v4.7c-0 0.011-0 0.025-0 0.038 0 0.796 0.646 1.442 1.442 1.442s1.442-0.646 1.442-1.442c0-0.013-0-0.027-0.001-0.040l0 0.002v-4.7c-0.001-0.796-0.645-1.441-1.441-1.442h-0zM22.294 9.657c0 0.296-0.24 0.535-0.535 0.535s-0.535-0.24-0.535-0.535v0-4.7c0-0.296 0.24-0.535 0.535-0.535s0.535 0.24 0.535 0.536v0z"></path>
<path fill="#232e33" d="M15.787 9.655v-2.206c0-0.011 0-0.025 0-0.038 0-0.796-0.646-1.442-1.442-1.442s-1.442 0.646-1.442 1.442c0 0.013 0 0.027 0.001 0.040l-0-0.002v2.206c-0 0.011-0 0.025-0 0.038 0 0.796 0.646 1.442 1.442 1.442s1.442-0.646 1.442-1.442c0-0.013-0-0.027-0.001-0.040l0 0.002zM14.881 9.655c0 0.296-0.24 0.536-0.535 0.536s-0.535-0.24-0.535-0.536v0-2.206c0-0.296 0.24-0.535 0.535-0.535s0.535 0.24 0.535 0.535v0z"></path>
<path fill="#232e33" d="M20.795 17.631h-2.289v-2.288c0-0.25-0.203-0.453-0.453-0.453s-0.453 0.203-0.453 0.453v0 2.288h-2.289c-0.241 0.012-0.433 0.21-0.433 0.453s0.191 0.442 0.432 0.453l0.001 0h2.289v2.289c0 0.25 0.203 0.453 0.453 0.453s0.453-0.203 0.453-0.453v0-2.289h2.289c0.241-0.012 0.433-0.21 0.433-0.453s-0.191-0.442-0.432-0.453l-0.001-0z"></path>
</svg>
<svg id="icon-icon_Settings_HiFi-M_Active_24" width="24" height="24" viewBox="0 0 24 24" x="80" y="40">
<path fill="#282828" d="M13.869 11.518v-8.847c0-1.031-0.836-1.867-1.867-1.867s-1.867 0.836-1.867 1.867v0 8.847c-1.124 0.653-1.868 1.851-1.868 3.223s0.744 2.571 1.851 3.214l0.018 0.010v3.363c0 1.031 0.836 1.867 1.867 1.867s1.867-0.836 1.867-1.867v-3.363c1.125-0.652 1.869-1.851 1.869-3.224s-0.744-2.571-1.852-3.214l-0.018-0.010z"></path>
<path fill="#49545e" d="M11.069 2.667c0.017-0.503 0.428-0.903 0.933-0.903s0.917 0.401 0.933 0.902l0 0.002v8.435c-0.28-0.084-0.601-0.133-0.933-0.133s-0.654 0.048-0.957 0.139l0.024-0.006z"></path>
<path fill="#49545e" d="M12.935 21.331c-0.017 0.503-0.428 0.903-0.933 0.903s-0.917-0.401-0.933-0.902l-0-0.002v-2.967c0.28 0.084 0.601 0.133 0.933 0.133s0.654-0.048 0.957-0.139l-0.024 0.006z"></path>
<path fill="#282828" d="M8.271 7.253c-0.004-1.371-0.747-2.568-1.851-3.213l-0.018-0.010v-1.358c0-1.031-0.836-1.867-1.867-1.867s-1.867 0.836-1.867 1.867v0 1.363c-1.124 0.653-1.868 1.851-1.868 3.224s0.744 2.571 1.851 3.214l0.018 0.010v10.851c0 1.031 0.836 1.867 1.867 1.867s1.867-0.836 1.867-1.867v-10.857c1.122-0.655 1.864-1.852 1.869-3.222v-0.001z"></path>
<path fill="#49545e" d="M3.603 2.667c0.017-0.503 0.428-0.903 0.933-0.903s0.917 0.401 0.933 0.902l0 0.002v0.967c-0.28-0.084-0.601-0.133-0.933-0.133s-0.654 0.048-0.957 0.139l0.024-0.006z"></path>
<path fill="#49545e" d="M5.47 21.332c-0.017 0.503-0.428 0.903-0.933 0.903s-0.917-0.401-0.933-0.902l-0-0.002v-10.44c0.28 0.084 0.601 0.133 0.933 0.133s0.654-0.048 0.957-0.139l-0.024 0.006v10.44z"></path>
<path fill="#282828" d="M23.203 9.125c-0.003-1.371-0.746-2.568-1.849-3.213l-0.018-0.010v-3.231c0-1.031-0.836-1.867-1.867-1.867s-1.867 0.836-1.867 1.867v0 3.231c-1.124 0.653-1.868 1.851-1.868 3.224s0.744 2.571 1.851 3.214l0.018 0.010v8.98c0 1.031 0.836 1.867 1.867 1.867s1.867-0.836 1.867-1.867v-8.98c1.121-0.656 1.864-1.853 1.867-3.223v-0.001z"></path>
<path fill="#49545e" d="M18.534 2.667c0.017-0.503 0.428-0.903 0.933-0.903s0.917 0.401 0.933 0.902l0 0.002v2.835c-0.28-0.084-0.601-0.133-0.933-0.133s-0.654 0.048-0.957 0.139l0.024-0.006z"></path>
<path fill="#ffcf48" d="M22.269 9.123c0 1.547-1.254 2.801-2.801 2.801s-2.801-1.254-2.801-2.801c0-1.547 1.254-2.801 2.801-2.801s2.801 1.254 2.801 2.801z"></path>
<path fill="#49545e" d="M20.401 21.332c0 0.009 0 0.020 0 0.031 0 0.516-0.418 0.934-0.934 0.934s-0.934-0.418-0.934-0.934c0-0.011 0-0.021 0.001-0.032l-0 0.002v-8.567c0.28 0.084 0.601 0.133 0.933 0.133s0.654-0.048 0.957-0.139l-0.024 0.006z"></path>
<path fill="#000" d="M3.603 10.867v0.675l1.867 1.867v-2.542c-0.28 0.084-0.601 0.133-0.933 0.133s-0.654-0.048-0.957-0.139l0.024 0.006z"></path>
<path fill="#000" d="M11.069 18.364v1.661l1.744 1.744c0.074-0.126 0.119-0.276 0.122-0.437v-2.968c-0.28 0.084-0.601 0.133-0.933 0.133s-0.654-0.048-0.957-0.139l0.024 0.006z"></path>
<path fill="#030504" opacity="0.1" d="M20.919 6.739c0.26 0.412 0.415 0.913 0.417 1.449v0.001c0 0.004 0 0.009 0 0.014 0 1.538-1.247 2.785-2.785 2.785-0.542 0-1.049-0.155-1.477-0.423l0.012 0.007c0.497 0.817 1.383 1.355 2.395 1.355 1.543 0 2.794-1.251 2.794-2.794 0-1.012-0.538-1.897-1.342-2.388l-0.012-0.007z"></path>
<path fill="#000" d="M18.534 12.738v0.7l1.867 1.867v-2.564c-0.278 0.083-0.598 0.131-0.928 0.131-0.335 0-0.658-0.049-0.962-0.14l0.024 0.006z"></path>
<path fill="#ffcf48" d="M14.804 14.744c0 1.547-1.254 2.801-2.801 2.801s-2.801-1.254-2.801-2.801c0-1.547 1.254-2.801 2.801-2.801s2.801 1.254 2.801 2.801z"></path>
<path fill="#030504" opacity="0.1" d="M13.456 12.361c0.26 0.412 0.415 0.913 0.417 1.449v0.001c0 0.004 0 0.009 0 0.014 0 1.538-1.247 2.785-2.785 2.785-0.542 0-1.049-0.155-1.477-0.423l0.012 0.007c0.497 0.817 1.383 1.355 2.395 1.355 1.543 0 2.794-1.251 2.794-2.794 0-1.012-0.538-1.898-1.343-2.388l-0.012-0.007z"></path>
<path fill="#ffcf48" d="M7.338 7.25c0 1.547-1.254 2.801-2.801 2.801s-2.801-1.254-2.801-2.801c0-1.547 1.254-2.801 2.801-2.801s2.801 1.254 2.801 2.801z"></path>
<path fill="#030504" opacity="0.1" d="M5.988 4.866c0.26 0.412 0.415 0.913 0.417 1.449v0.001c0 0.004 0 0.009 0 0.014 0 1.538-1.247 2.785-2.785 2.785-0.542 0-1.049-0.155-1.477-0.423l0.012 0.007c0.497 0.817 1.383 1.355 2.395 1.355 1.543 0 2.794-1.251 2.794-2.794 0-1.012-0.538-1.897-1.343-2.388l-0.012-0.007z"></path>
</svg>
<svg id="icon-icon_Settings_HiFi-M_Inactive_24" width="24" height="24" viewBox="0 0 24 24" x="120" y="40">
<path fill="#282828" d="M13.869 11.518v-8.847c0-1.031-0.836-1.867-1.867-1.867s-1.867 0.836-1.867 1.867v0 8.847c-1.124 0.653-1.868 1.851-1.868 3.223s0.744 2.571 1.851 3.214l0.018 0.010v3.363c0 1.031 0.836 1.867 1.867 1.867s1.867-0.836 1.867-1.867v-3.363c1.125-0.652 1.869-1.851 1.869-3.224s-0.744-2.571-1.852-3.214l-0.018-0.010z"></path>
<path fill="#f6f6f6" d="M11.069 2.667c0.017-0.503 0.428-0.903 0.933-0.903s0.917 0.401 0.933 0.902l0 0.002v8.435c-0.28-0.084-0.601-0.133-0.933-0.133s-0.654 0.048-0.957 0.139l0.024-0.006z"></path>
<path fill="#f6f6f6" d="M12.935 21.331c-0.017 0.503-0.428 0.903-0.933 0.903s-0.917-0.401-0.933-0.902l-0-0.002v-2.967c0.28 0.084 0.601 0.133 0.933 0.133s0.654-0.048 0.957-0.139l-0.024 0.006z"></path>
<path fill="#282828" d="M8.271 7.253c-0.004-1.371-0.747-2.568-1.851-3.213l-0.018-0.010v-1.358c0-1.031-0.836-1.867-1.867-1.867s-1.867 0.836-1.867 1.867v0 1.363c-1.124 0.653-1.868 1.851-1.868 3.224s0.744 2.571 1.851 3.214l0.018 0.010v10.851c0 1.031 0.836 1.867 1.867 1.867s1.867-0.836 1.867-1.867v-10.857c1.122-0.655 1.864-1.852 1.869-3.222v-0.001z"></path>
<path fill="#f6f6f6" d="M3.603 2.667c0.017-0.503 0.428-0.903 0.933-0.903s0.917 0.401 0.933 0.902l0 0.002v0.967c-0.28-0.084-0.601-0.133-0.933-0.133s-0.654 0.048-0.957 0.139l0.024-0.006z"></path>
<path fill="#f6f6f6" d="M5.47 21.332c-0.017 0.503-0.428 0.903-0.933 0.903s-0.917-0.401-0.933-0.902l-0-0.002v-10.44c0.28 0.084 0.601 0.133 0.933 0.133s0.654-0.048 0.957-0.139l-0.024 0.006v10.44z"></path>
<path fill="#282828" d="M23.203 9.125c-0.003-1.371-0.746-2.568-1.849-3.213l-0.018-0.010v-3.231c0-1.031-0.836-1.867-1.867-1.867s-1.867 0.836-1.867 1.867v0 3.231c-1.124 0.653-1.868 1.851-1.868 3.224s0.744 2.571 1.851 3.214l0.018 0.010v8.98c0 1.031 0.836 1.867 1.867 1.867s1.867-0.836 1.867-1.867v-8.98c1.121-0.656 1.864-1.853 1.867-3.223v-0.001z"></path>
<path fill="#f6f6f6" d="M18.534 2.667c0.017-0.503 0.428-0.903 0.933-0.903s0.917 0.401 0.933 0.902l0 0.002v2.835c-0.28-0.084-0.601-0.133-0.933-0.133s-0.654 0.048-0.957 0.139l0.024-0.006z"></path>
<path fill="#f6f6f6" d="M22.269 9.123c0 1.547-1.254 2.801-2.801 2.801s-2.801-1.254-2.801-2.801c0-1.547 1.254-2.801 2.801-2.801s2.801 1.254 2.801 2.801z"></path>
<path fill="#f6f6f6" d="M20.401 21.332c0 0.009 0 0.020 0 0.031 0 0.516-0.418 0.934-0.934 0.934s-0.934-0.418-0.934-0.934c0-0.011 0-0.021 0.001-0.032l-0 0.002v-8.567c0.28 0.084 0.601 0.133 0.933 0.133s0.654-0.048 0.957-0.139l-0.024 0.006z"></path>
<path fill="#f6f6f6" d="M14.804 14.744c0 1.547-1.254 2.801-2.801 2.801s-2.801-1.254-2.801-2.801c0-1.547 1.254-2.801 2.801-2.801s2.801 1.254 2.801 2.801z"></path>
<path fill="#f6f6f6" d="M7.338 7.25c0 1.547-1.254 2.801-2.801 2.801s-2.801-1.254-2.801-2.801c0-1.547 1.254-2.801 2.801-2.801s2.801 1.254 2.801 2.801z"></path>
</svg>
<svg id="icon-icon_home_HiFi-M_Active_24" width="24" height="24" viewBox="0 0 24 24" x="160" y="40">
<path fill="#282828" d="M23.022 10.088l-10.69-9.163c-0.088-0.076-0.204-0.123-0.331-0.123s-0.243 0.047-0.332 0.123l0.001-0.001-10.692 9.163c-0.112 0.094-0.183 0.234-0.183 0.391 0 0.281 0.228 0.509 0.509 0.509 0.002 0 0.004 0 0.005-0h1.528v11.705c0 0.281 0.228 0.509 0.509 0.509h17.309c0.281 0 0.509-0.228 0.509-0.509v0-11.709h1.527c0.002 0 0.003 0 0.005 0 0.281 0 0.509-0.228 0.509-0.509 0-0.157-0.071-0.297-0.182-0.39l-0.001-0.001z"></path>
<path fill="#49545e" d="M8.945 22.183v-9.164h6.109v9.164z"></path>
<path fill="#fff" opacity="0.07" d="M9.963 15.056c0-0.562 0.456-1.018 1.018-1.018v0h4.073v-1.018h-6.109v9.164h1.018v-7.127z"></path>
<path fill="#ffcf48" d="M20.654 9.965c-0.281 0-0.509 0.228-0.509 0.509v0 11.709s-4.040-0.025-4.073 0v-9.673c0-0.281-0.228-0.509-0.509-0.509v0h-7.127c-0.281 0-0.509 0.228-0.509 0.509v0 9.673h-4.073v-11.709c0-0.281-0.228-0.509-0.509-0.509v0h-0.663l9.315-7.984 9.315 7.984z"></path>
<path fill="#fff" opacity="0.2" d="M3.345 9.965c0.281 0 0.509 0.228 0.509 0.509v0 11.709h1.468v-11.709c0.001-0.013 0.002-0.027 0.002-0.042 0-0.242-0.182-0.441-0.417-0.467l-0.002-0h-0.541l7.636-7.984-9.318 7.984z"></path>
<path fill="#000" opacity="0.1" d="M12 1.981l7.636 7.984h-0.541c-0.237 0.027-0.419 0.226-0.419 0.467 0 0.015 0.001 0.029 0.002 0.044l-0-0.002v11.709h1.468v-11.709c0-0.281 0.228-0.509 0.509-0.509h0.66z"></path>
</svg>
<svg id="icon-icon_home_HiFi-M_Inactive_24" width="24" height="24" viewBox="0 0 24 24" x="200" y="40">
<path fill="#282828" d="M23.022 10.088l-10.69-9.163c-0.088-0.076-0.204-0.123-0.331-0.123s-0.243 0.047-0.332 0.123l0.001-0.001-10.692 9.163c-0.112 0.094-0.183 0.234-0.183 0.391 0 0.281 0.228 0.509 0.509 0.509 0.002 0 0.004 0 0.005-0h1.528v11.705c0 0.281 0.228 0.509 0.509 0.509h17.309c0.281 0 0.509-0.228 0.509-0.509v0-11.709h1.527c0.002 0 0.003 0 0.005 0 0.281 0 0.509-0.228 0.509-0.509 0-0.157-0.071-0.297-0.182-0.39l-0.001-0.001z"></path>
<path fill="#f6f6f6" d="M8.945 22.183v-9.164h6.109v9.164z"></path>
<path fill="#fff" opacity="0.07" d="M9.963 15.056c0-0.562 0.456-1.018 1.018-1.018v0h4.073v-1.018h-6.109v9.164h1.018v-7.127z"></path>
<path fill="#f6f6f6" d="M20.654 9.965c-0.281 0-0.509 0.228-0.509 0.509v0 11.709s-4.040-0.025-4.073 0v-9.673c0-0.281-0.228-0.509-0.509-0.509v0h-7.127c-0.281 0-0.509 0.228-0.509 0.509v0 9.673h-4.073v-11.709c0-0.281-0.228-0.509-0.509-0.509v0h-0.663l9.315-7.984 9.315 7.984z"></path>
<path fill="#fff" opacity="0.2" d="M3.345 9.965c0.281 0 0.509 0.228 0.509 0.509v0 11.709h1.468v-11.709c0.001-0.013 0.002-0.027 0.002-0.042 0-0.242-0.182-0.441-0.417-0.467l-0.002-0h-0.541l7.636-7.984-9.318 7.984z"></path>
<path fill="#000" opacity="0.1" d="M12 1.981l7.636 7.984h-0.541c-0.237 0.027-0.419 0.226-0.419 0.467 0 0.015 0.001 0.029 0.002 0.044l-0-0.002v11.709h1.468v-11.709c0-0.281 0.228-0.509 0.509-0.509h0.66z"></path>
</svg>
</svg>
