<svg xmlns="http://www.w3.org/2000/svg" xmlns:xlink="http://www.w3.org/1999/xlink" width="667.453" height="386.18" viewBox="0 0 667.453 386.18"><defs><style>.a{fill:#e0c8c8;}.a,.e{stroke:#ebebeb;}.b{clip-path:url(#a);}.c{fill:#ebebeb;}.d{fill:#fff;}.e{fill:none;}</style><clipPath id="a"><rect class="a" width="667.453" height="386.18" rx="16" transform="translate(32.271 261.128)"/></clipPath></defs><g class="b" transform="translate(-32.271 -261.128)"><g transform="translate(162.271 303.091)"><path class="c" d="M47,0H360a46.879,46.879,0,0,1,47,46.758V792.894a46.879,46.879,0,0,1-47,46.758H47A46.879,46.879,0,0,1,0,792.894V46.758A46.879,46.879,0,0,1,47,0Z"/><path class="d" d="M44.441,0H358.559C383.1,0,403,19.692,403,43.983V791.689c0,24.291-19.9,43.983-44.441,43.983H44.441C19.9,835.672,0,815.98,0,791.689V43.983C0,19.692,19.9,0,44.441,0Z" transform="translate(2 0.995)"/><g transform="translate(247 17.371)"><circle class="c" cx="7.5" cy="7.5" r="7.5" transform="translate(0 -0.154)"/></g><path class="c" d="M4,.5H59a3.482,3.482,0,1,1,0,6.964H4A3.482,3.482,0,1,1,4,.5Z" transform="translate(172 20.889)"/><path class="e" d="M337,807.816H38a37.945,37.945,0,0,1-38-37.8V37.8A37.946,37.946,0,0,1,38,0H78.263a6.794,6.794,0,0,1,5.23,5.144c.164.72.336,1.662.535,2.752.383,2.1.858,4.7,1.566,7.33.915,3.4,4.955,14.512,18.529,14.652,5.12.053,37.044.064,62.923.064,47.606,0,102.231-.037,104.786-.064,13.574-.139,17.614-11.25,18.529-14.652.709-2.635,1.185-5.241,1.567-7.335.2-1.1.371-2.031.534-2.747A6.574,6.574,0,0,1,297.647,0H337a37.946,37.946,0,0,1,38,37.8V770.012A37.945,37.945,0,0,1,337,807.816Z" transform="translate(16 15.918)"/></g></g></svg>
