<svg width="20" height="21" viewBox="0 0 20 21" fill="none" xmlns="http://www.w3.org/2000/svg">
<path fill-rule="evenodd" clip-rule="evenodd" d="M18.7014 6.92973L16.5904 15.7738H3.40864L1.29837 6.92973L5.6486 9.21917L7.68197 7.36259L9.99952 5.24609L14.3504 9.21917L18.7014 6.92973Z" fill="#FFCF48"/>
<path opacity="0.16" fill-rule="evenodd" clip-rule="evenodd" d="M6.4817 15.7698H3.40864L1.29837 6.92578L5.6486 9.21522L6.00144 8.89832L6.4817 15.7698Z" fill="black"/>
<path fill-rule="evenodd" clip-rule="evenodd" d="M2.95658 15.8784C3.0065 16.0881 3.19387 16.2358 3.40934 16.2358H16.5909C16.8063 16.2358 16.9935 16.0881 17.0434 15.8784L19.1539 7.03459C19.1964 6.85684 19.1311 6.67092 18.9867 6.55898C18.8426 6.44705 18.6461 6.42951 18.4847 6.51454L16.8265 7.38699C16.599 7.50661 16.5116 7.78814 16.6312 8.01538C16.7511 8.24286 17.0324 8.33054 17.2599 8.21067L18.0105 7.81576L16.2234 15.305H3.77663L1.98944 7.81576L5.4326 9.62742C5.60604 9.7187 5.81841 9.69132 5.96325 9.5592L9.99999 5.87294L14.0367 9.5592C14.1818 9.69132 14.3937 9.7187 14.5673 9.62742L15.7867 8.98582C16.0141 8.86619 16.1016 8.58467 15.9819 8.35719C15.8623 8.12971 15.5808 8.04228 15.3533 8.16214L14.4232 8.65145L10.3139 4.89913C10.1362 4.73675 9.86403 4.73675 9.68627 4.89913L5.57678 8.65145L1.51554 6.51478C1.35388 6.42975 1.15738 6.44704 1.01326 6.55898C0.869097 6.67092 0.803546 6.85708 0.846061 7.03459L2.95658 15.8784Z" fill="black"/>
</svg>
