<svg width="50" height="50" viewBox="0 0 50 50" fill="none" xmlns="http://www.w3.org/2000/svg">
<path fill-rule="evenodd" clip-rule="evenodd" d="M45.9643 33.3094C46.6398 31.2786 47.0003 29.1614 47.0003 26.9971C47.0003 23.6683 46.1653 20.3708 44.5861 17.4611C44.3216 16.9766 43.7162 16.7979 43.2297 17.0597C42.7444 17.3235 42.5647 17.931 42.8283 18.4164C44.2492 21.0331 45.0004 24.0004 45.0004 26.9971C45.0004 28.7456 44.7398 30.4592 44.2499 32.1138C42.9781 31.4251 41.5452 30.9978 40.0003 30.9978C35.0373 30.9978 31.0003 35.0357 31.0003 39.9995C31.0003 44.9633 35.0374 49.0012 40.0003 49.0012C44.963 49.0012 49.0002 44.9633 49.0002 39.9995C49.0002 37.3327 47.8122 34.9592 45.9643 33.3094Z" fill="black"/>
<path fill-rule="evenodd" clip-rule="evenodd" d="M33 39.9999C33 36.1339 36.134 32.9999 40 32.9999C43.8661 32.9999 47.0001 36.1339 47.0001 39.9999C47.0001 43.8659 43.8661 46.9999 40 46.9999C36.134 46.9999 33 43.8659 33 39.9999Z" fill="#E7633F"/>
<path fill-rule="evenodd" clip-rule="evenodd" d="M11.4737 17.0507C11.788 17.0507 12.0966 16.9032 12.291 16.6278C15.3185 12.3403 19.9383 9.67012 25.0904 9.12898C25.0619 9.41988 25.0023 9.7017 25.0023 9.99992C25.0023 14.9628 29.039 18.9999 34.0013 18.9999C38.9636 18.9999 43.0002 14.9627 43.0002 9.99992C43.0002 5.03709 38.9636 0.99995 34.0013 0.99995C30.0659 0.99995 26.7491 3.55509 25.5297 7.0812C19.5425 7.5161 14.1484 10.5308 10.6583 15.4735C10.339 15.9247 10.4465 16.5487 10.8975 16.8671C11.0733 16.9911 11.2745 17.0507 11.4737 17.0507Z" fill="black"/>
<path fill-rule="evenodd" clip-rule="evenodd" d="M27.0005 9.99997C27.0005 6.13396 30.1345 2.99993 34.0005 2.99993C37.8666 2.99993 41.0006 6.13396 41.0006 9.99997C41.0006 13.866 37.8666 17 34.0005 17C30.1345 17 27.0005 13.866 27.0005 9.99997Z" fill="#FFCF48"/>
<path opacity="0.2" fill-rule="evenodd" clip-rule="evenodd" d="M34.0005 5.99992C37.344 5.99992 40.1398 8.36036 40.8296 11.4999C40.9361 11.0154 41.0004 10.5159 41.0004 9.99995C41.0004 6.14054 37.8598 2.99992 34.0005 2.99992C30.1411 2.99992 27.0005 6.14054 27.0005 9.99995C27.0005 10.5158 27.0648 11.0154 27.1713 11.4999C27.8612 8.36044 30.657 5.99992 34.0005 5.99992Z" fill="white"/>
<path opacity="0.2" fill-rule="evenodd" clip-rule="evenodd" d="M40.0005 35.9998C43.344 35.9998 46.1399 38.3603 46.8298 41.4998C46.9362 41.0153 47.0006 40.5157 47.0006 39.9999C47.0006 36.1405 43.8599 32.9999 40.0005 32.9999C36.1412 32.9999 33.0005 36.1405 33.0005 39.9999C33.0005 40.5157 33.0648 41.0153 33.1713 41.4998C33.8612 38.3604 36.657 35.9998 40.0005 35.9998Z" fill="white"/>
<path fill-rule="evenodd" clip-rule="evenodd" d="M27.9514 44.9745C27.637 44.9911 27.3205 45 27.0022 45C20.8667 45 15.2401 41.869 11.9334 36.7792C15.9686 35.8909 19.0015 32.298 19.0015 27.9999C19.0015 23.037 14.964 19 10.0008 19C5.0375 19 1.00002 23.0371 1.00002 27.9999C1.00002 32.858 4.87597 36.8035 9.69484 36.969C13.267 43.1593 19.8292 46.9999 27.0022 46.9999C27.3557 46.9999 27.7073 46.9911 28.0569 46.9725C28.6087 46.9432 29.0317 46.4725 29.0033 45.9208C28.9741 45.369 28.4808 44.9247 27.9515 44.9745H27.9514Z" fill="black"/>
<path fill-rule="evenodd" clip-rule="evenodd" d="M3.00023 27.9999C3.00023 24.1339 6.13426 20.9999 10.0003 20.9999C13.8663 20.9999 17.0004 24.1339 17.0004 27.9999C17.0004 31.8659 13.8663 35 10.0003 35C6.13426 35 3.00023 31.8659 3.00023 27.9999Z" fill="#7563EB"/>
<path opacity="0.2" fill-rule="evenodd" clip-rule="evenodd" d="M10.0003 23.9999C13.3438 23.9999 16.1396 26.3604 16.8295 29.5C16.9359 29.0155 17.0004 28.5159 17.0004 28C17.0004 24.1405 13.8597 20.9999 10.0003 20.9999C6.14088 20.9999 3.00023 24.1405 3.00023 28C3.00023 28.5159 3.06454 29.0155 3.17104 29.5C3.86095 26.3605 6.65678 23.9999 10.0003 23.9999Z" fill="white"/>
</svg>
