<svg xmlns="http://www.w3.org/2000/svg" width="16" height="16" viewBox="0 0 16 16"><defs><style>.a{fill:#282828;}.b{fill:none;}</style></defs><g transform="translate(-815 -944)"><g transform="translate(419.041 907.529)"><path class="a" d="M403.959,51.471a6.849,6.849,0,0,1-2.719-.557,6.918,6.918,0,0,1-3.724-3.724,6.918,6.918,0,0,1,0-5.438,6.92,6.92,0,0,1,3.724-3.724,6.912,6.912,0,0,1,5.314-.051,7.105,7.105,0,0,1,1.925,1.157l.832-.826a.912.912,0,0,1,1.057-.214l.007,0a.923.923,0,0,1,.584.887v3.841a.972.972,0,0,1-.964.964h-3.841a.922.922,0,0,1-.889-.6.9.9,0,0,1,.214-1.053l.858-.858a3.8,3.8,0,0,0-2.378-.785,3.881,3.881,0,0,0-1.538.314,3.932,3.932,0,0,0-2.122,2.122,3.928,3.928,0,0,0,0,3.076,3.93,3.93,0,0,0,2.122,2.122,3.882,3.882,0,0,0,1.538.314,3.927,3.927,0,0,0,3.13-1.538.672.672,0,0,1,.479-.267l.051,0a.748.748,0,0,1,.477.17l.033.029,1.167,1.176a.656.656,0,0,1,.209.46.7.7,0,0,1-.155.468,6.888,6.888,0,0,1-2.412,1.87A6.98,6.98,0,0,1,403.959,51.471Zm0-13.168a6.022,6.022,0,0,0-2.391.489,6.089,6.089,0,0,0-3.289,3.288,6.086,6.086,0,0,0,0,4.781,6.088,6.088,0,0,0,3.289,3.288,6.021,6.021,0,0,0,2.391.489,6.155,6.155,0,0,0,2.627-.582,6.049,6.049,0,0,0,2.037-1.544l-.971-.978a4.777,4.777,0,0,1-5.558,1.361,4.762,4.762,0,0,1-2.559-2.559,4.76,4.76,0,0,1,0-3.731,4.762,4.762,0,0,1,2.559-2.559,4.8,4.8,0,0,1,5.14.9l.317.294-1.489,1.488c-.062.06-.059.073-.033.132.038.09.064.093.125.093h3.841a.141.141,0,0,0,.133-.133V38.984c0-.069-.008-.091-.081-.123s-.1-.019-.134.022l-.011.011-1.4,1.389-.293-.276a6.271,6.271,0,0,0-1.966-1.258A6.075,6.075,0,0,0,403.959,38.3Z" transform="translate(0)"/></g><rect class="b" width="16" height="16" transform="translate(815 944)"/></g></svg>
