<svg width="17" height="17" viewBox="0 0 24 24" fill="none" xmlns="http://www.w3.org/2000/svg">
<path d="M19.5497 4.6212C19.5331 4.50001 19.4272 4.43277 19.3393 4.42545C19.2521 4.41813 17.5436 4.39217 17.5436 4.39217C17.5436 4.39217 16.1147 3.0046 15.9736 2.86344C15.8325 2.72229 15.5568 2.7649 15.4496 2.79686C15.4483 2.79753 15.1813 2.88009 14.7319 3.01925C14.6566 2.77556 14.5461 2.47594 14.3883 2.17499C13.8796 1.20422 13.1346 0.690877 12.2343 0.689549C12.233 0.689549 12.2323 0.689549 12.231 0.689549C12.1684 0.689549 12.1065 0.69554 12.0439 0.700864C12.0173 0.668905 11.9907 0.637614 11.9627 0.606983C11.5705 0.18752 11.0679 -0.0168867 10.4653 0.00109041C9.30276 0.0343813 8.14492 0.873978 7.20611 2.36541C6.54561 3.41474 6.04291 4.73308 5.90044 5.75377C4.56546 6.16723 3.63198 6.45618 3.61134 6.46286C2.93753 6.67457 2.91623 6.69521 2.82834 7.33043C2.76309 7.81046 1 21.4438 1 21.4438L15.7752 23.9992L22.179 22.4072C22.179 22.4072 19.5663 4.7424 19.5497 4.6212ZM13.9921 3.24829C13.6519 3.35349 13.265 3.47333 12.8456 3.60317C12.8369 3.01459 12.767 2.19563 12.4927 1.48786C13.3749 1.65498 13.809 2.65305 13.9921 3.24829ZM12.0725 3.84286C11.2982 4.08254 10.4533 4.34421 9.60571 4.60656C9.84406 3.69372 10.2962 2.78488 10.8515 2.18897C11.0579 1.96725 11.3468 1.72023 11.689 1.57908C12.0106 2.25022 12.0805 3.20035 12.0725 3.84286ZM10.4886 0.77477C10.7616 0.768778 10.9913 0.828704 11.1877 0.957871C10.8734 1.121 10.5698 1.35537 10.2848 1.66098C9.54643 2.4533 8.98049 3.68307 8.75478 4.86956C8.051 5.08727 7.36255 5.30102 6.72869 5.49677C7.12887 3.62914 8.69418 0.826704 10.4886 0.77477Z" fill="#212121"/>
<path d="M19.3415 4.42764C19.2543 4.42032 17.5458 4.39436 17.5458 4.39436C17.5458 4.39436 16.1169 3.00678 15.9758 2.86563C15.9232 2.81303 15.8519 2.78573 15.7773 2.77441L15.778 24.0001L22.1812 22.4088C22.1812 22.4088 19.5685 4.74459 19.5519 4.62339C19.5352 4.5022 19.4287 4.43496 19.3415 4.42764Z" fill="#161515"/>
<path d="M12.2217 7.71787L11.478 10.5003C11.478 10.5003 10.6484 10.1228 9.66497 10.1847C8.22277 10.2759 8.20745 11.1854 8.22213 11.4138C8.30069 12.6582 11.5745 12.9299 11.7583 15.8448C11.9028 18.1379 10.5418 19.7066 8.581 19.8304C6.22732 19.9789 4.93164 18.5907 4.93164 18.5907L5.43035 16.4694C5.43035 16.4694 6.73466 17.4535 7.77867 17.3875C8.46049 17.3443 8.70416 16.7896 8.67952 16.3975C8.577 14.7742 5.91105 14.8701 5.74262 12.2028C5.60078 9.95836 7.07493 7.68391 10.3274 7.47884C11.5805 7.39828 12.2217 7.71787 12.2217 7.71787Z" fill="white"/>
</svg>
