<svg xmlns="http://www.w3.org/2000/svg" width="297" height="258" viewBox="0 0 297 258"><defs><style>.a{fill:none;}.b{fill:#7563eb;opacity:0.381;}.c{fill:#c1b7ff;}.d{fill:#9e91ef;}.e{fill:#ffcf48;}.f{fill:#eabd40;}.g{fill:#e7633f;}.h{fill:#d35836;}.i{fill:#fff;}.j{fill:#e6e8e8;}</style></defs><g transform="translate(-223 -230)"><rect class="a" width="296.838" height="257.885" transform="translate(223 230)"/><g transform="translate(223 230.174)"><ellipse class="b" cx="105.64" cy="105.721" rx="105.64" ry="105.721" transform="translate(44 43.379)"/><path class="c" d="M190.841,218.877a7.423,7.423,0,1,0,7.422,7.424A7.422,7.422,0,0,0,190.841,218.877Zm0,10.427a3,3,0,1,1,3-3A3,3,0,0,1,190.841,229.3Z" transform="translate(-151.49 -21.142)"/><path class="c" d="M307.587,236.507a7.423,7.423,0,1,0,7.422,7.422A7.422,7.422,0,0,0,307.587,236.507Zm0,10.427a3,3,0,1,1,3-3.006A3.006,3.006,0,0,1,307.587,246.934Z" transform="translate(-63.286 -16.179)"/><path class="c" d="M342.511,168.839a5.684,5.684,0,1,0,5.684,5.684A5.683,5.683,0,0,0,342.511,168.839Zm0,7.984a2.3,2.3,0,1,1,2.3-2.3A2.3,2.3,0,0,1,342.511,176.823Z" transform="translate(-74.699 -74.774)"/><path class="c" d="M283.909,115.477a6.009,6.009,0,1,0,6.009,6.009A6.009,6.009,0,0,0,283.909,115.477Zm0,8.442a2.432,2.432,0,1,1,2.431-2.433A2.432,2.432,0,0,1,283.909,123.919Z" transform="translate(-85.102 -93.822)"/><path class="c" d="M171.218,197.656a6.318,6.318,0,1,0,6.32,6.318A6.317,6.317,0,0,0,171.218,197.656Z" transform="translate(-164.523 -36.062)"/><path class="c" d="M230.842,116.586a6.716,6.716,0,1,0,6.716,6.716A6.717,6.717,0,0,0,230.842,116.586Z" transform="translate(-133.891 -94.931)"/><path class="c" d="M307.145,131.79a5.744,5.744,0,1,0,5.745,5.745A5.744,5.744,0,0,0,307.145,131.79Z" transform="translate(-68.585 -82.367)"/><circle class="c" cx="3.27" cy="3.27" r="3.27" transform="translate(31.957 94.065)"/><circle class="c" cx="3.27" cy="3.27" r="3.27" transform="translate(255.59 191.204)"/><path class="c" d="M343.633,152.026a5.578,5.578,0,1,0,5.578,5.58A5.579,5.579,0,0,0,343.633,152.026Z" transform="translate(-61.755 3.996)"/><circle class="c" cx="3.559" cy="3.559" r="3.559" transform="translate(0 113.394)"/><circle class="c" cx="3.559" cy="3.559" r="3.559" transform="translate(61.202 57.351)"/><path class="c" d="M258.079,111.91l2.235-2.235a1.992,1.992,0,0,0-2.816-2.818l-2.235,2.235-2.235-2.235a1.993,1.993,0,0,0-2.818,2.818l2.235,2.235-2.235,2.235a1.993,1.993,0,0,0,2.818,2.818l2.235-2.235,2.235,2.235a1.992,1.992,0,1,0,2.816-2.818Z" transform="translate(-104.972 -100.3)"/><path class="c" d="M168.768,151.56,171,149.324a1.993,1.993,0,1,0-2.818-2.818l-2.235,2.235-2.235-2.235a1.993,1.993,0,0,0-2.818,2.818l2.235,2.235L160.9,153.8a1.993,1.993,0,0,0,2.818,2.818l2.235-2.235,2.235,2.235A1.993,1.993,0,0,0,171,153.8Z" transform="translate(-139.967 -102.45)"/><path class="c" d="M322.98,231.32l1.895-1.893a1.688,1.688,0,0,0-2.387-2.387l-1.893,1.893L318.7,227.04a1.688,1.688,0,0,0-2.387,2.387l1.893,1.893-1.893,1.893A1.688,1.688,0,0,0,318.7,235.6l1.893-1.893,1.893,1.893a1.688,1.688,0,0,0,2.387-2.387Z" transform="translate(-28.367 -109.601)"/><g transform="translate(68.918)"><path class="d" d="M241.09,443.275H224.968a16.122,16.122,0,0,0-16.122-16.122v-21.16H144.361v21.16a16.122,16.122,0,0,0-16.122,16.122H112.118A16.122,16.122,0,0,0,96,459.4H257.211A16.121,16.121,0,0,0,241.09,443.275Z" transform="translate(-95.996 -201.57)"/><path class="e" d="M224,411.032l12.968,25.916a3.527,3.527,0,0,0,6.308,0l12.968-25.916-4.156-5.038H228.657Z" transform="translate(-159.51 -201.57)"/><path class="f" d="M245.157,433.183l-1.884,3.763a3.526,3.526,0,0,1-6.308,0L224,411.031l4.66-5.038h10.076l-4.66,5.038Z" transform="translate(-159.51 -201.57)"/><path class="g" d="M178.646,379.032l-9.139,10.248a3.527,3.527,0,0,0,2.632,5.874h80.988a3.527,3.527,0,0,0,2.632-5.874l-9.139-10.248-5.649-5.038h-56.65Z" transform="translate(-132.025 -185.668)"/><path class="h" d="M194.219,383.995l-14.381,16.121h-7.7a3.527,3.527,0,0,1-2.631-5.874l9.141-10.246Z" transform="translate(-132.025 -190.631)"/><path class="e" d="M358.978,302.593l-27.139-13.57V225.089L359.426,252.2a15.569,15.569,0,0,1,4.656,11.1v36.13a3.527,3.527,0,0,1-5.1,3.155Z" transform="translate(-213.022 -111.762)"/><path class="e" d="M121.26,302.593l27.139-13.57V225.089L120.813,252.2a15.569,15.569,0,0,0-4.656,11.1v36.13a3.526,3.526,0,0,0,5.1,3.155Z" transform="translate(-106 -111.762)"/><path class="i" d="M256.726,127.788a186.72,186.72,0,0,1-6.031,47.261l-4.126,15.757-4.539,3.1-2.6,9.068-61.776.1-3.718-8.668-3.783-3.609-4.126-15.757a184.339,184.339,0,0,1-4.516-23.319,189.577,189.577,0,0,1-1.515-23.941A181.862,181.862,0,0,1,175.5,53.571c5.133-11.408,11.465-16.968,18.9-26.424H222.32c7.432,9.456,13.764,15.016,18.9,26.424a169.371,169.371,0,0,1,6.566,17.023A185.245,185.245,0,0,1,256.726,127.788Z" transform="translate(-127.751 -13.47)"/><path class="e" d="M256.492,40.1H190.777a151.553,151.553,0,0,1,18.9-31.462l1.713-2.181c5.416-6.9,13.537-8.267,20.031-4.111a18.129,18.129,0,0,1,4.464,4.111l1.713,2.181a151.553,151.553,0,0,1,18.9,31.462Z" transform="translate(-143.027 0)"/><path class="j" d="M175.5,79.6a181.864,181.864,0,0,0-15.508,74.218,189.656,189.656,0,0,0,1.515,23.941,184.337,184.337,0,0,0,4.516,23.319l4.126,15.757,4.225,16.121h15.57l-4.225-16.121L181.6,201.074a184.339,184.339,0,0,1-4.516-23.319,189.671,189.671,0,0,1-1.515-23.941A181.864,181.864,0,0,1,191.072,79.6Z" transform="translate(-127.752 -39.54)"/><path class="f" d="M231.418,2.344v.005a18.194,18.194,0,0,0-4.464,4.106l-1.713,2.181a151.553,151.553,0,0,0-18.9,31.462H190.777a151.553,151.553,0,0,1,18.9-31.462l1.713-2.181c5.416-6.9,13.537-8.267,20.031-4.111Z" transform="translate(-143.026 0)"/><path class="e" d="M256.573,352l-4.219,16.121H184.379L180.154,352Z" transform="translate(-137.755 -174.746)"/><path class="f" d="M199.949,368.118h-15.57L180.154,352h15.57Z" transform="translate(-137.755 -174.746)"/><circle class="g" cx="32.171" cy="32.171" r="32.171" transform="translate(48.001 80.634)"/><path class="h" d="M229.433,224.058a32.243,32.243,0,1,1,0-63.645,32.244,32.244,0,0,0,0,63.645Z" transform="translate(-143.634 -79.437)"/><circle class="e" cx="16.101" cy="16.101" r="16.101" transform="translate(64.507 96.697)"/><path class="f" d="M245.33,223.378a16.1,16.1,0,1,1,0-30.491,16.107,16.107,0,0,0,0,30.491Z" transform="translate(-159.532 -95.335)"/></g></g></g></svg>
