<svg xmlns="http://www.w3.org/2000/svg" width="38" height="38" viewBox="0 0 38 38"><defs><style>.a{fill:none;}.b{fill:#fff;}.c{fill:#282828;}</style></defs><g transform="translate(-342 -254)"><rect class="a" width="38" height="38" transform="translate(342 254)"/><g transform="translate(342 258.021)"><ellipse class="b" cx="8.973" cy="10.354" rx="8.973" ry="10.354" transform="translate(10.176 5.827)"/><path class="c" d="M274.365,202.327q-4.226,0-8.451,0a10.708,10.708,0,0,1-4.142-20.669.806.806,0,0,0,.537-.557,12.036,12.036,0,0,1,23.238,1.478,3.9,3.9,0,0,1,.135.823c-.01.417.165.588.555.727a9.359,9.359,0,0,1-1.219,17.994,10.51,10.51,0,0,1-2.075.2c-2.859.021-5.718.009-8.577.009Zm2.041-13.4c.9,0,1.734,0,2.57,0a1.324,1.324,0,0,0,1.337-.821,1.3,1.3,0,0,0-.341-1.528q-2.6-2.606-5.21-5.208a1.339,1.339,0,0,0-2.063,0c-.5.49-.987.986-1.48,1.479q-1.864,1.865-3.727,3.731a1.325,1.325,0,0,0-.177,1.815,1.339,1.339,0,0,0,1.128.532c.86,0,1.72,0,2.61,0,0,.2,0,.352,0,.5,0,1.632-.012,3.265.005,4.9a2.669,2.669,0,0,0,5.293.456,4.025,4.025,0,0,0,.054-.749C276.408,192.354,276.406,190.668,276.406,188.932Z" transform="translate(-254.974 -172.847)"/></g></g></svg>
