<svg width="210" height="88" viewBox="0 0 210 88" fill="none" xmlns="http://www.w3.org/2000/svg">
<path d="M96.9961 44.0002H113.002M113.002 44.0002L108.335 48.6668M113.002 44.0002L108.335 39.3335" stroke="#212229" stroke-width="2.3" stroke-linecap="round" stroke-linejoin="round"/>
<path opacity="0.04" d="M201.906 48.6463C194.056 36.2559 195.112 23.6543 191.346 17.6703C187.58 11.6863 176.21 1.30232 148.719 18.6911C121.228 36.0447 127.845 55.4751 131.999 62.0575C151.429 92.8575 215.775 70.6111 201.906 48.6463Z" fill="#0D0D1E"/>
<path d="M142.594 14.3265L145.586 11.3345L147.099 12.8481L144.107 15.8401L142.594 14.3265Z" fill="#0D0D1E"/>
<path d="M133.971 22.9505L136.963 19.9585L138.476 21.4721L135.484 24.4641L133.971 22.9505Z" fill="#0D0D1E"/>
<path d="M133.971 12.4609L135.484 10.9473L138.476 13.9393L136.963 15.4529L133.971 12.4609Z" fill="#0D0D1E"/>
<path d="M196.733 78.8832C194.902 78.8832 193.424 77.4048 193.424 75.5744C193.424 73.744 194.902 72.2656 196.733 72.2656C198.563 72.2656 200.041 73.744 200.041 75.5744C200.041 77.4048 198.563 78.8832 196.733 78.8832ZM196.733 74.448C196.134 74.448 195.641 74.9408 195.641 75.5392C195.641 76.1376 196.134 76.6304 196.733 76.6304C197.331 76.6304 197.824 76.1376 197.824 75.5392C197.824 74.9408 197.331 74.448 196.733 74.448Z" fill="#0D0D1E"/>
<path d="M185.924 58.1503H192.592C193.521 58.1503 194.11 57.1564 193.665 56.3419L191.666 52.6837C191.466 52.3175 191.466 51.8745 191.667 51.5088L193.658 47.8877C194.105 47.0731 193.516 46.0767 192.587 46.0767H184.516" stroke="black" stroke-width="2.816" stroke-miterlimit="10" stroke-linejoin="round"/>
<path d="M146.077 58.1503H139.408C138.48 58.1503 137.891 57.1564 138.336 56.3419L140.335 52.6837C140.535 52.3175 140.535 51.8745 140.334 51.5088L138.343 47.8877C137.895 47.0731 138.485 46.0767 139.414 46.0767H147.485" stroke="black" stroke-width="2.816" stroke-miterlimit="10" stroke-linejoin="round"/>
<path d="M157.904 26.2239V19.9231C157.904 15.4527 161.53 11.8271 166 11.8271C170.471 11.8271 174.096 15.4527 174.096 19.9231V26.2239" stroke="black" stroke-width="2.816" stroke-miterlimit="10" stroke-linejoin="round"/>
<path d="M183.389 36.2459L186.092 69.5673C186.38 73.1255 183.57 76.1725 180.001 76.1725H151.984C148.42 76.1725 145.612 73.1351 145.892 69.582L148.802 32.5946C149.052 29.4153 151.705 26.9629 154.894 26.9629H177.047C180.261 26.9629 182.925 29.4518 183.144 32.6579L183.389 36.2459Z" fill="#EA5D35" stroke="black" stroke-width="2.816" stroke-miterlimit="10" stroke-linejoin="round"/>
<path opacity="0.1" d="M154.807 26.9629L152.871 76.1725H145.373L149.245 26.9629H154.807Z" fill="white"/>
<path d="M164.38 63.0432C163.571 63.0432 162.726 62.9024 161.811 62.656C160.896 62.4096 160.156 62.0576 159.558 61.5648C159.276 61.3184 159.065 61.0016 158.889 60.6496C158.713 60.2624 158.643 59.9104 158.643 59.5584C158.643 59.2064 158.784 58.8544 159.1 58.5024C159.417 58.1856 159.875 58.0096 160.438 58.0096C160.825 58.0096 161.318 58.2208 161.916 58.6432C162.268 58.8544 162.656 59.0656 163.043 59.2416C163.465 59.4176 163.888 59.488 164.31 59.488C165.366 59.488 166.246 59.312 167.02 58.9248C167.795 58.5376 168.358 58.0096 168.78 57.3408C169.203 56.672 169.414 55.8624 169.414 54.9472C169.414 54.1376 169.238 53.3984 168.851 52.8352C168.464 52.2368 167.971 51.7792 167.337 51.4624C166.704 51.1456 166.035 50.9696 165.331 50.9696C164.662 50.9696 164.064 51.0752 163.571 51.2864C163.078 51.4976 162.62 51.744 162.198 51.9552C161.776 52.1664 161.388 52.3072 160.966 52.3072C160.262 52.3072 159.699 52.1664 159.382 51.8496C159.03 51.5328 158.819 51.1456 158.713 50.7232C158.643 50.3008 158.608 49.9136 158.643 49.5616L159.664 41.6416C159.734 41.184 159.98 40.7968 160.332 40.5152C160.684 40.2336 161.107 40.0576 161.635 40.0576H171.068C171.596 40.0576 172.019 40.2336 172.371 40.5856C172.723 40.9376 172.899 41.36 172.899 41.888C172.899 42.3808 172.723 42.8032 172.371 43.1552C172.019 43.5072 171.596 43.648 171.068 43.648H162.656L163.008 43.3664L162.128 49.984L161.705 48.752C161.846 48.5408 162.128 48.3296 162.55 48.1184C162.972 47.9072 163.5 47.7664 164.064 47.6256C164.627 47.4848 165.19 47.4144 165.718 47.4144C167.161 47.4144 168.464 47.7312 169.625 48.4C170.787 49.0688 171.667 49.9488 172.336 51.1104C173.004 52.2368 173.321 53.5392 173.321 54.9824C173.321 56.6016 172.934 58.0448 172.23 59.2416C171.491 60.4736 170.47 61.3888 169.132 62.0576C167.795 62.7264 166.211 63.0432 164.38 63.0432Z" fill="white"/>
</svg>
