<svg width="55" height="56" viewBox="0 0 55 56" fill="none" xmlns="http://www.w3.org/2000/svg">
<g clip-path="url(#clip0_1623_10163)">
<path opacity="0.04" d="M49.9398 30.9045C45.0338 23.1605 45.6938 15.2845 43.3398 11.5445C40.9858 7.8045 33.8798 1.3145 16.6978 12.1825C-0.484152 23.0285 3.65185 35.1725 6.24785 39.2865C18.3918 58.5365 58.6078 44.6325 49.9398 30.9045Z" fill="#0D0D1E"/>
<path opacity="0.5" d="M12.8711 9.45398L14.7411 7.58398L15.6871 8.52998L13.8171 10.4L12.8711 9.45398Z" fill="#0D0D1E"/>
<path opacity="0.5" d="M7.48047 14.8446L9.35047 12.9746L10.2965 13.9206L8.42647 15.7906L7.48047 14.8446Z" fill="#0D0D1E"/>
<path opacity="0.5" d="M7.48047 8.28877L8.42647 7.34277L10.2965 9.21277L9.35047 10.1588L7.48047 8.28877Z" fill="#0D0D1E"/>
<path opacity="0.5" d="M46.7067 49.8025C45.5627 49.8025 44.6387 48.8785 44.6387 47.7345C44.6387 46.5905 45.5627 45.6665 46.7067 45.6665C47.8507 45.6665 48.7747 46.5905 48.7747 47.7345C48.7747 48.8785 47.8507 49.8025 46.7067 49.8025ZM46.7067 47.0305C46.3327 47.0305 46.0247 47.3385 46.0247 47.7125C46.0247 48.0865 46.3327 48.3945 46.7067 48.3945C47.0807 48.3945 47.3887 48.0865 47.3887 47.7125C47.3887 47.3385 47.0807 47.0305 46.7067 47.0305Z" fill="#0D0D1E"/>
<g opacity="0.5">
<path d="M39.9503 36.8439H44.1183C44.6984 36.8439 45.0668 36.2227 44.7886 35.7136L43.5391 33.4273C43.414 33.1984 43.4144 32.9215 43.54 32.6929L44.7841 30.4297C45.064 29.9206 44.6956 29.2979 44.1147 29.2979H39.0703" stroke="black" stroke-width="1.76" stroke-miterlimit="10" stroke-linejoin="round"/>
<path d="M15.0498 36.8434H10.8817C10.3016 36.8434 9.93323 36.2222 10.2114 35.7131L11.461 33.4268C11.586 33.1979 11.5857 32.921 11.4601 32.6925L10.2159 30.4292C9.9361 29.9201 10.3044 29.2974 10.8854 29.2974H15.9298" stroke="black" stroke-width="1.76" stroke-miterlimit="10" stroke-linejoin="round"/>
<path d="M22.4395 16.8896V12.9516C22.4395 10.1576 24.7055 7.8916 27.4995 7.8916C30.2935 7.8916 32.5595 10.1576 32.5595 12.9516V16.8896" stroke="black" stroke-width="1.76" stroke-miterlimit="10" stroke-linejoin="round"/>
<path d="M38.3674 23.1535L40.0566 43.9793C40.237 46.2032 38.4808 48.1076 36.2496 48.1076H18.7392C16.5117 48.1076 14.7568 46.2092 14.9315 43.9885L16.7505 20.8714C16.9068 18.8843 18.5649 17.3516 20.5581 17.3516H34.4038C36.4123 17.3516 38.0776 18.9071 38.2144 20.9109L38.3674 23.1535Z" fill="#EA5D35" stroke="black" stroke-width="1.76" stroke-miterlimit="10" stroke-linejoin="round"/>
<path opacity="0.1" d="M20.5034 17.3516L19.2934 48.1076H14.6074L17.0274 17.3516H20.5034Z" fill="white"/>
<path d="M26.4872 39.9016C25.9812 39.9016 25.4532 39.8136 24.8812 39.6596C24.3092 39.5056 23.8472 39.2856 23.4732 38.9776C23.2972 38.8236 23.1652 38.6256 23.0552 38.4056C22.9452 38.1636 22.9012 37.9436 22.9012 37.7236C22.9012 37.5036 22.9892 37.2836 23.1872 37.0636C23.3852 36.8656 23.6712 36.7556 24.0232 36.7556C24.2652 36.7556 24.5732 36.8876 24.9472 37.1516C25.1672 37.2836 25.4092 37.4156 25.6512 37.5256C25.9152 37.6356 26.1792 37.6796 26.4432 37.6796C27.1032 37.6796 27.6532 37.5696 28.1372 37.3276C28.6212 37.0856 28.9732 36.7556 29.2372 36.3376C29.5012 35.9196 29.6332 35.4136 29.6332 34.8416C29.6332 34.3356 29.5232 33.8736 29.2812 33.5216C29.0392 33.1476 28.7312 32.8616 28.3352 32.6636C27.9392 32.4656 27.5212 32.3556 27.0812 32.3556C26.6632 32.3556 26.2892 32.4216 25.9812 32.5536C25.6732 32.6856 25.3872 32.8396 25.1232 32.9716C24.8592 33.1036 24.6172 33.1916 24.3532 33.1916C23.9132 33.1916 23.5612 33.1036 23.3632 32.9056C23.1432 32.7076 23.0112 32.4656 22.9452 32.2016C22.9012 31.9376 22.8792 31.6956 22.9012 31.4756L23.5392 26.5256C23.5832 26.2396 23.7372 25.9976 23.9572 25.8216C24.1772 25.6456 24.4412 25.5356 24.7712 25.5356H30.6672C30.9972 25.5356 31.2612 25.6456 31.4812 25.8656C31.7012 26.0856 31.8112 26.3496 31.8112 26.6796C31.8112 26.9876 31.7012 27.2516 31.4812 27.4716C31.2612 27.6916 30.9972 27.7796 30.6672 27.7796H25.4092L25.6292 27.6036L25.0792 31.7396L24.8152 30.9696C24.9032 30.8376 25.0792 30.7056 25.3432 30.5736C25.6072 30.4416 25.9372 30.3536 26.2892 30.2656C26.6412 30.1776 26.9932 30.1336 27.3232 30.1336C28.2252 30.1336 29.0392 30.3316 29.7652 30.7496C30.4912 31.1676 31.0412 31.7176 31.4592 32.4436C31.8772 33.1476 32.0752 33.9616 32.0752 34.8636C32.0752 35.8756 31.8332 36.7776 31.3932 37.5256C30.9312 38.2956 30.2932 38.8676 29.4572 39.2856C28.6212 39.7036 27.6312 39.9016 26.4872 39.9016Z" fill="white"/>
</g>
<circle cx="41.5" cy="11" r="10.5" fill="#1A1A1A"/>
<g clip-path="url(#clip1_1623_10163)">
<path fill-rule="evenodd" clip-rule="evenodd" d="M39.8296 5.89121C40.4049 5.31598 41.0933 5.02881 41.8949 5.02881C42.6965 5.02881 43.385 5.31598 43.9602 5.89121C44.5355 6.46644 44.8226 7.15491 44.8226 7.95738V9.21083H46.0779V15.9044H37.7129V9.21083H38.9663V7.95738C38.9663 7.15491 39.2544 6.46644 39.8296 5.89121H39.8296ZM38.5488 10.0481V15.0673H45.2414V10.0481H38.5488ZM43.3692 6.47951C42.9595 6.07078 42.4675 5.86499 41.8923 5.86499C41.317 5.86499 40.825 6.07076 40.4153 6.47951C40.0056 6.88921 39.8008 7.38126 39.8008 7.95732V9.21077H43.9838V7.95732C43.9838 7.38125 43.7789 6.88921 43.3692 6.47951Z" fill="white"/>
</g>
</g>
<defs>
<clipPath id="clip0_1623_10163">
<rect width="55" height="55" fill="white" transform="translate(0 0.5)"/>
</clipPath>
<clipPath id="clip1_1623_10163">
<rect width="8.36502" height="10.8756" fill="white" transform="translate(37.7109 5.02832)"/>
</clipPath>
</defs>
</svg>
