<svg width="22" height="24" viewBox="0 0 22 24" fill="none" xmlns="http://www.w3.org/2000/svg">
<rect y="6.10352e-05" width="22" height="24" rx="11" fill="#F5F8F2"/>
<g clip-path="url(#clip0_1374_12928)">
<path d="M16.2371 7.14199C16.2262 7.06199 16.1562 7.01771 16.0984 7.01284C16.0407 7.00802 14.8198 6.91733 14.8198 6.91733C14.8198 6.91733 13.9718 6.07377 13.8788 5.9804C13.7856 5.88708 13.6038 5.91547 13.5332 5.93629C13.5228 5.93936 13.3479 5.99344 13.0586 6.08314C12.7754 5.26637 12.2755 4.5158 11.396 4.5158C11.3718 4.5158 11.3468 4.51678 11.3218 4.51821C11.0717 4.18676 10.7618 4.04276 10.4942 4.04276C8.44556 4.04276 7.4668 6.60906 7.15993 7.91317C6.36387 8.16034 5.79835 8.33607 5.72611 8.35881C5.28177 8.49848 5.26771 8.51251 5.20937 8.93207C5.16546 9.24971 4.00281 18.2595 4.00281 18.2595L13.0624 19.9605L17.9712 18.8963C17.9712 18.8963 16.248 7.22199 16.2371 7.14199ZM12.5579 6.23832L11.7913 6.47607C11.7916 6.42193 11.7919 6.36867 11.7919 6.31043C11.7919 5.80281 11.7216 5.3941 11.6087 5.0701C12.0619 5.12708 12.3637 5.64374 12.5579 6.23832ZM11.0466 5.17076C11.1726 5.48708 11.2545 5.94106 11.2545 6.55366C11.2545 6.585 11.2542 6.61366 11.254 6.64265C10.7554 6.79739 10.2137 6.96539 9.67076 7.13393C9.97562 5.95497 10.547 5.38555 11.0466 5.17076ZM10.438 4.59339C10.5264 4.59339 10.6154 4.62347 10.7007 4.68226C10.0441 4.99185 9.34037 5.77158 9.04318 7.32867L7.79173 7.71706C8.13983 6.52939 8.96646 4.59339 10.438 4.59339Z" fill="#95BF46"/>
<path d="M16.0984 7.01282C16.0407 7.008 14.8198 6.91732 14.8198 6.91732C14.8198 6.91732 13.9718 6.07376 13.8788 5.98039C13.8439 5.94565 13.797 5.92784 13.7479 5.92017L13.0629 19.9603L17.9712 18.8963C17.9712 18.8963 16.248 7.22197 16.2372 7.14197C16.2262 7.06197 16.1562 7.0177 16.0984 7.01282Z" fill="#5E8E3E"/>
<path d="M11.396 9.73074L10.7907 11.5349C10.7907 11.5349 10.2604 11.2513 9.61037 11.2513C8.65737 11.2513 8.60941 11.8506 8.60941 12.0016C8.60941 12.8256 10.7529 13.1413 10.7529 15.0714C10.7529 16.5899 9.7918 17.5677 8.49584 17.5677C6.94068 17.5677 6.14539 16.5979 6.14539 16.5979L6.56179 15.2192C6.56179 15.2192 7.37929 15.9225 8.0691 15.9225C8.51984 15.9225 8.70319 15.5669 8.70319 15.3071C8.70319 14.2322 6.94462 14.1843 6.94462 12.4181C6.94462 10.9316 8.00939 9.49304 10.1587 9.49304C10.9869 9.49304 11.396 9.73074 11.396 9.73074Z" fill="white"/>
</g>
<defs>
<clipPath id="clip0_1374_12928">
<rect width="14" height="16" fill="white" transform="translate(4 4.00006)"/>
</clipPath>
</defs>
</svg>
