<svg width="210" height="88" viewBox="0 0 210 88" fill="none" xmlns="http://www.w3.org/2000/svg">
<g opacity="0.3">
<path opacity="0.04" d="M79.9002 48.6463C72.0506 36.2559 73.1066 23.6543 69.3402 17.6703C65.5738 11.6863 54.2042 1.30232 26.713 18.6911C-0.77816 36.0447 5.83944 55.4751 9.99304 62.0575C29.4234 92.8575 93.769 70.6111 79.9002 48.6463Z" fill="#0D0D1E"/>
<path d="M20.5879 14.3265L23.5799 11.3345L25.0935 12.8481L22.1015 15.8401L20.5879 14.3265Z" fill="#0D0D1E"/>
<path d="M11.9648 22.9505L14.9568 19.9585L16.4704 21.4721L13.4784 24.4641L11.9648 22.9505Z" fill="#0D0D1E"/>
<path d="M11.9648 12.4609L13.4784 10.9473L16.4704 13.9393L14.9568 15.4529L11.9648 12.4609Z" fill="#0D0D1E"/>
<path d="M74.7268 78.8832C72.8964 78.8832 71.418 77.4048 71.418 75.5744C71.418 73.744 72.8964 72.2656 74.7268 72.2656C76.5572 72.2656 78.0356 73.744 78.0356 75.5744C78.0356 77.4048 76.5572 78.8832 74.7268 78.8832ZM74.7268 74.448C74.1284 74.448 73.6356 74.9408 73.6356 75.5392C73.6356 76.1376 74.1284 76.6304 74.7268 76.6304C75.3252 76.6304 75.818 76.1376 75.818 75.5392C75.818 74.9408 75.3252 74.448 74.7268 74.448Z" fill="#0D0D1E"/>
<path d="M63.9178 58.1503H70.5866C71.5147 58.1503 72.1042 57.1564 71.6591 56.3419L69.6598 52.6837C69.4597 52.3175 69.4602 51.8745 69.6613 51.5088L71.6518 47.8877C72.0996 47.0731 71.5103 46.0767 70.5808 46.0767H62.5098" stroke="black" stroke-width="2.816" stroke-miterlimit="10" stroke-linejoin="round"/>
<path d="M24.0714 58.1503H17.4026C16.4744 58.1503 15.885 57.1564 16.3301 56.3419L18.3293 52.6837C18.5295 52.3175 18.5289 51.8745 18.3279 51.5088L16.3373 47.8877C15.8896 47.0731 16.4789 46.0767 17.4084 46.0767H25.4794" stroke="black" stroke-width="2.816" stroke-miterlimit="10" stroke-linejoin="round"/>
<path d="M35.8984 26.2239V19.9231C35.8984 15.4527 39.524 11.8271 43.9944 11.8271C48.4648 11.8271 52.0904 15.4527 52.0904 19.9231V26.2239" stroke="black" stroke-width="2.816" stroke-miterlimit="10" stroke-linejoin="round"/>
<path d="M61.3832 36.2459L64.0858 69.5673C64.3745 73.1255 61.5646 76.1725 57.9947 76.1725H29.978C26.414 76.1725 23.6062 73.1351 23.8858 69.582L26.7961 32.5946C27.0462 29.4153 29.6992 26.9629 32.8883 26.9629H55.0414C58.2549 26.9629 60.9195 29.4518 61.1383 32.6579L61.3832 36.2459Z" fill="#EA5D35" stroke="black" stroke-width="2.816" stroke-miterlimit="10" stroke-linejoin="round"/>
<path opacity="0.1" d="M32.8008 26.9629L30.8648 76.1725H23.3672L27.2392 26.9629H32.8008Z" fill="white"/>
<path d="M42.3745 63.0432C41.5649 63.0432 40.7201 62.9024 39.8049 62.656C38.8897 62.4096 38.1505 62.0576 37.5521 61.5648C37.2705 61.3184 37.0593 61.0016 36.8833 60.6496C36.7073 60.2624 36.6369 59.9104 36.6369 59.5584C36.6369 59.2064 36.7777 58.8544 37.0945 58.5024C37.4113 58.1856 37.8689 58.0096 38.4321 58.0096C38.8193 58.0096 39.3121 58.2208 39.9105 58.6432C40.2625 58.8544 40.6497 59.0656 41.0369 59.2416C41.4593 59.4176 41.8817 59.488 42.3041 59.488C43.3601 59.488 44.2401 59.312 45.0145 58.9248C45.7889 58.5376 46.3521 58.0096 46.7745 57.3408C47.1969 56.672 47.4081 55.8624 47.4081 54.9472C47.4081 54.1376 47.2321 53.3984 46.8449 52.8352C46.4577 52.2368 45.9649 51.7792 45.3313 51.4624C44.6977 51.1456 44.0289 50.9696 43.3249 50.9696C42.6561 50.9696 42.0577 51.0752 41.5649 51.2864C41.0721 51.4976 40.6145 51.744 40.1921 51.9552C39.7697 52.1664 39.3825 52.3072 38.9601 52.3072C38.2561 52.3072 37.6929 52.1664 37.3761 51.8496C37.0241 51.5328 36.8129 51.1456 36.7073 50.7232C36.6369 50.3008 36.6017 49.9136 36.6369 49.5616L37.6577 41.6416C37.7281 41.184 37.9745 40.7968 38.3265 40.5152C38.6785 40.2336 39.1009 40.0576 39.6289 40.0576H49.0625C49.5905 40.0576 50.0129 40.2336 50.3649 40.5856C50.7169 40.9376 50.8929 41.36 50.8929 41.888C50.8929 42.3808 50.7169 42.8032 50.3649 43.1552C50.0129 43.5072 49.5905 43.648 49.0625 43.648H40.6497L41.0017 43.3664L40.1217 49.984L39.6993 48.752C39.8401 48.5408 40.1217 48.3296 40.5441 48.1184C40.9665 47.9072 41.4945 47.7664 42.0577 47.6256C42.6209 47.4848 43.1841 47.4144 43.7121 47.4144C45.1553 47.4144 46.4577 47.7312 47.6193 48.4C48.7809 49.0688 49.6609 49.9488 50.3297 51.1104C50.9985 52.2368 51.3153 53.5392 51.3153 54.9824C51.3153 56.6016 50.9281 58.0448 50.2241 59.2416C49.4849 60.4736 48.4641 61.3888 47.1265 62.0576C45.7889 62.7264 44.2049 63.0432 42.3745 63.0432Z" fill="white"/>
</g>
<path d="M96.9961 44.0002H113.002M113.002 44.0002L108.335 48.6668M113.002 44.0002L108.335 39.3335" stroke="#212229" stroke-width="2.3" stroke-linecap="round" stroke-linejoin="round"/>
<path opacity="0.04" d="M201.906 48.6463C194.056 36.2559 195.112 23.6543 191.346 17.6703C187.58 11.6863 176.21 1.30232 148.719 18.6911C121.228 36.0447 127.845 55.4751 131.999 62.0575C151.429 92.8575 215.775 70.6111 201.906 48.6463Z" fill="#0D0D1E"/>
<path d="M142.594 14.3265L145.586 11.3345L147.099 12.8481L144.107 15.8401L142.594 14.3265Z" fill="#0D0D1E"/>
<path d="M133.971 22.9505L136.963 19.9585L138.476 21.4721L135.484 24.4641L133.971 22.9505Z" fill="#0D0D1E"/>
<path d="M133.971 12.4609L135.484 10.9473L138.476 13.9393L136.963 15.4529L133.971 12.4609Z" fill="#0D0D1E"/>
<path d="M196.733 78.8832C194.902 78.8832 193.424 77.4048 193.424 75.5744C193.424 73.744 194.902 72.2656 196.733 72.2656C198.563 72.2656 200.041 73.744 200.041 75.5744C200.041 77.4048 198.563 78.8832 196.733 78.8832ZM196.733 74.448C196.134 74.448 195.641 74.9408 195.641 75.5392C195.641 76.1376 196.134 76.6304 196.733 76.6304C197.331 76.6304 197.824 76.1376 197.824 75.5392C197.824 74.9408 197.331 74.448 196.733 74.448Z" fill="#0D0D1E"/>
<path d="M185.924 58.1503H192.592C193.521 58.1503 194.11 57.1564 193.665 56.3419L191.666 52.6837C191.466 52.3175 191.466 51.8745 191.667 51.5088L193.658 47.8877C194.105 47.0731 193.516 46.0767 192.587 46.0767H184.516" stroke="black" stroke-width="2.816" stroke-miterlimit="10" stroke-linejoin="round"/>
<path d="M146.077 58.1503H139.408C138.48 58.1503 137.891 57.1564 138.336 56.3419L140.335 52.6837C140.535 52.3175 140.535 51.8745 140.334 51.5088L138.343 47.8877C137.895 47.0731 138.485 46.0767 139.414 46.0767H147.485" stroke="black" stroke-width="2.816" stroke-miterlimit="10" stroke-linejoin="round"/>
<path d="M157.904 26.2239V19.9231C157.904 15.4527 161.53 11.8271 166 11.8271C170.471 11.8271 174.096 15.4527 174.096 19.9231V26.2239" stroke="black" stroke-width="2.816" stroke-miterlimit="10" stroke-linejoin="round"/>
<path d="M183.389 36.2459L186.092 69.5673C186.38 73.1255 183.57 76.1725 180.001 76.1725H151.984C148.42 76.1725 145.612 73.1351 145.892 69.582L148.802 32.5946C149.052 29.4153 151.705 26.9629 154.894 26.9629H177.047C180.261 26.9629 182.925 29.4518 183.144 32.6579L183.389 36.2459Z" fill="#EA5D35" stroke="black" stroke-width="2.816" stroke-miterlimit="10" stroke-linejoin="round"/>
<path opacity="0.1" d="M154.807 26.9629L152.871 76.1725H145.373L149.245 26.9629H154.807Z" fill="white"/>
<path d="M164.38 63.0432C163.571 63.0432 162.726 62.9024 161.811 62.656C160.896 62.4096 160.156 62.0576 159.558 61.5648C159.276 61.3184 159.065 61.0016 158.889 60.6496C158.713 60.2624 158.643 59.9104 158.643 59.5584C158.643 59.2064 158.784 58.8544 159.1 58.5024C159.417 58.1856 159.875 58.0096 160.438 58.0096C160.825 58.0096 161.318 58.2208 161.916 58.6432C162.268 58.8544 162.656 59.0656 163.043 59.2416C163.465 59.4176 163.888 59.488 164.31 59.488C165.366 59.488 166.246 59.312 167.02 58.9248C167.795 58.5376 168.358 58.0096 168.78 57.3408C169.203 56.672 169.414 55.8624 169.414 54.9472C169.414 54.1376 169.238 53.3984 168.851 52.8352C168.464 52.2368 167.971 51.7792 167.337 51.4624C166.704 51.1456 166.035 50.9696 165.331 50.9696C164.662 50.9696 164.064 51.0752 163.571 51.2864C163.078 51.4976 162.62 51.744 162.198 51.9552C161.776 52.1664 161.388 52.3072 160.966 52.3072C160.262 52.3072 159.699 52.1664 159.382 51.8496C159.03 51.5328 158.819 51.1456 158.713 50.7232C158.643 50.3008 158.608 49.9136 158.643 49.5616L159.664 41.6416C159.734 41.184 159.98 40.7968 160.332 40.5152C160.684 40.2336 161.107 40.0576 161.635 40.0576H171.068C171.596 40.0576 172.019 40.2336 172.371 40.5856C172.723 40.9376 172.899 41.36 172.899 41.888C172.899 42.3808 172.723 42.8032 172.371 43.1552C172.019 43.5072 171.596 43.648 171.068 43.648H162.656L163.008 43.3664L162.128 49.984L161.705 48.752C161.846 48.5408 162.128 48.3296 162.55 48.1184C162.972 47.9072 163.5 47.7664 164.064 47.6256C164.627 47.4848 165.19 47.4144 165.718 47.4144C167.161 47.4144 168.464 47.7312 169.625 48.4C170.787 49.0688 171.667 49.9488 172.336 51.1104C173.004 52.2368 173.321 53.5392 173.321 54.9824C173.321 56.6016 172.934 58.0448 172.23 59.2416C171.491 60.4736 170.47 61.3888 169.132 62.0576C167.795 62.7264 166.211 63.0432 164.38 63.0432Z" fill="white"/>
</svg>
