<svg xmlns="http://www.w3.org/2000/svg" width="20" height="20" viewBox="0 0 20 20"><defs><style>.a{fill:none;}.b{fill:#7563eb;}</style></defs><g transform="translate(-0.209 -0.209)"><rect class="a" width="20" height="20" transform="translate(0.209 0.209)"/><path class="b" d="M7.052,17.024a4.824,4.824,0,0,1,2.117.46,4.662,4.662,0,0,1,.586.33q.106.057.338.191a1.185,1.185,0,0,0,.3.142V5.469a2.8,2.8,0,0,0-.851-.9A4.773,4.773,0,0,0,8.2,3.918a5.179,5.179,0,0,0-1.567-.24,5.611,5.611,0,0,0-1.5.2,5.9,5.9,0,0,0-1.278.509,4.819,4.819,0,0,0-.957.672,2.557,2.557,0,0,0-.55.676V17.4a.845.845,0,0,0,.232.672.85.85,0,0,0,.574.2.988.988,0,0,0,.419-.081,1.883,1.883,0,0,0,.346-.212,3.513,3.513,0,0,1,.7-.432,5.26,5.26,0,0,1,1.063-.37A5.734,5.734,0,0,1,7.052,17.024Zm7.736,0a5.748,5.748,0,0,1,1.36.151,5.244,5.244,0,0,1,1.067.37,3.513,3.513,0,0,1,.7.432,2.1,2.1,0,0,0,.338.208.968.968,0,0,0,.427.085.827.827,0,0,0,.558-.2.845.845,0,0,0,.232-.672V5.73a2.243,2.243,0,0,0-.537-.676,4.936,4.936,0,0,0-.961-.672A5.918,5.918,0,0,0,16.7,3.873a5.534,5.534,0,0,0-1.486-.2,5.166,5.166,0,0,0-1.572.24,4.911,4.911,0,0,0-1.339.647,2.773,2.773,0,0,0-.859.9V18.164a1.024,1.024,0,0,0,.3-.151q.228-.142.342-.2a4.7,4.7,0,0,1,1.486-.651A4.861,4.861,0,0,1,14.788,17.024Z" transform="translate(-0.702 -0.764)"/></g></svg>
