<svg xmlns="http://www.w3.org/2000/svg" width="20" height="20" viewBox="0 0 20 20"><defs><style>.a{fill:none;}.b{fill:#7563eb;}</style></defs><rect class="a" width="20" height="20"/><path class="b" d="M2.354,13.808a3.086,3.086,0,0,0,.535,1.775,3.727,3.727,0,0,0,1.43,1.24,4.335,4.335,0,0,0,1.987.453,4.3,4.3,0,0,0,1.976-.453A3.7,3.7,0,0,0,9.7,15.583a3.1,3.1,0,0,0,.531-1.775V12.07a3.941,3.941,0,0,1,.561-.145,3.358,3.358,0,0,1,.613-.056,3.506,3.506,0,0,1,1.159.163v1.775a3.1,3.1,0,0,0,.531,1.779,3.709,3.709,0,0,0,1.426,1.237,4.558,4.558,0,0,0,3.962,0,3.746,3.746,0,0,0,1.426-1.237,3.081,3.081,0,0,0,.535-1.779,4.16,4.16,0,0,0-.074-.772,4.382,4.382,0,0,0-.282-.884L17.2,5.378a2.422,2.422,0,0,0-.928-1.121,2.592,2.592,0,0,0-1.426-.394,2.269,2.269,0,0,0-1.656.609,2.131,2.131,0,0,0-.624,1.6V6.7a4.073,4.073,0,0,0-.553-.1,5.346,5.346,0,0,0-.605-.033,3.975,3.975,0,0,0-.6.045,3.807,3.807,0,0,0-.576.134V6.069a2.135,2.135,0,0,0-.62-1.6,2.264,2.264,0,0,0-1.652-.605,2.605,2.605,0,0,0-1.433.394,2.379,2.379,0,0,0-.921,1.121L2.717,12.152a3.841,3.841,0,0,0-.364,1.656Zm1.24,0a2.041,2.041,0,0,1,.356-1.2,2.4,2.4,0,0,1,.969-.8A3.2,3.2,0,0,1,6.3,11.52a3.258,3.258,0,0,1,1.389.29,2.444,2.444,0,0,1,.988.8,2.14,2.14,0,0,1,0,2.388,2.409,2.409,0,0,1-.984.8,3.288,3.288,0,0,1-1.393.286A3.238,3.238,0,0,1,4.919,15.8,2.364,2.364,0,0,1,3.95,15,2.046,2.046,0,0,1,3.594,13.808Zm10.16,0a2,2,0,0,1,.368-1.2,2.449,2.449,0,0,1,.988-.8,3.288,3.288,0,0,1,1.393-.286,3.213,3.213,0,0,1,1.381.286,2.408,2.408,0,0,1,.969.8,2.165,2.165,0,0,1,0,2.391,2.408,2.408,0,0,1-.969.8,3.213,3.213,0,0,1-1.381.286,3.288,3.288,0,0,1-1.393-.286,2.449,2.449,0,0,1-.988-.8A2,2,0,0,1,13.754,13.808Zm-3.52-3.884V8.891a4.029,4.029,0,0,1,1.173-.171,5.346,5.346,0,0,1,.605.033,4.072,4.072,0,0,1,.553.1V9.879a4.334,4.334,0,0,0-1.771-.1A2.95,2.95,0,0,0,10.233,9.924Z" transform="translate(-1.399 -0.57)"/></svg>
