<svg xmlns="http://www.w3.org/2000/svg" width="20" height="20" viewBox="0 0 20 20"><defs><style>.a{fill:none;}.b{fill:#7563eb;}</style></defs><g transform="translate(-0.407)"><rect class="a" width="20" height="20" transform="translate(0.407)"/><path class="b" d="M5.266,16.354h7.782a2.493,2.493,0,0,0,1.787-.606,2.228,2.228,0,0,0,.639-1.7V7.067a2.3,2.3,0,0,0-.6-1.7,2.377,2.377,0,0,0-1.752-.6H5.266a2.532,2.532,0,0,0-1.771.6,2.193,2.193,0,0,0-.663,1.71v7a2.189,2.189,0,0,0,.639,1.691A2.544,2.544,0,0,0,5.266,16.354Zm11.246-3.607L19.093,14.9a2.227,2.227,0,0,0,.442.277,1.04,1.04,0,0,0,.442.1.928.928,0,0,0,.7-.281,1.006,1.006,0,0,0,.271-.73V6.857a.993.993,0,0,0-.271-.726.934.934,0,0,0-.7-.277,1.04,1.04,0,0,0-.442.1,2.227,2.227,0,0,0-.442.277L16.512,8.384Z" transform="translate(-1.42 -0.558)"/></g></svg>
