<svg xmlns="http://www.w3.org/2000/svg" width="24" height="24" viewBox="0 0 24 24" fill="none">
  <g clip-path="url(#clip0_7378_11121)">
    <path d="M14.5054 24C15.3078 24 16.0076 23.3002 16.0076 22.4978V18.9894H17.0107C17.6126 18.9894 18.0138 18.588 18.0138 17.9863V7.9658H5.98641V17.9864C5.98641 18.5882 6.38764 18.9894 6.98949 18.9894H7.99264V22.4978C7.99264 23.3003 8.69227 24.0001 9.49489 24.0001C10.2973 24.0001 10.997 23.3003 10.997 22.4978V18.9894H13.0032V22.4978C13.0031 23.3002 13.7029 24 14.5054 24ZM20.5192 17.9864C21.3216 17.9864 22.0213 17.2867 22.0213 16.4841V9.46741C22.0213 8.6692 21.3216 7.9658 20.5192 7.9658C19.7166 7.9658 19.0169 8.6692 19.0169 9.46741V16.4841C19.0169 17.2866 19.7165 17.9864 20.5192 17.9864ZM3.48109 17.9864C4.28363 17.9864 4.98334 17.2867 4.98334 16.4841V9.46741C4.98334 8.6692 4.28371 7.9658 3.48109 7.9658C2.67863 7.9658 1.979 8.6692 1.979 9.46741V16.4841C1.979 17.2866 2.67863 17.9864 3.48109 17.9864ZM16.81 0.151362C16.6095 -0.050454 16.3109 -0.050454 16.1104 0.151362L14.765 1.49224L14.7029 1.55422C13.9052 1.15476 13.0108 0.955262 12.0148 0.95334L12.0002 0.95318H12L11.9853 0.95334C10.9894 0.955262 10.095 1.15476 9.29732 1.55422L9.23509 1.49224L7.88981 0.151362C7.68911 -0.050454 7.39072 -0.050454 7.19018 0.151362C6.98949 0.352057 6.98949 0.649895 7.19018 0.85043L8.49157 2.15206C8.07224 2.43204 7.692 2.77465 7.36132 3.16651C6.56968 4.10487 6.06474 5.3261 5.9953 6.64927C5.99466 6.66305 5.9933 6.67666 5.99266 6.69044C5.98845 6.7809 5.98636 6.87145 5.98641 6.96201H18.0138C18.0138 6.87111 18.0116 6.78054 18.0075 6.69044C18.0069 6.67666 18.0055 6.66305 18.0047 6.64927C17.9354 5.3261 17.4303 4.10479 16.6387 3.16659C16.3082 2.77473 15.9278 2.43212 15.5084 2.15214L16.81 0.85051C17.0107 0.649895 17.0107 0.352057 16.81 0.151362ZM9.49296 5.21062C9.29367 5.21062 9.10254 5.13145 8.96161 4.99052C8.82069 4.8496 8.74152 4.65847 8.74152 4.45917C8.74152 4.25988 8.82069 4.06874 8.96161 3.92782C9.10254 3.7869 9.29367 3.70773 9.49296 3.70773C9.69226 3.70773 9.88339 3.7869 10.0243 3.92782C10.1652 4.06874 10.2444 4.25988 10.2444 4.45917C10.2444 4.65847 10.1652 4.8496 10.0243 4.99052C9.88339 5.13145 9.69226 5.21062 9.49296 5.21062ZM14.5072 5.21062C14.3079 5.21062 14.1168 5.13145 13.9759 4.99052C13.8349 4.8496 13.7558 4.65847 13.7558 4.45917C13.7558 4.25988 13.8349 4.06874 13.9759 3.92782C14.1168 3.7869 14.3079 3.70773 14.5072 3.70773C14.7065 3.70773 14.8976 3.7869 15.0386 3.92782C15.1795 4.06874 15.2587 4.25988 15.2587 4.45917C15.2587 4.65847 15.1795 4.8496 15.0386 4.99052C14.8976 5.13145 14.7065 5.21062 14.5072 5.21062Z" fill="black"/>
  </g>
  <defs>
    <clipPath id="clip0_7378_11121">
      <rect width="24" height="24" fill="white"/>
    </clipPath>
  </defs>
</svg>
