<svg xmlns="http://www.w3.org/2000/svg" width="24" height="24" viewBox="0 0 24 24" fill="none">
  <path fill-rule="evenodd" clip-rule="evenodd" d="M1.3941 18.8955H11.2544C11.3822 19.537 11.6112 20.1541 11.9329 20.7237H1.3941C1.34044 20.7236 1.289 20.7022 1.25106 20.6643C1.21311 20.6264 1.19175 20.5749 1.19165 20.5213V19.098C1.19174 19.0444 1.21309 18.9929 1.25104 18.955C1.28899 18.917 1.34043 18.8956 1.3941 18.8955ZM3.04096 9.02254V18.1455H5.29743V10.976C5.29743 10.753 5.47935 10.5711 5.70238 10.5711H9.40148C9.62451 10.5711 9.80643 10.753 9.80643 10.976V18.1455H11.1518C11.1401 17.9891 11.1342 17.8323 11.1343 17.6754C11.1343 16.2263 11.6304 14.8932 12.4621 13.8365C12.299 13.7841 12.1804 13.6309 12.1804 13.4508V10.976C12.1804 10.753 12.3623 10.5711 12.5853 10.5711H16.9413C17.1644 10.5711 17.3463 10.753 17.3463 10.976V11.4634C18.0767 11.4634 18.7777 11.5895 19.4286 11.821V9.02254C19.2639 9.05118 19.0945 9.06613 18.9216 9.06613C17.8551 9.06613 16.8793 8.49093 16.3593 7.5659C15.8393 8.49093 14.8636 9.06613 13.797 9.06613C12.7305 9.06613 11.7547 8.49093 11.2348 7.5659C10.7149 8.49093 9.73907 9.06613 8.67257 9.06613C7.60607 9.06613 6.63027 8.49093 6.11034 7.5659C5.5904 8.49093 4.61456 9.06613 3.54806 9.06613C3.37509 9.06613 3.20568 9.05118 3.04096 9.02254ZM17.3463 12.2134C14.3297 12.2134 11.8843 14.6588 11.8843 17.6754C11.8843 20.6919 14.3297 23.1374 17.3463 23.1374C20.3629 23.1374 22.8083 20.692 22.8083 17.6754C22.8083 14.6588 20.3629 12.2134 17.3463 12.2134ZM14.8401 15.4099H14.1008C14.0014 15.4099 13.906 15.3704 13.8357 15.3001C13.7653 15.2298 13.7258 15.1344 13.7258 15.0349C13.7258 14.9355 13.7653 14.8401 13.8357 14.7698C13.906 14.6994 14.0014 14.6599 14.1008 14.6599L15.1293 14.6615C15.2123 14.6615 15.2929 14.6891 15.3584 14.7401C15.4239 14.791 15.4706 14.8623 15.4911 14.9427L15.6736 15.6531H20.5918C20.8509 15.6531 21.0292 15.9091 20.9466 16.1499L20.3957 18.4356C20.2791 18.9197 19.8578 19.2544 19.3593 19.2544H16.0371C15.9815 19.2544 15.9347 19.3011 15.9347 19.3567C15.9347 19.4122 15.9816 19.459 16.0371 19.459H20.1235C20.2229 19.459 20.3183 19.4985 20.3886 19.5688C20.459 19.6391 20.4985 19.7345 20.4985 19.834C20.4985 19.9334 20.459 20.0288 20.3886 20.0991C20.3183 20.1695 20.2229 20.209 20.1235 20.209H19.9281C19.9815 20.2601 20.024 20.3215 20.053 20.3895C20.082 20.4575 20.0969 20.5307 20.0969 20.6046C20.0969 20.9074 19.8514 21.1528 19.5487 21.1528C19.2459 21.1528 19.0005 20.9074 19.0005 20.6046C19.0005 20.5307 19.0154 20.4575 19.0444 20.3895C19.0734 20.3215 19.1159 20.2601 19.1693 20.209H16.7115C16.7649 20.2601 16.8074 20.3215 16.8364 20.3895C16.8655 20.4575 16.8804 20.5307 16.8803 20.6046C16.8803 20.9074 16.6349 21.1528 16.3321 21.1528C16.0294 21.1528 15.784 20.9074 15.784 20.6046C15.7839 20.5298 15.7992 20.4557 15.8289 20.3869C15.8587 20.3182 15.9022 20.2563 15.9569 20.2051C15.5247 20.1645 15.1847 19.7991 15.1847 19.3566C15.1847 19.0325 15.3694 18.7376 15.6578 18.5936L14.8401 15.4099ZM1.60251 5.7539H5.8222L7.11135 0.862305H4.18232C4.15963 0.862305 4.15129 0.865352 4.14065 0.886164L1.60251 5.7539ZM6.59601 5.7539L7.88512 0.862305H10.8598V5.7539H6.59601ZM11.6098 5.7539H15.8736L14.5844 0.862305H11.6098V5.7539ZM18.2872 0.862305C18.3228 0.862305 18.3286 0.885602 18.3432 0.913586L20.867 5.7539H16.6473L15.3582 0.862305H18.2872ZM21.0767 6.5039C20.8961 7.54954 19.9852 8.31613 18.9215 8.31613C17.8578 8.31613 16.9469 7.54954 16.7663 6.5039H21.0767ZM15.9522 6.5039C15.7716 7.54959 14.8608 8.31613 13.797 8.31613C12.7334 8.31613 11.8225 7.54954 11.6419 6.5039H15.9522ZM10.8277 6.5039C10.6471 7.54959 9.73621 8.31613 8.67253 8.31613C7.60879 8.31613 6.69801 7.54959 6.51735 6.5039H10.8277ZM5.70323 6.5039C5.52262 7.54959 4.61174 8.31613 3.54801 8.31613C2.48432 8.31613 1.5734 7.54954 1.39279 6.5039H5.70323Z" fill="black"/>
</svg>
