<svg width="16" height="16" viewBox="0 0 16 16" fill="none" xmlns="http://www.w3.org/2000/svg">
<g clip-path="url(#clip0_3325_39313)">
<path d="M6.74571 2.82412L6.7459 2.82379C7.30238 1.85838 8.69853 1.85838 9.25501 2.82379L9.25514 2.82401L14.3921 11.7252L14.3924 11.7256C14.9509 12.691 14.2534 13.8997 13.1374 13.8997H2.86064C1.74465 13.8997 1.04715 12.691 1.60568 11.7256L1.6059 11.7253L6.74571 2.82412Z" fill="#FFCF48" stroke="#282828" stroke-miterlimit="10" stroke-linecap="round" stroke-linejoin="round"/>
<rect x="8.66665" y="4.13328" width="5.06667" height="1.33333" rx="0.666667" transform="rotate(90 8.66665 4.13328)" fill="#F6F6F6" stroke="#282828" stroke-width="0.8"/>
<path d="M7.99995 12.2666C8.44178 12.2666 8.79995 11.9085 8.79995 11.4666C8.79995 11.0248 8.44178 10.6666 7.99995 10.6666C7.55812 10.6666 7.19995 11.0248 7.19995 11.4666C7.19995 11.9085 7.55812 12.2666 7.99995 12.2666Z" fill="#F6F6F6" stroke="#282828" stroke-width="0.8" stroke-miterlimit="10" stroke-linecap="round" stroke-linejoin="round"/>
</g>
<defs>
<clipPath id="clip0_3325_39313">
<rect width="16" height="16" fill="white"/>
</clipPath>
</defs>
</svg>
