<svg width="16" height="16" viewBox="0 0 16 16" fill="none" xmlns="http://www.w3.org/2000/svg">
<g clip-path="url(#clip0_3325_39270)">
<path d="M7.28784 10.6873C7.0117 10.6873 6.78784 10.9111 6.78784 11.1873V13.4123C6.78784 13.6884 7.0117 13.9123 7.28784 13.9123H8.75474C9.03088 13.9123 9.25474 13.6884 9.25474 13.4123V11.1873C9.25474 10.9111 9.03088 10.6873 8.75474 10.6873H7.28784Z" fill="#FFCF48" stroke="#282828" stroke-miterlimit="10" stroke-linecap="round" stroke-linejoin="round"/>
<path d="M10.5269 15.3791C10.8031 15.3791 11.0269 15.1553 11.0269 14.8791C11.0269 14.8441 11.0233 14.8099 11.0165 14.7769V14.5831C11.0165 13.6584 10.2727 12.9122 9.34563 12.9122H6.69744C5.77274 12.9122 5.02661 13.656 5.02661 14.5831V14.8791C5.02661 15.1553 5.25047 15.3791 5.52661 15.3791H10.5165H10.5269Z" fill="#FFCF48" stroke="#282828" stroke-miterlimit="10" stroke-linecap="round" stroke-linejoin="round"/>
<path d="M7.28784 10.6873C7.0117 10.6873 6.78784 10.9111 6.78784 11.1873V13.4123C6.78784 13.6884 7.0117 13.9123 7.28784 13.9123H8.75474C9.03088 13.9123 9.25474 13.6884 9.25474 13.4123V11.1873C9.25474 10.9111 9.03088 10.6873 8.75474 10.6873H7.28784Z" fill="white" stroke="#282828" stroke-miterlimit="10" stroke-linecap="round" stroke-linejoin="round"/>
<mask id="path-4-outside-1_3325_39270" maskUnits="userSpaceOnUse" x="9.05029" y="2.3905" width="7" height="9" fill="black">
<rect fill="white" x="9.05029" y="2.3905" width="7" height="9"/>
<path d="M12.408 3.3905H14.3968C14.4162 3.3905 14.4267 3.40097 14.4267 3.42041C14.4267 6.69816 12.7923 8.90376 11.0503 9.54376"/>
</mask>
<path d="M12.408 2.3905C11.8558 2.3905 11.408 2.83822 11.408 3.3905C11.408 3.94279 11.8558 4.3905 12.408 4.3905V2.3905ZM10.7054 8.6051C10.187 8.79555 9.92118 9.3702 10.1116 9.88861C10.3021 10.407 10.8767 10.6729 11.3951 10.4824L10.7054 8.6051ZM12.408 4.3905H14.3968V2.3905H12.408V4.3905ZM14.3968 4.3905C14.2336 4.3905 13.9509 4.34423 13.7119 4.10528C13.473 3.86632 13.4267 3.58365 13.4267 3.42041H15.4267C15.4267 3.23772 15.3752 2.9401 15.1261 2.69105C14.8771 2.44201 14.5795 2.3905 14.3968 2.3905V4.3905ZM13.4267 3.42041C13.4267 6.39429 11.9556 8.14581 10.7054 8.6051L11.3951 10.4824C13.6291 9.6617 15.4267 7.00202 15.4267 3.42041H13.4267Z" fill="#282828" mask="url(#path-4-outside-1_3325_39270)"/>
<mask id="path-6-outside-2_3325_39270" maskUnits="userSpaceOnUse" x="0.626709" y="2.3905" width="6" height="9" fill="black">
<rect fill="white" x="0.626709" y="2.3905" width="6" height="9"/>
<path d="M3.64538 3.3905H1.65662C1.63718 3.3905 1.62671 3.40097 1.62671 3.42041C1.62671 6.69816 3.26108 8.90376 5.00312 9.54376"/>
</mask>
<path d="M3.64538 4.3905C4.19766 4.3905 4.64538 3.94279 4.64538 3.3905C4.64538 2.83822 4.19766 2.3905 3.64538 2.3905V4.3905ZM4.65827 10.4824C5.17668 10.6729 5.75132 10.407 5.94178 9.88861C6.13223 9.3702 5.86637 8.79555 5.34797 8.6051L4.65827 10.4824ZM3.64538 2.3905H1.65662V4.3905H3.64538V2.3905ZM1.65662 2.3905C1.47394 2.3905 1.17632 2.44201 0.927261 2.69106C0.678209 2.94012 0.626709 3.23774 0.626709 3.42041H2.62671C2.62671 3.58364 2.58044 3.86631 2.34148 4.10527C2.10252 4.34423 1.81985 4.3905 1.65662 4.3905V2.3905ZM0.626709 3.42041C0.626709 7.00202 2.42434 9.6617 4.65827 10.4824L5.34797 8.6051C4.09782 8.14581 2.62671 6.3943 2.62671 3.42041H0.626709Z" fill="#282828" mask="url(#path-6-outside-2_3325_39270)"/>
<mask id="path-8-outside-3_3325_39270" maskUnits="userSpaceOnUse" x="2.74414" y="0.627563" width="11" height="12" fill="black">
<rect fill="white" x="2.74414" y="0.627563" width="11" height="12"/>
<path d="M8.49923 1.62756H11.6992C12.0431 1.62756 12.3197 1.9027 12.3197 2.24812V6.51129C12.3197 7.95876 11.6304 9.22829 10.2727 10.2915C9.19903 11.1288 8.08652 11.5221 8.04764 11.5326H8.03717H8.02671C8.01624 11.5326 6.88429 11.1393 5.80169 10.2915C4.44245 9.22829 3.75461 7.95876 3.74414 6.51129V2.24812C3.74414 1.9042 4.01928 1.62756 4.36469 1.62756H8.49923Z"/>
</mask>
<path d="M8.49923 1.62756H11.6992C12.0431 1.62756 12.3197 1.9027 12.3197 2.24812V6.51129C12.3197 7.95876 11.6304 9.22829 10.2727 10.2915C9.19903 11.1288 8.08652 11.5221 8.04764 11.5326H8.03717H8.02671C8.01624 11.5326 6.88429 11.1393 5.80169 10.2915C4.44245 9.22829 3.75461 7.95876 3.74414 6.51129V2.24812C3.74414 1.9042 4.01928 1.62756 4.36469 1.62756H8.49923Z" fill="#FFCF48"/>
<path d="M8.49923 0.627563C7.94694 0.627563 7.49923 1.07528 7.49923 1.62756C7.49923 2.17985 7.94694 2.62756 8.49923 2.62756V0.627563ZM10.2727 10.2915L10.8877 11.08L10.8892 11.0788L10.2727 10.2915ZM8.04764 11.5326V12.5326C8.13543 12.5326 8.22284 12.521 8.30762 12.4982L8.04764 11.5326ZM5.80169 10.2915L6.41826 9.50417L6.41779 9.5038L5.80169 10.2915ZM3.74414 6.51129H2.74411L2.74417 6.51852L3.74414 6.51129ZM8.49923 2.62756C9.05151 2.62756 9.49923 2.17985 9.49923 1.62756C9.49923 1.07528 9.05151 0.627563 8.49923 0.627563V2.62756ZM8.49923 2.62756H11.6992V0.627563H8.49923V2.62756ZM11.6992 2.62756C11.4924 2.62756 11.3197 2.45655 11.3197 2.24812H13.3197C13.3197 1.34885 12.5938 0.627563 11.6992 0.627563V2.62756ZM11.3197 2.24812V6.51129H13.3197V2.24812H11.3197ZM11.3197 6.51129C11.3197 7.5899 10.8247 8.5891 9.65614 9.50413L10.8892 11.0788C12.4361 9.86748 13.3197 8.32763 13.3197 6.51129H11.3197ZM9.65765 9.50294C9.18988 9.86778 8.70665 10.1407 8.33232 10.324C7.93602 10.5181 7.71527 10.5865 7.78767 10.567L8.30762 12.4982C8.41889 12.4682 8.77383 12.3347 9.21192 12.1202C9.67197 11.8949 10.2818 11.5525 10.8877 11.08L9.65765 9.50294ZM8.04764 10.5326H8.03717V12.5326H8.04764V10.5326ZM8.03717 10.5326H8.02671V12.5326H8.03717V10.5326ZM8.02671 10.5326C8.10666 10.5326 8.16852 10.5426 8.1845 10.5451C8.21011 10.5492 8.23033 10.5535 8.24133 10.5559C8.26366 10.5608 8.28087 10.5655 8.28792 10.5674C8.30363 10.5716 8.31536 10.5753 8.3188 10.5763C8.32383 10.5779 8.32746 10.5791 8.32909 10.5796C8.33092 10.5802 8.33202 10.5806 8.33223 10.5807C8.3323 10.5807 8.32663 10.5787 8.31476 10.5744C8.29172 10.566 8.25281 10.5514 8.20028 10.5302C8.09531 10.488 7.94064 10.4217 7.75399 10.3309C7.37767 10.1476 6.88887 9.87273 6.41826 9.50417L5.18511 11.0788C5.79711 11.558 6.41559 11.9037 6.87851 12.1291C7.11148 12.2425 7.30942 12.3276 7.45347 12.3856C7.52545 12.4145 7.58514 12.4372 7.63024 12.4536C7.65243 12.4617 7.67322 12.4691 7.69155 12.4753C7.69999 12.4781 7.71236 12.4822 7.72616 12.4865C7.73207 12.4884 7.74576 12.4926 7.76288 12.4972C7.77063 12.4993 7.78842 12.5041 7.81118 12.5091C7.8224 12.5116 7.84281 12.5159 7.86856 12.52C7.8847 12.5226 7.94667 12.5326 8.02671 12.5326V10.5326ZM6.41779 9.5038C5.24922 8.58976 4.75196 7.58854 4.74411 6.50406L2.74417 6.51852C2.75726 8.32898 3.63568 9.86682 5.18559 11.0791L6.41779 9.5038ZM4.74414 6.51129V2.24812H2.74414V6.51129H4.74414ZM4.74414 2.24812C4.74414 2.4549 4.57314 2.62756 4.36469 2.62756V0.627563C3.46541 0.627563 2.74414 1.3535 2.74414 2.24812H4.74414ZM4.36469 2.62756H8.49923V0.627563H4.36469V2.62756Z" fill="#282828" mask="url(#path-8-outside-3_3325_39270)"/>
<path d="M8.50214 3.61895C8.43525 3.41287 8.24324 3.27332 8.02657 3.27332C7.8099 3.27332 7.61789 3.41287 7.55099 3.61895L7.16375 4.812H5.90771C5.69107 4.812 5.49907 4.95152 5.43216 5.15757C5.36525 5.36363 5.43865 5.58933 5.61396 5.71661L6.6296 6.454L6.24124 7.64693C6.17418 7.85293 6.2474 8.07868 6.4226 8.20609C6.59781 8.33351 6.83513 8.3336 7.01044 8.20632L8.02657 7.46857L9.0427 8.20632C9.21801 8.3336 9.45533 8.33351 9.63054 8.20609C9.80574 8.07868 9.87896 7.85293 9.8119 7.64693L9.42353 6.454L10.4392 5.71661C10.6145 5.58933 10.6879 5.36363 10.621 5.15757C10.5541 4.95152 10.3621 4.812 10.1454 4.812H8.88939L8.50214 3.61895Z" fill="white" stroke="#282828" stroke-miterlimit="10" stroke-linecap="round" stroke-linejoin="round"/>
</g>
<defs>
<clipPath id="clip0_3325_39270">
<rect width="16" height="16" fill="white"/>
</clipPath>
</defs>
</svg>
