<svg width="16" height="16" viewBox="0 0 16 16" fill="none" xmlns="http://www.w3.org/2000/svg">
<g clip-path="url(#clip0_3325_39309)">
<path d="M8.0001 15.0498C11.8937 15.0498 15.0501 11.8935 15.0501 7.99991C15.0501 4.10633 11.8937 0.949976 8.0001 0.949976C4.1065 0.949976 0.950098 4.10633 0.950098 7.99991C0.950098 11.8935 4.1065 15.0498 8.0001 15.0498Z" fill="#FFCF48" stroke="#282828" stroke-width="1.3" stroke-miterlimit="10" stroke-linecap="round" stroke-linejoin="round"/>
<path d="M8.61816 4.7668C8.53107 4.4991 8.28156 4.3179 8.00005 4.3179C7.71855 4.3179 7.46904 4.4991 7.38194 4.7668L6.7744 6.63423H4.81006C4.52842 6.63423 4.27882 6.8156 4.19184 7.08347C4.10485 7.35134 4.20027 7.64475 4.42817 7.81022L6.01764 8.96423L5.41009 10.8335C5.32306 11.1012 5.41833 11.3946 5.64609 11.5602C5.87384 11.7257 6.1823 11.7258 6.41014 11.5604L8.00005 10.406L9.58996 11.5604C9.81781 11.7258 10.1263 11.7257 10.354 11.5602C10.5818 11.3946 10.6771 11.1012 10.59 10.8335L9.98247 8.96423L11.5719 7.81022C11.7998 7.64475 11.8953 7.35134 11.8083 7.08347C11.7213 6.8156 11.4717 6.63423 11.19 6.63423H9.22571L8.61816 4.7668Z" fill="white" stroke="#282828" stroke-width="1.3" stroke-miterlimit="10" stroke-linecap="round" stroke-linejoin="round"/>
</g>
<defs>
<clipPath id="clip0_3325_39309">
<rect width="16" height="16" fill="white"/>
</clipPath>
</defs>
</svg>
