<svg width="16" height="16" viewBox="0 0 16 16" fill="none" xmlns="http://www.w3.org/2000/svg">
<path d="M4.92899 6.05731C5.55236 6.05731 6.05769 5.55199 6.05769 4.92862C6.05769 4.30527 5.55236 3.79993 4.92899 3.79993C4.30563 3.79993 3.80029 4.30527 3.80029 4.92862C3.80029 5.55199 4.30563 6.05731 4.92899 6.05731Z" fill="white"/>
<path fill-rule="evenodd" clip-rule="evenodd" d="M1.88116 7.44517e-06C0.842212 1.49698e-05 -1.50491e-05 0.842249 2.01678e-10 1.88119L5.26546e-05 7.57813C6.01792e-05 8.17686 0.237892 8.751 0.661229 9.17433L6.60536 15.1184C7.78078 16.2939 9.68648 16.2939 10.8619 15.1184L15.1185 10.8619C16.2939 9.68646 16.2939 7.78069 15.1185 6.60527L9.17442 0.661176C8.75109 0.237832 8.17688 0 7.57822 0L1.88116 7.44517e-06ZM1.50493 1.88118C1.50492 1.67339 1.67337 1.50495 1.88116 1.50494L7.57822 1.50493C7.77777 1.50493 7.96912 1.5842 8.11029 1.72532L14.0544 7.6694C14.6421 8.25715 14.6421 9.21 14.0544 9.79767L9.79776 14.0543C9.21009 14.642 8.25717 14.642 7.66949 14.0543L1.72538 8.1102C1.58426 7.96911 1.50499 7.77768 1.50498 7.57813L1.50493 1.88118Z" fill="white"/>
</svg>
