<svg width="8" height="7" viewBox="0 0 8 7" fill="none" xmlns="http://www.w3.org/2000/svg">
<path d="M0.666667 4.2C0.481481 4.2 0.324148 4.13187 0.194667 3.9956C0.0648889 3.85964 0 3.69444 0 3.5C0 3.30556 0.0648889 3.14036 0.194667 3.0044C0.324148 2.86813 0.481481 2.8 0.666667 2.8C0.851852 2.8 1.00919 2.86813 1.13867 3.0044C1.26844 3.14036 1.33333 3.30556 1.33333 3.5C1.33333 3.69444 1.26844 3.85964 1.13867 3.9956C1.00919 4.13187 0.851852 4.2 0.666667 4.2ZM0.666667 1.4C0.481481 1.4 0.324148 1.33187 0.194667 1.1956C0.0648889 1.05964 0 0.894444 0 0.7C0 0.505556 0.0648889 0.340356 0.194667 0.2044C0.324148 0.0681334 0.481481 0 0.666667 0C0.851852 0 1.00919 0.0681334 1.13867 0.2044C1.26844 0.340356 1.33333 0.505556 1.33333 0.7C1.33333 0.894444 1.26844 1.05964 1.13867 1.1956C1.00919 1.33187 0.851852 1.4 0.666667 1.4ZM0.666667 7C0.481481 7 0.324148 6.93187 0.194667 6.7956C0.0648889 6.65964 0 6.49444 0 6.3C0 6.10556 0.0648889 5.94036 0.194667 5.8044C0.324148 5.66813 0.481481 5.6 0.666667 5.6C0.851852 5.6 1.00919 5.66813 1.13867 5.8044C1.26844 5.94036 1.33333 6.10556 1.33333 6.3C1.33333 6.49444 1.26844 6.65964 1.13867 6.7956C1.00919 6.93187 0.851852 7 0.666667 7ZM2.66667 6.76667C2.54074 6.76667 2.43526 6.72187 2.35022 6.63227C2.26489 6.54298 2.22222 6.43222 2.22222 6.3C2.22222 6.16778 2.26489 6.05702 2.35022 5.96773C2.43526 5.87813 2.54074 5.83333 2.66667 5.83333H7.55556C7.68148 5.83333 7.78696 5.87813 7.872 5.96773C7.95733 6.05702 8 6.16778 8 6.3C8 6.43222 7.95733 6.54298 7.872 6.63227C7.78696 6.72187 7.68148 6.76667 7.55556 6.76667H2.66667ZM2.66667 3.96667C2.54074 3.96667 2.43526 3.92187 2.35022 3.83227C2.26489 3.74298 2.22222 3.63222 2.22222 3.5C2.22222 3.36778 2.26489 3.25687 2.35022 3.16727C2.43526 3.07798 2.54074 3.03333 2.66667 3.03333H7.55556C7.68148 3.03333 7.78696 3.07798 7.872 3.16727C7.95733 3.25687 8 3.36778 8 3.5C8 3.63222 7.95733 3.74298 7.872 3.83227C7.78696 3.92187 7.68148 3.96667 7.55556 3.96667H2.66667ZM2.66667 1.16667C2.54074 1.16667 2.43526 1.12202 2.35022 1.03273C2.26489 0.943133 2.22222 0.832222 2.22222 0.7C2.22222 0.567778 2.26489 0.456867 2.35022 0.367267C2.43526 0.277978 2.54074 0.233333 2.66667 0.233333H7.55556C7.68148 0.233333 7.78696 0.277978 7.872 0.367267C7.95733 0.456867 8 0.567778 8 0.7C8 0.832222 7.95733 0.943133 7.872 1.03273C7.78696 1.12202 7.68148 1.16667 7.55556 1.16667H2.66667Z" fill="#98A2B3"/>
</svg>
