<svg width="16" height="16" viewBox="0 0 16 16" fill="none" xmlns="http://www.w3.org/2000/svg">
<g clip-path="url(#clip0_3325_39323)">
<path d="M8.0001 14.8999C11.8109 14.8999 14.9001 11.8106 14.9001 7.99985C14.9001 4.18909 11.8109 1.09985 8.0001 1.09985C4.18933 1.09985 1.1001 4.18909 1.1001 7.99985C1.1001 11.8106 4.18933 14.8999 8.0001 14.8999Z" fill="#FFCF48" stroke="#282828" stroke-miterlimit="10" stroke-linecap="round" stroke-linejoin="round"/>
<path d="M8.09336 4.72837C7.44024 5.2037 7.04836 5.83143 6.96128 6.63333C6.88871 7.31367 7.05925 7.93232 7.46019 8.48929C8.22399 9.54337 9.78242 9.9552 11.0524 9.13879C10.6768 10.4233 9.26536 11.6225 7.48922 11.4265C5.58064 11.2143 4.20907 9.43995 4.54652 7.50779C4.88216 5.58107 6.64741 4.57598 8.09336 4.72837Z" fill="white" stroke="#282828" stroke-miterlimit="10" stroke-linecap="round" stroke-linejoin="round"/>
<path d="M11.6334 4.26808C11.6239 4.28572 11.6171 4.30472 11.6063 4.321C11.4217 4.63038 11.2385 4.93976 11.054 5.24778C11.0445 5.26271 11.0364 5.27899 11.0241 5.30206C11.2548 5.30206 11.4787 5.30206 11.7067 5.30206C11.7067 5.41468 11.7067 5.52188 11.7067 5.63179C11.2874 5.63179 10.8667 5.63179 10.4407 5.63179C10.6456 5.28713 10.8477 4.9479 11.0554 4.60053C10.8708 4.60053 10.6931 4.60053 10.5085 4.60053C10.5085 4.48655 10.5085 4.37663 10.5085 4.26672C10.883 4.26808 11.2575 4.26808 11.6334 4.26808Z" fill="#0D0D1E" stroke="#0D0D1E" stroke-width="0.2" stroke-miterlimit="10" stroke-linecap="round" stroke-linejoin="round"/>
<path d="M9.66446 6.08496C10.001 6.08496 10.3348 6.08496 10.6821 6.08496C10.5234 6.35092 10.3687 6.6128 10.2072 6.88283C10.366 6.88283 10.5152 6.88283 10.6686 6.88283C10.6686 6.9941 10.6686 7.09994 10.6686 7.20985C10.3253 7.20985 9.98062 7.20985 9.62646 7.20985C9.78387 6.94525 9.93855 6.68472 10.1 6.41334C9.94941 6.41334 9.80829 6.41334 9.66446 6.41334C9.66446 6.30343 9.66446 6.19623 9.66446 6.08496Z" fill="#0D0D1E" stroke="#0D0D1E" stroke-width="0.2" stroke-miterlimit="10" stroke-linecap="round" stroke-linejoin="round"/>
</g>
<defs>
<clipPath id="clip0_3325_39323">
<rect width="16" height="16" fill="white"/>
</clipPath>
</defs>
</svg>
