<svg width="16" height="16" viewBox="0 0 16 16" fill="none" xmlns="http://www.w3.org/2000/svg">
<path d="M13.4259 12.8561C13.7513 12.8561 14.0265 12.6156 14.0701 12.2932L15.0442 5.08903C15.0823 4.8072 14.9328 4.53332 14.6751 4.41299C14.4174 4.29265 14.1115 4.35381 13.9198 4.56394L11.213 7.5321L8.63102 3.38947C8.51104 3.19697 8.2994 3.08094 8.07259 3.08331C7.84579 3.08568 7.63662 3.20611 7.52069 3.40107L4.97441 7.68341L2.07661 4.55986C1.88088 4.34887 1.5697 4.29172 1.31177 4.41938C1.05383 4.54704 0.910558 4.82912 0.959607 5.11271L2.20562 12.3169C2.25952 12.6285 2.52987 12.8561 2.84612 12.8561H13.4259Z" fill="#FFCF48" stroke="#282828" stroke-width="1.3" stroke-miterlimit="10" stroke-linecap="round" stroke-linejoin="round"/>
</svg>
