<svg width="16" height="16" viewBox="0 0 16 16" fill="none" xmlns="http://www.w3.org/2000/svg">
<g clip-path="url(#clip0_3325_39290)">
<path d="M10.7472 9.04666L11.2315 8.9221C11.1857 8.74414 11.046 8.60564 10.8676 8.56138L10.7472 9.04666ZM10.7472 9.04666C10.8676 8.56138 10.8675 8.56134 10.8673 8.5613L10.8669 8.56119L10.8658 8.56092L10.8627 8.56016L10.8527 8.55778L10.8187 8.54993C10.7899 8.54346 10.7493 8.53466 10.6985 8.52459C10.5972 8.50448 10.4546 8.4791 10.2858 8.45713C9.95354 8.41388 9.49641 8.38069 9.04558 8.43861C8.60588 8.4951 8.08738 8.64924 7.73245 9.05744C7.35581 9.49062 7.26135 10.0915 7.4351 10.8165C7.70131 11.9273 7.44962 12.83 7.12959 13.462C6.96877 13.7796 6.79121 14.0272 6.65529 14.1938C6.58754 14.2768 6.53076 14.339 6.49256 14.3789C6.47348 14.3988 6.45911 14.4131 6.4504 14.4216L6.44173 14.4299C6.44138 14.4303 6.44113 14.4305 6.44098 14.4306C6.26678 14.5914 6.2293 14.8524 6.35148 15.0557C6.47398 15.2595 6.72308 15.3489 6.94719 15.2694C9.58527 14.3335 10.6978 12.7792 11.1139 11.4032C11.3179 10.7286 11.3487 10.1171 11.3287 9.67389C11.3188 9.45174 11.296 9.26991 11.275 9.14097C11.2645 9.07642 11.2544 9.02491 11.2466 8.98797C11.2427 8.96949 11.2393 8.95464 11.2367 8.9436L11.2334 8.92992L11.2323 8.92527L11.2318 8.9235L11.2316 8.92275C11.2315 8.92242 11.2315 8.9221 10.7472 9.04666Z" fill="#F6F6F6" stroke="#282828" stroke-miterlimit="10" stroke-linecap="round" stroke-linejoin="round"/>
<path d="M7.35155 5.65004L7.8369 5.52988C7.79272 5.35142 7.65417 5.21161 7.47612 5.16581L7.35155 5.65004ZM7.35155 5.65004C7.8369 5.52988 7.83694 5.53005 7.83699 5.53023L7.83709 5.53065L7.83736 5.53174L7.83812 5.53486L7.84049 5.54479L7.84832 5.57882C7.85478 5.60757 7.86356 5.64825 7.8736 5.69901C7.89365 5.80031 7.91896 5.94288 7.94084 6.11166C7.98393 6.44396 8.01691 6.90106 7.95885 7.35184C7.90223 7.79148 7.74802 8.30988 7.34001 8.66476C6.90696 9.04143 6.30627 9.13595 5.58162 8.96215C4.47086 8.69597 3.56825 8.94766 2.93625 9.26768C2.61864 9.4285 2.37106 9.60606 2.20444 9.74198C2.12139 9.80973 2.05922 9.86651 2.01933 9.90471C1.99941 9.92379 1.98512 9.93816 1.97663 9.94687L1.96827 9.95554M7.35155 5.65004C7.47612 5.16581 7.4758 5.16572 7.47547 5.16564L7.47472 5.16545L7.47295 5.165L7.46829 5.16384L7.45462 5.16055C7.44358 5.15795 7.42873 5.15458 7.41025 5.15066C7.37331 5.14282 7.32179 5.13275 7.25725 5.12226C7.12831 5.10131 6.94648 5.07851 6.72433 5.06853C6.28114 5.04861 5.66958 5.07935 4.99506 5.28333C3.61906 5.69945 2.06469 6.812 1.12887 9.45008C1.04937 9.67419 1.13871 9.92329 1.34252 10.0458C1.54621 10.1682 1.8079 10.1303 1.96853 9.95526L1.96827 9.95554M1.96827 9.95554C1.96799 9.95585 1.96778 9.95608 1.96763 9.95624L1.96785 9.956L1.96827 9.95554Z" fill="#F6F6F6" stroke="#282828" stroke-miterlimit="10" stroke-linecap="round" stroke-linejoin="round"/>
<path d="M14.7856 1.61056C14.8325 1.11276 14.8323 1.11275 14.8322 1.11273L14.8318 1.1127L14.831 1.11262L14.8288 1.11243L14.8228 1.1119L14.8036 1.1104C14.7878 1.10924 14.7658 1.10779 14.7381 1.10635C14.6825 1.10346 14.6036 1.1006 14.5038 1.10006C14.3043 1.099 14.0205 1.10727 13.672 1.14354C12.9753 1.21603 12.0156 1.40081 10.9507 1.84941C10.7973 1.91403 10.6861 2.05076 10.6541 2.21412C10.6221 2.37748 10.6735 2.54604 10.7912 2.66375L13.7324 5.60495C13.8501 5.72265 14.0187 5.77406 14.182 5.74208C14.3454 5.71009 14.4821 5.59891 14.5468 5.4455C14.9954 4.3806 15.1801 3.42092 15.2526 2.72422C15.2889 2.37562 15.2972 2.09188 15.2961 1.89234C15.2956 1.79252 15.2927 1.71364 15.2898 1.6581C15.2884 1.63032 15.2869 1.60837 15.2858 1.59253L15.2843 1.5734L15.2837 1.56735L15.2835 1.56521L15.2835 1.56436L15.2834 1.564C15.2834 1.56383 15.2834 1.56367 14.7856 1.61056ZM14.7856 1.61056L14.8325 1.11276C15.0716 1.13529 15.2609 1.32459 15.2834 1.56367L14.7856 1.61056Z" fill="#F6F6F6" stroke="#282828" stroke-miterlimit="10" stroke-linecap="round" stroke-linejoin="round"/>
<path d="M12.2078 8.84752L12.2077 8.84766C11.1849 9.84611 9.88591 10.981 7.16314 11.6546C6.99307 11.6966 6.81339 11.6466 6.68951 11.5228L4.87399 9.70722C4.75008 9.58332 4.70008 9.4036 4.74219 9.23351C5.41562 6.51328 6.54818 5.21229 7.54922 4.18889L12.2078 8.84752ZM12.2078 8.84752C13.3638 7.7182 14.0918 6.52946 14.5473 5.4453C14.626 5.25801 14.5835 5.04172 14.4399 4.89807L11.4987 1.95687C11.355 1.81322 11.1387 1.77077 10.9514 1.84946M12.2078 8.84752L10.9514 1.84946M10.9514 1.84946C9.86734 2.30494 8.67868 3.03289 7.54943 4.18868L10.9514 1.84946Z" fill="#FFCF48" stroke="#282828" stroke-miterlimit="10" stroke-linecap="round" stroke-linejoin="round"/>
<path d="M5.34501 8.62411C5.14975 8.42885 4.83316 8.42885 4.6379 8.62411L3.62499 9.63702C3.42973 9.83228 3.42973 10.1489 3.62499 10.3441L6.09854 12.8177C6.2938 13.0129 6.61039 13.0129 6.80565 12.8177L7.81856 11.8048C8.01382 11.6095 8.01382 11.2929 7.81856 11.0977L5.34501 8.62411Z" fill="#F6F6F6" stroke="#282828" stroke-miterlimit="10" stroke-linecap="round" stroke-linejoin="round"/>
<path d="M4.67167 9.97628C4.47641 9.78102 4.15982 9.78102 3.96456 9.97628L2.76786 11.173C2.5726 11.3682 2.5726 11.6848 2.76786 11.8801L4.56291 13.6751C4.75817 13.8704 5.07476 13.8704 5.27002 13.6751L6.46672 12.4784C6.66198 12.2832 6.66198 11.9666 6.46672 11.7713L4.67167 9.97628Z" fill="#FFCF48" stroke="#282828" stroke-miterlimit="10" stroke-linecap="round" stroke-linejoin="round"/>
<path d="M9.82005 8.29209C10.7665 8.29209 11.5337 7.52488 11.5337 6.57848C11.5337 5.63208 10.7665 4.86487 9.82005 4.86487C8.87365 4.86487 8.10645 5.63208 8.10645 6.57848C8.10645 7.52488 8.87365 8.29209 9.82005 8.29209Z" fill="#F6F6F6" stroke="#282828" stroke-miterlimit="10" stroke-linecap="round" stroke-linejoin="round"/>
</g>
<defs>
<clipPath id="clip0_3325_39290">
<rect width="16" height="16" fill="white"/>
</clipPath>
</defs>
</svg>
