<svg width="17" height="20" viewBox="0 0 17 20" fill="none" xmlns="http://www.w3.org/2000/svg">
<path d="M14.0206 17.4H15.2463C15.8882 17.4 16.4 16.8739 16.4 16.2364V5.76358C16.4 5.12609 15.8882 4.6 15.2463 4.6H14.0206C13.3787 4.6 12.8669 5.12609 12.8669 5.76358V16.2364C12.8669 16.8739 13.3787 17.4 14.0206 17.4ZM8.88713 17.3999H10.1129C10.7547 17.3999 11.2666 16.8738 11.2666 16.2364V9.26202C11.2666 8.62453 10.7547 8.09844 10.1129 8.09844H8.88713C8.24526 8.09844 7.73343 8.62453 7.73343 9.26202V16.2364C7.73343 16.8738 8.24526 17.3999 8.88713 17.3999ZM3.75369 17.4H4.97944L5.73313 16.2364H6.13313V16.2357V13.3977C6.13313 12.7602 5.6213 12.2341 4.97944 12.2341H3.75369C3.11183 12.2341 2.6 12.7602 2.6 13.3977V16.2364C2.6 16.8739 3.11183 17.4 3.75369 17.4Z" fill="#FFCF48" stroke="#282828" stroke-width="0.8" stroke-miterlimit="10" stroke-linecap="round" stroke-linejoin="round"/>
</svg>
