<svg width="11" height="11" viewBox="0 0 11 11" fill="none" xmlns="http://www.w3.org/2000/svg">
<path d="M9.35 5.5H5.5V1.65C5.5 1.32 5.28 1.1 4.95 1.1C2.2 1.1 0 3.3 0 6.05C0 8.8 2.2 11 4.95 11C7.7 11 9.9 8.8 9.9 6.05C9.9 5.72 9.68 5.5 9.35 5.5ZM5.5 9.845C3.41 10.175 1.43 8.69 1.155 6.6C0.825 4.51 2.31 2.53 4.4 2.255V6.05C4.4 6.38 4.62 6.6 4.95 6.6H8.745C8.525 8.305 7.205 9.625 5.5 9.845ZM7.15 0C6.82 0 6.6 0.22 6.6 0.55V3.85C6.6 4.18 6.82 4.4 7.15 4.4H10.45C10.78 4.4 11 4.18 11 3.85C11 1.705 9.295 0 7.15 0ZM7.7 3.3V1.155C8.8 1.375 9.625 2.2 9.845 3.3H7.7Z" fill="#98A2B3"/>
</svg>
