<svg width="12" height="13" viewBox="0 0 12 13" fill="none" xmlns="http://www.w3.org/2000/svg">
<path d="M10.2 6.5H6V2.3C6 1.94 5.76 1.7 5.4 1.7C2.4 1.7 0 4.1 0 7.1C0 10.1 2.4 12.5 5.4 12.5C8.4 12.5 10.8 10.1 10.8 7.1C10.8 6.74 10.56 6.5 10.2 6.5ZM6 11.24C3.72 11.6 1.56 9.98 1.26 7.7C0.9 5.42 2.52 3.26 4.8 2.96V7.1C4.8 7.46 5.04 7.7 5.4 7.7H9.54C9.3 9.56 7.86 11 6 11.24ZM7.8 0.5C7.44 0.5 7.2 0.74 7.2 1.1V4.7C7.2 5.06 7.44 5.3 7.8 5.3H11.4C11.76 5.3 12 5.06 12 4.7C12 2.36 10.14 0.5 7.8 0.5ZM8.4 4.1V1.76C9.6 2 10.5 2.9 10.74 4.1H8.4Z" fill="white"/>
</svg>
