<?xml version="1.0" encoding="utf-8"?>
<!-- Generator: Adobe Illustrator 28.3.0, SVG Export Plug-In . SVG Version: 6.00 Build 0)  -->
<svg version="1.0" id="katman_1" xmlns="http://www.w3.org/2000/svg" xmlns:xlink="http://www.w3.org/1999/xlink" x="0px" y="0px"
	 viewBox="0 0 841.89 595.28" style="enable-background:new 0 0 841.89 595.28;" xml:space="preserve">
<style type="text/css">
	.st0{fill:#051236;}
</style>
<path class="st0" d="M221.72,460.18c-8.43,0-16.91-0.66-25.4-1.98c-42.79-6.69-80.42-29.65-105.95-64.64
	c-25.53-34.99-35.9-77.83-29.21-120.63c6.69-42.79,29.65-80.42,64.64-105.95c72.24-52.7,173.88-36.8,226.58,35.43l-15.29,11.15
	c-46.55-63.81-136.33-77.85-200.14-31.3c-30.91,22.55-51.19,55.79-57.1,93.59c-5.91,37.8,3.25,75.64,25.8,106.55
	c22.55,30.91,55.79,51.19,93.59,57.1c37.81,5.91,75.64-3.25,106.55-25.8l11.15,15.29C288.9,449.46,255.8,460.18,221.72,460.18z"/>
<path class="st0" d="M278.24,398.69l71.02-0.01l-33.12,65.63L278.24,398.69z"/>
<path class="st0" d="M152.11,211.06h30.09v165.63h-30.09V211.06z"/>
<path class="st0" d="M204.59,257.72h28.46v13.76c0,4.43-0.47,8.16-0.47,8.16h0.47c5.13-10.03,18.19-24.73,42.22-24.73
	c26.36,0,41.29,13.76,41.29,45.26v76.52h-29.39v-70.45c0-14.46-3.73-24.26-18.9-24.26c-15.86,0-27.53,10.03-31.96,24.26
	c-1.63,4.9-2.1,10.26-2.1,15.86v54.59h-29.63V257.72z"/>
<path class="st0" d="M336.16,341.23c0,0,13.06,13.06,32.42,13.06c8.4,0,15.63-3.73,15.63-10.73c0-17.73-57.85-15.4-57.85-53.65
	c0-22.16,19.83-34.99,45.49-34.99c26.83,0,39.89,13.53,39.89,13.53l-10.96,21.93c0,0-10.96-10.26-29.16-10.26
	c-7.7,0-15.16,3.27-15.16,10.73c0,16.8,57.85,14.7,57.85,52.95c0,19.83-17.26,35.69-45.49,35.69c-29.63,0-46.19-17.5-46.19-17.5
	L336.16,341.23z"/>
<path class="st0" d="M423.17,211.06h29.39v26.36h-29.39V211.06z M423.17,257.72h29.63v118.97h-29.63V257.72z"/>
<path class="st0" d="M516.24,254.92c26.13,0,34.29,15.16,34.29,15.16H551c0,0-0.23-3.03-0.23-6.76v-52.26h29.63v165.63H552.4v-9.8
	c0-4.43,0.46-7.7,0.46-7.7h-0.46c0,0-10.03,20.29-37.32,20.29c-32.19,0-52.72-25.43-52.72-62.29
	C462.36,279.41,484.75,254.92,516.24,254.92z M521.84,354.53c15.4,0,29.86-11.2,29.86-37.56c0-18.43-9.8-36.62-29.63-36.62
	c-16.33,0-29.86,13.3-29.86,36.86C492.22,339.83,504.35,354.53,521.84,354.53z"/>
<path class="st0" d="M650.14,254.92c34.29,0,52.72,24.96,52.72,56.45c0,3.5-0.7,11.43-0.7,11.43h-82.11
	c1.86,20.76,17.96,31.49,35.69,31.49c19.13,0,34.29-13.06,34.29-13.06l11.43,21.23c0,0-18.2,17.03-47.82,17.03
	c-39.42,0-63.92-28.46-63.92-62.29C589.73,280.58,614.68,254.92,650.14,254.92z M673,302.51c-0.46-16.09-10.49-24.73-23.56-24.73
	c-15.17,0-25.66,9.33-28.46,24.73H673z"/>
<path class="st0" d="M712.43,257.72h28.46v20.53c0,4.43-0.47,8.4-0.47,8.4h0.47c5.37-17.03,19.6-30.56,37.79-30.56
	c2.8,0,5.37,0.47,5.37,0.47v29.16c0,0-3.03-0.46-7-0.46c-12.6,0-26.83,7.23-32.43,24.96c-1.86,5.83-2.56,12.36-2.56,19.36v47.12
	h-29.63L712.43,257.72L712.43,257.72z"/>
</svg>
