<svg width="32" height="32" viewBox="0 0 32 32" fill="none" xmlns="http://www.w3.org/2000/svg">
<g id="65cd33699c7a9c2932fe28fa_651bcdd5f49e9bf4a8e53989_moengage%20logo%201 1" clip-path="url(#clip0_619_4520)">
<g id="Clip path group">
<mask id="mask0_619_4520" style="mask-type:luminance" maskUnits="userSpaceOnUse" x="0" y="0" width="32" height="32">
<g id="clip0_2052_54">
<path id="Vector" d="M32 0H0V32H32V0Z" fill="white"/>
</g>
</mask>
<g mask="url(#mask0_619_4520)">
<g id="Group">
<path id="Vector_2" d="M20.7251 22.5768C24.1792 18.2352 24.3422 12.6392 21.1161 9.64822C18.4766 7.17184 13.7515 7.07534 10.9817 9.45522C7.62524 12.3175 7.6578 17.6884 11.1446 22.5768C8.70061 23.3487 6.3218 24.2492 4.30141 25.8573C3.45416 26.5327 3.1283 25.8251 2.76985 25.3105C-2.76987 17.1095 -0.162942 3.28038 12.1222 0.482383C19.0631 -1.12566 25.8086 1.35073 29.3279 6.85022C32.6517 12.0924 33.1405 19.1357 29.4257 25.0211C28.8391 25.9537 28.3829 26.5005 27.2424 25.5357C25.3523 23.9919 23.0713 23.2522 20.7251 22.5768Z" fill="#1B326C"/>
<path id="Vector_3" d="M16.2282 32C13.2954 31.9357 10.6232 31.3889 8.1141 30.1025C6.94098 29.4914 6.74548 28.9768 7.78823 28.0442C11.6334 24.603 20.6274 24.6352 24.3096 28.1407C25.222 29.009 25.1895 29.4593 24.0815 30.0382C21.5724 31.3246 18.9002 31.9678 16.2282 32Z" fill="#1B326C"/>
</g>
</g>
</g>
</g>
<defs>
<clipPath id="clip0_619_4520">
<rect width="32" height="32" fill="white"/>
</clipPath>
</defs>
</svg>
