<svg xmlns="http://www.w3.org/2000/svg" width="42" height="42" viewBox="0 0 42 42" fill="none">
  <g clip-path="url(#clip0_420_4669)">
    <path d="M41.9103 0H0V41.9103H41.9103V0Z" fill="white"/>
    <path fill-rule="evenodd" clip-rule="evenodd" d="M5.48252 17.3992L6.80077 21.0336L8.18177 17.3992H10.1424L6.7898 25.8151H4.85073L5.84236 23.2074L3.45911 17.3992H5.48252ZM26.1903 17.2705C27.9606 17.2705 29.2514 18.6442 29.2514 20.5246C29.2514 22.405 27.9606 23.7787 26.1903 23.7787C25.5371 23.7787 24.9868 23.6057 24.567 23.2723L24.5398 23.2503L24.5166 23.231L24.5166 25.8131H22.6274L22.6274 17.3992H24.2979L24.2979 18.0284L24.3073 18.0175C24.719 17.5479 25.3417 17.288 26.1108 17.2714L26.1514 17.2707L26.1903 17.2705ZM13.5834 17.2705C15.5328 17.2705 16.9146 18.6173 16.9146 20.5246C16.9146 22.4234 15.5282 23.7787 13.5834 23.7787C11.6276 23.7787 10.2392 22.4253 10.2392 20.5246C10.2392 18.6154 11.623 17.2705 13.5834 17.2705ZM20.0618 16.0147L20.0618 17.3992H21.6164V19.0311L20.0618 19.031L20.0618 21.2837C20.0618 21.7876 20.3067 22.0648 20.7525 22.0816L20.7742 22.0822L20.7962 22.0824C21.0985 22.0824 21.3275 22.003 21.5323 21.8061L21.5514 21.7873L21.6024 21.735H21.6164V23.5351L21.5585 23.5628C21.2476 23.7115 21.0558 23.7787 20.526 23.7787C19.028 23.7787 18.2054 22.9631 18.1735 21.4406L18.1728 21.3942L18.1726 21.348L18.1725 19.031L17.4889 19.0311V17.3992H18.224L18.224 16.0147H20.0618ZM33.3798 17.2705C35.3292 17.2705 36.711 18.6173 36.711 20.5246C36.711 22.4234 35.3246 23.7787 33.3798 23.7787C31.424 23.7787 30.0356 22.4253 30.0356 20.5246C30.0356 18.6154 31.4194 17.2705 33.3798 17.2705ZM38.2509 21.7082C38.8227 21.7082 39.2861 22.1717 39.2861 22.7434C39.2861 23.3152 38.8227 23.7787 38.2509 23.7787C37.6792 23.7787 37.2157 23.3152 37.2157 22.7434C37.2157 22.1717 37.6792 21.7082 38.2509 21.7082ZM25.9072 18.9668C25.0561 18.9668 24.4781 19.5967 24.4781 20.5246C24.4781 21.4524 25.0561 22.0824 25.9072 22.0824C26.7695 22.0824 27.3493 21.4543 27.3493 20.5246C27.3493 19.5949 26.7695 18.9668 25.9072 18.9668ZM13.5834 18.9668C12.7293 18.9668 12.1413 19.5999 12.1413 20.5246C12.1413 21.4492 12.7293 22.0824 13.5834 22.0824C14.4263 22.0824 15.0125 21.4473 15.0125 20.5246C15.0125 19.6018 14.4263 18.9668 13.5834 18.9668ZM33.3798 18.9668C32.5257 18.9668 31.9377 19.5999 31.9377 20.5246C31.9377 21.4492 32.5257 22.0824 33.3798 22.0824C34.2227 22.0824 34.8089 21.4473 34.8089 20.5246C34.8089 19.6018 34.2227 18.9668 33.3798 18.9668Z" fill="#0042E4"/>
  </g>
  <defs>
    <clipPath id="clip0_420_4669">
      <rect width="42" height="42" fill="white"/>
    </clipPath>
  </defs>
</svg>