<svg xmlns="http://www.w3.org/2000/svg" width="83" height="84" viewBox="0 0 83 84" fill="none">
  <g clip-path="url(#clip0_3285_19939)">
    <path d="M18.6289 5.49934C9.02891 10.2993 5.96224 24.8327 5.62891 31.4993L13.1289 23.999L26.6289 12.499L35.1289 6.49902L45.6289 2.99902L44.6289 1.99902L36.6289 0.999338C34.6289 0.499338 28.2289 0.699337 18.6289 5.49934Z" fill="#FCC52C"/>
    <path d="M27.5452 42.3051C26.0432 42.3226 24.8724 42.8322 24.8724 42.8322C24.6572 42.9247 24.4875 43.0989 24.4007 43.3165C24.314 43.534 24.3172 43.7772 24.4096 43.9924C24.5021 44.2076 24.6763 44.3772 24.8938 44.464C25.1114 44.5508 25.3545 44.5477 25.5697 44.4553C25.5697 44.4553 26.449 44.0844 27.5658 44.0714C28.6826 44.0583 29.9004 44.3364 30.8628 45.7742C30.9931 45.9689 31.1954 46.1038 31.4252 46.1493C31.655 46.1948 31.8935 46.1472 32.0881 46.0169C32.2828 45.8866 32.4177 45.6843 32.4632 45.4545C32.5087 45.2247 32.4611 44.9863 32.3308 44.7916C31.0173 42.8292 29.0473 42.2876 27.5452 42.3051Z" fill="#15161E"/>
    <path d="M20.6794 45.1431C18.9022 45.1961 17.5738 46.0627 17.5738 46.0627C17.3805 46.1951 17.2477 46.3987 17.2046 46.629C17.1614 46.8592 17.2115 47.0972 17.3438 47.2905C17.4761 47.4838 17.6798 47.6166 17.9101 47.6597C18.1403 47.7029 18.3783 47.6528 18.5717 47.5205C18.5717 47.5205 20.767 45.9091 23.1003 47.6927C23.2864 47.835 23.5213 47.8975 23.7536 47.8665C23.9858 47.8356 24.1962 47.7136 24.3385 47.5275C24.4089 47.4354 24.4606 47.3303 24.4904 47.2182C24.5203 47.1061 24.5278 46.9892 24.5124 46.8742C24.4971 46.7592 24.4592 46.6483 24.401 46.5479C24.3429 46.4476 24.2655 46.3597 24.1733 46.2892C22.9737 45.3723 21.7457 45.1113 20.6794 45.1431Z" fill="#15161E"/>
    <path d="M50.6305 43.2314C48.0369 43.0268 45.9581 44.1383 45.0247 45.495C44.959 45.5905 44.9127 45.6981 44.8885 45.8116C44.8644 45.9251 44.8628 46.0421 44.8839 46.1562C44.905 46.2703 44.9483 46.379 45.0114 46.4763C45.0746 46.5736 45.1563 46.6576 45.2519 46.7233C45.3474 46.7891 45.455 46.8354 45.5685 46.8596C45.682 46.8838 45.799 46.8853 45.9131 46.8642C46.0272 46.8432 46.136 46.7997 46.2333 46.7366C46.3307 46.6735 46.4146 46.5918 46.4803 46.4962C47.0693 45.6401 49.5583 44.2315 52.6898 45.5435C52.7967 45.5883 52.9115 45.6117 53.0275 45.6122C53.1435 45.6126 53.2585 45.5902 53.3658 45.5463C53.4732 45.5023 53.5709 45.4376 53.6532 45.3559C53.7356 45.2743 53.8011 45.1772 53.8459 45.0702C53.9364 44.8541 53.9373 44.611 53.8485 44.3943C53.7597 44.1775 53.5884 44.0048 53.3724 43.9144C52.4168 43.514 51.4951 43.2996 50.6305 43.2314Z" fill="#15161E"/>
    <path d="M58.235 46.0744C56.3032 46.0629 54.885 46.5415 53.9298 47.0846C52.8382 47.7051 52.2974 48.476 52.2974 48.476C52.1665 48.6702 52.118 48.9085 52.1627 49.1385C52.2075 49.3684 52.3417 49.5711 52.536 49.7021C52.7302 49.8331 52.9685 49.8816 53.1984 49.8369C53.4284 49.7922 53.6311 49.658 53.7621 49.4638C53.7621 49.4638 54.004 49.0743 54.8028 48.6202C55.6017 48.1661 56.9037 47.7135 58.9588 47.872C59.0745 47.8809 59.1908 47.8669 59.301 47.8308C59.4113 47.7948 59.5134 47.7374 59.6015 47.662C59.6895 47.5865 59.7619 47.4944 59.8143 47.3909C59.8668 47.2875 59.8984 47.1747 59.9073 47.0591C59.9253 46.8255 59.8498 46.5945 59.6974 46.4166C59.5449 46.2387 59.3281 46.1287 59.0946 46.1107C58.7975 46.0877 58.511 46.076 58.235 46.0744Z" fill="#15161E"/>
    <path d="M43.4201 48.7539C43.2035 48.6648 42.9603 48.6654 42.7441 48.7555C42.6371 48.8002 42.5399 48.8655 42.458 48.9477C42.3762 49.0299 42.3113 49.1274 42.2672 49.2347C42.223 49.342 42.2004 49.4569 42.2007 49.5729C42.201 49.6889 42.2241 49.8037 42.2688 49.9107C42.502 50.47 42.8743 50.89 43.2639 51.3954C43.6534 51.9009 44.058 52.4412 44.3129 52.922C44.5678 53.4027 44.6363 53.7776 44.5879 53.98C44.5395 54.1824 44.4071 54.4276 43.6665 54.727C42.8514 55.0569 41.7666 55.6397 40.6323 55.8669C39.4979 56.0941 38.4696 56.0297 37.479 55.0318C37.314 54.8655 37.0897 54.7717 36.8554 54.7708C36.6212 54.7699 36.3962 54.862 36.2299 55.027C36.0636 55.192 35.9697 55.4164 35.9688 55.6506C35.9679 55.8849 36.0601 56.1098 36.2251 56.2761C37.6653 57.7269 39.5023 57.8948 40.9794 57.599C42.4563 57.3032 43.7286 56.6077 44.329 56.3646C45.3834 55.9383 46.1032 55.2387 46.306 54.3907C46.5088 53.5426 46.2273 52.7615 45.8737 52.0946C45.5201 51.4276 45.0576 50.8287 44.6633 50.3171C44.269 49.8054 43.9408 49.3304 43.8992 49.2309C43.8546 49.1238 43.7893 49.0265 43.7071 48.9447C43.6249 48.8629 43.5274 48.798 43.4201 48.7539Z" fill="#15161E"/>
    <path d="M26.8984 58.6017C26.6745 58.6707 26.4873 58.8258 26.3778 59.0329C26.2683 59.24 26.2456 59.4821 26.3146 59.7059C27.9361 64.9649 33.2031 68.7101 38.6595 69.4623C41.3877 69.8385 44.1951 69.4531 46.608 68.0504C49.0209 66.6477 51.0007 64.2249 52.0808 60.7121C52.1148 60.6013 52.1268 60.4848 52.1158 60.3693C52.1049 60.2538 52.0713 60.1416 52.017 60.0391C51.9627 59.9366 51.8887 59.8458 51.7993 59.7719C51.7099 59.698 51.6068 59.6424 51.4959 59.6083C51.3851 59.5742 51.2686 59.5624 51.1531 59.5733C51.0376 59.5842 50.9254 59.6177 50.8229 59.672C50.7204 59.7263 50.6296 59.8003 50.5556 59.8897C50.4817 59.9791 50.4261 60.0822 50.392 60.1931C49.4211 63.3509 47.7393 65.3494 45.72 66.5232C43.7008 67.6971 41.3056 68.0438 38.9007 67.7122C34.0909 67.0492 29.37 63.6203 28.0027 59.1856C27.9685 59.0748 27.9129 58.9717 27.8389 58.8823C27.7649 58.793 27.674 58.7192 27.5715 58.665C27.4689 58.6108 27.3567 58.5772 27.2412 58.5663C27.1257 58.5555 27.0092 58.5675 26.8984 58.6017Z" fill="#15161E"/>
    <path d="M21.5324 22.9555C21.4168 22.9646 21.3041 22.9965 21.2008 23.0492C21.0974 23.102 21.0055 23.1745 20.9302 23.2628C18.2109 26.4515 16.7804 32.9048 15.828 38.6792C15.0789 43.221 14.7812 46.5794 14.6563 48.1215C14.532 48.0719 14.4197 48.0163 14.2819 47.9756C13.229 47.6655 11.6912 47.718 10.2537 48.8826C9.14419 49.7814 8.2902 51.4354 8.01958 53.5495C7.74896 55.6635 8.12776 58.2393 9.71079 60.8336C11.3416 63.5053 13.6873 64.1663 15.4623 63.9997C16.0968 63.9401 16.6369 63.7857 17.1147 63.619C17.0979 65.3195 17.2978 68.2547 18.5738 71.4069C20.5518 76.2933 25.2052 81.6815 35.2552 83.5991C42.618 85.0048 49.0226 82.5486 53.5325 78.7044C58.0424 74.8601 60.7468 69.6644 60.73 65.2599C60.7288 64.9476 60.9401 63.0724 61.3013 60.6128C61.6626 58.1531 62.1667 54.977 62.7327 51.5807C63.8646 44.7881 65.246 37.1055 66.2257 32.501C66.2745 32.2718 66.2302 32.0328 66.1026 31.8363C65.9751 31.6398 65.7747 31.502 65.5456 31.4533C65.3165 31.4045 65.0774 31.4488 64.8809 31.5764C64.6844 31.7039 64.5466 31.9043 64.4979 32.1334C63.5052 36.7982 62.1248 44.4811 60.9901 51.2904C60.4227 54.6951 59.9172 57.8792 59.5533 60.3562C59.1895 62.8333 58.9603 64.4715 58.9634 65.2668C58.9773 68.9159 56.5542 73.8071 52.3863 77.36C48.2184 80.9128 42.3947 83.1637 35.5866 81.8639C26.0259 80.0397 22.005 75.1752 20.2113 70.7443C18.4177 66.3133 18.9477 62.344 18.9477 62.344C18.9702 62.1767 18.9443 62.0063 18.873 61.8532C18.8017 61.7002 18.688 61.5707 18.5454 61.4803C18.4028 61.3898 18.2373 61.3421 18.0684 61.3428C17.8996 61.3435 17.7344 61.3926 17.5926 61.4843C17.5926 61.4843 16.585 62.1199 15.2971 62.2408C14.0092 62.3617 12.5512 62.0966 11.2186 59.9134C9.83926 57.6529 9.54954 55.5076 9.77151 53.7737C9.99346 52.0397 10.7931 50.7189 11.3653 50.2554C12.3831 49.4308 13.1468 49.4833 13.782 49.6704C14.4173 49.8576 14.8128 50.2173 14.8128 50.2173C14.9351 50.3305 15.087 50.4067 15.2508 50.4372C15.4147 50.4678 15.5838 50.4514 15.7387 50.3899C15.8936 50.3284 16.0279 50.2243 16.1262 50.0897C16.2245 49.9551 16.2827 49.7955 16.2941 49.6292C16.2941 49.6292 16.6341 44.6454 17.5706 38.967C18.5071 33.2887 20.1709 26.8755 22.2739 24.4095C22.3492 24.3212 22.4064 24.219 22.4421 24.1086C22.4779 23.9982 22.4916 23.8819 22.4824 23.7663C22.4732 23.6506 22.4413 23.538 22.3885 23.4346C22.3357 23.3313 22.2631 23.2394 22.1748 23.1641C21.9966 23.0122 21.7653 22.9373 21.5318 22.9559L21.5324 22.9555Z" fill="#15161E"/>
    <path d="M43.0168 10.9504C42.5544 10.9578 42.0869 10.9951 41.6166 11.0619C38.0067 11.574 34.2068 13.7346 30.8823 17.2559C27.469 15.9332 24.7194 16.6733 23.0113 18.1923C21.2038 19.7996 20.41 21.9893 20.666 23.6387C20.903 25.1666 21.6948 26.3043 22.7732 26.889C23.8515 27.4737 25.1194 27.536 26.3653 27.3149C28.5113 26.934 30.6863 25.7371 32.1076 24.1362C34.2781 25.9529 37.1567 26.5826 40.0673 26.1884C42.9952 25.792 45.9836 24.3875 48.5132 22.1424C49.6521 23.6456 51.7043 24.3576 53.6747 24.3944C54.8767 24.4168 56.0827 24.1918 57.122 23.6606C58.1612 23.1295 59.0442 22.2539 59.4189 21.0591C59.8624 19.645 59.6541 18.2948 59.0289 17.2432C58.4037 16.1917 57.4152 15.4262 56.327 14.9098C55.2389 14.3934 54.0405 14.1205 52.9038 14.1127C52.1062 14.1071 51.3314 14.2369 50.6506 14.548C48.7441 12.0848 45.9876 10.9026 43.0171 10.9506L43.0168 10.9504ZM43.0508 12.7096C45.7619 12.6389 48.0634 13.7362 49.6627 16.201C49.7308 16.3059 49.8204 16.3952 49.9255 16.4629C50.0307 16.5306 50.1491 16.5752 50.2727 16.5937C50.3964 16.6123 50.5227 16.6043 50.6431 16.5704C50.7635 16.5365 50.8753 16.4775 50.9712 16.3972C51.3334 16.0937 52.0371 15.8731 52.8914 15.879C53.7456 15.8849 54.724 16.1044 55.5694 16.5056C56.4148 16.9068 57.1165 17.4838 57.5101 18.1459C57.9037 18.808 58.0427 19.5424 57.7329 20.5303C57.5171 21.2181 57.0347 21.721 56.3177 22.0875C55.6007 22.4539 54.6597 22.6457 53.7074 22.6279C51.8029 22.5924 50.0153 21.7129 49.5508 20.4399C49.4998 20.3003 49.4145 20.1757 49.3025 20.0778C49.1906 19.9799 49.0558 19.912 48.9106 19.88C48.7654 19.8481 48.6145 19.8534 48.4719 19.8953C48.3292 19.9372 48.1995 20.0144 48.0946 20.1198C45.664 22.5637 42.6493 24.056 39.8301 24.4377C37.0108 24.8194 34.4341 24.1232 32.6448 22.2348C32.5537 22.1387 32.4421 22.0643 32.3184 22.0171C32.1947 21.97 32.0619 21.9512 31.93 21.9622C31.798 21.9733 31.6703 22.0139 31.5561 22.081C31.4419 22.148 31.3443 22.2399 31.2704 22.3498C30.2991 23.7958 28.0136 25.2279 26.0563 25.5753C25.0777 25.749 24.2141 25.6607 23.6151 25.336C23.0161 25.0112 22.5843 24.4806 22.4118 23.3679C22.305 22.68 22.8425 20.7065 24.1852 19.5124C25.5279 18.3184 27.5327 17.6443 30.7509 19.0922C30.9214 19.1689 31.1119 19.1896 31.2949 19.1512C31.4779 19.1128 31.6439 19.0174 31.7692 18.8786C34.9716 15.3302 38.6394 13.2688 41.8646 12.8112C42.2678 12.754 42.6635 12.7199 43.0508 12.7098V12.7096Z" fill="#15161E"/>
    <path d="M20.3369 24.9978C20.1031 24.9833 19.8731 25.0622 19.6975 25.2172C17.3492 27.291 14.7318 29.9035 13.0832 33.6746C11.4345 37.4457 10.7868 42.3474 12.2259 48.8741C12.2508 48.9874 12.2979 49.0947 12.3643 49.1898C12.4307 49.2849 12.5153 49.366 12.613 49.4284C12.7108 49.4909 12.8199 49.5334 12.9342 49.5537C13.0484 49.5739 13.1655 49.5715 13.2788 49.5465C13.5075 49.4961 13.7069 49.3568 13.8329 49.1594C13.959 48.962 14.0015 48.7226 13.9511 48.4939C12.5753 42.2544 13.2082 37.7992 14.7021 34.3822C16.1959 30.9653 18.5829 28.5584 20.8669 26.5413C20.9539 26.4645 21.0249 26.3714 21.0758 26.2671C21.1268 26.1629 21.1567 26.0497 21.1639 25.9339C21.171 25.8182 21.1553 25.7021 21.1176 25.5924C21.08 25.4826 21.0211 25.3814 20.9442 25.2945C20.7891 25.119 20.5707 25.0122 20.3369 24.9978Z" fill="#15161E"/>
    <path fill-rule="evenodd" clip-rule="evenodd" d="M20.283 25.8828C16.526 33.234 15.414 49.5713 15.414 49.5713C15.414 49.5713 14.4569 48.6844 13.0893 48.6875C10.2744 35.9213 15.6506 29.9737 20.283 25.8828Z" fill="#15161E"/>
    <path d="M64.7851 51.9326C63.3197 51.8827 61.8676 52.4671 60.8069 53.4848C60.7232 53.5651 60.6561 53.6612 60.6095 53.7674C60.5629 53.8736 60.5377 53.9879 60.5353 54.1039C60.5329 54.2199 60.5533 54.3353 60.5955 54.4433C60.6376 54.5514 60.7007 54.65 60.781 54.7337C60.8613 54.8174 60.9573 54.8845 61.0636 54.9311C61.1698 54.9777 61.2842 55.0029 61.4002 55.0053C61.5161 55.0077 61.6315 54.9872 61.7396 54.945C61.8476 54.9028 61.9463 54.8397 62.03 54.7594C62.8412 53.9811 64.081 53.5685 65.132 53.7376C66.183 53.9068 67.0944 54.53 67.5479 56.1844C68.2265 58.6628 67.1669 61.5121 65.5231 63.2127C64.7011 64.063 63.7567 64.6036 62.9097 64.7367C62.0626 64.8699 61.3055 64.6773 60.5298 63.8807C60.4489 63.7976 60.3524 63.7313 60.2458 63.6854C60.1393 63.6396 60.0247 63.6153 59.9087 63.6137C59.7927 63.6122 59.6775 63.6336 59.5697 63.6765C59.462 63.7195 59.3638 63.7832 59.2807 63.8642C59.1129 64.0276 59.0169 64.251 59.0137 64.4852C59.0106 64.7194 59.1007 64.9452 59.2641 65.113C60.3866 66.2659 61.8367 66.6935 63.184 66.4817C64.5314 66.2699 65.7687 65.5005 66.7934 64.4404C68.8427 62.3203 70.1362 58.9472 69.252 55.7178C68.6508 53.5244 67.083 52.2625 65.4128 51.9937C65.204 51.9602 64.9945 51.9399 64.7851 51.9328V51.9326Z" fill="#15161E"/>
    <path d="M57.0068 21.7188C56.7798 21.7766 56.5851 21.9223 56.4655 22.1237C56.346 22.3251 56.3113 22.5658 56.3692 22.7927C56.4271 23.0197 56.5728 23.2144 56.7743 23.334C64.5965 27.9768 69.3755 38.8658 62.8045 52.5552C62.7031 52.7664 62.6898 53.0092 62.7674 53.2302C62.8451 53.4512 63.0073 53.6323 63.2185 53.7336C63.3231 53.7839 63.4365 53.813 63.5524 53.8193C63.6682 53.8257 63.7842 53.8092 63.8936 53.7707C64.0031 53.7323 64.1039 53.6727 64.1903 53.5953C64.2767 53.5179 64.347 53.4242 64.3972 53.3196C71.2757 38.9899 66.2804 26.9222 57.6759 21.8151C57.4745 21.6955 57.2338 21.6609 57.0068 21.7188Z" fill="#15161E"/>
    <path fill-rule="evenodd" clip-rule="evenodd" d="M65.3627 32.3164C67.4953 37.8852 67.4093 45.0052 63.6024 52.9357C62.7918 53.1287 62.0226 53.5414 61.4199 54.1196C62.6168 46.7546 64.2444 37.5744 65.3627 32.3164Z" fill="#15161E"/>
    <path d="M45.0005 31.6781C44.5843 31.6976 44.1639 31.8585 43.8908 32.1408C43.5265 32.5172 43.4074 32.9623 43.3515 33.3835C43.2398 34.2258 43.396 35.1136 43.6149 35.8858C43.8869 36.8466 44.3013 37.6416 44.9605 38.1742C45.6196 38.7069 46.5556 38.8707 47.4012 38.5949H47.4023C47.4997 38.5633 47.962 38.4667 48.5163 38.3893C49.0709 38.312 49.7529 38.2367 50.4517 38.1759C51.8492 38.0543 53.3728 38.0029 53.963 38.065C53.9633 38.065 53.9637 38.065 53.964 38.065C55.1017 38.1841 56.0949 37.4446 56.3312 36.4915C56.5676 35.5383 56.0258 34.4078 54.9279 33.926C54.3959 33.6925 53.6287 33.4877 52.6643 33.2488C51.6999 33.0099 50.5758 32.7599 49.502 32.5316C47.3562 32.0755 45.4142 31.7074 45.4106 31.7067L45.4069 31.7057C45.4062 31.7057 45.4055 31.7057 45.4049 31.7057C45.2744 31.6808 45.1382 31.6713 45.0014 31.6777L45.0005 31.6781ZM45.1406 33.4541C45.2 33.4654 47.0423 33.8148 49.1337 34.2594C50.196 34.4852 51.3062 34.7323 52.2386 34.9633C53.171 35.1942 53.9633 35.4321 54.217 35.5435C54.6904 35.7512 54.6503 35.9262 54.6155 36.0663C54.5808 36.2064 54.53 36.3479 54.1472 36.3079H54.1483C53.218 36.2099 51.749 36.2895 50.2986 36.4156C49.5733 36.4787 48.8673 36.5564 48.2723 36.6394C47.6772 36.7224 47.2291 36.7933 46.855 36.915C46.8547 36.915 46.8543 36.915 46.8539 36.915C46.471 37.04 46.3162 36.998 46.0712 36.8C45.8262 36.602 45.5235 36.1415 45.3148 35.404C45.1433 34.7991 45.0487 34.0269 45.1033 33.6158C45.1211 33.481 45.1293 33.4829 45.141 33.4541H45.1406Z" fill="#15161E"/>
    <path fill-rule="evenodd" clip-rule="evenodd" d="M45.2414 32.5724C43.9629 32.3241 44.0743 34.2667 44.4648 35.6438C44.9454 37.3424 45.8993 38.155 47.128 37.754C48.0701 37.4473 52.5349 37.0252 54.0554 37.1854C55.5758 37.3445 56.1434 35.4231 54.572 34.7335C53.0007 34.0439 45.2414 32.5724 45.2414 32.5724Z" fill="#15161E"/>
    <path d="M32.9056 31.2263C31.2703 31.1386 27.4622 31.5682 25.3676 31.988C25.3672 31.988 25.3669 31.988 25.3665 31.988C24.0595 32.2507 23.2752 33.3533 23.3462 34.349C23.4173 35.3447 24.1316 36.275 25.2304 36.4085C27.3393 36.6638 30.9756 37.8025 32.4434 38.6273C32.98 38.9292 33.5423 39.08 34.0905 38.9881C34.639 38.8962 35.0922 38.5499 35.3741 38.1561C35.9377 37.3687 36.0529 36.3977 36.0287 35.4427C35.9964 34.1525 35.7543 33.1487 35.201 32.3995C34.6478 31.6504 33.7727 31.2721 32.9047 31.2261L32.9056 31.2263ZM32.8115 32.9903C32.8118 32.9903 32.8122 32.9903 32.8125 32.9903C33.3069 33.0165 33.546 33.1307 33.7812 33.4491C34.0163 33.7675 34.2367 34.4062 34.2638 35.4872C34.282 36.2042 34.1012 36.9014 33.9389 37.1282C33.8577 37.2415 33.8406 37.239 33.7996 37.2459C33.7586 37.2528 33.6127 37.2575 33.3107 37.0875C33.3104 37.0875 33.31 37.0875 33.3097 37.0875C31.4206 36.0261 27.893 34.9516 25.4438 34.6551C25.3023 34.6379 25.1234 34.4292 25.1087 34.2236C25.0941 34.0181 25.0318 33.8574 25.7147 33.7201C27.6007 33.3421 31.7217 32.9318 32.8115 32.9903Z" fill="#15161E"/>
    <path fill-rule="evenodd" clip-rule="evenodd" d="M32.8593 32.106C34.2216 32.1781 35.0874 33.0917 35.1468 35.4629C35.1893 37.1349 34.5547 38.7995 32.8773 37.8552C31.1987 36.9121 27.6167 35.8055 25.3377 35.5297C24.0974 35.379 23.5509 33.2518 25.5414 32.8519C27.5319 32.4529 31.4969 32.0328 32.8593 32.106Z" fill="#15161E"/>
    <path d="M53.3942 1.41917C49.4725 1.32108 45.3948 2.02217 41.2436 3.45566C30.1739 7.27829 18.4962 16.2025 7.23326 28.9425C1.77565 35.1158 -1.07438 43.7366 0.374978 51.9635C1.82434 60.1904 7.65432 67.9571 19.2209 72.229C19.3297 72.2692 19.4454 72.2875 19.5613 72.283C19.6772 72.2785 19.7912 72.2513 19.8966 72.2027C20.0019 72.1542 20.0967 72.0854 20.1755 72.0002C20.2543 71.915 20.3155 71.8152 20.3557 71.7064C20.4368 71.4866 20.4273 71.2436 20.3293 71.0308C20.2313 70.8181 20.0528 70.653 19.833 70.5719C8.73206 66.4719 3.45838 59.2831 2.11488 51.657C0.771378 44.031 3.43929 35.9013 8.55683 30.1126C19.6888 17.5208 31.1928 8.79532 41.8204 5.12539C52.4479 1.45544 62.1123 2.73412 70.1143 10.1717C78.6893 18.1423 82.4335 32.9712 80.3589 46.2701C78.2844 59.569 70.5815 71.1844 56.4108 73.2905C56.2961 73.3075 56.1858 73.347 56.0863 73.4066C55.9868 73.4663 55.9001 73.545 55.831 73.6382C55.7619 73.7314 55.7118 73.8372 55.6836 73.9498C55.6555 74.0623 55.6498 74.1793 55.6669 74.294C55.7013 74.5257 55.8264 74.7343 56.0146 74.8737C56.2029 75.0132 56.4388 75.0722 56.6705 75.0377C71.6884 72.8057 79.9501 60.3529 82.1044 46.5424C84.2588 32.7318 80.4963 17.4099 71.3173 8.87782C66.0326 3.96596 59.9304 1.58265 53.3944 1.41917H53.3942Z" fill="#15161E"/>
    <path d="M34.7509 0.00647348C26.1161 0.173294 19.1778 3.53454 14.1686 8.32008C6.8825 15.2809 3.57912 25.1452 4.69738 32.6807C4.7144 32.7954 4.75385 32.9057 4.81348 33.0052C4.87312 33.1047 4.95178 33.1915 5.04496 33.2606C5.13813 33.3297 5.244 33.3797 5.35653 33.4079C5.46906 33.4361 5.58604 33.4418 5.70079 33.4248C5.81554 33.4078 5.92581 33.3683 6.02531 33.3087C6.12481 33.249 6.21157 33.1705 6.28067 33.0773C6.34977 32.9841 6.39988 32.8782 6.42806 32.7657C6.45625 32.6531 6.46198 32.5362 6.44495 32.4215C5.43587 25.6217 8.51878 16.1606 15.389 9.59714C22.2592 3.0337 32.8182 -0.741775 47.038 3.61427C47.262 3.68288 47.5041 3.65968 47.711 3.54982C47.9179 3.43997 48.0727 3.25244 48.1413 3.02847C48.1753 2.91756 48.1871 2.80102 48.1761 2.68553C48.165 2.57005 48.1314 2.45791 48.077 2.35544C48.0225 2.25298 47.9485 2.16224 47.859 2.0884C47.7695 2.01456 47.6664 1.95904 47.5555 1.92506C42.9513 0.514637 38.6758 -0.0693514 34.7509 0.00647348Z" fill="#15161E"/>
  </g>
  <defs>
    <clipPath id="clip0_3285_19939">
      <rect width="82.6958" height="84" fill="white"/>
    </clipPath>
  </defs>
</svg>