<svg xmlns="http://www.w3.org/2000/svg" width="84" height="71" viewBox="0 0 84 71" fill="none">
  <g clip-path="url(#clip0_3285_19979)">
    <path d="M36.9995 26.0006L24.4995 32.5006V31.001C22.4995 27.801 23.9995 20.001 24.9995 16.501C26.3328 12.8342 31.8995 4.70056 43.4995 1.50056C55.0995 -1.69944 67.3328 5.50056 71.9995 9.50056V15.5006L62.4995 19.5006L54.4995 14.0006L54.9995 19.5006L52.4995 22.0006H48.9995L36.9995 26.0006Z" fill="#62B60A"/>
    <path d="M58.761 34.6638C58.6488 34.6487 58.5347 34.6559 58.4253 34.6849C58.3158 34.7139 58.2132 34.7641 58.1232 34.8328C58.0331 34.9015 57.9575 34.9872 57.9007 35.0851C57.8438 35.183 57.8068 35.2911 57.7917 35.4033C57.5924 36.8854 57.3198 39.1884 57.275 41.0904C57.2526 42.0415 57.2737 42.8753 57.4404 43.5641C57.5238 43.9085 57.6188 44.2445 57.9569 44.5602C58.295 44.876 58.9799 44.9346 59.3693 44.7378C60.3614 44.2367 60.9205 44.3784 61.1872 44.6563C61.4539 44.9342 61.6678 45.6891 61.1409 47.0386C61.0577 47.2515 61.0625 47.4888 61.1543 47.6981C61.2461 47.9075 61.4173 48.0719 61.6303 48.155C61.7357 48.1962 61.8483 48.2162 61.9615 48.2139C62.0746 48.2115 62.1863 48.1869 62.2899 48.1415C62.3936 48.096 62.4873 48.0306 62.5657 47.9489C62.6441 47.8672 62.7056 47.7709 62.7468 47.6655C63.4137 45.9576 63.345 44.4152 62.4311 43.4628C61.6253 42.6231 60.3486 42.5089 59.0943 42.9799C59.0226 42.5748 58.9801 41.9188 58.9986 41.1311C59.0403 39.3634 59.3051 37.0851 59.5004 35.633C59.5155 35.5209 59.5083 35.4068 59.4793 35.2974C59.4503 35.188 59.4001 35.0853 59.3314 34.9953C59.2628 34.9053 59.1771 34.8297 59.0792 34.7728C58.9813 34.716 58.8732 34.6789 58.761 34.6638Z" fill="#15161E"/>
    <path d="M75.0483 9.36862C70.8514 9.48465 65.3938 11.5055 58.8639 16.344C58.5953 14.2461 57.9147 12.8143 56.893 11.993C55.6299 10.9777 53.9308 11.1508 52.7381 12.0445C50.5611 13.6759 49.5996 17.5269 52.2046 21.3076C48.5131 22.3805 46.5861 24.4657 46.1525 26.8058C45.6696 29.4117 46.899 32.061 48.6923 33.8994C50.4856 35.7377 53.0079 36.8941 55.26 35.9199C56.386 35.4328 57.3347 34.4163 57.9725 32.9129C58.5271 31.6057 58.8568 29.8919 58.9503 27.7407C67.7464 28.8844 74.0929 27.5635 78.2215 25.1202C82.4981 22.5893 84.407 18.8112 83.9269 15.4974C83.4468 12.1836 80.4882 9.5344 75.9232 9.37165C75.6379 9.36151 75.3462 9.36036 75.0483 9.36862ZM75.8619 11.0945C79.8218 11.2357 81.8608 13.2607 82.2207 15.7445C82.5805 18.2282 81.1719 21.3709 77.3434 23.6365C73.515 25.9022 67.2706 27.2395 58.2546 25.9104C58.1326 25.8924 58.0082 25.9008 57.8897 25.935C57.7712 25.9692 57.6615 26.0284 57.5678 26.1087C57.4742 26.1889 57.3988 26.2883 57.3469 26.4001C57.2949 26.5119 57.2676 26.6336 57.2667 26.7569C57.2484 29.2404 56.8971 31.0337 56.3854 32.2398C55.8737 33.4459 55.2358 34.0519 54.5754 34.3376C53.2547 34.9089 51.4052 34.2117 49.9263 32.6956C48.4474 31.1794 47.5042 28.973 47.8476 27.1199C48.1909 25.2667 49.7008 23.5059 53.8581 22.6633C54.0064 22.6332 54.1442 22.5646 54.2576 22.4644C54.371 22.3642 54.4561 22.2359 54.5042 22.0924C54.5523 21.9489 54.5617 21.7953 54.5316 21.647C54.5015 21.4987 54.433 21.3609 54.3327 21.2476C51.1968 17.7001 52.3226 14.5101 53.7719 13.424C54.4966 12.881 55.1571 12.8095 55.8129 13.3367C56.4687 13.8639 57.1935 15.2637 57.2671 17.98C57.2715 18.1394 57.32 18.2946 57.4073 18.4281C57.4946 18.5617 57.6172 18.6684 57.7616 18.7363C57.9059 18.8043 58.0663 18.8309 58.2249 18.8131C58.3834 18.7954 58.5339 18.734 58.6597 18.6357C66.034 12.8722 71.902 10.9534 75.8619 11.0945Z" fill="#15161E"/>
    <path fill-rule="evenodd" clip-rule="evenodd" d="M53.6869 21.8196C46.9224 14.1674 57.8193 6.53487 58.1288 17.9578C88.0288 -5.4109 94.7487 32.1627 58.1288 26.7644C57.9777 47.2466 36.242 25.3553 53.6869 21.8196Z" fill="#15161E"/>
    <path d="M51.8413 0.00372465C49.1847 -0.0373267 46.287 0.247642 43.15 0.981233C30.1134 4.02993 25.0819 12.2698 23.5064 19.6277C21.931 26.9856 23.6508 33.5389 23.6508 33.5389C23.6874 33.6794 23.7589 33.8084 23.8587 33.9139C23.9585 34.0193 24.0833 34.0979 24.2216 34.1423C24.3598 34.1867 24.5071 34.1954 24.6496 34.1677C24.7921 34.14 24.9254 34.0767 25.0369 33.9838C37.2902 23.7712 53.7431 22.6793 53.7431 22.6793C53.8561 22.6721 53.9665 22.6427 54.0681 22.5928C54.1697 22.5429 54.2605 22.4735 54.3353 22.3885C54.4101 22.3035 54.4674 22.2046 54.5039 22.0975C54.5405 21.9904 54.5556 21.8771 54.5484 21.7641C54.5412 21.6511 54.5117 21.5407 54.4618 21.4391C54.4119 21.3375 54.3425 21.2467 54.2575 21.1719C54.1725 21.0972 54.0736 21.0399 53.9665 21.0033C53.8594 20.9667 53.746 20.9517 53.6331 20.9589C53.6331 20.9589 37.6821 21.9446 25.0493 31.7639C24.6665 29.5845 24.1228 24.9842 25.1924 19.9887C26.6702 13.0873 31.0694 5.57675 43.5425 2.65982C62.7806 -1.83899 72.1154 10.9844 72.1154 10.9844C72.2514 11.1681 72.4548 11.2903 72.6809 11.3241C72.9069 11.3579 73.1371 11.3005 73.3209 11.1646C73.4119 11.0973 73.4888 11.0127 73.5471 10.9156C73.6054 10.8186 73.644 10.711 73.6607 10.5991C73.6774 10.4871 73.672 10.373 73.6446 10.2632C73.6172 10.1533 73.5684 10.05 73.5011 9.95898C73.5011 9.95898 66.1868 0.225189 51.8413 0.00352243V0.00372465Z" fill="#15161E"/>
    <path d="M75.7196 24.6996C75.5014 24.6311 75.2651 24.6522 75.0624 24.758C74.8598 24.8638 74.7075 25.0458 74.6391 25.2639C71.65 34.7945 73.8582 42.668 73.8582 42.668C73.8964 42.8039 73.9673 42.9283 74.0648 43.0304C74.1623 43.1325 74.2834 43.2091 74.4174 43.2534C74.5514 43.2978 74.6943 43.3085 74.8334 43.2848C74.9725 43.261 75.1037 43.2034 75.2154 43.1171C75.2154 43.1171 76.7599 42.0487 77.7652 41.9829C78.2678 41.95 78.5153 41.9938 78.8121 42.5321C79.1089 43.0705 79.3448 44.2945 79.096 46.451C78.6645 50.1878 76.7295 54.9199 74.1937 58.9979C71.658 63.076 68.4794 66.5055 65.8911 67.7595C63.0212 69.1501 58.6073 69.4457 54.2798 68.7681C49.9524 68.0905 45.7105 66.4476 43.1427 64.2761C42.8556 64.0331 42.291 63.2574 41.7518 62.2936C41.2124 61.3296 40.6527 60.1651 40.1511 59.0474C39.1479 56.8119 38.3769 54.7696 38.3769 54.7696C38.3345 54.6572 38.269 54.5549 38.1848 54.4692C38.1005 54.3836 37.9992 54.3165 37.8874 54.2723C37.7757 54.2281 37.656 54.2078 37.5359 54.2126C37.4158 54.2174 37.2981 54.2472 37.1902 54.3002C34.1933 55.773 31.84 55.4625 29.8834 54.3269C27.9269 53.1914 26.3962 51.1297 25.4836 49.0624C23.9949 45.6889 24.857 43.3278 26.2687 41.8175C26.9746 41.0623 27.8415 40.5428 28.6077 40.301C29.3739 40.0593 30.0001 40.1341 30.2482 40.2865C31.4108 41.0003 32.1689 41.4159 32.9921 41.4622C33.1979 41.4738 33.4266 41.4573 33.6678 41.3497C33.9089 41.2421 34.1406 41.0176 34.254 40.7744C34.481 40.2881 34.3753 39.8922 34.2551 39.516C32.3126 33.4506 31.9412 28.7315 31.9412 28.7315C31.9323 28.6187 31.9012 28.5086 31.8498 28.4078C31.7984 28.3069 31.7277 28.2171 31.6415 28.1436C31.5554 28.0701 31.4557 28.0143 31.348 27.9793C31.2403 27.9443 31.1268 27.9309 31.0139 27.9399C30.9011 27.9488 30.7911 27.9798 30.6902 28.0312C30.5893 28.0826 30.4996 28.1534 30.4261 28.2395C30.3526 28.3256 30.2968 28.4253 30.2618 28.533C30.2269 28.6406 30.2135 28.7542 30.2224 28.867C30.2224 28.867 30.6012 33.5159 32.4534 39.5056C32.116 39.3574 31.6696 39.1363 31.1508 38.8178C30.2595 38.2705 29.1642 38.3182 28.0895 38.6573C27.0146 38.9963 25.921 39.6653 25.0095 40.6406C23.1863 42.5911 22.1857 45.8593 23.9067 49.7589C24.9324 52.0825 26.6274 54.4307 29.0181 55.8183C31.2065 57.0884 34.0056 57.449 37.0916 56.2126C37.3933 56.9832 37.8727 58.1811 38.5784 59.7535C39.0928 60.8997 39.6679 62.0998 40.2474 63.1356C40.8269 64.1714 41.365 65.0306 42.0295 65.5927C44.9733 68.0823 49.4426 69.7559 54.0133 70.4716C58.584 71.1873 63.2551 70.9529 66.6433 69.3111C69.8078 67.7779 73.0169 64.1558 75.658 59.9085C78.299 55.6611 80.3301 50.7941 80.8088 46.6488C81.0783 44.3124 80.915 42.7755 80.322 41.7C79.729 40.6245 78.5957 40.2013 77.6528 40.2631C76.7389 40.3229 75.8951 40.6749 75.2636 41.0218C74.8148 38.6526 74.095 32.7604 76.2843 25.78C76.3526 25.5619 76.3316 25.3255 76.2257 25.1229C76.1198 24.9204 75.9378 24.7682 75.7196 24.6998L75.7196 24.6996Z" fill="#15161E"/>
    <path d="M64.0686 54.5184C63.847 54.5746 63.6567 54.7164 63.5397 54.9127C62.4375 56.7622 61.3346 57.4528 60.1089 57.5124C58.8831 57.5721 57.3432 56.9143 55.5908 55.5089C55.4124 55.3659 55.1846 55.2996 54.9573 55.3246C54.7301 55.3496 54.5221 55.4638 54.379 55.6421C54.236 55.8205 54.1697 56.0483 54.1946 56.2755C54.2196 56.5028 54.3338 56.7108 54.5121 56.8538C56.4365 58.3971 58.3193 59.3255 60.1928 59.2343C62.0663 59.1431 63.7393 57.9455 65.0207 55.7954C65.0786 55.6982 65.1169 55.5905 65.1332 55.4785C65.1495 55.3665 65.1436 55.2524 65.1159 55.1426C65.0881 55.0329 65.039 54.9297 64.9713 54.8389C64.9037 54.7482 64.8188 54.6716 64.7216 54.6137C64.6243 54.5557 64.5166 54.5174 64.4045 54.5011C64.2925 54.4847 64.1783 54.4906 64.0686 54.5184Z" fill="#15161E"/>
    <path d="M45.425 30.207C45.1271 30.1784 44.8149 30.2253 44.5398 30.3785C44.078 30.6358 43.032 31.3419 41.8291 32.1758C40.6264 33.0096 39.3811 33.9002 38.7297 34.4548C37.978 35.0943 37.6604 36.0267 37.9635 36.7525C38.2665 37.4784 38.9689 37.8631 39.7087 37.8132C39.7092 37.8132 39.7096 37.8132 39.71 37.8132C39.9589 37.796 40.1164 37.7457 40.3472 37.6795C40.578 37.6133 40.8469 37.5262 41.1469 37.4227C41.7468 37.2156 42.468 36.9428 43.1864 36.6522C43.9047 36.3617 44.6175 36.0546 45.2026 35.7746C45.4952 35.6347 45.7554 35.5022 45.9772 35.3753C46.1985 35.2485 46.3665 35.16 46.5721 34.9484C47.5116 33.9834 47.5294 32.6491 47.1404 31.6889C46.9459 31.2088 46.6581 30.7861 46.2237 30.4885C46.0065 30.3397 45.7229 30.2357 45.425 30.207ZM45.2839 31.9477C45.3508 32.008 45.463 32.14 45.5425 32.3362C45.725 32.7866 45.7246 33.3475 45.3366 33.746C45.3363 33.7464 45.3359 33.7467 45.3356 33.747C45.3981 33.6826 45.2843 33.7851 45.1202 33.8791C44.9561 33.973 44.7262 34.0915 44.4583 34.2196C43.9227 34.4759 43.2335 34.7736 42.5398 35.0542C41.846 35.3348 41.1452 35.5993 40.5839 35.7931C40.3033 35.8899 40.0569 35.9692 39.8715 36.0224C39.6869 36.0753 39.5297 36.0974 39.5924 36.0931C39.5957 36.0931 39.5382 36.0497 39.5544 36.0885C39.5706 36.1274 39.4399 36.1139 39.8468 35.7678C40.3531 35.3367 41.6263 34.4141 42.8111 33.5927C43.9521 32.8018 45.0452 32.0888 45.2834 31.9479L45.2839 31.9477Z" fill="#15161E"/>
    <path fill-rule="evenodd" clip-rule="evenodd" d="M45.9542 34.349C45.3795 34.9412 40.3866 36.9042 39.6505 36.9549C38.9143 37.0046 38.1294 36.0987 39.2881 35.1131C40.4457 34.1274 44.3254 31.4863 44.9591 31.1332C45.9904 30.5586 47.2816 32.9855 45.9542 34.349Z" fill="#15161E"/>
    <path d="M64.5423 28.6393C63.7869 28.6053 63.0765 28.8946 62.5784 29.3721C61.9142 30.0088 61.6039 31.1181 62.1264 32.0513C62.4405 32.6126 62.9172 32.9448 63.4953 33.3081C64.0735 33.6714 64.7637 34.0161 65.4944 34.3266C66.9558 34.9477 68.5265 35.4365 69.7346 35.5027C70.3347 35.5353 70.839 35.4692 71.2766 35.2081C71.7141 34.947 72.0061 34.4142 72.0064 33.9489C72.0075 33.0186 71.3986 32.3985 70.6193 32.0695C70.6588 32.0862 70.2784 31.8694 69.8743 31.5947C69.4702 31.3199 68.9644 30.9655 68.43 30.6012C67.3613 29.8727 66.2548 29.1133 65.3059 28.7863C65.0503 28.6981 64.7936 28.6507 64.5419 28.6393H64.5423ZM64.4551 30.3602C64.5478 30.364 64.6446 30.3816 64.7437 30.4158C64.744 30.4158 64.7443 30.4158 64.7447 30.4158C65.2142 30.5775 66.4147 31.3131 67.4597 32.0254C67.9821 32.3816 68.4849 32.734 68.9056 33.0201C69.3263 33.3062 69.587 33.5042 69.9485 33.6571C69.9489 33.6571 69.9492 33.6571 69.9496 33.6571C70.0057 33.6808 70.0548 33.7229 70.0988 33.7687C70.0174 33.7758 69.952 33.7876 69.8299 33.781C69.055 33.7386 67.5008 33.3053 66.1697 32.7396C65.5041 32.4568 64.8811 32.1419 64.4135 31.8481C63.9459 31.5542 63.6442 31.2315 63.6317 31.2091C63.5008 30.9754 63.5545 30.825 63.7722 30.6164C63.9355 30.4598 64.1778 30.3483 64.456 30.3599L64.4551 30.3602Z" fill="#15161E"/>
    <path fill-rule="evenodd" clip-rule="evenodd" d="M70.285 32.8614C71.2666 33.2755 71.7667 34.7478 69.7829 34.6401C67.8 34.5314 63.533 32.7962 62.8797 31.6283C62.2263 30.4615 63.6076 29.1093 65.0261 29.599C66.4446 30.0877 69.641 32.5891 70.285 32.8614Z" fill="#15161E"/>
    <path fill-rule="evenodd" clip-rule="evenodd" d="M46.4683 40.3671C46.5733 40.94 46.5181 41.518 46.3148 41.974C46.1114 42.43 45.7766 42.7266 45.3839 42.7985C44.9913 42.8705 44.573 42.712 44.2211 42.3578C43.8692 42.0036 43.6125 41.4828 43.5074 40.9099C43.4024 40.337 43.4576 39.759 43.6609 39.303C43.8643 38.847 44.1991 38.5504 44.5918 38.4785C44.9844 38.4065 45.4027 38.565 45.7546 38.9192C46.1065 39.2734 46.3632 39.7942 46.4683 40.3671Z" fill="#15161E"/>
    <path fill-rule="evenodd" clip-rule="evenodd" d="M68.646 39.6405C68.751 40.2134 68.6958 40.7914 68.4925 41.2474C68.2891 41.7034 67.9543 42 67.5617 42.072C67.1691 42.144 66.7508 41.9854 66.3989 41.6313C66.0469 41.2771 65.7902 40.7562 65.6852 40.1834C65.6331 39.8997 65.6199 39.6118 65.6463 39.3361C65.6726 39.0604 65.738 38.8022 65.8387 38.5765C65.9394 38.3507 66.0734 38.1617 66.2331 38.0202C66.3928 37.8787 66.5751 37.7875 66.7695 37.7519C66.9639 37.7162 67.1667 37.7368 67.3662 37.8125C67.5657 37.8881 67.7581 38.0172 67.9323 38.1926C68.1066 38.368 68.2593 38.5861 68.3817 38.8345C68.5042 39.083 68.594 39.3568 68.646 39.6405Z" fill="#15161E"/>
    <path d="M24.2497 32.4935C24.0298 32.5559 23.8437 32.7031 23.7323 32.9028C23.6209 33.1024 23.5934 33.3381 23.6558 33.558C23.6558 33.558 24.8366 37.809 26.3283 40.4792C26.4398 40.6788 26.626 40.8259 26.846 40.8881C27.066 40.9504 27.3016 40.9227 27.5012 40.8113C27.6 40.7561 27.6871 40.6819 27.7572 40.5931C27.8274 40.5043 27.8794 40.4025 27.9103 40.2936C27.9411 40.1847 27.9502 40.0708 27.937 39.9584C27.9238 39.846 27.8887 39.7372 27.8335 39.6384C26.542 37.3265 25.3143 33.0876 25.3143 33.0876C25.2834 32.9787 25.2314 32.877 25.1611 32.7882C25.0909 32.6994 25.0039 32.6253 24.9051 32.5701C24.8062 32.515 24.6975 32.4798 24.585 32.4666C24.4726 32.4535 24.3586 32.4626 24.2497 32.4935Z" fill="#15161E"/>
    <path fill-rule="evenodd" clip-rule="evenodd" d="M31.0821 28.7968C31.0821 28.7968 31.4621 33.6173 33.4346 39.7766C33.7939 40.8989 32.9376 40.9237 30.7001 39.5498C29.8717 39.0404 28.4283 39.2434 27.0802 40.0571C25.6886 37.5661 24.4844 33.3212 24.4844 33.3212C26.5987 31.559 28.8311 30.064 31.0821 28.7968Z" fill="#15161E"/>
    <path d="M24.8076 32.5237C24.7027 32.4813 24.5904 32.4599 24.4771 32.4608C24.3639 32.4618 24.252 32.485 24.1478 32.5292C18.7929 34.7999 12.581 38.074 7.80705 41.293C5.42005 42.9025 3.39452 44.4917 1.9939 45.9816C1.29359 46.7265 0.745615 47.4454 0.393239 48.1742C0.0408732 48.9031 -0.124827 49.6887 0.108092 50.4412C0.557332 51.8929 2.02751 52.6322 3.76585 52.9877C5.50427 53.3433 7.67267 53.3609 10.0591 53.154C14.8319 52.7402 20.4543 51.4073 24.7994 49.7017C25.0121 49.6182 25.183 49.4536 25.2744 49.2441C25.3658 49.0345 25.3703 48.7973 25.2867 48.5845C25.2032 48.3717 25.0385 48.2009 24.829 48.1095C24.6194 48.0181 24.3822 48.0137 24.1694 48.0972C20.0136 49.7285 14.4788 51.0404 9.91005 51.4365C7.62569 51.6346 5.57704 51.5984 4.11147 51.2986C2.6459 50.9989 1.92508 50.4812 1.75507 49.9317C1.69237 49.7291 1.70972 49.4118 1.94537 48.9244C2.18101 48.437 2.62608 47.8262 3.25016 47.1623C4.49833 45.8346 6.44709 44.2892 8.77088 42.7223C13.4185 39.5885 19.5742 36.341 24.821 34.1162C25.0314 34.0269 25.1978 33.8578 25.2835 33.6459C25.3693 33.4339 25.3673 33.1967 25.278 32.9862C25.1888 32.7758 25.0196 32.6094 24.8076 32.5237Z" fill="#15161E"/>
  </g>
  <defs>
    <clipPath id="clip0_3285_19979">
      <rect width="84" height="70.8531" fill="white"/>
    </clipPath>
  </defs>
</svg>