<svg xmlns="http://www.w3.org/2000/svg" viewBox="0 0 20 20"><defs><style>.prefix__b{fill:#e7633f}.prefix__d{fill:#ffcf48}.prefix__f{fill:#282828}.prefix__g{fill:#fefefe}</style></defs><path fill="none" d="M0 0h20v20H0z"/><g transform="translate(0 2.222)"><path class="prefix__b" d="M12.743 9.939H.319v2.475a.4.4 0 0 0 .409.4h12.015Zm6.139-2.279h-5.588v5.11h5.988a.4.4 0 0 0 .4-.4V8.46a.8.8 0 0 0-.8-.8"/><path d="M13.294 7.298h5.748l-2.2-3.02a1.2 1.2 0 0 0-.968-.493h-2.58Z" fill="#fff9f7"/><path class="prefix__d" d="M12.334.319H.728a.415.415 0 0 0-.409.422v9.026h12.424V.741a.415.415 0 0 0-.409-.422"/><path d="M16.415 11.377a1.88 1.88 0 0 1 1.992 1.741 2 2 0 0 1-1.895 1.994 2.18 2.18 0 0 1-2.088-1.994 1.88 1.88 0 0 1 1.991-1.741m-12.788 0a1.88 1.88 0 0 1 1.992 1.739 2.105 2.105 0 0 1-1.939 2.061 2.2 2.2 0 0 1-2.044-2.061 1.88 1.88 0 0 1 1.991-1.739" fill="#8d8d8d"/><path class="prefix__b" d="M13.084 3.513h2.555L14.48 1.775a.4.4 0 0 0-.332-.178h-1.064Z"/><path class="prefix__f" d="M15.319 8.475h-1.277v.639h1.277Z"/><path class="prefix__d" d="M18.884 10.082h.8V8.327a.8.8 0 0 0-.8-.8h-.8v1.756a.8.8 0 0 0 .8.799"/><path class="prefix__f" d="M0 3.044V.761A.756.756 0 0 1 .75 0h11.833a.756.756 0 0 1 .75.761v.592h.777a.75.75 0 0 1 .624.339l1.116 1.7a1.58 1.58 0 0 1 1.127.654l.959 1.338-.539.4-.959-1.338a.92.92 0 0 0-.741-.383h-2.364V7.1h5.012l-.948-1.323.539-.4 1.28 1.786A1.185 1.185 0 0 1 20 8.285v4.143a.756.756 0 0 1-.75.761h-.583a2.334 2.334 0 1 1-4.667 0H6a2.334 2.334 0 1 1-4.667 0H.75a.756.756 0 0 1-.75-.761V2.876h.667v6.592h12V.761a.084.084 0 0 0-.083-.085H.75a.084.084 0 0 0-.083.085v2.283Zm15.044.338-.864-1.315a.08.08 0 0 0-.069-.038h-.777v1.353Zm4.29 4.9a.5.5 0 0 0-.5-.507h-.5V9.3a.5.5 0 0 0 .5.507h.5Zm-3 6.594a1.691 1.691 0 1 0-1.667-1.691 1.68 1.68 0 0 0 1.666 1.694ZM14.1 12.512a2.324 2.324 0 0 1 4.473 0h.68a.084.084 0 0 0 .083-.085v-1.944h-.5a1.177 1.177 0 0 1-1.167-1.184V7.777h-4.336v4.734h.767ZM3.67 14.879A1.691 1.691 0 1 0 2 13.188a1.68 1.68 0 0 0 1.667 1.691Zm-3-4.734v2.283a.084.084 0 0 0 .083.085h.68a2.324 2.324 0 0 1 4.473 0h6.764v-2.367Z"/><path class="prefix__g" d="M16.772 12.491c.5 0 .448.357.448.8s.048.8-.448.8a.85.85 0 0 1-.9-.8.85.85 0 0 1 .9-.8"/><path class="prefix__f" d="M16.487 14.278a.958.958 0 1 0-.958-.958.96.96 0 0 0 .958.958m0-1.277a.319.319 0 1 1-.319.319.32.32 0 0 1 .319-.319"/><path class="prefix__g" d="M3.277 12.491a.85.85 0 0 1 .9.8.85.85 0 0 1-.9.8c-.5 0-.51-.357-.51-.8s.01-.8.51-.8"/><path class="prefix__f" d="M3.513 14.278a.958.958 0 1 0-.958-.958.96.96 0 0 0 .958.958m0-1.277a.319.319 0 1 1-.319.319.32.32 0 0 1 .319-.319"/></g></svg>