<svg xmlns="http://www.w3.org/2000/svg" viewBox="0 0 20 20"><defs><style>.prefix__a{fill:none}.prefix__c{fill:#e7633f}.prefix__d{fill:#040505;opacity:.1}.prefix__e{fill:#ffcf48}</style></defs><path class="prefix__a" d="M0 0h20v20H0z"/><path class="prefix__a" d="M13.4 3.19a1.03 1.03 0 0 0-.76-1.24l-.24-.03a1 1 0 0 0-.54.16 7 7 0 0 0-1.35 2.04 7 7 0 0 0 2.43-.3 1 1 0 0 0 .46-.63m-7.3.64a7 7 0 0 0 2.42.29 7 7 0 0 0-1.35-2.04 1 1 0 0 0-.54-.16l-.24.03a1.03 1.03 0 0 0-.3 1.88Z"/><path d="M18.03 4.14h-4.09a1.9 1.9 0 0 0 .12-2.21 1.95 1.95 0 0 0-2.68-.64 9 9 0 0 0-1.86 2.75 9 9 0 0 0-1.85-2.75A1.95 1.95 0 0 0 5.1 4.14H1a.5.5 0 0 0-.48.49v4.01a.5.5 0 0 0 .49.49v9.38a.5.5 0 0 0 .49.49h16.05a.5.5 0 0 0 .48-.5V9.14a.5.5 0 0 0 .5-.49V4.63a.5.5 0 0 0-.5-.49m-6.17-2.06a1 1 0 0 1 .54-.16l.24.03a1.03 1.03 0 0 1 .3 1.88 7 7 0 0 1-2.43.29 7 7 0 0 1 1.35-2.04m-6.1.33a1 1 0 0 1 .64-.46l.24-.03a1 1 0 0 1 .54.16 7 7 0 0 1 1.34 2.04 7 7 0 0 1-2.43-.3 1.03 1.03 0 0 1-.34-1.41Z" fill="#282828"/><path class="prefix__c" d="M10.01 5.12h7.54v3.04h-7.54z"/><path class="prefix__d" d="M16.57 5.12h.97v3.04h-.97z"/><path class="prefix__c" d="M1.49 5.12h7.54v3.04H1.49z"/><path class="prefix__e" d="M1.98 9.13h7.05v8.89H1.98z"/><path fill="#fff" opacity=".2" d="M1.49 5.12h.97v3.04h-.97z"/><path class="prefix__e" d="M10 9.13h7.05v8.89H10z"/><path class="prefix__d" d="M1.98 17.04h7.05v.97H1.98zm14.1-7.91v6.08a1.84 1.84 0 0 1-1.84 1.83h-4.22v.98h7.05v-8.9Z"/></svg>