<svg xmlns="http://www.w3.org/2000/svg" width="50" height="50.037" viewBox="0 0 50 50.037"><defs><style>.a{fill:none;}.b{fill:#f2f2f2;}.c{fill:#fee4d0;}.d{fill:#d32f2f;}.e{fill:#303c42;}.f{opacity:0.1;}.g{fill:#ffcf48;}.h,.i{stroke:none;}.i{fill:#fff;}</style></defs><g transform="translate(-79.999 -253.059)"><g transform="translate(79.999 253.096)"><g transform="translate(0 0)"><rect class="a" width="50" height="50"/><g transform="translate(0 14)"><path d="M35.735,17.868A17.868,17.868,0,0,0,0,17.868,11.511,11.511,0,0,0,6.257,28.633c.823,5.768,3.332,7.1,11.611,7.1,8.048,0,10.648-1.248,11.543-6.616C33.6,26.955,35.735,23.181,35.735,17.868Z"/><path class="b" d="M450.842,149.648a8.873,8.873,0,0,1-2.046-10.181,16.092,16.092,0,0,1,2.046,10.181Z" transform="translate(-416.732 -129.733)"/><g transform="translate(1.489 2.978)"><circle class="b" cx="7.445" cy="7.445" r="7.445" transform="translate(8.934)"/><path class="b" d="M23.515,139.467A8.869,8.869,0,0,1,21.5,149.615a13.08,13.08,0,0,1-.168-2.015A16.259,16.259,0,0,1,23.515,139.467Z" transform="translate(-21.333 -132.711)"/></g><path class="c" d="M118.466,341.834c-8.717,0-9.84-1.416-10.32-7.415,2.143-2.321,6.061-3.752,10.32-3.752s8.176,1.432,10.32,3.752C128.305,340.419,127.183,341.834,118.466,341.834Z" transform="translate(-100.598 -307.588)"/><path class="d" d="M56.8,47.75c.02-.22.044-.429.061-.66a.75.75,0,0,0-.176-.539c-2.369-2.776-6.834-4.5-11.653-4.5s-9.284,1.725-11.653,4.5a.75.75,0,0,0-.176.539c0,.053.01.1.014.151A9.727,9.727,0,0,1,29.2,41.971a10.29,10.29,0,0,0,2.555-13.2A16.35,16.35,0,0,1,44.115,22a8.934,8.934,0,1,0,1.825,0A16.35,16.35,0,0,1,58.3,28.773a10.294,10.294,0,0,0,2.644,13.27A9.318,9.318,0,0,1,56.8,47.75Z" transform="translate(-27.16 -20.461)"/><g transform="translate(31.268 9.734)"><path class="b" d="M450.842,149.648a8.873,8.873,0,0,1-2.046-10.181,16.092,16.092,0,0,1,2.046,10.181Z" transform="translate(-448 -139.467)"/></g><g transform="translate(2.038 1.535)"><path class="d" d="M56.8,47.75c.02-.22.044-.429.061-.66a.75.75,0,0,0-.176-.539c-2.369-2.776-6.834-4.5-11.653-4.5s-9.284,1.725-11.653,4.5a.75.75,0,0,0-.176.539c0,.053.01.1.014.151A9.727,9.727,0,0,1,29.2,41.971a10.29,10.29,0,0,0,2.555-13.2A16.35,16.35,0,0,1,44.115,22a8.934,8.934,0,1,0,1.825,0A16.35,16.35,0,0,1,58.3,28.773a10.294,10.294,0,0,0,2.644,13.27A9.318,9.318,0,0,1,56.8,47.75Z" transform="translate(-29.198 -21.996)"/></g><g transform="translate(12.656 25.312)"><path class="e" d="M182.45,362.667c-.58,0-1.117.361-1.117,2.978s.537,2.978,1.117,2.978,1.117-.361,1.117-2.978S183.03,362.667,182.45,362.667Z" transform="translate(-181.333 -362.667)"/><path class="e" d="M299.784,368.622c.58,0,1.117-.361,1.117-2.978s-.537-2.978-1.117-2.978-1.117.361-1.117,2.978S299.2,368.622,299.784,368.622Z" transform="translate(-290.478 -362.666)"/></g><path class="f" d="M22.021,269.481a9.013,9.013,0,0,0,.748-.811c-.3-.107-.586-.228-.877-.344C21.921,268.72,21.963,269.106,22.021,269.481Z" transform="translate(-20.364 -249.599)"/><path class="f" d="M449.07,177.925a8.962,8.962,0,0,0,2.767,5.426,15.671,15.671,0,0,0-.895-7.652A13.807,13.807,0,0,1,449.07,177.925Z" transform="translate(-417.727 -163.436)"/><path class="f" d="M31.062,227.965a10.525,10.525,0,0,1-1.864,1.96,9.726,9.726,0,0,0,4.015,5.271c0-.052-.01-.1-.014-.151a.75.75,0,0,1,.176-.539c2.369-2.776,6.834-4.5,11.653-4.5s9.284,1.725,11.653,4.5a.75.75,0,0,1,.176.539c-.017.231-.041.44-.061.66A9.318,9.318,0,0,0,60.947,230a10.477,10.477,0,0,1-3.754-5.944c-4.031,3.175-10.155,5.208-17,5.208A32.241,32.241,0,0,1,31.062,227.965Z" transform="translate(-27.16 -208.415)"/></g></g></g><g transform="translate(92.854 254.559)"><g><path class="h" d="M 17.70748710632324 36.16497802734375 C 13.14109706878662 36.16497802734375 10.55993747711182 35.7357063293457 8.798327445983887 34.68328857421875 C 6.989068031311035 33.60241317749023 5.995831966400146 31.8463306427002 5.513532638549805 28.84903335571289 C 3.50624942779541 27.67817115783691 1.959595084190369 26.17546463012695 0.913097083568573 24.37822723388672 C -0.1904528886079788 22.48300743103027 -0.750002920627594 20.2386474609375 -0.750002920627594 17.70748710632324 C -0.750002920627594 7.529996871948242 7.529996871948242 -0.750002920627594 17.70748710632324 -0.750002920627594 C 27.88497734069824 -0.750002920627594 36.16497802734375 7.529996871948242 36.16497802734375 17.70748710632324 C 36.16497802734375 20.45480728149414 35.60147857666016 22.84823799133301 34.49012756347656 24.82131767272949 C 33.42959213256836 26.70417594909668 31.86016845703125 28.22575759887695 29.82216644287109 29.34827613830566 C 29.57890892028809 30.64721298217773 29.23808670043945 31.65497589111328 28.75925636291504 32.49766540527344 C 28.19724655151367 33.48674774169922 27.44189643859863 34.23561859130859 26.45003700256348 34.78707885742188 C 24.68975639343262 35.76577758789062 22.15686798095703 36.16497802734375 17.70748710632324 36.16497802734375 Z"/><path class="i" d="M 17.70748710632324 -3.814697265625e-06 C 7.942987442016602 -3.814697265625e-06 -3.814697265625e-06 7.943746566772461 -3.814697265625e-06 17.70748710632324 C -3.814697265625e-06 22.53049850463867 2.096466064453125 26.11037826538086 6.200456619262695 28.3765869140625 C 7.015697479248047 34.09299850463867 9.502906799316406 35.41497802734375 17.70748710632324 35.41497802734375 C 25.68290710449219 35.41497802734375 28.26044654846191 34.17807769775391 29.14714813232422 28.85849761962891 C 33.2953987121582 26.7132682800293 35.41497802734375 22.97338676452637 35.41497802734375 17.70748710632324 C 35.41497802734375 7.943746566772461 27.47198677062988 -3.814697265625e-06 17.70748710632324 -3.814697265625e-06 M 17.70748710632324 -1.500003814697266 C 28.29853820800781 -1.500003814697266 36.91497802734375 7.116437911987305 36.91497802734375 17.70748710632324 C 36.91497802734375 20.5853157043457 36.31899642944336 23.10259628295898 35.14359664916992 25.18938827514648 C 34.06748580932617 27.09989929199219 32.50432586669922 28.65878295898438 30.49117279052734 29.83126640319824 C 30.23687362670898 31.0514087677002 29.88812255859375 32.02909088134766 29.41133689880371 32.86819839477539 C 28.77942657470703 33.98027801513672 27.92998695373535 34.82236862182617 26.81448745727539 35.44257736206055 C 24.93346786499023 36.48839569091797 22.29499816894531 36.91497802734375 17.70748710632324 36.91497802734375 C 12.99408721923828 36.91497802734375 10.30148696899414 36.45494842529297 8.413677215576172 35.3271369934082 C 7.301237106323242 34.66255569458008 6.463956832885742 33.76155853271484 5.853986740112305 32.57266616821289 C 5.396265029907227 31.68050575256348 5.066303253173828 30.63260841369629 4.831533432006836 29.31503295898438 C 2.857925415039062 28.10525131225586 1.323875427246094 26.57417678833008 0.2649688720703125 24.7556266784668 C -0.9061813354492188 22.74431610107422 -1.500003814697266 20.37297821044922 -1.500003814697266 17.70748710632324 C -1.500003814697266 7.116437911987305 7.116437911987305 -1.500003814697266 17.70748710632324 -1.500003814697266 Z"/></g><path class="b" d="M450.816,149.557a8.794,8.794,0,0,1-2.028-10.09,15.948,15.948,0,0,1,2.028,10.09Z" transform="translate(-417.012 -129.82)"/><g transform="translate(1.476 2.951)"><circle class="b" cx="7.378" cy="7.378" r="7.378" transform="translate(8.854)"/><path class="b" d="M23.5,139.467a8.789,8.789,0,0,1-2,10.057,12.963,12.963,0,0,1-.167-2A16.113,16.113,0,0,1,23.5,139.467Z" transform="translate(-21.333 -132.771)"/></g><path class="c" d="M118.373,341.734c-8.639,0-9.751-1.4-10.227-7.349,2.124-2.3,6.006-3.719,10.227-3.719s8.1,1.419,10.227,3.719C128.125,340.331,127.012,341.734,118.373,341.734Z" transform="translate(-100.666 -307.795)"/><path class="g" d="M56.548,47.519c.02-.218.044-.425.061-.654a.743.743,0,0,0-.174-.534c-2.347-2.751-6.773-4.46-11.548-4.46s-9.2,1.709-11.548,4.46a.743.743,0,0,0-.174.534c0,.053.01.1.014.15A9.64,9.64,0,0,1,29.2,41.792a10.2,10.2,0,0,0,2.532-13.08A16.2,16.2,0,0,1,43.981,22a8.853,8.853,0,1,0,1.809,0,16.2,16.2,0,0,1,12.251,6.716,10.2,10.2,0,0,0,2.62,13.151A9.235,9.235,0,0,1,56.548,47.519Z" transform="translate(-27.178 -20.475)"/><g transform="translate(30.988 9.647)"><path class="b" d="M450.816,149.557a8.794,8.794,0,0,1-2.028-10.09,15.948,15.948,0,0,1,2.028,10.09Z" transform="translate(-448 -139.467)"/></g><g transform="translate(12.543 25.086)"><path class="e" d="M182.44,362.667c-.575,0-1.107.357-1.107,2.951s.532,2.951,1.107,2.951,1.107-.357,1.107-2.951S183.015,362.667,182.44,362.667Z" transform="translate(-181.333 -362.667)"/><path class="e" d="M299.774,368.568c.575,0,1.107-.357,1.107-2.951s-.532-2.951-1.107-2.951-1.107.357-1.107,2.951S299.2,368.568,299.774,368.568Z" transform="translate(-290.551 -362.666)"/></g><path class="f" d="M22.02,269.471a8.931,8.931,0,0,0,.742-.8c-.3-.106-.581-.226-.869-.341C21.921,268.716,21.962,269.1,22.02,269.471Z" transform="translate(-20.378 -249.767)"/><path class="f" d="M449.07,177.9a8.882,8.882,0,0,0,2.742,5.378,15.532,15.532,0,0,0-.887-7.583A13.684,13.684,0,0,1,449.07,177.9Z" transform="translate(-418.008 -163.546)"/><path class="f" d="M31.045,227.93a10.431,10.431,0,0,1-1.847,1.942,9.639,9.639,0,0,0,3.979,5.223c0-.052-.01-.1-.014-.15a.743.743,0,0,1,.174-.534c2.347-2.751,6.773-4.46,11.548-4.46s9.2,1.709,11.548,4.46a.743.743,0,0,1,.174.534c-.017.229-.041.436-.061.654a9.235,9.235,0,0,0,4.114-5.656,10.383,10.383,0,0,1-3.72-5.891c-3.995,3.147-10.064,5.161-16.852,5.161A31.952,31.952,0,0,1,31.045,227.93Z" transform="translate(-27.178 -208.555)"/></g></g></svg>
