<svg xmlns="http://www.w3.org/2000/svg" xmlns:xlink="http://www.w3.org/1999/xlink" width="50.2" height="50.2" viewBox="0 0 50.2 50.2"><defs><style>.a{fill:none;}.b{fill:#f2f2f2;}.c{fill:#fee4d0;}.d{fill:#d32f2f;}.e{fill:#303c42;}.f{opacity:0.1;}.g{fill:#fff;stroke:#fff;}.g,.h{stroke-width:0.4px;}.h{fill:#282828;stroke:#282828;}.i{fill:#e6e6e6;}.j{fill:#ffcf48;}.k{fill:url(#a);}</style><linearGradient id="a" x1="-95.897" y1="-59.283" x2="-95.867" y2="-59.232" gradientUnits="objectBoundingBox"><stop offset="0" stop-opacity="0.102"/><stop offset="1" stop-opacity="0"/></linearGradient></defs><g transform="translate(-82.593 -254.297)"><rect class="a" width="49.582" height="49.904" transform="translate(82.593 254.593)"/><g transform="translate(82.593 268.497)"><path d="M35.735,17.868A17.868,17.868,0,0,0,0,17.868,11.511,11.511,0,0,0,6.257,28.633c.823,5.768,3.332,7.1,11.611,7.1,8.048,0,10.648-1.248,11.543-6.616C33.6,26.955,35.735,23.181,35.735,17.868Z"/><path class="b" d="M450.842,149.648a8.873,8.873,0,0,1-2.046-10.181,16.092,16.092,0,0,1,2.046,10.181Z" transform="translate(-416.732 -129.733)"/><g transform="translate(1.489 2.978)"><circle class="b" cx="7.445" cy="7.445" r="7.445" transform="translate(8.934)"/><path class="b" d="M23.515,139.467A8.869,8.869,0,0,1,21.5,149.615a13.08,13.08,0,0,1-.168-2.015A16.259,16.259,0,0,1,23.515,139.467Z" transform="translate(-21.333 -132.711)"/></g><path class="c" d="M118.466,341.834c-8.717,0-9.84-1.416-10.32-7.415,2.143-2.321,6.061-3.752,10.32-3.752s8.176,1.432,10.32,3.752C128.305,340.419,127.183,341.834,118.466,341.834Z" transform="translate(-100.598 -307.588)"/><path class="d" d="M56.8,47.75c.02-.22.044-.429.061-.66a.75.75,0,0,0-.176-.539c-2.369-2.776-6.834-4.5-11.653-4.5s-9.284,1.725-11.653,4.5a.75.75,0,0,0-.176.539c0,.053.01.1.014.151A9.727,9.727,0,0,1,29.2,41.971a10.29,10.29,0,0,0,2.555-13.2A16.35,16.35,0,0,1,44.115,22a8.934,8.934,0,1,0,1.825,0A16.35,16.35,0,0,1,58.3,28.773a10.294,10.294,0,0,0,2.644,13.27A9.318,9.318,0,0,1,56.8,47.75Z" transform="translate(-27.16 -20.461)"/><g transform="translate(31.268 9.734)"><path class="b" d="M450.842,149.648a8.873,8.873,0,0,1-2.046-10.181,16.092,16.092,0,0,1,2.046,10.181Z" transform="translate(-448 -139.467)"/></g><g transform="translate(2.038 1.535)"><path class="d" d="M56.8,47.75c.02-.22.044-.429.061-.66a.75.75,0,0,0-.176-.539c-2.369-2.776-6.834-4.5-11.653-4.5s-9.284,1.725-11.653,4.5a.75.75,0,0,0-.176.539c0,.053.01.1.014.151A9.727,9.727,0,0,1,29.2,41.971a10.29,10.29,0,0,0,2.555-13.2A16.35,16.35,0,0,1,44.115,22a8.934,8.934,0,1,0,1.825,0A16.35,16.35,0,0,1,58.3,28.773a10.294,10.294,0,0,0,2.644,13.27A9.318,9.318,0,0,1,56.8,47.75Z" transform="translate(-29.198 -21.996)"/></g><g transform="translate(12.656 25.312)"><path class="e" d="M182.45,362.667c-.58,0-1.117.361-1.117,2.978s.537,2.978,1.117,2.978,1.117-.361,1.117-2.978S183.03,362.667,182.45,362.667Z" transform="translate(-181.333 -362.667)"/><path class="e" d="M299.784,368.622c.58,0,1.117-.361,1.117-2.978s-.537-2.978-1.117-2.978-1.117.361-1.117,2.978S299.2,368.622,299.784,368.622Z" transform="translate(-290.478 -362.666)"/></g><path class="f" d="M22.021,269.481a9.013,9.013,0,0,0,.748-.811c-.3-.107-.586-.228-.877-.344C21.921,268.72,21.963,269.106,22.021,269.481Z" transform="translate(-20.364 -249.599)"/><path class="f" d="M449.07,177.925a8.962,8.962,0,0,0,2.767,5.426,15.671,15.671,0,0,0-.895-7.652A13.807,13.807,0,0,1,449.07,177.925Z" transform="translate(-417.727 -163.436)"/><path class="f" d="M31.062,227.965a10.525,10.525,0,0,1-1.864,1.96,9.726,9.726,0,0,0,4.015,5.271c0-.052-.01-.1-.014-.151a.75.75,0,0,1,.176-.539c2.369-2.776,6.834-4.5,11.653-4.5s9.284,1.725,11.653,4.5a.75.75,0,0,1,.176.539c-.017.231-.041.44-.061.66A9.318,9.318,0,0,0,60.947,230a10.477,10.477,0,0,1-3.754-5.944c-4.031,3.175-10.155,5.208-17,5.208A32.241,32.241,0,0,1,31.062,227.965Z" transform="translate(-27.16 -208.415)"/></g><g transform="translate(93.174 254.497)"><rect class="a" width="39" height="39" transform="translate(0 0.096)"/><g transform="translate(0.454)"><path class="g" d="M265.482,246a19.482,19.482,0,1,0,19.482,19.482A19.5,19.5,0,0,0,265.482,246Z" transform="translate(-246 -246)"/><path class="h" d="M263.648,246A17.649,17.649,0,1,0,281.3,263.648,17.669,17.669,0,0,0,263.648,246Z" transform="translate(-244.492 -244.166)"/><path class="i" d="M263.011,246.833a16.148,16.148,0,0,1,13.067,25.677,5.625,5.625,0,0,0-.508-.3,25.433,25.433,0,0,0-25.117,0,5.228,5.228,0,0,0-.508.3,16.148,16.148,0,0,1,13.067-25.677Z" transform="translate(-243.855 -243.529)"/><path class="j" d="M261.261,268.991a16.129,16.129,0,0,1-12.14-5.52c.085-.051.171-.108.254-.15a23.982,23.982,0,0,1,23.773,0c.083.044.169.1.254.152A16.135,16.135,0,0,1,261.261,268.991Z" transform="translate(-242.105 -233.33)"/><circle class="h" cx="8.824" cy="8.824" r="8.824" transform="translate(10.332 6.246)"/><path class="k" d="M262.962,267.537a16.309,16.309,0,0,0,5.471-4.066c-.085-.051-.171-.108-.254-.152a26.827,26.827,0,0,0-11.886-3.152c-.228,0-.448.021-.674.028Z" transform="translate(-237.136 -233.33)"/><circle class="j" cx="7.354" cy="7.354" r="7.354" transform="translate(11.803 7.717)"/><path class="f" d="M262.926,250a7.269,7.269,0,0,1,.469,2.51,7.361,7.361,0,0,1-7.354,7.352,7.283,7.283,0,0,1-3.941-1.167,7.337,7.337,0,1,0,10.826-8.7Z" transform="translate(-239.827 -241.11)"/></g></g></g></svg>
