<svg xmlns="http://www.w3.org/2000/svg" width="20" height="20" viewBox="0 0 20 20"><defs><style>.a{fill:none;}.b{fill:#ffd553;}.c{fill:#e7633f;}.d{fill:#282828;}.e{fill:#1e1e1e;}</style></defs><rect class="a" width="20" height="20"/><g transform="translate(3.963 1.269)"><g transform="translate(0.478 0.572)"><path class="b" d="M93.59,96.131v12.916l-5.484-3.178-5.484,3.178V96.131Zm-2.5,7.146a1.146,1.146,0,1,0-1.144,1.082,1.115,1.115,0,0,0,1.144-1.082Zm-3.672-3.449a1.146,1.146,0,1,0-1.168,1.059h.024A1.116,1.116,0,0,0,87.414,99.828Z" transform="translate(-82.622 -92.316)"/><rect class="c" width="10.968" height="3.815" transform="translate(0)"/><g transform="translate(2.503 6.155)"><path class="b" d="M219.076,237.192a1.144,1.144,0,1,1-1.145,1.144c0-.008,0-.016,0-.024A1.144,1.144,0,0,1,219.076,237.192Z" transform="translate(-214.259 -233.52)"/><path class="b" d="M138.623,156.735a1.144,1.144,0,1,1-1.144,1.144h0A1.144,1.144,0,0,1,138.623,156.735Z" transform="translate(-137.479 -156.735)"/></g></g><path class="d" d="M83.6,0H72.634a.533.533,0,0,0-.477.549V17.3a.477.477,0,0,0,.238.412.569.569,0,0,0,.477,0l5.245-3.089,5.245,3.089a.4.4,0,0,0,.238.046.444.444,0,0,0,.238-.046.476.476,0,0,0,.238-.412V.549A.533.533,0,0,0,83.6,0Zm-.477.915V3.661H73.111V.915ZM78.357,13.684a.444.444,0,0,0-.477,0L73.111,16.5V4.577H83.125V16.5Z" transform="translate(-72.157)"/><path class="e" d="M128.655,149.006a1.621,1.621,0,1,1,1.621-1.621c0,.008,0,.016,0,.024A1.621,1.621,0,0,1,128.655,149.006Zm0-2.265a.668.668,0,1,0,.668.668h0A.668.668,0,0,0,128.655,146.741Z" transform="translate(-124.53 -139.436)"/><path class="e" d="M209.108,229.462a1.621,1.621,0,1,1,1.621-1.621h0a1.6,1.6,0,0,1-1.573,1.621Zm0-2.265a.668.668,0,1,0,.668.667c0-.008,0-.016,0-.023A.668.668,0,0,0,209.108,227.2Z" transform="translate(-201.311 -216.399)"/><path class="e" d="M137.529,158.8a.572.572,0,0,1-.334-.119.5.5,0,0,1,0-.691l5.2-5.2a.5.5,0,0,1,.691,0,.453.453,0,0,1,.027.64l-.027.028-5.222,5.222A.572.572,0,0,1,137.529,158.8Z" transform="translate(-134.095 -146.108)"/></g></svg>
