<svg xmlns="http://www.w3.org/2000/svg" width="20" height="20" viewBox="0 0 20 20"><defs><style>.a{fill:none;}.b{fill:#ffcf48;}.c{fill:#e7633f;}.d{fill:#cb502f;}.e{fill:#231f20;}</style></defs><rect class="a" width="20" height="20"/><g transform="translate(1.316 1.793)"><path class="b" d="M5,6.455h6.047L11.911,3H6.728Z" transform="translate(-4.568 -2.568)"/><path class="b" d="M31.911,6.455,30.183,3H25l.864,3.455Z" transform="translate(-15.929 -2.568)"/><path class="c" d="M5,11H20.55V23.094H5Z" transform="translate(-4.568 -7.113)"/><path class="b" d="M20.728,15.319l1.728.864V11H19v5.183Z" transform="translate(-12.521 -7.113)"/><path class="b" d="M22.455,6.455,21.592,3H19.864L19,6.455Z" transform="translate(-12.521 -2.568)"/><path class="d" d="M19.686,11v7.775a2.592,2.592,0,0,1-2.592,2.592H5v1.728H20.55V11Z" transform="translate(-4.568 -7.113)"/><path class="e" d="M20.37,5.694,18.643,2.239A.432.432,0,0,0,18.254,2H6.16a.432.432,0,0,0-.387.239L4.045,5.694A.769.769,0,0,0,4,5.887V17.982a.432.432,0,0,0,.432.432h15.55a.432.432,0,0,0,.432-.432V5.887a.769.769,0,0,0-.043-.193Zm-1.088-.239H14.271l-.648-2.592h4.363Zm-8.372.864H13.5v4.052L12.4,9.82a.432.432,0,0,0-.386,0l-1.1.552Zm1.822-3.455.648,2.592H11.032l.648-2.592Zm-6.307,0h4.363l-.648,2.592H5.131ZM19.55,17.55H4.864V6.319h5.183v4.751a.432.432,0,0,0,.625.387l1.535-.768,1.535.77a.432.432,0,0,0,.625-.389V6.319H19.55Z" transform="translate(-4 -2)"/></g></svg>
