<svg width="49" height="48" viewBox="0 0 49 48" fill="none" xmlns="http://www.w3.org/2000/svg">
<rect x="0.333252" width="48" height="48" rx="24" fill="#F6F6F6"/>
<g opacity="0.12">
<path d="M14.5512 20.092C14.3333 20.5198 14.3333 21.0799 14.3333 22.2V26H24.3333V19H17.5333C16.4131 19 15.8531 19 15.4253 19.218C15.0489 19.4097 14.743 19.7157 14.5512 20.092Z" fill="#212229"/>
<path d="M34.1153 32.908C34.3333 32.4802 34.3333 31.9201 34.3333 30.8V26H24.3333L24.3333 34L31.1333 34C32.2534 34 32.8134 34 33.2412 33.782C33.6176 33.5903 33.9235 33.2843 34.1153 32.908Z" fill="#212229"/>
</g>
<path d="M24.3333 19H19.8333C19.1702 19 18.5343 18.7366 18.0655 18.2678C17.5966 17.7989 17.3333 17.163 17.3333 16.5C17.3333 15.837 17.5966 15.2011 18.0655 14.7322C18.5343 14.2634 19.1702 14 19.8333 14C23.3333 14 24.3333 19 24.3333 19ZM24.3333 19H28.8333C29.4963 19 30.1322 18.7366 30.601 18.2678C31.0699 17.7989 31.3333 17.163 31.3333 16.5C31.3333 15.837 31.0699 15.2011 30.601 14.7322C30.1322 14.2634 29.4963 14 28.8333 14C25.3333 14 24.3333 19 24.3333 19ZM24.3333 19L24.3333 34M14.3333 26H34.3333M14.3333 22.2L14.3333 30.8C14.3333 31.9201 14.3333 32.4802 14.5512 32.908C14.743 33.2843 15.0489 33.5903 15.4253 33.782C15.8531 34 16.4131 34 17.5333 34L31.1333 34C32.2534 34 32.8134 34 33.2412 33.782C33.6176 33.5903 33.9235 33.2843 34.1153 32.908C34.3333 32.4802 34.3333 31.9201 34.3333 30.8V22.2C34.3333 21.0799 34.3333 20.5198 34.1153 20.092C33.9235 19.7157 33.6176 19.4097 33.2412 19.218C32.8134 19 32.2534 19 31.1333 19L17.5333 19C16.4131 19 15.8531 19 15.4253 19.218C15.0489 19.4097 14.743 19.7157 14.5512 20.092C14.3333 20.5198 14.3333 21.0799 14.3333 22.2Z" stroke="#212229" stroke-width="2" stroke-linecap="round" stroke-linejoin="round"/>
</svg>
