<svg width="49" height="48" viewBox="0 0 49 48" fill="none" xmlns="http://www.w3.org/2000/svg">
<rect x="0.666504" width="48" height="48" rx="24" fill="#F6F6F6"/>
<path opacity="0.12" d="M22.6665 24C25.1518 24 27.1665 21.9853 27.1665 19.5C27.1665 17.0147 25.1518 15 22.6665 15C20.1812 15 18.1665 17.0147 18.1665 19.5C18.1665 21.9853 20.1812 24 22.6665 24Z" fill="#212229"/>
<path d="M24.6665 27.5H20.1665C18.7709 27.5 18.0732 27.5 17.5054 27.6722C16.227 28.06 15.2265 29.0605 14.8387 30.3389C14.6665 30.9067 14.6665 31.6044 14.6665 33M28.6665 30L31.6665 33M31.6665 33L34.6665 30M31.6665 33V27M27.1665 19.5C27.1665 21.9853 25.1518 24 22.6665 24C20.1812 24 18.1665 21.9853 18.1665 19.5C18.1665 17.0147 20.1812 15 22.6665 15C25.1518 15 27.1665 17.0147 27.1665 19.5Z" stroke="#212229" stroke-width="2" stroke-linecap="round" stroke-linejoin="round"/>
</svg>
