<svg width="46" height="48" viewBox="0 0 46 48" fill="none" xmlns="http://www.w3.org/2000/svg">
<g id="Layer_1">
<path id="Vector" d="M20.0566 17.232V12.936C20.0566 9.88802 22.5286 7.41602 25.5766 7.41602C28.6246 7.41602 31.0966 9.88802 31.0966 12.936V17.232" stroke="#0D0D1E" stroke-miterlimit="10" stroke-linejoin="round"/>
<path id="Vector_2" d="M25.6006 17.232V12.936C25.6006 9.88802 28.0726 7.41602 31.1206 7.41602C34.1686 7.41602 36.6406 9.88802 36.6406 12.936V17.232" stroke="#0D0D1E" stroke-miterlimit="10" stroke-linejoin="round"/>
<path id="Vector_3" d="M5.6084 28.8975V26.5455C5.6084 24.8655 6.9524 23.5215 8.6324 23.5215C10.3124 23.5215 11.6564 24.8655 11.6564 26.5455V28.8975" stroke="#0D0D1E" stroke-miterlimit="10" stroke-linejoin="round"/>
<path id="Vector_4" d="M14.3923 25.2015C13.8883 24.2175 12.8802 23.5215 11.6802 23.5215C10.0002 23.5215 8.65625 24.8655 8.65625 26.5455V28.8255V28.8975" stroke="#0D0D1E" stroke-miterlimit="10" stroke-linejoin="round"/>
<path id="Vector_5" d="M2.41661 20.4004C3.30461 20.4004 4.00061 19.6804 4.00061 18.8164C4.00061 17.9284 3.28061 17.2324 2.41661 17.2324C1.52861 17.2324 0.832614 17.9524 0.832614 18.8164C0.808614 19.7044 1.52861 20.4004 2.41661 20.4004Z" stroke="#0D0D1E" stroke-miterlimit="10" stroke-linejoin="round"/>
<path id="Vector_6" d="M42.1131 4.80078L39.4971 7.41678L42.1131 10.0328L44.7291 7.41678L42.1131 4.80078Z" stroke="#0D0D1E" stroke-miterlimit="10" stroke-linejoin="round"/>
<g id="Group">
<path id="Vector_7" d="M6.83203 3.1448V0.216797" stroke="#0D0D1E" stroke-miterlimit="10" stroke-linejoin="round"/>
<path id="Vector_8" d="M9.16016 5.44922H12.0882" stroke="#0D0D1E" stroke-miterlimit="10" stroke-linejoin="round"/>
<path id="Vector_9" d="M6.83203 7.77734V10.7053" stroke="#0D0D1E" stroke-miterlimit="10" stroke-linejoin="round"/>
<path id="Vector_10" d="M4.50417 5.44922H1.57617" stroke="#0D0D1E" stroke-miterlimit="10" stroke-linejoin="round"/>
</g>
<g id="Vector_11">
<path d="M14.6087 46.6322H14.3927H1.88867V28.8242H8.65667H14.3927" fill="#E7633F"/>
<path d="M14.6087 46.6322H14.3927H1.88867V28.8242H8.65667H14.3927" stroke="#0D0D1E" stroke-miterlimit="10" stroke-linejoin="round"/>
</g>
<path id="Vector_12" d="M18.3764 46.6328H14.6084" stroke="#0D0D1E" stroke-miterlimit="10" stroke-linejoin="round"/>
<g id="Vector_13">
<path d="M18.0406 16.6816H35.7766V46.6336H14.3926V20.3296" fill="#FFCF48"/>
<path d="M18.0406 16.6816H35.7766V46.6336H14.3926V20.3296" stroke="#0D0D1E" stroke-miterlimit="10" stroke-linejoin="round"/>
</g>
<path id="Vector_14" d="M24.872 39.576C24.464 39.576 24.128 39.456 23.84 39.192C23.576 38.928 23.432 38.616 23.432 38.232V27.024L23.744 27.504L22.112 28.704C21.896 28.872 21.656 28.944 21.344 28.944C20.984 28.944 20.672 28.8 20.408 28.536C20.144 28.272 20 27.96 20 27.576C20 27.096 20.24 26.712 20.696 26.424L23.888 24.288C24.032 24.192 24.2 24.12 24.392 24.072C24.584 24.024 24.752 24 24.92 24C25.352 24 25.688 24.12 25.952 24.384C26.192 24.648 26.336 24.96 26.336 25.344V38.184C26.336 38.568 26.192 38.88 25.928 39.144C25.664 39.456 25.304 39.576 24.872 39.576Z" fill="#202020"/>
<g id="Vector_15">
<path d="M42.1133 39.9136V46.6336H35.7773V16.6816H42.1133V35.1616" fill="#E7633F"/>
<path d="M42.1133 39.9136V46.6336H35.7773V16.6816H42.1133V35.1616" stroke="#0D0D1E" stroke-miterlimit="10" stroke-linejoin="round"/>
</g>
<path id="Vector_16" d="M14.3927 13.0098L15.6887 15.3858L18.0407 16.6578L15.6887 17.9538L14.3927 20.3058L13.0967 17.9538L10.7207 16.6818L13.0727 15.4098L14.3927 13.0098Z" stroke="#0D0D1E" stroke-miterlimit="10" stroke-linejoin="round"/>
</g>
</svg>
