<svg width="248" height="249" viewBox="0 0 248 249" fill="none" xmlns="http://www.w3.org/2000/svg">
<g id="Group">
<g id="XMLID_00000097458729146236109020000011127307374808463262_">
<g id="Group_2">
<path id="Vector" d="M246.913 213.967C247.193 216.996 243.318 218.435 240.311 218.867C239.667 218.962 239.028 219.051 238.379 219.147C230.707 220.244 223.046 221.342 215.368 222.434C214.876 222.507 214.394 222.574 213.907 222.647C213.442 219.931 212.972 217.209 212.507 214.471C221.304 213.233 230.124 211.979 238.922 210.724C238.961 210.719 238.995 210.719 239.028 210.707C242.215 210.271 246.611 210.786 246.913 213.967Z" fill="#FFCF48"/>
<path id="Vector_2" d="M232.427 158.346C238.212 156.509 240.586 146.642 236.459 141.579C232.332 136.517 223.344 139.104 221.731 145.824C220.118 152.544 226.637 160.182 232.427 158.346ZM228.714 115.741C242.048 140.347 246.612 169.82 240.429 197.142C239.617 197.126 238.817 197.182 238.077 197.282C230.596 198.352 223.103 199.41 215.616 200.474C218.192 190.35 215.358 179.508 212.149 169.478C209.12 160.031 205.597 150.422 198.911 143.097C198.329 142.458 197.735 141.848 197.136 141.266C197.253 133.868 198.149 126.493 199.762 119.28C209.17 116.704 218.959 115.506 228.714 115.741Z" fill="white"/>
<path id="Vector_3" d="M238.264 205.596C238.516 207.293 238.768 209 239.026 210.697C238.987 210.703 238.953 210.703 238.919 210.714C230.122 211.968 221.302 213.223 212.504 214.46C212.219 212.786 211.933 211.095 211.647 209.404C220.518 208.132 229.394 206.873 238.264 205.596Z" fill="white"/>
<path id="Vector_4" d="M232.08 236.817C231.604 238.676 231.117 240.563 230.669 242.338C222.829 238.486 216.994 230.959 215.364 222.441C223.042 221.349 230.708 220.252 238.375 219.154C240.049 227.022 240.234 231.441 236.062 243.738C234.113 241.879 232.719 239.443 232.08 236.817Z" fill="white"/>
<path id="Vector_5" d="M236.467 141.572C240.594 146.635 238.22 156.502 232.435 158.339C226.639 160.176 220.121 152.537 221.745 145.817C223.352 139.097 232.34 136.51 236.467 141.572Z" fill="#FFCF48"/>
<path id="Vector_6" d="M228.719 115.744C218.963 115.509 209.175 116.707 199.767 119.289C201.984 109.366 205.585 99.7675 210.474 90.8467C217.687 98.2499 223.796 106.672 228.719 115.744Z" fill="#FFCF48"/>
<path id="Vector_7" d="M238.261 205.598C229.391 206.875 220.515 208.135 211.644 209.406C211.544 208.83 211.448 208.247 211.348 207.67V207.665C213.319 206.606 214.433 204.361 215.122 202.205C215.307 201.628 215.475 201.051 215.615 200.469C223.096 199.399 230.589 198.341 238.076 197.277C238.816 197.176 239.616 197.12 240.428 197.137C243.133 197.182 245.849 198.038 246.073 200.525C246.353 203.554 242.484 204.994 239.471 205.43C239.062 205.481 238.664 205.542 238.261 205.598Z" fill="#FFCF48"/>
<path id="Vector_8" d="M188.875 81.9194C189.379 83.577 189.754 85.313 189.597 87.049C189.463 88.5218 188.965 89.8994 188.276 91.2098C188.489 92.6322 188.612 94.0658 188.55 95.5106C188.433 98.165 187.693 100.752 186.758 103.244C185.504 106.599 183.891 109.847 181.718 112.697C180.027 114.915 177.977 116.897 175.631 118.398C174.847 115.441 174.13 112.574 173.755 110.681C174.707 110.827 175.67 110.955 176.622 110.804C178.28 110.547 179.736 109.427 180.643 108.015C181.556 106.599 181.959 104.907 182.082 103.233C182.183 101.895 182.099 100.506 181.528 99.285C180.951 98.0698 179.831 97.0562 178.493 96.8994C176.891 96.7202 175.418 97.7618 174.265 98.893C173.223 99.9066 172.271 101.105 171.778 102.455C171.218 101.721 170.821 100.859 170.485 99.9962C169.124 96.4122 168.777 92.4586 169.471 88.6898C169.331 88.673 169.191 88.6506 169.051 88.6282C165.461 87.9562 162.331 85.6154 160.321 82.5634C159.105 83.2634 157.75 83.7338 156.373 84.025C154.362 84.4506 152.285 84.529 150.229 84.5402C147.592 84.557 144.887 84.445 142.418 83.5882C142.272 84.6186 142.121 85.6434 141.975 86.6738C139.987 85.817 138.184 84.5402 136.93 82.793C135.395 80.6538 134.818 77.7306 135.854 75.3114C136.118 74.6954 136.487 74.113 137.008 73.6818C137.719 73.0882 138.66 72.8418 139.573 72.685C140.015 72.6066 140.469 72.5506 140.922 72.5282C141.734 70.2154 143.358 68.1882 145.346 66.721C147.782 64.9067 150.728 63.8763 153.713 63.3275C156.748 62.7675 159.906 62.6835 162.885 63.4619C165.87 64.2403 168.67 65.937 170.445 68.4514C170.664 68.765 170.865 69.0898 171.05 69.4146C171.61 69.381 172.17 69.3978 172.725 69.4482C174.573 69.605 176.359 70.1426 178.112 70.7306C179.965 71.3522 181.825 72.0634 183.398 73.2226C186.204 75.2834 187.861 78.5762 188.875 81.9194Z" fill="#0D0D1E"/>
<path id="Vector_9" d="M178.743 160.92C178.48 155.18 177.92 149.356 175.221 144.332C174.101 142.255 172.494 140.261 170.254 139.533C169.61 139.32 168.876 139.231 168.26 139.528C167.487 139.892 167.09 140.799 167.078 141.656C167.078 141.779 167.078 141.896 167.095 142.014C166.003 140.463 164.844 138.945 163.668 137.45C165.925 137.528 168.193 137.276 170.349 136.61C174.274 135.389 177.102 133.799 178.956 130.131C185.973 132.88 191.909 136.134 197.139 141.258C197.738 141.84 198.332 142.451 198.914 143.089C205.606 150.42 209.123 160.029 212.153 169.471C215.362 179.5 218.195 190.342 215.619 200.467C215.479 201.049 215.317 201.626 215.126 202.203C214.432 204.359 213.318 206.604 211.352 207.663V207.668C211.246 207.73 211.128 207.786 211.01 207.842C209.062 208.704 206.782 208.256 204.794 207.484C199.11 205.266 194.72 200.719 190.52 196.295C182.204 187.542 173.877 178.778 165.561 170.025C166.373 169.163 167.218 168.345 168.109 167.567C171.256 164.778 174.868 162.532 178.743 160.92Z" fill="#FFCF48"/>
<path id="Vector_10" d="M164.101 93.9906C164.336 94.3042 164.56 94.7746 164.28 95.049C163.995 95.329 161.604 94.3322 160.825 93.9514C160.041 93.5706 159.296 93.0554 158.815 92.333C158.557 91.9522 158.389 91.437 158.63 91.0506C158.854 90.6978 159.341 90.6138 159.761 90.6474C160.674 90.7258 161.497 91.2186 162.192 91.8178C162.908 92.4506 163.524 93.2122 164.101 93.9906Z" fill="#0D0D1E"/>
<path id="Vector_11" d="M157.616 129.07C160.92 128.112 163.977 126.382 166.985 124.68L167.018 124.719C164.145 127.407 161.362 130.207 158.708 133.108C158.344 131.758 157.98 130.409 157.616 129.07Z" fill="#0D0D1E"/>
<path id="Vector_12" d="M161.619 99.7468C162.622 100.531 163.199 101.724 163.551 102.972C162.812 103.689 161.95 104.283 160.987 104.664C159.984 105.061 158.87 105.207 157.8 105.067C158.304 104.148 158.595 103.118 158.64 102.076C158.696 100.962 158.467 99.842 158.007 98.8284C159.301 98.6772 160.623 98.9572 161.619 99.7468Z" fill="white"/>
<path id="Vector_13" d="M158.644 102.075C158.599 103.117 158.308 104.147 157.804 105.066C157.507 105.021 157.221 104.948 156.93 104.864C155.401 104.371 154.181 103.246 153.061 102.087C153.917 100.894 155.015 99.8746 156.348 99.2922C156.869 99.057 157.44 98.9002 158.017 98.833C158.476 99.841 158.7 100.961 158.644 102.075Z" fill="#0D0D1E"/>
<path id="Vector_14" d="M156.73 135.127C156.736 135.127 156.736 135.121 156.736 135.121C157.1 134.528 157.766 134.169 158.449 134.04C158.612 134.007 158.769 133.996 158.931 133.984C159.513 133.951 160.113 134.068 160.639 134.337C161.574 134.796 162.252 135.636 162.89 136.465C163.148 136.79 163.405 137.126 163.663 137.456C164.839 138.952 165.998 140.469 167.09 142.02C167.073 141.903 167.073 141.785 167.073 141.662C167.09 140.805 167.488 139.904 168.255 139.534C168.871 139.237 169.605 139.332 170.249 139.54C172.494 140.262 174.096 142.256 175.216 144.339C177.909 149.362 178.469 155.186 178.738 160.926C174.857 162.539 171.245 164.79 168.098 167.568C166.704 165.916 165.113 164.421 163.389 163.116C162.347 162.332 161.249 161.604 160.225 160.781C155.98 157.365 153.309 152.414 150.777 147.587C150.453 146.954 150.117 146.31 149.993 145.599C149.876 144.888 149.999 144.104 150.497 143.588C151.097 142.967 152.093 142.877 152.911 143.163C152.945 143.168 152.984 143.185 153.012 143.202C152.497 142.289 152.015 141.354 151.556 140.413C151.309 139.881 151.052 139.332 151.035 138.744C151.018 138.162 151.298 137.529 151.836 137.305C152.239 137.132 152.709 137.21 153.129 137.344C153.174 137.361 153.23 137.378 153.275 137.389C152.911 136.796 152.564 136.168 152.62 135.474C152.676 134.718 153.275 134.035 154.02 133.884C155.05 133.671 155.98 134.365 156.73 135.127Z" fill="white"/>
<path id="Vector_15" d="M152.633 135.467C152.577 136.161 152.919 136.788 153.288 137.382C153.243 137.365 153.187 137.348 153.143 137.337C152.723 137.203 152.252 137.124 151.849 137.298C151.311 137.522 151.031 138.155 151.048 138.737C151.065 139.32 151.323 139.874 151.569 140.406C152.028 141.347 152.51 142.282 153.025 143.195C152.991 143.178 152.952 143.161 152.924 143.156C152.107 142.876 151.11 142.96 150.511 143.581C150.012 144.096 149.889 144.88 150.007 145.592C150.13 146.303 150.466 146.947 150.791 147.58C153.322 152.407 155.993 157.352 160.238 160.773C161.257 161.596 162.355 162.324 163.402 163.108C165.132 164.419 166.717 165.914 168.111 167.56C167.221 168.339 166.375 169.156 165.563 170.019C173.879 178.772 182.207 187.536 190.523 196.288C194.723 200.712 199.113 205.26 204.797 207.477C206.785 208.25 209.064 208.698 211.013 207.836C211.131 207.78 211.248 207.729 211.354 207.662C211.455 208.239 211.55 208.821 211.651 209.398C211.937 211.089 212.222 212.78 212.508 214.455C212.973 217.199 213.443 219.915 213.908 222.631C215.33 230.947 216.758 239.224 218.181 247.764H148.377C139.512 174.762 121.844 103.972 95.8994 35.1819C96.8122 35.0363 97.753 34.8683 98.7274 34.7003C102.955 33.9667 107.699 33.0707 111.971 32.3259C113.254 32.1019 114.503 31.8835 115.679 31.6875C123.787 57.3579 131.907 83.0059 140.016 108.676C140.016 110.872 140.089 113.067 140.268 115.262C140.61 119.563 141.523 124.177 144.731 127.061C147.716 129.727 152.129 130.287 156.049 129.469C156.581 129.363 157.107 129.228 157.623 129.072C157.987 130.41 158.356 131.76 158.715 133.104C158.793 133.4 158.871 133.686 158.95 133.983C158.787 133.988 158.631 134.005 158.468 134.039C157.785 134.173 157.119 134.532 156.755 135.12C156.755 135.12 156.755 135.125 156.749 135.125C155.993 134.364 155.069 133.669 154.044 133.876C153.283 134.028 152.683 134.711 152.633 135.467Z" fill="#FFCF48"/>
<path id="Vector_16" d="M144.646 99.1585C144.808 99.8529 144.943 100.553 144.887 101.258C144.831 101.975 144.59 102.653 144.243 103.286C143.604 103.151 142.988 102.905 142.423 102.574C141.527 102.042 141.045 101.326 140.446 100.474C140.961 99.4553 141.381 98.5369 142.266 97.8033C142.77 97.3833 143.358 97.0249 144.013 96.9297C144.265 97.6633 144.478 98.4137 144.646 99.1585Z" fill="#0D0D1E"/>
<path id="Vector_17" d="M145.956 97.3967C147.026 97.9567 147.928 98.8135 148.572 99.8271C148.258 100.779 147.967 101.737 147.681 102.694C146.97 103.153 146.147 103.417 145.307 103.428C144.948 103.428 144.59 103.389 144.237 103.31C144.59 102.678 144.831 102 144.881 101.283C144.937 100.572 144.803 99.8719 144.64 99.1831C144.467 98.4327 144.26 97.6879 144.002 96.9543C144.041 96.9487 144.086 96.9375 144.125 96.9375C144.764 96.8815 145.396 97.0999 145.956 97.3967Z" fill="white"/>
<path id="Vector_18" d="M141.762 93.0551C142.893 91.1007 144.797 89.6223 146.97 89.0063C147.149 88.9615 147.345 88.9111 147.524 88.9671C147.804 89.0623 147.95 89.3871 147.922 89.6839C147.883 89.9807 147.709 90.2383 147.519 90.4567C146.903 91.1679 143.268 93.0551 142.44 93.4863C142.305 93.5591 142.165 93.6263 142.014 93.6263C141.868 93.6263 141.7 93.5423 141.672 93.3911C141.644 93.2679 141.7 93.1559 141.762 93.0551Z" fill="#0D0D1E"/>
<path id="Vector_19" d="M140.021 108.672C140.037 101.319 140.945 93.9665 141.975 86.6641C142.121 85.6337 142.272 84.6089 142.417 83.5785C144.887 84.4353 147.586 84.5417 150.229 84.5305C152.284 84.5249 154.362 84.4465 156.372 84.0153C157.75 83.7185 159.105 83.2537 160.321 82.5537C162.331 85.6057 165.461 87.9521 169.051 88.6185C169.191 88.6409 169.331 88.6633 169.471 88.6801C168.777 92.4489 169.118 96.4081 170.485 99.9865C170.821 100.849 171.218 101.717 171.778 102.445C172.271 101.095 173.217 99.8969 174.265 98.8833C175.418 97.7521 176.891 96.7105 178.492 96.8897C179.831 97.0465 180.951 98.0601 181.528 99.2753C182.099 100.496 182.183 101.885 182.082 103.223C181.959 104.898 181.55 106.589 180.643 108.006C179.741 109.417 178.285 110.537 176.622 110.794C175.67 110.94 174.707 110.817 173.755 110.671C174.13 112.564 174.847 115.431 175.631 118.388C177.025 123.607 178.638 129.118 178.957 130.126C177.104 133.794 174.276 135.384 170.35 136.605C168.194 137.277 165.926 137.523 163.669 137.445C163.412 137.12 163.154 136.784 162.897 136.454C162.258 135.63 161.58 134.785 160.645 134.326C160.125 134.062 159.525 133.945 158.937 133.973C158.859 133.676 158.781 133.39 158.702 133.094C161.356 130.198 164.14 127.393 167.012 124.705L166.979 124.666C163.972 126.374 160.914 128.098 157.61 129.056C157.095 129.213 156.569 129.342 156.037 129.454C152.122 130.271 147.704 129.711 144.719 127.046C141.51 124.162 140.597 119.547 140.256 115.246C140.088 113.062 140.021 110.867 140.021 108.672ZM142.423 102.59C142.994 102.915 143.605 103.167 144.243 103.302C144.596 103.38 144.954 103.419 145.312 103.419C146.152 103.414 146.981 103.145 147.687 102.686C147.967 101.728 148.264 100.77 148.577 99.8185C147.933 98.8049 147.026 97.9481 145.962 97.3881C145.402 97.0913 144.769 96.8729 144.142 96.9289C144.103 96.9289 144.058 96.9345 144.019 96.9457C143.364 97.0409 142.781 97.3993 142.272 97.8193C141.381 98.5529 140.961 99.4713 140.452 100.49C141.045 101.342 141.533 102.058 142.423 102.59ZM141.672 93.3673C141.706 93.5129 141.869 93.6025 142.014 93.6025C142.171 93.6025 142.311 93.5297 142.44 93.4625C143.263 93.0369 146.903 91.1441 147.519 90.4329C147.715 90.2145 147.883 89.9569 147.922 89.6601C147.956 89.3633 147.805 89.0385 147.525 88.9433C147.345 88.8873 147.149 88.9377 146.97 88.9825C144.797 89.5985 142.888 91.0769 141.762 93.0313C141.7 93.1377 141.644 93.2497 141.672 93.3673ZM164.285 95.0585C164.565 94.7841 164.341 94.3137 164.106 94.0001C163.529 93.2217 162.913 92.4601 162.191 91.8217C161.497 91.2225 160.673 90.7297 159.761 90.6513C159.341 90.6177 158.859 90.7073 158.629 91.0545C158.388 91.4465 158.557 91.9561 158.814 92.3369C159.296 93.0593 160.035 93.5745 160.825 93.9553C161.609 94.3417 164 95.3385 164.285 95.0585ZM163.552 102.955C163.199 101.706 162.628 100.518 161.62 99.7289C160.623 98.9337 159.301 98.6537 158.013 98.8105C157.437 98.8833 156.871 99.0345 156.345 99.2697C155.012 99.8521 153.914 100.871 153.057 102.064C154.177 103.223 155.404 104.354 156.927 104.842C157.213 104.926 157.504 104.998 157.801 105.043C158.87 105.183 159.979 105.038 160.987 104.64C161.95 104.265 162.813 103.671 163.552 102.955Z" fill="white"/>
<path id="Vector_20" d="M113.505 16.0663C114.278 16.6711 114.345 17.7855 114.317 18.7711C114.272 20.0255 114.16 21.2687 113.992 22.5119L112.318 22.2879C111.187 22.6295 106.136 25.1551 104.562 25.5975C104.243 25.6927 103.907 25.7767 103.588 25.7039C102.764 25.5303 102.445 24.5223 102.456 23.6767C102.496 21.5599 103.666 19.5663 105.301 18.2167C106.32 17.3823 107.496 16.7831 108.745 16.3575C109.507 16.0999 110.296 15.9039 111.092 15.7639C111.327 15.7191 111.568 15.6855 111.808 15.6799C112.413 15.6239 113.029 15.6967 113.505 16.0663Z" fill="white"/>
<path id="Vector_21" d="M110.975 5.02035C112.135 8.40836 112.017 12.0708 111.799 15.6492C111.558 15.6548 111.317 15.6884 111.082 15.7332C110.287 15.8732 109.503 16.0692 108.735 16.3268L108.243 15.0108C108.097 15.0668 107.929 15.0892 107.767 15.0836C107.072 15.078 106.451 14.6244 106.053 14.042C106.053 14.042 106.053 14.042 106.053 14.0364C106.019 13.9916 105.991 13.9524 105.969 13.902C105.594 13.258 105.454 12.502 105.364 11.7628C105.028 9.10836 105.151 6.30275 106.339 3.91155C106.535 3.51955 106.775 3.12755 107.095 2.83635C107.251 2.69075 107.419 2.57315 107.627 2.48355C108.36 2.16995 109.228 2.46115 109.805 2.99875C110.382 3.53075 110.718 4.27555 110.975 5.02035Z" fill="white"/>
<path id="Vector_22" d="M102.349 17.0614C102.993 17.515 103.922 17.3582 104.544 16.8766C105.166 16.395 105.535 15.6558 105.793 14.9166C105.894 14.6366 105.978 14.3566 106.067 14.0654C106.465 14.6478 107.086 15.1014 107.781 15.107C107.943 15.1126 108.106 15.0902 108.257 15.0342L108.75 16.3502C107.501 16.7758 106.33 17.3806 105.306 18.2094C103.67 19.559 102.5 21.5526 102.461 23.6694C102.444 24.5094 102.763 25.523 103.592 25.6966C103.911 25.7694 104.247 25.6798 104.566 25.5902C106.14 25.1478 111.191 22.6222 112.322 22.2806L113.997 22.5046C113.577 25.8142 112.787 29.0902 111.981 32.3382C107.708 33.0886 102.965 33.979 98.7368 34.7126C98.0593 32.103 97.3648 29.5046 96.4241 26.979C95.6233 24.851 94.6489 22.7902 93.8145 20.679C94.1561 21.1158 94.5929 21.4798 95.1305 21.5414C95.9145 21.6366 96.6313 21.043 97.0401 20.3654C97.0569 20.3318 97.0736 20.3094 97.0848 20.2814C97.2976 20.8246 97.5888 21.4238 98.1544 21.5806C98.7088 21.7374 99.2856 21.3958 99.7056 21.0038C100.926 19.867 101.565 18.299 101.957 16.6526C102.052 16.8094 102.192 16.9494 102.349 17.0614Z" fill="white"/>
<path id="Vector_23" d="M104.537 16.8586C103.916 17.3402 102.986 17.497 102.342 17.0434C102.185 16.937 102.045 16.797 101.939 16.6402V16.6346C101.816 16.4778 101.721 16.3154 101.625 16.153C101.312 15.5762 101.065 14.977 100.875 14.3442C100.573 13.2914 100.455 12.1938 100.41 11.0962C100.287 8.43063 100.545 5.68663 101.721 3.30102C101.799 3.14422 101.877 2.99862 101.973 2.84742C102.292 2.29302 102.706 1.79462 103.283 1.54822C103.748 1.34662 104.28 1.32982 104.778 1.41382C105.697 1.57062 106.525 2.10822 107.097 2.83622C106.777 3.12182 106.537 3.51942 106.341 3.91142C105.159 6.30263 105.03 9.10823 105.366 11.7626C105.461 12.5018 105.601 13.2578 105.971 13.9018C105.993 13.9466 106.027 13.9858 106.055 14.0362C106.055 14.0418 106.055 14.0418 106.055 14.0418C105.971 14.3274 105.881 14.613 105.781 14.893C105.529 15.6378 105.165 16.377 104.537 16.8586Z" fill="white"/>
<path id="Vector_24" d="M101.941 16.6367V16.6423C101.549 18.2943 100.91 19.8567 99.6896 20.9935C99.2696 21.3855 98.6928 21.7271 98.1384 21.5703C97.5784 21.4135 97.2816 20.8143 97.0688 20.2711C97.0688 20.2543 97.0632 20.2375 97.052 20.2263C95.3216 15.6455 94.756 10.5943 95.7304 5.79512C95.7472 5.73352 95.7528 5.66072 95.7696 5.59912C95.9152 4.88791 96.1224 4.19911 96.5088 3.58871C97.2928 2.36791 98.8664 1.70151 100.294 1.99271C100.916 2.12711 101.493 2.41831 101.969 2.84951C101.874 2.99511 101.795 3.14631 101.717 3.30311C100.541 5.68872 100.283 8.43272 100.406 11.0983C100.451 12.1959 100.569 13.2935 100.871 14.3463C101.056 14.9791 101.308 15.5783 101.622 16.1551C101.722 16.3175 101.818 16.4799 101.941 16.6367Z" fill="white"/>
<path id="Vector_25" d="M95.2842 5.42659C95.4466 5.47139 95.609 5.53299 95.777 5.60019C95.7602 5.66179 95.7546 5.73459 95.7378 5.79619C94.7634 10.5954 95.3346 15.6466 97.0594 20.2274C97.065 20.2442 97.0762 20.261 97.0762 20.2722C97.0594 20.3058 97.0426 20.3282 97.0314 20.3562C96.6282 21.0338 95.9114 21.6274 95.1218 21.5322C94.5842 21.4706 94.1474 21.1066 93.8058 20.6698C93.8058 20.6642 93.8002 20.6642 93.8002 20.6642C93.6826 20.5242 93.5762 20.3674 93.4754 20.2106C91.7226 17.4946 91.129 14.1122 91.4986 10.9034C91.717 8.9658 92.3498 6.9554 93.8562 5.73459C94.1082 5.53299 94.3938 5.35379 94.7074 5.33139C94.9034 5.31459 95.0994 5.36499 95.2842 5.42659Z" fill="white"/>
</g>
<g id="Group_3">
<path id="Vector_26" d="M166.987 124.672C163.98 126.38 160.922 128.104 157.618 129.062C157.103 129.219 156.577 129.348 156.045 129.46C152.13 130.277 147.712 129.717 144.727 127.052C141.518 124.168 140.605 119.553 140.264 115.252C140.085 113.057 140.012 110.862 140.012 108.667C140.029 101.314 140.936 93.9612 141.966 86.6588C142.112 85.6284 142.263 84.6036 142.409 83.5732" stroke="#0D0D1E" stroke-width="1.68" stroke-miterlimit="10" stroke-linecap="round" stroke-linejoin="round"/>
<path id="Vector_27" d="M145.905 108.699C146.476 106.688 147.064 104.695 147.68 102.701C147.96 101.743 148.257 100.786 148.571 99.8337C149.215 97.7561 149.887 95.6897 150.581 93.6289" stroke="#0D0D1E" stroke-width="1.68" stroke-miterlimit="10" stroke-linecap="round" stroke-linejoin="round"/>
<path id="Vector_28" d="M152.552 110.781C150.362 110.025 148.145 109.325 145.91 108.692" stroke="#0D0D1E" stroke-width="1.68" stroke-miterlimit="10" stroke-linecap="round" stroke-linejoin="round"/>
<path id="Vector_29" d="M163.547 102.974C163.194 101.725 162.623 100.538 161.615 99.7483C160.618 98.9531 159.297 98.6731 158.009 98.8299C157.432 98.9027 156.866 99.0539 156.34 99.2891C155.007 99.8715 153.91 100.891 153.053 102.083" stroke="#0D0D1E" stroke-width="1.68" stroke-miterlimit="10" stroke-linecap="round" stroke-linejoin="round"/>
<path id="Vector_30" d="M163.547 102.972C162.808 103.689 161.946 104.282 160.982 104.663C159.98 105.061 158.866 105.206 157.796 105.066C157.499 105.021 157.214 104.949 156.922 104.865C155.394 104.372 154.173 103.246 153.053 102.087" stroke="#0D0D1E" stroke-width="1.68" stroke-miterlimit="10" stroke-linecap="round" stroke-linejoin="round"/>
<path id="Vector_31" d="M158.012 98.8301C158.471 99.8437 158.695 100.964 158.645 102.078C158.6 103.12 158.309 104.15 157.805 105.068" stroke="#0D0D1E" stroke-width="1.68" stroke-miterlimit="10" stroke-linecap="round" stroke-linejoin="round"/>
<path id="Vector_32" d="M160.824 93.9563C160.04 93.5755 159.295 93.0603 158.814 92.3379C158.556 91.9571 158.388 91.4419 158.629 91.0555C158.853 90.7027 159.34 90.6187 159.76 90.6523C160.673 90.7307 161.496 91.2235 162.191 91.8227C162.913 92.4611 163.529 93.2227 164.106 94.0011C164.341 94.3147 164.565 94.7851 164.285 95.0595C163.994 95.3339 161.603 94.3371 160.824 93.9563Z" stroke="#0D0D1E" stroke-width="1.68" stroke-miterlimit="10" stroke-linecap="round" stroke-linejoin="round"/>
<path id="Vector_33" d="M147.518 90.4509C147.714 90.2325 147.882 89.9749 147.921 89.6781C147.954 89.3813 147.803 89.0565 147.523 88.9613C147.344 88.9053 147.148 88.9557 146.969 89.0005C144.796 89.6165 142.886 91.0949 141.761 93.0493C141.699 93.1501 141.643 93.2677 141.666 93.3853C141.699 93.5309 141.862 93.6205 142.007 93.6205C142.164 93.6205 142.304 93.5477 142.433 93.4805C143.267 93.0549 146.902 91.1621 147.518 90.4509Z" stroke="#0D0D1E" stroke-width="1.68" stroke-miterlimit="10" stroke-linecap="round" stroke-linejoin="round"/>
<path id="Vector_34" d="M140.438 100.505C140.954 99.4858 141.374 98.5674 142.258 97.8338C142.762 97.4138 143.35 97.0554 144.006 96.9602C144.045 96.9546 144.09 96.9434 144.129 96.9434C144.762 96.8874 145.389 97.1058 145.949 97.4026C147.018 97.9626 147.92 98.8194 148.564 99.833" stroke="#0D0D1E" stroke-width="1.68" stroke-miterlimit="10" stroke-linecap="round" stroke-linejoin="round"/>
<path id="Vector_35" d="M140.438 100.489C141.038 101.346 141.519 102.063 142.415 102.589C142.986 102.914 143.597 103.166 144.235 103.3C144.588 103.379 144.946 103.418 145.305 103.418C146.145 103.412 146.974 103.144 147.679 102.684" stroke="#0D0D1E" stroke-width="1.68" stroke-miterlimit="10" stroke-linecap="round" stroke-linejoin="round"/>
<path id="Vector_36" d="M144.006 96.9414C144.264 97.675 144.471 98.4198 144.645 99.1702C144.807 99.8646 144.942 100.565 144.886 101.27C144.83 101.987 144.589 102.665 144.242 103.297" stroke="#0D0D1E" stroke-width="1.68" stroke-miterlimit="10" stroke-linecap="round" stroke-linejoin="round"/>
<path id="Vector_37" d="M154.099 115.314C153.825 116.586 152.817 117.689 151.551 118.002C150.291 118.322 148.841 117.801 148.124 116.72" stroke="#0D0D1E" stroke-width="1.68" stroke-miterlimit="10" stroke-linecap="round" stroke-linejoin="round"/>
<path id="Vector_38" d="M169.467 88.6992C168.772 92.468 169.114 96.4272 170.48 100.006C170.816 100.868 171.214 101.736 171.774 102.464" stroke="#0D0D1E" stroke-width="1.68" stroke-miterlimit="10" stroke-linecap="round" stroke-linejoin="round"/>
<path id="Vector_39" d="M160.318 82.5537C162.328 85.6057 165.459 87.9521 169.048 88.6185C169.188 88.6409 169.328 88.6633 169.468 88.6801" stroke="#0D0D1E" stroke-width="1.68" stroke-miterlimit="10" stroke-linecap="round" stroke-linejoin="round"/>
<path id="Vector_40" d="M142.417 83.5785C144.887 84.4353 147.586 84.5417 150.229 84.5305C152.284 84.5249 154.362 84.4465 156.372 84.0153C157.75 83.7185 159.105 83.2537 160.32 82.5537" stroke="#0D0D1E" stroke-width="1.68" stroke-miterlimit="10" stroke-linecap="round" stroke-linejoin="round"/>
<path id="Vector_41" d="M171.772 102.468C172.265 101.118 173.211 99.92 174.258 98.9064C175.412 97.7752 176.885 96.7336 178.486 96.9128C179.825 97.0696 180.945 98.0832 181.522 99.2984C182.093 100.519 182.177 101.908 182.076 103.246C181.953 104.921 181.544 106.612 180.637 108.029C179.735 109.44 178.279 110.56 176.616 110.818C175.664 110.963 174.701 110.84 173.749 110.694" stroke="#0D0D1E" stroke-width="1.68" stroke-miterlimit="10" stroke-linecap="round" stroke-linejoin="round"/>
<path id="Vector_42" d="M173.749 110.662C174.124 112.555 174.841 115.422 175.625 118.379C177.019 123.598 178.632 129.108 178.951 130.116" stroke="#0D0D1E" stroke-width="1.68" stroke-miterlimit="10" stroke-linecap="round" stroke-linejoin="round"/>
<path id="Vector_43" d="M158.936 133.985C158.858 133.689 158.779 133.403 158.701 133.106C158.342 131.757 157.978 130.413 157.609 129.074" stroke="#0D0D1E" stroke-width="1.68" stroke-miterlimit="10" stroke-linecap="round" stroke-linejoin="round"/>
<path id="Vector_44" d="M163.667 137.444C165.923 137.523 168.191 137.271 170.347 136.604C174.273 135.383 177.101 133.793 178.955 130.125" stroke="#0D0D1E" stroke-width="1.68" stroke-miterlimit="10" stroke-linecap="round" stroke-linejoin="round"/>
<path id="Vector_45" d="M167.157 124.571C167.112 124.616 167.056 124.666 167.012 124.711C164.139 127.399 161.356 130.199 158.701 133.1" stroke="#0D0D1E" stroke-width="1.68" stroke-miterlimit="10" stroke-linecap="round" stroke-linejoin="round"/>
<path id="Vector_46" d="M141.968 86.6837C139.98 85.8269 138.177 84.5501 136.923 82.8029C135.388 80.6637 134.811 77.7405 135.847 75.3213C136.111 74.7053 136.48 74.1229 137.001 73.6917C137.712 73.0981 138.653 72.8517 139.566 72.6949C140.008 72.6165 140.462 72.5605 140.915 72.5381" stroke="#0D0D1E" stroke-width="1.68" stroke-miterlimit="10" stroke-linecap="round" stroke-linejoin="round"/>
<path id="Vector_47" d="M140.916 72.5302C141.728 70.2174 143.352 68.1902 145.34 66.723C147.776 64.9086 150.721 63.8782 153.706 63.3294C156.741 62.7694 159.9 62.6854 162.879 63.4638C165.863 64.2422 168.663 65.939 170.439 68.4534C170.657 68.767 170.859 69.0918 171.043 69.4166" stroke="#0D0D1E" stroke-width="1.68" stroke-miterlimit="10" stroke-linecap="round" stroke-linejoin="round"/>
<path id="Vector_48" d="M171.042 69.3964C171.602 69.3628 172.162 69.3796 172.716 69.43C174.564 69.5868 176.351 70.1244 178.104 70.7124C179.957 71.334 181.816 72.0452 183.39 73.2044C186.201 75.2708 187.859 78.5636 188.872 81.9012C189.376 83.5588 189.752 85.2948 189.595 87.0308C189.46 88.5036 188.962 89.8812 188.273 91.1916" stroke="#0D0D1E" stroke-width="1.68" stroke-miterlimit="10" stroke-linecap="round" stroke-linejoin="round"/>
<path id="Vector_49" d="M188.273 91.2002C188.486 92.6226 188.609 94.0562 188.547 95.501C188.43 98.1554 187.69 100.743 186.755 103.235C185.501 106.589 183.888 109.837 181.715 112.687C180.024 114.905 177.974 116.887 175.628 118.388" stroke="#0D0D1E" stroke-width="1.68" stroke-miterlimit="10" stroke-linecap="round" stroke-linejoin="round"/>
<path id="Vector_50" d="M140.018 108.67C131.909 82.9999 123.789 57.352 115.681 31.6816" stroke="#0D0D1E" stroke-width="1.68" stroke-miterlimit="10" stroke-linecap="round" stroke-linejoin="round"/>
<path id="Vector_51" d="M95.8989 35.1829C96.8117 35.0373 97.7525 34.8693 98.7269 34.7013C102.955 33.9677 107.698 33.0717 111.971 32.3269C113.253 32.1029 114.502 31.8845 115.678 31.6885" stroke="#0D0D1E" stroke-width="1.68" stroke-miterlimit="10" stroke-linecap="round" stroke-linejoin="round"/>
<path id="Vector_52" d="M95.8984 35.1748C121.849 103.971 139.517 174.761 148.376 247.757" stroke="#0D0D1E" stroke-width="1.68" stroke-miterlimit="10" stroke-linecap="round" stroke-linejoin="round"/>
<path id="Vector_53" d="M218.179 247.777H148.375" stroke="#0D0D1E" stroke-width="1.68" stroke-miterlimit="10" stroke-linecap="round" stroke-linejoin="round"/>
<path id="Vector_54" d="M211.348 207.663C211.242 207.724 211.124 207.78 211.007 207.836C209.058 208.699 206.779 208.251 204.791 207.478C199.107 205.26 194.716 200.713 190.516 196.289C182.2 187.536 173.873 178.772 165.557 170.02" stroke="#0D0D1E" stroke-width="1.68" stroke-miterlimit="10" stroke-linecap="round" stroke-linejoin="round"/>
<path id="Vector_55" d="M178.951 130.125C185.968 132.875 191.904 136.128 197.134 141.252C197.734 141.835 198.327 142.445 198.91 143.083C205.602 150.414 209.118 160.023 212.148 169.465C215.357 179.495 218.19 190.336 215.614 200.461C215.474 201.043 215.312 201.62 215.122 202.197C214.427 204.353 213.313 206.599 211.347 207.657" stroke="#0D0D1E" stroke-width="1.68" stroke-miterlimit="10" stroke-linecap="round" stroke-linejoin="round"/>
<path id="Vector_56" d="M199.915 186.169C198.443 184.215 196.981 182.255 195.514 180.295C190.496 173.614 185.501 166.939 180.483 160.258" stroke="#0D0D1E" stroke-width="1.68" stroke-miterlimit="10" stroke-linecap="round" stroke-linejoin="round"/>
<path id="Vector_57" d="M195.519 180.276C190.373 169.193 185.227 158.111 180.075 147.028" stroke="#0D0D1E" stroke-width="1.68" stroke-miterlimit="10" stroke-linecap="round" stroke-linejoin="round"/>
<path id="Vector_58" d="M165.557 170.03C166.369 169.167 167.215 168.35 168.105 167.571C171.252 164.794 174.864 162.543 178.745 160.93C179.322 160.695 179.899 160.471 180.492 160.258" stroke="#0D0D1E" stroke-width="1.68" stroke-miterlimit="10" stroke-linecap="round" stroke-linejoin="round"/>
<path id="Vector_59" d="M167.093 142.005C167.077 141.887 167.077 141.769 167.077 141.646C167.093 140.789 167.491 139.888 168.258 139.518C168.874 139.221 169.608 139.317 170.252 139.524C172.497 140.246 174.099 142.24 175.219 144.323C177.913 149.346 178.473 155.17 178.741 160.91" stroke="#0D0D1E" stroke-width="1.68" stroke-miterlimit="10" stroke-linecap="round" stroke-linejoin="round"/>
<path id="Vector_60" d="M156.73 135.131C156.736 135.131 156.736 135.126 156.736 135.126C157.1 134.532 157.766 134.174 158.45 134.045C158.612 134.011 158.769 134 158.931 133.989C159.514 133.955 160.113 134.073 160.639 134.342C161.574 134.801 162.252 135.641 162.89 136.47C163.148 136.795 163.406 137.131 163.663 137.461C164.839 138.956 165.998 140.474 167.09 142.025C168.838 144.478 170.417 147.043 171.61 149.798" stroke="#0D0D1E" stroke-width="1.68" stroke-miterlimit="10" stroke-linecap="round" stroke-linejoin="round"/>
<path id="Vector_61" d="M167.655 150.248C164.738 144.906 161.154 139.922 157.026 135.442C156.931 135.341 156.83 135.24 156.73 135.139C155.974 134.378 155.05 133.683 154.025 133.891C153.274 134.036 152.675 134.725 152.625 135.481C152.569 136.175 152.91 136.803 153.28 137.396C153.302 137.435 153.336 137.48 153.358 137.519C156.629 142.739 160.213 147.745 164.082 152.527" stroke="#0D0D1E" stroke-width="1.68" stroke-miterlimit="10" stroke-linecap="round" stroke-linejoin="round"/>
<path id="Vector_62" d="M153.28 137.373C153.235 137.357 153.179 137.34 153.135 137.329C152.715 137.194 152.244 137.116 151.841 137.289C151.303 137.513 151.023 138.146 151.04 138.729C151.057 139.311 151.315 139.865 151.561 140.397C152.02 141.338 152.502 142.273 153.017 143.186C155.582 147.767 158.74 151.995 161.882 156.206" stroke="#0D0D1E" stroke-width="1.68" stroke-miterlimit="10" stroke-linecap="round" stroke-linejoin="round"/>
<path id="Vector_63" d="M153.017 143.202C152.983 143.185 152.944 143.168 152.916 143.163C152.098 142.883 151.102 142.967 150.502 143.588C150.004 144.103 149.881 144.887 149.998 145.599C150.122 146.31 150.458 146.954 150.782 147.587C153.314 152.414 155.985 157.359 160.23 160.78C161.249 161.603 162.346 162.331 163.394 163.115C165.124 164.426 166.709 165.921 168.103 167.567" stroke="#0D0D1E" stroke-width="1.68" stroke-miterlimit="10" stroke-linecap="round" stroke-linejoin="round"/>
<path id="Vector_64" d="M112.311 22.2825C111.18 22.6241 106.129 25.1497 104.555 25.5921C104.236 25.6873 103.9 25.7713 103.581 25.6985C102.757 25.5249 102.438 24.5169 102.45 23.6713C102.489 21.5545 103.659 19.5609 105.294 18.2113C106.314 17.3769 107.49 16.7777 108.738 16.3521C109.5 16.0945 110.29 15.8985 111.085 15.7585C111.32 15.7137 111.561 15.6801 111.802 15.6745C112.418 15.6185 113.034 15.6969 113.51 16.0665C114.282 16.6713 114.35 17.7857 114.322 18.7713C114.277 20.0257 114.165 21.2689 113.997 22.5121C113.577 25.8217 112.787 29.0977 111.981 32.3456" stroke="#0D0D1E" stroke-width="1.68" stroke-miterlimit="10" stroke-linecap="round" stroke-linejoin="round"/>
<path id="Vector_65" d="M106.065 14.0325C106.031 13.9877 106.003 13.9485 105.981 13.8981C105.606 13.2541 105.466 12.4981 105.376 11.7589C105.04 9.10445 105.163 6.29885 106.35 3.90764C106.546 3.51564 106.787 3.12364 107.106 2.83244C107.263 2.68684 107.431 2.56924 107.638 2.47964C108.372 2.16604 109.24 2.45724 109.817 2.99484C110.394 3.53244 110.73 4.27165 110.987 5.02205C112.146 8.41005 112.029 12.0725 111.81 15.6509" stroke="#0D0D1E" stroke-width="1.68" stroke-miterlimit="10" stroke-linecap="round" stroke-linejoin="round"/>
<path id="Vector_66" d="M109.655 10.5283C109.521 11.5475 109.37 12.5667 109.179 13.5915C109.095 14.0339 108.983 14.5155 108.642 14.8123C108.524 14.9131 108.395 14.9859 108.244 15.0307C108.099 15.0867 107.931 15.1091 107.768 15.1035C107.074 15.0979 106.452 14.6443 106.055 14.0619" stroke="#0D0D1E" stroke-width="1.68" stroke-miterlimit="10" stroke-linecap="round" stroke-linejoin="round"/>
<path id="Vector_67" d="M101.944 16.657C102.051 16.8138 102.196 16.9538 102.348 17.0602C102.992 17.5138 103.921 17.357 104.543 16.8754C105.164 16.3938 105.534 15.6546 105.792 14.9154C105.892 14.6354 105.976 14.3554 106.066 14.0642C106.066 14.0642 106.066 14.0642 106.066 14.0586" stroke="#0D0D1E" stroke-width="1.68" stroke-miterlimit="10" stroke-linecap="round" stroke-linejoin="round"/>
<path id="Vector_68" d="M107.097 2.84351C106.52 2.10991 105.697 1.57231 104.778 1.42111C104.28 1.33711 103.748 1.34831 103.283 1.55551C102.706 1.80751 102.292 2.30591 101.973 2.85471C101.877 3.00031 101.799 3.15151 101.721 3.30831C100.545 5.69391 100.287 8.43791 100.41 11.1035C100.455 12.2011 100.573 13.2987 100.875 14.3515C101.06 14.9843 101.312 15.5835 101.625 16.1603C101.721 16.3227 101.81 16.4851 101.939 16.6419" stroke="#0D0D1E" stroke-width="1.68" stroke-miterlimit="10" stroke-linecap="round" stroke-linejoin="round"/>
<path id="Vector_69" d="M101.973 2.85838C101.497 2.43278 100.92 2.13598 100.299 2.00158C98.8761 1.71598 97.3025 2.37678 96.5129 3.59758C96.1209 4.20238 95.9193 4.89678 95.7737 5.60798C95.7569 5.66958 95.7513 5.74237 95.7345 5.80397C94.7601 10.6032 95.3313 15.6544 97.0561 20.2352C97.0617 20.252 97.0729 20.2688 97.0729 20.28C97.2857 20.8232 97.5769 21.4224 98.1425 21.5792C98.6969 21.736 99.2737 21.3944 99.6937 21.0024C100.915 19.8656 101.553 18.2976 101.945 16.6512V16.6456" stroke="#0D0D1E" stroke-width="1.68" stroke-miterlimit="10" stroke-linecap="round" stroke-linejoin="round"/>
<path id="Vector_70" d="M93.8076 20.6759C94.1492 21.1127 94.586 21.4767 95.1236 21.5383C95.9076 21.6335 96.6244 21.0399 97.0332 20.3623C97.05 20.3287 97.0668 20.3063 97.078 20.2783" stroke="#0D0D1E" stroke-width="1.68" stroke-miterlimit="10" stroke-linecap="round" stroke-linejoin="round"/>
<path id="Vector_71" d="M95.7756 5.60788C95.6132 5.54628 95.4508 5.48468 95.2828 5.43428C95.098 5.37268 94.902 5.32788 94.7004 5.33348C94.3868 5.35588 94.1012 5.53508 93.8492 5.73668C92.3372 6.95748 91.71 8.96788 91.4916 10.9055C91.1276 14.1143 91.7156 17.4911 93.4684 20.2127C93.5692 20.3695 93.6812 20.5263 93.7932 20.6663" stroke="#0D0D1E" stroke-width="1.68" stroke-miterlimit="10" stroke-linecap="round" stroke-linejoin="round"/>
<path id="Vector_72" d="M98.7288 34.6915C98.0512 32.0819 97.3568 29.4835 96.416 26.9579C95.6152 24.8299 94.6408 22.7691 93.8064 20.6579C93.8064 20.6523 93.8008 20.6523 93.8008 20.6523" stroke="#0D0D1E" stroke-width="1.68" stroke-miterlimit="10" stroke-linecap="round" stroke-linejoin="round"/>
<path id="Vector_73" d="M210.468 90.8477C205.58 99.7629 201.979 109.367 199.761 119.29C198.148 126.503 197.252 133.878 197.135 141.276" stroke="#0D0D1E" stroke-width="1.68" stroke-miterlimit="10" stroke-linecap="round" stroke-linejoin="round"/>
<path id="Vector_74" d="M210.469 90.8477C217.682 98.2509 223.791 106.673 228.714 115.745C242.047 140.352 246.611 169.825 240.429 197.147" stroke="#0D0D1E" stroke-width="1.68" stroke-miterlimit="10" stroke-linecap="round" stroke-linejoin="round"/>
<path id="Vector_75" d="M199.766 119.287C209.174 116.711 218.962 115.513 228.718 115.743" stroke="#0D0D1E" stroke-width="1.68" stroke-miterlimit="10" stroke-linecap="round" stroke-linejoin="round"/>
<path id="Vector_76" d="M221.738 145.818C220.119 152.538 226.638 160.177 232.428 158.34C238.213 156.503 240.587 146.636 236.46 141.573C232.339 136.511 223.351 139.098 221.738 145.818Z" stroke="#0D0D1E" stroke-width="1.68" stroke-miterlimit="10" stroke-linecap="round" stroke-linejoin="round"/>
<path id="Vector_77" d="M211.347 207.677V207.682C211.447 208.259 211.543 208.842 211.643 209.418C211.929 211.11 212.215 212.801 212.5 214.475C212.965 217.219 213.435 219.935 213.9 222.651C215.323 230.967 216.751 239.244 218.173 247.784" stroke="#0D0D1E" stroke-width="1.68" stroke-miterlimit="10" stroke-linecap="round" stroke-linejoin="round"/>
<path id="Vector_78" d="M215.618 200.463C223.099 199.393 230.592 198.335 238.079 197.271C238.819 197.17 239.619 197.114 240.431 197.131C243.136 197.176 245.852 198.032 246.076 200.519C246.356 203.548 242.487 204.988 239.474 205.424C239.071 205.48 238.673 205.542 238.264 205.598C229.394 206.875 220.518 208.135 211.647 209.406" stroke="#0D0D1E" stroke-width="1.68" stroke-miterlimit="10" stroke-linecap="round" stroke-linejoin="round"/>
<path id="Vector_79" d="M212.5 214.465C221.297 213.227 230.117 211.973 238.915 210.718C238.954 210.713 238.987 210.713 239.021 210.702C242.213 210.265 246.603 210.78 246.911 213.966C247.191 216.996 243.316 218.435 240.309 218.866C239.665 218.962 239.027 219.051 238.377 219.146C230.705 220.244 223.044 221.342 215.367 222.434C214.874 222.506 214.392 222.574 213.905 222.646" stroke="#0D0D1E" stroke-width="1.68" stroke-miterlimit="10" stroke-linecap="round" stroke-linejoin="round"/>
<path id="Vector_80" d="M239.023 210.698C238.766 209.001 238.508 207.293 238.262 205.597" stroke="#0D0D1E" stroke-width="1.68" stroke-miterlimit="10" stroke-linecap="round" stroke-linejoin="round"/>
<path id="Vector_81" d="M238.382 219.159C240.057 227.027 240.241 231.446 236.069 243.743" stroke="#0D0D1E" stroke-width="1.68" stroke-miterlimit="10" stroke-linecap="round" stroke-linejoin="round"/>
<path id="Vector_82" d="M232.081 236.794C231.689 235.277 231.577 233.686 231.756 232.124" stroke="#0D0D1E" stroke-width="1.68" stroke-miterlimit="10" stroke-linecap="round" stroke-linejoin="round"/>
<path id="Vector_83" d="M236.068 243.729C234.114 241.87 232.719 239.428 232.081 236.808" stroke="#0D0D1E" stroke-width="1.68" stroke-miterlimit="10" stroke-linecap="round" stroke-linejoin="round"/>
<path id="Vector_84" d="M215.367 222.447C216.997 230.965 222.826 238.491 230.672 242.344C231.114 240.569 231.607 238.682 232.083 236.822V236.817" stroke="#0D0D1E" stroke-width="1.68" stroke-miterlimit="10" stroke-linecap="round" stroke-linejoin="round"/>
<path id="Vector_85" d="M243.741 229.856C243.428 232.169 242.728 234.426 241.675 236.509" stroke="#0D0D1E" stroke-width="1.68" stroke-miterlimit="10" stroke-linecap="round" stroke-linejoin="round"/>
<path id="Vector_86" d="M220.783 238.064C222.116 239.7 223.695 241.133 225.448 242.292" stroke="#0D0D1E" stroke-width="1.68" stroke-miterlimit="10" stroke-linecap="round" stroke-linejoin="round"/>
<path id="Vector_87" d="M244.02 221.92C243.964 222.301 243.903 222.676 243.847 223.051" stroke="#0D0D1E" stroke-width="1.68" stroke-miterlimit="10" stroke-linecap="round" stroke-linejoin="round"/>
<path id="Vector_88" d="M229.664 244.949C229.762 245.047 229.846 245.131 229.944 245.229" stroke="#0D0D1E" stroke-width="1.68" stroke-miterlimit="10" stroke-linecap="round" stroke-linejoin="round"/>
</g>
</g>
<g id="Group_4">
<path id="Vector_89" d="M4.32227 207.165H40.3022" stroke="#0D0D1E" stroke-width="1.68" stroke-miterlimit="10" stroke-linecap="round" stroke-linejoin="round"/>
<path id="Vector_90" d="M4.32275 197.452H40.3027" stroke="#0D0D1E" stroke-width="1.68" stroke-miterlimit="10" stroke-linecap="round" stroke-linejoin="round"/>
<path id="Vector_91" d="M4.32227 187.764H40.3022" stroke="#0D0D1E" stroke-width="1.68" stroke-miterlimit="10" stroke-linecap="round" stroke-linejoin="round"/>
<path id="Vector_92" d="M4.32227 178.058H40.3022" stroke="#0D0D1E" stroke-width="1.68" stroke-miterlimit="10" stroke-linecap="round" stroke-linejoin="round"/>
<path id="Vector_93" d="M37.0303 211.847V175.867" stroke="#0D0D1E" stroke-width="1.68" stroke-miterlimit="10" stroke-linecap="round" stroke-linejoin="round"/>
<path id="Vector_94" d="M27.3252 211.847V175.867" stroke="#0D0D1E" stroke-width="1.68" stroke-miterlimit="10" stroke-linecap="round" stroke-linejoin="round"/>
<path id="Vector_95" d="M17.624 211.847V175.867" stroke="#0D0D1E" stroke-width="1.68" stroke-miterlimit="10" stroke-linecap="round" stroke-linejoin="round"/>
<path id="Vector_96" d="M7.93311 211.847V175.867" stroke="#0D0D1E" stroke-width="1.68" stroke-miterlimit="10" stroke-linecap="round" stroke-linejoin="round"/>
</g>
<path id="Vector_97" d="M116.575 180.63H1.06934C1.06934 164.81 13.8989 151.992 29.7189 151.992C31.5837 151.992 33.4261 152.165 35.1957 152.518C36.7749 138.188 48.9269 127.038 63.6717 127.038C79.4805 127.038 92.3101 139.868 92.3101 155.688C92.3101 156.153 92.2989 156.617 92.2709 157.077C104.647 158.773 114.503 168.383 116.575 180.63Z" fill="white" stroke="#0D0D1E" stroke-width="1.68" stroke-miterlimit="10" stroke-linecap="round" stroke-linejoin="round"/>
<path id="Vector_98" d="M72.2822 188.485V165.548H59.0775V188.485H51.2095L65.2151 209.922L79.2206 188.485H72.2822Z" fill="#FFCF48" stroke="#0D0D1E" stroke-width="1.68" stroke-miterlimit="10" stroke-linecap="round" stroke-linejoin="round"/>
<g id="Group_5">
<path id="Vector_99" d="M14.7001 75.9439C14.8905 74.4543 15.1425 72.9759 15.4281 71.5087C15.5737 70.7583 15.7361 69.9967 16.1225 69.3247C16.6097 68.4399 17.4329 67.7959 18.3065 67.2975C19.5217 66.5695 20.8601 66.0543 22.1929 65.5559C26.0346 64.0887 29.8874 62.6102 33.7402 61.143C34.2274 60.9526 34.7426 60.7734 35.2522 60.7958C35.8122 60.8182 36.3274 61.0927 36.8258 61.3335C39.0546 62.3807 41.5018 62.9463 43.9602 62.9687C46.4074 62.9463 48.8602 62.3863 51.0834 61.3335C51.5986 61.0927 52.1082 60.8182 52.657 60.7958C53.1834 60.7734 53.6818 60.9526 54.1858 61.143C58.0274 62.6102 61.8802 64.0887 65.733 65.5559C67.0546 66.0543 68.393 66.5695 69.6194 67.2975C70.4762 67.7959 71.3106 68.4399 71.8034 69.3247C72.1842 69.9911 72.341 70.7583 72.4978 71.5087C73.7018 77.6855 74.1554 84.0191 73.8362 90.3079C73.7746 91.3943 73.6682 92.5479 73.0018 93.3711C72.285 94.2671 71.0922 94.5751 69.9946 94.8271C68.8746 95.0791 69.1098 95.0287 68.001 95.2807L67.8722 95.2919C66.7018 83.2463 56.5658 73.8327 44.2066 73.8327C31.8474 73.8327 21.6889 83.2687 20.5409 95.3255L19.9305 95.2751C18.8105 95.0231 19.0625 95.0735 17.9369 94.8215C16.8281 94.5695 15.6465 94.2615 14.9185 93.3655C14.2521 92.5423 14.1457 91.3831 14.0953 90.3023C13.8433 85.5087 14.0561 80.7039 14.7001 75.9439Z" fill="#FFCF48"/>
<path id="Vector_100" d="M44.2129 107.719C42.6169 106.515 41.1833 105.092 39.8001 103.642C38.4785 102.259 37.1737 100.814 36.1769 99.1787C35.1857 97.5323 34.4689 95.6731 34.4465 93.7523C34.4129 91.8315 35.1017 89.8547 36.5353 88.5667C37.3809 87.8051 38.5513 87.2899 39.6825 87.5027C40.3041 87.6203 40.8529 87.9451 41.3625 88.3035C42.5329 89.1491 43.5241 90.2579 44.2129 91.5347C44.8905 90.2579 45.8705 89.1491 47.0521 88.3035C47.5673 87.9451 48.1161 87.6259 48.7321 87.5027C49.8521 87.2899 51.0225 87.7995 51.8793 88.5667C53.2961 89.8547 53.9905 91.8371 53.9681 93.7523C53.9345 95.6731 53.2401 97.5323 52.2265 99.1787C51.2353 100.814 49.9361 102.259 48.6033 103.642C47.2313 105.098 45.7977 106.503 44.2129 107.719Z" fill="#FFCF48" stroke="#0D0D1E" stroke-width="1.68" stroke-miterlimit="10" stroke-linecap="round" stroke-linejoin="round"/>
<path id="Vector_101" d="M67.8614 95.2756C67.9342 96.0372 67.9678 96.8156 67.9678 97.5884C67.9678 110.709 57.3278 121.36 44.1958 121.36C31.075 121.36 20.4238 110.709 20.4238 97.5884C20.4238 96.8268 20.4574 96.0596 20.5302 95.3092C21.6726 83.2524 31.8366 73.8164 44.1958 73.8164C56.555 73.8164 66.6966 83.23 67.8614 95.2756Z" stroke="#0D0D1E" stroke-width="1.68" stroke-miterlimit="10" stroke-linecap="round" stroke-linejoin="round"/>
<path id="Vector_102" d="M67.9974 95.2807C69.1062 95.0287 68.8654 95.0791 69.991 94.8271C71.0886 94.5751 72.2814 94.2671 72.9982 93.3711C73.6646 92.5479 73.771 91.3887 73.8326 90.3079C74.1574 84.0247 73.7038 77.6911 72.4942 71.5087C72.3374 70.7583 72.1862 69.9967 71.7998 69.3247C71.3126 68.4399 70.4782 67.7959 69.6158 67.2975C68.3894 66.5695 67.051 66.0543 65.7294 65.5559C61.8766 64.0887 58.0238 62.6102 54.1822 61.143C53.6838 60.9526 53.1798 60.7734 52.6534 60.7958C52.1046 60.8182 51.5894 61.0927 51.0798 61.3335C48.8621 62.3807 46.4037 62.9463 43.9565 62.9687" stroke="#0D0D1E" stroke-width="1.68" stroke-miterlimit="10" stroke-linecap="round" stroke-linejoin="round"/>
<path id="Vector_103" d="M19.9256 95.2829C18.8056 95.0309 19.0576 95.0813 17.932 94.8293C16.8232 94.5773 15.6416 94.2693 14.9136 93.3733C14.2472 92.5501 14.1408 91.3909 14.0904 90.3101C13.8384 85.5165 14.0568 80.7061 14.7008 75.9517C14.8912 74.4621 15.1432 72.9837 15.4288 71.5165C15.5744 70.7661 15.7368 70.0045 16.1232 69.3325C16.6104 68.4477 17.4336 67.8037 18.3072 67.3053C19.5224 66.5773 20.8608 66.0621 22.1936 65.5637C26.0352 64.0965 29.888 62.6181 33.7408 61.1509C34.228 60.9605 34.7432 60.7813 35.2528 60.8037C35.8128 60.8261 36.328 61.1005 36.8264 61.3413C39.0552 62.3885 41.5024 62.9541 43.9608 62.9765" stroke="#0D0D1E" stroke-width="1.68" stroke-miterlimit="10" stroke-linecap="round" stroke-linejoin="round"/>
<path id="Vector_104" d="M44.1974 57.016C51.0078 57.016 56.5286 51.4951 56.5286 44.6847C56.5286 37.8744 51.0078 32.3535 44.1974 32.3535C37.3871 32.3535 31.8662 37.8744 31.8662 44.6847C31.8662 51.4951 37.3871 57.016 44.1974 57.016Z" stroke="#0D0D1E" stroke-width="1.68" stroke-miterlimit="10" stroke-linecap="round" stroke-linejoin="round"/>
</g>
<path id="Vector_105" d="M208.45 41.3595C212.997 41.3595 216.682 37.6739 216.682 33.1275C216.682 28.5811 212.997 24.8955 208.45 24.8955C203.904 24.8955 200.218 28.5811 200.218 33.1275C200.218 37.6739 203.904 41.3595 208.45 41.3595Z" stroke="#0D0D1E" stroke-width="1.68" stroke-miterlimit="10" stroke-linecap="round" stroke-linejoin="round"/>
<path id="Vector_106" d="M208.448 50.6761C218.141 50.6761 225.999 42.8185 225.999 33.1256C225.999 23.4328 218.141 15.5752 208.448 15.5752C198.756 15.5752 190.898 23.4328 190.898 33.1256C190.898 42.8185 198.756 50.6761 208.448 50.6761Z" stroke="#0D0D1E" stroke-width="1.68" stroke-miterlimit="10" stroke-linecap="round" stroke-linejoin="round"/>
<path id="Vector_107" d="M208.445 61.7025C224.228 61.7025 237.022 48.9082 237.022 33.1257C237.022 17.3431 224.228 4.54883 208.445 4.54883C192.663 4.54883 179.869 17.3431 179.869 33.1257C179.869 48.9082 192.663 61.7025 208.445 61.7025Z" stroke="#0D0D1E" stroke-width="1.68" stroke-miterlimit="10" stroke-linecap="round" stroke-linejoin="round"/>
<g id="Group_6">
<path id="Vector_108" d="M109.934 227.923L96.3096 220.061V235.785L109.934 227.923Z" fill="white" stroke="#0D0D1E" stroke-width="1.68" stroke-miterlimit="10" stroke-linecap="round" stroke-linejoin="round"/>
<path id="Vector_109" d="M132.438 227.923L118.818 220.061V235.785L132.438 227.923Z" fill="white" stroke="#0D0D1E" stroke-width="1.68" stroke-miterlimit="10" stroke-linecap="round" stroke-linejoin="round"/>
<path id="Vector_110" d="M154.95 227.923L141.331 220.061V235.785L154.95 227.923Z" fill="white" stroke="#0D0D1E" stroke-width="1.68" stroke-miterlimit="10" stroke-linecap="round" stroke-linejoin="round"/>
</g>
<path id="Vector_111" d="M159.819 22.6192L156.185 27.3792L153.503 22.0088L151.688 27.3792L147.88 22.0088L143.82 26.3376" stroke="#0D0D1E" stroke-width="1.68" stroke-miterlimit="10" stroke-linecap="round" stroke-linejoin="round"/>
<path id="Vector_112" d="M49.6713 17.7794C47.0169 13.1874 40.4425 11.4122 35.8337 14.0386C34.1593 14.9906 32.7033 16.5754 32.5073 18.4907C32.3113 20.4059 33.8233 22.5059 35.7497 22.4163C38.2753 22.3043 39.2721 18.5074 37.5809 16.6258C35.8953 14.7386 32.8601 14.705 30.5417 15.7242C25.3561 18.0035 23.0993 23.9955 21.3633 29.3883" stroke="#0D0D1E" stroke-width="1.68" stroke-miterlimit="10" stroke-linecap="round" stroke-linejoin="round"/>
<g id="Group_7">
<path id="Vector_113" d="M58.6055 232.551V235.099V237.692" stroke="#0D0D1E" stroke-width="1.68" stroke-miterlimit="10" stroke-linecap="round" stroke-linejoin="round"/>
<path id="Vector_114" d="M61.1545 235.114H58.6065H56.0137" stroke="#0D0D1E" stroke-width="1.68" stroke-miterlimit="10" stroke-linecap="round" stroke-linejoin="round"/>
</g>
</g>
</svg>
