<svg width="51" height="60" viewBox="0 0 51 60" fill="none" xmlns="http://www.w3.org/2000/svg">
<g id="order-02" clip-path="url(#clip0_749_103)">
<g id="Layer_1">
<path id="Vector" d="M4.93178 47.7496C5.83407 47.7496 6.61792 47.1087 6.61792 46.2496C6.61792 45.3667 5.80968 44.5996 4.93178 44.5996C4.02949 44.5996 3.39893 45.3905 3.39893 46.2496C3.39893 47.1087 4.02949 47.7496 4.93178 47.7496Z" fill="#E7633F" stroke="#0D0D1E" stroke-miterlimit="10" stroke-linejoin="round"/>
<path id="Vector_2" d="M36.5096 9.79883L33.7505 12.3488L36.5096 15.0488L39.1155 12.3488L36.5096 9.79883Z" fill="#FFCF48" stroke="#0D0D1E" stroke-miterlimit="10" stroke-linejoin="round"/>
<path id="Vector_3" d="M24.0926 54L21.3335 56.55L24.0926 59.25L26.6985 56.55L24.0926 54Z" fill="#E7633F" stroke="#0D0D1E" stroke-miterlimit="10" stroke-linejoin="round"/>
<path id="Vector_4" d="M40.6475 43.25V47H44.4796V43.25H40.6475Z" fill="#E7633F" stroke="#0D0D1E" stroke-miterlimit="10" stroke-linejoin="round"/>
<g id="Group">
<path id="Vector_5" d="M5.69873 11V8" stroke="#0D0D1E" stroke-miterlimit="10" stroke-linejoin="round"/>
<path id="Vector_6" d="M7.99805 13.25H11.0638" stroke="#0D0D1E" stroke-miterlimit="10" stroke-linejoin="round"/>
<path id="Vector_7" d="M5.69873 15.5V18.5" stroke="#0D0D1E" stroke-miterlimit="10" stroke-linejoin="round"/>
<path id="Vector_8" d="M3.3992 13.25H0.333496" stroke="#0D0D1E" stroke-miterlimit="10" stroke-linejoin="round"/>
</g>
<g id="Group_2">
<path id="Vector_9" d="M41.6691 21.7988L39.3698 26.5988L33.8516 27.3488L37.837 30.9488L36.764 36.1988L41.6691 33.4988L46.421 36.1988L45.348 30.9488L49.3334 27.3488L43.9684 26.5988L41.6691 21.7988Z" fill="#E7633F" stroke="#0D0D1E" stroke-miterlimit="10" stroke-linejoin="round"/>
<path id="Vector_10" d="M32.9312 34.6992L34.7706 38.5992L39.2159 39.1992L35.9969 42.0492L36.7633 46.3992L32.9312 44.2992L29.099 46.3992L29.8655 42.0492L26.6465 39.1992L31.0918 38.5992L32.9312 34.6992Z" fill="#FFCF48" stroke="#0D0D1E" stroke-miterlimit="10" stroke-linejoin="round"/>
<path id="Vector_11" d="M9.01925 21.7988L11.3185 26.5988L16.8368 27.3488L12.8514 30.9488L13.9244 36.1988L9.01925 33.4988L4.2674 36.1988L5.3404 30.9488L1.35498 27.3488L6.71997 26.5988L9.01925 21.7988Z" fill="#E7633F" stroke="#0D0D1E" stroke-miterlimit="10" stroke-linejoin="round"/>
<path id="Vector_12" d="M17.7574 34.6992L15.9179 38.5992L11.4727 39.1992L14.6916 42.0492L13.9252 46.3992L17.7574 44.2992L21.5895 46.3992L20.8231 42.0492L24.0421 39.1992L19.5968 38.5992L17.7574 34.6992Z" fill="#FFCF48" stroke="#0D0D1E" stroke-miterlimit="10" stroke-linejoin="round"/>
<path id="Vector_13" d="M25.4208 15.5L28.0267 21.05L34.3114 21.8L29.7128 26L30.9391 32L25.4208 29L19.9026 32L21.1288 26L16.5303 21.8L22.815 21.05L25.4208 15.5Z" fill="#FFCF48" stroke="#0D0D1E" stroke-miterlimit="10" stroke-linejoin="round"/>
</g>
</g>
<g id="Layer_3">
<g id="Vector_14" opacity="0.1">
<path d="M6.34458 26.4492C6.34458 26.4492 8.89168 32.889 8.73835 33.1992C8.58502 33.5094 4.1104 35.8992 4.1104 35.8992L4.58915 31.0992L1.39746 27.7992L6.34458 26.4492Z" fill="#0D0D1E"/>
</g>
<g id="Vector_15" opacity="0.1">
<path d="M23.4202 21.3496C23.4202 21.3496 25.9667 27.7894 25.8139 28.0996C25.6612 28.4098 21.186 30.7996 21.186 30.7996L21.6647 25.9996L17.356 21.6496L23.4202 21.3496Z" fill="#0D0D1E"/>
</g>
<g id="Vector_16" opacity="0.1">
<path d="M15.7599 38.75C15.7599 38.75 17.9628 44.4839 17.8345 44.75C17.7063 45.0161 13.8449 47 13.8449 47L14.3237 42.8L10.4937 38.9L15.7599 38.75Z" fill="#0D0D1E"/>
</g>
<g id="Vector_17" opacity="0.1">
<path d="M31.8781 38.2988C31.8781 38.2988 34.0809 44.0327 33.9527 44.2988C33.8245 44.565 29.9631 46.5488 29.9631 46.5488L30.4418 42.3488L26.6118 38.4488L31.8781 38.2988Z" fill="#0D0D1E"/>
</g>
<g id="Vector_18" opacity="0.1">
<path d="M40.6555 27.3496C40.6555 27.3496 42.8583 33.0835 42.7301 33.3496C42.6018 33.6157 38.7404 35.5996 38.7404 35.5996L39.2192 31.3996L35.3892 27.4996L40.6555 27.3496Z" fill="#0D0D1E"/>
</g>
</g>
</g>
<defs>
<clipPath id="clip0_749_103">
<rect width="49.95" height="60" fill="white" transform="translate(0.333496)"/>
</clipPath>
</defs>
</svg>
