<svg width="45" height="48" viewBox="0 0 45 48" fill="none" xmlns="http://www.w3.org/2000/svg">
<g id="Layer_1">
<path id="Vector" d="M19.7231 17.232V12.936C19.7231 9.88802 22.1951 7.41602 25.2431 7.41602C28.2911 7.41602 30.7631 9.88802 30.7631 12.936V17.232" stroke="#0D0D1E" stroke-miterlimit="10" stroke-linejoin="round"/>
<path id="Vector_2" d="M25.2671 17.232V12.936C25.2671 9.88802 27.7391 7.41602 30.7871 7.41602C33.8351 7.41602 36.3071 9.88802 36.3071 12.936V17.232" stroke="#0D0D1E" stroke-miterlimit="10" stroke-linejoin="round"/>
<path id="Vector_3" d="M5.2749 28.8975V26.5455C5.2749 24.8655 6.6189 23.5215 8.2989 23.5215C9.9789 23.5215 11.3229 24.8655 11.3229 26.5455V28.8975" stroke="#0D0D1E" stroke-miterlimit="10" stroke-linejoin="round"/>
<path id="Vector_4" d="M14.0588 25.2015C13.5548 24.2175 12.5468 23.5215 11.3468 23.5215C9.66675 23.5215 8.32275 24.8655 8.32275 26.5455V28.8255V28.8975" stroke="#0D0D1E" stroke-miterlimit="10" stroke-linejoin="round"/>
<path id="Vector_5" d="M2.08312 20.4004C2.97112 20.4004 3.66712 19.6804 3.66712 18.8164C3.66712 17.9284 2.94712 17.2324 2.08312 17.2324C1.19512 17.2324 0.499118 17.9524 0.499118 18.8164C0.475118 19.7044 1.19512 20.4004 2.08312 20.4004Z" stroke="#0D0D1E" stroke-miterlimit="10" stroke-linejoin="round"/>
<path id="Vector_6" d="M41.7796 4.80078L39.1636 7.41678L41.7796 10.0328L44.3956 7.41678L41.7796 4.80078Z" stroke="#0D0D1E" stroke-miterlimit="10" stroke-linejoin="round"/>
<g id="Group">
<path id="Vector_7" d="M6.49854 3.1448V0.216797" stroke="#0D0D1E" stroke-miterlimit="10" stroke-linejoin="round"/>
<path id="Vector_8" d="M8.82666 5.44922H11.7547" stroke="#0D0D1E" stroke-miterlimit="10" stroke-linejoin="round"/>
<path id="Vector_9" d="M6.49854 7.77734V10.7053" stroke="#0D0D1E" stroke-miterlimit="10" stroke-linejoin="round"/>
<path id="Vector_10" d="M4.17067 5.44922H1.24268" stroke="#0D0D1E" stroke-miterlimit="10" stroke-linejoin="round"/>
</g>
<g id="Vector_11">
<path d="M14.2752 46.6322H14.0592H1.55518V28.8242H8.32318H14.0592" fill="#E7633F"/>
<path d="M14.2752 46.6322H14.0592H1.55518V28.8242H8.32318H14.0592" stroke="#0D0D1E" stroke-miterlimit="10" stroke-linejoin="round"/>
</g>
<path id="Vector_12" d="M18.0429 46.6328H14.2749" stroke="#0D0D1E" stroke-miterlimit="10" stroke-linejoin="round"/>
<g id="Vector_13">
<path d="M17.7071 16.6816H35.4431V46.6336H14.0591V20.3296" fill="#FFCF48"/>
<path d="M17.7071 16.6816H35.4431V46.6336H14.0591V20.3296" stroke="#0D0D1E" stroke-miterlimit="10" stroke-linejoin="round"/>
</g>
<g id="Vector_14">
<path d="M41.7799 39.9136V46.6336H35.4438V16.6816H41.7799V35.1616" fill="#E7633F"/>
<path d="M41.7799 39.9136V46.6336H35.4438V16.6816H41.7799V35.1616" stroke="#0D0D1E" stroke-miterlimit="10" stroke-linejoin="round"/>
</g>
<path id="Vector_15" d="M14.0592 13.0098L15.3552 15.3858L17.7072 16.6578L15.3552 17.9538L14.0592 20.3058L12.7632 17.9538L10.3872 16.6818L12.7392 15.4098L14.0592 13.0098Z" stroke="#0D0D1E" stroke-miterlimit="10" stroke-linejoin="round"/>
</g>
</svg>
