<svg width="30" height="31" viewBox="0 0 30 31" fill="none" xmlns="http://www.w3.org/2000/svg">
<path fill-rule="evenodd" clip-rule="evenodd" d="M9.13366 3.64145C9.35868 3.27782 9.71439 3.02265 10.1324 2.92221L10.5041 2.87995C10.7994 2.87995 11.0887 2.96026 11.346 3.1211C11.8443 3.42854 12.7485 4.94361 13.4558 6.31396C11.9126 6.29383 10.1524 6.16134 9.65612 5.85381C9.2904 5.62879 9.03523 5.27309 8.93679 4.85518C8.83825 4.43718 8.90864 4.00717 9.13368 3.64145H9.13366ZM18.6596 3.12111C18.9169 2.96028 19.2082 2.87996 19.5016 2.87996L19.8733 2.92222C20.2913 3.02067 20.6469 3.27784 20.872 3.64147C21.097 4.00719 21.1673 4.43721 21.0689 4.8552C20.9705 5.2731 20.7153 5.62881 20.3516 5.85383C19.8532 6.16137 18.0911 6.29387 16.5498 6.31398C17.3093 4.84318 18.2035 3.40241 18.6597 3.12111H18.6596ZM28.3073 6.34604H21.9155C22.1787 6.00644 22.3737 5.6167 22.4741 5.18668C22.6609 4.39295 22.5284 3.57517 22.0983 2.88398C21.2142 1.45324 19.3314 1.0071 17.9007 1.89327C16.886 2.52217 15.5879 4.9897 15.0032 6.18129C14.4205 4.9897 13.1225 2.52217 12.1056 1.89327C10.673 1.0071 8.79221 1.45324 7.90605 2.88398C7.47805 3.57517 7.34546 4.39295 7.53231 5.18668C7.63276 5.6167 7.82974 6.00646 8.091 6.34604H1.69908C1.27908 6.34604 0.9375 6.68772 0.9375 7.10963V13.3789C0.9375 13.7988 1.27909 14.1405 1.69908 14.1405V28.7989C1.69908 29.2209 2.04067 29.5625 2.46267 29.5625H27.5458C27.9658 29.5625 28.3073 29.2209 28.3073 28.7989V14.1405C28.7294 14.1405 29.0689 13.7988 29.0689 13.3789V7.10963C29.0689 6.68772 28.7294 6.34604 28.3073 6.34604H28.3073Z" fill="#282828"/>
<path fill-rule="evenodd" clip-rule="evenodd" d="M15.7627 12.6219V7.86457H27.5528V12.6219H15.7627Z" fill="#7563EB"/>
<path opacity="0.1" fill-rule="evenodd" clip-rule="evenodd" d="M26.0197 12.6219V7.86457H27.5524V12.6219H26.0197Z" fill="#040505"/>
<path fill-rule="evenodd" clip-rule="evenodd" d="M2.45437 12.6219V7.86457H14.2444V12.6219H2.45437Z" fill="#7563EB"/>
<path fill-rule="evenodd" clip-rule="evenodd" d="M3.22956 28.0365V14.1389H14.2455V28.0365H3.22956Z" fill="white"/>
<path opacity="0.2" fill-rule="evenodd" clip-rule="evenodd" d="M2.45434 12.6219V7.86457H3.98711V12.6219H2.45434Z" fill="white"/>
<path fill-rule="evenodd" clip-rule="evenodd" d="M15.7627 28.0365V14.1389H26.7787V28.0365H15.7627Z" fill="white"/>
<path opacity="0.1" fill-rule="evenodd" clip-rule="evenodd" d="M3.22961 28.0364V26.5193H14.2456V28.0364H3.22961Z" fill="#040505"/>
<path opacity="0.1" fill-rule="evenodd" clip-rule="evenodd" d="M25.2537 14.1371V23.6396C25.2537 25.2253 23.9678 26.5116 22.3805 26.5116H15.76V28.037H26.7767V14.1371H25.2537Z" fill="#040505"/>
</svg>
