<svg xmlns="http://www.w3.org/2000/svg" width="20" height="20" viewBox="0 0 20 20"><defs><style>.a{fill:none;}.b,.e,.f{fill:#282828;stroke:#282828;}.b{stroke-width:0.6px;}.c{fill:#ffcf48;}.d{fill:#fff;opacity:0.2;}.e{stroke-width:0.443px;}.f{stroke-width:0.82px;}</style></defs><rect class="a" width="19.506" height="19.506"/><g transform="translate(0.975 0.975)"><path class="b" d="M1023.839,16.5a8.849,8.849,0,1,0,8.849,8.849A8.846,8.846,0,0,0,1023.839,16.5Z" transform="translate(-1014.99 -16.5)"/><path class="c" d="M1024.229,33.847a8.109,8.109,0,1,1,8.109-8.109h0A8.11,8.11,0,0,1,1024.229,33.847Z" transform="translate(-1015.379 -16.889)"/><path class="d" d="M1016.853,26.472a8.1,8.1,0,0,1,13.458-6.083,8.1,8.1,0,0,0-12.186,10.678h0a8.16,8.16,0,0,0,.754.754A8.071,8.071,0,0,1,1016.853,26.472Z" transform="translate(-1015.378 -16.888)"/><g transform="translate(5.749 3.258)"><path class="e" d="M1026.86,21.47a3.026,3.026,0,0,0-3.1,2.943v.544a.387.387,0,0,0,.774,0v-.544a2.326,2.326,0,0,1,4.641,0v.642a2.074,2.074,0,0,1-.675,1.527l-1.121,1.062a2.892,2.892,0,0,0-.918,2.091v.21a.387.387,0,0,0,.774,0v-.21a2.092,2.092,0,0,1,.669-1.527l1.121-1.062a2.892,2.892,0,0,0,.918-2.091v-.642A3,3,0,0,0,1026.86,21.47Z" transform="translate(-1023.76 -21.47)"/><circle class="f" cx="0.583" cy="0.583" r="0.583" transform="translate(2.517 10.213)"/></g></g><rect class="a" width="20" height="20"/></svg>
