<svg width="24" height="24" viewBox="0 0 24 24" fill="none" xmlns="http://www.w3.org/2000/svg">
<path fill-rule="evenodd" clip-rule="evenodd" d="M4.32036 23.9999C1.93449 23.9999 0.000359341 22.0658 0.000359341 19.6799V4.31988C0.000359341 1.93401 1.93449 -0.0001152 4.32036 -0.0001152H19.6804C22.0662 -0.0001152 24.0004 1.93401 24.0004 4.31988V19.6799C24.0004 22.0658 22.0662 23.9999 19.6804 23.9999H4.32036Z" fill="#319898"/>
<path fill-rule="evenodd" clip-rule="evenodd" d="M16.2349 10.2943C16.2349 11.8032 16.2357 13.3122 16.2348 14.8211C16.2335 16.7178 15.0329 18.4791 13.2394 19.0897C11.4054 19.7138 9.76156 19.3244 8.39526 17.9406C7.6052 17.1404 7.21946 16.14 7.14401 15.0184C7.13327 14.8583 7.16288 14.7829 7.34962 14.7854C8.0935 14.7952 8.83759 14.7909 9.58158 14.7882C9.7154 14.7878 9.79205 14.8065 9.80552 14.975C9.87224 15.8161 10.5504 16.542 11.3732 16.674C12.206 16.8076 13.0555 16.3589 13.4057 15.6015C13.5225 15.3491 13.5828 15.0874 13.5824 14.8065C13.5791 12.579 13.5808 10.3514 13.5805 8.12384C13.5805 7.86843 13.5785 7.86687 13.3137 7.86648C12.8503 7.86578 12.3868 7.8605 11.9236 7.86916C11.7516 7.87245 11.6811 7.82865 11.6837 7.63987C11.6936 6.90187 11.6924 6.16361 11.6842 5.42553C11.6823 5.2561 11.744 5.21905 11.9001 5.2196C13.2771 5.22455 14.6543 5.22504 16.0313 5.21922C16.1983 5.2185 16.2384 5.2763 16.2379 5.43427C16.2331 7.05422 16.2349 8.67425 16.2349 10.2943L16.2349 10.2943Z" fill="#FBFDFD"/>
</svg>
