<svg width="24" height="24" viewBox="0 0 24 24" fill="none" xmlns="http://www.w3.org/2000/svg">
<path fill-rule="evenodd" clip-rule="evenodd" d="M11.9928 17.1083C10.8726 17.1083 9.88827 17.7363 9.36214 18.6528L11.0254 19.7389C11.2969 19.9596 11.6194 20.0953 11.9928 20.0953C12.3661 20.0953 12.7056 19.9596 12.9601 19.7389L14.6234 18.6528C14.1312 17.7533 13.1298 17.1083 11.9928 17.1083ZM11.9925 11.1512C8.78489 11.1512 5.98458 12.8484 4.38927 15.3602L6.8671 17.0064C7.91934 15.2753 9.80319 14.1212 11.9756 14.1212C14.131 14.1212 16.0318 15.2753 17.084 17.0064L19.5619 15.3602C18.0175 12.8484 15.2002 11.1512 11.9925 11.1512ZM0.485824 11.2361L11.2458 4.10795C11.6701 3.83643 12.332 3.83643 12.7563 4.10795L23.5163 11.2361C24.1612 11.6603 24.1612 12.3562 23.5163 12.7805L22.0737 13.7309C19.9523 10.3875 16.2185 8.18116 11.9926 8.18116C7.74966 8.18116 4.03289 10.4044 1.91144 13.7309L0.468851 12.7805C-0.159085 12.3562 -0.159085 11.6434 0.485829 11.2361H0.485824Z" fill="url(#paint0_linear_1_2461)"/>
<defs>
<linearGradient id="paint0_linear_1_2461" x1="30.4863" y1="33.0164" x2="30.4863" y2="10.1204" gradientUnits="userSpaceOnUse">
<stop stop-color="#F0C21A"/>
<stop offset="0.33" stop-color="#93C94B"/>
<stop offset="0.49" stop-color="#70C05A"/>
<stop offset="0.75" stop-color="#12B259"/>
<stop offset="0.9" stop-color="#22AD69"/>
<stop offset="1" stop-color="#22AD69"/>
</linearGradient>
</defs>
</svg>
