<svg width="24" height="24" viewBox="0 0 24 24" fill="none" xmlns="http://www.w3.org/2000/svg">
<path fill-rule="evenodd" clip-rule="evenodd" d="M17.7028 11.3398C17.8785 11.3189 18.0467 11.318 18.2013 11.3399C18.2909 11.135 18.3063 10.782 18.2258 10.3975C18.1061 9.82624 17.9442 9.48043 17.6095 9.53425C17.2749 9.58806 17.2626 10.002 17.3822 10.5734C17.4495 10.8949 17.5693 11.1696 17.7028 11.3398Z" fill="black"/>
<path fill-rule="evenodd" clip-rule="evenodd" d="M14.8364 11.7939C15.075 11.899 15.2215 11.9686 15.279 11.9078C15.3159 11.8698 15.3048 11.7974 15.2478 11.704C15.1301 11.5111 14.888 11.3154 14.6309 11.2056C14.1054 10.9785 13.4787 11.054 12.9954 11.4027C12.8357 11.52 12.6844 11.6827 12.7061 11.7815C12.7131 11.8134 12.737 11.8374 12.7929 11.8452C12.9246 11.8604 13.3844 11.627 13.9141 11.5945C14.2881 11.5715 14.5978 11.6888 14.8364 11.7939L14.8364 11.7939Z" fill="black"/>
<path fill-rule="evenodd" clip-rule="evenodd" d="M14.356 12.0685C14.0449 12.1173 13.8733 12.2193 13.7632 12.3141C13.6691 12.3959 13.611 12.4861 13.6115 12.5496C13.6118 12.5799 13.6249 12.5973 13.6353 12.606C13.6495 12.6184 13.6663 12.6253 13.6865 12.6253C13.7567 12.6253 13.9141 12.5626 13.9141 12.5626C14.3471 12.4085 14.6326 12.4272 14.9157 12.4592C15.0721 12.4767 15.1459 12.4864 15.1802 12.433C15.1904 12.4178 15.2026 12.3846 15.1714 12.3341C15.0985 12.2166 14.7844 12.0179 14.356 12.0685L14.356 12.0685Z" fill="black"/>
<path fill-rule="evenodd" clip-rule="evenodd" d="M16.7365 13.0716C16.9479 13.1747 17.1809 13.1343 17.2567 12.9812C17.3325 12.8282 17.2225 12.6205 17.011 12.5174C16.7994 12.4143 16.5665 12.4547 16.4906 12.6078C16.4149 12.7608 16.5249 12.9685 16.7365 13.0716Z" fill="black"/>
<path fill-rule="evenodd" clip-rule="evenodd" d="M18.0935 11.8891C17.9214 11.8862 17.7785 12.0741 17.7745 12.3087C17.7705 12.5433 17.9069 12.7359 18.0791 12.7387C18.2512 12.7416 18.3941 12.5538 18.3982 12.3192C18.4021 12.0846 18.2658 11.892 18.0935 11.8891Z" fill="black"/>
<path fill-rule="evenodd" clip-rule="evenodd" d="M6.5717 16.1278C6.52904 16.0743 6.45886 16.0907 6.39092 16.1065C6.34348 16.1175 6.28975 16.1301 6.23084 16.129C6.10457 16.1266 5.99764 16.0727 5.93764 15.9804C5.85942 15.8604 5.86392 15.6815 5.95029 15.4766C5.96195 15.449 5.97557 15.4183 5.99056 15.3848C6.1282 15.0761 6.35868 14.5594 6.09996 14.0669C5.90519 13.6963 5.58768 13.4656 5.20586 13.4171C4.83931 13.3706 4.46191 13.5065 4.22125 13.772C3.8415 14.1908 3.78218 14.7606 3.8556 14.9619C3.88246 15.0356 3.92462 15.056 3.9552 15.0602C4.0198 15.0689 4.11528 15.0219 4.17517 14.861C4.17948 14.8494 4.18517 14.8314 4.19234 14.8086C4.219 14.7235 4.2686 14.5652 4.34997 14.4382C4.448 14.285 4.60082 14.1795 4.78012 14.1411C4.96274 14.1021 5.14939 14.1369 5.30575 14.2392C5.5717 14.4132 5.67413 14.739 5.56062 15.0499C5.5019 15.2106 5.40653 15.5181 5.4276 15.7707C5.47004 16.282 5.78473 16.4872 6.06734 16.5091C6.34221 16.5195 6.53424 16.3652 6.58288 16.2525C6.61149 16.1858 6.58738 16.1453 6.57171 16.1278H6.5717Z" fill="black"/>
<path fill-rule="evenodd" clip-rule="evenodd" d="M9.18121 6.74006C10.077 5.70485 11.1799 4.80477 12.1677 4.29942C12.2019 4.28198 12.2382 4.31902 12.2197 4.35263C12.1413 4.4947 11.9902 4.79879 11.9423 5.02962C11.9349 5.0655 11.974 5.09262 12.0043 5.07196C12.619 4.65303 13.6881 4.2041 14.6259 4.1464C14.6662 4.14395 14.6857 4.19559 14.6536 4.22018C14.511 4.3295 14.355 4.48088 14.2412 4.63401C14.2218 4.66007 14.24 4.69759 14.2724 4.6979C14.931 4.70251 15.8593 4.93302 16.4643 5.27231C16.5052 5.29533 16.476 5.3746 16.4303 5.36412C15.5148 5.15425 14.0163 4.99505 12.4597 5.3748C11.07 5.71368 10.0094 6.23707 9.23558 6.79983C9.19648 6.82823 9.14956 6.7766 9.1812 6.74007L9.18121 6.74006ZM17.3372 17.206C17.3637 17.1948 17.3821 17.1645 17.379 17.1344C17.3752 17.0975 17.3422 17.0705 17.3053 17.0742C17.3053 17.0742 15.3934 17.3573 13.5873 16.6961C13.784 16.0567 14.3072 16.2876 15.0977 16.3514C16.5228 16.4363 17.8001 16.2281 18.744 15.9572C19.562 15.7225 20.6364 15.2597 21.4707 14.6011C21.7522 15.2193 21.8515 15.8997 21.8515 15.8997C21.8515 15.8997 22.0694 15.8607 22.2515 15.9728C22.4235 16.0786 22.5497 16.2988 22.4636 16.8678C22.2881 17.9308 21.8361 18.7937 21.0768 19.5874C20.6145 20.085 20.0532 20.5177 19.4111 20.8322C19.0701 21.0114 18.707 21.1664 18.3234 21.2916C15.4605 22.2267 12.53 21.1986 11.5853 18.9911C11.5099 18.8251 11.4461 18.6514 11.3959 18.4697C10.9933 17.015 11.3351 15.2696 12.4034 14.1711L12.4033 14.1706C12.4692 14.1005 12.5364 14.0182 12.5364 13.9145C12.5364 13.8278 12.4813 13.7364 12.4335 13.6715C12.0597 13.1293 10.7651 12.2056 11.0249 10.4178C11.2116 9.13356 12.3348 8.22897 13.3821 8.28257C13.4705 8.28717 13.5591 8.29266 13.6474 8.29785C14.1012 8.32468 14.4971 8.38288 14.8708 8.39855C15.496 8.42549 16.0584 8.33469 16.7242 7.77976C16.9489 7.59254 17.129 7.43029 17.4338 7.37865C17.4657 7.37317 17.5454 7.34466 17.7047 7.3521C17.8673 7.36082 18.022 7.40551 18.1612 7.49798C18.695 7.85324 18.7707 8.71375 18.7985 9.34313C18.8142 9.70249 18.8577 10.5717 18.8724 10.8212C18.9064 11.3919 19.0564 11.4724 19.3599 11.5723C19.5305 11.6285 19.689 11.6704 19.9224 11.7359C20.6292 11.9343 21.0481 12.1356 21.3123 12.3942C21.4698 12.5558 21.543 12.7274 21.5657 12.8912C21.649 13.4992 21.0937 14.2501 19.6236 14.9324C18.0167 15.6783 16.0672 15.8672 14.7202 15.7172C14.617 15.7056 14.2497 15.664 14.2484 15.6638C13.171 15.5187 12.5563 16.9112 13.2029 17.8651C13.6197 18.4799 14.7548 18.8801 15.8905 18.8802C18.4946 18.8806 20.4962 17.7686 21.2406 16.8081C21.2629 16.7794 21.2651 16.7763 21.3002 16.7233C21.3368 16.668 21.3066 16.6377 21.261 16.6689C20.6527 17.0851 17.9508 18.7374 15.0609 18.2404C15.0609 18.2404 14.7097 18.1827 14.3891 18.0579C14.1343 17.9588 13.6013 17.7136 13.5364 17.1665C15.8688 17.8879 17.3372 17.206 17.3372 17.206L17.3372 17.206ZM4.52695 11.6635C3.71582 11.8211 3.0009 12.2808 2.56385 12.9159C2.30246 12.6979 1.81572 12.276 1.7297 12.1117C1.03183 10.7864 2.49145 8.20979 3.51106 6.75479C6.03104 3.15866 9.97772 0.436866 11.8048 0.930633C12.1018 1.0147 13.0854 2.15531 13.0854 2.15531C13.0854 2.15531 11.2592 3.16856 9.56555 4.58104C7.28354 6.33821 5.55969 8.89219 4.52695 11.6635H4.52695ZM5.88986 17.7446C5.7672 17.7655 5.64189 17.7738 5.5156 17.7708C4.29524 17.738 2.9769 16.6393 2.84592 15.3364C2.70112 13.8961 3.437 12.7877 4.74004 12.5249C4.89573 12.4935 5.08403 12.4755 5.28693 12.4859C6.01703 12.5259 7.09279 13.0865 7.3386 14.6768C7.55621 16.0853 7.21055 17.5193 5.88987 17.7446L5.88986 17.7446ZM22.4226 15.1943C22.4121 15.1574 22.344 14.9083 22.2504 14.6083C22.1569 14.3083 22.06 14.0971 22.06 14.0971C22.4353 13.5352 22.442 13.0326 22.3922 12.748C22.3388 12.3952 22.192 12.0945 21.8959 11.7837C21.5998 11.4729 20.9943 11.1546 20.1434 10.9157C20.046 10.8884 19.7252 10.8003 19.6969 10.7917C19.6947 10.7733 19.6735 9.73904 19.6541 9.29514C19.6399 8.97416 19.6124 8.47323 19.4569 7.97963C19.2717 7.31174 18.9489 6.72715 18.546 6.35328C19.6579 5.20062 20.352 3.93098 20.3503 2.84159C20.3472 0.746821 17.7745 0.113029 14.6042 1.42578C14.6009 1.42715 13.9373 1.70853 13.9325 1.71098C13.9295 1.70804 12.7181 0.519421 12.6999 0.503557C9.08532 -2.64925 -2.21614 9.91266 1.39712 12.9636L2.18679 13.6325C1.98192 14.1631 1.9015 14.771 1.96723 15.4248C2.05159 16.2644 2.48473 17.0692 3.18671 17.6912C3.85313 18.2817 4.72931 18.6553 5.57962 18.6547C6.98564 21.8948 10.1984 23.8827 13.9654 23.9946C18.006 24.1146 21.3981 22.2186 22.8194 18.8126C22.9124 18.5735 23.3068 17.4965 23.3068 16.5458C23.3068 15.5903 22.7667 15.1943 22.4226 15.1943L22.4226 15.1943Z" fill="black"/>
</svg>
