<svg width="24" height="24" viewBox="0 0 24 24" fill="none" xmlns="http://www.w3.org/2000/svg">
<path fill-rule="evenodd" clip-rule="evenodd" d="M8.93999 8.74584C7.48199 8.74584 6.29999 7.56087 6.29999 6.09922C6.29999 4.63757 7.48199 3.45261 8.93999 3.45261C10.398 3.45261 11.58 4.63757 11.58 6.09922C11.58 7.56087 10.398 8.74584 8.93999 8.74584ZM21.42 0H2.58C1.152 0 0 1.1609 0 2.58647V21.4135C0 22.6406 0.858 23.6692 2.004 23.9338C2.19 23.9759 2.382 24 2.58 24H7.998V23.0135C7.998 19.206 7.53 16.2827 4.71 15.4346V12.3188C9.3 12.7278 11.58 16.1564 11.58 21.7865V24H21.42C22.848 24 24 22.8451 24 21.4135V2.58647C24 1.1609 22.848 0 21.42 0Z" fill="#676E77"/>
</svg>
