<svg width="24" height="24" viewBox="0 0 24 24" fill="none" xmlns="http://www.w3.org/2000/svg">
<path fill-rule="evenodd" clip-rule="evenodd" d="M14.9997 12.0051C14.9992 12.8969 14.8361 13.7505 14.5389 14.5385C13.751 14.8358 12.897 14.9993 12.0049 14.9999H11.9946C11.1029 14.9993 10.2491 14.8362 9.46126 14.5391C9.16402 13.7511 9.00035 12.8971 8.99975 12.0051V11.9948C9.00035 11.103 9.16367 10.2494 9.46043 9.46138C10.2487 9.16408 11.1026 9.00047 11.9946 8.99992H12.0049C12.897 9.00047 13.751 9.16408 14.5389 9.46138C14.8361 10.2494 14.9992 11.103 14.9997 11.9948V12.0051ZM23.833 10H16.8282L21.7812 5.04696C21.3919 4.50018 20.9579 3.98748 20.4845 3.51414L20.4842 3.5139C20.0113 3.04104 19.499 2.60748 18.9528 2.21856L13.9997 7.17156V0.166862C13.3512 0.0580224 12.6855 0.00036 12.0061 0H11.9933C11.314 0.00036 10.6483 0.0580176 9.99972 0.166862V7.17162L5.04671 2.21856C4.50023 2.60766 3.98777 3.04146 3.51467 3.51456L3.51293 3.51624C3.04037 3.98899 2.60712 4.50102 2.21837 5.04696L7.17143 10H0.166556C0.166556 10 -4.14062e-06 11.3156 -0.000244141 11.9956V12.0042C-4.14062e-06 12.6843 0.0577159 13.3509 0.166618 14H7.17132L2.21838 18.953C2.99676 20.046 3.9537 21.0031 5.04678 21.7814L9.99972 16.8285V23.8331C10.6475 23.9418 11.3126 23.9995 11.9912 24H12.0084C12.6869 23.9995 13.352 23.9418 13.9997 23.8332V16.8284L18.9529 21.7814C19.4992 21.3924 20.0114 20.9588 20.4845 20.4859L20.4857 20.4847C20.9585 20.0117 21.3922 19.4993 21.7811 18.9531L16.8281 14H23.8329C23.9416 13.3522 23.9993 12.6871 23.9998 12.0085V11.9914C23.9993 11.3128 23.9416 10.6478 23.833 10V10Z" fill="#FF4A00"/>
</svg>
