<?xml version="1.0" encoding="UTF-8"?>
<svg fill="none" viewBox="0 0 440 485" xmlns="http://www.w3.org/2000/svg" xmlns:xlink="http://www.w3.org/1999/xlink">
<g clip-path="url(#b)">
<rect x="5.5" y=".5" width="429" height="789" rx="45.5" stroke="#EAEAEA"/>
<rect x="15.5" y="11.5" width="408" height="767" rx="45.5" stroke="#EAEAEA"/>
<path d="m29.5 70c0-25.129 20.371-45.5 45.5-45.5h289c25.129 0 45.5 20.371 45.5 45.5v636c0 25.129-20.371 45.5-45.5 45.5h-289c-25.129 0-45.5-20.371-45.5-45.5v-636z" stroke="#EAEAEA"/>
<path d="m435 202c2.761 0 5 2.239 5 5v92c0 2.761-2.239 5-5 5v-102z" fill="#EAEAEA"/>
<path d="m5 152c-2.7614 0-5-2.239-5-5l2.273e-6 -26c2.4141e-7 -2.761 2.2386-5 5-5v36z" fill="#EAEAEA"/>
<path d="m5 242c-2.7614 0-5-2.239-5-5l4.6334e-6 -53c2.4141e-7 -2.761 2.2386-5 5-5l-1e-5 63z" fill="#EAEAEA"/>
<path d="m5 323c-2.7614 0-5-2.239-5-5l4.6334e-6 -53c2.4141e-7 -2.761 2.2386-5 5-5l-1e-5 63z" fill="#EAEAEA"/>
<g clip-path="url(#a)">
<rect transform="translate(112 24)" width="215" height="33" fill="#fff"/>
<rect x="112.5" y="1.5" width="214" height="51" rx="23.5" stroke="#EAEAEA"/>
<rect x="185.5" y="33" width="51" height="8" rx="4" stroke="#EAEAEA"/>
<rect x="243.5" y="31.5" width="11" height="11" rx="5.5" stroke="#EAEAEA"/>
</g>
</g>
<defs>
<clipPath id="b">
<rect width="440" height="485" fill="#fff"/>
</clipPath>
<clipPath id="a">
<rect transform="translate(112 24)" width="215" height="33" fill="#fff"/>
</clipPath>
</defs>
</svg>
