<svg width="24" height="24" viewBox="0 0 24 24" fill="none" xmlns="http://www.w3.org/2000/svg">
<rect width="24" height="24" rx="6" fill="white"/>
<g opacity="0.1">
<path d="M10 10V8C10 6.89543 9.10457 6 8 6C6.89543 6 6 6.89543 6 8C6 9.10457 6.89543 10 8 10H10Z" fill="#15161E"/>
<path d="M14 10V8C14 6.89543 14.8954 6 16 6C17.1046 6 18 6.89543 18 8C18 9.10457 17.1046 10 16 10H14Z" fill="#15161E"/>
<path d="M10 14V16C10 17.1046 9.10457 18 8 18C6.89543 18 6 17.1046 6 16C6 14.8954 6.89543 14 8 14H10Z" fill="#15161E"/>
<path d="M14 14V16C14 17.1046 14.8954 18 16 18C17.1046 18 18 17.1046 18 16C18 14.8954 17.1046 14 16 14H14Z" fill="#15161E"/>
</g>
<path d="M10 10V8C10 6.89543 9.10457 6 8 6C6.89543 6 6 6.89543 6 8C6 9.10457 6.89543 10 8 10H10ZM10 10V14M10 10H14M10 14V16C10 17.1046 9.10457 18 8 18C6.89543 18 6 17.1046 6 16C6 14.8954 6.89543 14 8 14H10ZM10 14H14M14 14H16C17.1046 14 18 14.8954 18 16C18 17.1046 17.1046 18 16 18C14.8954 18 14 17.1046 14 16V14ZM14 14V10M14 10V8C14 6.89543 14.8954 6 16 6C17.1046 6 18 6.89543 18 8C18 9.10457 17.1046 10 16 10H14Z" stroke="#15161E" stroke-width="1.33333" stroke-linecap="round" stroke-linejoin="round"/>
</svg>
