<svg width="24" height="24" viewBox="0 0 24 24" fill="none" xmlns="http://www.w3.org/2000/svg">
<rect width="24" height="24" rx="6" fill="white"/>
<path d="M8.61865 17.0002C8.34251 17.0002 8.11865 16.7763 8.11865 16.5002V7.31836C8.11865 7.04222 8.34251 6.81836 8.61865 6.81836H9.15487C9.43102 6.81836 9.65487 7.04222 9.65487 7.31836V11.595C9.65487 11.6423 9.69318 11.6806 9.74044 11.6806C9.76505 11.6806 9.78848 11.67 9.80472 11.6515L13.9004 6.9884C13.9953 6.88032 14.1322 6.81836 14.2761 6.81836H14.8645C15.2968 6.81836 15.5254 7.32997 15.2369 7.65199L12.1484 11.0994C11.9904 11.2758 11.9778 11.5388 12.1182 11.7295L15.4123 16.2037C15.6553 16.5339 15.4196 17.0002 15.0096 17.0002H14.4046C14.2442 17.0002 14.0935 16.9232 13.9995 16.7933L11.227 12.9611C11.0383 12.7004 10.656 12.6832 10.4447 12.9259L9.77775 13.6921C9.69852 13.7831 9.65487 13.8997 9.65487 14.0204V16.5002C9.65487 16.7763 9.43102 17.0002 9.15487 17.0002H8.61865Z" fill="#15161E"/>
</svg>
