<svg
          class="google_svg"
          width="26"
          height="27"
          viewBox="0 0 26 27"
          fill="none"
          xmlns="http://www.w3.org/2000/svg"
        >
          <path
            d="M5.6828 16.4968L4.7898 19.8288L1.5268 19.8978C0.540031 18.0598 0.0157974 16.009 -0.000580633 13.9229C-0.0169587 11.8368 0.475012 9.77812 1.4328 7.9248L4.3328 8.45779L5.6048 11.3448C5.0325 13.0188 5.05795 14.8394 5.6768 16.4968H5.6828Z"
            fill="#FBBB00"
          />
          <path
            d="M25.42 11.427C25.8553 13.7134 25.6598 16.0751 24.8545 18.2588C24.0492 20.4425 22.6645 22.3657 20.849 23.822L17.19 23.635L16.672 20.403C18.1824 19.518 19.3431 18.1412 19.96 16.503H13.104V11.43H25.42V11.427Z"
            fill="#518EF8"
          />
          <path
            d="M20.8488 23.8198C19.3815 24.9974 17.6731 25.8377 15.8447 26.2812C14.0163 26.7248 12.1128 26.7606 10.269 26.3862C8.42518 26.0119 6.68634 25.2364 5.17572 24.115C3.6651 22.9935 2.4197 21.5534 1.52783 19.8968L5.68283 16.4968C6.07348 17.5364 6.68647 18.4781 7.47894 19.2561C8.27141 20.0341 9.22425 20.6296 10.2708 21.0011C11.3174 21.3725 12.4325 21.5109 13.5381 21.4065C14.6437 21.3021 15.7132 20.9575 16.6718 20.3968L20.8488 23.8198Z"
            fill="#28B446"
          />
          <path
            d="M21.0096 3.95192L16.8556 7.35192C15.8824 6.74502 14.7847 6.36551 13.6444 6.24165C12.5041 6.11779 11.3506 6.25277 10.2697 6.63655C9.18887 7.02032 8.20849 7.643 7.40164 8.45821C6.59479 9.27342 5.98224 10.2601 5.60962 11.3449L1.43262 7.92492C2.31379 6.22335 3.56506 4.74086 5.09445 3.58641C6.62384 2.43195 8.39249 1.63488 10.2704 1.25377C12.1483 0.872665 14.0878 0.917207 15.9462 1.38413C17.8046 1.85105 19.5348 2.72847 21.0096 3.95192Z"
            fill="#F14336"
          />
        </svg>
