<svg width="1020" height="270" viewBox="0 0 1020 270" fill="none" xmlns="http://www.w3.org/2000/svg">
<path d="M401 94.4001H377.9C377.3 94.4001 376.8 95.0001 376.8 95.5001V100C376.8 101.1 375.7 101.7 375.1 100.6C371.7 96.7001 364.4 92.7001 353.2 92.7001C329.6 92.7001 313.3 112.4 313.3 134.9C313.3 158.5 330.7 177.1 353.2 177.1C363.9 177.1 370.6 173.7 374.6 169.8C375.2 169.2 376.3 169.8 376.3 170.4V171.5C376.3 187.3 368.4 193.4 354.9 193.4C345.3 193.4 338.6 187.8 336.3 179.9C336.3 179.3 335.7 178.8 335.2 179.3L313.8 185.5C313.2 185.5 312.7 186.1 313.2 186.6C316 201.8 331.8 216.4 356 216.4C388.1 216.4 402.1 195 402.1 170.3V95.5001C402.1 95.0001 401.6 94.4001 401 94.4001ZM357.7 154.1C347 154.1 339.1 146.8 339.1 135C339.1 123.2 347.5 115.9 357.7 115.9C367.9 115.9 376.3 123.2 376.3 135C376.3 146.8 368.4 154.1 357.7 154.1Z" fill="black"/>
<path d="M492.7 167V124.8C492.7 107.4 482.6 91.6001 454.4 91.6001C429.6 91.6001 418.4 106.8 416.7 119.2C416.7 119.8 417.3 120.3 417.8 120.3L438.6 124.8C439.2 124.8 439.7 124.8 439.7 123.7C440.8 117.5 445.9 111.9 454.3 111.9C462.7 111.9 466.7 116.4 466.7 121.5C466.7 124.3 465 126.6 460.5 127.1L440.2 130.5C426.1 132.8 414.9 141.2 414.9 156.4C414.9 169.9 425.6 182.3 444.7 182.3C454.8 182.3 462.1 178.4 467.2 172.7C467.8 172.1 468.9 172.1 468.9 173.3C468.9 176.1 469.5 177.8 469.5 178.9C469.5 179.5 470.1 180 470.6 180H492C492.6 180 493.1 179.4 493.1 178.9C492.7 177.1 492.7 172.1 492.7 167ZM466.8 146.8C466.8 160.3 458.9 163.7 451 163.7C443.7 163.7 440.9 159.2 440.9 154.7C440.9 148.5 444.8 146.3 450.5 145.1L465.7 142.8C466.3 142.8 466.8 143.4 466.8 143.9V146.8Z" fill="black"/>
<path d="M611.4 91.6001C600.1 91.6001 592.3 95.0001 585.5 104C584.9 104.6 583.8 104.6 583.8 104C579.3 96.1001 570.9 92.2001 559 92.2001C550.6 92.2001 541.6 96.1001 535.9 101.8C535.3 102.4 534.2 101.8 534.2 101.2V96.1001C534.2 95.5001 533.6 95.0001 533.1 95.0001H510C509.4 95.0001 508.9 95.6001 508.9 96.1001V180C508.9 180.6 509.5 181.1 510 181.1H534.2C534.8 181.1 535.3 180.5 535.3 180V131.6C535.3 123.7 540.4 116.4 549.4 116.4C559 116.4 563.5 122.6 563.5 131V180C563.5 180.6 564.1 181.1 564.6 181.1H588.2C588.8 181.1 589.3 180.5 589.3 180V131.6C589.3 123.7 594.4 117 603.9 117C613.5 117 617.4 123.2 617.4 131.6V180.5C617.4 181.1 618 181.6 618.5 181.6H641.6C642.2 181.6 642.7 181 642.7 180.5V125.9C642.9 101.2 627.7 91.6001 611.4 91.6001Z" fill="black"/>
<path d="M698.6 91.6001C676.1 91.6001 655.8 109 655.8 137.2C655.8 165.9 677.2 183.3 700.8 183.3C722.2 183.3 735.7 171.5 740.2 156.9C740.2 156.3 740.2 155.8 739.6 155.8L719.9 150.2C719.3 150.2 718.8 150.2 718.8 150.8C716 157 710.9 160.9 701.9 160.9C692.3 160.9 683.9 154.7 682.2 145.7C682.2 145.1 682.8 144.6 683.3 144.6H741.2C741.8 144.6 742.3 144 742.3 143.5C742.3 141.8 742.9 139 742.9 136.2C741.9 107.9 725.6 91.6001 698.6 91.6001ZM714.9 127.1H682.8C682.2 127.1 681.7 126.5 681.7 126C682.8 119.8 688.5 112.5 698.6 112.5C710.4 112.5 714.9 119.3 716 126C716 126.5 716 127.1 714.9 127.1Z" fill="black"/>
<path d="M806 92.2001C795.9 92.2001 787.4 95.6001 782.9 100.1C782.3 100.7 781.2 100.1 781.2 99.5001V56.2001C781.2 55.6001 780.6 55.1001 780.1 55.1001H756.5C755.9 55.1001 755.4 55.7001 755.4 56.2001V179.4C755.4 180 756 180.5 756.5 180.5H779.6C780.2 180.5 780.7 179.9 780.7 179.4V174.3C780.7 173.2 781.8 172.6 782.4 173.7C786.9 178.8 794.8 182.7 804.9 182.7C829.1 182.7 846 163.6 846 137.7C846 111.3 831.3 92.2001 806 92.2001ZM800.4 158.6C790.3 158.6 780.7 151.3 780.7 137.2C780.7 122.6 790.3 115.8 800.4 115.8C810.5 115.8 819.5 122.6 819.5 137.2C820.1 151.8 810.5 158.6 800.4 158.6Z" fill="black"/>
<path d="M932.6 167V124.8C932.6 107.4 922.5 91.6001 894.3 91.6001C869.5 91.6001 858.3 106.8 856.6 119.2C856.6 119.8 857.2 120.3 857.7 120.3L878.5 124.8C879.1 124.8 879.6 124.8 879.6 123.7C880.7 117.5 885.8 111.9 894.2 111.9C902.6 111.9 906.6 116.4 906.6 121.5C906.6 124.3 904.9 126.6 900.4 127.1L880.1 130.5C866 132.8 854.8 141.2 854.8 156.4C854.8 169.9 865.5 182.3 884.6 182.3C894.7 182.3 902 178.4 907.1 172.7C907.7 172.1 908.8 172.1 908.8 173.3C908.8 176.1 909.4 177.8 909.4 178.9C909.4 179.5 910 180 910.5 180H931.9C932.5 180 933 179.4 933 178.9C932.6 177.1 932.6 172.1 932.6 167ZM906.7 146.8C906.7 160.3 898.8 163.7 890.9 163.7C883.6 163.7 880.8 159.2 880.8 154.7C880.8 148.5 884.7 146.3 890.4 145.1L905.6 142.8C906.2 142.8 906.7 143.4 906.7 143.9V146.8Z" fill="black"/>
<path d="M974.2 55.1001H950C949.4 55.1001 948.9 55.7001 948.9 56.2001V179.4C948.9 180 949.5 180.5 950 180.5H974.2C974.8 180.5 975.3 179.9 975.3 179.4V56.2001C975.4 55.6001 974.8 55.1001 974.2 55.1001Z" fill="black"/>
<path d="M1018.1 55.1001H993.9C993.3 55.1001 992.8 55.7001 992.8 56.2001V179.4C992.8 180 993.4 180.5 993.9 180.5H1018.1C1018.7 180.5 1019.2 179.9 1019.2 179.4V56.2001C1019.2 55.6001 1018.7 55.1001 1018.1 55.1001Z" fill="black"/>
<path d="M135.2 269.6C209.427 269.6 269.6 209.427 269.6 135.2C269.6 60.973 209.427 0.800049 135.2 0.800049C60.973 0.800049 0.800049 60.973 0.800049 135.2C0.800049 209.427 60.973 269.6 135.2 269.6Z" fill="#FFD900"/>
<path d="M197.3 85.6001L133.6 95.6001V92.5001C133.6 88.2001 129.8 84.9001 125.5 85.6001L70.7999 94.2001C66.2999 94.9001 63.6 99.7001 65.5 103.9L80.1 136.8C80.9 138.6 80.9 140.6 80.2 142.3L66.7 174.6C64.6 179.7 68.8 185.1 74.2 184.2L133.6 174.9V178C133.6 182.3 137.4 185.6 141.7 184.9L199.5 175.8C202.9 175.3 205.4 172.3 205.4 168.9V92.5001C205.4 88.2001 201.6 84.9001 197.3 85.6001Z" fill="#FC5819"/>
</svg>
