<?xml version="1.0" encoding="utf-8"?>
<!-- Generated by IcoMoon.io -->
<svg version="1.1" xmlns="http://www.w3.org/2000/svg" xmlns:xlink="http://www.w3.org/1999/xlink" width="752" height="32" viewBox="0 0 752 32">
<svg id="icon-icon_Dashboard_HiFi-M_Active" width="32" height="32" viewBox="0 0 32 32" x="0" y="0">
<path fill="#49545e" d="M5.443 24.758h21.343c-2.594 3.011-6.411 4.906-10.671 4.906s-8.078-1.895-10.656-4.887l-0.015-0.018z"></path>
<path fill="#050605" opacity="0.2" d="M24.613 24.758c-2.365 2.756-5.758 4.571-9.579 4.845l-0.045 0.003c0.361 0.027 0.719 0.061 1.087 0.061 0.022 0 0.049 0 0.076 0 4.248 0 8.054-1.896 10.617-4.888l0.016-0.019z"></path>
<path fill="#ffcf48" d="M15.999 1.952c7.751-0.188 14.187 6.366 14.388 14.657 0 0.002 0 0.004 0 0.006 0 2.694-0.722 5.219-1.983 7.393l0.038-0.071h-24.877c-1.224-2.105-1.947-4.632-1.947-7.328v-0c0.204-8.287 6.633-14.841 14.381-14.657z"></path>
<path fill="#050605" opacity="0.1" d="M4.308 19.359c0.204-8.291 6.635-14.846 14.383-14.657 3.306 0.004 6.345 1.143 8.748 3.049l-0.029-0.022c-2.618-3.507-6.751-5.757-11.411-5.772h-0.002c-7.748-0.188-14.179 6.367-14.383 14.657 0.002 2.696 0.727 5.222 1.991 7.395l-0.038-0.070h1.511c-0.477-1.364-0.758-2.937-0.77-4.573l-0-0.006z"></path>
<path fill="#282828" d="M11.361 6.804c0 0.417-0.354 0.754-0.791 0.754s-0.791-0.338-0.791-0.754c0-0.417 0.354-0.754 0.791-0.754s0.791 0.338 0.791 0.754z"></path>
<path fill="#282828" d="M16.884 5.389c0 0.417-0.354 0.754-0.791 0.754s-0.791-0.338-0.791-0.754c0-0.417 0.354-0.754 0.791-0.754s0.791 0.338 0.791 0.754z"></path>
<path fill="#282828" d="M7.323 10.666c0 0.416-0.354 0.754-0.791 0.754s-0.791-0.338-0.791-0.754c0-0.416 0.354-0.754 0.791-0.754s0.791 0.338 0.791 0.754z"></path>
<path fill="#282828" d="M5.837 15.946c0 0.416-0.354 0.754-0.791 0.754s-0.791-0.338-0.791-0.754c0-0.416 0.354-0.754 0.791-0.754s0.791 0.338 0.791 0.754z"></path>
<path fill="#282828" d="M27.93 15.946c0 0.416-0.354 0.754-0.791 0.754s-0.791-0.338-0.791-0.754c0-0.416 0.354-0.754 0.791-0.754s0.791 0.338 0.791 0.754z"></path>
<path fill="#282828" d="M26.442 10.669c0 0.416-0.354 0.754-0.791 0.754s-0.791-0.338-0.791-0.754c0-0.416 0.354-0.754 0.791-0.754s0.791 0.338 0.791 0.754z"></path>
<path fill="#282828" d="M22.409 6.803c0 0.417-0.354 0.754-0.791 0.754s-0.791-0.338-0.791-0.754c0-0.417 0.354-0.754 0.791-0.754s0.791 0.338 0.791 0.754z"></path>
<path fill="#282828" d="M17.613 13.408l-0.747-3.552c-0.089-0.352-0.403-0.608-0.777-0.608s-0.687 0.256-0.775 0.602l-0.001 0.006-0.747 3.552c-0.971 0.496-1.628 1.483-1.644 2.625l-0 0.002c0.078 1.688 1.466 3.027 3.166 3.027s3.088-1.339 3.166-3.020l0-0.007c-0.016-1.143-0.672-2.13-1.625-2.619l-0.017-0.008zM16.093 17.545c-0.801-0.041-1.435-0.7-1.435-1.508 0-0.834 0.676-1.509 1.509-1.509s1.509 0.675 1.509 1.509v0c-0.021 0.838-0.705 1.51-1.546 1.51-0.014 0-0.027-0-0.041-0.001l0.002 0z"></path>
<path fill="#282828" d="M16 1.067c-8.247 0-14.933 6.686-14.933 14.933s6.686 14.933 14.933 14.933c8.247 0 14.933-6.686 14.933-14.933v0c-0.010-8.244-6.69-14.924-14.932-14.933h-0.001zM16 2.47c0.005 0 0.010 0 0.016 0 7.466 0 13.518 6.052 13.518 13.518 0 2.86-0.888 5.513-2.404 7.698l0.029-0.045h-22.317c-1.486-2.14-2.374-4.792-2.374-7.652 0-7.466 6.052-13.518 13.518-13.518 0.005 0 0.011 0 0.016 0h-0.001zM16 29.532c-3.982-0.002-7.559-1.73-10.026-4.475l-0.011-0.012h20.075c-2.478 2.757-6.056 4.485-10.037 4.487h-0.001z"></path>
</svg>
<svg id="icon-icon_Dashboard_HiFi-M_InActive" width="32" height="32" viewBox="0 0 32 32" x="48" y="0">
<path fill="#f6f6f6" d="M5.443 24.758h21.343c-2.594 3.011-6.411 4.906-10.671 4.906s-8.078-1.895-10.656-4.887l-0.015-0.018z"></path>
<path fill="#f6f6f6" d="M15.999 1.952c7.751-0.188 14.187 6.366 14.388 14.657 0 0.002 0 0.004 0 0.006 0 2.694-0.722 5.219-1.983 7.393l0.038-0.071h-24.877c-1.224-2.105-1.947-4.632-1.947-7.328v-0c0.204-8.287 6.633-14.841 14.381-14.657z"></path>
<path fill="#282828" d="M11.361 6.804c0 0.417-0.354 0.754-0.791 0.754s-0.791-0.338-0.791-0.754c0-0.417 0.354-0.754 0.791-0.754s0.791 0.338 0.791 0.754z"></path>
<path fill="#282828" d="M16.884 5.389c0 0.417-0.354 0.754-0.791 0.754s-0.791-0.338-0.791-0.754c0-0.417 0.354-0.754 0.791-0.754s0.791 0.338 0.791 0.754z"></path>
<path fill="#282828" d="M7.323 10.666c0 0.416-0.354 0.754-0.791 0.754s-0.791-0.338-0.791-0.754c0-0.416 0.354-0.754 0.791-0.754s0.791 0.338 0.791 0.754z"></path>
<path fill="#282828" d="M5.837 15.946c0 0.416-0.354 0.754-0.791 0.754s-0.791-0.338-0.791-0.754c0-0.416 0.354-0.754 0.791-0.754s0.791 0.338 0.791 0.754z"></path>
<path fill="#282828" d="M27.93 15.946c0 0.416-0.354 0.754-0.791 0.754s-0.791-0.338-0.791-0.754c0-0.416 0.354-0.754 0.791-0.754s0.791 0.338 0.791 0.754z"></path>
<path fill="#282828" d="M26.442 10.669c0 0.416-0.354 0.754-0.791 0.754s-0.791-0.338-0.791-0.754c0-0.416 0.354-0.754 0.791-0.754s0.791 0.338 0.791 0.754z"></path>
<path fill="#282828" d="M22.409 6.803c0 0.417-0.354 0.754-0.791 0.754s-0.791-0.338-0.791-0.754c0-0.417 0.354-0.754 0.791-0.754s0.791 0.338 0.791 0.754z"></path>
<path fill="#282828" d="M17.613 13.408l-0.747-3.552c-0.089-0.352-0.403-0.608-0.777-0.608s-0.687 0.256-0.775 0.602l-0.001 0.006-0.747 3.552c-0.971 0.496-1.628 1.483-1.644 2.625l-0 0.002c0.078 1.688 1.466 3.027 3.166 3.027s3.088-1.339 3.166-3.020l0-0.007c-0.016-1.143-0.672-2.13-1.625-2.619l-0.017-0.008zM16.093 17.545c-0.801-0.041-1.435-0.7-1.435-1.508 0-0.834 0.676-1.509 1.509-1.509s1.509 0.675 1.509 1.509v0c-0.021 0.838-0.705 1.51-1.546 1.51-0.014 0-0.027-0-0.041-0.001l0.002 0z"></path>
<path fill="#282828" d="M16 1.067c-8.247 0-14.933 6.686-14.933 14.933s6.686 14.933 14.933 14.933c8.247 0 14.933-6.686 14.933-14.933v0c-0.010-8.244-6.69-14.924-14.932-14.933h-0.001zM16 2.47c0.005 0 0.010 0 0.016 0 7.466 0 13.518 6.052 13.518 13.518 0 2.86-0.888 5.513-2.404 7.698l0.029-0.045h-22.317c-1.486-2.14-2.374-4.792-2.374-7.652 0-7.466 6.052-13.518 13.518-13.518 0.005 0 0.011 0 0.016 0h-0.001zM16 29.532c-3.982-0.002-7.559-1.73-10.026-4.475l-0.011-0.012h20.075c-2.478 2.757-6.056 4.485-10.037 4.487h-0.001z"></path>
</svg>
<svg id="icon-icon_GamePlan_HiFi-M_Active" width="32" height="32" viewBox="0 0 32 32" x="96" y="0">
<path fill="#282828" d="M30.93 1.783c0.005-0.028 0.007-0.061 0.007-0.094 0-0.344-0.279-0.623-0.623-0.623-0.070 0-0.137 0.011-0.199 0.033l0.004-0.001c-0.043 0.013-3.776 1.214-12.253 1.214-5.776-0.102-11.345-0.549-16.809-1.322l0.719 0.083c-0.028-0.005-0.061-0.007-0.094-0.007-0.189 0-0.358 0.085-0.471 0.22l-0.001 0.001c-0.088 0.106-0.141 0.244-0.141 0.394 0 0.073 0.012 0.142 0.035 0.207l-0.001-0.004c0.766 2.506 1.208 5.386 1.208 8.369 0 0.052-0 0.104-0 0.156l0-0.008c0.001 0.292 0.202 0.537 0.474 0.604l0.004 0.001c1.85 0.272 3.254 1.847 3.255 3.75v0c0 2.357-1.006 3.545-3.166 3.733-0.319 0.029-0.567 0.295-0.567 0.619 0 0 0 0 0 0v0c0.003 0.191 0.005 0.416 0.005 0.642 0 3.687-0.447 7.269-1.289 10.696l0.064-0.306c-0.015 0.051-0.024 0.11-0.024 0.171 0 0.343 0.278 0.622 0.622 0.622 0.039 0 0.078-0.004 0.115-0.011l-0.004 0.001c3.008-0.588 6.601-1.028 10.259-1.225l0.204-0.009c5.505 0 17.858 1.229 17.982 1.242h0.062c0.002 0 0.005 0 0.008 0 0.344 0 0.623-0.279 0.623-0.623 0-0.035-0.003-0.069-0.008-0.103l0 0.004c-0.725-4.413-1.172-9.541-1.236-14.761l-0.001-0.065c0.153-4.942 0.597-9.635 1.319-14.236l-0.082 0.638z"></path>
<path fill="#ffcf48" d="M12.267 28.444c-3.568 0.158-6.919 0.548-10.192 1.159l0.446-0.069c0.651-2.966 1.026-6.376 1.033-9.872v-0.004c2.448-0.42 3.733-2.105 3.733-4.907 0-0.018 0-0.039 0-0.061 0-2.295-1.573-4.222-3.7-4.763l-0.034-0.007c-0.039-2.678-0.401-5.255-1.049-7.715l0.050 0.223c4.521 0.631 9.824 1.036 15.206 1.122l0.108 0.001c0.361 0.009 0.785 0.014 1.211 0.014 3.709 0 7.33-0.378 10.827-1.097l-0.345 0.059c-0.589 3.758-0.99 8.196-1.113 12.705l-0.003 0.146c0.058 5.075 0.466 10.003 1.203 14.823l-0.073-0.583c-2.846-0.276-12.563-1.173-17.308-1.173z"></path>
<path fill="#fff" opacity="0.2" d="M12.713 28.444c-0.035 0-0.077 0-0.113 0 0.993 0.007 2.171 0.049 3.447 0.114-1.25-0.068-2.404-0.114-3.334-0.114z"></path>
<path fill="#000" opacity="0.1" d="M27.926 2.852c-0.5 3.658-0.841 7.993-0.943 12.387l-0.003 0.139c0.049 5.015 0.403 9.895 1.043 14.686l-0.066-0.606c0.652 0.060 1.21 0.112 1.616 0.151-0.663-4.235-1.072-9.162-1.129-14.174l-0.001-0.062c0.126-4.653 0.527-9.090 1.19-13.441l-0.075 0.595c-0.407 0.098-0.95 0.21-1.634 0.324z"></path>
<path fill="#fff" opacity="0.2" d="M16.048 3.531c0.539 0.015 1.076 0.025 1.6 0.025h0.077c-0.55-0.002-1.113-0.011-1.677-0.025z"></path>
<path fill="#fff" opacity="0.2" d="M3.553 19.658c-0.006 3.501-0.382 6.91-1.090 10.196l0.058-0.319c0.427-0.073 1.007-0.166 1.646-0.265 0.542-2.886 0.855-6.21 0.862-9.606v-0.006c2.159-0.42 3.295-2.105 3.295-4.907 0.004-0.070 0.006-0.151 0.006-0.233 0-2.125-1.366-3.931-3.268-4.588l-0.034-0.010c-0.032-2.601-0.335-5.113-0.882-7.533l0.046 0.241c-0.654-0.077-1.214-0.146-1.636-0.201 0.598 2.237 0.961 4.814 0.999 7.468l0 0.024c2.161 0.548 3.734 2.475 3.734 4.77 0 0.021-0 0.043-0 0.064l0-0.003c0.002 2.802-1.286 4.486-3.734 4.907z"></path>
<path fill="#282828" d="M25.955 24.709c0 1.374-1.114 2.489-2.489 2.489s-2.489-1.114-2.489-2.489c0-1.374 1.114-2.489 2.489-2.489s2.489 1.114 2.489 2.489z"></path>
<path fill="#e7633f" d="M24.713 24.71c0 0.687-0.557 1.245-1.245 1.245s-1.245-0.557-1.245-1.245c0-0.687 0.557-1.245 1.245-1.245s1.245 0.557 1.245 1.245z"></path>
<path fill="#282828" d="M9.519 21.599c0-0.344-0.279-0.622-0.622-0.622s-0.622 0.279-0.622 0.622v0c0.005 0.514 0.101 1.005 0.271 1.459l-0.010-0.029c0.089 0.242 0.318 0.411 0.586 0.411v0c0.001 0 0.002 0 0.002 0 0.076 0 0.148-0.014 0.215-0.039l-0.004 0.001c0.241-0.090 0.41-0.318 0.41-0.585 0-0.076-0.014-0.148-0.038-0.216l0.001 0.004c-0.115-0.298-0.184-0.643-0.189-1.004l-0-0.002z"></path>
<path fill="#282828" d="M13.168 8.739c0.145-0 0.278-0.050 0.384-0.133l-0.001 0.001c0.537-0.405 1.168-0.719 1.851-0.905l0.039-0.009c0.262-0.077 0.451-0.315 0.451-0.598 0-0.343-0.278-0.622-0.622-0.622-0.061 0-0.12 0.009-0.176 0.025l0.004-0.001c-0.885 0.242-1.658 0.629-2.331 1.141l0.017-0.012c-0.147 0.115-0.24 0.292-0.24 0.491 0 0.343 0.278 0.622 0.622 0.622 0.001 0 0.001 0 0.002 0h-0z"></path>
<path fill="#282828" d="M12.629 24.71c-0.014 0-0.030 0-0.046 0-0.641 0-1.235-0.203-1.72-0.548l0.009 0.006c-0.1-0.072-0.225-0.115-0.361-0.115-0.344 0-0.622 0.279-0.622 0.622 0 0.208 0.102 0.393 0.26 0.506l0.002 0.001c0.684 0.484 1.535 0.773 2.454 0.773 0.044 0 0.087-0.001 0.131-0.002l-0.006 0c0.318-0.004 0.574-0.263 0.574-0.581 0-0.014-0.001-0.028-0.002-0.042l0 0.002c-0.024-0.348-0.313-0.622-0.665-0.622-0.003 0-0.006 0-0.008 0h0z"></path>
<path fill="#282828" d="M11.386 12.895v0c0.344-0.004 0.622-0.284 0.622-0.628 0-0 0-0.001 0-0.001v0c-0.001-0.033-0.001-0.071-0.001-0.11 0-0.7 0.128-1.371 0.363-1.989l-0.013 0.039c0.023-0.062 0.036-0.134 0.036-0.208 0-0.344-0.279-0.623-0.623-0.623-0.254 0-0.473 0.152-0.57 0.371l-0.002 0.004c-0.271 0.71-0.428 1.53-0.428 2.388 0 0.051 0.001 0.102 0.002 0.152l-0-0.008c0.001 0.339 0.275 0.614 0.614 0.614h0z"></path>
<path fill="#282828" d="M13.828 15.551c-0.609-0.265-1.098-0.712-1.409-1.27l-0.008-0.015c-0.106-0.2-0.313-0.333-0.551-0.333-0.343 0-0.622 0.278-0.622 0.622 0 0.105 0.026 0.205 0.073 0.292l-0.002-0.003c0.444 0.81 1.126 1.443 1.95 1.815l0.026 0.011c0.079 0.039 0.173 0.062 0.272 0.062 0.343 0 0.622-0.278 0.622-0.622 0-0.246-0.142-0.458-0.349-0.559l-0.004-0.002z"></path>
<path fill="#282828" d="M17.631 7.33c0.257-0.031 0.555-0.049 0.857-0.049 0.458 0 0.906 0.041 1.341 0.12l-0.046-0.007c0.044 0.011 0.094 0.018 0.146 0.018h0c0 0 0 0 0 0 0.343 0 0.622-0.278 0.622-0.622 0-0.292-0.201-0.537-0.473-0.604l-0.004-0.001c-0.477-0.094-1.025-0.147-1.585-0.147-0.334 0-0.664 0.019-0.988 0.056l0.040-0.004c-0.324 0.024-0.578 0.292-0.578 0.62 0 0.016 0.001 0.031 0.002 0.046l-0-0.002c0.020 0.323 0.286 0.577 0.612 0.577 0.019 0 0.037-0.001 0.056-0.003l-0.002 0z"></path>
<path fill="#282828" d="M18.299 17.423c-0.657-0.516-1.438-0.908-2.288-1.128l-0.044-0.010c-0.057-0.019-0.123-0.030-0.191-0.030-0.343 0-0.622 0.278-0.622 0.622 0 0.281 0.186 0.518 0.442 0.595l0.004 0.001c0.718 0.18 1.346 0.485 1.892 0.894l-0.014-0.010c0.109 0.096 0.253 0.154 0.41 0.154 0.344 0 0.622-0.279 0.622-0.622 0-0.186-0.082-0.353-0.211-0.467l-0.001-0.001z"></path>
<path fill="#282828" d="M18.79 19.34c-0.323 0.025-0.575 0.293-0.575 0.62 0 0.017 0.001 0.033 0.002 0.050l-0-0.002c0.009 0.107 0.013 0.227 0.013 0.348 0 0.025 0.001 0.055 0.001 0.085 0 0.584-0.095 1.145-0.271 1.67l0.011-0.037c-0.028 0.068-0.045 0.148-0.045 0.231 0 0.343 0.278 0.622 0.622 0.622 0.28 0 0.517-0.185 0.595-0.44l0.001-0.004c0.209-0.609 0.329-1.311 0.329-2.041 0-0.030-0-0.059-0.001-0.089l0 0.005c0-0.154-0.005-0.301-0.016-0.443-0.026-0.323-0.295-0.574-0.622-0.574-0.016 0-0.031 0.001-0.047 0.002l0.002-0z"></path>
<path fill="#282828" d="M16.829 23.664c-0.537 0.391-1.176 0.679-1.867 0.82l-0.031 0.005c-0.28 0.065-0.486 0.312-0.486 0.607 0 0.344 0.279 0.622 0.622 0.622 0.048 0 0.095-0.006 0.141-0.016l-0.004 0.001c0.907-0.189 1.706-0.555 2.396-1.061l-0.017 0.012c0.15-0.115 0.246-0.294 0.246-0.495 0-0.344-0.279-0.622-0.622-0.622-0.142 0-0.273 0.048-0.378 0.128l0.002-0.001z"></path>
<path fill="#282828" d="M21.991 9.341c0.082 0.255 0.317 0.436 0.594 0.436 0.344 0 0.622-0.279 0.622-0.622 0-0.066-0.010-0.13-0.030-0.191l0.001 0.004c-0.175-0.491-0.42-0.916-0.727-1.287l0.006 0.007c-0.115-0.142-0.289-0.231-0.484-0.231-0.344 0-0.622 0.279-0.622 0.622 0 0.149 0.052 0.285 0.139 0.392l-0.001-0.001c0.205 0.249 0.374 0.537 0.495 0.849l0.007 0.021z"></path>
<path fill="#282828" d="M24.298 16.026c0.108 0.134 0.268 0.222 0.45 0.232l0.002 0h0.035c0.172-0 0.327-0.070 0.439-0.182v0l0.55-0.549c0.112-0.113 0.182-0.268 0.182-0.44 0-0.196-0.090-0.371-0.232-0.485l-0.001-0.001-2.141-1.713 2.141-1.713c0.143-0.115 0.233-0.29 0.233-0.486 0-0.172-0.070-0.327-0.182-0.44v0l-0.55-0.549c-0.116-0.113-0.275-0.182-0.45-0.182-0.009 0-0.017 0-0.026 0.001l0.001-0c-0.183 0.011-0.343 0.099-0.45 0.231l-0.001 0.001-1.713 2.141-1.713-2.141c-0.108-0.134-0.268-0.222-0.45-0.232l-0.002-0c-0.005-0-0.012-0-0.018-0-0.177 0-0.338 0.069-0.457 0.182l0-0-0.55 0.549c-0.112 0.113-0.182 0.268-0.182 0.44 0 0.196 0.090 0.371 0.232 0.485l0.001 0.001 2.141 1.713-2.141 1.713c-0.143 0.115-0.233 0.29-0.233 0.486 0 0.172 0.070 0.327 0.182 0.44v0l0.55 0.549c0.112 0.113 0.268 0.182 0.439 0.182h0.034c0.183-0.011 0.343-0.099 0.45-0.231l0.001-0.001 1.715-2.144z"></path>
</svg>
<svg id="icon-icon_GamePlan_HiFi-M_InActive" width="32" height="32" viewBox="0 0 32 32" x="144" y="0">
<path fill="#282828" d="M30.93 1.783c0.005-0.028 0.007-0.061 0.007-0.094 0-0.344-0.279-0.623-0.623-0.623-0.070 0-0.137 0.011-0.199 0.033l0.004-0.001c-0.043 0.013-3.776 1.214-12.253 1.214-5.776-0.102-11.345-0.549-16.809-1.322l0.719 0.083c-0.028-0.005-0.061-0.007-0.094-0.007-0.189 0-0.358 0.085-0.471 0.22l-0.001 0.001c-0.088 0.106-0.141 0.244-0.141 0.394 0 0.073 0.012 0.142 0.035 0.207l-0.001-0.004c0.766 2.506 1.208 5.386 1.208 8.369 0 0.052-0 0.104-0 0.156l0-0.008c0.001 0.292 0.202 0.537 0.474 0.604l0.004 0.001c1.85 0.272 3.254 1.847 3.255 3.75v0c0 2.357-1.006 3.545-3.166 3.733-0.319 0.029-0.567 0.295-0.567 0.619 0 0 0 0 0 0v0c0.003 0.191 0.005 0.416 0.005 0.642 0 3.687-0.447 7.269-1.289 10.696l0.064-0.306c-0.015 0.051-0.024 0.11-0.024 0.171 0 0.343 0.278 0.622 0.622 0.622 0.039 0 0.078-0.004 0.115-0.011l-0.004 0.001c3.008-0.588 6.601-1.028 10.259-1.225l0.204-0.009c5.505 0 17.858 1.229 17.982 1.242h0.062c0.002 0 0.005 0 0.008 0 0.344 0 0.623-0.279 0.623-0.623 0-0.035-0.003-0.069-0.008-0.103l0 0.004c-0.725-4.413-1.172-9.541-1.236-14.761l-0.001-0.065c0.153-4.942 0.597-9.635 1.319-14.236l-0.082 0.638z"></path>
<path fill="#f6f6f6" d="M12.267 28.444c-3.568 0.158-6.919 0.548-10.192 1.159l0.446-0.069c0.651-2.966 1.026-6.376 1.033-9.872v-0.004c2.448-0.42 3.733-2.105 3.733-4.907 0-0.018 0-0.039 0-0.061 0-2.295-1.573-4.222-3.7-4.763l-0.034-0.007c-0.039-2.678-0.401-5.255-1.049-7.715l0.050 0.223c4.521 0.631 9.824 1.036 15.206 1.122l0.108 0.001c0.361 0.009 0.785 0.014 1.211 0.014 3.709 0 7.33-0.378 10.827-1.097l-0.345 0.059c-0.589 3.758-0.99 8.196-1.113 12.705l-0.003 0.146c0.058 5.075 0.466 10.003 1.203 14.823l-0.073-0.583c-2.846-0.276-12.563-1.173-17.308-1.173z"></path>
<path fill="#fff" opacity="0.2" d="M12.713 28.444c-0.035 0-0.077 0-0.113 0 0.993 0.007 2.171 0.049 3.447 0.114-1.25-0.068-2.404-0.114-3.334-0.114z"></path>
<path fill="#fff" opacity="0.2" d="M16.048 3.531c0.539 0.015 1.076 0.025 1.6 0.025h0.077c-0.55-0.002-1.113-0.011-1.677-0.025z"></path>
<path fill="#fff" opacity="0.2" d="M3.553 19.658c-0.006 3.501-0.382 6.91-1.090 10.196l0.058-0.319c0.427-0.073 1.007-0.166 1.646-0.265 0.542-2.886 0.855-6.21 0.862-9.606v-0.006c2.159-0.42 3.295-2.105 3.295-4.907 0.004-0.070 0.006-0.151 0.006-0.233 0-2.125-1.366-3.931-3.268-4.588l-0.034-0.010c-0.032-2.601-0.335-5.113-0.882-7.533l0.046 0.241c-0.654-0.077-1.214-0.146-1.636-0.201 0.598 2.237 0.961 4.814 0.999 7.468l0 0.024c2.161 0.548 3.734 2.475 3.734 4.77 0 0.021-0 0.043-0 0.064l0-0.003c0.002 2.802-1.286 4.486-3.734 4.907z"></path>
<path fill="#282828" d="M25.955 24.709c0 1.374-1.114 2.489-2.489 2.489s-2.489-1.114-2.489-2.489c0-1.374 1.114-2.489 2.489-2.489s2.489 1.114 2.489 2.489z"></path>
<path fill="#f6f6f6" d="M24.713 24.71c0 0.687-0.557 1.245-1.245 1.245s-1.245-0.557-1.245-1.245c0-0.687 0.557-1.245 1.245-1.245s1.245 0.557 1.245 1.245z"></path>
<path fill="#282828" d="M9.519 21.599c0-0.344-0.279-0.622-0.622-0.622s-0.622 0.279-0.622 0.622v0c0.005 0.514 0.101 1.005 0.271 1.459l-0.010-0.029c0.089 0.242 0.318 0.411 0.586 0.411v0c0.001 0 0.002 0 0.002 0 0.076 0 0.148-0.014 0.215-0.039l-0.004 0.001c0.241-0.090 0.41-0.318 0.41-0.585 0-0.076-0.014-0.148-0.038-0.216l0.001 0.004c-0.115-0.298-0.184-0.643-0.189-1.004l-0-0.002z"></path>
<path fill="#282828" d="M13.168 8.739c0.145-0 0.278-0.050 0.384-0.133l-0.001 0.001c0.537-0.405 1.168-0.719 1.851-0.905l0.039-0.009c0.262-0.077 0.451-0.315 0.451-0.598 0-0.343-0.278-0.622-0.622-0.622-0.061 0-0.12 0.009-0.176 0.025l0.004-0.001c-0.885 0.242-1.658 0.629-2.331 1.141l0.017-0.012c-0.147 0.115-0.24 0.292-0.24 0.491 0 0.343 0.278 0.622 0.622 0.622 0.001 0 0.001 0 0.002 0h-0z"></path>
<path fill="#282828" d="M12.629 24.71c-0.014 0-0.030 0-0.046 0-0.641 0-1.235-0.203-1.72-0.548l0.009 0.006c-0.1-0.072-0.225-0.115-0.361-0.115-0.344 0-0.622 0.279-0.622 0.622 0 0.208 0.102 0.393 0.26 0.506l0.002 0.001c0.684 0.484 1.535 0.773 2.454 0.773 0.044 0 0.087-0.001 0.131-0.002l-0.006 0c0.318-0.004 0.574-0.263 0.574-0.581 0-0.014-0.001-0.028-0.002-0.042l0 0.002c-0.024-0.348-0.313-0.622-0.665-0.622-0.003 0-0.006 0-0.008 0h0z"></path>
<path fill="#282828" d="M11.386 12.895v0c0.344-0.004 0.622-0.284 0.622-0.628 0-0 0-0.001 0-0.001v0c-0.001-0.033-0.001-0.071-0.001-0.11 0-0.7 0.128-1.371 0.363-1.989l-0.013 0.039c0.023-0.062 0.036-0.134 0.036-0.208 0-0.344-0.279-0.623-0.623-0.623-0.254 0-0.473 0.152-0.57 0.371l-0.002 0.004c-0.271 0.71-0.428 1.53-0.428 2.388 0 0.051 0.001 0.102 0.002 0.152l-0-0.008c0.001 0.339 0.275 0.614 0.614 0.614h0z"></path>
<path fill="#282828" d="M13.828 15.551c-0.609-0.265-1.098-0.712-1.409-1.27l-0.008-0.015c-0.106-0.2-0.313-0.333-0.551-0.333-0.343 0-0.622 0.278-0.622 0.622 0 0.105 0.026 0.205 0.073 0.292l-0.002-0.003c0.444 0.81 1.126 1.443 1.95 1.815l0.026 0.011c0.079 0.039 0.173 0.062 0.272 0.062 0.343 0 0.622-0.278 0.622-0.622 0-0.246-0.142-0.458-0.349-0.559l-0.004-0.002z"></path>
<path fill="#282828" d="M17.631 7.33c0.257-0.031 0.555-0.049 0.857-0.049 0.458 0 0.906 0.041 1.341 0.12l-0.046-0.007c0.044 0.011 0.094 0.018 0.146 0.018h0c0 0 0 0 0 0 0.343 0 0.622-0.278 0.622-0.622 0-0.292-0.201-0.537-0.473-0.604l-0.004-0.001c-0.477-0.094-1.025-0.147-1.585-0.147-0.334 0-0.664 0.019-0.988 0.056l0.040-0.004c-0.324 0.024-0.578 0.292-0.578 0.62 0 0.016 0.001 0.031 0.002 0.046l-0-0.002c0.020 0.323 0.286 0.577 0.612 0.577 0.019 0 0.037-0.001 0.056-0.003l-0.002 0z"></path>
<path fill="#282828" d="M18.299 17.423c-0.657-0.516-1.438-0.908-2.288-1.128l-0.044-0.010c-0.057-0.019-0.123-0.030-0.191-0.030-0.343 0-0.622 0.278-0.622 0.622 0 0.281 0.186 0.518 0.442 0.595l0.004 0.001c0.718 0.18 1.346 0.485 1.892 0.894l-0.014-0.010c0.109 0.096 0.253 0.154 0.41 0.154 0.344 0 0.622-0.279 0.622-0.622 0-0.186-0.082-0.353-0.211-0.467l-0.001-0.001z"></path>
<path fill="#282828" d="M18.79 19.34c-0.323 0.025-0.575 0.293-0.575 0.62 0 0.017 0.001 0.033 0.002 0.050l-0-0.002c0.009 0.107 0.013 0.227 0.013 0.348 0 0.025 0.001 0.055 0.001 0.085 0 0.584-0.095 1.145-0.271 1.67l0.011-0.037c-0.028 0.068-0.045 0.148-0.045 0.231 0 0.343 0.278 0.622 0.622 0.622 0.28 0 0.517-0.185 0.595-0.44l0.001-0.004c0.209-0.609 0.329-1.311 0.329-2.041 0-0.030-0-0.059-0.001-0.089l0 0.005c0-0.154-0.005-0.301-0.016-0.443-0.026-0.323-0.295-0.574-0.622-0.574-0.016 0-0.031 0.001-0.047 0.002l0.002-0z"></path>
<path fill="#282828" d="M16.829 23.664c-0.537 0.391-1.176 0.679-1.867 0.82l-0.031 0.005c-0.28 0.065-0.486 0.312-0.486 0.607 0 0.344 0.279 0.622 0.622 0.622 0.048 0 0.095-0.006 0.141-0.016l-0.004 0.001c0.907-0.189 1.706-0.555 2.396-1.061l-0.017 0.012c0.15-0.115 0.246-0.294 0.246-0.495 0-0.344-0.279-0.622-0.622-0.622-0.142 0-0.273 0.048-0.378 0.128l0.002-0.001z"></path>
<path fill="#282828" d="M21.991 9.341c0.082 0.255 0.317 0.436 0.594 0.436 0.344 0 0.622-0.279 0.622-0.622 0-0.066-0.010-0.13-0.030-0.191l0.001 0.004c-0.175-0.491-0.42-0.916-0.727-1.287l0.006 0.007c-0.115-0.142-0.289-0.231-0.484-0.231-0.344 0-0.622 0.279-0.622 0.622 0 0.149 0.052 0.285 0.139 0.392l-0.001-0.001c0.205 0.249 0.374 0.537 0.495 0.849l0.007 0.021z"></path>
<path fill="#282828" d="M24.298 16.026c0.108 0.134 0.268 0.222 0.45 0.232l0.002 0h0.035c0.172-0 0.327-0.070 0.439-0.182v0l0.55-0.549c0.112-0.113 0.182-0.268 0.182-0.44 0-0.196-0.090-0.371-0.232-0.485l-0.001-0.001-2.141-1.713 2.141-1.713c0.143-0.115 0.233-0.29 0.233-0.486 0-0.172-0.070-0.327-0.182-0.44v0l-0.55-0.549c-0.116-0.113-0.275-0.182-0.45-0.182-0.009 0-0.017 0-0.026 0.001l0.001-0c-0.183 0.011-0.343 0.099-0.45 0.231l-0.001 0.001-1.713 2.141-1.713-2.141c-0.108-0.134-0.268-0.222-0.45-0.232l-0.002-0c-0.005-0-0.012-0-0.018-0-0.177 0-0.338 0.069-0.457 0.182l0-0-0.55 0.549c-0.112 0.113-0.182 0.268-0.182 0.44 0 0.196 0.090 0.371 0.232 0.485l0.001 0.001 2.141 1.713-2.141 1.713c-0.143 0.115-0.233 0.29-0.233 0.486 0 0.172 0.070 0.327 0.182 0.44v0l0.55 0.549c0.112 0.113 0.268 0.182 0.439 0.182h0.034c0.183-0.011 0.343-0.099 0.45-0.231l0.001-0.001 1.715-2.144z"></path>
</svg>
<svg id="icon-icon_Messages_HiFi-M_Active" width="32" height="32" viewBox="0 0 32 32" x="192" y="0">
<path fill="#282828" d="M1.745 30.933c-0.374-0.001-0.677-0.303-0.678-0.677v-26.474c0.001-1.499 1.216-2.715 2.716-2.716h24.437c1.498 0.002 2.712 1.217 2.714 2.716v17.649c-0.001 1.499-1.216 2.715-2.716 2.716h-19.403l-6.59 6.589c-0.123 0.122-0.292 0.197-0.478 0.197-0.001 0-0.001 0-0.002 0h0z"></path>
<path fill="#f6f6f6" d="M3.823 2.473c-0.745 0.002-1.349 0.606-1.35 1.351v24.711l5.61-5.601c0.122-0.122 0.291-0.198 0.478-0.198h19.616c0 0 0 0 0 0 0.746 0 1.352-0.604 1.354-1.35v-17.561c-0.002-0.746-0.607-1.35-1.352-1.35h-24.354z"></path>
<path fill="#282828" d="M23.734 7.742h-15.467c-0.388 0-0.703 0.315-0.703 0.703s0.315 0.703 0.703 0.703h15.467c0.388 0 0.703-0.315 0.703-0.703s-0.315-0.703-0.703-0.703v0z"></path>
<path fill="#282828" d="M23.734 11.961h-15.467c-0.388 0-0.703 0.315-0.703 0.703s0.315 0.703 0.703 0.703v0h15.467c0.388 0 0.703-0.315 0.703-0.703s-0.315-0.703-0.703-0.703v0z"></path>
<path fill="#282828" d="M16.704 16.178h-8.436c-0.388 0-0.703 0.315-0.703 0.703s0.315 0.703 0.703 0.703v0h8.436c0.388 0 0.703-0.315 0.703-0.703s-0.315-0.703-0.703-0.703v0z"></path>
</svg>
<svg id="icon-icon_Messages_HiFi-M_Active-1" width="32" height="32" viewBox="0 0 32 32" x="240" y="0">
<path fill="#282828" d="M1.745 30.933c-0.374-0.001-0.677-0.303-0.678-0.677v-26.474c0.001-1.499 1.216-2.715 2.716-2.716h24.437c1.498 0.002 2.712 1.217 2.714 2.716v17.649c-0.001 1.499-1.216 2.715-2.716 2.716h-19.403l-6.59 6.589c-0.123 0.122-0.292 0.197-0.478 0.197-0.001 0-0.001 0-0.002 0h0z"></path>
<path fill="#ffcf48" d="M3.823 2.473c-0.745 0.002-1.349 0.606-1.35 1.351v24.711l5.61-5.601c0.122-0.122 0.291-0.198 0.478-0.198h19.616c0 0 0 0 0 0 0.746 0 1.352-0.604 1.354-1.35v-17.561c-0.002-0.746-0.607-1.35-1.352-1.35h-24.354z"></path>
<path fill="#000" opacity="0.1" d="M28.176 2.473h-0.672v16.885c-0.002 0.746-0.607 1.35-1.352 1.35h-19.62c-0 0-0 0-0 0-0.186 0-0.355 0.075-0.477 0.197l0-0-3.58 3.575v4.053l5.61-5.601c0.122-0.122 0.291-0.198 0.478-0.198h19.615c0 0 0.001 0 0.001 0 0.746 0 1.352-0.604 1.354-1.35v-17.561c-0.001-0.747-0.607-1.351-1.354-1.351-0 0-0.001 0-0.001 0h0z"></path>
<path fill="#282828" d="M23.734 7.742h-15.467c-0.388 0-0.703 0.315-0.703 0.703s0.315 0.703 0.703 0.703h15.467c0.388 0 0.703-0.315 0.703-0.703s-0.315-0.703-0.703-0.703v0z"></path>
<path fill="#282828" d="M23.734 11.961h-15.467c-0.388 0-0.703 0.315-0.703 0.703s0.315 0.703 0.703 0.703v0h15.467c0.388 0 0.703-0.315 0.703-0.703s-0.315-0.703-0.703-0.703v0z"></path>
<path fill="#282828" d="M16.704 16.178h-8.436c-0.388 0-0.703 0.315-0.703 0.703s0.315 0.703 0.703 0.703v0h8.436c0.388 0 0.703-0.315 0.703-0.703s-0.315-0.703-0.703-0.703v0z"></path>
</svg>
<svg id="icon-icon_Players_HiFi-M_Active" width="32" height="32" viewBox="0 0 32 32" x="288" y="0">
<path fill="#282828" d="M30.933 16c0-8.247-6.686-14.933-14.933-14.933s-14.933 6.686-14.933 14.933v0c-0.006 0.13-0.010 0.281-0.010 0.434 0 3.713 2.103 6.934 5.183 8.538l0.053 0.025c0.69 4.821 2.787 5.936 9.707 5.936 6.726 0 8.899-1.043 9.647-5.53 3.499-1.809 5.286-4.963 5.286-9.404z"></path>
<path fill="#f2f2f2" d="M22.222 9.777c0 3.436-2.786 6.222-6.222 6.222s-6.222-2.786-6.222-6.222c0-3.436 2.786-6.222 6.222-6.222s6.222 2.786 6.222 6.222z"></path>
<path fill="#f2f2f2" d="M4.135 9.202c0.42 0.901 0.665 1.957 0.665 3.069 0 2.134-0.902 4.057-2.344 5.409l-0.004 0.004c-0.086-0.504-0.137-1.087-0.141-1.681l-0-0.004c0-2.503 0.678-4.848 1.859-6.862l-0.035 0.064z"></path>
<path fill="#fff" d="M16 29.689c-7.285 0-8.224-1.183-8.625-6.197 1.791-1.939 5.066-3.136 8.625-3.136s6.833 1.197 8.625 3.136c-0.401 5.014-1.34 6.197-8.625 6.197z"></path>
<path fill="#d32f2f" d="M25.836 23.874c0.017-0.183 0.037-0.358 0.051-0.551 0.001-0.013 0.002-0.029 0.002-0.045 0-0.155-0.056-0.297-0.15-0.406l0.001 0.001c-1.98-2.32-5.712-3.761-9.74-3.761s-7.76 1.441-9.74 3.761c-0.093 0.108-0.149 0.25-0.149 0.405 0 0.016 0.001 0.031 0.002 0.047l-0-0.002c0 0.045 0.009 0.083 0.012 0.127-1.58-1.029-2.764-2.552-3.34-4.348l-0.016-0.058c2.001-1.589 3.273-4.022 3.273-6.752 0-1.575-0.423-3.050-1.162-4.32l0.022 0.041c2.366-3.258 6.076-5.417 10.299-5.658l0.036-0.002c-3.782 0.4-6.704 3.572-6.704 7.428 0 4.124 3.343 7.467 7.467 7.467s7.467-3.343 7.467-7.467c0-3.855-2.922-7.028-6.671-7.425l-0.033-0.003c4.257 0.244 7.965 2.403 10.302 5.62l0.027 0.039c-0.717 1.229-1.14 2.705-1.14 4.28 0 2.765 1.304 5.225 3.331 6.799l0.020 0.015c-0.508 2.025-1.757 3.697-3.434 4.748l-0.033 0.019z"></path>
<path fill="#f2f2f2" d="M29.575 17.711c-1.461-1.358-2.373-3.291-2.373-5.437 0-1.114 0.245-2.17 0.685-3.118l-0.019 0.046c1.145 1.937 1.821 4.268 1.821 6.758 0 0.617-0.042 1.225-0.122 1.82l0.008-0.069z"></path>
<path fill="#ffcf48" d="M25.836 23.874c0.017-0.183 0.037-0.358 0.051-0.551 0.001-0.013 0.002-0.029 0.002-0.045 0-0.155-0.056-0.297-0.15-0.406l0.001 0.001c-1.98-2.32-5.712-3.761-9.74-3.761s-7.76 1.441-9.74 3.761c-0.093 0.108-0.149 0.25-0.149 0.405 0 0.016 0.001 0.031 0.002 0.047l-0-0.002c0 0.045 0.009 0.083 0.012 0.127-1.58-1.029-2.764-2.552-3.34-4.348l-0.016-0.058c2.001-1.589 3.273-4.022 3.273-6.752 0-1.575-0.423-3.050-1.162-4.32l0.022 0.041c2.366-3.258 6.076-5.417 10.299-5.658l0.036-0.002c-3.782 0.4-6.704 3.572-6.704 7.428 0 4.124 3.343 7.467 7.467 7.467s7.467-3.343 7.467-7.467c0-3.855-2.922-7.028-6.671-7.425l-0.033-0.003c4.257 0.244 7.965 2.403 10.302 5.62l0.027 0.039c-0.717 1.229-1.14 2.705-1.14 4.28 0 2.765 1.304 5.225 3.331 6.799l0.020 0.015c-0.508 2.025-1.757 3.697-3.434 4.748l-0.033 0.019z"></path>
<path fill="#282828" d="M12.578 22.222c-0.485 0-0.933 0.302-0.933 2.489s0.448 2.489 0.933 2.489 0.933-0.302 0.933-2.489-0.448-2.489-0.933-2.489z"></path>
<path fill="#282828" d="M19.423 27.2c0.485 0 0.933-0.302 0.933-2.489s-0.448-2.489-0.933-2.489-0.933 0.302-0.933 2.489 0.448 2.489 0.933 2.489z"></path>
<path fill="#000" opacity="0.1" d="M2.451 17.684c0.219-0.211 0.424-0.432 0.615-0.664l0.011-0.013c-0.251-0.090-0.49-0.19-0.733-0.287 0.025 0.327 0.060 0.65 0.108 0.964z"></path>
<path fill="#000" opacity="0.1" d="M27.262 13.177c0.232 1.802 1.074 3.373 2.308 4.532l0.004 0.004c0.073-0.519 0.115-1.119 0.115-1.729 0-1.679-0.316-3.285-0.892-4.76l0.031 0.089c-0.475 0.699-0.99 1.309-1.562 1.861l-0.004 0.003z"></path>
<path fill="#000" opacity="0.1" d="M4.327 17.406c-0.456 0.62-0.969 1.158-1.542 1.626l-0.016 0.013c0.592 1.853 1.776 3.377 3.324 4.386l0.031 0.019c0-0.044-0.009-0.082-0.012-0.127-0.001-0.013-0.002-0.029-0.002-0.045 0-0.155 0.056-0.297 0.15-0.406l-0.001 0.001c1.98-2.32 5.712-3.761 9.74-3.761s7.76 1.441 9.74 3.761c0.093 0.109 0.149 0.25 0.149 0.406 0 0.016-0.001 0.031-0.002 0.047l0-0.002c-0.015 0.193-0.034 0.368-0.051 0.551 1.712-1.070 2.962-2.744 3.458-4.716l0.011-0.054c-1.552-1.226-2.671-2.94-3.126-4.908l-0.011-0.059c-3.369 2.654-8.487 4.352-14.212 4.352-0.020 0-0.044 0-0.068 0-2.695 0-5.297-0.396-7.753-1.132l0.191 0.049z"></path>
</svg>
<svg id="icon-icon_Players_HiFi-M_Inactive" width="32" height="32" viewBox="0 0 32 32" x="336" y="0">
<path fill="#282828" d="M30.933 16c0-8.247-6.686-14.933-14.933-14.933s-14.933 6.686-14.933 14.933v0c-0.006 0.13-0.010 0.281-0.010 0.434 0 3.713 2.103 6.934 5.183 8.538l0.053 0.025c0.69 4.821 2.787 5.936 9.707 5.936 6.726 0 8.899-1.043 9.647-5.53 3.499-1.809 5.286-4.963 5.286-9.404z"></path>
<path fill="#f2f2f2" d="M22.222 9.777c0 3.436-2.786 6.222-6.222 6.222s-6.222-2.786-6.222-6.222c0-3.436 2.786-6.222 6.222-6.222s6.222 2.786 6.222 6.222z"></path>
<path fill="#f2f2f2" d="M4.135 9.202c0.42 0.901 0.665 1.957 0.665 3.069 0 2.134-0.902 4.057-2.344 5.409l-0.004 0.004c-0.086-0.504-0.137-1.087-0.141-1.681l-0-0.004c0-2.503 0.678-4.848 1.859-6.862l-0.035 0.064z"></path>
<path fill="#f6f6f6" d="M16 29.689c-7.285 0-8.224-1.183-8.625-6.197 1.791-1.939 5.066-3.136 8.625-3.136s6.833 1.197 8.625 3.136c-0.401 5.014-1.34 6.197-8.625 6.197z"></path>
<path fill="#d32f2f" d="M25.836 23.874c0.017-0.183 0.037-0.358 0.051-0.551 0.001-0.013 0.002-0.029 0.002-0.045 0-0.155-0.056-0.297-0.15-0.406l0.001 0.001c-1.98-2.32-5.712-3.761-9.74-3.761s-7.76 1.441-9.74 3.761c-0.093 0.108-0.149 0.25-0.149 0.405 0 0.016 0.001 0.031 0.002 0.047l-0-0.002c0 0.045 0.009 0.083 0.012 0.127-1.58-1.029-2.764-2.552-3.34-4.348l-0.016-0.058c2.001-1.589 3.273-4.022 3.273-6.752 0-1.575-0.423-3.050-1.162-4.32l0.022 0.041c2.366-3.258 6.076-5.417 10.299-5.658l0.036-0.002c-3.782 0.4-6.704 3.572-6.704 7.428 0 4.124 3.343 7.467 7.467 7.467s7.467-3.343 7.467-7.467c0-3.855-2.922-7.028-6.671-7.425l-0.033-0.003c4.257 0.244 7.965 2.403 10.302 5.62l0.027 0.039c-0.717 1.229-1.14 2.705-1.14 4.28 0 2.765 1.304 5.225 3.331 6.799l0.020 0.015c-0.508 2.025-1.757 3.697-3.434 4.748l-0.033 0.019z"></path>
<path fill="#f2f2f2" d="M29.575 17.711c-1.461-1.358-2.373-3.291-2.373-5.437 0-1.114 0.245-2.17 0.685-3.118l-0.019 0.046c1.145 1.937 1.821 4.268 1.821 6.758 0 0.617-0.042 1.225-0.122 1.82l0.008-0.069z"></path>
<path fill="#f6f6f6" d="M25.836 23.874c0.017-0.183 0.037-0.358 0.051-0.551 0.001-0.013 0.002-0.029 0.002-0.045 0-0.155-0.056-0.297-0.15-0.406l0.001 0.001c-1.98-2.32-5.712-3.761-9.74-3.761s-7.76 1.441-9.74 3.761c-0.093 0.108-0.149 0.25-0.149 0.405 0 0.016 0.001 0.031 0.002 0.047l-0-0.002c0 0.045 0.009 0.083 0.012 0.127-1.58-1.029-2.764-2.552-3.34-4.348l-0.016-0.058c2.001-1.589 3.273-4.022 3.273-6.752 0-1.575-0.423-3.050-1.162-4.32l0.022 0.041c2.366-3.258 6.076-5.417 10.299-5.658l0.036-0.002c-3.782 0.4-6.704 3.572-6.704 7.428 0 4.124 3.343 7.467 7.467 7.467s7.467-3.343 7.467-7.467c0-3.855-2.922-7.028-6.671-7.425l-0.033-0.003c4.257 0.244 7.965 2.403 10.302 5.62l0.027 0.039c-0.717 1.229-1.14 2.705-1.14 4.28 0 2.765 1.304 5.225 3.331 6.799l0.020 0.015c-0.508 2.025-1.757 3.697-3.434 4.748l-0.033 0.019z"></path>
<path fill="#282828" d="M12.578 22.222c-0.485 0-0.933 0.302-0.933 2.489s0.448 2.489 0.933 2.489 0.933-0.302 0.933-2.489-0.448-2.489-0.933-2.489z"></path>
<path fill="#282828" d="M19.423 27.2c0.485 0 0.933-0.302 0.933-2.489s-0.448-2.489-0.933-2.489-0.933 0.302-0.933 2.489 0.448 2.489 0.933 2.489z"></path>
<path fill="#000" opacity="0.1" d="M2.451 17.684c0.219-0.211 0.424-0.432 0.615-0.664l0.011-0.013c-0.251-0.090-0.49-0.19-0.733-0.287 0.025 0.327 0.060 0.65 0.108 0.964z"></path>
</svg>
<svg id="icon-icon_Points_HiFi-M_Active" width="32" height="32" viewBox="0 0 32 32" x="384" y="0">
<path fill="#282828" d="M18.716 6.739v-2.324c0-4.464-17.649-4.464-17.649 0v13.6c0 1.755 2.747 2.849 6.051 3.237-1.209 0.542-1.979 1.275-1.979 2.203v4.080c0 2.233 4.439 3.398 8.826 3.398s8.825-1.173 8.825-3.401v-2.049c4.153-0.114 8.144-1.27 8.144-3.389v-12.24c0-2.815-7.030-3.855-12.218-3.116z"></path>
<path fill="#ffd553" d="M29.578 9.891c0 0.691-2.636 2.036-7.467 2.036s-7.467-1.345-7.467-2.036 2.636-2.036 7.467-2.036 7.467 1.345 7.467 2.036z"></path>
<path fill="#303c42" d="M14.643 19.926c0.129 0.078 0.263 0.154 0.407 0.225-0.135-0.005-0.272-0.012-0.407-0.015z"></path>
<path fill="#ffd553" d="M9.892 2.425c4.831 0 7.467 1.345 7.467 2.036s-2.636 2.036-7.467 2.036-7.467-1.345-7.467-2.036 2.635-2.036 7.467-2.036z"></path>
<path fill="#ffca28" d="M2.425 6.35c1.988 0.959 4.323 1.519 6.789 1.519 0.238 0 0.476-0.005 0.712-0.016l-0.034 0.001c0.202 0.009 0.439 0.014 0.678 0.014 2.466 0 4.801-0.56 6.884-1.561l-0.096 0.041v0.674c-2.359 0.524-4.073 1.478-4.073 2.867v0.402c-1.019 0.174-2.193 0.274-3.391 0.277h-0.003c-4.831 0-7.467-1.345-7.467-2.036v-2.185z"></path>
<path fill="#ffca28" d="M2.425 10.422c1.988 0.959 4.323 1.52 6.789 1.52 0.238 0 0.476-0.005 0.712-0.016l-0.034 0.001c1.202-0.005 2.378-0.102 3.525-0.284l-0.131 0.017v3.383c-1.018 0.174-2.193 0.274-3.391 0.277h-0.003c-4.831 0-7.467-1.345-7.467-2.036z"></path>
<path fill="#ffca28" d="M2.425 18.037v-2.863c1.988 0.959 4.323 1.52 6.789 1.52 0.238 0 0.476-0.005 0.712-0.016l-0.034 0.001c1.202-0.005 2.378-0.102 3.525-0.284l-0.131 0.017v3.383c-1.019 0.174-2.193 0.274-3.391 0.277h-0.003c-4.831 0-7.467-1.344-7.467-2.036z"></path>
<path fill="#ffd553" d="M13.965 21.431c4.831 0 7.467 1.345 7.467 2.036s-2.636 2.036-7.467 2.036-7.467-1.345-7.467-2.036 2.637-2.036 7.467-2.036z"></path>
<path fill="#ffca28" d="M13.964 29.578c-4.831 0-7.467-1.345-7.467-2.036v-2.185c1.988 0.959 4.323 1.52 6.789 1.52 0.238 0 0.476-0.005 0.712-0.016l-0.034 0.001c0.18 0.007 0.391 0.011 0.603 0.011 2.406 0 4.692-0.512 6.756-1.432l-0.106 0.042h0.213v2.052c0 0.698-2.636 2.043-7.467 2.043z"></path>
<path fill="#ffca28" d="M22.788 24.124v-0.655c0-0.853-0.64-1.534-1.677-2.059 0.332 0.014 0.665 0.022 0.998 0.022 0.202 0.009 0.44 0.014 0.678 0.014 2.466 0 4.801-0.56 6.884-1.561l-0.096 0.041v2.185c0 0.656-2.405 1.89-6.788 2.012z"></path>
<path fill="#ffca28" d="M22.11 20.069c-4.831 0-7.467-1.345-7.467-2.036v-2.185c1.988 0.959 4.323 1.52 6.789 1.52 0.238 0 0.476-0.005 0.712-0.016l-0.034 0.001c0.202 0.009 0.44 0.014 0.678 0.014 2.466 0 4.801-0.56 6.884-1.561l-0.096 0.041v2.194c0 0.687-2.636 2.027-7.467 2.027z"></path>
<path fill="#000" opacity="0.1" d="M21.111 21.411c1.036 0.525 1.677 1.211 1.677 2.059v0.655c0.48-0.014 0.926-0.045 1.358-0.083v-0.573c-0.002-0.799-0.308-1.527-0.808-2.073l0.002 0.002c-0.409 0.020-0.819 0.034-1.23 0.034-0.334-0.001-0.667-0.011-0.998-0.021z"></path>
<path fill="#000" opacity="0.1" d="M15.322 18.755c1.692 0.821 3.681 1.301 5.781 1.301 0.125 0 0.25-0.002 0.374-0.005l-0.018 0c-1.81-0.769-3.911-1.24-6.115-1.296l-0.022-0z"></path>
<path fill="#000" opacity="0.1" d="M12.611 15.123c0.225-0.029 0.461-0.048 0.678-0.083v-3.378c-0.22 0.033-0.453 0.051-0.678 0.079z"></path>
<path fill="#000" opacity="0.1" d="M12.611 18.037c0.009 0.645 0.266 1.229 0.679 1.662l-0.001-0.001v-3.284c-0.22 0.033-0.453 0.051-0.678 0.079z"></path>
<path fill="#000" opacity="0.1" d="M12.611 9.895v0.485c0.225-0.029 0.461-0.048 0.678-0.083v-0.402c0-1.387 1.714-2.347 4.073-2.867v-0.674c-0.896 0.5-1.936 0.879-3.039 1.079l-0.062 0.009c-0.934 0.457-1.581 1.372-1.65 2.445l-0 0.009z"></path>
<path fill="#ffca28" d="M22.111 16c-4.831 0-7.467-1.345-7.467-2.036v-2.187c1.988 0.959 4.323 1.52 6.789 1.52 0.238 0 0.476-0.005 0.712-0.016l-0.034 0.001c0.202 0.009 0.44 0.014 0.678 0.014 2.466 0 4.801-0.56 6.884-1.561l-0.096 0.041v2.187c0 0.693-2.636 2.036-7.467 2.036z"></path>
</svg>
<svg id="icon-icon_Points_HiFi-M_Inactive" width="32" height="32" viewBox="0 0 32 32" x="432" y="0">
<path fill="#282828" d="M18.716 6.739v-2.324c0-4.464-17.649-4.464-17.649 0v13.6c0 1.755 2.747 2.849 6.051 3.237-1.209 0.542-1.979 1.275-1.979 2.203v4.080c0 2.233 4.439 3.398 8.826 3.398s8.825-1.173 8.825-3.401v-2.049c4.153-0.114 8.144-1.27 8.144-3.389v-12.24c0-2.815-7.030-3.855-12.218-3.116z"></path>
<path fill="#fff" d="M29.578 9.891c0 0.691-2.636 2.036-7.467 2.036s-7.467-1.345-7.467-2.036 2.636-2.036 7.467-2.036 7.467 1.345 7.467 2.036z"></path>
<path fill="#303c42" d="M14.643 19.926c0.129 0.078 0.263 0.154 0.407 0.225-0.135-0.005-0.272-0.012-0.407-0.015z"></path>
<path fill="#fff" d="M9.892 2.425c4.831 0 7.467 1.345 7.467 2.036s-2.636 2.036-7.467 2.036-7.467-1.345-7.467-2.036 2.635-2.036 7.467-2.036z"></path>
<path fill="#fff" d="M2.425 6.35c1.988 0.959 4.323 1.519 6.789 1.519 0.238 0 0.476-0.005 0.712-0.016l-0.034 0.001c0.202 0.009 0.439 0.014 0.678 0.014 2.466 0 4.801-0.56 6.884-1.561l-0.096 0.041v0.674c-2.359 0.524-4.073 1.478-4.073 2.867v0.402c-1.019 0.174-2.193 0.274-3.391 0.277h-0.003c-4.831 0-7.467-1.345-7.467-2.036v-2.185z"></path>
<path fill="#fff" d="M2.425 10.422c1.988 0.959 4.323 1.52 6.789 1.52 0.238 0 0.476-0.005 0.712-0.016l-0.034 0.001c1.202-0.005 2.378-0.102 3.525-0.284l-0.131 0.017v3.383c-1.018 0.174-2.193 0.274-3.391 0.277h-0.003c-4.831 0-7.467-1.345-7.467-2.036z"></path>
<path fill="#fff" d="M2.425 18.037v-2.863c1.988 0.959 4.323 1.52 6.789 1.52 0.238 0 0.476-0.005 0.712-0.016l-0.034 0.001c1.202-0.005 2.378-0.102 3.525-0.284l-0.131 0.017v3.383c-1.019 0.174-2.193 0.274-3.391 0.277h-0.003c-4.831 0-7.467-1.344-7.467-2.036z"></path>
<path fill="#fff" d="M13.965 21.431c4.831 0 7.467 1.345 7.467 2.036s-2.636 2.036-7.467 2.036-7.467-1.345-7.467-2.036 2.637-2.036 7.467-2.036z"></path>
<path fill="#fff" d="M13.964 29.578c-4.831 0-7.467-1.345-7.467-2.036v-2.185c1.988 0.959 4.323 1.52 6.789 1.52 0.238 0 0.476-0.005 0.712-0.016l-0.034 0.001c0.18 0.007 0.391 0.011 0.603 0.011 2.406 0 4.692-0.512 6.756-1.432l-0.106 0.042h0.213v2.052c0 0.698-2.636 2.043-7.467 2.043z"></path>
<path fill="#fff" d="M22.788 24.124v-0.655c0-0.853-0.64-1.534-1.677-2.059 0.332 0.014 0.665 0.022 0.998 0.022 0.202 0.009 0.44 0.014 0.678 0.014 2.466 0 4.801-0.56 6.884-1.561l-0.096 0.041v2.185c0 0.656-2.405 1.89-6.788 2.012z"></path>
<path fill="#fff" d="M22.11 20.069c-4.831 0-7.467-1.345-7.467-2.036v-2.185c1.988 0.959 4.323 1.52 6.789 1.52 0.238 0 0.476-0.005 0.712-0.016l-0.034 0.001c0.202 0.009 0.44 0.014 0.678 0.014 2.466 0 4.801-0.56 6.884-1.561l-0.096 0.041v2.194c0 0.687-2.636 2.027-7.467 2.027z"></path>
<path fill="#fff" d="M22.111 16c-4.831 0-7.467-1.345-7.467-2.036v-2.187c1.988 0.959 4.323 1.52 6.789 1.52 0.238 0 0.476-0.005 0.712-0.016l-0.034 0.001c0.202 0.009 0.44 0.014 0.678 0.014 2.466 0 4.801-0.56 6.884-1.561l-0.096 0.041v2.187c0 0.693-2.636 2.036-7.467 2.036z"></path>
</svg>
<svg id="icon-icon_Profile_HiFi-M_Active" width="32" height="32" viewBox="0 0 32 32" x="480" y="0">
<path fill="#ffcf48" d="M4.514 29.62l2.797-1.546c0.179-0.101 0.393-0.16 0.62-0.16s0.441 0.059 0.627 0.164l-0.006-0.003 2.853 1.572-0.601-3.356c-0.011-0.064-0.017-0.138-0.017-0.214 0-0.364 0.145-0.693 0.38-0.934l-0 0 2.156-2.201c0.023-0.021 0.037-0.051 0.037-0.084 0-0.015-0.003-0.029-0.008-0.042l0 0.001c-0.013-0.045-0.051-0.078-0.098-0.083l-0.001-0-2.931-0.446c-0.441-0.069-0.804-0.349-0.988-0.731l-0.003-0.008-1.317-2.797c-0.012-0.030-0.042-0.051-0.076-0.051-0.002 0-0.003 0-0.005 0h0l-1.403 2.857c-0.184 0.386-0.543 0.662-0.971 0.729l-0.007 0.001-2.94 0.447c-0.062 0.007-0.11 0.060-0.11 0.123 0 0.036 0.015 0.068 0.039 0.090l0 0 2.157 2.201c0.235 0.241 0.38 0.571 0.38 0.935 0 0.076-0.006 0.15-0.018 0.222l0.001-0.008z"></path>
<path fill="#030504" opacity="0.1" d="M13.729 22.559c0.025-0.024 0.041-0.058 0.041-0.095 0-0.016-0.003-0.032-0.008-0.046l0 0.001c-0.014-0.049-0.055-0.085-0.106-0.092l-0.001-0-0.829-0.362-2.329 2.384c-0.261 0.269-0.422 0.636-0.422 1.041 0 0.084 0.007 0.167 0.020 0.248l-0.001-0.009 0.272 2.609-2.044-0.973c-0.198-0.113-0.436-0.18-0.689-0.18s-0.49 0.067-0.696 0.183l0.007-0.004-2.837 1.395-0.158 1.315 3.106-1.707c0.198-0.112 0.436-0.179 0.689-0.179s0.49 0.066 0.696 0.182l-0.007-0.004 3.17 1.745-0.669-3.727c-0.013-0.073-0.020-0.156-0.020-0.241 0-0.404 0.161-0.771 0.423-1.039l-0 0z"></path>
<path fill="#232e33" d="M13.434 21.543l-3.010-0.506-1.318-2.797c-0.213-0.443-0.658-0.743-1.173-0.743s-0.96 0.3-1.17 0.735l-0.003 0.008-1.387 2.855-2.942 0.447c-0.643 0.102-1.128 0.653-1.128 1.317 0 0.363 0.146 0.693 0.382 0.933l2.156 2.2c0.022 0.022 0.036 0.053 0.036 0.087 0 0.007-0.001 0.014-0.002 0.021l0-0.001-0.578 3.534c-0.010 0.057-0.016 0.123-0.016 0.191 0 0.374 0.185 0.705 0.469 0.907l0.003 0.002c0.172 0.124 0.387 0.198 0.619 0.198 0.19 0 0.369-0.050 0.523-0.137l-0.005 0.003 3.093-1.66 3.012 1.66c0.149 0.084 0.328 0.133 0.518 0.133 0 0 0 0 0 0v0c0.001 0 0.001 0 0.002 0 0.232 0 0.446-0.074 0.621-0.2l-0.003 0.002c0.287-0.204 0.472-0.535 0.472-0.909 0-0.067-0.006-0.133-0.017-0.197l0.001 0.007-0.578-3.535c-0.001-0.006-0.002-0.013-0.002-0.020 0-0.034 0.014-0.064 0.036-0.086v0l2.155-2.201c0.236-0.24 0.381-0.57 0.381-0.933 0-0.664-0.485-1.214-1.12-1.316l-0.008-0.001zM4.695 25.149l-2.157-2.201c-0.024-0.023-0.039-0.055-0.039-0.090 0-0.063 0.048-0.116 0.109-0.123l0.001-0 2.94-0.447c0.436-0.067 0.794-0.344 0.975-0.722l0.003-0.008 1.403-2.857c0.001-0 0.003-0 0.005-0 0.034 0 0.064 0.021 0.076 0.051l0 0.001 1.317 2.797c0.187 0.39 0.55 0.67 0.984 0.738l0.007 0.001 2.931 0.446c0.047 0.005 0.085 0.038 0.098 0.082l0 0.001c0.005 0.012 0.008 0.027 0.008 0.042 0 0.033-0.014 0.063-0.037 0.084l-0 0-2.156 2.201c-0.235 0.241-0.38 0.571-0.38 0.934 0 0.075 0.006 0.149 0.018 0.221l-0.001-0.008 0.601 3.356-2.853-1.572c-0.179-0.101-0.393-0.16-0.62-0.16s-0.441 0.059-0.627 0.164l0.006-0.003-2.797 1.541 0.544-3.324c0.011-0.065 0.018-0.14 0.018-0.216 0-0.361-0.143-0.689-0.375-0.93l0 0z"></path>
<path fill="#ffcf48" d="M11.006 7.395c-0.725 0.99-1.883 1.626-3.19 1.626-1.297 0-2.448-0.627-3.167-1.594l-0.008-0.011c-0.161 0.119-0.302 0.235-0.436 0.359l0.003-0.003c-1.2 1.324-1.934 3.090-1.934 5.027 0 0.021 0 0.041 0 0.062l-0-0.003c0.005 0.606 0.281 0.727 0.722 0.727h9.869c0.039 0.009 0.085 0.014 0.131 0.014 0.333 0 0.604-0.27 0.604-0.604 0-0.044-0.005-0.086-0.013-0.127l0.001 0.004c-0.091-2.181-1.066-4.117-2.575-5.472l-0.007-0.006z"></path>
<path fill="#030504" opacity="0.1" d="M11.199 6.91c-0.107 0.128-0.215 0.244-0.328 0.354l-0.001 0.001c0.847 1.254 1.383 2.781 1.467 4.428l0.001 0.021c0.009 0.040 0.014 0.086 0.014 0.133 0 0.361-0.293 0.654-0.654 0.654-0.050 0-0.099-0.006-0.146-0.016l0.004 0.001h-9.802c-0.005 0.115-0.014 0.237-0.013 0.345 0.006 0.656 0.304 0.787 0.782 0.787h10.69c0.043 0.010 0.092 0.016 0.142 0.016 0.361 0 0.653-0.292 0.653-0.653 0-0.047-0.005-0.094-0.015-0.138l0.001 0.004c-0.096-2.363-1.153-4.461-2.787-5.929l-0.008-0.007z"></path>
<path fill="#ffcf48" d="M10.585 5.044c0 1.529-1.24 2.769-2.769 2.769s-2.769-1.24-2.769-2.769c0-1.529 1.24-2.769 2.769-2.769s2.769 1.24 2.769 2.769z"></path>
<path fill="#030504" opacity="0.1" d="M9.257 2.674c0.258 0.409 0.411 0.906 0.414 1.438v0.001c-0.003 1.532-1.246 2.773-2.779 2.773-0 0-0.001 0-0.001 0h0c-0.533-0.002-1.030-0.156-1.45-0.421l0.011 0.007c0.494 0.812 1.373 1.346 2.378 1.346 1.532 0 2.773-1.242 2.773-2.773 0-1.004-0.534-1.884-1.333-2.37l-0.012-0.007z"></path>
<path fill="#232e33" d="M11.566 6.31c0.138-0.376 0.221-0.81 0.226-1.263l0-0.003c0-0.019 0.001-0.042 0.001-0.065 0-2.197-1.781-3.978-3.978-3.978s-3.978 1.781-3.978 3.978c0 0.023 0 0.046 0.001 0.069l-0-0.003c0.006 0.461 0.091 0.9 0.24 1.307l-0.009-0.027c-0.267 0.189-0.501 0.383-0.72 0.594l0.002-0.002c-1.417 1.553-2.285 3.628-2.285 5.905 0 0.015 0 0.030 0 0.045v-0.002c-0.003 0.039-0.005 0.085-0.005 0.131 0 0.994 0.806 1.801 1.801 1.801 0.047 0 0.095-0.002 0.141-0.005l-0.006 0h9.869c0.044 0.004 0.096 0.006 0.148 0.006 0.988 0 1.789-0.801 1.789-1.789 0-0.056-0.003-0.111-0.008-0.166l0.001 0.007c-0.116-2.631-1.341-4.954-3.216-6.528l-0.014-0.011zM13.426 13.42c-0.132 0.106-0.301 0.17-0.485 0.17-0.027 0-0.053-0.001-0.079-0.004l0.003 0h-9.869c-0.442 0-0.717-0.121-0.722-0.727-0-0.018-0-0.038-0-0.059 0-1.938 0.735-3.704 1.941-5.034l-0.006 0.006c0.131-0.121 0.272-0.238 0.419-0.347l0.014-0.010c0.726 0.978 1.877 1.605 3.174 1.605 1.307 0 2.465-0.636 3.182-1.615l0.008-0.011c1.516 1.361 2.491 3.298 2.581 5.463l0.001 0.016c0.002 0.021 0.003 0.045 0.003 0.069 0 0.181-0.061 0.347-0.164 0.48l0.001-0.002zM5.045 5.045c0-0.002 0-0.003 0-0.005 0-1.532 1.242-2.773 2.773-2.773s2.773 1.242 2.773 2.773c0 1.532-1.242 2.773-2.773 2.773v0c-1.529-0.001-2.769-1.239-2.772-2.768v-0z"></path>
<path fill="#ffcf48" d="M19.127 9.218c-0.394 0-0.714 0.319-0.714 0.714v0 2.942c0 0.394 0.32 0.714 0.714 0.714s0.714-0.319 0.714-0.714v0-2.947c-0.003-0.392-0.321-0.708-0.714-0.708 0 0 0 0-0 0v0z"></path>
<path fill="#030504" opacity="0.1" d="M18.387 12.247v1.075c0 0.412 0.334 0.747 0.747 0.747s0.747-0.334 0.747-0.747v0-2.7c-0.358 0.669-0.864 1.217-1.476 1.614l-0.017 0.010z"></path>
<path fill="#ffcf48" d="M24.070 13.586c0 0 0 0 0 0 0.394 0 0.714-0.319 0.715-0.714v-9.884c-0.015-0.383-0.329-0.687-0.714-0.687s-0.699 0.304-0.714 0.686l-0 0.001v9.884c0 0.394 0.32 0.714 0.714 0.714v0z"></path>
<path fill="#030504" opacity="0.1" d="M23.326 9.189v3.786c0 0.412 0.334 0.747 0.747 0.747s0.747-0.334 0.747-0.747v0-5.867c-0.431 0.792-0.927 1.475-1.499 2.087l0.005-0.006z"></path>
<path fill="#ffcf48" d="M29.012 5.895c-0 0-0.001 0-0.001 0-0.394 0-0.714 0.319-0.714 0.714 0 0 0 0 0 0v0 6.265c0 0.394 0.32 0.714 0.714 0.714s0.714-0.319 0.714-0.714v0-6.262c0-0.001 0-0.001 0-0.002 0-0.394-0.319-0.713-0.712-0.714h-0z"></path>
<path fill="#030504" opacity="0.1" d="M28.277 10.97v2.005c0 0.412 0.334 0.747 0.747 0.747s0.747-0.334 0.747-0.747v0-4.084c-0.431 0.791-0.927 1.474-1.498 2.084l0.005-0.006z"></path>
<path fill="#232e33" d="M24.070 14.796c1.060 0 1.92-0.86 1.92-1.92v0-9.884c0-1.060-0.86-1.92-1.92-1.92s-1.92 0.86-1.92 1.92v9.884c0 1.060 0.86 1.92 1.92 1.92v0zM23.356 2.99c0.015-0.383 0.329-0.687 0.714-0.687s0.699 0.304 0.714 0.686l0 0.001v9.884c-0.015 0.383-0.329 0.687-0.714 0.687s-0.699-0.304-0.714-0.686l-0-0.001z"></path>
<path fill="#232e33" d="M29.012 4.688c-1.060 0-1.92 0.86-1.92 1.92v6.265c0 1.060 0.86 1.92 1.92 1.92s1.92-0.86 1.92-1.92v-6.265c0-1.060-0.86-1.92-1.92-1.92v0zM29.726 12.876c0 0.394-0.32 0.714-0.714 0.714s-0.714-0.319-0.714-0.714v0-6.268c0-0.394 0.32-0.714 0.714-0.714s0.714 0.319 0.714 0.714v0z"></path>
<path fill="#232e33" d="M21.051 12.874v-2.942c0-1.060-0.86-1.92-1.92-1.92s-1.92 0.86-1.92 1.92v2.942c0 1.060 0.86 1.92 1.92 1.92s1.92-0.86 1.92-1.92v0zM19.842 12.874c0 0.394-0.32 0.714-0.714 0.714s-0.714-0.319-0.714-0.714v0-2.942c0-0.394 0.32-0.714 0.714-0.714s0.714 0.319 0.714 0.714v0z"></path>
<path fill="#232e33" d="M27.726 23.508h-3.052v-3.051c0-0.334-0.271-0.604-0.604-0.604s-0.604 0.271-0.604 0.604v0 3.051h-3.049c-0.334 0-0.605 0.271-0.605 0.605s0.271 0.605 0.605 0.605v0h3.052v3.052c0 0.334 0.271 0.604 0.604 0.604s0.604-0.271 0.604-0.604v0-3.052h3.052c0.334 0 0.605-0.271 0.605-0.605s-0.271-0.605-0.605-0.605v0z"></path>
</svg>
<svg id="icon-icon_Profile_HiFi-M_Inactive" width="32" height="32" viewBox="0 0 32 32" x="528" y="0">
<path fill="#f6f6f6" d="M4.514 29.62l2.797-1.546c0.179-0.101 0.393-0.16 0.62-0.16s0.441 0.059 0.627 0.164l-0.006-0.003 2.853 1.572-0.601-3.356c-0.011-0.064-0.017-0.138-0.017-0.214 0-0.364 0.145-0.693 0.38-0.934l-0 0 2.156-2.201c0.023-0.021 0.037-0.051 0.037-0.084 0-0.015-0.003-0.029-0.008-0.042l0 0.001c-0.013-0.045-0.051-0.078-0.098-0.083l-0.001-0-2.931-0.446c-0.441-0.069-0.804-0.349-0.988-0.731l-0.003-0.008-1.317-2.797c-0.012-0.030-0.042-0.051-0.076-0.051-0.002 0-0.003 0-0.005 0h0l-1.403 2.857c-0.184 0.386-0.543 0.662-0.971 0.729l-0.007 0.001-2.94 0.447c-0.062 0.007-0.11 0.060-0.11 0.123 0 0.036 0.015 0.068 0.039 0.090l0 0 2.157 2.201c0.235 0.241 0.38 0.571 0.38 0.935 0 0.076-0.006 0.15-0.018 0.222l0.001-0.008z"></path>
<path fill="#232e33" d="M13.434 21.543l-3.010-0.506-1.318-2.797c-0.213-0.443-0.658-0.743-1.173-0.743s-0.96 0.3-1.17 0.735l-0.003 0.008-1.387 2.855-2.942 0.447c-0.643 0.102-1.128 0.653-1.128 1.317 0 0.363 0.146 0.693 0.382 0.933l2.156 2.2c0.022 0.022 0.036 0.053 0.036 0.087 0 0.007-0.001 0.014-0.002 0.021l0-0.001-0.578 3.534c-0.010 0.057-0.016 0.123-0.016 0.191 0 0.374 0.185 0.705 0.469 0.907l0.003 0.002c0.172 0.124 0.387 0.198 0.619 0.198 0.19 0 0.369-0.050 0.523-0.137l-0.005 0.003 3.093-1.66 3.012 1.66c0.149 0.084 0.328 0.133 0.518 0.133 0 0 0 0 0 0v0c0.001 0 0.001 0 0.002 0 0.232 0 0.446-0.074 0.621-0.2l-0.003 0.002c0.287-0.204 0.472-0.535 0.472-0.909 0-0.067-0.006-0.133-0.017-0.197l0.001 0.007-0.578-3.535c-0.001-0.006-0.002-0.013-0.002-0.020 0-0.034 0.014-0.064 0.036-0.086v0l2.155-2.201c0.236-0.24 0.381-0.57 0.381-0.933 0-0.664-0.485-1.214-1.12-1.316l-0.008-0.001zM4.695 25.149l-2.157-2.201c-0.024-0.023-0.039-0.055-0.039-0.090 0-0.063 0.048-0.116 0.109-0.123l0.001-0 2.94-0.447c0.436-0.067 0.794-0.344 0.975-0.722l0.003-0.008 1.403-2.857c0.001-0 0.003-0 0.005-0 0.034 0 0.064 0.021 0.076 0.051l0 0.001 1.317 2.797c0.187 0.39 0.55 0.67 0.984 0.738l0.007 0.001 2.931 0.446c0.047 0.005 0.085 0.038 0.098 0.082l0 0.001c0.005 0.012 0.008 0.027 0.008 0.042 0 0.033-0.014 0.063-0.037 0.084l-0 0-2.156 2.201c-0.235 0.241-0.38 0.571-0.38 0.934 0 0.075 0.006 0.149 0.018 0.221l-0.001-0.008 0.601 3.356-2.853-1.572c-0.179-0.101-0.393-0.16-0.62-0.16s-0.441 0.059-0.627 0.164l0.006-0.003-2.797 1.541 0.544-3.324c0.011-0.065 0.018-0.14 0.018-0.216 0-0.361-0.143-0.689-0.375-0.93l0 0z"></path>
<path fill="#f6f6f6" d="M11.006 7.395c-0.725 0.99-1.883 1.626-3.19 1.626-1.297 0-2.448-0.627-3.167-1.594l-0.008-0.011c-0.161 0.119-0.302 0.235-0.436 0.359l0.003-0.003c-1.2 1.324-1.934 3.090-1.934 5.027 0 0.021 0 0.041 0 0.062l-0-0.003c0.005 0.606 0.281 0.727 0.722 0.727h9.869c0.039 0.009 0.085 0.014 0.131 0.014 0.333 0 0.604-0.27 0.604-0.604 0-0.044-0.005-0.086-0.013-0.127l0.001 0.004c-0.091-2.181-1.066-4.117-2.575-5.472l-0.007-0.006z"></path>
<path fill="#f6f6f6" d="M10.585 5.044c0 1.529-1.24 2.769-2.769 2.769s-2.769-1.24-2.769-2.769c0-1.529 1.24-2.769 2.769-2.769s2.769 1.24 2.769 2.769z"></path>
<path fill="#232e33" d="M11.566 6.31c0.138-0.376 0.221-0.81 0.226-1.263l0-0.003c0-0.019 0.001-0.042 0.001-0.065 0-2.197-1.781-3.978-3.978-3.978s-3.978 1.781-3.978 3.978c0 0.023 0 0.046 0.001 0.069l-0-0.003c0.006 0.461 0.091 0.9 0.24 1.307l-0.009-0.027c-0.267 0.189-0.501 0.383-0.72 0.594l0.002-0.002c-1.417 1.553-2.285 3.628-2.285 5.905 0 0.015 0 0.030 0 0.045v-0.002c-0.003 0.039-0.005 0.085-0.005 0.131 0 0.994 0.806 1.801 1.801 1.801 0.047 0 0.095-0.002 0.141-0.005l-0.006 0h9.869c0.044 0.004 0.096 0.006 0.148 0.006 0.988 0 1.789-0.801 1.789-1.789 0-0.056-0.003-0.111-0.008-0.166l0.001 0.007c-0.116-2.631-1.341-4.954-3.216-6.528l-0.014-0.011zM13.426 13.42c-0.132 0.106-0.301 0.17-0.485 0.17-0.027 0-0.053-0.001-0.079-0.004l0.003 0h-9.869c-0.442 0-0.717-0.121-0.722-0.727-0-0.018-0-0.038-0-0.059 0-1.938 0.735-3.704 1.941-5.034l-0.006 0.006c0.131-0.121 0.272-0.238 0.419-0.347l0.014-0.010c0.726 0.978 1.877 1.605 3.174 1.605 1.307 0 2.465-0.636 3.182-1.615l0.008-0.011c1.516 1.361 2.491 3.298 2.581 5.463l0.001 0.016c0.002 0.021 0.003 0.045 0.003 0.069 0 0.181-0.061 0.347-0.164 0.48l0.001-0.002zM5.045 5.045c0-0.002 0-0.003 0-0.005 0-1.532 1.242-2.773 2.773-2.773s2.773 1.242 2.773 2.773c0 1.532-1.242 2.773-2.773 2.773v0c-1.529-0.001-2.769-1.239-2.772-2.768v-0z"></path>
<path fill="#f6f6f6" d="M19.127 9.218c-0.394 0-0.714 0.319-0.714 0.714v0 2.942c0 0.394 0.32 0.714 0.714 0.714s0.714-0.319 0.714-0.714v0-2.947c-0.003-0.392-0.321-0.708-0.714-0.708 0 0 0 0-0 0v0z"></path>
<path fill="#f6f6f6" d="M24.070 13.586c0 0 0 0 0 0 0.394 0 0.714-0.319 0.715-0.714v-9.884c-0.015-0.383-0.329-0.687-0.714-0.687s-0.699 0.304-0.714 0.686l-0 0.001v9.884c0 0.394 0.32 0.714 0.714 0.714v0z"></path>
<path fill="#f6f6f6" d="M29.012 5.895c-0 0-0.001 0-0.001 0-0.394 0-0.714 0.319-0.714 0.714 0 0 0 0 0 0v0 6.265c0 0.394 0.32 0.714 0.714 0.714s0.714-0.319 0.714-0.714v0-6.262c0-0.001 0-0.001 0-0.002 0-0.394-0.319-0.713-0.712-0.714h-0z"></path>
<path fill="#232e33" d="M24.070 14.796c1.060 0 1.92-0.86 1.92-1.92v0-9.884c0-1.060-0.86-1.92-1.92-1.92s-1.92 0.86-1.92 1.92v9.884c0 1.060 0.86 1.92 1.92 1.92v0zM23.356 2.99c0.015-0.383 0.329-0.687 0.714-0.687s0.699 0.304 0.714 0.686l0 0.001v9.884c-0.015 0.383-0.329 0.687-0.714 0.687s-0.699-0.304-0.714-0.686l-0-0.001z"></path>
<path fill="#232e33" d="M29.012 4.688c-1.060 0-1.92 0.86-1.92 1.92v6.265c0 1.060 0.86 1.92 1.92 1.92s1.92-0.86 1.92-1.92v-6.265c0-1.060-0.86-1.92-1.92-1.92v0zM29.726 12.876c0 0.394-0.32 0.714-0.714 0.714s-0.714-0.319-0.714-0.714v0-6.268c0-0.394 0.32-0.714 0.714-0.714s0.714 0.319 0.714 0.714v0z"></path>
<path fill="#232e33" d="M21.051 12.874v-2.942c0-1.060-0.86-1.92-1.92-1.92s-1.92 0.86-1.92 1.92v2.942c0 1.060 0.86 1.92 1.92 1.92s1.92-0.86 1.92-1.92v0zM19.842 12.874c0 0.394-0.32 0.714-0.714 0.714s-0.714-0.319-0.714-0.714v0-2.942c0-0.394 0.32-0.714 0.714-0.714s0.714 0.319 0.714 0.714v0z"></path>
<path fill="#232e33" d="M27.726 23.508h-3.052v-3.051c0-0.334-0.271-0.604-0.604-0.604s-0.604 0.271-0.604 0.604v0 3.051h-3.049c-0.334 0-0.605 0.271-0.605 0.605s0.271 0.605 0.605 0.605v0h3.052v3.052c0 0.334 0.271 0.604 0.604 0.604s0.604-0.271 0.604-0.604v0-3.052h3.052c0.334 0 0.605-0.271 0.605-0.605s-0.271-0.605-0.605-0.605v0z"></path>
</svg>
<svg id="icon-icon_Settings_HiFi-M_Active" width="32" height="32" viewBox="0 0 32 32" x="576" y="0">
<path fill="#282828" d="M18.493 15.358v-11.801c0-1.375-1.115-2.49-2.49-2.49s-2.49 1.115-2.49 2.49v0 11.796c-1.499 0.871-2.49 2.468-2.49 4.298s0.992 3.427 2.466 4.285l0.024 0.013v4.48c0 1.375 1.115 2.49 2.49 2.49s2.49-1.115 2.49-2.49v0-4.48c1.5-0.87 2.492-2.468 2.492-4.298s-0.993-3.428-2.469-4.285l-0.024-0.013z"></path>
<path fill="#49545e" d="M14.758 3.557c0-0.687 0.557-1.245 1.245-1.245s1.245 0.557 1.245 1.245v0 11.247c-0.373-0.112-0.801-0.177-1.245-0.177s-0.872 0.065-1.276 0.185l0.032-0.008z"></path>
<path fill="#49545e" d="M17.247 28.441c0 0.687-0.557 1.245-1.245 1.245s-1.245-0.557-1.245-1.245v0-3.956c0.373 0.112 0.801 0.177 1.245 0.177s0.872-0.065 1.276-0.185l-0.032 0.008z"></path>
<path fill="#282828" d="M11.028 9.67c-0.005-1.828-0.996-3.424-2.468-4.285l-0.024-0.013v-1.813c0-1.375-1.115-2.49-2.49-2.49s-2.49 1.115-2.49 2.49v0 1.813c-1.499 0.871-2.49 2.468-2.49 4.298s0.992 3.427 2.466 4.285l0.024 0.013v14.467c0 1.375 1.115 2.49 2.49 2.49s2.49-1.115 2.49-2.49v0 0-14.467c1.496-0.874 2.486-2.469 2.492-4.297v-0.001z"></path>
<path fill="#49545e" d="M4.804 3.557c0-0.687 0.557-1.245 1.245-1.245s1.245 0.557 1.245 1.245v0 1.29c-0.373-0.112-0.801-0.177-1.245-0.177s-0.872 0.065-1.276 0.185l0.032-0.008z"></path>
<path fill="#49545e" d="M7.294 28.443c0 0.687-0.557 1.245-1.245 1.245s-1.245-0.557-1.245-1.245v0-13.919c0.373 0.112 0.801 0.177 1.245 0.177s0.872-0.065 1.276-0.185l-0.032 0.008v13.915z"></path>
<path fill="#282828" d="M30.937 12.166c-0.005-1.828-0.994-3.424-2.466-4.285l-0.024-0.013v-4.311c0-1.375-1.115-2.49-2.49-2.49s-2.49 1.115-2.49 2.49v0 4.308c-1.499 0.871-2.49 2.468-2.49 4.298s0.992 3.427 2.466 4.285l0.024 0.013v11.972c0 1.375 1.115 2.49 2.49 2.49s2.49-1.115 2.49-2.49v0-11.969c1.495-0.874 2.485-2.47 2.49-4.297v-0.001z"></path>
<path fill="#49545e" d="M24.713 3.557c0-0.687 0.557-1.245 1.245-1.245s1.245 0.557 1.245 1.245v0 3.78c-0.373-0.112-0.801-0.177-1.245-0.177s-0.872 0.065-1.276 0.185l0.032-0.008z"></path>
<path fill="#ffcf48" d="M29.692 12.163c0 2.062-1.672 3.734-3.734 3.734s-3.734-1.672-3.734-3.734c0-2.062 1.672-3.734 3.734-3.734s3.734 1.672 3.734 3.734z"></path>
<path fill="#49545e" d="M27.202 28.443c0 0.687-0.557 1.245-1.245 1.245s-1.245-0.557-1.245-1.245v0-11.423c0.373 0.112 0.801 0.177 1.245 0.177s0.872-0.065 1.276-0.185l-0.032 0.008z"></path>
<path fill="#000" d="M4.804 14.49v0.9l2.49 2.49v-3.39c-0.373 0.112-0.801 0.177-1.245 0.177s-0.872-0.065-1.276-0.185l0.032 0.008z"></path>
<path fill="#000" d="M14.758 24.485v2.214l2.325 2.325c0.099-0.167 0.159-0.368 0.163-0.582v-3.957c-0.373 0.112-0.801 0.177-1.245 0.177s-0.872-0.065-1.276-0.185l0.032 0.008z"></path>
<path fill="#030504" opacity="0.1" d="M27.891 8.986c0.347 0.549 0.553 1.217 0.556 1.933v0.001c0 0.006 0 0.013 0 0.020 0 2.051-1.662 3.713-3.713 3.713-0.724 0-1.399-0.207-1.97-0.565l0.015 0.009c0.663 1.088 1.844 1.803 3.191 1.803 2.057 0 3.725-1.668 3.725-3.725 0-1.347-0.715-2.527-1.787-3.181l-0.016-0.009z"></path>
<path fill="#000" d="M24.713 16.985v0.929l2.49 2.49v-3.419c-0.373 0.112-0.801 0.177-1.245 0.177s-0.872-0.065-1.276-0.185l0.032 0.008z"></path>
<path fill="#ffcf48" d="M19.738 19.658c0 2.062-1.672 3.734-3.734 3.734s-3.734-1.672-3.734-3.734c0-2.062 1.672-3.734 3.734-3.734s3.734 1.672 3.734 3.734z"></path>
<path fill="#030504" opacity="0.1" d="M17.937 16.48c0.347 0.549 0.553 1.217 0.556 1.933v0.001c0 0.006 0 0.013 0 0.020 0 2.051-1.662 3.713-3.713 3.713-0.724 0-1.399-0.207-1.97-0.565l0.015 0.009c0.663 1.088 1.844 1.803 3.191 1.803 2.057 0 3.725-1.668 3.725-3.725 0-1.347-0.715-2.527-1.787-3.181l-0.016-0.009z"></path>
<path fill="#ffcf48" d="M9.783 9.666c0 2.062-1.672 3.734-3.734 3.734s-3.734-1.672-3.734-3.734c0-2.062 1.672-3.734 3.734-3.734s3.734 1.672 3.734 3.734z"></path>
<path fill="#030504" opacity="0.1" d="M7.983 6.487c0.347 0.549 0.553 1.217 0.556 1.933v0.001c0 0.006 0 0.013 0 0.020 0 2.051-1.662 3.713-3.713 3.713-0.724 0-1.399-0.207-1.97-0.565l0.015 0.009c0.663 1.088 1.844 1.803 3.191 1.803 2.057 0 3.725-1.668 3.725-3.725 0-1.347-0.715-2.527-1.787-3.181l-0.016-0.009z"></path>
</svg>
<svg id="icon-icon_Settings_HiFi-M_Inactive" width="32" height="32" viewBox="0 0 32 32" x="624" y="0">
<path fill="#282828" d="M18.493 15.358v-11.801c0-1.375-1.115-2.49-2.49-2.49s-2.49 1.115-2.49 2.49v0 11.796c-1.499 0.871-2.49 2.468-2.49 4.298s0.992 3.427 2.466 4.285l0.024 0.013v4.48c0 1.375 1.115 2.49 2.49 2.49s2.49-1.115 2.49-2.49v0-4.48c1.5-0.87 2.492-2.468 2.492-4.298s-0.993-3.428-2.469-4.285l-0.024-0.013z"></path>
<path fill="#f6f6f6" d="M14.758 3.557c0-0.687 0.557-1.245 1.245-1.245s1.245 0.557 1.245 1.245v0 11.247c-0.373-0.112-0.801-0.177-1.245-0.177s-0.872 0.065-1.276 0.185l0.032-0.008z"></path>
<path fill="#f6f6f6" d="M17.247 28.441c0 0.687-0.557 1.245-1.245 1.245s-1.245-0.557-1.245-1.245v0-3.956c0.373 0.112 0.801 0.177 1.245 0.177s0.872-0.065 1.276-0.185l-0.032 0.008z"></path>
<path fill="#282828" d="M11.028 9.67c-0.005-1.828-0.996-3.424-2.468-4.285l-0.024-0.013v-1.813c0-1.375-1.115-2.49-2.49-2.49s-2.49 1.115-2.49 2.49v0 1.813c-1.499 0.871-2.49 2.468-2.49 4.298s0.992 3.427 2.466 4.285l0.024 0.013v14.467c0 1.375 1.115 2.49 2.49 2.49s2.49-1.115 2.49-2.49v0 0-14.467c1.496-0.874 2.486-2.469 2.492-4.297v-0.001z"></path>
<path fill="#f6f6f6" d="M4.804 3.557c0-0.687 0.557-1.245 1.245-1.245s1.245 0.557 1.245 1.245v0 1.29c-0.373-0.112-0.801-0.177-1.245-0.177s-0.872 0.065-1.276 0.185l0.032-0.008z"></path>
<path fill="#f6f6f6" d="M7.294 28.443c0 0.687-0.557 1.245-1.245 1.245s-1.245-0.557-1.245-1.245v0-13.919c0.373 0.112 0.801 0.177 1.245 0.177s0.872-0.065 1.276-0.185l-0.032 0.008v13.915z"></path>
<path fill="#282828" d="M30.937 12.166c-0.005-1.828-0.994-3.424-2.466-4.285l-0.024-0.013v-4.311c0-1.375-1.115-2.49-2.49-2.49s-2.49 1.115-2.49 2.49v0 4.308c-1.499 0.871-2.49 2.468-2.49 4.298s0.992 3.427 2.466 4.285l0.024 0.013v11.972c0 1.375 1.115 2.49 2.49 2.49s2.49-1.115 2.49-2.49v0-11.969c1.495-0.874 2.485-2.47 2.49-4.297v-0.001z"></path>
<path fill="#f6f6f6" d="M24.713 3.557c0-0.687 0.557-1.245 1.245-1.245s1.245 0.557 1.245 1.245v0 3.78c-0.373-0.112-0.801-0.177-1.245-0.177s-0.872 0.065-1.276 0.185l0.032-0.008z"></path>
<path fill="#f6f6f6" d="M29.692 12.163c0 2.062-1.672 3.734-3.734 3.734s-3.734-1.672-3.734-3.734c0-2.062 1.672-3.734 3.734-3.734s3.734 1.672 3.734 3.734z"></path>
<path fill="#f6f6f6" d="M27.202 28.443c0 0.687-0.557 1.245-1.245 1.245s-1.245-0.557-1.245-1.245v0-11.423c0.373 0.112 0.801 0.177 1.245 0.177s0.872-0.065 1.276-0.185l-0.032 0.008z"></path>
<path fill="#f6f6f6" d="M19.738 19.658c0 2.062-1.672 3.734-3.734 3.734s-3.734-1.672-3.734-3.734c0-2.062 1.672-3.734 3.734-3.734s3.734 1.672 3.734 3.734z"></path>
<path fill="#f6f6f6" d="M9.783 9.666c0 2.062-1.672 3.734-3.734 3.734s-3.734-1.672-3.734-3.734c0-2.062 1.672-3.734 3.734-3.734s3.734 1.672 3.734 3.734z"></path>
</svg>
<svg id="icon-icon_home_HiFi-M_Active" width="32" height="32" viewBox="0 0 32 32" x="672" y="0">
<path fill="#282828" d="M30.697 13.45l-14.255-12.219c-0.118-0.102-0.272-0.164-0.442-0.164s-0.324 0.062-0.442 0.165l0.001-0.001-14.254 12.219c-0.145 0.125-0.237 0.309-0.237 0.515 0 0.375 0.304 0.678 0.678 0.678 0 0 0 0 0 0h2.036v15.613c0 0.375 0.304 0.678 0.678 0.678v0h23.079c0.375 0 0.678-0.304 0.678-0.678v0-15.613h2.036c0 0 0 0 0 0 0.375 0 0.678-0.304 0.678-0.678 0-0.206-0.092-0.39-0.236-0.514l-0.001-0.001z"></path>
<path fill="#49545e" d="M11.927 29.578v-12.219h8.145v12.219z"></path>
<path fill="#fff" opacity="0.07" d="M13.285 20.074c0-0.75 0.608-1.358 1.358-1.358h5.43v-1.358h-8.145v12.219h1.358v-9.503z"></path>
<path fill="#ffcf48" d="M27.54 13.282c-0.375 0-0.678 0.304-0.678 0.678v15.617s-5.386-0.033-5.43 0v-12.897c0-0.375-0.304-0.678-0.678-0.678v0h-9.504c-0.375 0-0.678 0.304-0.678 0.678v0 12.897h-5.43v-15.613c0-0.375-0.304-0.678-0.678-0.678h-0.884l12.419-10.645 12.423 10.641z"></path>
<path fill="#fff" opacity="0.2" d="M4.461 13.282c0.375 0 0.678 0.304 0.678 0.678v15.617h1.958v-15.613c0.002-0.017 0.003-0.036 0.003-0.056 0-0.322-0.243-0.588-0.556-0.622l-0.003-0h-0.723l10.181-10.645-12.421 10.641z"></path>
<path fill="#000" opacity="0.1" d="M16 2.641l10.181 10.645h-0.722c-0.316 0.035-0.559 0.3-0.559 0.623 0 0.020 0.001 0.039 0.003 0.058l-0-0.002v15.613h1.957v-15.613c0-0.375 0.304-0.678 0.678-0.678v0h0.88z"></path>
</svg>
<svg id="icon-icon_home_HiFi-M_Inactive" width="32" height="32" viewBox="0 0 32 32" x="720" y="0">
<path fill="#282828" d="M30.697 13.45l-14.255-12.219c-0.118-0.102-0.272-0.164-0.442-0.164s-0.324 0.062-0.442 0.165l0.001-0.001-14.254 12.219c-0.145 0.125-0.237 0.309-0.237 0.515 0 0.375 0.304 0.678 0.678 0.678 0 0 0 0 0 0h2.036v15.613c0 0.375 0.304 0.678 0.678 0.678v0h23.079c0.375 0 0.678-0.304 0.678-0.678v0-15.613h2.036c0 0 0 0 0 0 0.375 0 0.678-0.304 0.678-0.678 0-0.206-0.092-0.39-0.236-0.514l-0.001-0.001z"></path>
<path fill="#f6f6f6" d="M11.927 29.578v-12.219h8.145v12.219z"></path>
<path fill="#fff" opacity="0.07" d="M13.285 20.074c0-0.75 0.608-1.358 1.358-1.358h5.43v-1.358h-8.145v12.219h1.358v-9.503z"></path>
<path fill="#f6f6f6" d="M27.54 13.282c-0.375 0-0.678 0.304-0.678 0.678v15.617s-5.386-0.033-5.43 0v-12.897c0-0.375-0.304-0.678-0.678-0.678v0h-9.504c-0.375 0-0.678 0.304-0.678 0.678v0 12.897h-5.43v-15.613c0-0.375-0.304-0.678-0.678-0.678h-0.884l12.419-10.645 12.423 10.641z"></path>
<path fill="#fff" opacity="0.2" d="M4.461 13.282c0.375 0 0.678 0.304 0.678 0.678v15.617h1.958v-15.613c0.002-0.017 0.003-0.036 0.003-0.056 0-0.322-0.243-0.588-0.556-0.622l-0.003-0h-0.723l10.181-10.645-12.421 10.641z"></path>
<path fill="#000" opacity="0.1" d="M16 2.641l10.181 10.645h-0.722c-0.316 0.035-0.559 0.3-0.559 0.623 0 0.020 0.001 0.039 0.003 0.058l-0-0.002v15.613h1.957v-15.613c0-0.375 0.304-0.678 0.678-0.678v0h0.88z"></path>
</svg>
</svg>
