<svg width="30" height="30" viewBox="0 0 30 30" fill="none" xmlns="http://www.w3.org/2000/svg">
<rect width="30" height="30" rx="4" fill="#66A622"/>
<path d="M15.5377 6.48009C15.1974 6.31784 14.802 6.31784 14.4617 6.48009C14.1675 6.62035 14.0053 6.86388 13.9236 6.99748C13.839 7.1356 13.7522 7.31154 13.6676 7.48303L11.8711 11.1224L7.85277 11.7098C7.66361 11.7374 7.46952 11.7657 7.31209 11.8036C7.15979 11.8402 6.8782 11.9194 6.6541 12.1559C6.39486 12.4296 6.27294 12.8056 6.32229 13.1793C6.36495 13.5023 6.54649 13.7317 6.64832 13.8507C6.75359 13.9737 6.89413 14.1106 7.0311 14.2439L9.93759 17.0748L9.25179 21.0734C9.21941 21.2619 9.1862 21.4554 9.17342 21.6168C9.16105 21.773 9.1491 22.0654 9.30468 22.3519C9.48464 22.6832 9.80454 22.9156 10.1753 22.9843C10.4958 23.0437 10.7702 22.9419 10.9149 22.8819C11.0645 22.8198 11.2382 22.7284 11.4075 22.6394L14.9997 20.7502L18.5919 22.6394C18.7612 22.7284 18.9349 22.8198 19.0845 22.8819C19.2292 22.9419 19.5036 23.0437 19.8241 22.9843C20.1948 22.9156 20.5147 22.6832 20.6947 22.3519C20.8503 22.0654 20.8383 21.773 20.826 21.6168C20.8132 21.4554 20.78 21.262 20.7476 21.0734L20.0618 17.0748L22.9683 14.2439C23.1053 14.1105 23.2458 13.9737 23.3511 13.8507C23.4529 13.7317 23.6344 13.5023 23.6771 13.1793C23.7264 12.8056 23.6045 12.4296 23.3453 12.1559C23.1212 11.9194 22.8396 11.8402 22.6873 11.8036C22.5299 11.7657 22.3358 11.7374 22.1466 11.7098L18.1282 11.1224L16.3318 7.48309C16.2472 7.31159 16.1604 7.13561 16.0758 6.99748C15.994 6.86388 15.8318 6.62035 15.5377 6.48009Z" fill="white"/>
</svg>