<svg width="30" height="30" viewBox="0 0 30 30" fill="none" xmlns="http://www.w3.org/2000/svg">
<rect width="30" height="30" rx="4" fill="#66A622"/>
<g clip-path="url(#clip0_2484_5299)">
<path d="M11.6663 11.667C15.4817 11.667 18.3326 10.1587 18.3326 8.81001C18.3326 7.46148 15.4816 5.95312 11.6663 5.95312C7.85092 5.95312 5 7.46148 5 8.81001C5 10.1587 7.85086 11.667 11.6663 11.667Z" fill="white"/>
<path d="M11.6663 23.0952C12.2232 23.0952 12.7591 23.0629 13.269 23.0039C12.8392 22.4515 12.4838 21.8387 12.2176 21.1804C12.0346 21.1866 11.851 21.1908 11.6662 21.1908C9.48609 21.1908 7.42148 20.7588 5.85286 19.9745C5.544 19.8201 5.25977 19.6542 5 19.4785V20.2383C5 21.5869 7.85086 23.0952 11.6663 23.0952Z" fill="white"/>
<path d="M11.6663 19.2866C11.6859 19.2866 11.7051 19.2863 11.7246 19.2863C11.6856 18.9741 11.6652 18.6562 11.6652 18.3336C11.6652 18.0111 11.6855 17.6934 11.7246 17.3815C11.7051 17.3815 11.6858 17.3822 11.6663 17.3822C9.48621 17.3822 7.42167 16.9502 5.85298 16.1658C5.54406 16.0114 5.25977 15.8455 5 15.6699V16.4297C5.00006 17.7783 7.85092 19.2866 11.6663 19.2866Z" fill="white"/>
<path d="M11.6663 15.476C11.8553 15.476 12.0417 15.4722 12.2258 15.465C12.5215 14.7396 12.9255 14.0697 13.4181 13.4755C12.8478 13.5384 12.2616 13.5717 11.6663 13.5717C9.48621 13.5717 7.42167 13.1397 5.85298 12.3554C5.54406 12.2009 5.25977 12.035 5 11.8594V12.6192C5.00006 13.9678 7.85092 15.476 11.6663 15.476Z" fill="white"/>
<path d="M14.5239 15.1751C14.1118 15.7947 13.8173 16.4988 13.6725 17.2555C13.6056 17.6043 13.5703 17.9641 13.5703 18.3321C13.5703 18.6088 13.5905 18.8808 13.6287 19.1471C13.7225 19.8012 13.9274 20.4196 14.2237 20.9831C14.5345 21.5743 14.9458 22.1048 15.435 22.5516C16.4515 23.48 17.8034 24.047 19.2852 24.047C22.4364 24.047 25.0002 21.4833 25.0002 18.3321C25.0002 15.1808 22.4364 12.6172 19.2852 12.6172C18.9595 12.6172 18.6402 12.645 18.3292 12.6976C16.745 12.9655 15.3805 13.8874 14.5239 15.1751Z" fill="white"/>
<path d="M17 18.5H22" stroke="#66A622" stroke-width="1.5" stroke-linecap="round" stroke-linejoin="round"/>
</g>
<defs>
<clipPath id="clip0_2484_5299">
<rect width="20" height="20" fill="white" transform="translate(5 5)"/>
</clipPath>
</defs>
</svg>
