<svg width="30" height="30" viewBox="0 0 30 30" fill="none" xmlns="http://www.w3.org/2000/svg">
<rect width="30" height="30" rx="4" fill="#66A622"/>
<path fill-rule="evenodd" clip-rule="evenodd" d="M18.1987 5.83334H11.8011C11.3619 5.83333 10.9829 5.83332 10.6707 5.85882C10.3413 5.88574 10.0136 5.94517 9.69828 6.10583C9.22787 6.34551 8.84542 6.72796 8.60574 7.19837C8.44508 7.51369 8.38565 7.84137 8.35873 8.17082C8.33323 8.48296 8.33324 8.86192 8.33325 9.30119V20.6988C8.33324 21.1381 8.33323 21.5171 8.35873 21.8292C8.38565 22.1587 8.44508 22.4863 8.60574 22.8017C8.84542 23.2721 9.22787 23.6545 9.69828 23.8942C10.0136 24.0549 10.3413 24.1143 10.6707 24.1412C10.9829 24.1667 11.3618 24.1667 11.8011 24.1667H18.1987C18.638 24.1667 19.017 24.1667 19.3291 24.1412C19.6586 24.1143 19.9862 24.0549 20.3016 23.8942C20.772 23.6545 21.1544 23.2721 21.3941 22.8017C21.5548 22.4863 21.6142 22.1587 21.6411 21.8292C21.6666 21.5171 21.6666 21.1381 21.6666 20.6989V9.30124C21.6666 8.86199 21.6666 8.48295 21.6411 8.17082C21.6142 7.84137 21.5548 7.51369 21.3941 7.19837C21.1544 6.72796 20.772 6.34551 20.3016 6.10583C19.9862 5.94517 19.6586 5.88574 19.3291 5.85882C19.017 5.83332 18.638 5.83333 18.1987 5.83334ZM14.9999 18.3333C14.3096 18.3333 13.7499 18.893 13.7499 19.5833C13.7499 20.2737 14.3096 20.8333 14.9999 20.8333C15.6903 20.8333 16.2499 20.2737 16.2499 19.5833C16.2499 18.893 15.6903 18.3333 14.9999 18.3333Z" fill="white"/>
</svg>
