<svg width="30" height="30" viewBox="0 0 30 30" fill="none" xmlns="http://www.w3.org/2000/svg">
<rect width="30" height="30" rx="4" fill="#66A622"/>
<path d="M24.2857 13C24.4752 13 24.6568 12.9247 24.7908 12.7908C24.9247 12.6568 25 12.4752 25 12.2857V10.1429C25 8.96143 24.0386 8 22.8571 8H18.5714V10.1429C18.5714 10.3323 18.4962 10.514 18.3622 10.6479C18.2283 10.7819 18.0466 10.8571 17.8571 10.8571C17.6677 10.8571 17.486 10.7819 17.3521 10.6479C17.2181 10.514 17.1429 10.3323 17.1429 10.1429V8H7.14286C5.96143 8 5 8.96143 5 10.1429V12.2857C5 12.4752 5.07525 12.6568 5.20921 12.7908C5.34316 12.9247 5.52485 13 5.71429 13C6.89571 13 7.85714 13.9614 7.85714 15.1429C7.85714 16.3243 6.89571 17.2857 5.71429 17.2857C5.52485 17.2857 5.34316 17.361 5.20921 17.4949C5.07525 17.6289 5 17.8106 5 18V20.1429C5 21.3243 5.96143 22.2857 7.14286 22.2857H17.1429V20.1429C17.1429 19.9534 17.2181 19.7717 17.3521 19.6378C17.486 19.5038 17.6677 19.4286 17.8571 19.4286C18.0466 19.4286 18.2283 19.5038 18.3622 19.6378C18.4962 19.7717 18.5714 19.9534 18.5714 20.1429V22.2857H22.8571C24.0386 22.2857 25 21.3243 25 20.1429V18C25 17.8106 24.9247 17.6289 24.7908 17.4949C24.6568 17.361 24.4752 17.2857 24.2857 17.2857C23.1043 17.2857 22.1429 16.3243 22.1429 15.1429C22.1429 13.9614 23.1043 13 24.2857 13ZM18.5714 17.2857C18.5714 17.4752 18.4962 17.6568 18.3622 17.7908C18.2283 17.9247 18.0466 18 17.8571 18C17.6677 18 17.486 17.9247 17.3521 17.7908C17.2181 17.6568 17.1429 17.4752 17.1429 17.2857V16.5714C17.1429 16.382 17.2181 16.2003 17.3521 16.0664C17.486 15.9324 17.6677 15.8571 17.8571 15.8571C18.0466 15.8571 18.2283 15.9324 18.3622 16.0664C18.4962 16.2003 18.5714 16.382 18.5714 16.5714V17.2857ZM18.5714 13.7143C18.5714 13.9037 18.4962 14.0854 18.3622 14.2194C18.2283 14.3533 18.0466 14.4286 17.8571 14.4286C17.6677 14.4286 17.486 14.3533 17.3521 14.2194C17.2181 14.0854 17.1429 13.9037 17.1429 13.7143V13C17.1429 12.8106 17.2181 12.6289 17.3521 12.4949C17.486 12.361 17.6677 12.2857 17.8571 12.2857C18.0466 12.2857 18.2283 12.361 18.3622 12.4949C18.4962 12.6289 18.5714 12.8106 18.5714 13V13.7143Z" fill="white"/>
</svg>
