<svg width="30" height="30" viewBox="0 0 30 30" fill="none" xmlns="http://www.w3.org/2000/svg">
<rect width="30" height="30" rx="4" fill="#66A622"/>
<path d="M22.6012 7.39889C23.5775 8.3752 23.5775 9.95811 22.6012 10.9344C21.6249 11.9107 20.042 11.9107 19.0656 10.9344C18.0893 9.95811 18.0893 8.3752 19.0656 7.39889C20.042 6.42258 21.6249 6.42258 22.6012 7.39889Z" fill="white"/>
<path fill-rule="evenodd" clip-rule="evenodd" d="M22.5001 14.0046C22.5001 13.6639 22.5001 13.4935 22.4448 13.3972C22.3892 13.3004 22.3328 13.2527 22.2282 13.2139C22.124 13.1753 21.9249 13.2088 21.5266 13.2756C20.2429 13.491 18.8777 13.1035 17.8871 12.1129C16.8966 11.1224 16.509 9.7572 16.7245 8.47349C16.7913 8.0752 16.8247 7.87606 16.7861 7.77189C16.7474 7.66727 16.6996 7.61084 16.6029 7.5553C16.5065 7.49999 16.3362 7.49999 15.9955 7.49999H11.4657C10.7949 7.49998 10.2412 7.49997 9.79023 7.53682C9.32181 7.57509 8.89123 7.65723 8.48678 7.8633C7.85957 8.18288 7.34964 8.69282 7.03006 9.32002C6.82399 9.72447 6.74185 10.1551 6.70358 10.6235C6.66673 11.0745 6.66674 11.6281 6.66675 12.2989V18.5344C6.66674 19.2052 6.66673 19.7589 6.70358 20.2098C6.74185 20.6783 6.82399 21.1088 7.03006 21.5133C7.34964 22.1405 7.85957 22.6504 8.48678 22.97C8.89123 23.1761 9.32181 23.2582 9.79023 23.2965C10.2412 23.3333 10.7948 23.3333 11.4656 23.3333H17.7012C18.372 23.3333 18.9256 23.3333 19.3766 23.2965C19.845 23.2582 20.2756 23.1761 20.68 22.97C21.3073 22.6504 21.8172 22.1405 22.1368 21.5133C22.3428 21.1088 22.425 20.6783 22.4633 20.2098C22.5001 19.7589 22.5001 19.2052 22.5001 18.5344V14.0046ZM10.0001 15.8333C10.0001 15.3731 10.3732 15 10.8334 15H17.5001C17.9603 15 18.3334 15.3731 18.3334 15.8333C18.3334 16.2936 17.9603 16.6667 17.5001 16.6667H10.8334C10.3732 16.6667 10.0001 16.2936 10.0001 15.8333ZM10.0001 19.1667C10.0001 18.7064 10.3732 18.3333 10.8334 18.3333H15.8334C16.2937 18.3333 16.6667 18.7064 16.6667 19.1667C16.6667 19.6269 16.2937 20 15.8334 20H10.8334C10.3732 20 10.0001 19.6269 10.0001 19.1667Z" fill="white"/>
</svg>
