<svg xmlns="http://www.w3.org/2000/svg" width="30" height="30" viewBox="0 0 30 30" fill="none">
<g id="Frame 11550">
<rect id="Rectangle 7554" width="30" height="30" rx="4" fill="#66a622"/>
<path id="Vector" d="M14.6072 6H14.5848L14.3608 6.04479C13.8682 6.10451 13.3867 6.24261 12.9164 6.45908C12.4461 6.67556 12.0318 6.96296 11.6735 7.32127C11.0614 7.87366 10.6359 8.55295 10.397 9.35915C10.2627 9.80704 10.2029 10.2773 10.2179 10.77C10.2328 11.2627 10.3224 11.7329 10.4866 12.1808C10.7404 12.8527 11.1286 13.4349 11.6511 13.9276L11.9422 14.1963L10.0835 17.2196C9.69534 17.2046 9.35943 17.2569 9.07577 17.3763C8.62788 17.5704 8.29197 17.869 8.06802 18.2721C7.96352 18.496 7.89633 18.7274 7.86647 18.9663C7.83661 19.2052 7.85154 19.4441 7.91126 19.6829C8.0307 20.1308 8.27704 20.4891 8.65028 20.7579C8.87422 20.9072 9.12056 21.0154 9.38929 21.0826C9.65802 21.1498 9.92675 21.1647 10.1955 21.1274C10.4642 21.09 10.7218 20.9967 10.9681 20.8474C11.2144 20.6981 11.4197 20.5115 11.5839 20.2876C11.7631 20.0338 11.8713 19.7427 11.9086 19.4142C11.946 19.0858 11.9049 18.7797 11.7855 18.496C11.7706 18.4214 11.7183 18.3169 11.6287 18.1825L11.5615 18.0481L14.2041 13.7484C14.2936 13.6141 14.3534 13.5096 14.3832 13.4349L14.1593 13.3677C14.0249 13.3379 13.9279 13.308 13.8682 13.2782C13.5248 13.1289 13.215 12.9236 12.9388 12.6623C12.6626 12.401 12.4498 12.1062 12.3006 11.7777C12.0467 11.2403 11.9796 10.6804 12.099 10.0982C12.1587 9.75478 12.2856 9.4338 12.4797 9.13521C12.6738 8.83661 12.9052 8.58281 13.1739 8.3738C13.7263 7.9707 14.3384 7.76915 15.0103 7.76915C15.4134 7.75422 15.8053 7.82514 16.186 7.9819C16.5667 8.13866 16.8989 8.36633 17.1825 8.66492C17.4363 8.9038 17.6341 9.19119 17.776 9.52711C17.9178 9.86302 17.9962 10.2027 18.0111 10.546C18.0111 10.7999 17.9663 11.1134 17.8767 11.4866L19.4443 11.9121L19.6235 11.9345C19.8325 11.2925 19.8848 10.6506 19.7803 10.0086C19.7205 9.51591 19.575 9.0419 19.3436 8.58654C19.1122 8.13119 18.8173 7.73183 18.459 7.38845C17.8319 6.76141 17.0631 6.34338 16.1524 6.13437C16.0628 6.10451 15.9284 6.07465 15.7493 6.04479L15.4358 6H14.6072ZM15.0103 8.7769C14.7565 8.7769 14.5027 8.82915 14.2489 8.93366C13.9951 9.03816 13.7674 9.19119 13.5658 9.39274C13.3643 9.59429 13.2187 9.82943 13.1291 10.0982C13.0097 10.3968 12.9798 10.7252 13.0396 11.0835C13.0844 11.3522 13.1889 11.606 13.3531 11.8449C13.5173 12.0838 13.7263 12.2704 13.9801 12.4048C14.3384 12.6287 14.7565 12.7258 15.2342 12.6959C15.279 12.7556 15.3163 12.8153 15.3462 12.8751L17.8543 17.1524C17.8991 17.242 17.9439 17.3091 17.9887 17.3539C18.3918 16.9658 18.8285 16.7008 19.2988 16.5589C19.7691 16.4171 20.2543 16.391 20.7544 16.4805C21.2545 16.5701 21.6912 16.7642 22.0645 17.0628C22.5422 17.436 22.8669 17.8951 23.0386 18.44C23.2103 18.985 23.2141 19.5336 23.0498 20.086C22.9304 20.5041 22.7176 20.8773 22.4116 21.2057C22.1055 21.5342 21.7435 21.7805 21.3255 21.9448C20.8626 22.1388 20.3662 22.2023 19.8362 22.1351C19.3062 22.0679 18.8322 21.885 18.4142 21.5865C18.3545 21.5417 18.2574 21.467 18.1231 21.3625L18.0111 21.2281C17.9514 21.2729 17.8693 21.3476 17.7648 21.4521L16.7122 22.4822C17.0556 22.8256 17.4438 23.113 17.8767 23.3444C18.3097 23.5758 18.765 23.7363 19.2428 23.8259L19.7355 23.9155H20.6088L21.2359 23.8035C22.1914 23.6094 23.0125 23.1615 23.6993 22.4598C24.0277 22.1314 24.3002 21.7544 24.5167 21.3289C24.7331 20.9034 24.8787 20.4593 24.9533 19.9965C25.028 19.459 25.0131 18.9253 24.9086 18.3953C24.8041 17.8653 24.6174 17.3838 24.3487 16.9508C24.08 16.5179 23.7515 16.1372 23.3633 15.8087C22.9752 15.4803 22.5497 15.219 22.0869 15.0249C21.5793 14.8159 21.053 14.6965 20.5081 14.6666C19.9631 14.6367 19.4294 14.689 18.9069 14.8234L18.5262 14.9353L16.7122 11.8673C16.9063 11.5837 17.0258 11.3075 17.0705 11.0387C17.1452 10.561 17.0481 10.1131 16.7794 9.69506C16.5405 9.32183 16.2121 9.06056 15.7941 8.91126C15.5403 8.82169 15.279 8.7769 15.0103 8.7769ZM8.69506 14.689C7.82915 14.8831 7.08267 15.2787 6.45563 15.8759C5.75394 16.5328 5.29859 17.3166 5.08958 18.2273L5 18.7648V19.5934L5.04479 19.8397C5.07465 20.0338 5.10451 20.1831 5.13437 20.2876C5.23887 20.7504 5.42176 21.1908 5.68303 21.6088C5.94429 22.0269 6.26155 22.3926 6.63479 22.7062C7.38126 23.3183 8.23971 23.6841 9.21013 23.8035C9.77746 23.8632 10.3448 23.8296 10.9121 23.7027C11.4794 23.5758 12.002 23.3631 12.4797 23.0645C13.271 22.5569 13.8532 21.8776 14.2265 21.0266C14.331 20.7728 14.4355 20.4369 14.54 20.0188C14.6296 20.0039 14.7639 20.0039 14.9431 20.0188L17.7424 20.0636C17.9514 20.0636 18.1007 20.0711 18.1903 20.086C18.3545 20.3846 18.5411 20.616 18.7501 20.7803C18.9591 20.9445 19.1943 21.0639 19.4555 21.1386C19.7168 21.2132 19.9818 21.2431 20.2505 21.2281C20.6686 21.1834 21.0418 21.0341 21.3703 20.7803C21.7734 20.4667 22.0122 20.0636 22.0869 19.571C22.1167 19.3172 22.1055 19.0708 22.0533 18.8319C22.001 18.5931 21.9003 18.3691 21.751 18.1601C21.5121 17.8317 21.206 17.5928 20.8328 17.4435C20.579 17.339 20.314 17.2905 20.0378 17.2979C19.7616 17.3054 19.4966 17.3614 19.2428 17.4659C18.8248 17.645 18.5038 17.9212 18.2798 18.2945L18.2127 18.4289C18.0036 18.4289 17.6901 18.4214 17.2721 18.4065L14.7415 18.3841C14.5176 18.3691 14.1966 18.3617 13.7786 18.3617L12.6589 18.3393L12.726 18.72C12.8455 19.3619 12.7484 19.9666 12.4349 20.5339C12.2259 20.937 11.9273 21.2729 11.5391 21.5417C11.151 21.8104 10.7255 21.9746 10.2627 22.0343C9.74013 22.1239 9.2176 22.0679 8.69506 21.8664C8.17253 21.6648 7.74704 21.3476 7.41859 20.9146C7.00056 20.3921 6.79901 19.8024 6.81394 19.1455C6.82887 18.5931 7.00056 18.078 7.32901 17.6003C7.52309 17.3166 7.76197 17.0777 8.04563 16.8836C8.32929 16.6896 8.63535 16.5477 8.9638 16.4581L9.16534 16.391L8.69506 14.689Z" fill="white"/>
</g>
</svg>