<svg width="30" height="30" viewBox="0 0 30 30" fill="none" xmlns="http://www.w3.org/2000/svg">
<rect width="30" height="30" rx="4" fill="#66A622"/>
<path d="M6.77785 11.8179C6.52791 11.6393 6.40294 11.5501 6.29398 11.5385C6.13105 11.5211 5.96775 11.6052 5.88714 11.7478C5.83325 11.8432 5.83325 11.9951 5.83325 12.2989V17.7011C5.83324 18.3719 5.83323 18.9255 5.87008 19.3765C5.90835 19.8449 5.99049 20.2755 6.19656 20.68C6.51614 21.3072 7.02608 21.8171 7.65328 22.1367C8.05773 22.3428 8.48832 22.4249 8.95673 22.4632C9.40772 22.5 9.96135 22.5 10.6321 22.5H19.3677C20.0385 22.5 20.5921 22.5 21.0431 22.4632C21.5115 22.4249 21.9421 22.3428 22.3466 22.1367C22.9738 21.8171 23.4837 21.3072 23.8033 20.68C24.0093 20.2755 24.0915 19.8449 24.1298 19.3765C24.1666 18.9255 24.1666 18.3719 24.1666 17.7011V12.2989C24.1666 12.15 24.1666 12.0756 24.1529 12.0236C24.0913 11.7886 23.8358 11.6547 23.6074 11.7378C23.5569 11.7561 23.495 11.799 23.371 11.8849L16.9192 16.3516C16.4618 16.6693 16.0601 16.9482 15.6038 17.0588C15.2047 17.1556 14.7879 17.1525 14.3903 17.0499C13.9357 16.9326 13.5382 16.6478 13.0855 16.3234L6.77785 11.8179Z" fill="white"/>
<path d="M23.4439 9.80727C23.5978 9.70077 23.6747 9.64752 23.7219 9.56187C23.7586 9.49536 23.7796 9.39003 23.7712 9.31454C23.7604 9.21733 23.7191 9.15314 23.6364 9.02478C23.3199 8.53304 22.8643 8.12713 22.3466 7.86331C21.9421 7.65724 21.5115 7.5751 21.0431 7.53683C20.5921 7.49998 20.0385 7.49999 19.3677 7.5H10.6322C9.96137 7.49999 9.40772 7.49998 8.95673 7.53683C8.48832 7.5751 8.05773 7.65724 7.65328 7.86331C7.18742 8.10068 6.78475 8.44384 6.47856 8.86112C6.38222 8.99241 6.33406 9.05805 6.31819 9.15767C6.30578 9.23558 6.32311 9.34381 6.35922 9.41395C6.4054 9.50364 6.4855 9.56085 6.64569 9.67527L13.9583 14.8986C14.5643 15.3314 14.6929 15.4067 14.8067 15.4361C14.9392 15.4703 15.0782 15.4713 15.2112 15.4391C15.3254 15.4114 15.4551 15.338 16.0674 14.9141L23.4439 9.80727Z" fill="white"/>
</svg>
