<svg width="30" height="30" viewBox="0 0 30 30" fill="none" xmlns="http://www.w3.org/2000/svg">
<rect width="30" height="30" rx="4" fill="#D04F2B"/>
<path d="M21.6663 23H20.8897V20.4733C20.8906 19.6059 20.6764 18.7518 20.2663 17.9874C19.8562 17.223 19.2629 16.5722 18.5397 16.0933L16.8897 15L18.5397 13.9067C19.2629 13.4278 19.8562 12.777 20.2663 12.0126C20.6764 11.2482 20.8906 10.3941 20.8897 9.52667V7H21.6663C21.9316 7 22.1859 6.89464 22.3734 6.70711C22.561 6.51957 22.6663 6.26522 22.6663 6C22.6663 5.73478 22.561 5.48043 22.3734 5.29289C22.1859 5.10536 21.9316 5 21.6663 5H8.33301C8.06779 5 7.81344 5.10536 7.6259 5.29289C7.43836 5.48043 7.33301 5.73478 7.33301 6C7.33301 6.26522 7.43836 6.51957 7.6259 6.70711C7.81344 6.89464 8.06779 7 8.33301 7H9.26967V9.52667C9.26818 10.3942 9.48212 11.2486 9.89228 12.013C10.3024 12.7775 10.896 13.4282 11.6197 13.9067L13.2697 15L11.6197 16.0933C10.8991 16.5737 10.3088 17.2252 9.9016 17.9896C9.49442 18.7539 9.28303 19.6073 9.28634 20.4733V23H8.33301C8.06779 23 7.81344 23.1054 7.6259 23.2929C7.43836 23.4804 7.33301 23.7348 7.33301 24C7.33301 24.2652 7.43836 24.5196 7.6259 24.7071C7.81344 24.8946 8.06779 25 8.33301 25H21.6663C21.9316 25 22.1859 24.8946 22.3734 24.7071C22.561 24.5196 22.6663 24.2652 22.6663 24C22.6663 23.7348 22.561 23.4804 22.3734 23.2929C22.1859 23.1054 21.9316 23 21.6663 23ZM11.2697 20.4733C11.2691 19.9362 11.4016 19.4074 11.6552 18.9339C11.9087 18.4605 12.2756 18.0572 12.723 17.76L15.0797 16.2L17.433 17.76C17.8808 18.057 18.2482 18.4602 18.5023 18.9336C18.7565 19.407 18.8896 19.936 18.8897 20.4733V23H11.2697V20.4733Z" fill="white"/>
</svg>
