<svg width="30" height="30" viewBox="0 0 30 30" fill="none" xmlns="http://www.w3.org/2000/svg">
<rect width="30" height="30" rx="4" fill="#D04F2B"/>
<path fill-rule="evenodd" clip-rule="evenodd" d="M5.83301 14.9997C5.83301 9.93706 9.93706 5.83301 14.9997 5.83301C20.0623 5.83301 24.1663 9.93706 24.1663 14.9997C24.1663 20.0623 20.0623 24.1663 14.9997 24.1663C9.93706 24.1663 5.83301 20.0623 5.83301 14.9997ZM15.833 9.99967C15.833 9.53944 15.4599 9.16634 14.9997 9.16634C14.5394 9.16634 14.1663 9.53944 14.1663 9.99967V14.9997C14.1663 15.3153 14.3447 15.6039 14.627 15.745L17.9603 17.4117C18.372 17.6175 18.8725 17.4507 19.0784 17.039C19.2842 16.6274 19.1173 16.1268 18.7057 15.921L15.833 14.4846V9.99967Z" fill="white"/>
</svg>
