<svg width="30" height="30" viewBox="0 0 30 30" fill="none" xmlns="http://www.w3.org/2000/svg">
<rect width="30" height="30" rx="4" fill="#D04F2B"/>
<g clip-path="url(#clip0_2482_5017)">
<path d="M20.4612 23.8359L23.8364 20.4606C24.0558 20.2413 24.0558 19.8846 23.8364 19.6652L20.4612 16.2899C20.2991 16.129 20.0584 16.0807 19.848 16.1673C19.6376 16.2539 19.5003 16.4598 19.5003 16.6871L19.5003 18.3747L17.9365 18.3747C17.3638 18.3747 16.8372 18.0946 16.5256 17.6243L15.1552 15.5688C15.0292 15.3764 14.883 15.1873 14.7131 14.9995C14.883 14.8116 15.0281 14.6237 15.153 14.4335L16.5267 12.3724C16.8372 11.9043 17.3638 11.6242 17.9365 11.6242L19.5003 11.6242L19.5003 13.3118C19.5003 13.5391 19.6376 13.745 19.848 13.8316C20.0584 13.9182 20.2991 13.8699 20.4612 13.7101L23.8364 10.3348C24.0558 10.1154 24.0558 9.75879 23.8364 9.53939L20.4612 6.16412C20.2991 6.00324 20.0584 5.95486 19.848 6.04149C19.6376 6.12812 19.5003 6.33401 19.5003 6.56128L19.5003 8.24892L17.9365 8.24892C16.2376 8.24892 14.6624 9.09161 13.7219 10.5025L12.3481 12.5636C12.0376 13.0317 11.5111 13.3118 10.9384 13.3118L6.5618 13.3118C6.25127 13.3118 5.99925 13.5638 5.99925 13.8744L5.99925 16.1245C5.99925 16.4351 6.25127 16.6871 6.5618 16.6871L10.9384 16.6871C11.5111 16.6871 12.0376 16.9672 12.3493 17.4375L13.7219 19.4964C14.6624 20.9073 16.2376 21.75 17.9365 21.75L19.5003 21.75L19.5003 23.4376C19.5003 23.6649 19.6376 23.8708 19.848 23.9574C20.0584 24.0441 20.2991 23.9957 20.4612 23.8359Z" fill="white"/>
</g>
<defs>
<clipPath id="clip0_2482_5017">
<rect width="20" height="20" fill="white" transform="translate(25 5) rotate(90)"/>
</clipPath>
</defs>
</svg>
