<svg width="30" height="30" viewBox="0 0 30 30" fill="none" xmlns="http://www.w3.org/2000/svg">
<rect width="30" height="30" rx="4" fill="#7361E9"/>
<path d="M6.77797 11.8179C6.52803 11.6393 6.40306 11.5501 6.29411 11.5385C6.13117 11.5211 5.96787 11.6052 5.88727 11.7478C5.83337 11.8432 5.83337 11.9951 5.83337 12.2989V17.7011C5.83336 18.3719 5.83336 18.9255 5.8702 19.3765C5.90847 19.8449 5.99061 20.2755 6.19669 20.68C6.51626 21.3072 7.0262 21.8171 7.65341 22.1367C8.05785 22.3428 8.48844 22.4249 8.95685 22.4632C9.40784 22.5 9.96147 22.5 10.6323 22.5H19.3678C20.0386 22.5 20.5922 22.5 21.0432 22.4632C21.5116 22.4249 21.9422 22.3428 22.3467 22.1367C22.9739 21.8171 23.4838 21.3072 23.8034 20.68C24.0095 20.2755 24.0916 19.8449 24.1299 19.3765C24.1667 18.9255 24.1667 18.3719 24.1667 17.7011V12.2989C24.1667 12.15 24.1667 12.0756 24.1531 12.0236C24.0914 11.7886 23.8359 11.6547 23.6076 11.7378C23.5571 11.7561 23.4951 11.799 23.3711 11.8849L16.9193 16.3516C16.4619 16.6693 16.0602 16.9482 15.6039 17.0588C15.2048 17.1556 14.7881 17.1525 14.3904 17.0499C13.9358 16.9326 13.5383 16.6478 13.0856 16.3234L6.77797 11.8179Z" fill="white"/>
<path d="M23.444 9.80727C23.5979 9.70077 23.6748 9.64752 23.722 9.56187C23.7587 9.49536 23.7797 9.39003 23.7713 9.31454C23.7605 9.21733 23.7192 9.15314 23.6365 9.02478C23.32 8.53304 22.8644 8.12713 22.3467 7.86331C21.9422 7.65724 21.5116 7.5751 21.0432 7.53683C20.5922 7.49998 20.0386 7.49999 19.3678 7.5H10.6323C9.96149 7.49999 9.40785 7.49998 8.95685 7.53683C8.48844 7.5751 8.05785 7.65724 7.65341 7.86331C7.18755 8.10068 6.78487 8.44384 6.47868 8.86112C6.38235 8.99241 6.33418 9.05805 6.31831 9.15767C6.3059 9.23558 6.32323 9.34381 6.35934 9.41395C6.40552 9.50364 6.48562 9.56085 6.64581 9.67527L13.9584 14.8986C14.5644 15.3314 14.693 15.4067 14.8068 15.4361C14.9394 15.4703 15.0783 15.4713 15.2113 15.4391C15.3256 15.4114 15.4552 15.338 16.0676 14.9141L23.444 9.80727Z" fill="white"/>
</svg>
