<svg width="30" height="30" viewBox="0 0 30 30" fill="none" xmlns="http://www.w3.org/2000/svg">
<rect width="30" height="30" rx="4" fill="#7361E9"/>
<path fill-rule="evenodd" clip-rule="evenodd" d="M12.3217 17.0833C14.1072 17.0837 15.8928 17.0837 17.6783 17.0833C18.2839 17.0831 18.6966 17.0831 19.0569 17.1466C20.7819 17.4508 22.1325 18.8014 22.4367 20.5264C22.5003 20.8868 22.5002 21.2994 22.5 21.905C22.5 22.0369 22.5041 22.1698 22.481 22.3004C22.3898 22.8179 21.9846 23.223 21.4671 23.3143C21.3536 23.3343 21.2341 23.3337 21.1746 23.3334C17.0586 23.3113 12.9414 23.3113 8.82545 23.3334C8.76598 23.3337 8.64644 23.3343 8.53296 23.3143C8.01545 23.223 7.61027 22.8179 7.51902 22.3004C7.496 22.1698 7.50004 22.0369 7.50001 21.905C7.49988 21.2994 7.49979 20.8868 7.56333 20.5264C7.8675 18.8014 9.21811 17.4508 10.9432 17.1466C11.3035 17.0831 11.7161 17.0831 12.3217 17.0833Z" fill="white"/>
<path fill-rule="evenodd" clip-rule="evenodd" d="M10.4167 11.25C10.4167 8.71865 12.4687 6.66663 15 6.66663C17.5313 6.66663 19.5834 8.71865 19.5834 11.25C19.5834 13.7813 17.5313 15.8333 15 15.8333C12.4687 15.8333 10.4167 13.7813 10.4167 11.25Z" fill="white"/>
</svg>
