<svg width="30" height="30" viewBox="0 0 30 30" fill="none" xmlns="http://www.w3.org/2000/svg">
<rect width="30" height="30" rx="4" fill="#7361E9"/>
<path fill-rule="evenodd" clip-rule="evenodd" d="M5.83325 15C5.83325 9.93743 9.93731 5.83337 14.9999 5.83337C20.0625 5.83337 24.1666 9.93743 24.1666 15C24.1666 20.0626 20.0625 24.1667 14.9999 24.1667C9.93731 24.1667 5.83325 20.0626 5.83325 15ZM15.8333 10C15.8333 9.5398 15.4602 9.16671 14.9999 9.16671C14.5397 9.16671 14.1666 9.5398 14.1666 10V15C14.1666 15.3157 14.3449 15.6042 14.6272 15.7454L17.9606 17.4121C18.3722 17.6179 18.8728 17.451 19.0786 17.0394C19.2844 16.6277 19.1176 16.1272 18.7059 15.9214L15.8333 14.485V10Z" fill="white"/>
</svg>
