<svg width="30" height="30" viewBox="0 0 30 30" fill="none" xmlns="http://www.w3.org/2000/svg">
<rect width="30" height="30" rx="4" fill="#7361E9"/>
<path d="M25.4181 13.4886L20.5198 8.59038C20.1958 8.26635 19.5552 8.00118 19.0975 8.00101L5.66646 8.00098C4.74988 8.00046 3.99893 8.75141 4 9.66743L4.00017 19.6678C3.99966 20.5833 4.74988 21.3335 5.66663 21.3332L19.0966 21.3343C19.5541 21.3343 20.1955 21.0684 20.5188 20.7451L25.4181 15.8458C26.0662 15.1977 26.0661 14.1367 25.4181 13.4886ZM18.3469 15.8456C17.696 15.1947 17.6965 14.1388 18.3469 13.4884C18.9983 12.837 20.0531 12.8375 20.704 13.4884C21.3549 14.1393 21.3556 15.1943 20.7042 15.8457C20.0539 16.4961 18.9978 16.4965 18.3469 15.8456Z" fill="white"/>
<path fill-rule="evenodd" clip-rule="evenodd" d="M11 12.25C11 11.8358 10.6642 11.5 10.25 11.5C9.83579 11.5 9.5 11.8358 9.5 12.25V14H7.75C7.33579 14 7 14.3358 7 14.75C7 15.1642 7.33579 15.5 7.75 15.5H9.5V17.25C9.5 17.6642 9.83579 18 10.25 18C10.6642 18 11 17.6642 11 17.25V15.5H12.75C13.1642 15.5 13.5 15.1642 13.5 14.75C13.5 14.3358 13.1642 14 12.75 14H11V12.25Z" fill="#7361E9"/>
</svg>
