<svg width="30" height="30" viewBox="0 0 30 30" fill="none" xmlns="http://www.w3.org/2000/svg">
<rect width="30" height="30" rx="4" fill="#7361E9"/>
<path d="M21.6669 17.0003C21.6669 16.5401 21.2938 16.167 20.8336 16.167C20.3733 16.167 20.0002 16.5401 20.0002 17.0003V18.667H18.3336C17.8733 18.667 17.5002 19.0401 17.5002 19.5003C17.5002 19.9606 17.8733 20.3337 18.3336 20.3337H20.0002V22.0003C20.0002 22.4606 20.3733 22.8337 20.8336 22.8337C21.2938 22.8337 21.6669 22.4606 21.6669 22.0003V20.3337H23.3336C23.7938 20.3337 24.1669 19.9606 24.1669 19.5003C24.1669 19.0401 23.7938 18.667 23.3336 18.667H21.6669V17.0003Z" fill="white"/>
<path fill-rule="evenodd" clip-rule="evenodd" d="M10.6553 16.5836C11.8878 16.5839 13.1203 16.5841 14.3529 16.5837C14.4521 16.5836 14.5707 16.5836 14.6751 16.5921C14.7961 16.602 14.9695 16.6274 15.1511 16.7199C15.3863 16.8397 15.5775 17.031 15.6974 17.2662C15.7899 17.4478 15.8153 17.6211 15.8252 17.7421C15.8337 17.8466 15.8336 17.9651 15.8336 18.0644C15.8332 19.1606 15.8332 20.2568 15.8336 21.3529C15.8336 21.4522 15.8337 21.5708 15.8252 21.6752C15.8153 21.7962 15.7899 21.9695 15.6974 22.1512C15.5775 22.3864 15.3863 22.5776 15.1511 22.6974C14.9695 22.79 14.7961 22.8153 14.6751 22.8252C14.5707 22.8338 14.4521 22.8337 14.3529 22.8337C11.9551 22.8328 9.55682 22.8209 7.15903 22.8337C7.09956 22.834 6.98001 22.8347 6.86654 22.8147C6.34902 22.7234 5.94384 22.3182 5.85259 21.8007C5.83258 21.6872 5.83322 21.5677 5.83353 21.5082C5.83616 21.0158 5.81101 20.5139 5.8969 20.0268C6.20107 18.3017 7.55168 16.9511 9.27673 16.647C9.63707 16.5834 10.0497 16.5835 10.6553 16.5836Z" fill="white"/>
<path fill-rule="evenodd" clip-rule="evenodd" d="M8.75027 10.7503C8.75027 8.21902 10.8023 6.16699 13.3336 6.16699C15.8649 6.16699 17.9169 8.21902 17.9169 10.7503C17.9169 13.2816 15.8649 15.3337 13.3336 15.3337C10.8023 15.3337 8.75027 13.2816 8.75027 10.7503Z" fill="white"/>
</svg>
