<svg width="30" height="30" viewBox="0 0 30 30" fill="none" xmlns="http://www.w3.org/2000/svg">
<rect width="30" height="30" rx="4" fill="#7361E9"/>
<path d="M19.3208 22.9163C19.1017 22.9166 18.8858 22.8637 18.6921 22.7623L15.094 20.8896C15.0656 20.8742 15.0337 20.8661 15.0014 20.8661C14.969 20.8661 14.9372 20.8742 14.9088 20.8896L11.3153 22.7623C11.0923 22.8783 10.841 22.9301 10.5899 22.9121C10.3387 22.8941 10.0976 22.8068 9.89391 22.6602C9.69019 22.5135 9.53194 22.3134 9.43705 22.0823C9.34216 21.8513 9.31441 21.5986 9.35693 21.3527L10.044 17.3855C10.0493 17.3544 10.0468 17.3226 10.0368 17.2927C10.0268 17.2628 10.0096 17.2357 9.98656 17.214L7.07452 14.4032C6.89408 14.2289 6.76649 14.0081 6.7062 13.7657C6.6459 13.5234 6.65531 13.2691 6.73336 13.0318C6.81141 12.7944 6.95498 12.5835 7.14782 12.4227C7.34066 12.262 7.57507 12.158 7.82452 12.1224L11.844 11.5447C11.8752 11.5401 11.9048 11.5282 11.9303 11.5098C11.9557 11.4914 11.9763 11.4672 11.9903 11.4392L13.7912 7.82868C13.9025 7.60489 14.0749 7.41643 14.2887 7.28464C14.5026 7.15285 14.7495 7.08301 15.0014 7.08301C15.2533 7.08301 15.5001 7.15285 15.714 7.28464C15.9279 7.41643 16.1002 7.60489 16.2116 7.82868L18.0097 11.4374C18.0238 11.4653 18.0444 11.4894 18.0699 11.5078C18.0953 11.5261 18.1249 11.5382 18.156 11.5428L22.1792 12.1215C22.4286 12.1571 22.663 12.2611 22.8559 12.4218C23.0487 12.5825 23.1923 12.7935 23.2703 13.0309C23.3484 13.2682 23.3578 13.5224 23.2975 13.7648C23.2372 14.0072 23.1096 14.228 22.9292 14.4023L20.019 17.2122C19.996 17.234 19.9788 17.261 19.9688 17.2909C19.9588 17.3207 19.9563 17.3526 19.9616 17.3836L20.6486 21.3509C20.6817 21.5426 20.6722 21.7391 20.6208 21.9268C20.5694 22.1145 20.4773 22.2889 20.3509 22.4377C20.2245 22.5866 20.0669 22.7063 19.889 22.7887C19.7111 22.871 19.5172 22.914 19.3208 22.9145V22.9163Z" fill="white"/>
</svg>
