<svg width="30" height="30" viewBox="0 0 30 30" fill="none" xmlns="http://www.w3.org/2000/svg">
<rect width="30" height="30" rx="4" fill="#7361E9"/>
<path d="M15 6C13.22 6 11.4799 6.52784 9.99987 7.51677C8.51983 8.50571 7.36628 9.91131 6.68509 11.5558C6.0039 13.2004 5.82567 15.01 6.17294 16.7558C6.5202 18.5016 7.37737 20.1053 8.63604 21.364C9.89471 22.6226 11.4984 23.4798 13.2442 23.8271C14.99 24.1743 16.7996 23.9961 18.4441 23.3149C20.0887 22.6337 21.4943 21.4802 22.4832 20.0001C23.4722 18.5201 24 16.78 24 15C23.9976 12.6138 23.0486 10.326 21.3613 8.63874C19.674 6.95144 17.3862 6.00244 15 6ZM19.0708 12.9231L14.5569 18C14.4964 18.0686 14.4228 18.1244 14.3403 18.1641C14.2579 18.2037 14.1683 18.2264 14.0769 18.2308C13.9916 18.232 13.9069 18.2163 13.8277 18.1846C13.7485 18.1529 13.6763 18.1059 13.6154 18.0461L10.9754 15.6831C10.848 15.5521 10.7766 15.3766 10.7766 15.1938C10.7766 15.0111 10.848 14.8356 10.9754 14.7046C11.1052 14.575 11.2812 14.5021 11.4646 14.5021C11.6481 14.5021 11.824 14.575 11.9538 14.7046L14.0308 16.5508L18.0738 12C18.1974 11.8649 18.369 11.7835 18.5518 11.7731C18.7346 11.7628 18.9142 11.8243 19.0523 11.9446C19.1844 12.072 19.2606 12.2466 19.2641 12.43C19.2675 12.6135 19.198 12.7908 19.0708 12.9231Z" fill="white"/>
</svg>
