<svg width="30" height="30" viewBox="0 0 30 30" fill="none" xmlns="http://www.w3.org/2000/svg">
<rect width="30" height="30" rx="4" fill="#7361E9"/>
<path fill-rule="evenodd" clip-rule="evenodd" d="M10.6553 17.0836C11.8878 17.0839 13.1203 17.0841 14.3529 17.0837C14.4521 17.0836 14.5707 17.0836 14.6751 17.0921C14.7961 17.102 14.9695 17.1274 15.1511 17.2199C15.3863 17.3397 15.5775 17.531 15.6974 17.7662C15.7899 17.9478 15.8153 18.1211 15.8252 18.2421C15.8337 18.3466 15.8336 18.4651 15.8336 18.5644C15.8332 19.6606 15.8332 20.7568 15.8336 21.8529C15.8336 21.9522 15.8337 22.0708 15.8252 22.1752C15.8153 22.2962 15.7899 22.4695 15.6974 22.6512C15.5775 22.8864 15.3863 23.0776 15.1511 23.1974C14.9695 23.29 14.7961 23.3153 14.6751 23.3252C14.5707 23.3338 14.4521 23.3337 14.3529 23.3337C11.9551 23.3328 9.55682 23.3209 7.15903 23.3337C7.09956 23.334 6.98001 23.3347 6.86654 23.3147C6.34902 23.2234 5.94384 22.8182 5.85259 22.3007C5.83258 22.1872 5.83322 22.0677 5.83353 22.0082C5.83616 21.5158 5.81101 21.0139 5.8969 20.5268C6.20107 18.8017 7.55168 17.4511 9.27673 17.147C9.63707 17.0834 10.0497 17.0835 10.6553 17.0836Z" fill="white"/>
<path fill-rule="evenodd" clip-rule="evenodd" d="M8.75027 11.2503C8.75027 8.71902 10.8023 6.66699 13.3336 6.66699C15.8649 6.66699 17.9169 8.71902 17.9169 11.2503C17.9169 13.7816 15.8649 15.8337 13.3336 15.8337C10.8023 15.8337 8.75027 13.7816 8.75027 11.2503Z" fill="white"/>
<path d="M18.3336 19.167H20.0002H21.6669H23.3336C23.7938 19.167 24.1669 19.5401 24.1669 20.0003C24.1669 20.4606 23.7938 20.8337 23.3336 20.8337H21.6669H20.0002H18.3336C17.8733 20.8337 17.5002 20.4606 17.5002 20.0003C17.5002 19.5401 17.8733 19.167 18.3336 19.167Z" fill="white"/>
</svg>
