<svg width="30" height="30" viewBox="0 0 30 30" fill="none" xmlns="http://www.w3.org/2000/svg">
<path d="M0 4C0 1.79086 1.79086 0 4 0H26C28.2091 0 30 1.79086 30 4V26C30 28.2091 28.2091 30 26 30H4C1.79086 30 0 28.2091 0 26V4Z" fill="#7361E9"/>
<g clip-path="url(#clip0_4815_841)">
<path d="M11.6663 11.667C15.4817 11.667 18.3326 10.1587 18.3326 8.81001C18.3326 7.46148 15.4816 5.95312 11.6663 5.95312C7.85092 5.95312 5 7.46148 5 8.81001C5 10.1587 7.85086 11.667 11.6663 11.667Z" fill="white"/>
<path d="M11.6663 23.0952C12.2232 23.0952 12.7591 23.0629 13.269 23.0039C12.8392 22.4515 12.4838 21.8387 12.2176 21.1804C12.0346 21.1866 11.851 21.1908 11.6662 21.1908C9.48609 21.1908 7.42148 20.7588 5.85286 19.9745C5.544 19.8201 5.25977 19.6542 5 19.4785V20.2383C5 21.5869 7.85086 23.0952 11.6663 23.0952Z" fill="white"/>
<path d="M11.6663 19.2866C11.6859 19.2866 11.7051 19.2863 11.7246 19.2863C11.6856 18.9741 11.6652 18.6562 11.6652 18.3336C11.6652 18.0111 11.6855 17.6934 11.7246 17.3815C11.7051 17.3815 11.6858 17.3822 11.6663 17.3822C9.48621 17.3822 7.42167 16.9502 5.85298 16.1658C5.54406 16.0114 5.25977 15.8455 5 15.6699V16.4297C5.00006 17.7783 7.85092 19.2866 11.6663 19.2866Z" fill="white"/>
<path d="M11.6663 15.476C11.8553 15.476 12.0417 15.4722 12.2258 15.465C12.5215 14.7396 12.9255 14.0697 13.4181 13.4755C12.8478 13.5384 12.2616 13.5717 11.6663 13.5717C9.48621 13.5717 7.42167 13.1397 5.85298 12.3554C5.54406 12.2009 5.25977 12.035 5 11.8594V12.6192C5.00006 13.9678 7.85092 15.476 11.6663 15.476Z" fill="white"/>
<path d="M19.2852 12.8496C16.2524 12.8496 13.7852 15.3169 13.7852 18.3496C14.0616 25.6361 24.5098 25.634 24.7852 18.3495C24.7852 15.3169 22.3179 12.8496 19.2852 12.8496ZM21.0458 18.8192H19.2852C19.0258 18.8192 18.8155 18.609 18.8155 18.3496V15.0799C18.8386 14.4574 19.7319 14.4579 19.7548 15.0799V17.88H21.0458C21.6682 17.9031 21.6678 18.7964 21.0458 18.8192Z" fill="white"/>
<path d="M19 15V18.5H21" stroke="#7361E9" stroke-linecap="round"/>
</g>
<defs>
<clipPath id="clip0_4815_841">
<rect width="20" height="20" fill="white" transform="translate(5 5)"/>
</clipPath>
</defs>
</svg>
