<svg width="30" height="30" viewBox="0 0 30 30" fill="none" xmlns="http://www.w3.org/2000/svg">
<rect width="30" height="30" rx="4" fill="#7361E9"/>
<path fill-rule="evenodd" clip-rule="evenodd" d="M23.2854 21.9418L21.2576 18.3133C21.193 18.1978 21.074 18.127 20.9451 18.127H9.0557C8.92691 18.127 8.80746 18.1978 8.74325 18.3133L6.71542 21.9418C6.65085 22.0573 6.65085 22.199 6.71542 22.3145C6.77999 22.43 6.89903 22.5009 7.02787 22.5009H22.9729C23.1017 22.5009 23.2212 22.43 23.2854 22.3145C23.3495 22.199 23.3499 22.057 23.2854 21.9418Z" fill="white"/>
<path fill-rule="evenodd" clip-rule="evenodd" d="M10.1291 16.9504H19.8712C20.0003 16.9504 20.1194 16.8795 20.1836 16.764C20.2482 16.6485 20.2482 16.5068 20.1836 16.3913L18.4144 13.2254C18.3499 13.1099 18.2308 13.0391 18.102 13.0391H11.899C11.7702 13.0391 11.6508 13.1099 11.5865 13.2254L9.81698 16.3913C9.75241 16.5068 9.75241 16.6485 9.81698 16.764C9.88087 16.8791 9.99993 16.9504 10.1291 16.9504Z" fill="white"/>
<path fill-rule="evenodd" clip-rule="evenodd" d="M12.6597 11.6756C12.5952 11.5596 12.5952 11.4184 12.6597 11.3028L14.6872 7.67403C14.816 7.44329 15.1833 7.44329 15.3121 7.67403L17.3399 11.3028C17.4044 11.4183 17.4044 11.5596 17.3399 11.6756C17.2754 11.7911 17.1563 11.8619 17.0275 11.8619H12.9722C12.8433 11.8619 12.7243 11.7911 12.6597 11.6756Z" fill="white"/>
</svg>
