<svg width="30" height="30" viewBox="0 0 30 30" fill="none" xmlns="http://www.w3.org/2000/svg">
<rect width="30" height="30" rx="4" fill="#7361E9"/>
<g clip-path="url(#clip0_1914_38744)">
<path d="M18.5439 10.66L6.04387 15.035C5.92559 15.0763 5.82246 15.1522 5.74786 15.2529C5.67327 15.3535 5.63064 15.4743 5.62552 15.5995C5.6204 15.7246 5.65302 15.8485 5.71915 15.9549C5.78528 16.0613 5.88186 16.1454 5.99637 16.1962L11.4014 18.5987L13.8039 24.0037C13.853 24.1142 13.9331 24.2081 14.0345 24.274C14.1359 24.3399 14.2542 24.375 14.3751 24.375H14.4007C14.5256 24.3695 14.6459 24.3267 14.7461 24.2522C14.8464 24.1776 14.922 24.0748 14.9632 23.9568L19.3382 11.4568C19.377 11.346 19.3837 11.2264 19.3577 11.1119C19.3316 10.9974 19.2738 10.8925 19.1909 10.8094C19.108 10.7262 19.0033 10.6681 18.8889 10.6416C18.7744 10.6152 18.6549 10.6216 18.5439 10.66Z" fill="white"/>
<path d="M18.75 5.625C18.5842 5.625 18.4253 5.69085 18.3081 5.80806C18.1908 5.92527 18.125 6.08424 18.125 6.25V8.75C18.125 8.91576 18.1908 9.07473 18.3081 9.19194C18.4253 9.30915 18.5842 9.375 18.75 9.375C18.9158 9.375 19.0747 9.30915 19.1919 9.19194C19.3092 9.07473 19.375 8.91576 19.375 8.75V6.25C19.375 6.08424 19.3092 5.92527 19.1919 5.80806C19.0747 5.69085 18.9158 5.625 18.75 5.625Z" fill="white"/>
<path d="M23.75 10.625H21.25C21.0842 10.625 20.9253 10.6908 20.8081 10.8081C20.6908 10.9253 20.625 11.0842 20.625 11.25C20.625 11.4158 20.6908 11.5747 20.8081 11.6919C20.9253 11.8092 21.0842 11.875 21.25 11.875H23.75C23.9158 11.875 24.0747 11.8092 24.1919 11.6919C24.3092 11.5747 24.375 11.4158 24.375 11.25C24.375 11.0842 24.3092 10.9253 24.1919 10.8081C24.0747 10.6908 23.9158 10.625 23.75 10.625Z" fill="white"/>
<path d="M21.067 12.6831C20.9491 12.5693 20.7913 12.5063 20.6274 12.5077C20.4635 12.5091 20.3068 12.5749 20.1909 12.6907C20.075 12.8066 20.0093 12.9634 20.0078 13.1273C20.0064 13.2911 20.0694 13.449 20.1833 13.5669L21.7458 15.1294C21.8636 15.2432 22.0215 15.3062 22.1854 15.3048C22.3493 15.3034 22.506 15.2377 22.6219 15.1218C22.7378 15.0059 22.8035 14.8491 22.8049 14.6853C22.8064 14.5214 22.7434 14.3635 22.6295 14.2456L21.067 12.6831Z" fill="white"/>
<path d="M16.4333 9.81689C16.5511 9.93073 16.709 9.99373 16.8729 9.99231C17.0368 9.99088 17.1935 9.92515 17.3094 9.80927C17.4253 9.69339 17.491 9.53663 17.4924 9.37276C17.4939 9.20889 17.4309 9.05101 17.317 8.93314L15.7545 7.37064C15.6366 7.25679 15.4788 7.19379 15.3149 7.19521C15.151 7.19664 14.9943 7.26237 14.8784 7.37825C14.7625 7.49413 14.6968 7.65089 14.6953 7.81476C14.6939 7.97863 14.7569 8.13651 14.8708 8.25439L16.4333 9.81689Z" fill="white"/>
<path d="M20.6249 9.99999C20.7906 9.99995 20.9496 9.93408 21.0667 9.81686L22.6292 8.25436C22.6889 8.19671 22.7365 8.12774 22.7693 8.05149C22.8021 7.97524 22.8193 7.89323 22.82 7.81024C22.8207 7.72725 22.8049 7.64495 22.7735 7.56814C22.7421 7.49133 22.6957 7.42155 22.637 7.36287C22.5783 7.30418 22.5085 7.25778 22.4317 7.22635C22.3549 7.19493 22.2726 7.17911 22.1896 7.17983C22.1066 7.18055 22.0246 7.1978 21.9484 7.23055C21.8721 7.26331 21.8031 7.31092 21.7455 7.37061L20.183 8.93311C20.0956 9.02052 20.0361 9.13187 20.012 9.25309C19.9879 9.37432 20.0003 9.49996 20.0476 9.61415C20.0949 9.72834 20.1749 9.82594 20.2777 9.89462C20.3805 9.96329 20.5013 9.99996 20.6249 9.99999Z" fill="white"/>
</g>
<defs>
<clipPath id="clip0_1914_38744">
<rect width="20" height="20" fill="white" transform="translate(5 5)"/>
</clipPath>
</defs>
</svg>
