
<svg xmlns="http://www.w3.org/2000/svg" width="188" height="155" viewBox="0 0 188 155"
    fill="none">
    <g filter="url(#filter0_d_787_52441)">
        <path
            d="M93.999 143.188C141.241 143.188 179.539 140.453 179.539 137.078C179.539 133.704 141.241 130.968 93.999 130.968C46.7565 130.968 8.45898 133.704 8.45898 137.078C8.45898 140.453 46.7565 143.188 93.999 143.188Z"
            fill="white" />
    </g>
    <path fill-rule="evenodd" clip-rule="evenodd" d="M23.6621 0H164.535V89.7766H23.6621V0Z"
        fill="#E0E0E0" />
    <path fill-rule="evenodd" clip-rule="evenodd"
        d="M23.6611 0V136.37H0.939453V53.9071L23.6611 0Z" fill="#C6C6C6" />
    <path fill-rule="evenodd" clip-rule="evenodd"
        d="M164.535 0V135.233H186.12V53.9071L164.535 0Z" fill="#C6C6C6" />
    <path fill-rule="evenodd" clip-rule="evenodd"
        d="M0.939453 53.4116H186.119V137.52C186.119 139.023 185.522 140.465 184.459 141.528C183.396 142.591 181.954 143.188 180.45 143.188H6.60859C5.10504 143.188 3.66308 142.591 2.59991 141.528C1.53674 140.465 0.939453 139.023 0.939453 137.519V53.4116Z"
        fill="#F6F6F6" />
    <path
        d="M90.1204 128.981C82.9727 128.984 76.0484 126.49 70.5428 121.932C65.0372 117.374 61.2959 111.036 59.9646 104.013C58.6334 96.9906 59.7957 89.7235 63.2511 83.4664C66.7064 77.2093 72.2378 72.3549 78.8905 69.7412C85.5433 67.1274 92.8998 66.9184 99.6902 69.1501C106.481 71.3818 112.279 75.9143 116.084 81.965C119.889 88.0158 121.462 95.2052 120.532 102.292C119.602 109.379 116.226 115.919 110.988 120.783C105.31 126.041 97.8597 128.968 90.1204 128.981Z"
        fill="white" />
    <path
        d="M110.991 113.494C106.846 117.347 101.715 119.978 96.167 121.095C90.619 122.212 84.87 121.772 79.5567 119.824C74.2433 117.875 69.5728 114.494 66.0623 110.055C62.5518 105.616 60.3382 100.292 59.6666 94.6731C59.1513 98.978 59.5546 103.343 60.85 107.481C62.1454 111.619 64.3035 115.434 67.1818 118.677C70.0601 121.919 73.5932 124.515 77.5481 126.291C81.5029 128.068 85.7896 128.986 90.1252 128.985C94.4609 128.984 98.747 128.063 102.701 126.284C106.655 124.504 110.186 121.907 113.062 118.663C115.939 115.419 118.094 111.601 119.387 107.463C120.68 103.324 121.081 98.9589 120.563 94.6543C119.716 101.873 116.322 108.553 110.991 113.494Z"
        fill="#E8E8E8" />
    <path d="M87.923 104.478H73.0391L75.3477 96.9641L73.0391 89.4507H87.923V104.478Z"
        fill="#B3B3B3" />
    <path d="M80.4824 91.2912L87.9235 89.4517V93.3997L80.4824 91.2912Z" fill="#3D2B28" />
    <path d="M80.4824 106.68H102.891L106.856 91.29H80.4824V106.68Z" fill="#E6E6E6" />
    <path d="M96.7793 130.404L107.192 89.9829" stroke="#848484" stroke-width="3.008"
        stroke-miterlimit="10" stroke-linecap="round" />
    <defs>
        <filter id="filter0_d_787_52441" x="2.81898" y="128.148" width="182.36"
            height="23.5002" filterUnits="userSpaceOnUse"
            color-interpolation-filters="sRGB">
            <feFlood flood-opacity="0" result="BackgroundImageFix" />
            <feColorMatrix in="SourceAlpha" type="matrix"
                values="0 0 0 0 0 0 0 0 0 0 0 0 0 0 0 0 0 0 127 0" result="hardAlpha" />
            <feOffset dy="2.82" />
            <feGaussianBlur stdDeviation="2.82" />
            <feColorMatrix type="matrix"
                values="0 0 0 0 0 0 0 0 0 0 0 0 0 0 0 0 0 0 0.161 0" />
            <feBlend mode="normal" in2="BackgroundImageFix"
                result="effect1_dropShadow_787_52441" />
            <feBlend mode="normal" in="SourceGraphic" in2="effect1_dropShadow_787_52441"
                result="shape" />
        </filter>
    </defs>
</svg>
