<svg xmlns="http://www.w3.org/2000/svg" width="15" height="16" viewBox="0 0 15 16" fill="none">
  <path d="M12.2532 3.1419C12.2422 3.0619 12.1721 3.01762 12.1143 3.01275C12.0565 3.00792 10.834 2.91724 10.834 2.91724C10.834 2.91724 9.9849 2.07368 9.89171 1.98031C9.79846 1.88699 9.61635 1.91538 9.54566 1.9362C9.53526 1.93927 9.36016 1.99335 9.07051 2.08305C8.78689 1.26628 8.28633 0.515705 7.40573 0.515705C7.38142 0.515705 7.35639 0.516691 7.33137 0.518116C7.08093 0.186664 6.77069 0.0426636 6.50273 0.0426636C4.45138 0.0426636 3.47134 2.60897 3.16407 3.91307C2.36696 4.16025 1.8007 4.33598 1.72837 4.35872C1.28344 4.49839 1.26937 4.51242 1.21095 4.93198C1.16698 5.24962 0.00280762 14.2594 0.00280762 14.2594L9.07429 15.9604L13.9895 14.8963C13.9895 14.8963 12.264 3.2219 12.2532 3.1419ZM8.56913 2.23823L7.80154 2.47598C7.80181 2.42184 7.80209 2.36858 7.80209 2.31034C7.80209 1.80272 7.73167 1.39401 7.61872 1.07001C8.07246 1.12699 8.37465 1.64365 8.56913 2.23823ZM7.05585 1.17066C7.182 1.48699 7.26402 1.94097 7.26402 2.55357C7.26402 2.58491 7.26375 2.61357 7.26348 2.64255C6.76429 2.79729 6.22184 2.96529 5.67819 3.13384C5.98344 1.95488 6.55562 1.38546 7.05585 1.17066ZM6.44639 0.593294C6.53492 0.593294 6.62412 0.623376 6.70948 0.68217C6.05205 0.991759 5.34737 1.77149 5.04978 3.32858L3.79669 3.71697C4.14525 2.52929 4.97296 0.593294 6.44639 0.593294Z" fill="#95BF46"/>
  <path d="M12.1142 3.01276C12.0565 3.00794 10.8339 2.91726 10.8339 2.91726C10.8339 2.91726 9.98488 2.07369 9.89169 1.98032C9.85681 1.94558 9.80978 1.92778 9.76061 1.9201L9.07471 15.9603L13.9895 14.8963C13.9895 14.8963 12.264 3.22191 12.2532 3.14191C12.2422 3.06191 12.1721 3.01764 12.1142 3.01276Z" fill="#5E8E3E"/>
  <path d="M7.4057 5.73068L6.79963 7.53484C6.79963 7.53484 6.26863 7.25123 5.61772 7.25123C4.66347 7.25123 4.61545 7.85051 4.61545 8.00153C4.61545 8.82553 6.7618 9.14125 6.7618 11.0713C6.7618 12.5899 5.79939 13.5677 4.50173 13.5677C2.94453 13.5677 2.14819 12.5978 2.14819 12.5978L2.56514 11.2192C2.56514 11.2192 3.38371 11.9225 4.07443 11.9225C4.52576 11.9225 4.70935 11.5668 4.70935 11.307C4.70935 10.2322 2.94847 10.1842 2.94847 8.41802C2.94847 6.9315 4.01464 5.49298 6.16679 5.49298C6.99603 5.49298 7.4057 5.73068 7.4057 5.73068Z" fill="white"/>
</svg>