<svg xmlns="http://www.w3.org/2000/svg" width="132" height="135" viewBox="0 0 132 135" fill="none">
  <path d="M100.558 97.9578C100.764 98.3976 100.957 98.8515 101.135 99.2914C102.372 102.26 103.541 105.257 104.64 108.281C105.086 109.069 105.228 109.993 105.039 110.879C104.998 111.002 104.943 111.14 104.888 111.264C104.599 111.566 104.31 111.868 103.994 112.143C102.421 113.362 100.742 114.439 98.9772 115.36C98.765 115.227 98.59 115.042 98.4687 114.823C98.4549 114.796 98.4411 114.755 98.4274 114.727C97.5143 113.084 96.7152 111.381 96.0357 109.628C94.9223 106.824 94.2351 103.951 93.3279 101.106" stroke="black" stroke-width="2.06181" stroke-linecap="round" stroke-linejoin="round"/>
  <path d="M120.996 110.549C120.24 114.92 116.556 118.947 112.859 121.147C109.067 123.353 104.613 124.138 100.295 123.36C99.8635 123.291 99.4365 123.195 99.0171 123.071C98.2927 122.868 97.6122 122.532 97.0102 122.081C96.5255 121.73 96.1402 121.259 95.892 120.715C95.6438 120.17 95.5413 119.571 95.5945 118.975C95.7561 118.374 96.0348 117.811 96.4146 117.318C96.7943 116.825 97.2677 116.412 97.8075 116.102C98.1924 115.841 98.5773 115.593 98.9759 115.36C100.741 114.439 102.42 113.362 103.993 112.142C104.309 111.867 104.598 111.566 104.886 111.264C105.877 110.141 106.782 108.947 107.594 107.69C108.622 106.071 109.887 104.616 111.347 103.372C112.089 102.765 112.953 102.324 113.88 102.078C114.807 101.831 115.775 101.786 116.721 101.944C117.538 102.159 118.298 102.553 118.944 103.097C119.591 103.641 120.109 104.322 120.46 105.091C120.46 105.106 120.46 105.106 120.474 105.091C120.623 105.364 120.747 105.649 120.845 105.944C121.272 107.443 121.324 109.025 120.996 110.549Z" stroke="black" stroke-width="2.06181" stroke-linecap="round" stroke-linejoin="round"/>
  <path d="M99.0199 123.067C99.437 123.196 99.8628 123.296 100.294 123.365C104.613 124.136 109.065 123.348 112.856 121.14C116.558 118.951 120.235 114.917 120.991 110.556C121.322 109.031 121.271 107.449 120.839 105.95C120.749 105.652 120.627 105.365 120.475 105.093C120.463 105.106 120.463 105.106 120.463 105.093C120.34 105.066 120.218 105.026 120.096 104.998C119.151 104.84 118.182 104.885 117.256 105.131C116.33 105.377 115.467 105.818 114.725 106.425C113.258 107.658 111.994 109.115 110.98 110.741C109.963 112.369 108.75 113.865 107.367 115.196C105.388 116.639 103.322 117.961 101.182 119.153C100.095 119.781 99.2995 120.812 98.969 122.023C98.9183 122.371 98.9355 122.725 99.0199 123.067Z" fill="black"/>
  <path d="M70.894 110.892C71.9524 113.449 72.942 116.033 73.9042 118.631C74.3429 119.422 74.4843 120.343 74.3029 121.229C74.2723 121.332 74.2355 121.433 74.1929 121.531V121.545C73.8905 121.861 73.5881 122.164 73.2582 122.452C71.6555 123.663 69.949 124.73 68.1586 125.641C67.9831 125.52 67.8374 125.36 67.7325 125.174C67.7194 125.143 67.7008 125.115 67.6776 125.092C66.777 123.439 65.9827 121.731 65.2997 119.978C64.5437 118.067 63.9801 116.115 63.4028 114.164" stroke="black" stroke-width="2.06181" stroke-linecap="round" stroke-linejoin="round"/>
  <path d="M90.275 121.036C89.4778 125.394 85.7528 129.394 82.0278 131.538C78.2111 133.705 73.7489 134.445 69.4369 133.627C69.008 133.561 68.5851 133.46 68.1724 133.325C67.4435 133.12 66.7618 132.775 66.1656 132.308C65.6856 131.952 65.3066 131.476 65.0656 130.929C64.8246 130.382 64.73 129.782 64.7911 129.188C64.9544 128.587 65.2369 128.026 65.6218 127.537C66.0067 127.048 66.4861 126.642 67.0315 126.342C67.4026 126.095 67.7738 125.861 68.1586 125.641C69.9493 124.73 71.6559 123.663 73.2582 122.451C73.5881 122.164 73.8905 121.861 74.1929 121.545C74.1929 121.545 74.2066 121.545 74.1929 121.531C75.1803 120.432 76.0897 119.266 76.9144 118.04C77.9499 116.427 79.2298 114.985 80.7082 113.765C81.4553 113.163 82.3232 112.729 83.2528 112.492C84.1825 112.255 85.1523 112.22 86.0965 112.391C86.9106 112.614 87.6652 113.015 88.3068 113.564C88.9483 114.113 89.4608 114.796 89.8076 115.566C89.8076 115.578 89.8077 115.578 89.8214 115.578C89.968 115.85 90.0877 116.136 90.1788 116.431C90.5885 117.935 90.6216 119.516 90.275 121.036Z" stroke="black" stroke-width="2.06181" stroke-linecap="round" stroke-linejoin="round"/>
  <path d="M68.1697 133.318C68.5853 133.453 69.0103 133.557 69.4412 133.63C73.7515 134.448 78.212 133.707 82.0265 131.539C85.7501 129.392 89.471 125.398 90.2737 121.041C90.6223 119.52 90.5878 117.937 90.1733 116.433C90.0861 116.135 89.9672 115.846 89.8187 115.573C89.8049 115.584 89.805 115.584 89.8063 115.573C89.684 115.545 89.5616 115.504 89.4393 115.475C88.4955 115.307 87.5267 115.342 86.5978 115.579C85.669 115.817 84.8016 116.25 84.0539 116.85C82.5729 118.066 81.2935 119.51 80.2629 121.126C79.2279 122.741 77.9986 124.224 76.6025 125.539C74.6067 126.961 72.5264 128.261 70.3731 129.431C69.2791 130.047 68.4728 131.07 68.1298 132.277C68.0757 132.623 68.0892 132.977 68.1697 133.318Z" fill="black"/>
  <path d="M129.065 59.0199C127.57 63.3838 125.009 67.3054 121.615 70.4287C119.449 72.484 117.138 74.381 114.701 76.1054L112.268 62.0851C114.201 61.1181 115.829 59.6336 116.969 57.7967C118.01 56.0036 118.636 53.9994 118.801 51.9321C118.965 49.8648 118.663 47.7868 117.917 45.8517C116.368 41.9785 113.533 38.7561 109.89 36.7249C109.106 36.2713 108.268 35.8576 107.526 35.3641L108.488 34.4158C109.048 33.8606 109.472 33.1832 109.727 32.4369C109.983 31.6905 110.062 30.8953 109.958 30.1133L109.464 26.3883C111.76 26.3962 113.987 27.1757 115.787 28.6015C120.778 31.8638 124.818 36.3874 127.498 41.7143C130.163 47.0846 130.722 53.2582 129.065 59.0199Z" stroke="black" stroke-width="2.06181" stroke-linecap="round" stroke-linejoin="round"/>
  <path d="M64.3787 69.6837L39.9394 79.7864L27.3485 66.5635V66.5497C27.3982 65.7635 27.6337 65.0002 28.0358 64.3228C28.7548 63.5425 29.6789 62.9805 30.7024 62.7009L64.3787 69.6837Z" stroke="black" stroke-width="2.06181" stroke-linecap="round" stroke-linejoin="round"/>
  <path d="M98.2474 44.5872L110.288 50.7039L79.0725 63.611" stroke="black" stroke-width="2.06181" stroke-linecap="round" stroke-linejoin="round"/>
  <path d="M79.0725 63.608L110.288 50.7012L112.268 62.0824L114.701 76.1027L116.46 86.2332C116.678 87.5038 116.464 88.8107 115.851 89.9447C115.237 91.0788 114.261 91.974 113.079 92.4871L49.6299 120.171L39.9394 79.7864L64.3786 69.6837L71.4576 71.1542L70.7016 67.0719" fill="#E4E4E4"/>
  <path d="M79.0725 63.608L110.288 50.7012L112.268 62.0824L114.701 76.1027L116.46 86.2332C116.678 87.5038 116.464 88.8107 115.851 89.9447C115.237 91.0788 114.261 91.974 113.079 92.4871L49.6299 120.171L39.9394 79.7864L64.3786 69.6837L71.4576 71.1542L70.7016 67.0719" stroke="black" stroke-width="2.06181" stroke-linecap="round" stroke-linejoin="round"/>
  <path d="M13.9331 52.4744C13.4871 52.0984 12.9804 51.8008 12.4348 51.5945L12.2561 50.7012L13.9331 52.4744Z" stroke="black" stroke-width="2.06181" stroke-linecap="round" stroke-linejoin="round"/>
  <path d="M35.2934 92.3499C35.4019 90.9808 35.2669 89.6033 34.8948 88.2813C34.7203 87.4821 34.3987 86.7222 33.9464 86.0406C33.7192 85.7023 33.4228 85.4159 33.0769 85.2003C32.731 84.9847 32.3434 84.8449 31.9395 84.7899C30.7712 84.6662 29.9739 85.7384 28.998 86.2057C27.9628 86.7927 26.7755 87.0558 25.5892 86.9614C24.5426 86.7738 23.5579 86.3325 22.7216 85.6758C21.8852 85.0192 21.2227 84.1674 20.792 83.1952C19.9559 81.2368 19.726 79.073 20.1322 76.9826C20.4483 75.017 20.8745 71.8554 22.7439 71.017C24.5858 70.1785 26.7575 69.67 27.2249 67.3333C27.2661 67.0859 27.3073 66.8246 27.3485 66.5635L39.9394 79.7864L49.6299 120.171L29.4928 97.202C29.754 97.1869 30.0289 97.1745 30.3038 97.147C31.6001 97.1673 32.8519 96.6744 33.7865 95.7758C34.7211 94.8773 35.2628 93.646 35.2934 92.3499Z" stroke="black" stroke-width="2.06181" stroke-linecap="round" stroke-linejoin="round"/>
  <path d="M64.3512 69.674L73.3572 109.81L97.8432 99.1316L90.2447 59.4075L78.5887 63.7993L71.4699 71.1378L64.3512 69.674Z" stroke="black" stroke-width="2.06181" stroke-linecap="round" stroke-linejoin="round"/>
  <path d="M45.443 100.847L113.842 71.1488" stroke="black" stroke-width="2.06181" stroke-linecap="round" stroke-linejoin="round"/>
  <path d="M80.4896 35.5536L67.1016 47.8282L70.7029 67.0718L71.4589 71.1541L64.38 69.6836L30.7038 62.7008C30.733 62.698 30.7612 62.6885 30.7863 62.6733C31.3122 62.5333 31.8017 62.2817 32.2215 61.9354C32.6414 61.589 32.9816 61.1562 33.2191 60.6665C33.3578 60.1272 33.3143 59.5574 33.0956 59.0453C32.8768 58.5333 32.4951 58.1076 32.0096 57.8349C31.008 57.3286 29.8467 57.2393 28.7794 57.5862C28.1995 57.7667 27.6416 58.0115 27.1162 58.3161C26.6857 58.6515 26.2309 58.9541 25.7554 59.2218C25.5962 59.2924 25.4215 59.3207 25.2482 59.3041C25.0748 59.2874 24.9087 59.2264 24.7658 59.1269C24.3259 58.7695 24.4358 58.0823 24.5596 57.5325C25.2845 54.1839 25.0849 50.701 23.9823 47.457C23.6386 46.4399 23.0338 45.3129 21.9754 45.1328C21.4391 45.1052 20.9104 45.2681 20.4827 45.5929C20.0551 45.9176 19.7562 46.3833 19.6388 46.9073C19.4328 47.9587 19.4894 49.0447 19.8037 50.0689C18.9054 48.4744 17.4525 47.2657 15.7213 46.6724C15.1494 46.4074 14.5231 46.2807 13.8931 46.3026C13.5815 46.319 13.2776 46.4051 13.004 46.555C12.7303 46.7049 12.4939 46.9146 12.3124 47.1684C12.094 47.6706 12.027 48.2258 12.1198 48.7655C12.2126 49.3052 12.4611 49.8058 12.8348 50.2061C13.6017 50.9967 14.1797 51.9507 14.5254 52.9965C14.3483 52.8011 14.1501 52.6261 13.9344 52.4743C13.4884 52.0983 12.9817 51.8007 12.4361 51.5944C11.4316 51.1822 10.3319 51.0585 9.26091 51.237C8.82669 51.2777 8.40874 51.4229 8.04258 51.6599C7.67643 51.8968 7.37296 52.2184 7.15791 52.5978C7.02552 53.0035 6.99264 53.4352 7.06202 53.8562C7.13139 54.2773 7.30096 54.6753 7.55649 55.017C8.31043 56.0208 9.18271 56.9303 10.1544 57.7251C10.452 58.0006 10.7278 58.2988 10.9791 58.6171L9.68702 58.3423C8.72901 58.1447 7.84742 57.6775 7.14608 56.9956C6.44473 56.3137 5.95284 55.4456 5.72833 54.4935L2.08585 38.8115C1.9439 38.2054 1.97847 37.5713 2.18552 36.9842C2.39257 36.3972 2.7634 35.8815 3.25417 35.4986L42.3599 5.03889C43.7864 3.92734 45.596 3.42795 47.3907 3.65059L107.403 10.8944L80.4896 35.5536Z" stroke="black" stroke-width="2.06181" stroke-linecap="round" stroke-linejoin="round"/>
  <path d="M108.488 34.4158L107.525 35.3641L71.4713 71.1572L67.4988 49.9753C67.3734 49.3175 67.4187 48.6388 67.6305 48.0035C67.8422 47.3682 68.2134 46.7977 68.7084 46.3467L107.402 10.8972L109.464 26.3883L109.958 30.1133C110.062 30.8953 109.983 31.6905 109.727 32.4369C109.472 33.1832 109.048 33.8606 108.488 34.4158Z" fill="#E4E4E4" stroke="black" stroke-width="2.06181" stroke-linecap="round" stroke-linejoin="round"/>
  <path d="M19.4202 24.3691L81.6581 34.7155L96.7299 20.6674L32.9937 12.3295" stroke="black" stroke-width="2.06181" stroke-linecap="round" stroke-linejoin="round"/>
  <path d="M43.5406 43.856L47.5268 65.751L30.9498 62.6046C31.4431 62.4596 31.9002 62.2121 32.291 61.8781C32.6819 61.5441 32.9977 61.1313 33.2178 60.6666C33.3564 60.1273 33.313 59.5575 33.0943 59.0454C32.8755 58.5334 32.4937 58.1077 32.0082 57.835C31.0066 57.3287 29.8454 57.2394 28.7781 57.5863C28.1982 57.7668 27.6403 58.0117 27.1149 58.3162C26.6844 58.6516 26.2296 58.9543 25.7541 59.222C25.5949 59.2925 25.4201 59.3208 25.2468 59.3042C25.0734 59.2876 24.9073 59.2265 24.7644 59.127C24.3245 58.7696 24.4345 58.0825 24.5582 57.5326C25.2831 54.184 25.0836 50.7011 23.981 47.4571C23.6373 46.44 23.0325 45.313 21.9741 45.1329C21.6274 45.0786 21.2724 45.132 20.957 45.2856L20.1597 39.9109L62.8667 5.50647L85.6153 8.25555L43.5406 43.856Z" stroke="black" stroke-width="2.06181" stroke-linecap="round" stroke-linejoin="round"/>
  <path d="M96.7299 20.6704L100.107 42.7372L86.6133 56.1266L81.6649 34.7181L96.7299 20.6704Z" stroke="black" stroke-width="2.06181" stroke-linecap="round" stroke-linejoin="round"/>
  <path d="M35.2934 92.3497C35.2627 93.6458 34.7211 94.8771 33.7865 95.7756C32.8519 96.6742 31.6001 97.1671 30.3038 97.1468C30.0289 97.1743 29.754 97.1867 29.4928 97.2019C26.0444 97.4228 22.612 96.5731 19.6649 94.7689C17.6248 93.7906 15.8126 92.3952 14.3454 90.6728C13.1604 88.982 12.3411 87.0624 11.94 85.037C11.1506 81.782 11.0383 78.3994 11.6101 75.0991C11.94 73.2573 12.5035 71.3054 11.8437 69.5597C11.5276 68.7212 10.9503 68.0065 10.5654 67.1955C10.1842 66.3428 10.0174 65.4097 10.0797 64.4777C10.142 63.5456 10.4315 62.6431 10.9228 61.8487C11.1539 61.4934 11.3386 61.1099 11.4726 60.7077C11.5972 60.3482 11.6169 59.9605 11.5292 59.5903C11.4416 59.22 11.2503 58.8826 10.9778 58.6171C10.7264 58.2988 10.4507 58.0006 10.1531 57.7251C9.18141 56.9302 8.30913 56.0207 7.55519 55.017C7.29965 54.6752 7.13 54.2772 7.06062 53.8562C6.99125 53.4351 7.02413 53.0034 7.15652 52.5977C7.37157 52.2183 7.67512 51.8967 8.04128 51.6598C8.40743 51.4229 8.82539 51.2777 9.2596 51.237C10.3306 51.0584 11.4302 51.1822 12.4348 51.5944C12.9804 51.8006 13.4871 52.0983 13.9331 52.4743C14.1488 52.626 14.347 52.801 14.5241 52.9964C14.1784 51.9506 13.6003 50.9967 12.8334 50.2061C12.4597 49.8057 12.2113 49.3051 12.1185 48.7654C12.0257 48.2257 12.0926 47.6705 12.311 47.1684C12.4926 46.9146 12.7289 46.7049 13.0026 46.5549C13.2763 46.405 13.5802 46.3189 13.8918 46.3026C14.5218 46.2806 15.1481 46.4073 15.72 46.6724C17.4512 47.2657 18.904 48.4744 19.8023 50.0688C19.488 49.0446 19.4314 47.9586 19.6374 46.9073C19.7337 46.5606 19.9007 46.2377 20.1277 45.9586C20.3548 45.6795 20.6371 45.4503 20.957 45.2854C21.2725 45.1318 21.6274 45.0785 21.9741 45.1327C23.0325 45.3128 23.6373 46.4398 23.981 47.457C25.0836 50.7009 25.2832 54.1838 24.5582 57.5325C24.4345 58.0823 24.3245 58.7694 24.7644 59.1268C24.9073 59.2264 25.0734 59.2874 25.2468 59.304C25.4201 59.3206 25.5949 59.2924 25.7541 59.2218C26.2296 58.9541 26.6844 58.6514 27.1149 58.3161C27.6403 58.0115 28.1982 57.7667 28.7781 57.5862C29.8454 57.2392 31.0066 57.3285 32.0082 57.8348C32.4937 58.1075 32.8755 58.5332 33.0943 59.0453C33.313 59.5573 33.3564 60.1272 33.2178 60.6665C32.9977 61.1311 32.6819 61.5439 32.291 61.8779C31.9002 62.2119 31.4431 62.4595 30.9498 62.6044C30.8948 62.6319 30.8399 62.6457 30.7849 62.6732C30.7598 62.6885 30.7316 62.6979 30.7024 62.7008C29.6789 62.9803 28.7548 63.5423 28.0358 64.3226C27.6337 65 27.3982 65.7634 27.3485 66.5495V66.5633C27.3073 66.8245 27.2661 67.0857 27.2249 67.3331C26.7575 69.6698 24.5857 70.1783 22.7438 71.0168C20.8745 71.8553 20.4483 75.0168 20.1322 76.9824C19.726 79.0728 19.9559 81.2366 20.792 83.195C21.2227 84.1672 21.8852 85.019 22.7215 85.6757C23.5579 86.3323 24.5425 86.7736 25.5892 86.9613C26.7755 87.0556 27.9628 86.7925 28.998 86.2055C29.9739 85.7382 30.7712 84.666 31.9395 84.7897C32.3434 84.8447 32.731 84.9845 33.0769 85.2001C33.4228 85.4157 33.7192 85.7021 33.9464 86.0404C34.3987 86.722 34.7203 87.4819 34.8948 88.2811C35.2669 89.6031 35.4018 90.9806 35.2934 92.3497Z" stroke="black" stroke-width="2.06181" stroke-linecap="round" stroke-linejoin="round"/>
  <path d="M19.6429 49.7928C20.0569 51.8137 20.1099 53.8918 19.7995 55.9312" stroke="black" stroke-width="2.06181" stroke-linecap="round" stroke-linejoin="round"/>
  <path d="M14.2959 52.8855C15.1548 54.5327 15.4877 56.4037 15.2498 58.2461" stroke="black" stroke-width="2.06181" stroke-linecap="round" stroke-linejoin="round"/>
  <path d="M86.8373 74.3352C88.162 74.3352 89.2358 73.2613 89.2358 71.9366C89.2358 70.6119 88.162 69.5381 86.8373 69.5381C85.5126 69.5381 84.4387 70.6119 84.4387 71.9366C84.4387 73.2613 85.5126 74.3352 86.8373 74.3352Z" fill="black"/>
  <path d="M73.0218 79.0716C74.3465 79.0716 75.4204 77.9977 75.4204 76.673C75.4204 75.3483 74.3465 74.2744 73.0218 74.2744C71.6971 74.2744 70.6232 75.3483 70.6232 76.673C70.6232 77.9977 71.6971 79.0716 73.0218 79.0716Z" fill="black"/>
  <path d="M79.2264 80.0203C79.4339 80.2993 79.7196 80.5101 80.0474 80.6263C80.3751 80.7425 80.7299 80.7587 81.0668 80.6726C81.4037 80.5866 81.7074 80.4022 81.9392 80.1431C82.171 79.884 82.3205 79.5619 82.3687 79.2176" stroke="black" stroke-width="2.06181" stroke-linecap="round" stroke-linejoin="round"/>
  <path d="M109.978 6.34071L110.93 1.99997" stroke="black" stroke-width="2.06181" stroke-linecap="round" stroke-linejoin="round"/>
  <path d="M113.459 9.83211C115.337 9.47493 117.102 8.67346 118.607 7.49512" stroke="black" stroke-width="2.06181" stroke-linecap="round" stroke-linejoin="round"/>
  <path d="M3.25831 35.4947L67.0961 47.8284" stroke="black" stroke-width="2.06181" stroke-linecap="round" stroke-linejoin="round"/>
</svg>