<svg width="123" height="119" viewBox="0 0 123 119" fill="none" xmlns="http://www.w3.org/2000/svg">
<path d="M64.0496 118.532C95.4828 118.532 120.964 93.2075 120.964 61.9682C120.964 30.7288 95.4828 5.4043 64.0496 5.4043C32.6164 5.4043 7.13477 30.7288 7.13477 61.9682C7.13477 93.2075 32.6164 118.532 64.0496 118.532Z" fill="#FCECE7"/>
<path d="M54.9413 88.0676C56.3834 88.065 57.8029 88.4261 59.0687 89.1175C60.3345 89.8088 61.4057 90.8082 62.1834 92.0232C62.2028 92.0532 62.2288 92.0783 62.2595 92.0966C62.2902 92.1149 62.3247 92.1258 62.3603 92.1285H62.378C62.4114 92.1289 62.4445 92.1221 62.4751 92.1085C62.5056 92.0949 62.5329 92.0749 62.5549 92.0497C64.1372 90.2544 66.1984 88.9479 68.4968 88.2835C70.7951 87.6191 73.2352 87.6243 75.5307 88.2986L71.3797 77.6685H56.7142L52.5234 88.4164C53.3086 88.1852 54.1228 88.0678 54.9413 88.0676Z" fill="#F8AD99"/>
<path d="M58.6269 77.6685H56.7142L52.5234 88.4164C53.1884 88.223 53.8743 88.1107 54.5662 88.0818L58.6269 77.6685Z" fill="#E6886F"/>
<path d="M50.4788 99.0533C50.487 99.1085 50.5148 99.1588 50.557 99.1952C50.5992 99.2316 50.6531 99.2516 50.7088 99.2516C50.7209 99.2525 50.733 99.2525 50.7451 99.2516C51.5643 99.1203 52.3925 99.0537 53.2222 99.0524C57.1834 99.048 60.9981 100.551 63.8924 103.257C63.9355 103.297 63.9921 103.319 64.0508 103.319C64.1096 103.319 64.1661 103.297 64.2092 103.257C67.1036 100.551 70.9182 99.048 74.8794 99.0524C75.7091 99.0537 76.5374 99.1203 77.3566 99.2516C77.3686 99.2525 77.3808 99.2525 77.3928 99.2516C77.4486 99.2516 77.5024 99.2316 77.5446 99.1952C77.5868 99.1588 77.6146 99.1085 77.6229 99.0533C78.0529 96.1768 79.1294 93.4353 80.7715 91.0351C79.5201 89.859 78.0452 88.9463 76.4345 88.3514C74.8238 87.7564 73.11 87.4913 71.3949 87.5717C69.6798 87.6521 67.9983 88.0764 66.4503 88.8194C64.9022 89.5625 63.5192 90.6091 62.3832 91.8972C61.5988 90.6766 60.5264 89.6677 59.2603 88.9596C57.9943 88.2515 56.5735 87.866 55.1234 87.837C53.6732 87.8079 52.2382 88.1363 50.9449 88.7931C49.6515 89.45 48.5395 90.4151 47.707 91.6034C49.1397 93.8664 50.0838 96.4039 50.4788 99.0533Z" fill="#F09177"/>
<path d="M50.7089 99.0204C50.1239 95.1132 48.3684 91.4754 45.6741 88.587C42.9798 85.6987 39.4734 83.6957 35.6177 82.8424C31.762 81.9891 27.7383 82.3256 24.0777 83.8075C20.4172 85.2895 17.2918 87.8471 15.1143 91.1429C20.482 100.157 28.2247 107.521 37.4952 112.427C37.9842 109.076 39.5295 105.969 41.9062 103.558C44.2828 101.146 47.3667 99.5567 50.7089 99.0204Z" fill="#E7633F"/>
<path d="M33.3495 84.7828C38.1327 84.7768 42.7681 86.4402 46.4571 89.4863C44.5153 87.1301 42.0482 85.2623 39.2541 84.0331C36.4599 82.8039 33.4165 82.2475 30.3684 82.4085C27.3202 82.5696 24.3523 83.4436 21.7031 84.9605C19.0539 86.4773 16.7972 88.5946 15.1143 91.1423C15.5761 91.9177 16.0559 92.6809 16.5536 93.4321C18.4615 90.7554 20.9813 88.5739 23.903 87.0693C26.8247 85.5647 30.0635 84.7808 33.3495 84.7828Z" fill="#C95434"/>
<path d="M96.6979 82.3814C92.021 82.3818 87.4996 84.0617 83.956 87.1154C80.4124 90.1692 78.082 94.394 77.3887 99.0214C80.7307 99.5576 83.8145 101.147 86.1912 103.558C88.5678 105.969 90.1132 109.076 90.6024 112.427C99.8732 107.521 107.617 100.159 112.985 91.1448C111.207 88.4498 108.788 86.2383 105.946 84.7088C103.103 83.1793 99.9256 82.3796 96.6979 82.3814Z" fill="#E7633F"/>
<path d="M97.879 82.4171C97.4879 82.3941 97.0951 82.3809 96.6979 82.3809C92.021 82.3813 87.4996 84.0612 83.956 87.1149C80.4123 90.1687 78.082 94.3935 77.3887 99.0209C78.1097 99.1366 78.8218 99.3022 79.5199 99.5166C80.4815 95.1379 82.7535 91.1562 86.0332 88.1015C89.3129 85.0468 93.4449 83.064 97.879 82.4171Z" fill="#C95434"/>
<path d="M74.8767 98.8184C70.8565 98.8146 66.9852 100.341 64.0481 103.087C61.9268 101.109 59.3048 99.7499 56.4663 99.1564C53.6278 98.563 50.6811 98.7581 47.9455 99.7206C45.2099 100.683 42.7899 102.376 40.9475 104.617C39.1052 106.857 37.911 109.559 37.4941 112.43C45.6809 116.745 54.7949 119 64.0481 119C73.3014 119 82.4154 116.745 90.6021 112.43C90.0525 108.65 88.1609 105.194 85.2733 102.694C82.3857 100.195 78.6951 98.819 74.8767 98.8184Z" fill="#D65734"/>
<path d="M56.5415 100.794C58.6654 100.791 60.7699 101.198 62.7397 101.993C60.5351 100.34 57.9385 99.2882 55.205 98.9424C52.4715 98.5966 49.6951 98.9682 47.1485 100.021C44.602 101.073 42.3729 102.77 40.6802 104.945C38.9876 107.12 37.8896 109.699 37.4941 112.427C38.429 112.921 39.3788 113.389 40.3437 113.831C41.1543 110.137 43.2021 106.83 46.1479 104.459C49.0937 102.088 52.7607 100.795 56.5415 100.794Z" fill="#C95434"/>
<path d="M69.2818 77.6685H65.7695L66.2181 81.2151C66.276 81.6738 66.5137 82.0907 66.8789 82.374C67.2441 82.6573 67.7068 82.784 68.1653 82.726C68.6238 82.668 69.0404 82.4302 69.3236 82.0648C69.6068 81.6995 69.7334 81.2365 69.6755 80.7778L69.2818 77.6685Z" fill="#E6886F"/>
<path d="M58.8126 77.6689L57.8916 84.9622C57.8338 85.4207 57.9604 85.8835 58.2436 86.2487C58.5268 86.6139 58.9434 86.8515 59.4018 86.9094C59.4749 86.9187 59.5484 86.9234 59.6221 86.9236C60.0461 86.923 60.4554 86.7679 60.7733 86.4871C61.0912 86.2064 61.2959 85.8194 61.349 85.3985L62.3222 77.668H58.8126V77.6689Z" fill="#E6886F"/>
<path d="M46.1864 45.4879C46.1864 43.5926 46.2546 41.7044 46.3908 39.8232C40.8013 42.9725 36.9512 49.9878 36.9512 58.1096C36.9134 62.2566 37.9771 66.3392 40.0334 69.94C40.1584 70.1539 40.3564 70.3154 40.5909 70.3949C40.8255 70.4745 41.0808 70.4666 41.31 70.3728C43.9847 69.2855 46.8427 68.7207 49.7296 68.7088C47.3505 61.1996 46.1551 53.3653 46.1864 45.4879Z" fill="#E7633F"/>
<path d="M39.585 58.1122C39.585 51.4039 42.2134 45.4551 46.2777 41.8102C46.3086 41.1472 46.3449 40.4825 46.3918 39.8267C40.8023 42.9759 36.9521 49.9913 36.9521 58.113C36.9144 62.26 37.9781 66.3426 40.0344 69.9434C40.1594 70.1573 40.3574 70.3189 40.5919 70.3984C40.8264 70.4779 41.0818 70.47 41.311 70.3762C41.7481 70.1992 42.1957 70.0381 42.638 69.8886C40.6017 66.3005 39.5485 62.2381 39.585 58.1122Z" fill="#D65430"/>
<path d="M81.7075 39.8262C81.8402 41.7032 81.9083 43.5914 81.9118 45.4909C81.9449 53.3687 80.751 61.2035 78.373 68.7135C81.26 68.7254 84.118 69.2902 86.7926 70.3775C87.0219 70.4713 87.2772 70.4792 87.5117 70.3997C87.7463 70.3201 87.9443 70.1586 88.0693 69.9447C90.1257 66.3439 91.1893 62.2613 91.1515 58.1143C91.1471 49.9908 87.2969 42.9754 81.7075 39.8262Z" fill="#E7633F"/>
<path d="M55.1543 71.3813V76.7398C55.1552 77.0477 55.2779 77.3428 55.4956 77.5605C55.7132 77.7783 56.0081 77.901 56.3159 77.902H71.7794C72.0872 77.901 72.3821 77.7783 72.5998 77.5605C72.8174 77.3428 72.9401 77.0477 72.941 76.7398V71.3813H55.1543Z" fill="#E7633F"/>
<path d="M59.1053 76.7398V71.3813H55.1543V76.7398C55.1552 77.0477 55.2779 77.3428 55.4956 77.5605C55.7132 77.7783 56.0081 77.901 56.3159 77.902H60.2669C59.9591 77.901 59.6642 77.7783 59.4466 77.5605C59.229 77.3428 59.1063 77.0477 59.1053 76.7398Z" fill="#D65430"/>
<path d="M78.1847 20.9922H49.9117C44.5227 37.2234 44.6403 54.7805 50.2462 70.9381C50.3184 71.1363 50.4498 71.3076 50.6227 71.4285C50.7955 71.5495 51.0013 71.6144 51.2122 71.6143H76.886C77.0969 71.6144 77.3027 71.5495 77.4755 71.4285C77.6483 71.3076 77.7798 71.1363 77.852 70.9381C83.4579 54.7805 83.5755 37.2234 78.1864 20.9922H78.1847Z" fill="#FFE8A8"/>
<path d="M53.5391 70.9381C47.9332 54.7805 47.8156 37.2234 53.2047 20.9922H49.9127C44.5237 37.2234 44.6412 54.7805 50.2471 70.9381C50.3194 71.1363 50.4508 71.3076 50.6236 71.4285C50.7965 71.5495 51.0023 71.6144 51.2132 71.6143H54.5052C54.2942 71.6144 54.0884 71.5495 53.9156 71.4285C53.7428 71.3076 53.6113 71.1363 53.5391 70.9381Z" fill="#FFDE81"/>
<path d="M57.3535 20.9922V24.8486C57.3544 25.1566 57.4771 25.4516 57.6948 25.6693C57.9124 25.8871 58.2073 26.0098 58.5151 26.0108H69.5808C69.8886 26.0098 70.1835 25.8871 70.4012 25.6693C70.6188 25.4516 70.7415 25.1566 70.7424 24.8486V20.9922H57.3535Z" fill="#E7633F"/>
<path d="M59.9872 24.8486V20.9922H57.3535V24.8486C57.3544 25.1566 57.4771 25.4516 57.6948 25.6693C57.9124 25.8871 58.2073 26.0098 58.5151 26.0108H61.1488C60.841 26.0098 60.5461 25.8871 60.3285 25.6693C60.1109 25.4516 59.9882 25.1566 59.9872 24.8486Z" fill="#D65430"/>
<path d="M64.049 2.0859e-07C63.8135 -7.7865e-05 63.5852 0.0808626 63.4023 0.229244C58.2127 4.43352 53.8423 10.8107 50.7627 18.6723C50.4354 19.5087 50.1275 20.362 49.832 21.2241H78.2669C77.9714 20.362 77.6635 19.5087 77.3362 18.6723C74.2557 10.8107 69.8853 4.43352 64.6957 0.229244C64.5129 0.0807988 64.2845 -0.000149972 64.049 2.0859e-07Z" fill="#E7633F"/>
<path d="M65.6944 1.07554C65.3648 0.784629 65.0318 0.502574 64.6956 0.22937C64.5126 0.0809749 64.2841 0 64.0485 0C63.8129 0 63.5844 0.0809749 63.4013 0.22937C58.2117 4.43364 53.8414 10.8109 50.7618 18.6724C50.4344 19.5088 50.1265 20.3621 49.8311 21.2242H53.123C53.4185 20.3621 53.7263 19.5088 54.0537 18.6724C56.9342 11.3207 60.9428 5.2683 65.6944 1.07554Z" fill="#B7092B"/>
<path d="M64.0495 53.909C70.5953 53.909 75.9017 48.6001 75.9017 42.0512C75.9017 35.5023 70.5953 30.1934 64.0495 30.1934C57.5037 30.1934 52.1973 35.5023 52.1973 42.0512C52.1973 48.6001 57.5037 53.909 64.0495 53.909Z" fill="#E7633F"/>
<path d="M64.0492 49.6594C68.2488 49.6594 71.6531 46.2534 71.6531 42.0519C71.6531 37.8503 68.2488 34.4443 64.0492 34.4443C59.8497 34.4443 56.4453 37.8503 56.4453 42.0519C56.4453 46.2534 59.8497 49.6594 64.0492 49.6594Z" fill="#FFCF48"/>
<path d="M59.2333 42.0556C59.2345 43.8308 59.8557 45.5498 60.9896 46.9152C62.1236 48.2807 63.6988 49.2066 65.443 49.533C64.3454 49.7373 63.2164 49.6973 62.136 49.4158C61.0556 49.1344 60.0505 48.6184 59.1919 47.9045C58.3333 47.1906 57.6424 46.2963 57.1682 45.2851C56.6941 44.2739 56.4482 43.1707 56.4482 42.0538C56.4482 40.9369 56.6941 39.8337 57.1682 38.8225C57.6424 37.8114 58.3333 36.9171 59.1919 36.2032C60.0505 35.4893 61.0556 34.9732 62.136 34.6918C63.2164 34.4103 64.3454 34.3703 65.443 34.5746C63.6982 34.9011 62.1225 35.8276 60.9885 37.1938C59.8545 38.5599 59.2336 40.2798 59.2333 42.0556Z" fill="#EDC040"/>
<path d="M30.1638 41.5419C30.0335 41.5418 29.9061 41.5031 29.7978 41.4306C29.6894 41.3582 29.605 41.2552 29.5551 41.1347C28.2582 38.0023 27.3018 37.0455 24.1709 35.748C24.0506 35.698 23.9478 35.6134 23.8755 35.5051C23.8032 35.3967 23.7646 35.2693 23.7646 35.139C23.7646 35.0087 23.8032 34.8813 23.8755 34.7729C23.9478 34.6645 24.0506 34.58 24.1709 34.53C27.3027 33.2316 28.2582 32.2757 29.5551 29.1433C29.6051 29.0229 29.6896 28.9201 29.7979 28.8478C29.9062 28.7754 30.0336 28.7368 30.1638 28.7368C30.294 28.7368 30.4214 28.7754 30.5297 28.8478C30.638 28.9201 30.7225 29.0229 30.7725 29.1433C32.0694 32.2757 33.0258 33.2325 36.1567 34.53C36.277 34.58 36.3797 34.6645 36.4521 34.7729C36.5244 34.8813 36.5629 35.0087 36.5629 35.139C36.5629 35.2693 36.5244 35.3967 36.4521 35.5051C36.3797 35.6134 36.277 35.698 36.1567 35.748C33.0258 37.0455 32.0694 38.0023 30.7725 41.1347C30.7226 41.2552 30.6382 41.3582 30.5298 41.4306C30.4215 41.5031 30.2941 41.5418 30.1638 41.5419Z" fill="#FFCF48"/>
<path d="M30.8724 39.8172C29.5755 36.6848 28.6191 35.728 25.4882 34.4304C25.3366 34.3677 25.2139 34.2506 25.1441 34.1021C24.8433 34.2428 24.5248 34.3844 24.1709 34.5304C24.0506 34.5804 23.9478 34.6649 23.8755 34.7733C23.8032 34.8817 23.7646 35.0091 23.7646 35.1394C23.7646 35.2697 23.8032 35.3971 23.8755 35.5055C23.9478 35.6138 24.0506 35.6984 24.1709 35.7484C27.3018 37.0459 28.2582 38.0027 29.5551 41.1351C29.6051 41.2555 29.6896 41.3583 29.7979 41.4306C29.9062 41.503 30.0335 41.5416 30.1638 41.5416C30.294 41.5416 30.4214 41.503 30.5297 41.4306C30.638 41.3583 30.7225 41.2555 30.7725 41.1351C30.9184 40.7811 31.06 40.4624 31.1998 40.1615C31.0517 40.0914 30.9351 39.9686 30.8724 39.8172Z" fill="#F5C439"/>
<path d="M100.164 46.8101C100.051 46.8095 99.9401 46.7757 99.8457 46.7128C99.7514 46.6498 99.6775 46.5606 99.6334 46.4561C98.4939 43.7025 97.6535 42.8616 94.9003 41.7216C94.7948 41.6776 94.7046 41.6032 94.6412 41.508C94.5778 41.4128 94.5439 41.301 94.5439 41.1866C94.5439 41.0721 94.5778 40.9603 94.6412 40.8651C94.7046 40.7699 94.7948 40.6956 94.9003 40.6515C97.6526 39.5106 98.493 38.6697 99.6334 35.9162C99.6773 35.8103 99.7516 35.7198 99.8468 35.6562C99.9421 35.5926 100.054 35.5586 100.169 35.5586C100.283 35.5586 100.395 35.5926 100.49 35.6562C100.586 35.7198 100.66 35.8103 100.704 35.9162C101.844 38.6697 102.685 39.5106 105.437 40.6515C105.543 40.6956 105.633 40.7699 105.696 40.8651C105.759 40.9603 105.793 41.0721 105.793 41.1866C105.793 41.301 105.759 41.4128 105.696 41.508C105.633 41.6032 105.543 41.6776 105.437 41.7216C102.685 42.8616 101.844 43.7025 100.704 46.4561C100.66 46.5606 100.586 46.6499 100.492 46.7129C100.397 46.7758 100.286 46.8096 100.173 46.8101H100.164Z" fill="#FFCF48"/>
<path d="M100.787 45.2954C99.6462 42.5418 98.8057 41.7009 96.0535 40.56C95.9202 40.505 95.8122 40.4021 95.7509 40.2715C95.4855 40.3954 95.2051 40.5193 94.8954 40.6477C94.7899 40.6917 94.6997 40.766 94.6363 40.8612C94.5729 40.9564 94.5391 41.0683 94.5391 41.1827C94.5391 41.2971 94.5729 41.409 94.6363 41.5042C94.6997 41.5994 94.7899 41.6737 94.8954 41.7178C97.6477 42.8578 98.4882 43.6986 99.6285 46.4522C99.6722 46.5581 99.7464 46.6487 99.8416 46.7124C99.9368 46.7761 100.049 46.8102 100.163 46.8102C100.278 46.8102 100.39 46.7761 100.485 46.7124C100.58 46.6487 100.654 46.5581 100.698 46.4522C100.826 46.1433 100.95 45.861 101.074 45.5963C100.944 45.5351 100.842 45.4279 100.787 45.2954Z" fill="#F5C439"/>
<path d="M22.3302 14.8404C22.2168 14.8398 22.1061 14.806 22.0118 14.743C21.9174 14.6801 21.8436 14.5908 21.7994 14.4863C20.6599 11.7328 19.8195 10.8919 17.0663 9.75189C16.9608 9.70784 16.8706 9.63352 16.8072 9.53831C16.7438 9.4431 16.71 9.33124 16.71 9.21683C16.71 9.10242 16.7438 8.99057 16.8072 8.89536C16.8706 8.80015 16.9608 8.72584 17.0663 8.68179C19.8186 7.54088 20.6591 6.70002 21.7994 3.94644C21.8433 3.84059 21.9176 3.75012 22.0129 3.68647C22.1081 3.62283 22.2201 3.58887 22.3347 3.58887C22.4492 3.58887 22.5612 3.62283 22.6565 3.68647C22.7517 3.75012 22.826 3.84059 22.8699 3.94644C24.0103 6.70002 24.8507 7.54088 27.603 8.68179C27.7085 8.72584 27.7987 8.80015 27.8621 8.89536C27.9255 8.99057 27.9593 9.10242 27.9593 9.21683C27.9593 9.33124 27.9255 9.4431 27.8621 9.53831C27.7987 9.63352 27.7085 9.70784 27.603 9.75189C24.8507 10.8919 24.0103 11.7328 22.8699 14.4863C22.8258 14.5909 22.7521 14.6802 22.6577 14.7432C22.5633 14.8061 22.4525 14.8399 22.3391 14.8404H22.3302Z" fill="#FFCF48"/>
<path d="M22.9526 13.3256C21.8122 10.5721 20.9718 9.73121 18.2195 8.59031C18.0862 8.53528 17.9782 8.43235 17.9169 8.30176C17.6515 8.42567 17.3711 8.54959 17.0614 8.67793C16.9559 8.72199 16.8657 8.79629 16.8023 8.8915C16.7389 8.98671 16.7051 9.09856 16.7051 9.21297C16.7051 9.32739 16.7389 9.43924 16.8023 9.53445C16.8657 9.62966 16.9559 9.70398 17.0614 9.74803C19.8137 10.8881 20.6542 11.7289 21.7945 14.4825C21.8382 14.5884 21.9124 14.679 22.0076 14.7427C22.1028 14.8064 22.2148 14.8404 22.3293 14.8404C22.4439 14.8404 22.5558 14.8064 22.651 14.7427C22.7462 14.679 22.8204 14.5884 22.8641 14.4825C22.9924 14.1736 23.1163 13.8912 23.2401 13.6266C23.1103 13.5654 23.0078 13.4582 22.9526 13.3256Z" fill="#F5C439"/>
<path d="M5.62516 76.0791C5.51176 76.0786 5.40104 76.0447 5.30668 75.9818C5.21233 75.9189 5.13848 75.8296 5.09434 75.7251C3.95486 72.9715 3.11439 72.1307 0.361238 70.9907C0.255697 70.9466 0.165544 70.8723 0.102132 70.7771C0.0387197 70.6819 0.00488281 70.57 0.00488281 70.4556C0.00488281 70.3412 0.0387197 70.2293 0.102132 70.1341C0.165544 70.0389 0.255697 69.9646 0.361238 69.9206C3.11351 68.7797 3.95397 67.9388 5.09434 65.1852C5.13824 65.0794 5.21252 64.9889 5.30779 64.9252C5.40305 64.8616 5.51503 64.8276 5.62959 64.8276C5.74414 64.8276 5.85612 64.8616 5.95138 64.9252C6.04665 64.9889 6.12091 65.0794 6.16481 65.1852C7.30517 67.9388 8.14563 68.7797 10.8979 69.9206C11.0034 69.9646 11.0936 70.0389 11.157 70.1341C11.2204 70.2293 11.2543 70.3412 11.2543 70.4556C11.2543 70.57 11.2204 70.6819 11.157 70.7771C11.0936 70.8723 11.0034 70.9466 10.8979 70.9907C8.14563 72.1307 7.30517 72.9715 6.16481 75.7251C6.12075 75.8297 6.04697 75.919 5.9526 75.9819C5.85822 76.0449 5.74744 76.0787 5.63401 76.0791H5.62516Z" fill="#FFCF48"/>
<path d="M6.24702 74.5644C5.10665 71.8108 4.26619 70.97 1.51392 69.8291C1.3806 69.7741 1.27266 69.6711 1.21134 69.5405C0.945937 69.6644 0.665508 69.7884 0.355866 69.9167C0.250326 69.9608 0.160173 70.0351 0.0967607 70.1303C0.0333486 70.2255 -0.000488281 70.3373 -0.000488281 70.4517C-0.000488281 70.5662 0.0333486 70.678 0.0967607 70.7732C0.160173 70.8684 0.250326 70.9427 0.355866 70.9868C3.10814 72.1268 3.9486 72.9677 5.08897 75.7213C5.13268 75.8272 5.20684 75.9177 5.30204 75.9815C5.39725 76.0452 5.50921 76.0792 5.62376 76.0792C5.7383 76.0792 5.85027 76.0452 5.94547 75.9815C6.04068 75.9177 6.11483 75.8272 6.15854 75.7213C6.28682 75.4123 6.4107 75.13 6.53455 74.8654C6.40473 74.8042 6.30224 74.6969 6.24702 74.5644Z" fill="#F5C439"/>
<path d="M94.1265 22.3273C93.9937 22.3264 93.8642 22.2864 93.754 22.2123C93.6439 22.1381 93.558 22.0331 93.5072 21.9104C92.1802 18.7019 91.2 17.722 87.993 16.3935C87.8698 16.3423 87.7646 16.2557 87.6906 16.1447C87.6166 16.0337 87.5771 15.9033 87.5771 15.7699C87.5771 15.6365 87.6166 15.5061 87.6906 15.3951C87.7646 15.2842 87.8698 15.1976 87.993 15.1464C91.2 13.8187 92.1793 12.8371 93.5072 9.62947C93.5583 9.50603 93.6448 9.40051 93.7558 9.32627C93.8669 9.25203 93.9974 9.2124 94.1309 9.2124C94.2645 9.2124 94.395 9.25203 94.506 9.32627C94.617 9.40051 94.7036 9.50603 94.7546 9.62947C96.0817 12.838 97.0619 13.8178 100.27 15.1464C100.393 15.1976 100.498 15.2842 100.572 15.3951C100.646 15.5061 100.686 15.6365 100.686 15.7699C100.686 15.9033 100.646 16.0337 100.572 16.1447C100.498 16.2557 100.393 16.3423 100.27 16.3935C97.0628 17.7212 96.0834 18.7019 94.7546 21.9104C94.7039 22.0332 94.6181 22.1382 94.5079 22.2124C94.3978 22.2866 94.2681 22.3265 94.1354 22.3273H94.1265Z" fill="#E7633F"/>
<path d="M94.8512 20.5603C93.5242 17.3517 92.5439 16.3719 89.336 15.0434C89.1803 14.9793 89.0541 14.8594 88.9822 14.707C88.6743 14.8513 88.3461 14.9965 87.9851 15.1496C87.862 15.2008 87.7568 15.2874 87.6828 15.3984C87.6088 15.5093 87.5693 15.6397 87.5693 15.7731C87.5693 15.9066 87.6088 16.037 87.6828 16.1479C87.7568 16.2589 87.862 16.3455 87.9851 16.3967C91.1921 17.7244 92.1715 18.7051 93.4994 21.9136C93.5505 22.037 93.637 22.1426 93.748 22.2168C93.859 22.291 93.9896 22.3307 94.1231 22.3307C94.2567 22.3307 94.3872 22.291 94.4982 22.2168C94.6092 22.1426 94.6958 22.037 94.7468 21.9136C94.8964 21.5525 95.0406 21.2241 95.1892 20.917C95.0357 20.8449 94.9149 20.7175 94.8512 20.5603Z" fill="#CC4E2B"/>
<path d="M117.992 83.8286C117.89 83.8285 117.791 83.7981 117.706 83.7414C117.621 83.6847 117.555 83.6042 117.516 83.5099C116.502 81.0591 115.754 80.3103 113.304 79.295C113.209 79.256 113.129 79.1898 113.072 79.105C113.016 79.0201 112.985 78.9204 112.985 78.8184C112.985 78.7164 113.016 78.6167 113.072 78.5318C113.129 78.447 113.209 78.3809 113.304 78.3418C115.754 77.3266 116.502 76.5778 117.516 74.1269C117.555 74.0327 117.622 73.9521 117.706 73.8955C117.791 73.8388 117.891 73.8086 117.993 73.8086C118.095 73.8086 118.194 73.8388 118.279 73.8955C118.364 73.9521 118.43 74.0327 118.469 74.1269C119.484 76.5778 120.232 77.3266 122.682 78.3418C122.776 78.3809 122.857 78.447 122.913 78.5318C122.97 78.6167 123 78.7164 123 78.8184C123 78.9204 122.97 79.0201 122.913 79.105C122.857 79.1898 122.776 79.256 122.682 79.295C120.232 80.3103 119.484 81.0591 118.469 83.5099C118.43 83.6042 118.364 83.6848 118.28 83.7416C118.195 83.7983 118.095 83.8286 117.993 83.8286H117.992Z" fill="#E7633F"/>
<path d="M118.546 82.4794C117.532 80.0285 116.783 79.2797 114.334 78.2645C114.216 78.2146 114.122 78.1232 114.068 78.0078C113.833 78.1185 113.582 78.2291 113.306 78.3424C113.212 78.3815 113.132 78.4476 113.075 78.5324C113.019 78.6173 112.988 78.717 112.988 78.819C112.988 78.921 113.019 79.0208 113.075 79.1056C113.132 79.1904 113.212 79.2566 113.306 79.2956C115.756 80.3109 116.505 81.0597 117.519 83.5105C117.558 83.6048 117.625 83.6853 117.709 83.7419C117.794 83.7986 117.894 83.8288 117.996 83.8288C118.098 83.8288 118.197 83.7986 118.282 83.7419C118.367 83.6853 118.433 83.6048 118.472 83.5105C118.586 83.2353 118.697 82.9839 118.807 82.7485C118.689 82.6946 118.596 82.5985 118.546 82.4794Z" fill="#CC4E2B"/>
</svg>
