<svg width="70" height="70" viewBox="0 0 70 70" fill="none" xmlns="http://www.w3.org/2000/svg">
<g clip-path="url(#clip0_7061_6640)">
<circle cx="35" cy="35" r="35" fill="white"/>
<circle cx="34.6536" cy="34.6536" r="24.9505" fill="#FFC31B"/>
<g opacity="0.12">
<path d="M41.5 36.5C43.433 36.5 45 34.933 45 33C45 31.067 43.433 29.5 41.5 29.5V36.5Z" fill="#212229"/>
<path d="M33 28.5H29.5C27.0147 28.5 25 30.5147 25 33C25 35.4853 27.0147 37.5 29.5 37.5H33L33 28.5Z" fill="#212229"/>
</g>
<path d="M27 36.9999L28.5746 43.2985C28.6189 43.4756 28.6411 43.5642 28.6673 43.6415C28.9232 44.397 29.6035 44.9282 30.3985 44.9933C30.4799 44.9999 30.5712 44.9999 30.7538 44.9999C30.9824 44.9999 31.0968 44.9999 31.1931 44.9906C32.145 44.8982 32.8983 44.1449 32.9907 43.193C33 43.0967 33 42.9824 33 42.7537V28.4999M41.5 36.4999C43.433 36.4999 45 34.9329 45 32.9999C45 31.0669 43.433 29.4999 41.5 29.4999M33.25 28.4999H29.5C27.0147 28.4999 25 30.5146 25 32.9999C25 35.4852 27.0147 37.4999 29.5 37.4999H33.25C35.0164 37.4999 37.1772 38.4468 38.8443 39.3556C39.8168 39.8857 40.3031 40.1508 40.6216 40.1118C40.9169 40.0756 41.1402 39.943 41.3133 39.701C41.5 39.4401 41.5 38.9179 41.5 37.8736V28.1262C41.5 27.0819 41.5 26.5598 41.3133 26.2988C41.1402 26.0568 40.9169 25.9242 40.6216 25.888C40.3031 25.849 39.8168 26.1141 38.8443 26.6443C37.1772 27.553 35.0164 28.4999 33.25 28.4999Z" stroke="#212229" stroke-width="1.81818" stroke-linecap="round" stroke-linejoin="round"/>
</g>
<defs>
<clipPath id="clip0_7061_6640">
<rect width="70" height="70" fill="white"/>
</clipPath>
</defs>
</svg>
