<svg width="70" height="70" viewBox="0 0 70 70" fill="none" xmlns="http://www.w3.org/2000/svg">
<g clip-path="url(#clip0_7047_4929)">
<circle cx="35" cy="35" r="35" fill="white"/>
<circle cx="34.6536" cy="34.6536" r="24.9505" fill="#FFC31B"/>
<path opacity="0.12" d="M40.8001 33.6538H36.0001V43.6538H44.0001V36.8538C44.0001 35.7337 44.0001 35.1737 43.7821 34.7458C43.5903 34.3695 43.2844 34.0635 42.908 33.8718C42.4802 33.6538 41.9202 33.6538 40.8001 33.6538Z" fill="#212229"/>
<path d="M36.0001 33.6538H40.8001C41.9202 33.6538 42.4802 33.6538 42.908 33.8718C43.2844 34.0635 43.5903 34.3695 43.7821 34.7458C44.0001 35.1737 44.0001 35.7337 44.0001 36.8538V43.6538M36.0001 43.6538V28.8538C36.0001 27.7337 36.0001 27.1737 35.7821 26.7458C35.5903 26.3695 35.2844 26.0635 34.908 25.8718C34.4802 25.6538 33.9202 25.6538 32.8001 25.6538H29.2001C28.08 25.6538 27.5199 25.6538 27.0921 25.8718C26.7158 26.0635 26.4098 26.3695 26.218 26.7458C26.0001 27.1737 26.0001 27.7337 26.0001 28.8538V43.6538M45.0001 43.6538H25.0001M29.5001 29.6538H32.5001M29.5001 33.6538H32.5001M29.5001 37.6538H32.5001" stroke="#212229" stroke-width="2" stroke-linecap="round" stroke-linejoin="round"/>
</g>
<defs>
<clipPath id="clip0_7047_4929">
<rect width="70" height="70" fill="white"/>
</clipPath>
</defs>
</svg>
