<svg width="70" height="70" viewBox="0 0 70 70" fill="none" xmlns="http://www.w3.org/2000/svg">
<g clip-path="url(#clip0_7353_7360)">
<circle cx="35" cy="35" r="35" fill="white"/>
<circle cx="34.6536" cy="34.6536" r="24.9505" fill="#FFC31B"/>
<path opacity="0.12" d="M40.8 33.6543H36V43.6543H44V36.8543C44 35.7342 44 35.1741 43.782 34.7463C43.5903 34.37 43.2843 34.064 42.908 33.8723C42.4802 33.6543 41.9201 33.6543 40.8 33.6543Z" fill="#212229"/>
<path d="M36 33.6543H40.8C41.9201 33.6543 42.4802 33.6543 42.908 33.8723C43.2843 34.064 43.5903 34.37 43.782 34.7463C44 35.1741 44 35.7342 44 36.8543V43.6543M36 43.6543V28.8543C36 27.7342 36 27.1741 35.782 26.7463C35.5903 26.37 35.2843 26.064 34.908 25.8723C34.4802 25.6543 33.9201 25.6543 32.8 25.6543H29.2C28.0799 25.6543 27.5198 25.6543 27.092 25.8723C26.7157 26.064 26.4097 26.37 26.218 26.7463C26 27.1741 26 27.7342 26 28.8543V43.6543M45 43.6543H25M29.5 29.6543H32.5M29.5 33.6543H32.5M29.5 37.6543H32.5" stroke="#212229" stroke-width="2" stroke-linecap="round" stroke-linejoin="round"/>
</g>
<defs>
<clipPath id="clip0_7353_7360">
<rect width="70" height="70" fill="white"/>
</clipPath>
</defs>
</svg>
