<svg width="70" height="70" viewBox="0 0 70 70" fill="none" xmlns="http://www.w3.org/2000/svg">
<g clip-path="url(#clip0_7351_2013)">
<circle cx="35" cy="35" r="35" fill="white"/>
<circle cx="34.6535" cy="34.6536" r="24.9505" fill="#FFC31B"/>
<path opacity="0.12" d="M43 41.8V34H27V41.8C27 42.9201 27 43.4802 27.218 43.908C27.4097 44.2843 27.7157 44.5903 28.092 44.782C28.5198 45 29.0799 45 30.2 45L39.8 45C40.9201 45 41.4802 45 41.908 44.782C42.2843 44.5903 42.5903 44.2843 42.782 43.908C43 43.4802 43 42.9201 43 41.8Z" fill="#212229"/>
<path d="M35 29V45M35 29H31.4643C30.9433 29 30.4437 28.7893 30.0753 28.4142C29.707 28.0391 29.5 27.5304 29.5 27C29.5 26.4696 29.707 25.9609 30.0753 25.5858C30.4437 25.2107 30.9433 25 31.4643 25C34.2143 25 35 29 35 29ZM35 29H38.5357C39.0567 29 39.5563 28.7893 39.9247 28.4142C40.293 28.0391 40.5 27.5304 40.5 27C40.5 26.4696 40.293 25.9609 39.9247 25.5858C39.5563 25.2107 39.0567 25 38.5357 25C35.7857 25 35 29 35 29ZM43 34V41.8C43 42.9201 43 43.4802 42.782 43.908C42.5903 44.2843 42.2843 44.5903 41.908 44.782C41.4802 45 40.9201 45 39.8 45L30.2 45C29.0799 45 28.5198 45 28.092 44.782C27.7157 44.5903 27.4097 44.2843 27.218 43.908C27 43.4802 27 42.9201 27 41.8V34M25 30.6L25 32.4C25 32.9601 25 33.2401 25.109 33.454C25.2049 33.6422 25.3578 33.7951 25.546 33.891C25.7599 34 26.0399 34 26.6 34L43.4 34C43.9601 34 44.2401 34 44.454 33.891C44.6422 33.7951 44.7951 33.6422 44.891 33.454C45 33.2401 45 32.9601 45 32.4V30.6C45 30.0399 45 29.7599 44.891 29.546C44.7951 29.3578 44.6422 29.2049 44.454 29.109C44.2401 29 43.9601 29 43.4 29L26.6 29C26.0399 29 25.7599 29 25.546 29.109C25.3578 29.2049 25.2049 29.3578 25.109 29.546C25 29.7599 25 30.0399 25 30.6Z" stroke="#212229" stroke-width="2" stroke-linecap="round" stroke-linejoin="round"/>
</g>
<defs>
<clipPath id="clip0_7351_2013">
<rect width="70" height="70" fill="white"/>
</clipPath>
</defs>
</svg>
