<svg width="70" height="70" viewBox="0 0 70 70" fill="none" xmlns="http://www.w3.org/2000/svg">
<g clip-path="url(#clip0_7351_6083)">
<circle cx="35" cy="35" r="35" fill="white"/>
<circle cx="34.6536" cy="34.6536" r="24.9505" fill="#FFC31B"/>
<path opacity="0.12" d="M32.5 34C34.7091 34 36.5 32.2091 36.5 30C36.5 27.7909 34.7091 26 32.5 26C30.2909 26 28.5 27.7909 28.5 30C28.5 32.2091 30.2909 34 32.5 34Z" fill="#212229"/>
<path d="M42 44V38M39 41H45M35 38H31C29.1362 38 28.2044 38 27.4693 38.3045C26.4892 38.7105 25.7105 39.4892 25.3045 40.4693C25 41.2044 25 42.1362 25 44M38.5 26.2908C39.9659 26.8841 41 28.3213 41 30C41 31.6787 39.9659 33.1159 38.5 33.7092M36.5 30C36.5 32.2091 34.7091 34 32.5 34C30.2909 34 28.5 32.2091 28.5 30C28.5 27.7909 30.2909 26 32.5 26C34.7091 26 36.5 27.7909 36.5 30Z" stroke="#212229" stroke-width="2" stroke-linecap="round" stroke-linejoin="round"/>
</g>
<defs>
<clipPath id="clip0_7351_6083">
<rect width="70" height="70" fill="white"/>
</clipPath>
</defs>
</svg>
