<svg width="70" height="70" viewBox="0 0 70 70" fill="none" xmlns="http://www.w3.org/2000/svg">
<g clip-path="url(#clip0_7061_8121)">
<circle cx="35" cy="35" r="35" fill="white"/>
<circle cx="34.6536" cy="34.6536" r="24.9505" fill="#FFC31B"/>
<path opacity="0.12" d="M43 33H27V33.2C27 34.8802 27 35.7202 27.327 36.362C27.6146 36.9265 28.0735 37.3854 28.638 37.673C29.2798 38 30.1198 38 31.8 38H32.5V42.5C32.5 43.8807 33.6193 45 35 45C36.3807 45 37.5 43.8807 37.5 42.5V38H38.2C39.8802 38 40.7202 38 41.362 37.673C41.9265 37.3854 42.3854 36.9265 42.673 36.362C43 35.7202 43 34.8802 43 33.2V33Z" fill="#212229"/>
<path d="M43 33V26.6C43 26.0399 43 25.7599 42.891 25.546C42.7951 25.3578 42.6422 25.2049 42.454 25.109C42.2401 25 41.9601 25 41.4 25H28.6C28.0399 25 27.7599 25 27.546 25.109C27.3578 25.2049 27.2049 25.3578 27.109 25.546C27 25.7599 27 26.0399 27 26.6V33M43 33H27M43 33V33.2C43 34.8802 43 35.7202 42.673 36.362C42.3854 36.9265 41.9265 37.3854 41.362 37.673C40.7202 38 39.8802 38 38.2 38H31.8C30.1198 38 29.2798 38 28.638 37.673C28.0735 37.3854 27.6146 36.9265 27.327 36.362C27 35.7202 27 34.8802 27 33.2V33M37.5 38V42.5C37.5 43.8807 36.3807 45 35 45C33.6193 45 32.5 43.8807 32.5 42.5V38" stroke="#212229" stroke-width="2" stroke-linecap="round" stroke-linejoin="round"/>
</g>
<defs>
<clipPath id="clip0_7061_8121">
<rect width="70" height="70" fill="white"/>
</clipPath>
</defs>
</svg>
