<svg width="30" height="30" viewBox="0 0 30 30" fill="none" xmlns="http://www.w3.org/2000/svg">
<path fill-rule="evenodd" clip-rule="evenodd" d="M27.9648 15.4143L19.7616 24.2034C19.548 24.4323 19.2019 24.4323 18.9883 24.2034C18.7747 23.9745 18.7747 23.6037 18.9883 23.3748L26.2579 15.586L2.42189 15.586C2.1196 15.586 1.875 15.3239 1.875 15C1.875 14.6761 2.1196 14.414 2.42189 14.414L26.2579 14.414L18.9883 6.62522C18.7747 6.39632 18.7747 6.02553 18.9883 5.79666C19.0951 5.68223 19.2351 5.625 19.375 5.625C19.5149 5.625 19.6548 5.68223 19.7617 5.79666L27.9648 14.5857C28.1784 14.8146 28.1784 15.1854 27.9648 15.4143Z" fill="#282828" stroke="#282828" stroke-width="0.5"/>
<path fill-rule="evenodd" clip-rule="evenodd" d="M27.9648 15.4143L19.7616 24.2034C19.548 24.4323 19.2019 24.4323 18.9883 24.2034C18.7747 23.9745 18.7747 23.6037 18.9883 23.3748L26.2579 15.586L2.42189 15.586C2.1196 15.586 1.875 15.3239 1.875 15C1.875 14.6761 2.1196 14.414 2.42189 14.414L26.2579 14.414L18.9883 6.62522C18.7747 6.39632 18.7747 6.02553 18.9883 5.79666C19.0951 5.68223 19.2351 5.625 19.375 5.625C19.5149 5.625 19.6548 5.68223 19.7617 5.79666L27.9648 14.5857C28.1784 14.8146 28.1784 15.1854 27.9648 15.4143Z" fill="#282828" stroke="#282828" stroke-width="0.5"/>
</svg>
