<svg width="26" height="26" viewBox="0 0 26 26" fill="none" xmlns="http://www.w3.org/2000/svg">
<path fill-rule="evenodd" clip-rule="evenodd" d="M16.7055 9.28088C16.8518 9.42725 16.8525 9.66413 16.7055 9.81121L13.7886 12.728L16.7055 15.6448C16.8518 15.7912 16.8525 16.0281 16.7055 16.1752L16.1751 16.7055C16.0288 16.8519 15.7912 16.8519 15.6448 16.7055L12.728 13.7887L9.81116 16.7055C9.66479 16.8519 9.4272 16.8519 9.28083 16.7055L8.7505 16.1752C8.60413 16.0288 8.60413 15.7912 8.7505 15.6448L11.6673 12.728L8.7505 9.81121C8.60413 9.66484 8.60413 9.42725 8.7505 9.28088L9.28083 8.75055C9.42792 8.60347 9.66479 8.60418 9.81116 8.75055L12.728 11.6674L15.6448 8.75055C15.7919 8.60347 16.0288 8.60418 16.1751 8.75055L16.7055 9.28088ZM6.36402 6.36407C2.8497 9.87839 2.84899 15.577 6.36402 19.092C9.87905 22.607 15.5776 22.6063 19.0919 19.092C22.607 15.577 22.607 9.87909 19.0919 6.36407C15.5755 2.8547 9.88187 2.8547 6.36402 6.36407Z" fill="black"/>
</svg>
