<svg width="74" height="33" viewBox="0 0 74 33" fill="none" xmlns="http://www.w3.org/2000/svg">
<path d="M33.3622 16.4C33.3622 15.3013 33.6076 14.32 34.0982 13.456C34.5996 12.5813 35.2769 11.904 36.1302 11.424C36.9942 10.9333 37.9596 10.688 39.0262 10.688C40.2742 10.688 41.3676 11.008 42.3062 11.648C43.2449 12.288 43.9009 13.1733 44.2742 14.304H41.6982C41.4422 13.7707 41.0796 13.3707 40.6102 13.104C40.1516 12.8373 39.6182 12.704 39.0102 12.704C38.3596 12.704 37.7782 12.8587 37.2662 13.168C36.7649 13.4667 36.3702 13.8933 36.0822 14.448C35.8049 15.0027 35.6662 15.6533 35.6662 16.4C35.6662 17.136 35.8049 17.7867 36.0822 18.352C36.3702 18.9067 36.7649 19.3387 37.2662 19.648C37.7782 19.9467 38.3596 20.096 39.0102 20.096C39.6182 20.096 40.1516 19.9627 40.6102 19.696C41.0796 19.4187 41.4422 19.0133 41.6982 18.48H44.2742C43.9009 19.6213 43.2449 20.512 42.3062 21.152C41.3782 21.7813 40.2849 22.096 39.0262 22.096C37.9596 22.096 36.9942 21.856 36.1302 21.376C35.2769 20.8853 34.5996 20.208 34.0982 19.344C33.6076 18.48 33.3622 17.4987 33.3622 16.4ZM50.0435 22.112C49.2648 22.112 48.5608 21.9787 47.9315 21.712C47.3128 21.4453 46.8222 21.0613 46.4595 20.56C46.0968 20.0587 45.9102 19.4667 45.8995 18.784H48.2995C48.3315 19.2427 48.4915 19.6053 48.7795 19.872C49.0782 20.1387 49.4835 20.272 49.9955 20.272C50.5182 20.272 50.9288 20.1493 51.2275 19.904C51.5262 19.648 51.6755 19.3173 51.6755 18.912C51.6755 18.5813 51.5742 18.3093 51.3715 18.096C51.1688 17.8827 50.9128 17.7173 50.6035 17.6C50.3048 17.472 49.8888 17.3333 49.3555 17.184C48.6302 16.9707 48.0382 16.7627 47.5795 16.56C47.1315 16.3467 46.7422 16.032 46.4115 15.616C46.0915 15.1893 45.9315 14.624 45.9315 13.92C45.9315 13.2587 46.0968 12.6827 46.4275 12.192C46.7582 11.7013 47.2222 11.328 47.8195 11.072C48.4168 10.8053 49.0995 10.672 49.8675 10.672C51.0195 10.672 51.9528 10.9547 52.6675 11.52C53.3928 12.0747 53.7928 12.8533 53.8675 13.856H51.4035C51.3822 13.472 51.2168 13.1573 50.9075 12.912C50.6088 12.656 50.2088 12.528 49.7075 12.528C49.2702 12.528 48.9182 12.64 48.6515 12.864C48.3955 13.088 48.2675 13.4133 48.2675 13.84C48.2675 14.1387 48.3635 14.3893 48.5555 14.592C48.7582 14.784 49.0035 14.944 49.2915 15.072C49.5902 15.1893 50.0062 15.328 50.5395 15.488C51.2648 15.7013 51.8568 15.9147 52.3155 16.128C52.7742 16.3413 53.1688 16.6613 53.4995 17.088C53.8302 17.5147 53.9955 18.0747 53.9955 18.768C53.9955 19.3653 53.8408 19.92 53.5315 20.432C53.2222 20.944 52.7688 21.3547 52.1715 21.664C51.5742 21.9627 50.8648 22.112 50.0435 22.112ZM65.9695 10.832L61.8735 22H59.1535L55.0575 10.832H57.4575L60.5295 19.712L63.5855 10.832H65.9695Z" fill="#282828"/>
<path fill-rule="evenodd" clip-rule="evenodd" d="M12.944 9.50001C12.944 9.77587 12.7017 10 12.4047 10H10.4707L12.944 7.70704V9.50001ZM23.7305 24V8.00001C23.7305 6.89696 22.7624 6 21.5732 6H13.4833C13.3339 6 13.1989 6.0563 13.1013 6.14709L8.78805 10.1459C8.69013 10.2364 8.62939 10.3615 8.62939 10.5V24C8.62939 25.103 9.59746 26 10.7867 26H21.5732C22.7624 26 23.7305 25.103 23.7305 24L23.7305 24Z" fill="#282828"/>
</svg>
