<svg width="74" height="17" viewBox="0 0 74 17" fill="none" xmlns="http://www.w3.org/2000/svg">
<path d="M49.6682 1.60498H47.4997L43.8747 12.0545L41.5106 4.97163H41.5075H39.3861H39.383L36.9905 12.0545L35.4807 7.72292H33.3877L35.7234 14.3069H38.2576L40.4421 8.0336L42.6076 14.3069H45.1386L49.6682 1.60498Z" fill="#14BAED"/>
<path d="M11.6162 9.22818H11.5878H11.1465H6.22922V10.8264H9.52947C9.36242 11.4119 9.02513 11.8689 8.51765 12.1975C8.01332 12.5261 7.41757 12.6904 6.73356 12.6904C5.7974 12.6904 5.0598 12.4037 4.52079 11.8331C3.98179 11.2595 3.71385 10.5396 3.71385 9.67029C3.71385 9.47911 3.72961 9.29689 3.75483 9.12363C3.8494 8.47239 4.11418 7.92274 4.55547 7.47464C5.11653 6.90707 5.85097 6.62327 6.75879 6.62327C7.35768 6.62327 7.88408 6.74874 8.33798 7.00265C8.79187 7.25658 9.13546 7.60908 9.36872 8.06016H11.5153C11.2253 7.09228 10.6516 6.30961 9.79424 5.71215C8.93688 5.11469 7.92821 4.81299 6.76824 4.81299C5.29936 4.81299 4.08264 5.27004 3.1244 6.18415C2.28595 6.98174 1.8163 7.96158 1.70912 9.12363C1.70281 9.29092 1.69336 9.46417 1.69336 9.64341C1.69336 11.0265 2.15986 12.1736 3.09604 13.0818C4.03222 13.9929 5.19219 14.447 6.5791 14.447C6.60117 14.447 6.62008 14.447 6.64215 14.447C10.6075 14.4768 11.7801 11.4447 11.6162 9.22818Z" fill="#1D2444"/>
<path d="M16.423 10.9373H15.3104V14.292H13.2993V4.97168H17.5295C19.6382 4.97168 20.8896 6.15763 20.8896 8.00676C20.8896 9.5243 20.0606 10.4563 18.683 10.7909L21.4379 14.295H18.9668L16.423 10.9373ZM15.3104 9.27337H17.3056C18.3584 9.27337 18.8501 8.7954 18.8501 8.03364C18.8501 7.25994 18.3459 6.78196 17.3056 6.78196H15.3104V9.27337Z" fill="#1D2444"/>
<path d="M32.3474 9.63153C32.3474 12.3738 30.1126 14.453 27.219 14.453C24.3252 14.453 22.103 12.3768 22.103 9.63153C22.103 6.88621 24.3222 4.81006 27.219 4.81006C30.1126 4.81006 32.3474 6.88921 32.3474 9.63153ZM24.1268 9.63153C24.1268 11.3761 25.4474 12.6427 27.219 12.6427C28.9904 12.6427 30.3111 11.3761 30.3111 9.63153C30.3111 7.88696 28.9872 6.62334 27.219 6.62334C25.4506 6.62334 24.1268 7.88696 24.1268 9.63153Z" fill="#1D2444"/>
<path d="M53.9927 12.0963H50.0148L49.17 14.295H47.0518L50.7335 4.97168H53.2772L56.9588 14.295H54.8218L53.9927 12.0963ZM53.2898 10.2861L51.9974 6.90444L50.705 10.2861H53.2898Z" fill="#1D2444"/>
<path d="M64.6184 4.97168L61.3717 14.295H58.8437L55.6255 4.97168H57.7469L60.1078 12.0426L62.4972 4.97168H64.6184Z" fill="#1D2444"/>
<path d="M67.7109 6.78196V8.66097H71.9284V10.4713H67.7109V12.4817H72.3067V14.292H65.7031V4.97168H72.3067V6.78196H67.7109Z" fill="#1D2444"/>
</svg>
