<svg width="47" height="46" viewBox="0 0 47 46" fill="none" xmlns="http://www.w3.org/2000/svg">
<g opacity="0.01">
<path fill-rule="evenodd" clip-rule="evenodd" d="M0.99998 32.0001V6e-05H33V32.0001H0.99998Z" fill="white"/>
<path fill-rule="evenodd" clip-rule="evenodd" d="M1.49998 31.5001V0.50006H32.5V31.5001H1.49998Z" stroke="#5D5D5D"/>
</g>
<g opacity="0.01">
<path fill-rule="evenodd" clip-rule="evenodd" d="M0.999971 46V-1.4375e-05H47V46H0.999971Z" fill="white"/>
<path fill-rule="evenodd" clip-rule="evenodd" d="M1.71872 45.2812V0.718736H46.2812V45.2812H1.71872Z" stroke="#4B4B4B"/>
</g>
<path fill-rule="evenodd" clip-rule="evenodd" d="M45.9442 21.9612C45.3933 10.0916 35.8944 0.593417 24.0238 0.0425473C23.327 -0.00610509 22.6285 -0.00610509 21.9316 0.0425473C10.0642 0.596556 0.568445 10.0932 0.0175319 21.9612C-0.00915049 21.9612 0.0175319 24.0705 0.0175319 24.0533C0.568445 35.9229 10.0674 45.4226 21.9379 45.9735C21.9379 45.9735 24.0725 46.0159 24.0301 45.9735C35.9022 45.4226 45.4011 35.9244 45.9521 24.0548L45.9442 21.9612Z" fill="#161616"/>
<path fill-rule="evenodd" clip-rule="evenodd" d="M43.8541 24.0535C43.3078 34.7723 34.7412 43.3389 24.0223 43.8853C24.0364 43.8319 22.0004 43.8853 21.9297 43.8853C11.2124 43.3389 2.64421 34.7723 2.09789 24.0535C2.11045 24.077 2.13401 22.0959 2.09789 21.9609C2.64421 11.242 11.2124 2.67538 21.9297 2.12908C22.6267 2.17462 23.3269 2.17462 24.0223 2.12908C34.7412 2.67538 43.3078 11.242 43.8541 21.9609V24.0535Z" fill="white"/>
<path fill-rule="evenodd" clip-rule="evenodd" d="M27.331 22.988L31.3672 18.9489C32.5572 17.758 32.5572 15.7377 31.3672 14.5469C30.1773 13.356 28.1584 13.356 26.9684 14.5469L22.9322 18.586L18.896 14.5469C17.7044 13.356 15.6871 13.356 14.4955 14.5469C13.3056 15.7377 13.3056 17.758 14.4955 18.9489L18.5333 22.988L14.4955 27.0286C13.3056 28.2195 13.3056 30.2398 14.4955 31.4306C15.1172 32.0528 15.8943 32.3622 16.7217 32.3622C17.549 32.3622 18.3261 32.0528 18.9478 31.4306L22.984 27.3915L27.0202 31.4306C27.6419 32.0528 28.4174 32.3622 29.2463 32.3622C30.0219 32.3622 30.8508 32.0528 31.4709 31.4306C32.6609 30.2398 32.6609 28.2195 31.4709 27.0286L27.331 22.988Z" fill="#E7633F"/>
<path fill-rule="evenodd" clip-rule="evenodd" d="M29.1617 11.6191C27.7739 11.6191 26.4803 12.1498 25.5195 13.1105L22.926 15.704L20.3326 13.1105C19.3718 12.1498 18.0782 11.6191 16.6904 11.6191C15.3026 11.6191 14.009 12.1498 13.0467 13.1105C11.0733 15.0855 11.0733 18.4215 13.0467 20.3949L15.6401 22.9883L13.0467 25.5834C11.0733 27.5568 11.0733 30.8928 13.0467 32.8677C14.0326 33.8536 15.3356 34.3968 16.7155 34.3968C18.0955 34.3968 19.3985 33.8536 20.3844 32.8677L22.9779 30.2743L25.5713 32.8677C26.5572 33.8536 27.8602 34.3968 29.2402 34.3968C30.5997 34.3968 31.9357 33.8395 32.9075 32.8677C34.8824 30.8928 34.8824 27.5568 32.9091 25.5834L30.2292 22.9711L32.8054 20.3949C34.7788 18.4215 34.7788 15.0855 32.8054 13.1105C31.8431 12.1498 30.5495 11.6191 29.1617 11.6191H29.1617ZM29.1619 13.66C29.9641 13.66 30.7663 13.9583 31.3613 14.5533C32.5513 15.7433 32.5513 17.7622 31.3613 18.9521L27.3251 22.9884L31.465 27.0261C32.6549 28.2161 32.6549 30.235 31.465 31.425C30.8448 32.0467 30.0159 32.3559 29.2404 32.3559C28.4115 32.3559 27.636 32.0467 27.0143 31.425L22.9781 27.3888L18.9419 31.425C18.3202 32.0467 17.5431 32.3559 16.7157 32.3559C15.8884 32.3559 15.1113 32.0467 14.4896 31.425C13.2996 30.235 13.2996 28.2161 14.4896 27.0261L18.5274 22.9884L14.4896 18.9521C13.2996 17.7622 13.2996 15.7433 14.4896 14.5533C15.0862 13.9583 15.8884 13.66 16.6906 13.66C17.4928 13.66 18.2935 13.9583 18.89 14.5533L22.9262 18.5895L26.9625 14.5533C27.5575 13.9583 28.3597 13.66 29.1619 13.66" fill="#030504"/>
<path fill-rule="evenodd" clip-rule="evenodd" d="M14.8998 31.7941C15.4179 32.1552 16.038 32.3624 16.6597 32.3624C17.4368 32.3624 18.2641 32.0516 18.8858 31.4314L22.922 27.3935L26.9582 31.4314C27.5799 32.0516 28.3554 32.3624 29.1843 32.3624C29.8045 32.3624 30.4261 32.1552 30.9442 31.7941L27.3209 28.1707V26.4626L29.0289 24.7544L27.3209 23.0463L30.9442 19.4245C29.7527 18.5955 28.0446 18.6992 26.9582 19.7856L22.922 23.8235L18.8858 19.7871C17.7979 18.6991 16.1416 18.5955 14.8998 19.4245L18.5232 23.0463L16.8151 24.7544L18.5232 26.4626V28.2225L14.8998 31.7941Z" fill="#EC8265"/>
</svg>
