<svg width="49" height="40" viewBox="0 0 49 40" fill="none" xmlns="http://www.w3.org/2000/svg">
<path fill-rule="evenodd" clip-rule="evenodd" d="M28.157 21.4541C29.3137 21.4541 30.3901 21.4497 31.4665 21.4556C32.263 21.4598 32.87 21.1307 33.1879 20.3759C33.5079 19.6163 33.3099 18.9394 32.7489 18.3654C30.5138 16.0798 28.2812 13.7918 26.0395 11.513C25.1975 10.6568 24.2222 10.664 23.3826 11.5107C22.7433 12.1555 22.1113 12.8079 21.4761 13.457C19.8753 15.0926 18.2708 16.7245 16.6756 18.3658C15.9763 19.0855 15.8942 20.0184 16.447 20.7542C16.8119 21.2397 17.3049 21.4563 17.8997 21.4547C19.0071 21.4519 20.1143 21.454 21.2606 21.454C21.2606 21.7188 21.2605 21.9172 21.2606 22.1158C21.261 24.2637 21.2455 26.4118 21.2671 28.5596C21.2855 30.3768 22.6542 31.8562 24.4134 32.0148C26.169 32.1729 27.7463 30.9542 28.0845 29.1594C28.1452 28.8383 28.1531 28.5032 28.1539 28.1746C28.1597 25.9567 28.157 23.7387 28.157 21.4541L28.157 21.4541ZM25.5289 39.0796C21.9007 39.0796 18.2727 39.0812 14.6446 39.0791C7.5294 39.0753 1.82791 34.2144 0.720916 27.0499C-0.27779 20.5866 3.30378 14.3027 9.30979 11.8827C9.6787 11.734 9.87474 11.5417 10.0013 11.1503C12.2101 4.31238 18.619 -0.126607 25.6083 0.321038C32.6926 0.774748 38.5521 6.00039 39.9291 13.0951C39.9989 13.4545 40.1105 13.8182 40.1025 14.1775C40.09 14.7263 40.3156 14.9512 40.8172 15.1335C45.9439 16.9943 49.224 22.0793 48.8421 27.5186C48.4504 33.0941 44.5929 37.6582 39.2476 38.8094C38.3766 38.9969 37.4671 39.0638 36.5748 39.0708C32.893 39.0988 29.2108 39.0825 25.5289 39.0825V39.0796Z" fill="#282828"/>
</svg>
