<svg width="45" height="45" viewBox="0 0 45 45" fill="none" xmlns="http://www.w3.org/2000/svg">
<path fill-rule="evenodd" clip-rule="evenodd" d="M27.4967 35.382L31.0931 15.837C31.4223 14.594 30.9937 14.162 29.7683 14.495L10.4732 18.164C9.24786 18.497 9.09072 19.091 9.99082 19.999L13.5346 23.582L2.3404 34.921C2.024 35.2444 1.84668 35.6798 1.84668 36.1335C1.84668 36.5871 2.024 37.0226 2.3404 37.346L8.5427 43.633C8.69979 43.7915 8.88648 43.9174 9.09207 44.0032C9.29765 44.0891 9.51807 44.1333 9.74068 44.1333C9.9633 44.1333 10.1837 44.0891 10.3893 44.0032C10.5949 43.9174 10.7816 43.7915 10.9387 43.633L22.1378 32.292L25.6835 35.876C26.5787 36.783 27.1655 36.624 27.4927 35.383L27.4967 35.382Z" fill="#FFCF48"/>
<path d="M29.5766 13.65L10.3153 17.313L10.2506 17.328C9.90453 17.422 8.85224 17.709 8.60459 18.642C8.55605 19.0095 8.60206 19.3834 8.73823 19.7279C8.8744 20.0725 9.09617 20.3762 9.38236 20.61L12.3224 23.583L1.72896 34.31C1.25305 34.7963 0.986328 35.4512 0.986328 36.1335C0.986328 36.8157 1.25305 37.4706 1.72896 37.957L7.93622 44.243C8.17338 44.4826 8.45529 44.6728 8.76576 44.8025C9.07624 44.9323 9.40916 44.9991 9.74539 44.9991C10.0816 44.9991 10.4145 44.9323 10.725 44.8025C11.0355 44.6728 11.3174 44.4826 11.5546 44.243L14.2698 41.494C14.4225 41.3292 14.5054 41.1112 14.501 40.886C14.4967 40.6609 14.4053 40.4463 14.2464 40.2876C14.0874 40.129 13.8733 40.0388 13.6494 40.036C13.4254 40.0333 13.2092 40.1183 13.0464 40.273L10.3332 43.022C10.2563 43.0994 10.165 43.1609 10.0645 43.2028C9.96397 43.2448 9.85621 43.2663 9.74738 43.2663C9.63855 43.2663 9.53078 43.2448 9.43026 43.2028C9.32974 43.1609 9.23843 43.0994 9.16156 43.022L2.95231 36.736C2.79862 36.5744 2.71285 36.3595 2.71285 36.136C2.71285 35.9124 2.79862 35.6975 2.95231 35.536L14.1485 24.193C14.3092 24.0307 14.3994 23.811 14.3994 23.582C14.3994 23.353 14.3092 23.1333 14.1485 22.971L10.6037 19.387C10.5182 19.3023 10.4391 19.2114 10.367 19.115C10.4656 19.0726 10.5669 19.0372 10.6704 19.009L29.9267 15.347C29.9486 15.343 29.9701 15.338 29.9914 15.332C30.102 15.3007 30.2146 15.2773 30.3285 15.262C30.3139 15.3809 30.2907 15.4985 30.2589 15.614C30.2529 15.636 30.248 15.658 30.244 15.679L26.6555 35.19C26.629 35.2921 26.5958 35.3923 26.556 35.49C26.4655 35.4199 26.3801 35.3434 26.3004 35.261L22.7537 31.68C22.6736 31.5992 22.5784 31.535 22.4736 31.4913C22.3688 31.4475 22.2565 31.425 22.143 31.425C22.0295 31.4251 21.9171 31.4477 21.8122 31.4917C21.7074 31.5356 21.6123 31.5999 21.5323 31.681L18.5585 34.693C18.4058 34.8577 18.3229 35.0758 18.3273 35.3009C18.3316 35.526 18.4229 35.7406 18.5819 35.8993C18.7409 36.0579 18.955 36.1482 19.1789 36.1509C19.4029 36.1537 19.6191 36.0687 19.7818 35.914L22.145 33.521L25.0791 36.486C25.3098 36.7744 25.6106 36.9981 25.9524 37.1356C26.2942 37.2731 26.6655 37.3197 27.0305 37.271C27.9584 37.021 28.2399 35.954 28.3324 35.603C28.3383 35.582 28.3423 35.56 28.3463 35.539L31.9368 16.026C32.0647 15.6829 32.103 15.3125 32.0479 14.9503C31.9929 14.588 31.8464 14.2461 31.6225 13.957C31.3365 13.7337 30.9983 13.588 30.6402 13.5339C30.2821 13.4797 29.9162 13.519 29.5776 13.648L29.5766 13.65Z" fill="black"/>
<path d="M34.3827 12.3553C34.4972 12.3562 34.6107 12.3342 34.7166 12.2904C34.8225 12.2466 34.9186 12.182 34.9993 12.1003L40.214 6.8173C40.298 6.73749 40.3651 6.64153 40.4115 6.53512C40.4578 6.42871 40.4824 6.31402 40.4838 6.19786C40.4852 6.0817 40.4634 5.96644 40.4196 5.85893C40.3759 5.75142 40.3111 5.65384 40.2291 5.572C40.1471 5.49016 40.0496 5.42573 39.9423 5.38252C39.8351 5.33931 39.7203 5.31821 39.6047 5.32048C39.4892 5.32274 39.3753 5.34833 39.2698 5.39571C39.1644 5.44309 39.0694 5.5113 38.9907 5.5963L33.771 10.8783C33.6513 10.9998 33.5701 11.1542 33.5375 11.3221C33.5049 11.4899 33.5224 11.6637 33.5877 11.8216C33.6531 11.9794 33.7635 12.1144 33.9049 12.2093C34.0464 12.3043 34.2126 12.3551 34.3827 12.3553Z" fill="black"/>
<path d="M43.8838 15.7622H36.5068C36.2781 15.7622 36.0588 15.8536 35.8971 16.0161C35.7354 16.1787 35.6445 16.3993 35.6445 16.6292C35.6445 16.8591 35.7354 17.0797 35.8971 17.2423C36.0588 17.4049 36.2781 17.4962 36.5068 17.4962H43.8838C44.1125 17.4962 44.3318 17.4049 44.4935 17.2423C44.6552 17.0797 44.7461 16.8591 44.7461 16.6292C44.7461 16.3993 44.6552 16.1787 44.4935 16.0161C44.3318 15.8536 44.1125 15.7622 43.8838 15.7622Z" fill="black"/>
<path d="M29.3042 10.2001C29.4174 10.2001 29.5296 10.1777 29.6342 10.1341C29.7388 10.0906 29.8339 10.0267 29.9139 9.94621C29.994 9.8657 30.0575 9.77012 30.1009 9.66493C30.1442 9.55974 30.1665 9.447 30.1665 9.33314V1.86714C30.1704 1.75088 30.1511 1.635 30.1095 1.52643C30.068 1.41785 30.0051 1.31879 29.9247 1.23514C29.8443 1.15149 29.748 1.08498 29.6414 1.03955C29.5349 0.994115 29.4204 0.970703 29.3047 0.970703C29.189 0.970703 29.0745 0.994115 28.968 1.03955C28.8614 1.08498 28.7651 1.15149 28.6847 1.23514C28.6043 1.31879 28.5414 1.41785 28.4999 1.52643C28.4583 1.635 28.439 1.75088 28.4429 1.86714V9.33514C28.4434 9.56457 28.5344 9.78443 28.6958 9.94656C28.8572 10.1087 29.076 10.1999 29.3042 10.2001Z" fill="black"/>
<path d="M34.9992 21.1594C34.8364 21.0047 34.6202 20.9197 34.3963 20.9224C34.1723 20.9252 33.9582 21.0154 33.7992 21.1741C33.6403 21.3327 33.549 21.5473 33.5446 21.7725C33.5402 21.9976 33.6232 22.2156 33.7758 22.3804L38.9905 27.6634C39.0693 27.7484 39.1642 27.8166 39.2697 27.864C39.3752 27.9113 39.4891 27.9369 39.6046 27.9392C39.7201 27.9415 39.8349 27.9204 39.9421 27.8772C40.0494 27.834 40.1469 27.7695 40.2289 27.6877C40.3109 27.6058 40.3757 27.5083 40.4195 27.4007C40.4632 27.2932 40.4851 27.178 40.4837 27.0618C40.4823 26.9457 40.4576 26.831 40.4113 26.7246C40.3649 26.6181 40.2978 26.5222 40.2138 26.4424L34.9992 21.1594Z" fill="black"/>
<path d="M23.6159 12.1003C23.7786 12.255 23.9949 12.34 24.2188 12.3373C24.4428 12.3345 24.6569 12.2443 24.8158 12.0856C24.9748 11.927 25.0661 11.7124 25.0705 11.4872C25.0748 11.2621 24.9919 11.0441 24.8392 10.8793L19.6246 5.59532C19.5458 5.51033 19.4509 5.44211 19.3454 5.39473C19.2399 5.34735 19.126 5.32177 19.0105 5.3195C18.895 5.31723 18.7802 5.33833 18.6729 5.38154C18.5657 5.42475 18.4682 5.48919 18.3862 5.57103C18.3042 5.65287 18.2394 5.75044 18.1956 5.85795C18.1518 5.96547 18.13 6.08072 18.1314 6.19688C18.1328 6.31304 18.1574 6.42773 18.2038 6.53414C18.2501 6.64055 18.3173 6.73651 18.4012 6.81632L23.6159 12.1003Z" fill="black"/>
<path d="M15.8901 37.3393L15.8782 37.3493C15.7 37.4935 15.5861 37.7031 15.5616 37.9318C15.5371 38.1605 15.6039 38.3896 15.7474 38.5688C15.8909 38.7479 16.0993 38.8624 16.3268 38.8871C16.5543 38.9117 16.7821 38.8445 16.9603 38.7003L16.9723 38.6903C17.0627 38.6196 17.1383 38.5315 17.1945 38.4311C17.2508 38.3307 17.2865 38.22 17.2997 38.1056C17.3129 37.9912 17.3033 37.8752 17.2714 37.7646C17.2396 37.6539 17.1861 37.5507 17.1141 37.4611C17.0421 37.3714 16.9531 37.2971 16.8523 37.2425C16.7514 37.1878 16.6407 37.1539 16.5266 37.1427C16.4126 37.1316 16.2975 37.1434 16.188 37.1775C16.0786 37.2116 15.977 37.2673 15.8892 37.3413L15.8901 37.3393Z" fill="black"/>
</svg>
