<svg xmlns="http://www.w3.org/2000/svg" width="25" height="25" viewBox="0 0 25 25" fill="none">
  <path opacity="0.12" d="M18.5672 5.49851C18.7731 5.99653 19.1684 6.3924 19.6661 6.59907L21.4113 7.32198C21.9093 7.52828 22.305 7.92399 22.5113 8.42206C22.7176 8.92012 22.7176 9.47974 22.5113 9.97781L21.7889 11.7218C21.5825 12.2201 21.5823 12.7803 21.7896 13.2783L22.5107 15.0218C22.613 15.2685 22.6656 15.5329 22.6657 15.7999C22.6657 16.067 22.6131 16.3314 22.5109 16.5781C22.4088 16.8249 22.2589 17.049 22.0701 17.2378C21.8812 17.4266 21.657 17.5764 21.4103 17.6785L19.6664 18.4009C19.1684 18.6068 18.7725 19.0021 18.5658 19.4998L17.843 21.245C17.6367 21.7431 17.241 22.1388 16.7429 22.3451C16.2449 22.5514 15.6853 22.5514 15.1872 22.3451L13.4433 21.6227C12.9452 21.4169 12.3858 21.4173 11.8881 21.6239L10.1429 22.3458C9.64514 22.5516 9.08603 22.5514 8.58838 22.3453C8.09074 22.1391 7.69527 21.7439 7.48883 21.2464L6.76573 19.5006C6.55982 19.0026 6.16456 18.6067 5.66686 18.4L3.92168 17.6771C3.42385 17.4709 3.02827 17.0754 2.8219 16.5777C2.61552 16.0799 2.61524 15.5205 2.82112 15.0225L3.54348 13.2786C3.74927 12.7805 3.74885 12.2211 3.54231 11.7233L2.82099 9.97678C2.71872 9.7301 2.66606 9.46568 2.66602 9.19863C2.66597 8.93159 2.71855 8.66715 2.82074 8.42043C2.92293 8.17372 3.07273 7.94955 3.26158 7.76075C3.45044 7.57195 3.67464 7.42222 3.92138 7.3201L5.66531 6.59772C6.16289 6.39197 6.5585 5.9972 6.76532 5.50006L7.4882 3.75481C7.6945 3.25674 8.09019 2.86103 8.58824 2.65473C9.08628 2.44842 9.64588 2.44842 10.1439 2.65473L11.8879 3.37712C12.3859 3.58291 12.9453 3.58249 13.4431 3.37595L15.189 2.65585C15.687 2.44966 16.2464 2.4497 16.7444 2.65597C17.2423 2.86223 17.638 3.25783 17.8443 3.75576L18.5674 5.50153L18.5672 5.49851Z" fill="black"/>
  <path d="M9.66602 9.5H9.67602M15.666 15.5H15.676M16.666 8.5L8.66602 16.5M18.5672 5.49851C18.7731 5.99653 19.1684 6.3924 19.6661 6.59907L21.4113 7.32198C21.9093 7.52828 22.305 7.92399 22.5113 8.42206C22.7176 8.92012 22.7176 9.47974 22.5113 9.97781L21.7889 11.7218C21.5825 12.2201 21.5823 12.7803 21.7896 13.2783L22.5107 15.0218C22.613 15.2685 22.6656 15.5329 22.6657 15.7999C22.6657 16.067 22.6131 16.3314 22.5109 16.5781C22.4088 16.8249 22.259 17.049 22.0701 17.2378C21.8812 17.4266 21.657 17.5764 21.4103 17.6785L19.6664 18.4009C19.1684 18.6068 18.7725 19.0021 18.5658 19.4998L17.843 21.245C17.6367 21.7431 17.241 22.1388 16.7429 22.3451C16.2449 22.5514 15.6853 22.5514 15.1872 22.3451L13.4433 21.6227C12.9452 21.4169 12.3858 21.4173 11.8881 21.6239L10.1429 22.3458C9.64514 22.5516 9.08603 22.5514 8.58838 22.3453C8.09074 22.1391 7.69527 21.7439 7.48883 21.2464L6.76573 19.5006C6.55982 19.0026 6.16456 18.6067 5.66686 18.4L3.92168 17.6771C3.42385 17.4709 3.02827 17.0754 2.8219 16.5777C2.61552 16.0799 2.61524 15.5205 2.82112 15.0225L3.54348 13.2786C3.74927 12.7805 3.74885 12.2211 3.54231 11.7233L2.82099 9.97678C2.71872 9.7301 2.66606 9.46568 2.66602 9.19863C2.66597 8.93159 2.71855 8.66715 2.82074 8.42043C2.92293 8.17372 3.07273 7.94955 3.26158 7.76075C3.45044 7.57195 3.67464 7.42222 3.92138 7.3201L5.66531 6.59772C6.16289 6.39197 6.5585 5.9972 6.76532 5.50006L7.4882 3.75481C7.69449 3.25674 8.09019 2.86103 8.58824 2.65473C9.08628 2.44842 9.64588 2.44842 10.1439 2.65473L11.8879 3.37712C12.3859 3.58291 12.9453 3.58249 13.4431 3.37595L15.189 2.65585C15.687 2.44966 16.2464 2.4497 16.7444 2.65597C17.2423 2.86223 17.638 3.25783 17.8443 3.75576L18.5674 5.50153L18.5672 5.49851ZM10.166 9.5C10.166 9.77614 9.94216 10 9.66602 10C9.38987 10 9.16602 9.77614 9.16602 9.5C9.16602 9.22386 9.38987 9 9.66602 9C9.94216 9 10.166 9.22386 10.166 9.5ZM16.166 15.5C16.166 15.7761 15.9422 16 15.666 16C15.3899 16 15.166 15.7761 15.166 15.5C15.166 15.2239 15.3899 15 15.666 15C15.9422 15 16.166 15.2239 16.166 15.5Z" stroke="black" stroke-width="2" stroke-linecap="round" stroke-linejoin="round"/>
</svg>
