<svg xmlns="http://www.w3.org/2000/svg" width="25" height="25" viewBox="0 0 25 25" fill="none">
  <path opacity="0.12" d="M19.3 19.5C20.4201 19.5 20.9802 19.5 21.408 19.282C21.7843 19.0903 22.0903 18.7843 22.282 18.408C22.5 17.9802 22.5 17.4201 22.5 16.3V8.7C22.5 7.5799 22.5 7.01984 22.282 6.59202C22.0903 6.2157 21.7843 5.90974 21.408 5.71799C20.9802 5.5 20.4201 5.5 19.3 5.5L5.7 5.5C4.5799 5.5 4.01984 5.5 3.59202 5.71799C3.2157 5.90973 2.90973 6.21569 2.71799 6.59202C2.5 7.01984 2.5 7.57989 2.5 8.7L2.5 16.3C2.5 17.4201 2.5 17.9802 2.71799 18.408C2.90973 18.7843 3.21569 19.0903 3.59202 19.282C4.01984 19.5 4.57989 19.5 5.7 19.5L19.3 19.5Z" fill="black"/>
  <path d="M14.5 9.5H12C11.1716 9.5 10.5 10.1716 10.5 11C10.5 11.8284 11.1716 12.5 12 12.5H13C13.8284 12.5 14.5 13.1716 14.5 14C14.5 14.8284 13.8284 15.5 13 15.5H10.5M12.5 8.5V9.5M12.5 15.5V16.5M18.5 12.5H18.51M6.5 12.5H6.51M2.5 8.7L2.5 16.3C2.5 17.4201 2.5 17.9802 2.71799 18.408C2.90973 18.7843 3.21569 19.0903 3.59202 19.282C4.01984 19.5 4.57989 19.5 5.7 19.5L19.3 19.5C20.4201 19.5 20.9802 19.5 21.408 19.282C21.7843 19.0903 22.0903 18.7843 22.282 18.408C22.5 17.9802 22.5 17.4201 22.5 16.3V8.7C22.5 7.5799 22.5 7.01984 22.282 6.59202C22.0903 6.2157 21.7843 5.90974 21.408 5.71799C20.9802 5.5 20.4201 5.5 19.3 5.5L5.7 5.5C4.5799 5.5 4.01984 5.5 3.59202 5.71799C3.2157 5.90973 2.90973 6.21569 2.71799 6.59202C2.5 7.01984 2.5 7.57989 2.5 8.7ZM19 12.5C19 12.7761 18.7761 13 18.5 13C18.2239 13 18 12.7761 18 12.5C18 12.2239 18.2239 12 18.5 12C18.7761 12 19 12.2239 19 12.5ZM7 12.5C7 12.7761 6.77614 13 6.5 13C6.22386 13 6 12.7761 6 12.5C6 12.2239 6.22386 12 6.5 12C6.77614 12 7 12.2239 7 12.5Z" stroke="black" stroke-width="2" stroke-linecap="round" stroke-linejoin="round"/>
</svg>
