<svg xmlns="http://www.w3.org/2000/svg" width="25" height="25" viewBox="0 0 25 25" fill="none">
  <path opacity="0.12" d="M5.53301 4.5H11.133C12.2531 4.5 12.8132 4.5 13.241 4.71799C13.6173 4.90973 13.9233 5.21569 14.115 5.59202C14.333 6.01984 14.333 6.5799 14.333 7.7V17.5H10.333C10.333 15.8431 8.98986 14.5 7.33301 14.5C5.68255 14.5 4.34339 15.8328 4.33307 17.4808C3.94082 17.4569 3.66255 17.403 3.42503 17.282C3.0487 17.0903 2.74274 16.7843 2.55099 16.408C2.33301 15.9802 2.33301 15.4201 2.33301 14.3V7.7C2.33301 6.5799 2.33301 6.01984 2.55099 5.59202C2.74274 5.21569 3.0487 4.90973 3.42503 4.71799C3.85285 4.5 4.4129 4.5 5.53301 4.5Z" fill="black"/>
  <path d="M14.333 7.5H16.6703C16.9149 7.5 17.0372 7.5 17.1522 7.52763C17.2543 7.55213 17.3518 7.59253 17.4413 7.64736C17.5422 7.7092 17.6287 7.79568 17.8016 7.96863L21.8644 12.0314C22.0373 12.2043 22.1238 12.2908 22.1856 12.3917C22.2405 12.4812 22.2809 12.5787 22.3054 12.6808C22.333 12.7959 22.333 12.9182 22.333 13.1627V16C22.333 16.4659 22.333 16.6989 22.2569 16.8827C22.1554 17.1277 21.9607 17.3224 21.7157 17.4239C21.5319 17.5 21.2989 17.5 20.833 17.5M15.833 17.5H14.333M14.333 17.5V7.7C14.333 6.5799 14.333 6.01984 14.115 5.59202C13.9233 5.21569 13.6173 4.90973 13.241 4.71799C12.8132 4.5 12.2531 4.5 11.133 4.5H5.53301C4.4129 4.5 3.85285 4.5 3.42503 4.71799C3.0487 4.90973 2.74274 5.21569 2.55099 5.59202C2.33301 6.01984 2.33301 6.5799 2.33301 7.7V15.5C2.33301 16.6046 3.22844 17.5 4.33301 17.5M14.333 17.5H10.333M10.333 17.5C10.333 19.1569 8.98986 20.5 7.33301 20.5C5.67615 20.5 4.33301 19.1569 4.33301 17.5M10.333 17.5C10.333 15.8431 8.98986 14.5 7.33301 14.5C5.67615 14.5 4.33301 15.8431 4.33301 17.5M20.833 18C20.833 19.3807 19.7137 20.5 18.333 20.5C16.9523 20.5 15.833 19.3807 15.833 18C15.833 16.6193 16.9523 15.5 18.333 15.5C19.7137 15.5 20.833 16.6193 20.833 18Z" stroke="black" stroke-width="2" stroke-linecap="round" stroke-linejoin="round"/>
</svg>
