<svg width="24" height="24" viewBox="0 0 24 24" fill="none" xmlns="http://www.w3.org/2000/svg">
<path fill-rule="evenodd" clip-rule="evenodd" d="M11.8445 21.6594C8.15273 21.6594 5 21.0849 5 18.7841C5 16.4833 8.13273 14.3594 11.8445 14.3594C15.5364 14.3594 18.6891 16.4627 18.6891 18.7635C18.6891 21.0634 15.5564 21.6594 11.8445 21.6594Z" fill="#FFCF48" stroke="#282828" stroke-width="1.5" stroke-linecap="round" stroke-linejoin="round"/>
<path fill-rule="evenodd" clip-rule="evenodd" d="M11.8375 11.1721C14.2602 11.1721 16.2239 9.20844 16.2239 6.78571C16.2239 4.36298 14.2602 2.39844 11.8375 2.39844C9.41477 2.39844 7.45022 4.36298 7.45022 6.78571C7.44204 9.20026 9.39204 11.1639 11.8066 11.1721C11.8175 11.1721 11.8275 11.1721 11.8375 11.1721Z" fill="#FFCF48" stroke="#282828" stroke-width="1.5" stroke-linecap="round" stroke-linejoin="round"/>
</svg>
