<?xml version="1.0" encoding="utf-8"?>
<svg version="1.1" id="Layer_1" xmlns="http://www.w3.org/2000/svg" xmlns:xlink="http://www.w3.org/1999/xlink" x="0px" y="0px"
	 viewBox="0 0 1079.3 314.8" style="enable-background:new 0 0 1079.3 314.8;" xml:space="preserve">
<style type="text/css">
	.st0{fill:#FFFFFF;}
	.st1{fill:#FFD700;}
	.st2{fill:#FF4700;}
</style>
<g>
	<g>
		<g>
			<g>
				<path d="M60.1,196.2c0-8.6,1.4-18.3,4.3-28.3c0.2-0.8,0.8-1.1,1.4-1.1h13c0.8,0,1.3,0.5,1,1.4c-2.2,8.1-3.5,15.4-3.5,20.5
					c0,18.6,9.9,27.7,30.4,27.7c18.9,0,28.3-9.2,27.8-33.6l-1.7-85.4c0-1,0.5-1.3,1.3-1.3h20c0.8,0,1.3,0.5,1.3,1.3v87.2
					c0,37.9-16.2,55.2-50.6,55.2C74.8,239.8,60.1,222.3,60.1,196.2z"/>
			</g>
			<g>
				<path d="M160.2,246v-20.2c0-0.8,0.5-1.3,1.3-1.3h11.3c19.9,0,33.7-6.4,37.7-17H197c-24,0-35-11.3-35-32
					c0-22,13.5-38.7,32.3-38.7c19.4,0,31.7,16.7,31.7,45c0,1,0,1.9,0,2.7h1.6c2.1,0,3.2,1.1,3.2,3v12.1c0,5.2-2.7,7.8-7,7.8
					c-5.1,24.3-18.8,37.1-42.8,38.5l-19.4,1.1C160.7,247.1,160.2,246.8,160.2,246z M210.2,184.5c-1.8-16.1-9.1-25.8-19.2-25.8
					c-8.9,0-14,6-14,13.4c0,8.1,5.4,12.4,20,12.4H210.2z"/>
			</g>
			<g>
				<path d="M290.2,204.4v-16.7c0-2.1,1.1-3.2,3-3.2h4.8c10.5,0,14.5-4.3,13.4-18.1l-1-11.8c0-1,0.3-1.3,1.1-1.3H330
					c0.8,0,1.3,0.5,1.3,1.3v14.6c0,10.5,3.2,15.3,12.6,15.3c1.9,0,3,1.1,3,3v12.1c0,5.2-2.5,7.8-7.8,7.8c-11,0-18.1-5.4-21.6-17
					c-4.8,12.2-11.9,17-24.2,17C291.3,207.5,290.2,206.3,290.2,204.4z M319.5,243.1l-12.6-12.6c-0.5-0.5-0.5-1.4,0-1.9l11.1-11.5
					c0.5-0.5,1.4-0.5,1.9,0l12.6,12.6c0.5,0.5,0.5,1.4,0,1.9l-11.1,11.5C320.9,243.6,319.9,243.6,319.5,243.1z"/>
			</g>
			<g>
				<path d="M413.9,195.5c-6,8.6-12.1,11.9-22.1,11.9c-1.9,0-3-1.1-3-3v-16.7c0-2.1,1.1-3.2,3-3.2h4.8c7.8,0,9.2-3,15.1-16.2
					l2.4-5.4c8-18.1,17.5-26.1,29.7-26.1c13,0,21,4.9,27.8,21.2l4.5,10.5c5.4,12.7,7.5,16.1,15.3,16.1c1.9,0,3,1.1,3,3v12.1
					c0,5.2-2.5,7.8-7.8,7.8c-11.6,0-18.6-6.2-22.4-19.7c-2.5,14.5-9.7,21.3-21.5,21.3C434.3,209,426.3,205.4,413.9,195.5z
					 M425,174.8c8,7.6,14.8,11.1,21.3,11.1c6.5,0,10.3-4.6,10.3-11.1c0-9.2-6.5-16.4-14.6-16.4c-6.7,0-11,3.3-14.5,10.8l-1.9,4.1
					C425.5,173.9,425.2,174.4,425,174.8z"/>
			</g>
			<g>
				<path d="M536.3,204.4v-16.7c0-2.1,1.1-3.2,3-3.2h4.8c10.5,0,14.5-4.3,13.4-18.1l-1-11.8c0-1,0.3-1.3,1.1-1.3h18.5
					c0.8,0,1.3,0.5,1.3,1.3v14.6c0,10.5,3.2,15.3,12.6,15.3c1.9,0,3,1.1,3,3v12.1c0,5.2-2.5,7.8-7.8,7.8c-11,0-18.1-5.4-21.6-17
					c-4.8,12.2-11.9,17-24.2,17C537.4,207.5,536.3,206.3,536.3,204.4z M554,243.1l-12.6-12.6c-0.5-0.5-0.5-1.4,0-1.9l11.1-11.5
					c0.5-0.5,1.4-0.5,1.9,0l10.3,10.3l10.2-10.3c0.5-0.5,1.4-0.5,1.9,0l12.4,12.6c0.5,0.5,0.6,1.4,0.2,1.9l-11.1,11.5
					c-0.5,0.5-1.4,0.5-1.9,0l-10.3-10.3l-10.2,10.3C555.4,243.6,554.5,243.6,554,243.1z"/>
			</g>
			<g>
				<path d="M650.9,204.4v-16.7c0-2.1,1.1-3.2,3-3.2h30.7c17,0,24.7-4.1,25.9-13.2h-17.8c-21.5,0-32-10-32-28
					c0-22.1,12.9-38.8,31.5-38.8c19.6,0,32.3,16.2,32.3,43.4c0,44.2-10,59.5-39.9,59.5h-30.7C652,207.5,650.9,206.3,650.9,204.4z
					 M680.6,94.8l-12.6-12.6c-0.5-0.5-0.5-1.4,0-1.9l11.1-11.5c0.5-0.5,1.4-0.5,1.9,0l10.3,10.3l10.2-10.3c0.5-0.5,1.4-0.5,1.9,0
					l12.4,12.6c0.5,0.5,0.6,1.4,0.2,1.9L705,94.8c-0.5,0.5-1.4,0.5-1.9,0l-10.3-10.3l-10.2,10.3C682.1,95.3,681.1,95.3,680.6,94.8z
					 M709.1,152.9l-0.2-1.3c-1.9-15.7-9.4-25.1-19.7-25.1c-8.9,0-13.7,6-13.7,13.4c0,8.4,5.2,13,18.6,13H709.1z"/>
			</g>
			<g>
				<polygon points="227.5,184.5 294.5,184.5 294.5,207.5 224.9,207.5 				"/>
			</g>
			<g>
				<polygon points="343.8,184.5 391.8,184.5 391.8,207.5 339,207.5 				"/>
			</g>
			<g>
				<polygon points="491.4,184.5 539.3,184.5 539.3,207.5 486.6,207.5 				"/>
			</g>
			<g>
				<polygon points="656.2,184.5 589.8,184.5 585.2,207.5 653.9,207.5 				"/>
			</g>
		</g>
	</g>
	<g>
		<g>
			<circle class="st1" cx="892" cy="157.8" r="126.7"/>
		</g>
		<g>
			<path class="st2" d="M950.6,111l-60,9.4v-2.9c0-4.1-3.6-7.1-7.6-6.5l-51.5,8.1c-4.3,0.7-6.8,5.2-5,9.2l13.7,31
				c0.7,1.7,0.8,3.5,0.1,5.2l-12.7,30.4c-2,4.8,2,9.9,7.1,9.1l56-8.8v2.9c0,4.1,3.6,7.1,7.6,6.5l54.5-8.5c3.2-0.5,5.6-3.3,5.6-6.5
				v-72C958.2,113.5,954.6,110.4,950.6,111z"/>
		</g>
	</g>
</g>
</svg>
