<svg xmlns="http://www.w3.org/2000/svg" width="18" height="18" viewBox="0 0 18 18"><defs><style>.a{fill:none;}.b{fill:#282828;}</style></defs><g transform="translate(-49 -574)"><rect class="a" width="18" height="18" transform="translate(49 574)"/><path class="b" d="M10.65,20.838a8.638,8.638,0,0,0,3.481-.708,9.222,9.222,0,0,0,4.815-4.815,8.941,8.941,0,0,0,0-6.954,9.226,9.226,0,0,0-4.824-4.819,8.918,8.918,0,0,0-6.944,0A9.226,9.226,0,0,0,2.354,8.361a8.914,8.914,0,0,0,0,6.954A9.252,9.252,0,0,0,7.178,20.13,8.616,8.616,0,0,0,10.65,20.838Zm-.213-4.417a1.055,1.055,0,0,1-.727-.278.894.894,0,0,1-.31-.694.9.9,0,0,1,.306-.69,1.089,1.089,0,0,1,1.458,0,.957.957,0,0,1,0,1.394A1.043,1.043,0,0,1,10.437,16.421Zm.009-2.75q-.806,0-.806-.75V12.81a1.587,1.587,0,0,1,.319-1.032,4.033,4.033,0,0,1,.8-.736,7.98,7.98,0,0,0,.875-.7.967.967,0,0,0,.292-.727.979.979,0,0,0-.343-.778,1.353,1.353,0,0,0-.917-.3,1.333,1.333,0,0,0-.736.2,1.752,1.752,0,0,0-.532.551l-.37.417a.693.693,0,0,1-.537.176.761.761,0,0,1-.5-.176.612.612,0,0,1-.213-.5,1.192,1.192,0,0,1,.093-.463,2.019,2.019,0,0,1,.944-1.1,3.617,3.617,0,0,1,1.926-.463,3.833,3.833,0,0,1,1.458.273,2.555,2.555,0,0,1,1.079.8,2.038,2.038,0,0,1,.407,1.292,1.831,1.831,0,0,1-.417,1.264,5.38,5.38,0,0,1-1.083.9,3.3,3.3,0,0,0-.69.569.981.981,0,0,0-.245.634v.1a.621.621,0,0,1-.227.472A.863.863,0,0,1,10.447,13.671Z" transform="translate(47.35 571.162)"/></g></svg>
