<svg width="47" height="47" viewBox="0 0 47 47" fill="none" xmlns="http://www.w3.org/2000/svg">
<path d="M23.5 47C36.4787 47 47 36.4787 47 23.5C47 10.5213 36.4787 0 23.5 0C10.5213 0 0 10.5213 0 23.5C0 36.4787 10.5213 47 23.5 47Z" fill="#FFD900"/>
<path d="M34.3583 14.8273L23.2203 16.5759V16.0338C23.2203 15.282 22.5558 14.705 21.804 14.8273L12.2396 16.3311C11.4528 16.4535 10.9807 17.2927 11.3129 18.0271L13.8657 23.7797C14.0056 24.0945 14.0056 24.4442 13.8832 24.7414L11.5227 30.3891C11.1555 31.2808 11.8899 32.225 12.8341 32.0677L23.2203 30.4416V30.9836C23.2203 31.7355 23.8847 32.3125 24.6366 32.1901L34.743 30.5989C35.3374 30.5115 35.7746 29.9869 35.7746 29.3925V16.0338C35.7746 15.282 35.1101 14.705 34.3583 14.8273Z" fill="#FC5819"/>
</svg>
