<svg xmlns="http://www.w3.org/2000/svg" width="60" height="36" viewBox="0 0 60 36">
  <g id="icon_def" transform="translate(8570 17177)">
    <g id="XMLID_8_" transform="translate(-8570 -17177)">
      <path id="XMLID_128_" d="M56.672,44H3.328A3.082,3.082,0,0,1,0,41.243V10.757A3.082,3.082,0,0,1,3.328,8H56.672A3.083,3.083,0,0,1,60,10.757V41.243A3.083,3.083,0,0,1,56.672,44" transform="translate(0 -8)" fill="#ccb375"/>
      <path id="XMLID_127_" d="M13.571,36H5.857a.857.857,0,0,0,0,1.714h7.714a.857.857,0,0,0,0-1.714" transform="translate(23.052 -27.429)" fill="#7a693c"/>
      <path id="XMLID_126_" d="M27.429,36.857A.857.857,0,0,0,26.571,36H18.857a.857.857,0,0,0,0,1.714h7.714a.857.857,0,0,0,.857-.857" transform="translate(26.571 -27.429)" fill="#7a693c"/>
      <path id="XMLID_125_" d="M6.714,41H5.857a.857.857,0,0,0,0,1.714h.857a.857.857,0,0,0,0-1.714" transform="translate(23.192 -28.143)" fill="#7a693c"/>
      <path id="XMLID_124_" d="M12.571,41H10.857a.857.857,0,0,0,0,1.714h1.714a.857.857,0,0,0,0-1.714" transform="translate(23.524 -28.143)" fill="#7a693c"/>
      <path id="XMLID_123_" d="M17.714,41h-.857a.857.857,0,0,0,0,1.714h.857a.857.857,0,0,0,0-1.714" transform="translate(23.678 -28.143)" fill="#7a693c"/>
      <path id="XMLID_122_" d="M23.571,41H21.857a.857.857,0,0,0,0,1.714h1.714a.857.857,0,1,0,0-1.714" transform="translate(24.048 -28.143)" fill="#7a693c"/>
      <path id="XMLID_121_" d="M27.249,41.25a.857.857,0,1,0,1.217,0,.9.9,0,0,0-1.217,0" transform="translate(25.286 -28.145)" fill="#7a693c"/>
      <path id="XMLID_118_" d="M18.639,26.286H7.076A1.076,1.076,0,0,1,6,25.21V17.076A1.076,1.076,0,0,1,7.076,16H18.639a1.076,1.076,0,0,1,1.076,1.076V25.21a1.076,1.076,0,0,1-1.076,1.076" transform="translate(-0.857 -9.143)" fill="#f0c41b"/>
      <path id="XMLID_115_" d="M18.5,27H6.933A1.935,1.935,0,0,1,5,25.067V16.933A1.935,1.935,0,0,1,6.933,15H18.5a1.935,1.935,0,0,1,1.933,1.933v8.134A1.935,1.935,0,0,1,18.5,27M6.933,16.714a.218.218,0,0,0-.219.219v8.134a.218.218,0,0,0,.219.219H18.5a.218.218,0,0,0,.219-.219V16.933a.218.218,0,0,0-.219-.219Z" transform="translate(-0.714 -9)" fill="#f3d55c"/>
      <path id="XMLID_114_" d="M18.514,17.076A.974.974,0,0,0,17.7,16H12.818A.973.973,0,0,0,12,17.076V25.21a.973.973,0,0,0,.818,1.076h.971a.974.974,0,0,0,.818-1.076V20.5a.974.974,0,0,1,.817-1.076H17.7a.974.974,0,0,0,.818-1.076Z" transform="translate(0.857 -9.143)" fill="#f0c41b"/>
      <path id="XMLID_111_" d="M13.443,27h-.972A1.752,1.752,0,0,1,11,25.067V16.933A1.752,1.752,0,0,1,12.471,15h4.885a1.752,1.752,0,0,1,1.471,1.933V18.21a1.752,1.752,0,0,1-1.471,1.933H15.08a.2.2,0,0,0-.166.219v4.706A1.752,1.752,0,0,1,13.443,27m-.972-10.286a.2.2,0,0,0-.166.219v8.134a.2.2,0,0,0,.166.219h.972a.2.2,0,0,0,.166-.219V20.361a1.752,1.752,0,0,1,1.471-1.933h2.276a.2.2,0,0,0,.166-.219V16.933a.2.2,0,0,0-.166-.219Z" transform="translate(0.888 -9)" fill="#f3d55c"/>
      <line id="XMLID_110_" x2="5" transform="translate(17 14)" fill="#f0c41b"/>
      <path id="XMLID_109_" d="M18,24.714H15.429c-.237,0-.429-.384-.429-.857s.192-.857.429-.857H18c.237,0,.429.384.429.857s-.192.857-.429.857" transform="translate(0.943 -10.143)" fill="#f3d55c"/>
      <line id="XMLID_108_" x1="5" transform="translate(5 10)" fill="#f0c41b"/>
      <path id="XMLID_107_" d="M11,20.714H5.857a.857.857,0,1,1,0-1.714H11a.857.857,0,1,1,0,1.714" transform="translate(-0.714 -9.571)" fill="#f3d55c"/>
      <line id="XMLID_106_" x1="5" transform="translate(5 14)" fill="#f0c41b"/>
      <path id="XMLID_105_" d="M11,24.714H5.857a.857.857,0,1,1,0-1.714H11a.857.857,0,1,1,0,1.714" transform="translate(-0.714 -10.143)" fill="#f3d55c"/>
    </g>
    <rect id="XMLID_108_2" data-name="XMLID_108_" width="9" height="5" rx="1" transform="translate(-8566 -17153)" fill="#857242"/>
    <rect id="XMLID_107_2" data-name="XMLID_107_" width="9" height="5" rx="1" transform="translate(-8552 -17153)" fill="#857242"/>
    <rect id="XMLID_106_2" data-name="XMLID_106_" width="8" height="5" rx="1" transform="translate(-8536 -17153)" fill="#857242"/>
    <rect id="XMLID_105_2" data-name="XMLID_105_" width="8" height="5" rx="1" transform="translate(-8522 -17153)" fill="#857242"/>
  </g>
</svg>
