<svg width="20" height="20" viewBox="0 0 20 20" fill="none" xmlns="http://www.w3.org/2000/svg">
<path fill-rule="evenodd" clip-rule="evenodd" d="M1.7583 10.2633L6.97293 15.8504C7.10875 15.9959 7.32873 15.9959 7.46451 15.8504C7.60032 15.7049 7.60032 15.4692 7.46451 15.3237L2.84331 10.3724L17.9956 10.3724C18.1878 10.3724 18.3433 10.2058 18.3433 9.9999C18.3433 9.79401 18.1878 9.6274 17.9956 9.6274L2.84331 9.6274L7.46451 4.67615C7.60032 4.53064 7.60032 4.29494 7.46451 4.14945C7.39662 4.0767 7.30764 4.04032 7.21871 4.04032C7.12976 4.04032 7.04082 4.0767 6.9729 4.14945L1.75828 9.73656C1.6225 9.88205 1.6225 10.1177 1.7583 10.2633Z" fill="#282828" stroke="#282828" stroke-width="0.572119"/>
<path fill-rule="evenodd" clip-rule="evenodd" d="M1.7583 10.2633L6.97293 15.8504C7.10875 15.9959 7.32873 15.9959 7.46451 15.8504C7.60032 15.7049 7.60032 15.4692 7.46451 15.3237L2.84331 10.3724L17.9956 10.3724C18.1878 10.3724 18.3433 10.2058 18.3433 9.9999C18.3433 9.79401 18.1878 9.6274 17.9956 9.6274L2.84331 9.6274L7.46451 4.67615C7.60032 4.53064 7.60032 4.29494 7.46451 4.14945C7.39662 4.0767 7.30764 4.04032 7.21871 4.04032C7.12976 4.04032 7.04082 4.0767 6.9729 4.14945L1.75828 9.73656C1.6225 9.88205 1.6225 10.1177 1.7583 10.2633Z" fill="#282828" stroke="#282828" stroke-width="0.572119"/>
</svg>
