<svg width="14" height="14" viewBox="0 0 14 14" fill="none" xmlns="http://www.w3.org/2000/svg">
<path d="M4.31329 5.30053C4.85874 5.30053 5.3009 4.85837 5.3009 4.31293C5.3009 3.76749 4.85874 3.32532 4.31329 3.32532C3.76785 3.32532 3.32568 3.76749 3.32568 4.31293C3.32568 4.85837 3.76785 5.30053 4.31329 5.30053Z" fill="#858585"/>
<path fill-rule="evenodd" clip-rule="evenodd" d="M1.64601 6.51452e-06C0.736935 1.30986e-05 -1.3168e-05 0.736968 1.76468e-10 1.64604L4.60728e-05 6.63086C5.26568e-05 7.15476 0.208155 7.65712 0.578575 8.02754L5.77969 13.2286C6.80818 14.2571 8.47567 14.2571 9.50416 13.2286L13.2287 9.50415C14.2572 8.47565 14.2572 6.80811 13.2287 5.77961L8.02762 0.578529C7.6572 0.208103 7.15477 0 6.63094 0L1.64601 6.51452e-06ZM1.31681 1.64603C1.31681 1.46422 1.4642 1.31683 1.64602 1.31682L6.63094 1.31681C6.80555 1.31681 6.97298 1.38618 7.0965 1.50965L12.2976 6.71073C12.8118 7.22501 12.8118 8.05875 12.2976 8.57297L8.57304 12.2975C8.05883 12.8117 7.22502 12.8117 6.71081 12.2975L1.50971 7.09642C1.38623 6.97297 1.31687 6.80547 1.31686 6.63086L1.31681 1.64603Z" fill="#858585"/>
</svg>
