<svg width="18" height="18" viewBox="0 0 18 18" fill="none" xmlns="http://www.w3.org/2000/svg">
<g opacity="0.6">
<path fill-rule="evenodd" clip-rule="evenodd" d="M13.1165 8.61327C13.1135 11.095 11.0923 13.1158 8.61161 13.1195C6.12787 13.1195 4.10666 11.0988 4.10666 8.61403C4.10666 6.12997 6.12788 4.10848 8.61161 4.10848C11.0961 4.10848 13.1165 6.12997 13.1165 8.61327ZM15.5118 14.2399L13.7008 12.4287C14.5245 11.3316 14.9742 9.98969 14.9742 8.61253C14.9705 5.10798 12.1166 2.25298 8.61173 2.25C5.10388 2.25 2.25 5.10425 2.25 8.61329C2.25 12.1223 5.10388 14.9765 8.61173 14.9765C9.98873 14.9765 11.3305 14.526 12.4282 13.703L14.2384 15.5127C14.4058 15.6666 14.6206 15.75 14.8466 15.75L14.8871 15.7493C15.1274 15.738 15.3489 15.6351 15.5118 15.4571C15.8294 15.111 15.8294 14.5868 15.5118 14.2399L15.5118 14.2399Z" fill="#282828"/>
</g>
</svg>
