<svg width="17" height="18" viewBox="0 0 17 18" fill="none" xmlns="http://www.w3.org/2000/svg">
<path d="M5.23684 6.93607C5.89916 6.93607 6.43608 6.39916 6.43608 5.73684C6.43608 5.07452 5.89916 4.5376 5.23684 4.5376C4.57451 4.5376 4.0376 5.07452 4.0376 5.73684C4.0376 6.39916 4.57451 6.93607 5.23684 6.93607Z" fill="#282828"/>
<path fill-rule="evenodd" clip-rule="evenodd" d="M1.99873 0.500008C0.89485 0.500016 -1.59897e-05 1.39489 2.14283e-10 2.49877L5.59455e-05 8.55176C6.39404e-05 9.18792 0.25276 9.79793 0.702555 10.2477L7.01819 16.5633C8.26708 17.8122 10.2919 17.8122 11.5408 16.5633L16.0634 12.0408C17.3123 10.7919 17.3123 8.76699 16.0634 7.5181L9.74782 1.2025C9.29803 0.752696 8.68793 0.5 8.05186 0.5L1.99873 0.500008ZM1.59899 2.49875C1.59898 2.27798 1.77796 2.099 1.99874 2.099L8.05186 2.09899C8.26388 2.09899 8.46719 2.18322 8.61718 2.33315L14.9328 8.64874C15.5572 9.27323 15.5572 10.2856 14.9328 10.91L10.4101 15.4327C9.78572 16.0571 8.77324 16.0571 8.14884 15.4327L1.83322 9.11708C1.68328 8.96718 1.59905 8.76379 1.59904 8.55176L1.59899 2.49875Z" fill="#282828"/>
</svg>
