<svg width="50" height="50" viewBox="0 0 50 50" fill="none" xmlns="http://www.w3.org/2000/svg">
<path d="M30.2191 49.9998C31.8909 49.9998 33.3488 48.5419 33.3488 46.8701V39.561H35.4385C36.6925 39.561 37.5283 38.7249 37.5283 37.4712V16.5953H12.4714V37.4714C12.4714 38.7252 13.3073 39.5611 14.5611 39.5611H16.651V46.8703C16.651 48.5421 18.1085 50 19.7807 50C21.4523 50 22.9101 48.5421 22.9101 46.8703V39.5611H27.0897V46.8703C27.0895 48.5419 28.5474 49.9998 30.2191 49.9998ZM42.7478 37.4714C44.4196 37.4714 45.8772 36.0137 45.8772 34.3417V19.7236C45.8772 18.0606 44.4197 16.5953 42.7478 16.5953C41.0758 16.5953 39.6181 18.0607 39.6181 19.7236V34.3417C39.6181 36.0135 41.0757 37.4714 42.7478 37.4714ZM7.25194 37.4714C8.92391 37.4714 10.3816 36.0137 10.3816 34.3417V19.7236C10.3816 18.0606 8.9241 16.5953 7.25194 16.5953C5.58017 16.5953 4.12256 18.0607 4.12256 19.7236V34.3417C4.12266 36.0135 5.58017 37.4714 7.25194 37.4714ZM35.0204 0.315306C34.6026 -0.105102 33.9806 -0.105102 33.5629 0.315306L30.76 3.10875L30.6308 3.23785C28.9688 2.40563 27.1055 1.99001 25.0305 1.986C25.0203 1.986 25.0103 1.98571 25.0001 1.98571H24.9998C24.9893 1.98571 24.9796 1.986 24.9692 1.986C22.8943 1.99001 21.031 2.40563 19.3692 3.23785L19.2396 3.10875L16.4368 0.315306C16.0187 -0.105102 15.397 -0.105102 14.9793 0.315306C14.5612 0.733371 14.5612 1.35388 14.9793 1.77165L17.6905 4.48336C16.8168 5.06665 16.0247 5.78042 15.3358 6.59682C13.6866 8.5517 12.6345 11.0959 12.4899 13.8526C12.4885 13.8813 12.4857 13.9096 12.4844 13.9383C12.4757 14.1268 12.4713 14.3154 12.4715 14.5041H37.5283C37.5283 14.3148 37.5238 14.1261 37.5153 13.9383C37.5139 13.9096 37.5111 13.8813 37.5094 13.8526C37.3651 11.0959 36.3129 8.5516 34.6636 6.59702C33.975 5.78062 33.1825 5.06685 32.3089 4.48355L35.0204 1.77184C35.4385 1.35388 35.4385 0.733469 35.0204 0.315306ZM19.7767 10.8554C18.9121 10.8554 18.2112 10.1545 18.2112 9.28988C18.2112 8.42523 18.9121 7.72436 19.7767 7.72436C20.6412 7.72436 21.3422 8.42523 21.3422 9.28988C21.3422 10.1545 20.6412 10.8554 19.7767 10.8554ZM30.2229 10.8554C29.3584 10.8554 28.6574 10.1545 28.6574 9.28988C28.6574 8.42523 29.3583 7.72436 30.2229 7.72436C31.0875 7.72436 31.7885 8.42523 31.7885 9.28988C31.7885 10.1545 31.0876 10.8554 30.2229 10.8554Z" fill="#A6D864"/>
</svg>
