<svg width="50" height="50" viewBox="0 0 50 50" fill="none" xmlns="http://www.w3.org/2000/svg">
<path d="M32.3069 7.59901C34.1883 5.58486 35.4608 2.78849 35.1125 0C32.4021 0.0967284 29.1171 1.59104 27.1715 3.60502C25.4275 5.38798 23.9006 8.23752 24.3081 10.9713C27.3326 11.1759 30.4224 9.6099 32.3069 7.59901ZM38.0792 26.8564C38.0214 20.6049 43.0286 17.6023 43.2504 17.4572C40.4353 13.212 36.0511 12.6311 34.4898 12.5656C30.7566 12.1737 27.2108 14.8264 25.3155 14.8264C23.4279 14.8264 20.5082 12.6171 17.4121 12.6764C13.3418 12.7435 9.59131 15.1136 7.50084 18.8701C3.27258 26.4271 6.41711 37.6217 10.5373 43.7514C12.5515 46.7522 14.9496 50.1185 18.0988 49.9967C21.1387 49.875 22.2847 47.9749 25.9523 47.9749C29.6215 47.9749 30.6488 49.9967 33.8588 49.9359C37.1251 49.875 39.1922 46.8773 41.1892 43.867C43.4999 40.3868 44.4525 37.0175 44.507 36.8473C44.4368 36.8067 38.1462 34.3321 38.0792 26.8564Z" fill="#CCD0D2"/>
</svg>
