<svg width="50" height="45" viewBox="0 0 50 45" fill="none" xmlns="http://www.w3.org/2000/svg">
<path d="M37.4511 0.662172C34.8437 -0.831969 31.123 0.222719 26.9627 3.62086C26.3183 4.1775 25.6443 4.76344 25 5.40797C21.865 8.42555 18.7888 12.498 16.1228 17.0974C10.0879 27.5566 6.77751 40.4472 12.5488 43.7869C13.3105 44.2263 14.1894 44.4607 15.1562 44.4607C17.3828 44.4607 20.1072 43.2304 23.0369 40.8279C23.6816 40.2713 24.3552 39.6853 25 39.0408C28.1345 36.0232 31.2107 31.9511 33.8767 27.3513C39.9121 16.8925 43.2224 4.00192 37.4511 0.662172ZM31.3572 25.8869C29.4239 29.2267 27.256 32.2734 25 34.7931C23.7404 36.2285 22.4509 37.4881 21.1621 38.5429C18.1152 41.0625 15.4492 42.0879 14.0136 41.2677C11.0252 39.5389 12.373 29.4609 18.6427 18.5627C20.5761 15.2225 22.7439 12.1757 25 9.65612C26.2595 8.22057 27.549 6.961 28.8379 5.90621C31.1816 3.97262 33.3203 2.91784 34.8144 2.91784C35.2539 2.91784 35.664 3.00592 35.9863 3.1818C38.9748 4.91032 37.6269 14.9882 31.3572 25.8869Z" fill="#FF9F00"/>
<path d="M33.8771 27.3518C31.2111 31.9512 28.135 36.0234 25 39.0413V34.7932C27.2561 32.2735 29.4238 29.2268 31.3572 25.887C37.6271 14.9883 38.9748 4.91041 35.9863 3.18189C35.6641 3.00611 35.2539 2.91793 34.8145 2.91793C33.3203 2.91793 31.1816 3.97262 28.8379 5.90631C27.549 6.96109 26.2596 8.22076 25 9.65621V5.40816C25.6443 4.76383 26.3184 4.17789 26.9627 3.62105C31.1229 0.222714 34.8438 -0.831974 37.4512 0.662167C43.2225 4.00201 39.9121 16.8926 33.8771 27.3517V27.3518Z" fill="#FF7816"/>
<path d="M33.8771 17.0979C31.2111 12.4981 28.1349 8.42603 25 5.40816C24.3556 4.76383 23.6816 4.17789 23.0373 3.62105C18.877 0.222714 15.1562 -0.831974 12.5488 0.662167C6.77751 4.00201 10.0879 16.8926 16.1228 27.3517C18.7888 31.9511 21.865 36.0233 25 39.0412C25.6443 39.6854 26.3183 40.2713 26.9627 40.8279C29.8924 43.2304 32.6172 44.461 34.8438 44.461C35.8104 44.461 36.6893 44.2264 37.4511 43.787C43.2224 40.4471 39.9121 27.5565 33.8771 17.0978V17.0979ZM35.9863 41.2678C34.5508 42.0879 31.8847 41.0626 28.8379 38.543C27.549 37.4882 26.2595 36.2286 25 34.7931C22.7439 32.2736 20.5761 29.2267 18.6427 25.887C12.3729 14.9883 11.0252 4.91041 14.0136 3.18189C14.3359 3.00611 14.7461 2.91793 15.1855 2.91793C16.6797 2.91793 18.8183 3.97262 21.1621 5.90631C22.4509 6.96109 23.7404 8.22076 25 9.65621C27.256 12.1757 29.4238 15.2226 31.3572 18.5628C37.627 29.461 38.9748 39.539 35.9863 41.2678Z" fill="#FDBF00"/>
<path d="M25 11.9707C12.9295 11.9707 0 15.574 0 22.2246C0 28.8748 12.9295 32.4785 25 32.4785C37.0705 32.4785 50 28.8748 50 22.2246C50 15.574 37.0705 11.9707 25 11.9707ZM25 29.5488C12.4316 29.5488 2.92969 25.6814 2.92969 22.2246C2.92969 18.7674 12.4316 14.9004 25 14.9004C37.5684 14.9004 47.0703 18.7674 47.0703 22.2246C47.0703 25.6814 37.5684 29.5488 25 29.5488Z" fill="#FFD400"/>
<path d="M25 17.8301C22.5682 17.8301 20.6055 19.7928 20.6055 22.2246C20.6055 24.6561 22.5682 26.6191 25 26.6191C27.4318 26.6191 29.3945 24.6561 29.3945 22.2246C29.3945 19.7928 27.4318 17.8301 25 17.8301Z" fill="#FF7816"/>
<path d="M29.3945 22.2246C29.3945 24.6561 27.4318 26.6191 25 26.6191V17.8301C27.4318 17.8301 29.3945 19.7928 29.3945 22.2246Z" fill="#F03800"/>
<path d="M37.4512 43.7872C36.6895 44.2267 35.8105 44.4608 34.8437 44.4608C32.6172 44.4608 29.8928 43.2307 26.9631 40.8281C26.3184 40.2715 25.6447 39.6856 25 39.041V34.793C26.26 36.2287 27.549 37.4883 28.8379 38.5432C31.8848 41.0627 34.5508 42.0881 35.9863 41.2676C38.9748 39.5391 37.627 29.4611 31.3576 18.5625C29.4239 15.2227 27.2561 12.176 25 9.65625V5.4082C28.135 8.42607 31.2111 12.4982 33.8771 17.098C39.9121 27.5568 43.2225 40.4475 37.4512 43.7872Z" fill="#FF9F00"/>
<path d="M50 22.2246C50 28.8748 37.0705 32.4785 25 32.4785V29.5488C37.5684 29.5488 47.0703 25.6814 47.0703 22.2246C47.0703 18.7674 37.5684 14.9004 25 14.9004V11.9707C37.0705 11.9707 50 15.574 50 22.2246Z" fill="#FDBF00"/>
</svg>
