<svg width="43" height="43" viewBox="0 0 43 43" fill="none" xmlns="http://www.w3.org/2000/svg">
<g clip-path="url(#clip0_53_3834)">
<path d="M35.76 0.611816H7.68419C7.53109 0.611816 7.38426 0.672634 7.27601 0.780891C7.16775 0.889148 7.10693 1.03598 7.10693 1.18907V7.957H36.3372V1.18907C36.3372 1.11327 36.3223 1.0382 36.2933 0.96816C36.2643 0.89812 36.2218 0.834478 36.1682 0.780872C36.1146 0.727265 36.0509 0.684744 35.9809 0.655737C35.9109 0.62673 35.8358 0.611806 35.76 0.611816Z" fill="#2881E0"/>
<path d="M11.3541 0.611328V7.95643H7.10645V1.20599C7.10645 1.04827 7.1691 0.897019 7.28062 0.785499C7.39214 0.673979 7.54339 0.611328 7.7011 0.611328H11.3541Z" fill="#1E73C7"/>
<path d="M11.9787 13.603H7.10693L10.7607 7.10742H14.4145L11.9787 13.603ZM21.7221 13.603H16.8504L18.0683 7.10742H21.7221V13.603ZM31.4655 13.603H26.5938L25.3759 7.10742H29.0297L31.4655 13.603ZM41.2089 13.603H36.3372L32.6835 7.10742H36.3372L41.2089 13.603Z" fill="#D8ECFE"/>
<path d="M7.10693 13.603H36.3372V40.435H7.10693V13.603Z" fill="#8AC9FE"/>
<path d="M7.10645 13.6025H10.3543V39.5858H7.10645V13.6025Z" fill="#60B7FF"/>
<path d="M31.4655 15.2524H7.10693V17.7597C7.10693 19.0656 8.16554 20.1242 9.47146 20.1242H9.61421C10.92 20.1242 11.9787 19.0656 11.9787 17.7599C11.9788 19.0657 13.0374 20.1242 14.3433 20.1242H14.486C15.7918 20.1242 16.8505 19.0656 16.8505 17.7599C16.8506 19.0657 17.9092 20.1242 19.2151 20.1242H19.3578C20.6636 20.1242 21.7222 19.0657 21.7223 17.76C21.7224 19.0657 22.781 20.1242 24.0869 20.1242H24.2296C25.5354 20.1242 26.5941 19.0656 26.5941 17.7599C26.5942 19.0657 27.6528 20.1242 28.9587 20.1242H29.1014C30.4072 20.1242 31.4659 19.0656 31.4659 17.7599C31.4659 19.0657 32.5245 20.1242 33.8304 20.1242H33.9731C35.279 20.1242 36.3377 19.0656 36.3377 17.7597V15.2524H31.4655Z" fill="#60B7FF"/>
<path d="M9.61421 18.4747H9.47146C8.16554 18.4747 7.10693 17.4161 7.10693 16.1102V13.603H11.9787V16.1102C11.9787 17.4161 10.92 18.4747 9.61421 18.4747ZM29.101 18.4747H28.9583C27.6524 18.4747 26.5937 17.4161 26.5937 16.1102V13.603H31.4654V16.1102C31.4655 17.4161 30.4069 18.4747 29.101 18.4747ZM19.3576 18.4747H19.2148C17.909 18.4747 16.8503 17.4161 16.8503 16.1102V13.603H21.7221V16.1102C21.7221 17.4161 20.6635 18.4747 19.3576 18.4747Z" fill="#EAF6FF"/>
<path d="M7.10707 13.603H2.23535L7.10707 7.10742H10.7609L7.10707 13.603ZM16.8505 13.603H11.9788L14.4146 7.10742H18.0684L16.8505 13.603ZM26.5939 13.603H21.7222V7.10742H25.376L26.5939 13.603ZM36.3374 13.603H31.4657L29.0298 7.10742H32.6836L36.3374 13.603Z" fill="#EB5569"/>
<path d="M4.74263 18.4747H4.59988C3.29404 18.4747 2.23535 17.4161 2.23535 16.1102V13.603H7.10707V16.1102C7.10707 17.4161 6.04846 18.4747 4.74263 18.4747ZM14.4861 18.4747H14.3433C13.0375 18.4747 11.9788 17.4161 11.9788 16.1102V13.603H16.8505V16.1102C16.8505 17.4161 15.7919 18.4747 14.4861 18.4747ZM24.2294 18.4747H24.0867C22.7808 18.4747 21.7222 17.4161 21.7222 16.1102V13.603H26.5939V16.1102C26.5939 17.4161 25.5353 18.4747 24.2294 18.4747ZM33.9729 18.4747H33.8301C32.5243 18.4747 31.4656 17.4161 31.4656 16.1102V13.603H36.3373V16.1102C36.3374 17.4161 35.2788 18.4747 33.9729 18.4747Z" fill="#F07281"/>
<path d="M38.8447 18.4747H38.7019C37.3961 18.4747 36.3374 17.4161 36.3374 16.1102V13.603H41.2091V16.1102C41.2092 17.4161 40.1505 18.4747 38.8447 18.4747ZM20.0984 40.4351H10.355V22.4502C10.355 22.2971 10.4158 22.1503 10.5241 22.0421C10.6323 21.9338 10.7791 21.873 10.9322 21.873H19.5212C19.6743 21.873 19.8211 21.9338 19.9293 22.0421C20.0376 22.1503 20.0984 22.2971 20.0984 22.4502V40.4351Z" fill="#EAF6FF"/>
<path d="M12.9031 21.8726V39.5855H10.3545V22.4673C10.3545 22.3096 10.4171 22.1583 10.5287 22.0468C10.6402 21.9353 10.7914 21.8726 10.9491 21.8726H12.9031V21.8726Z" fill="#D8ECFE"/>
<path d="M33.0896 29.9545L32.5115 30.804H23.9948L23.3462 29.9545V22.4672C23.3462 22.3891 23.3616 22.3118 23.3915 22.2397C23.4213 22.1675 23.4651 22.1019 23.5204 22.0467C23.5756 21.9915 23.6411 21.9477 23.7133 21.9178C23.7854 21.8879 23.8628 21.8726 23.9409 21.8726H32.4949C32.6526 21.8726 32.8039 21.9352 32.9154 22.0467C33.0269 22.1583 33.0895 22.3095 33.0895 22.4672V29.9545H33.0896Z" fill="#EAF6FF"/>
<path d="M25.8948 21.8726V29.9542H23.3462V22.4672C23.3462 22.3891 23.3616 22.3118 23.3915 22.2397C23.4213 22.1675 23.4651 22.1019 23.5204 22.0467C23.5756 21.9915 23.6411 21.9477 23.7133 21.9178C23.7854 21.8879 23.8628 21.8726 23.9408 21.8726H25.8948Z" fill="#D8ECFE"/>
<path d="M13.6029 35.3507C13.5193 35.3507 13.4364 35.3342 13.3591 35.3022C13.2818 35.2702 13.2116 35.2233 13.1524 35.1641C13.0932 35.105 13.0463 35.0347 13.0143 34.9574C12.9823 34.8801 12.9658 34.7973 12.9658 34.7136V31.4658C12.9658 31.2968 13.0329 31.1347 13.1524 31.0153C13.2719 30.8958 13.434 30.8286 13.6029 30.8286C13.7719 30.8286 13.934 30.8958 14.0535 31.0153C14.1729 31.1347 14.2401 31.2968 14.2401 31.4658V34.7136C14.2401 34.7973 14.2236 34.8801 14.1916 34.9574C14.1596 35.0347 14.1127 35.105 14.0535 35.1641C13.9943 35.2233 13.9241 35.2702 13.8468 35.3022C13.7695 35.3342 13.6866 35.3507 13.6029 35.3507ZM23.3464 29.9546H33.0898V32.5123C33.0898 32.6654 33.029 32.8123 32.9207 32.9205C32.8125 33.0288 32.6657 33.0896 32.5126 33.0896H23.9236C23.7705 33.0896 23.6237 33.0288 23.5155 32.9205C23.4072 32.8123 23.3464 32.6654 23.3464 32.5123V29.9546Z" fill="#2881E0"/>
<path d="M25.8948 29.9546V33.0902H23.9408C23.7831 33.0902 23.6319 33.0276 23.5204 32.9161C23.4088 32.8046 23.3462 32.6533 23.3462 32.4956V29.9546H25.8948Z" fill="#1E73C7"/>
<path d="M39.5848 42.8333H3.85889V40.1627C3.85889 40.0096 3.9197 39.8628 4.02796 39.7545C4.13622 39.6463 4.28305 39.5854 4.43614 39.5854H39.0075C39.1606 39.5854 39.3074 39.6463 39.4157 39.7545C39.5239 39.8628 39.5847 40.0096 39.5847 40.1627V42.8333H39.5848Z" fill="#2881E0"/>
<path d="M8.10659 39.5859V42.8337H3.85889V40.1807C3.85889 40.023 3.92154 39.8717 4.03306 39.7602C4.14458 39.6487 4.29583 39.586 4.45354 39.586H8.10659V39.5859Z" fill="#1E73C7"/>
</g>
<defs>
<clipPath id="clip0_53_3834">
<rect width="42.2222" height="42.2222" fill="white" transform="translate(0.611328 0.611328)"/>
</clipPath>
</defs>
</svg>
