<svg width="52" height="40" viewBox="0 0 52 40" fill="none" xmlns="http://www.w3.org/2000/svg">
<path d="M0.520711 8.00293L0 8.94086V36.0563C0 37.8456 1.45052 39.2962 3.23984 39.2962H48.7602C50.5495 39.2962 52 37.8456 52 36.0563V8.94086L51.4793 8.00293H0.520711Z" fill="#E0DCFE"/>
<path d="M46.6949 8.00293V30.7512C46.6949 32.5405 45.2444 33.991 43.455 33.991H0V36.0563C0 37.8456 1.45052 39.2962 3.23984 39.2962H48.7602C50.5495 39.2962 52 37.8456 52 36.0563V8.94086L51.4793 8.00293H46.6949Z" fill="#CBC5FF"/>
<path d="M48.7602 0H3.23984C1.45052 0 0 1.45052 0 3.23984V8.94116H52V3.23984C52 1.45052 50.5495 0 48.7602 0Z" fill="#7563EB"/>
<path opacity="0.2" d="M48.7596 0H46.6943V8.94116H51.9995V3.23984C51.9995 1.45052 50.5489 0 48.7596 0Z" fill="#282828"/>
<path d="M5.8686 5.92421C6.67138 5.92421 7.32216 5.27343 7.32216 4.47065C7.32216 3.66787 6.67138 3.01709 5.8686 3.01709C5.06582 3.01709 4.41504 3.66787 4.41504 4.47065C4.41504 5.27343 5.06582 5.92421 5.8686 5.92421Z" fill="#DD636E"/>
<path d="M10.3398 5.92421C11.1426 5.92421 11.7934 5.27343 11.7934 4.47065C11.7934 3.66787 11.1426 3.01709 10.3398 3.01709C9.53701 3.01709 8.88623 3.66787 8.88623 4.47065C8.88623 5.27343 9.53701 5.92421 10.3398 5.92421Z" fill="#FFE07D"/>
<path d="M14.8115 5.92421C15.6143 5.92421 16.265 5.27343 16.265 4.47065C16.265 3.66787 15.6143 3.01709 14.8115 3.01709C14.0087 3.01709 13.3579 3.66787 13.3579 4.47065C13.3579 5.27343 14.0087 5.92421 14.8115 5.92421Z" fill="#86F1A7"/>
<path d="M8.82067 27.0023H8.82514C8.98708 27.0023 9.14506 26.9522 9.2774 26.8589C9.40974 26.7655 9.50996 26.6336 9.56431 26.481L11.5081 21.0265L13.3654 26.4709C13.4181 26.6254 13.5177 26.7596 13.6502 26.8548C13.7827 26.95 13.9417 27.0015 14.1049 27.0022H14.1081C14.2708 27.0022 14.4294 26.9517 14.5621 26.8576C14.6947 26.7635 14.7949 26.6305 14.8487 26.477L17.4836 18.96C17.5494 18.7644 17.5354 18.5507 17.4448 18.3653C17.3541 18.1799 17.1941 18.0377 16.9993 17.9694C16.8045 17.9012 16.5907 17.9124 16.4042 18.0006C16.2176 18.0889 16.0733 18.247 16.0026 18.4409L14.1183 23.8166L12.2672 18.39C12.0574 17.7004 11.0042 17.694 10.7853 18.38L8.83875 23.8421L6.98726 18.4542C6.95381 18.3567 6.90148 18.2668 6.83325 18.1895C6.76502 18.1123 6.68224 18.0493 6.58964 18.004C6.49703 17.9588 6.39642 17.9322 6.29355 17.9259C6.19068 17.9196 6.08758 17.9336 5.99012 17.9671C5.79331 18.0348 5.63143 18.1778 5.54008 18.3648C5.44874 18.5518 5.43541 18.7674 5.50303 18.9643L8.08312 26.4726C8.13596 26.6264 8.23533 26.7601 8.36747 26.855C8.49961 26.9499 8.65798 27.0014 8.82067 27.0023ZM23.3396 27.0023H23.3441C23.5061 27.0023 23.664 26.9522 23.7964 26.8589C23.9287 26.7655 24.0289 26.6336 24.0833 26.481L26.0271 21.0265L27.8844 26.4709C27.9371 26.6254 28.0366 26.7596 28.1692 26.8548C28.3017 26.95 28.4606 27.0015 28.6238 27.0022H28.6271C28.7897 27.0022 28.9484 26.9517 29.081 26.8576C29.2137 26.7635 29.3139 26.6305 29.3677 26.477L32.0026 18.96C32.0683 18.7644 32.0544 18.5507 31.9637 18.3653C31.8731 18.1799 31.713 18.0377 31.5183 17.9694C31.3235 17.9012 31.1097 17.9124 30.9231 18.0006C30.7366 18.0889 30.5923 18.247 30.5215 18.4409L28.6372 23.8166L26.7862 18.39C26.5761 17.7003 25.5231 17.6941 25.3043 18.38L23.3577 23.8421L21.5062 18.4542C21.3655 18.0443 20.9188 17.8259 20.5091 17.9671C20.3123 18.0348 20.1504 18.1778 20.0591 18.3648C19.9677 18.5518 19.9544 18.7674 20.022 18.9643L22.6021 26.4726C22.6549 26.6264 22.7543 26.7601 22.8864 26.855C23.0186 26.9499 23.1769 27.0014 23.3396 27.0023ZM37.6231 27.0023H37.6274C37.7894 27.0023 37.9474 26.9522 38.0797 26.8589C38.2121 26.7655 38.3123 26.6336 38.3666 26.481L40.3104 21.0265L42.1677 26.4709C42.2204 26.6254 42.32 26.7596 42.4525 26.8548C42.585 26.95 42.744 27.0015 42.9072 27.0022H42.9104C43.0731 27.0022 43.2317 26.9517 43.3644 26.8576C43.4971 26.7635 43.5972 26.6305 43.651 26.477L46.2859 18.96C46.3516 18.7644 46.3376 18.5507 46.247 18.3653C46.1563 18.1799 45.9963 18.0377 45.8015 17.9694C45.6068 17.9012 45.3929 17.9124 45.2064 18.0006C45.0198 18.0889 44.8755 18.247 44.8048 18.4409L42.9206 23.8166L41.0695 18.39C40.8597 17.7004 39.8064 17.694 39.5876 18.38L37.6411 23.8421L35.7895 18.4542C35.756 18.3567 35.7037 18.2668 35.6355 18.1895C35.5672 18.1123 35.4844 18.0493 35.3918 18.004C35.2992 17.9588 35.1986 17.9322 35.0958 17.9259C34.9929 17.9196 34.8898 17.9336 34.7923 17.9671C34.5955 18.0348 34.4336 18.1778 34.3423 18.3648C34.2509 18.5518 34.2376 18.7674 34.3052 18.9643L36.8854 26.4726C36.9383 26.6264 37.0377 26.7601 37.1698 26.855C37.302 26.9499 37.4604 27.0014 37.6231 27.0023Z" fill="#7563EB"/>
</svg>
