<svg width="24" height="24" viewBox="0 0 24 24" fill="none" xmlns="http://www.w3.org/2000/svg">
<g clip-path="url(#clip0_7181_799)">
<path d="M12 23.7188C18.4721 23.7188 23.7188 18.4721 23.7188 12C23.7188 5.52791 18.4721 0.28125 12 0.28125C5.52791 0.28125 0.28125 5.52791 0.28125 12C0.28125 18.4721 5.52791 23.7188 12 23.7188Z" fill="#5C6BC0"/>
<path d="M18.9638 7.37722C16.8864 5.8866 14.9507 5.82463 14.581 5.81689L14.3449 6.04091C16.9966 6.78243 18.2792 7.94108 18.2792 7.94108C16.0031 6.84182 13.8582 6.45524 12 6.43199C10.1418 6.45543 7.99684 6.84182 5.72078 7.94108C5.72078 7.94108 7.00337 6.78243 9.65514 6.04091L9.41903 5.81689C9.04923 5.82463 7.11353 5.88641 5.03622 7.37722C5.03622 7.37722 2.71497 11.2703 2.71497 16.0516C2.79362 15.959 4.15492 18.1063 7.66436 18.1836C7.66436 18.1836 8.25451 17.527 8.67939 16.9476C6.63353 16.3683 5.86243 15.2097 5.86243 15.2097C7.98934 16.5249 9.97595 17.0309 12 16.9651C14.024 17.0308 16.0106 16.5249 18.1375 15.2097C18.1375 15.2097 17.3664 16.3683 15.3203 16.9476C15.7452 17.527 16.3354 18.1836 16.3354 18.1836C19.8448 18.1063 21.2061 15.959 21.2847 16.0516C21.285 11.2703 18.9638 7.37722 18.9638 7.37722ZM9.14345 14.5531C8.2464 14.5531 7.52251 13.8116 7.52251 12.9001C7.52251 11.9886 8.2464 11.2471 9.14345 11.2471V11.2548C10.0326 11.2548 10.7644 11.9964 10.7644 12.9078C10.7646 13.8116 10.0406 14.5531 9.14364 14.5531H9.14345ZM14.8561 14.5531C13.9591 14.5531 13.2352 13.8116 13.2352 12.9078C13.2352 11.9964 13.9669 11.2548 14.8561 11.2548V11.2471C15.7532 11.2471 16.477 11.9886 16.477 12.9001C16.477 13.8115 15.7533 14.5531 14.8563 14.5531H14.8561Z" fill="white"/>
</g>
<defs>
<clipPath id="clip0_7181_799">
<rect width="24" height="24" fill="white"/>
</clipPath>
</defs>
</svg>
