<svg width="24" height="24" viewBox="0 0 24 24" fill="none" xmlns="http://www.w3.org/2000/svg">
<g clip-path="url(#clip0_7181_804)">
<path d="M12 0.75C9.77497 0.75 7.59989 1.4098 5.74984 2.64597C3.89979 3.88213 2.45785 5.63914 1.60636 7.69481C0.754875 9.75048 0.532087 12.0125 0.966171 14.1948C1.40025 16.3771 2.47171 18.3816 4.04505 19.955C5.61839 21.5283 7.62295 22.5998 9.80524 23.0338C11.9875 23.4679 14.2495 23.2451 16.3052 22.3936C18.3609 21.5422 20.1179 20.1002 21.354 18.2502C22.5902 16.4001 23.25 14.225 23.25 12C23.2463 9.01744 22.0599 6.15809 19.9509 4.0491C17.8419 1.94012 14.9826 0.753672 12 0.75ZM15.675 18.9975C14.8369 18.9909 14.0241 18.7103 13.3605 18.1984C12.6969 17.6865 12.2191 16.9714 12 16.1625C11.8038 16.8888 11.3972 17.541 10.8315 18.0369C10.2657 18.5329 9.56591 18.8505 8.82012 18.9499C8.07433 19.0493 7.3158 18.926 6.63988 18.5955C5.96397 18.265 5.40083 17.7421 5.02126 17.0925C3.31876 14.1825 6.0675 10.6125 9.31501 11.5125C8.78432 10.9791 8.42308 10.3008 8.27667 9.56281C8.13025 8.82478 8.20519 8.05995 8.49207 7.36438C8.77895 6.66882 9.26498 6.07353 9.8891 5.65331C10.5132 5.23309 11.2476 5.00668 12 5.0025C15.39 4.995 17.0775 9.165 14.685 11.5125C15.209 11.3704 15.7574 11.342 16.2933 11.4292C16.8292 11.5163 17.3402 11.717 17.7922 12.0179C18.2442 12.3187 18.6266 12.7127 18.9139 13.1734C19.2012 13.6341 19.3866 14.1509 19.4578 14.6892C19.529 15.2275 19.4843 15.7747 19.3267 16.2943C19.1691 16.8138 18.9022 17.2937 18.544 17.7017C18.1858 18.1097 17.7444 18.4364 17.2496 18.6599C16.7548 18.8833 16.2179 18.9985 15.675 18.9975Z" fill="black"/>
<path d="M17.0137 13.9876C17.07 13.6534 17.0226 13.3099 16.8778 13.0035C16.733 12.6971 16.4977 12.4424 16.2037 12.2738L15.8137 12.0488C15.5722 11.9105 15.2859 11.8731 15.0169 11.9447C14.748 12.0164 14.5182 12.1912 14.3774 12.4313L12.6449 15.4388C12.5064 15.6797 12.4689 15.9656 12.5406 16.234C12.6123 16.5024 12.7873 16.7316 13.0274 16.8713L13.4174 17.0963C13.7113 17.2661 14.05 17.3424 14.3883 17.3149C14.7266 17.2875 15.0486 17.1576 15.3112 16.9426C15.4971 17.178 15.7377 17.3642 16.0122 17.4851C16.2867 17.606 16.5866 17.6578 16.8858 17.636C17.1849 17.6142 17.4741 17.5194 17.7282 17.36C17.9822 17.2005 18.1933 16.9813 18.3431 16.7214C18.4928 16.4615 18.5766 16.1689 18.5871 15.8692C18.5976 15.5694 18.5345 15.2717 18.4033 15.002C18.2722 14.7322 18.0769 14.4987 17.8347 14.3219C17.5924 14.1451 17.3106 14.0303 17.0137 13.9876ZM14.9549 16.1888C14.9751 16.285 15.0039 16.3791 15.0412 16.4701L15.0037 16.5001C14.8263 16.6594 14.6029 16.7584 14.3657 16.7826C14.1285 16.8069 13.8897 16.7552 13.6837 16.6351L13.2937 16.4101C13.1758 16.341 13.09 16.2282 13.0549 16.0961C13.0198 15.9641 13.0382 15.8236 13.1062 15.7051L14.8424 12.6976C14.912 12.5802 15.0248 12.4948 15.1566 12.4598C15.2885 12.4247 15.4288 12.4428 15.5474 12.5101L15.9337 12.7351C16.1474 12.8586 16.3151 13.0484 16.4111 13.2758C16.5072 13.5032 16.5266 13.7557 16.4662 13.9951C16.2205 14.0348 15.9853 14.1239 15.775 14.2569C15.5646 14.39 15.3834 14.5643 15.2421 14.7692C15.1009 14.9742 15.0027 15.2057 14.9533 15.4496C14.904 15.6936 14.9045 15.9451 14.9549 16.1888ZM15.7949 16.6876C15.5874 16.4584 15.4682 16.1629 15.4587 15.8538C15.4492 15.5448 15.5501 15.2425 15.7432 15.0011C15.9364 14.7596 16.2092 14.5949 16.5127 14.5363C16.8163 14.4777 17.1308 14.5291 17.3999 14.6813C19.0612 15.7726 17.2199 18.0713 15.7949 16.6876ZM9.62245 12.4313C9.52949 12.272 9.3965 12.1397 9.23666 12.0476C9.07681 11.9555 8.89567 11.9068 8.7112 11.9063C8.37902 11.9456 8.06324 12.0724 7.7962 12.2738C7.50178 12.4429 7.26629 12.6983 7.12146 13.0054C6.97663 13.3124 6.92942 13.6566 6.9862 13.9913C6.68937 14.0339 6.40751 14.1487 6.16528 14.3254C5.92306 14.5022 5.72786 14.7357 5.59675 15.0054C5.46565 15.2751 5.40265 15.5728 5.41326 15.8725C5.42387 16.1722 5.50776 16.4647 5.65761 16.7244C5.80745 16.9842 6.01868 17.2032 6.27279 17.3625C6.52691 17.5217 6.81618 17.6162 7.11528 17.6377C7.41438 17.6592 7.7142 17.6071 7.98849 17.4859C8.26279 17.3647 8.5032 17.1782 8.6887 16.9426C8.95134 17.1576 9.27326 17.2875 9.61158 17.3149C9.9499 17.3424 10.2886 17.2661 10.5824 17.0963C10.9387 16.9051 11.3737 16.6726 11.4637 16.2338C11.5337 15.9648 11.4946 15.6791 11.3549 15.4388L9.62245 12.4313ZM6.9112 17.0626C6.74407 17.0172 6.58769 16.939 6.45126 16.8323C6.31482 16.7257 6.20109 16.5928 6.11674 16.4416C6.03239 16.2904 5.97913 16.1238 5.96009 15.9517C5.94105 15.7796 5.95661 15.6054 6.00586 15.4394C6.05512 15.2734 6.13707 15.1189 6.24689 14.985C6.35672 14.8511 6.4922 14.7405 6.64538 14.6598C6.79856 14.579 6.96634 14.5297 7.13886 14.5147C7.31137 14.4997 7.48514 14.5194 7.64995 14.5726C7.97278 14.6767 8.24208 14.903 8.40029 15.203C8.55849 15.5031 8.59304 15.8531 8.49656 16.1783C8.40007 16.5035 8.18021 16.7781 7.88396 16.9433C7.58771 17.1086 7.23858 17.1514 6.9112 17.0626ZM10.7062 16.4101L10.3124 16.6351C10.1071 16.7551 9.8689 16.8067 9.63229 16.7824C9.39568 16.7581 9.17291 16.6593 8.9962 16.5001L8.9587 16.4701C9.05929 16.2145 9.10095 15.9395 9.08057 15.6656C9.06019 15.3918 8.9783 15.126 8.84099 14.8881C8.70368 14.6503 8.51449 14.4464 8.2875 14.2918C8.06051 14.1372 7.80157 14.0358 7.52995 13.9951L7.52245 13.9463C7.4736 13.7133 7.4995 13.4708 7.59645 13.2533C7.6934 13.0358 7.85647 12.8545 8.06245 12.7351L8.45245 12.5101C8.57113 12.4429 8.71142 12.4249 8.84321 12.4599C8.97501 12.495 9.08782 12.5803 9.15745 12.6976L10.8937 15.7051C10.9608 15.8238 10.9787 15.964 10.9437 16.0958C10.9086 16.2276 10.8234 16.3404 10.7062 16.4101ZM10.2637 11.3176H13.7362C14.0146 11.3174 14.2816 11.2067 14.4784 11.0098C14.6753 10.8129 14.786 10.546 14.7862 10.2676V9.81756C14.7859 9.47766 14.682 9.14594 14.4883 8.86657C14.2947 8.58721 14.0206 8.37346 13.7024 8.25381C13.8022 8.00276 13.8453 7.73277 13.8287 7.46313C13.8121 7.19349 13.7361 6.93084 13.6062 6.69395C13.4764 6.45707 13.2958 6.25178 13.0774 6.09276C12.859 5.93374 12.6082 5.82491 12.3428 5.77404C12.0775 5.72316 11.8042 5.73151 11.5425 5.79847C11.2808 5.86543 11.0371 5.98937 10.8288 6.16141C10.6205 6.33346 10.4528 6.54938 10.3376 6.79375C10.2224 7.03812 10.1626 7.30491 10.1624 7.57506C10.1634 7.80789 10.2092 8.03834 10.2974 8.25381C9.9793 8.37346 9.70517 8.58721 9.51156 8.86657C9.31794 9.14594 9.21404 9.47766 9.2137 9.81756V10.2676C9.2139 10.546 9.32458 10.8129 9.52145 11.0098C9.71833 11.2067 9.98528 11.3174 10.2637 11.3176ZM11.9999 6.27381C12.211 6.27379 12.419 6.32511 12.6058 6.42336C12.7926 6.52161 12.9527 6.66384 13.0723 6.83777C13.1919 7.01171 13.2674 7.21213 13.2923 7.42174C13.3172 7.63136 13.2907 7.84388 13.2151 8.04097C13.1395 8.23807 13.0171 8.41381 12.8585 8.55306C12.6998 8.6923 12.5097 8.79085 12.3045 8.84022C12.0992 8.88959 11.8851 8.88829 11.6804 8.83644C11.4758 8.78458 11.2869 8.68372 11.1299 8.54256C10.9385 8.36473 10.8046 8.13369 10.7456 7.87916C10.6865 7.62463 10.7049 7.35825 10.7985 7.11428C10.8921 6.87031 11.0565 6.6599 11.2706 6.51013C11.4847 6.36035 11.7387 6.27805 11.9999 6.27381ZM9.74995 9.81756C9.74969 9.57932 9.82456 9.34706 9.96393 9.15384C10.1033 8.96061 10.3 8.81626 10.5262 8.74131L10.5749 8.72631C10.7457 8.94042 10.9624 9.1133 11.2091 9.23212C11.4558 9.35094 11.7261 9.41264 11.9999 9.41264C12.2738 9.41264 12.5441 9.35094 12.7908 9.23212C13.0375 9.1133 13.2542 8.94042 13.4249 8.72631L13.4737 8.74131C13.6998 8.81626 13.8966 8.96061 14.036 9.15384C14.1753 9.34706 14.2502 9.57932 14.2499 9.81756V10.2676C14.25 10.4042 14.1959 10.5352 14.0997 10.6322C14.0035 10.7291 13.8728 10.7841 13.7362 10.7851H10.2637C10.1271 10.7841 9.99643 10.7291 9.90019 10.6322C9.80395 10.5352 9.74994 10.4042 9.74995 10.2676V9.81756ZM11.9999 12.6226C11.6656 12.6231 11.3326 12.579 11.0099 12.4913C11.4841 12.9662 11.8255 13.5571 11.9999 14.2051C12.1744 13.5571 12.5158 12.9662 12.9899 12.4913C12.6673 12.579 12.3343 12.6231 11.9999 12.6226Z" fill="black"/>
</g>
<defs>
<clipPath id="clip0_7181_804">
<rect width="24" height="24" fill="white"/>
</clipPath>
</defs>
</svg>
