<svg width="24" height="24" viewBox="0 0 24 24" fill="none" xmlns="http://www.w3.org/2000/svg">
<circle cx="12" cy="12" r="12" fill="#212229"/>
<path opacity="0.12" d="M10.4375 11.375C11.8182 11.375 12.9375 10.2557 12.9375 8.875C12.9375 7.49429 11.8182 6.375 10.4375 6.375C9.05679 6.375 7.9375 7.49429 7.9375 8.875C7.9375 10.2557 9.05679 11.375 10.4375 11.375Z" fill="white"/>
<path d="M18.25 17.625V16.375C18.25 15.2101 17.4533 14.2313 16.375 13.9538M14.1875 6.55672C15.1037 6.92759 15.75 7.82582 15.75 8.875C15.75 9.92418 15.1037 10.8224 14.1875 11.1933M15.125 17.625C15.125 16.4601 15.125 15.8777 14.9347 15.4183C14.681 14.8057 14.1943 14.319 13.5817 14.0653C13.1223 13.875 12.5399 13.875 11.375 13.875H9.5C8.33515 13.875 7.75272 13.875 7.29329 14.0653C6.68072 14.319 6.19404 14.8057 5.9403 15.4183C5.75 15.8777 5.75 16.4601 5.75 17.625M12.9375 8.875C12.9375 10.2557 11.8182 11.375 10.4375 11.375C9.05679 11.375 7.9375 10.2557 7.9375 8.875C7.9375 7.49429 9.05679 6.375 10.4375 6.375C11.8182 6.375 12.9375 7.49429 12.9375 8.875Z" stroke="white" stroke-width="1.25" stroke-linecap="round" stroke-linejoin="round"/>
</svg>
