<svg width="24" height="24" viewBox="0 0 24 24" fill="none" xmlns="http://www.w3.org/2000/svg">
<circle cx="12" cy="12" r="12" fill="#212229"/>
<path d="M6.875 6.875C6.52982 6.875 6.25 7.15482 6.25 7.5C6.25 7.84518 6.52982 8.125 6.875 8.125H18.125C18.4702 8.125 18.75 7.84518 18.75 7.5C18.75 7.15482 18.4702 6.875 18.125 6.875H6.875Z" fill="white"/>
<path d="M14.375 10.1562C14.0298 10.1562 13.75 10.4361 13.75 10.7812C13.75 11.1264 14.0298 11.4062 14.375 11.4062H18.125C18.4702 11.4062 18.75 11.1264 18.75 10.7812C18.75 10.4361 18.4702 10.1562 18.125 10.1562H14.375Z" fill="white"/>
<path d="M13.75 14.2188C13.75 13.8736 14.0298 13.5938 14.375 13.5938H18.125C18.4702 13.5938 18.75 13.8736 18.75 14.2188C18.75 14.5639 18.4702 14.8438 18.125 14.8438H14.375C14.0298 14.8438 13.75 14.5639 13.75 14.2188Z" fill="white"/>
<path d="M6.875 16.875C6.52982 16.875 6.25 17.1548 6.25 17.5C6.25 17.8452 6.52982 18.125 6.875 18.125H18.125C18.4702 18.125 18.75 17.8452 18.75 17.5C18.75 17.1548 18.4702 16.875 18.125 16.875H6.875Z" fill="white"/>
<path d="M7.85507 9.375C7.69733 9.37498 7.54371 9.37496 7.41361 9.38559C7.27074 9.39727 7.10215 9.42481 6.93252 9.51124C6.69731 9.63109 6.50609 9.82231 6.38625 10.0575C6.29981 10.2272 6.27227 10.3957 6.26059 10.5386C6.24996 10.6687 6.24998 10.8223 6.25 10.9801L6.25 14.0199C6.24998 14.1777 6.24996 14.3313 6.26059 14.4614C6.27227 14.6043 6.29981 14.7729 6.38625 14.9425C6.50609 15.1777 6.69731 15.3689 6.93252 15.4888C7.10215 15.5752 7.27074 15.6027 7.41361 15.6144C7.54371 15.625 7.69733 15.625 7.85508 15.625H10.8949C11.0527 15.625 11.2063 15.625 11.3364 15.6144C11.4793 15.6027 11.6479 15.5752 11.8175 15.4888C12.0527 15.3689 12.2439 15.1777 12.3638 14.9425C12.4502 14.7729 12.4777 14.6043 12.4894 14.4614C12.5 14.3313 12.5 14.1777 12.5 14.0199V10.9801C12.5 10.8223 12.5 10.6687 12.4894 10.5386C12.4777 10.3957 12.4502 10.2272 12.3638 10.0575C12.2439 9.82231 12.0527 9.63109 11.8175 9.51124C11.6479 9.42481 11.4793 9.39727 11.3364 9.38559C11.2063 9.37496 11.0527 9.37498 10.8949 9.375H7.85507Z" fill="white"/>
</svg>
