<svg width="24" height="24" viewBox="0 0 24 24" fill="none" xmlns="http://www.w3.org/2000/svg">
<g clip-path="url(#clip0_7138_17867)">
<path d="M24 12C24 5.37258 18.6274 0 12 0C5.37258 0 0 5.37258 0 12C0 18.6274 5.37258 24 12 24C18.6274 24 24 18.6274 24 12Z" fill="url(#paint0_linear_7138_17867)"/>
<path d="M21.0317 4.1055C19.2822 7.31708 16.808 10.6297 13.7164 13.7213C10.6248 16.8129 7.31222 19.2823 4.10537 21.0318C3.90432 20.8571 3.70906 20.675 3.51958 20.4855C2.37431 19.3785 1.46089 18.0545 0.832588 16.5908C0.204291 15.1271 -0.126312 13.5529 -0.139942 11.9601C-0.153571 10.3673 0.150045 8.78772 0.753202 7.31347C1.35636 5.83922 2.24699 4.49981 3.37315 3.37333C4.49932 2.24684 5.83849 1.35584 7.31257 0.752273C8.78665 0.148705 10.3661 -0.155352 11.959 -0.142167C13.5518 -0.128982 15.126 0.201181 16.5899 0.82907C18.0538 1.45696 19.378 2.37001 20.4854 3.51498C20.6748 3.70445 20.857 3.90129 21.0317 4.1055Z" fill="white" fill-opacity="0.063"/>
<path d="M14.8422 5.68457H9.15801C8.23673 5.68457 7.35319 6.05055 6.70174 6.70199C6.0503 7.35343 5.68433 8.23698 5.68433 9.15825V14.8425C5.68433 15.7637 6.0503 16.6473 6.70174 17.2987C7.35319 17.9502 8.23673 18.3161 9.15801 18.3161H14.8422C15.7635 18.3161 16.647 17.9502 17.2985 17.2987C17.9499 16.6473 18.3159 15.7637 18.3159 14.8425V9.15825C18.3159 8.23698 17.9499 7.35343 17.2985 6.70199C16.647 6.05055 15.7635 5.68457 14.8422 5.68457ZM17.2106 14.3435C17.2106 15.104 16.9085 15.8333 16.3708 16.3711C15.8331 16.9088 15.1037 17.2109 14.3433 17.2109H9.65696C8.89648 17.2109 8.16716 16.9088 7.62942 16.3711C7.09169 15.8333 6.78959 15.104 6.78959 14.3435V9.6572C6.78959 8.89673 7.09169 8.1674 7.62942 7.62967C8.16716 7.09193 8.89648 6.78983 9.65696 6.78983H14.3433C15.1037 6.78983 15.8331 7.09193 16.3708 7.62967C16.9085 8.1674 17.2106 8.89673 17.2106 9.6572V14.3435Z" fill="white"/>
<path d="M14.3038 9.72036L14.2738 9.69036L14.2485 9.66509C13.6515 9.07016 12.8429 8.73628 12.0001 8.73667C11.5745 8.73957 11.1536 8.82629 10.7615 8.99189C10.3694 9.15749 10.0138 9.39873 9.71495 9.70181C9.41612 10.0049 9.17993 10.3639 9.01989 10.7583C8.85984 11.1527 8.77907 11.5747 8.78219 12.0004C8.78155 12.8641 9.12203 13.6932 9.72956 14.3072C10.0271 14.6084 10.3817 14.8473 10.7727 15.01C11.1636 15.1726 11.583 15.2558 12.0064 15.2546C12.6415 15.2412 13.259 15.0434 13.7836 14.6852C14.3082 14.3269 14.7172 13.8238 14.9608 13.2371C15.2044 12.6503 15.2719 12.0054 15.1553 11.381C15.0386 10.7566 14.7427 10.1795 14.3038 9.72036ZM12.0001 14.1414C11.5754 14.1474 11.1585 14.0269 10.8025 13.7953C10.4465 13.5636 10.1674 13.2314 10.0008 12.8407C9.83409 12.45 9.78739 12.0186 9.86658 11.6014C9.94578 11.1841 10.1473 10.7998 10.4455 10.4973C10.7437 10.1949 11.1251 9.98798 11.5412 9.9029C11.9574 9.81783 12.3894 9.85844 12.7824 10.0196C13.1753 10.1807 13.5115 10.4551 13.7481 10.8078C13.9847 11.1605 14.1111 11.5756 14.1111 12.0004C14.1132 12.2796 14.0603 12.5565 13.9553 12.8152C13.8503 13.074 13.6953 13.3095 13.4993 13.5083C13.3032 13.7072 13.0699 13.8654 12.8127 13.9741C12.5554 14.0827 12.2793 14.1395 12.0001 14.1414ZM16.1732 8.58667C16.1741 8.68799 16.1549 8.78848 16.1169 8.88239C16.0788 8.97629 16.0226 9.06177 15.9515 9.13393C15.8803 9.20609 15.7957 9.26351 15.7023 9.3029C15.609 9.3423 15.5088 9.3629 15.4075 9.36351C15.307 9.36347 15.2075 9.34349 15.1148 9.30473C15.0221 9.26597 14.9381 9.20921 14.8675 9.13772C14.7605 9.02919 14.6877 8.89165 14.6582 8.74216C14.6287 8.59266 14.6437 8.43779 14.7013 8.29674C14.759 8.15568 14.8568 8.03466 14.9826 7.94867C15.1084 7.86267 15.2567 7.8155 15.409 7.81299C15.5874 7.81295 15.76 7.87554 15.8969 7.98983L15.9127 8.00562C15.9382 8.02635 15.9615 8.04963 15.9822 8.07509L15.9996 8.09404C16.1126 8.23328 16.1739 8.40734 16.1732 8.58667Z" fill="white"/>
</g>
<defs>
<linearGradient id="paint0_linear_7138_17867" x1="3.51474" y1="3.51474" x2="20.4853" y2="20.4853" gradientUnits="userSpaceOnUse">
<stop stop-color="#FAE100"/>
<stop offset="0.15" stop-color="#FCB720"/>
<stop offset="0.3" stop-color="#FF7950"/>
<stop offset="0.5" stop-color="#FF1C74"/>
<stop offset="1" stop-color="#6C1CD1"/>
</linearGradient>
<clipPath id="clip0_7138_17867">
<rect width="24" height="24" fill="white"/>
</clipPath>
</defs>
</svg>
