<svg width="24" height="24" viewBox="0 0 24 24" fill="none" xmlns="http://www.w3.org/2000/svg">
<g clip-path="url(#clip0_7181_793)">
<path d="M12 24C18.6274 24 24 18.6274 24 12C24 5.37258 18.6274 0 12 0C5.37258 0 0 5.37258 0 12C0 18.6274 5.37258 24 12 24Z" fill="#CC1D04"/>
<path d="M16.8442 15.4168C16.8442 15.4168 16.7873 16.2774 16.0026 16.2774C15.3978 16.2774 14.9857 15.8163 14.5989 15.2179C15.166 14.7195 15.6198 14.1054 15.9294 13.4168C16.2391 12.7283 16.3976 11.9813 16.3942 11.2263C16.3942 8.57684 14.4805 6.38684 11.9999 6.04579C11.7765 6.0154 11.5512 6.0001 11.3257 6C8.52626 6 6.25415 8.34 6.25415 11.2263C6.25415 14.1126 8.52626 16.4542 11.3257 16.4542C11.5513 16.4544 11.7766 16.4385 11.9999 16.4068C12.2675 16.371 12.5316 16.3129 12.7894 16.2332C13.372 17.1632 14.1157 18 15.2794 18C17.6478 18 17.7457 15.4168 17.7457 15.4168H16.8442ZM13.7163 13.7921C13.3152 13.2189 12.8336 12.7326 12.1468 12.5779L11.9999 12.5479C11.5725 12.4778 11.1355 12.4928 10.7139 12.5919C10.2923 12.6911 9.89443 12.8725 9.5431 13.1258L9.85889 13.7716C9.85889 13.7716 10.1747 13.59 10.9642 13.7716C11.3526 13.8616 11.6731 14.3037 12.0063 14.8768C12.0978 15.0347 12.1894 15.1926 12.2842 15.3663C12.1918 15.4082 12.0969 15.4441 11.9999 15.4737C11.7833 15.55 11.5554 15.5889 11.3257 15.5889C9.69152 15.5921 8.36836 13.6374 8.36836 11.2263C8.36836 8.81526 9.69152 6.86211 11.3257 6.86211C11.5552 6.86237 11.7831 6.90078 11.9999 6.97579C13.3073 7.42105 14.2815 9.15789 14.2815 11.2263C14.2904 12.1134 14.097 12.9909 13.7163 13.7921Z" fill="white"/>
</g>
<defs>
<clipPath id="clip0_7181_793">
<rect width="24" height="24" fill="white"/>
</clipPath>
</defs>
</svg>
