<svg width="24" height="24" viewBox="0 0 24 24" fill="none" xmlns="http://www.w3.org/2000/svg">
<path d="M12 24C18.6274 24 24 18.6274 24 12C24 5.37258 18.6274 0 12 0C5.37258 0 0 5.37258 0 12C0 18.6274 5.37258 24 12 24Z" fill="#FF4500"/>
<path d="M18.3159 12.0854C18.3054 11.8188 18.2181 11.5608 18.0645 11.3425C17.911 11.1243 17.6977 10.955 17.4503 10.8549C17.2029 10.7549 16.9319 10.7284 16.6698 10.7786C16.4077 10.8288 16.1657 10.9536 15.9727 11.138C14.893 10.4019 13.6225 9.99539 12.3159 9.96804L12.9317 7.0091L14.9654 7.43699C14.9896 7.66086 15.0927 7.86881 15.2563 8.02354C15.4199 8.17827 15.6332 8.26968 15.8581 8.28137C16.0829 8.29306 16.3046 8.22427 16.4834 8.08734C16.6621 7.9504 16.7863 7.75428 16.8335 7.53412C16.8808 7.31396 16.8481 7.08417 16.7413 6.88594C16.6345 6.6877 16.4606 6.53399 16.2507 6.45236C16.0409 6.37072 15.8088 6.36651 15.5961 6.44046C15.3834 6.51442 15.204 6.66171 15.0901 6.85594L12.7659 6.39173C12.7282 6.38336 12.6891 6.38253 12.6511 6.38927C12.613 6.39602 12.5766 6.41022 12.5441 6.43105C12.5115 6.45188 12.4834 6.47893 12.4613 6.51066C12.4392 6.54239 12.4236 6.57817 12.4154 6.61594L11.7159 9.9112C10.3956 9.93283 9.11019 10.3383 8.01643 11.078C7.74652 10.8406 7.39486 10.7174 7.03578 10.7346C6.67671 10.7517 6.33837 10.9078 6.0923 11.1698C5.84623 11.4319 5.71172 11.7794 5.7172 12.1388C5.72269 12.4983 5.86774 12.8415 6.12169 13.0959C6.23061 13.1999 6.35667 13.2843 6.49432 13.3454C6.48485 13.4847 6.48485 13.6245 6.49432 13.7638C6.49432 15.8875 8.96853 17.6149 12.0206 17.6149C15.0727 17.6149 17.547 15.8891 17.547 13.7638C17.5564 13.6245 17.5564 13.4847 17.547 13.3454C17.781 13.2294 17.9775 13.0495 18.1136 12.8266C18.2496 12.6036 18.3198 12.3466 18.3159 12.0854ZM8.83274 13.0328C8.83274 12.8454 8.88831 12.6622 8.9924 12.5065C9.0965 12.3507 9.24446 12.2292 9.41757 12.1575C9.59068 12.0858 9.78116 12.0671 9.96493 12.1036C10.1487 12.1402 10.3175 12.2304 10.45 12.3629C10.5825 12.4954 10.6727 12.6642 10.7093 12.848C10.7458 13.0317 10.7271 13.2222 10.6554 13.3953C10.5837 13.5684 10.4622 13.7164 10.3064 13.8205C10.1506 13.9246 9.96748 13.9801 9.78011 13.9801C9.52913 13.9801 9.2884 13.8806 9.11078 13.7032C8.93316 13.5259 8.83316 13.2853 8.83274 13.0344V13.0328ZM14.3417 15.6428C13.669 16.1496 12.8416 16.4079 12.0001 16.3738C11.158 16.4084 10.33 16.1501 9.65695 15.6428C9.61458 15.594 9.59224 15.5309 9.59444 15.4664C9.59665 15.4018 9.62322 15.3404 9.66882 15.2946C9.71442 15.2488 9.77567 15.222 9.84025 15.2195C9.90484 15.217 9.96797 15.239 10.017 15.2812C10.5875 15.6995 11.2839 15.91 11.9906 15.878C12.6971 15.9156 13.3953 15.7118 13.9706 15.3001C14.021 15.2513 14.0884 15.224 14.1585 15.224C14.2287 15.224 14.2961 15.2513 14.3464 15.3001C14.3713 15.3214 14.3912 15.3478 14.4047 15.3777C14.4182 15.4075 14.425 15.4399 14.4245 15.4726C14.4241 15.5053 14.4164 15.5375 14.4021 15.5669C14.3878 15.5963 14.3672 15.6222 14.3417 15.6428ZM13.2222 13.0675C13.2222 12.8163 13.322 12.5753 13.4997 12.3976C13.6774 12.22 13.9183 12.1201 14.1696 12.1201C14.4208 12.1201 14.6618 12.22 14.8395 12.3976C15.0171 12.5753 15.117 12.8163 15.117 13.0675C15.1422 13.5917 14.8422 14.0528 14.2106 14.0528C14.0796 14.0586 13.9487 14.0371 13.8264 13.9897C13.704 13.9422 13.5929 13.8699 13.5 13.7773C13.407 13.6847 13.3344 13.5738 13.2866 13.4516C13.2388 13.3294 13.2168 13.1986 13.2222 13.0675Z" fill="white"/>
</svg>
