<svg width="24" height="24" viewBox="0 0 24 24" fill="none" xmlns="http://www.w3.org/2000/svg">
<circle cx="12" cy="12" r="12" fill="#212229"/>
<g clip-path="url(#clip0_7069_9010)">
<path opacity="0.12" d="M18.25 12.4999C18.4237 12.4999 18.5105 12.4999 18.58 12.4623C18.6381 12.431 18.6908 12.3738 18.7174 12.3134C18.7493 12.2411 18.7429 12.1609 18.73 12.0004C18.6779 11.3507 18.5244 10.7121 18.2742 10.1081C17.9602 9.3498 17.4998 8.66081 16.9194 8.08044C16.3391 7.50008 15.6501 7.03971 14.8918 6.72561C14.2877 6.47541 13.6491 6.32194 12.9995 6.26985C12.839 6.25698 12.7587 6.25055 12.6864 6.28242C12.626 6.30904 12.5689 6.36178 12.5375 6.41985C12.5 6.48936 12.5 6.57619 12.5 6.74986V11.9999C12.5 12.1749 12.5 12.2624 12.5341 12.3292C12.564 12.388 12.6118 12.4358 12.6706 12.4658C12.7375 12.4999 12.825 12.4999 13 12.4999H18.25Z" fill="white"/>
<path d="M18.2563 14.9311C17.8586 15.8714 17.2367 16.7 16.4449 17.3444C15.6531 17.9889 14.7155 18.4295 13.714 18.6278C12.7126 18.8262 11.6778 18.7762 10.7001 18.4822C9.72243 18.1883 8.83165 17.6593 8.10565 16.9415C7.37964 16.2238 6.84052 15.3391 6.5354 14.3648C6.23029 13.3906 6.16848 12.3564 6.35538 11.3528C6.54228 10.3491 6.97219 9.4065 7.60754 8.60738C8.24288 7.80825 9.06431 7.17693 10 6.76861M18.2743 10.1081C18.5245 10.7121 18.6779 11.3507 18.73 12.0004C18.7429 12.1609 18.7493 12.2411 18.7175 12.3134C18.6908 12.3738 18.6381 12.431 18.58 12.4623C18.5105 12.4999 18.4237 12.4999 18.25 12.4999H13C12.825 12.4999 12.7375 12.4999 12.6706 12.4658C12.6118 12.4358 12.564 12.388 12.5341 12.3292C12.5 12.2624 12.5 12.1749 12.5 11.9999V6.74986C12.5 6.57619 12.5 6.48936 12.5376 6.41985C12.5689 6.36178 12.6261 6.30904 12.6864 6.28242C12.7587 6.25055 12.839 6.25698 12.9995 6.26985C13.6492 6.32194 14.2877 6.47541 14.8918 6.72561C15.6501 7.03971 16.3391 7.50008 16.9194 8.08044C17.4998 8.66081 17.9602 9.3498 18.2743 10.1081Z" stroke="white" stroke-width="1.25" stroke-linecap="round" stroke-linejoin="round"/>
</g>
<defs>
<clipPath id="clip0_7069_9010">
<rect width="15" height="15" fill="white" transform="translate(5 5)"/>
</clipPath>
</defs>
</svg>
