<svg width="24" height="24" viewBox="0 0 24 24" fill="none" xmlns="http://www.w3.org/2000/svg">
<g clip-path="url(#clip0_7138_17881)">
<path fill-rule="evenodd" clip-rule="evenodd" d="M11.7837 6.48228C11.7258 6.4403 11.6564 6.41701 11.5849 6.41553C10.4734 6.41553 9.84941 7.87503 9.58616 8.76978C9.88241 8.67828 10.2034 8.57928 10.5312 8.47728C10.7562 7.30353 11.2879 6.71553 11.7837 6.48228ZM11.0055 8.33028L12.2018 7.95978V7.89303C12.2018 7.43103 12.1403 7.08903 12.045 6.85053C11.6678 7.01253 11.2358 7.44153 11.0055 8.33028ZM8.94604 12.3139C8.94604 13.6452 10.2743 13.6812 10.2743 14.4919C10.2743 14.6877 10.1363 14.9562 9.79578 14.9562C9.27453 14.9562 8.65653 14.4259 8.65653 14.4259L8.34229 15.4647C8.34229 15.4647 8.94303 16.1959 10.1175 16.1959C11.097 16.1959 11.823 15.4587 11.823 14.3142C11.823 12.8592 10.2038 12.6214 10.2038 11.9997C10.2038 11.8864 10.2398 11.4342 10.9598 11.4342C11.451 11.4342 11.8515 11.6479 11.8515 11.6479L12.309 10.2882C12.309 10.2882 12 10.1089 11.3738 10.1089C9.75078 10.1089 8.94604 11.1934 8.94604 12.3139ZM12.4692 6.7744C12.5547 7.0189 12.6072 7.3264 12.6072 7.70965V7.83415L13.1862 7.6549C13.0392 7.20715 12.8112 6.81715 12.4692 6.7744Z" fill="#92BA43"/>
<path fill-rule="evenodd" clip-rule="evenodd" d="M13.5675 18L6.72375 16.7175C6.72375 16.7175 7.602 9.9255 7.635 9.68625C7.67925 9.36975 7.68975 9.35925 8.02575 9.2535C8.07975 9.23625 8.50725 9.10425 9.10875 8.9175C9.3405 7.935 10.08 6 11.6273 6C11.8298 6 12.0638 6.10875 12.2528 6.3585C12.2715 6.35775 12.2903 6.35625 12.309 6.35625C12.9728 6.35625 13.3507 6.9225 13.5645 7.53825L13.923 7.42725C13.9762 7.4115 14.1135 7.3905 14.184 7.461L14.895 8.16675L15.861 8.23875C15.9045 8.2425 15.9578 8.27625 15.966 8.33625C15.9742 8.397 17.2755 17.1975 17.2755 17.1975L13.5675 18ZM12 0C5.37225 0 0 5.37225 0 12C0 18.6278 5.37225 24 12 24C18.627 24 24 18.6278 24 12C24 5.37225 18.627 0 12 0Z" fill="#92BA43"/>
</g>
<defs>
<clipPath id="clip0_7138_17881">
<rect width="24" height="24" fill="white"/>
</clipPath>
</defs>
</svg>
