<svg width="24" height="24" viewBox="0 0 24 24" fill="none" xmlns="http://www.w3.org/2000/svg">
<rect width="24" height="24" rx="12" fill="#FF0000"/>
<path d="M15.927 7.48584H8.07327C7.75942 7.48584 7.44864 7.54768 7.1587 7.66784C6.86876 7.78799 6.60533 7.9641 6.38347 8.1861C6.16162 8.40811 5.98568 8.67165 5.86572 8.96167C5.74576 9.25169 5.68412 9.56251 5.68433 9.87637V14.1237C5.68412 14.4376 5.74576 14.7484 5.86572 15.0384C5.98568 15.3285 6.16162 15.592 6.38347 15.814C6.60533 16.036 6.86876 16.2121 7.1587 16.3323C7.44864 16.4524 7.75942 16.5143 8.07327 16.5143H15.927C16.2408 16.5143 16.5516 16.4524 16.8415 16.3323C17.1315 16.2121 17.3949 16.036 17.6168 15.814C17.8386 15.592 18.0145 15.3285 18.1345 15.0384C18.2545 14.7484 18.3161 14.4376 18.3159 14.1237V9.87637C18.3161 9.56251 18.2545 9.25169 18.1345 8.96167C18.0145 8.67165 17.8386 8.40811 17.6168 8.1861C17.3949 7.9641 17.1315 7.78799 16.8415 7.66784C16.5516 7.54768 16.2408 7.48584 15.927 7.48584ZM10.3359 13.9358V10.0643L13.6643 12.0001L10.3359 13.9358Z" fill="white"/>
</svg>
