<svg xmlns="http://www.w3.org/2000/svg" width="14" height="14" viewBox="0 0 14 14"><defs><style>.a{fill:none;}.b{fill:#fff;}.c{fill:#282828;stroke:#282828;stroke-width:0.2px;}</style></defs><g transform="translate(-22 -144)"><rect class="a" width="14" height="14" transform="translate(22 144)"/><path class="b" d="M83.436,214.382a1,1,0,0,1-1.016.994c-2.941.01-5.882.006-8.822,0a.884.884,0,0,1-.874-.58.974.974,0,0,1,.249-1.1q1.911-2.041,3.818-4.087c.1-.11.205-.222.335-.362-.546-.655-1.083-1.3-1.621-1.944-.841-1.007-1.678-2.017-2.526-3.017a1.024,1.024,0,0,1-.234-1.178,1,1,0,0,1,1.031-.538c2.817.006,5.633,0,8.45,0a1.069,1.069,0,0,1,1.219,1.219c0,.511.006,1.022,0,1.533a.895.895,0,1,1-1.788.021c-.015-.314,0-.629,0-.968H75.4l2.467,2.954c.319.381.641.76.957,1.144a1.1,1.1,0,0,1-.046,1.628q-1.437,1.549-2.883,3.089c-.1.106-.194.215-.342.38h6.1c0-.444-.016-.88,0-1.314a.88.88,0,0,1,1-.905.85.85,0,0,1,.78.826C83.454,212.918,83.455,213.65,83.436,214.382Z" transform="translate(-49.086 -57.978)"/><path class="c" d="M82.655,211.36a.88.88,0,0,0-1,.905c-.02.434,0,.869,0,1.314h-6.1c.148-.165.243-.274.342-.38q1.441-1.545,2.883-3.089a1.1,1.1,0,0,0,.046-1.628c-.315-.384-.638-.762-.957-1.144L75.4,204.383h6.253c0,.339-.012.654,0,.968a.895.895,0,1,0,1.788-.021c.008-.511,0-1.022,0-1.533a1.069,1.069,0,0,0-1.219-1.219c-2.817,0-5.633,0-8.45,0a1,1,0,0,0-1.031.538,1.024,1.024,0,0,0,.234,1.178c.848,1,1.685,2.01,2.526,3.017.538.644,1.075,1.289,1.621,1.944-.13.14-.232.251-.335.362q-1.909,2.044-3.818,4.087a.974.974,0,0,0-.249,1.1.884.884,0,0,0,.874.58c2.941,0,5.882.007,8.822,0a1,1,0,0,0,1.016-.994c.02-.731.018-1.464,0-2.2A.85.85,0,0,0,82.655,211.36Z" transform="translate(-49.086 -57.978)"/></g></svg>
