<svg xmlns="http://www.w3.org/2000/svg" width="14" height="14" viewBox="0 0 14 14"><defs><style>.a{fill:none;}.b{fill:#282828;stroke:#282828;stroke-width:0.8px;}</style></defs><g transform="translate(22286 -3706)"><rect class="a" width="14" height="14" transform="translate(-22286 3706)"/><g transform="translate(12.637 -11.181)"><path class="b" d="M59.4,292.084h1.807a.566.566,0,0,1,.566.566v.053a.566.566,0,0,1-.566.566H58.78a.566.566,0,0,1-.566-.566v-9.654a.566.566,0,0,1,.566-.566h2.427a.566.566,0,0,1,.566.566v.039a.566.566,0,0,1-.566.566H59.4Z" transform="translate(-22356.299 3436.391)"/><path class="b" d="M192.236,293.174h-2.428a.566.566,0,0,1-.566-.566v-.058a.566.566,0,0,1,.566-.566h1.816v-8.409h-1.809a.566.566,0,0,1-.566-.566v-.069a.566.566,0,0,1,.566-.566h2.421a.566.566,0,0,1,.566.566v9.667A.566.566,0,0,1,192.236,293.174Z" transform="translate(-22477.99 3436.491)"/><path class="b" d="M1.272-.973H5.256A.574.574,0,0,1,5.83-.4a.574.574,0,0,1-.574.574H1.272A.574.574,0,0,1,.7-.4.574.574,0,0,1,1.272-.973Z" transform="translate(-22294.816 3726.098)"/></g></g></svg>
