<svg xmlns="http://www.w3.org/2000/svg" width="14" height="14" viewBox="0 0 14 14"><defs><style>.a{fill:none;}.b,.c,.e{fill:#282828;}.d,.e{stroke:none;}</style></defs><g transform="translate(22573 -3606)"><rect class="a" width="14" height="14" transform="translate(-22573 3606)"/><g transform="translate(-1.3 -0.629)"><path class="b" d="M1.126,0H6.755A1.126,1.126,0,0,1,7.88,1.126V2.252A1.126,1.126,0,0,1,6.755,3.377H1.126A1.126,1.126,0,0,1,0,2.252V1.126A1.126,1.126,0,0,1,1.126,0Z" transform="translate(-22571 3608)"/><path class="b" d="M1.383.226h8.931a1.126,1.126,0,0,1,1.126,1.126V2.477A1.126,1.126,0,0,1,10.313,3.6H1.383A1.126,1.126,0,0,1,.257,2.477V1.352A1.126,1.126,0,0,1,1.383.226Z" transform="translate(-22558.371 3607.748) rotate(90)"/><g class="c" transform="translate(-22571 3612.503)"><path class="d" d="M 6.754684448242188 5.854683876037598 L 1.125784635543823 5.854683876037598 C 1.001284718513489 5.854683876037598 0.9000046849250793 5.753403663635254 0.9000046849250793 5.628903865814209 L 0.9000046849250793 1.125783920288086 C 0.9000046849250793 1.001283884048462 1.001284718513489 0.9000039100646973 1.125784635543823 0.9000039100646973 L 6.754684448242188 0.9000039100646973 C 6.879184722900391 0.9000039100646973 6.980464458465576 1.001283884048462 6.980464458465576 1.125783920288086 L 6.980464458465576 5.628903865814209 C 6.980464458465576 5.753403663635254 6.879184722900391 5.854683876037598 6.754684448242188 5.854683876037598 Z"/><path class="e" d="M 1.800004482269287 1.800004005432129 L 1.800004482269287 4.954683780670166 L 6.080464363098145 4.954683780670166 L 6.080464363098145 1.800004005432129 L 1.800004482269287 1.800004005432129 M 1.125784873962402 3.814697265625e-06 L 6.754684448242188 3.814697265625e-06 C 7.376434803009033 3.814697265625e-06 7.880464553833008 0.5040340423583984 7.880464553833008 1.125783920288086 L 7.880464553833008 5.628903865814209 C 7.880464553833008 6.250653743743896 7.376434803009033 6.754683971405029 6.754684448242188 6.754683971405029 L 1.125784873962402 6.754683971405029 C 0.5040245056152344 6.754683971405029 4.76837158203125e-06 6.250653743743896 4.76837158203125e-06 5.628903865814209 L 4.76837158203125e-06 1.125783920288086 C 4.76837158203125e-06 0.5040340423583984 0.5040245056152344 3.814697265625e-06 1.125784873962402 3.814697265625e-06 Z"/></g></g></g></svg>
