<svg xmlns="http://www.w3.org/2000/svg" width="14" height="14" viewBox="0 0 14 14"><defs><style>.a{fill:none;}.b{fill:#282828;}</style></defs><g transform="translate(-0.434 -0.066)"><rect class="a" width="14" height="14" transform="translate(0.434 0.066)"/><g transform="translate(2.692 0.652)"><path class="b" d="M296.133,400.543a.881.881,0,0,0-.492-.15h-6.383a1,1,0,0,0-.5.15,1.1,1.1,0,0,0-.348.378,1.044,1.044,0,0,0-.14.534,1.021,1.021,0,0,0,.14.535,1.156,1.156,0,0,0,.344.376.851.851,0,0,0,.5.157h6.392a.866.866,0,0,0,.492-.155,1.127,1.127,0,0,0,.348-.381,1.045,1.045,0,0,0,.134-.527,1.081,1.081,0,0,0-.133-.535A1.066,1.066,0,0,0,296.133,400.543Z" transform="translate(-288.27 -389.792)"/><path class="b" d="M296.038,391.849l-5.862-3.393a1.54,1.54,0,0,0-.252-.1,1.119,1.119,0,0,0-.307-.045.931.931,0,0,0-.7.287.943.943,0,0,0-.255.658.976.976,0,0,0,.2.622,1.165,1.165,0,0,0,.41.317l4.976,2.8-4.937,2.791a1.194,1.194,0,0,0-.473.367.948.948,0,0,0-.173.563,1.013,1.013,0,0,0,.24.7.862.862,0,0,0,.65.295h.022a1.66,1.66,0,0,0,.356-.06,1.611,1.611,0,0,0,.253-.117L296,394.22a1.7,1.7,0,0,0,.576-.438,1.135,1.135,0,0,0,.267-.743,1.158,1.158,0,0,0-.262-.768A1.606,1.606,0,0,0,296.038,391.849Z" transform="translate(-288.318 -388.306)"/></g></g></svg>
