<svg width="16" height="16" viewBox="0 0 16 16" fill="none" xmlns="http://www.w3.org/2000/svg">
<path d="M13.3337 8.3335V4.5335C13.3337 3.41339 13.3337 2.85334 13.1157 2.42552C12.9239 2.04919 12.618 1.74323 12.2416 1.55148C11.8138 1.3335 11.2538 1.3335 10.1337 1.3335H5.86699C4.74689 1.3335 4.18683 1.3335 3.75901 1.55148C3.38269 1.74323 3.07673 2.04919 2.88498 2.42552C2.66699 2.85334 2.66699 3.41339 2.66699 4.5335V11.4668C2.66699 12.5869 2.66699 13.147 2.88498 13.5748C3.07673 13.9511 3.38269 14.2571 3.75901 14.4488C4.18683 14.6668 4.74689 14.6668 5.86699 14.6668H8.00033M9.33366 8.3335H5.33366M10.667 4.66683H5.33366M9.66699 12.6668L11.0003 14.0002L14.0003 11.0002" stroke="black" stroke-width="1.6" stroke-linecap="round" stroke-linejoin="round"/>
</svg>
