<svg xmlns="http://www.w3.org/2000/svg" width="16" height="16" viewBox="0 0 16 16"><defs><style>.a{fill:none;}.b{fill:#282828;stroke:#272727;stroke-width:0.8px;}</style></defs><g transform="translate(-29 -45)"><rect class="a" width="16" height="16" transform="translate(29 45)"/><g transform="translate(29.696 24.909)"><g transform="translate(0 21.322)"><g transform="translate(0 0)"><path class="b" d="M154.868,23.168h-3.444l.8-.8a.615.615,0,0,0-.87-.87L149.5,23.348c-.014.014-.028.029-.041.045l-.016.022-.019.026-.016.027-.015.025-.013.028-.012.027c0,.009-.007.018-.01.027s-.007.019-.01.029,0,.019-.007.028-.005.02-.007.031,0,.022,0,.032,0,.018,0,.027,0,.04,0,.06h0c0,.02,0,.04,0,.06s0,.018,0,.027,0,.022,0,.032,0,.02.007.031,0,.019.007.028.007.02.01.029.006.018.01.027l.012.027c0,.009.009.019.013.028l.015.025.016.027.02.027.016.022a.6.6,0,0,0,.041.045l1.846,1.846a.615.615,0,0,0,.87-.87l-.8-.8h3.437a3.689,3.689,0,0,1,3.692,3.692,3.339,3.339,0,0,1-.984,2.366.615.615,0,0,0,.871.87,4.569,4.569,0,0,0,1.344-3.236A4.92,4.92,0,0,0,154.868,23.168Z" transform="translate(-145.016 -21.322)"/><path class="b" d="M10.338,145.632l.019-.026.016-.027.015-.025c0-.009.009-.019.013-.028l.012-.027c0-.009.007-.018.01-.028s.007-.019.01-.029,0-.019.007-.028.005-.02.007-.03,0-.022,0-.033,0-.018,0-.027a.619.619,0,0,0,0-.121c0-.009,0-.018,0-.027s0-.022,0-.033,0-.02-.007-.03,0-.019-.007-.028-.007-.02-.01-.029-.006-.019-.01-.028L10.4,145c0-.009-.009-.019-.013-.028l-.015-.025-.016-.027-.019-.026-.016-.022q-.019-.023-.04-.044h0l-1.846-1.846a.615.615,0,0,0-.87.87l.8.8H4.923a3.689,3.689,0,0,1-3.692-3.692,3.339,3.339,0,0,1,.984-2.366.615.615,0,1,0-.871-.87A4.569,4.569,0,0,0,0,140.956a4.92,4.92,0,0,0,4.916,4.923H8.36l-.8.8a.615.615,0,1,0,.87.87l1.846-1.846h0c.014-.014.028-.029.04-.045Z" transform="translate(0 -134.188)"/></g></g></g></g></svg>
