<svg xmlns="http://www.w3.org/2000/svg" width="72" height="72" viewBox="0 0 72 72" fill="none">
  <path opacity="0.04" d="M11.0015 53.3667C11.0015 40.8675 4.52148 32.2851 4.52148 26.2659C4.52148 20.2467 7.97749 7.60352 35.6831 7.60352C63.3887 7.60352 67.4495 24.6243 67.4495 31.2483C67.4783 62.2659 11.0015 75.5139 11.0015 53.3667Z" fill="#0D0D1E"/>
  <path d="M15.7529 12.3828L17.5097 15.5796L20.6777 17.3076L17.5097 19.0644L15.7529 22.2324L13.9961 19.0644L10.8281 17.3076L13.9961 15.5796L15.7529 12.3828Z" stroke="#0D0D1E" stroke-width="2.304" stroke-miterlimit="10" stroke-linejoin="round"/>
  <path d="M11.5483 42.911C12.6139 42.911 13.4491 42.047 13.4491 41.0102C13.4491 39.9446 12.5851 39.1094 11.5483 39.1094C10.4827 39.1094 9.64746 39.9734 9.64746 41.0102C9.64746 42.0758 10.4827 42.911 11.5483 42.911Z" stroke="#0D0D1E" stroke-width="2.304" stroke-miterlimit="10" stroke-linejoin="round"/>
  <path d="M58.521 34.7598L55.3818 37.899L58.521 41.0382L61.6602 37.899L58.521 34.7598Z" stroke="#0D0D1E" stroke-width="2.304" stroke-miterlimit="10" stroke-linejoin="round"/>
  <path d="M54.6328 14.8886V11.375" stroke="#0D0D1E" stroke-width="2.304" stroke-miterlimit="10" stroke-linejoin="round"/>
  <path d="M57.4268 17.6816H60.9404" stroke="#0D0D1E" stroke-width="2.304" stroke-miterlimit="10" stroke-linejoin="round"/>
  <path d="M54.6328 20.4473V23.9609" stroke="#0D0D1E" stroke-width="2.304" stroke-miterlimit="10" stroke-linejoin="round"/>
  <path d="M51.8681 17.6816H48.3545" stroke="#0D0D1E" stroke-width="2.304" stroke-miterlimit="10" stroke-linejoin="round"/>
  <path d="M50.14 45.9337H21.8584V34.5577C21.8584 32.8297 23.2408 31.4473 24.9688 31.4473H47.0296C48.7576 31.4473 50.14 32.8297 50.14 34.5577V40.4905V43.7161V45.9337V45.9337Z" stroke="#0D0D1E" stroke-width="2.304" stroke-miterlimit="10" stroke-linejoin="round"/>
  <path d="M33.436 60.42H15.292V49.044C15.292 47.316 16.6744 45.9336 18.4024 45.9336H53.5672C55.2952 45.9336 56.6776 47.316 56.6776 49.044V60.42H42.1624" stroke="#0D0D1E" stroke-width="2.304" stroke-miterlimit="10" stroke-linejoin="round"/>
  <path d="M21.8584 37.8418C24.22 37.8418 24.22 40.7218 26.5816 40.7218C28.9432 40.7218 28.9432 37.8418 31.3048 37.8418C33.6664 37.8418 33.6664 40.7218 36.028 40.7218C38.3896 40.7218 38.3896 37.8418 40.7512 37.8418C43.1128 37.8418 43.1128 40.7218 45.4744 40.7218C47.836 40.7218 47.836 37.8418 50.1976 37.8418" stroke="#0D0D1E" stroke-width="2.304" stroke-miterlimit="10" stroke-linejoin="round"/>
  <path d="M15.292 52.3281C17.884 52.3281 17.884 55.2081 20.476 55.2081C23.068 55.2081 23.068 52.3281 25.66 52.3281C28.252 52.3281 28.252 55.2081 30.844 55.2081C33.436 55.2081 33.436 52.3281 36.028 52.3281C38.62 52.3281 38.62 55.2081 41.212 55.2081C43.804 55.2081 43.804 52.3281 46.396 52.3281C48.988 52.3281 48.988 55.2081 51.58 55.2081C54.172 55.2081 54.172 52.3281 56.764 52.3281" stroke="#0D0D1E" stroke-width="2.304" stroke-miterlimit="10" stroke-linejoin="round"/>
  <path d="M38.1306 31.4488H33.8682V22.0312H38.1306V25.6888V28.5688V31.4488Z" stroke="#0D0D1E" stroke-width="2.304" stroke-miterlimit="10" stroke-linejoin="round"/>
  <path d="M37.9861 15.2333C37.9861 16.7885 37.0933 18.0557 35.9989 18.0557C34.9045 18.0557 34.0117 16.7885 34.0117 15.2333C34.0117 13.6781 35.9989 11.5469 35.9989 11.5469C35.9989 11.5469 37.9861 13.6781 37.9861 15.2333Z" stroke="#0D0D1E" stroke-width="2.304" stroke-miterlimit="10" stroke-linejoin="round"/>
  <path d="M44.3799 31.4475V25.6875" stroke="#0D0D1E" stroke-width="2.304" stroke-miterlimit="10" stroke-linejoin="round"/>
  <path d="M27.6182 31.4475V25.6875" stroke="#0D0D1E" stroke-width="2.304" stroke-miterlimit="10" stroke-linejoin="round"/>
  <path d="M27.6182 22.8935V20.9062" stroke="#0D0D1E" stroke-width="2.304" stroke-miterlimit="10" stroke-linejoin="round"/>
  <path d="M44.3799 22.8935V20.9062" stroke="#0D0D1E" stroke-width="2.304" stroke-miterlimit="10" stroke-linejoin="round"/>
  <path opacity="0.1" d="M28.3105 31.4491L21.8593 60.8827L15.0625 60.4507V47.8939L17.4817 46.1659L21.4273 45.6763C21.4273 45.6763 21.8881 43.7755 21.8881 43.6315C21.8881 43.4875 21.8881 35.2507 21.8881 35.2507L22.4353 32.1691L24.6241 30.9883L28.3105 31.4491Z" fill="#0D0D1E"/>
</svg>