<svg xmlns="http://www.w3.org/2000/svg" width="72" height="72" viewBox="0 0 72 72" fill="none">
  <path opacity="0.04" d="M65.3761 39.8007C58.9537 29.6631 59.8177 19.3527 56.7361 14.4567C53.6545 9.56069 44.3521 1.06469 21.8593 15.2919C-0.63348 29.4903 4.78092 45.3879 8.17932 50.7735C24.0769 75.9735 76.7233 57.7719 65.3761 39.8007Z" fill="#0D0D1E"/>
  <path d="M60.3359 24.7402L62.0927 27.937L65.2607 29.665L62.0927 31.4218L60.3359 34.5898L58.5791 31.4218L55.4111 29.665L58.5791 27.937L60.3359 24.7402Z" stroke="#0D0D1E" stroke-width="2.304" stroke-miterlimit="10" stroke-linejoin="round"/>
  <path d="M62.2367 66.0399C63.3023 66.0399 64.1375 65.1759 64.1375 64.1391C64.1375 63.0735 63.2735 62.2383 62.2367 62.2383C61.1711 62.2383 60.3359 63.1023 60.3359 64.1391C60.3359 65.1759 61.1999 66.0399 62.2367 66.0399Z" stroke="#0D0D1E" stroke-width="2.304" stroke-miterlimit="10" stroke-linejoin="round"/>
  <path d="M12.5279 41.9336L9.38867 45.0728L12.5279 48.212L15.6671 45.0728L12.5279 41.9336Z" stroke="#0D0D1E" stroke-width="2.304" stroke-miterlimit="10" stroke-linejoin="round"/>
  <path d="M12.5283 19.9301V16.4453" stroke="#0D0D1E" stroke-width="2.304" stroke-miterlimit="10" stroke-linejoin="round"/>
  <path d="M15.3213 22.7246H18.8349" stroke="#0D0D1E" stroke-width="2.304" stroke-miterlimit="10" stroke-linejoin="round"/>
  <path d="M12.5283 25.5176V29.0312" stroke="#0D0D1E" stroke-width="2.304" stroke-miterlimit="10" stroke-linejoin="round"/>
  <path d="M9.7343 22.7246H6.2207" stroke="#0D0D1E" stroke-width="2.304" stroke-miterlimit="10" stroke-linejoin="round"/>
  <path d="M44.9854 26.0928V19.4688" stroke="#0D0D1E" stroke-width="2.304" stroke-miterlimit="10" stroke-linejoin="round"/>
  <path d="M48.96 25.8058V16.5898" stroke="#0D0D1E" stroke-width="2.304" stroke-miterlimit="10" stroke-linejoin="round"/>
  <path d="M44.9853 26.093C45.5901 25.6322 46.3677 25.373 47.2029 25.373C49.2477 25.373 50.9181 27.0434 50.9181 29.0882C50.9181 31.133 49.2477 32.8034 47.2029 32.8034C46.3389 32.8034 45.5613 32.5154 44.9277 32.0258" stroke="#0D0D1E" stroke-width="2.304" stroke-miterlimit="10" stroke-linejoin="round"/>
  <path d="M26.7549 26.0935V20.4199" stroke="#0D0D1E" stroke-width="2.304" stroke-miterlimit="10" stroke-linejoin="round"/>
  <path d="M22.7803 25.8055V20.4199" stroke="#0D0D1E" stroke-width="2.304" stroke-miterlimit="10" stroke-linejoin="round"/>
  <path d="M26.841 31.9965C26.2074 32.4861 25.4298 32.7742 24.5658 32.7742C22.521 32.7742 20.8506 31.1038 20.8506 29.059C20.8506 27.0142 22.521 25.3438 24.5658 25.3438C25.401 25.3438 26.1498 25.6029 26.7834 26.0637" stroke="#0D0D1E" stroke-width="2.304" stroke-miterlimit="10" stroke-linejoin="round"/>
  <path d="M51.926 57.0254V63.1022H20.0732V57.1406" stroke="#0D0D1E" stroke-width="2.304" stroke-miterlimit="10" stroke-linejoin="round"/>
  <path d="M38.707 41.9629H45.0142C46.339 41.9629 47.5486 42.3373 48.6142 42.9709" stroke="#0D0D1E" stroke-width="2.304" stroke-miterlimit="10" stroke-linejoin="round"/>
  <path d="M20.0732 52.5325V48.8461C20.0732 45.0445 23.1548 41.9629 26.9852 41.9629H33.0908" stroke="#0D0D1E" stroke-width="2.304" stroke-miterlimit="10" stroke-linejoin="round"/>
  <path d="M38.7063 39.4844V44.438C38.7063 45.9932 37.4391 47.2604 35.8839 47.2604C34.3287 47.2604 33.0615 45.9932 33.0615 44.438V39.4844" stroke="#0D0D1E" stroke-width="2.304" stroke-miterlimit="10" stroke-linejoin="round"/>
  <path d="M44.9853 19.4688V30.8159C44.9853 35.8559 40.8957 39.9455 35.8557 39.9455C30.8157 39.9455 26.7549 35.8559 26.7549 30.8159V20.448" stroke="#0D0D1E" stroke-width="2.304" stroke-miterlimit="10" stroke-linejoin="round"/>
  <path d="M31.881 27.6779C32.5967 27.6779 33.177 27.0977 33.177 26.3819C33.177 25.6662 32.5967 25.0859 31.881 25.0859C31.1652 25.0859 30.585 25.6662 30.585 26.3819C30.585 27.0977 31.1652 27.6779 31.881 27.6779Z" fill="#0D0D1E"/>
  <path d="M39.8878 27.6779C40.6036 27.6779 41.1838 27.0977 41.1838 26.3819C41.1838 25.6662 40.6036 25.0859 39.8878 25.0859C39.172 25.0859 38.5918 25.6662 38.5918 26.3819C38.5918 27.0977 39.172 27.6779 39.8878 27.6779Z" fill="#0D0D1E"/>
  <path d="M38.8791 29.7812C38.8791 31.4516 37.5255 32.8052 35.8551 32.8052C34.1847 32.8052 32.8311 31.4516 32.8311 29.7812" stroke="#0D0D1E" stroke-width="1.728" stroke-miterlimit="10" stroke-linejoin="round"/>
  <path d="M26.3516 49.709V63.101" stroke="#0D0D1E" stroke-width="2.304" stroke-miterlimit="10" stroke-linejoin="round"/>
  <path d="M45.4463 49.709V63.101" stroke="#0D0D1E" stroke-width="2.304" stroke-miterlimit="10" stroke-linejoin="round"/>
  <path d="M40.3772 20.4199H21.4268C21.4268 14.0551 26.582 8.87109 32.9756 8.87109H51.926C51.926 15.2647 46.7708 20.4199 40.3772 20.4199Z" stroke="#0D0D1E" stroke-width="2.304" stroke-miterlimit="10" stroke-linejoin="round"/>
  <path d="M53.3087 57.1408C57.651 57.1408 61.1711 53.6207 61.1711 49.2784C61.1711 44.9361 57.651 41.416 53.3087 41.416C48.9664 41.416 45.4463 44.9361 45.4463 49.2784C45.4463 53.6207 48.9664 57.1408 53.3087 57.1408Z" stroke="#0D0D1E" stroke-width="2.304" stroke-miterlimit="10" stroke-linejoin="round"/>
  <path d="M49.5361 48.2695L51.9553 52.0999L57.0817 46.4551" stroke="#0D0D1E" stroke-width="2.304" stroke-miterlimit="10" stroke-linejoin="round"/>
  <path opacity="0.1" d="M48.4706 44.7539C48.4706 44.7539 48.9314 54.0851 52.6754 56.7635L49.3922 55.6979L46.9154 52.8467L46.3682 49.6499L47.4626 45.3587L48.4706 44.7539Z" fill="#0D0D1E"/>
  <path opacity="0.1" d="M29.2605 20.3906V29.0018C29.2605 32.573 30.7581 36.029 33.4653 38.333C34.0125 38.7938 34.6173 39.2258 35.2797 39.6002L29.6349 38.477L26.7549 32.3138V20.3906H29.2605Z" fill="#0D0D1E"/>
  <path opacity="0.1" d="M31.8817 8.89844C31.8817 8.89844 25.4593 15.0904 25.5457 20.5336C25.6033 26.0056 25.8913 32.7736 25.8913 32.7736L21.4273 31.7656C21.4273 31.7656 20.8513 27.82 21.0817 27.7624C21.3121 27.7048 23.0977 26.5528 23.0113 25.372C22.9249 24.1912 21.4561 19.612 21.4561 19.612L22.4353 14.4568C22.4353 14.4568 27.1873 10.4824 27.2737 10.4248C27.3601 10.3672 31.8817 8.89844 31.8817 8.89844Z" fill="#0D0D1E"/>
  <path opacity="0.1" d="M26.4385 41.9316C26.4385 41.9316 23.0401 44.4948 22.7521 48.3828C22.4641 52.2708 22.7521 63.1572 22.7521 63.1572H20.0449V47.6628L22.7521 43.3716L26.4385 41.9316Z" fill="#0D0D1E"/>
</svg>