<svg xmlns="http://www.w3.org/2000/svg" width="20" height="20" viewBox="0 0 20 20"><defs><style>.a{fill:none;}.b{fill:#bababa;}</style></defs><rect class="a" width="20" height="20"/><g transform="translate(0.898 0.821)"><g transform="translate(2.913)"><path d="M86.4,0A6.409,6.409,0,1,0,92.81,6.409,6.416,6.416,0,0,0,86.4,0ZM89.77,5.5,88.663,6.889,88.784,8.7a.58.58,0,0,1-.245.514.587.587,0,0,1-.338.107.571.571,0,0,1-.227-.047L86.4,8.608l-1.572.668a.583.583,0,0,1-.81-.574l.121-1.812L83.033,5.5a.583.583,0,0,1,.308-.928l1.652-.432L85.9,2.616a.6.6,0,0,1,1,0l.907,1.527,1.654.432a.584.584,0,0,1,.309.928Z" transform="translate(-79.992)"/></g><g transform="translate(0 10.188)"><path class="b" d="M2.771,279.776.081,284.445a.583.583,0,0,0,.656.854l3.421-.919.91,3.421a.584.584,0,0,0,.486.428c.026,0,.052,0,.077,0a.583.583,0,0,0,.5-.291l2.544-4.4A7.577,7.577,0,0,1,2.771,279.776Z" transform="translate(-0.004 -279.776)"/></g><g transform="translate(9.967 10.188)"><path class="b" d="M282.32,284.445l-2.691-4.669a7.575,7.575,0,0,1-5.909,3.763l2.544,4.4a.583.583,0,0,0,.5.291.553.553,0,0,0,.076,0,.586.586,0,0,0,.487-.428l.91-3.421,3.421.919a.583.583,0,0,0,.657-.853Z" transform="translate(-273.72 -279.776)"/></g></g></svg>
