<svg xmlns="http://www.w3.org/2000/svg" width="20" height="20" viewBox="0 0 20 20"><defs><style>.a{fill:none;}.b{fill:#bababa;}</style></defs><rect class="a" width="20" height="20"/><g transform="translate(1.219 0.635)"><g transform="translate(0 0)"><path class="b" d="M2.372,346.732h12.98a.356.356,0,0,1,.321.205l1.8,3.818a.863.863,0,0,1-.768,1.237H.852A.863.863,0,0,1,.1,350.729l1.958-3.8a.356.356,0,0,1,.316-.194" transform="translate(0 -333.261)"/><path d="M79.236,216.268h8.627a.353.353,0,0,1,.319.205l1,2.133a.863.863,0,0,1-.762,1.237H78.589a.863.863,0,0,1-.749-1.263l1.083-2.118a.353.353,0,0,1,.314-.194" transform="translate(-74.725 -207.866)"/><path d="M128.056.428l3.429,5.865a.361.361,0,0,1-.312.544h-7.725a.361.361,0,0,1-.312-.544l3.43-5.865a.862.862,0,0,1,1.489,0" transform="translate(-118.431 -0.001)"/></g></g></svg>
