<svg xmlns="http://www.w3.org/2000/svg" width="20" height="20" viewBox="0 0 20 20"><defs><style>.a{fill:none;}.b{fill:#bababa;}</style></defs><rect class="a" width="20" height="20"/><g transform="translate(1.594 1.049)"><path class="b" d="M1.517,26.4c0,.7.521,1.678,1.119,1.678H8.23V21.369H1.517Zm8.391,1.678H15.5c.6,0,1.119-.982,1.119-1.678V21.369H9.909ZM.958,20.25h0Z" transform="translate(-0.398 -10.18)"/><path d="M16.2,7.285H14.784a3.887,3.887,0,0,0,.341-1.573A3.249,3.249,0,0,0,12.154,2.25c-1.4,0-2.313.838-3.477,2.687C7.512,3.088,6.6,2.25,5.2,2.25A3.249,3.249,0,0,0,2.228,5.711a3.832,3.832,0,0,0,.341,1.573H1.08A1.179,1.179,0,0,0,0,8.543V11.69a.592.592,0,0,0,.54.629h16.2a.592.592,0,0,0,.54-.629V8.543A1.179,1.179,0,0,0,16.2,7.285ZM5.2,7.285a1.474,1.474,0,0,1-1.35-1.573A1.474,1.474,0,0,1,5.2,4.138c.672,0,1.168.13,2.907,3.147Zm6.958,0H9.247c1.735-3.009,2.218-3.147,2.907-3.147A1.474,1.474,0,0,1,13.5,5.711,1.474,1.474,0,0,1,12.154,7.285Z" transform="translate(0 -2.25)"/></g></svg>
