<svg xmlns="http://www.w3.org/2000/svg" width="20" height="20" viewBox="0 0 20 20"><defs><style>.a{fill:none;}.b{fill:#1a1a1a;opacity:0.299;}</style></defs><rect class="a" width="20" height="20"/><g transform="translate(0.87 1.762)"><g transform="translate(0)"><path d="M6.709,0C3.091,0,0,.559,0,2.793S3.071,5.607,6.709,5.607c3.619,0,6.709-.559,6.709-2.793S10.348,0,6.709,0" transform="translate(0 10.825)"/><path class="b" d="M4.44,8.7a4.378,4.378,0,0,0,4.44-4.348A4.378,4.378,0,0,0,4.44,0,4.379,4.379,0,0,0,0,4.348,4.379,4.379,0,0,0,4.44,8.7" transform="translate(2.27 0)"/><path class="b" d="M1.154,3.7A5.813,5.813,0,0,1,.116,7.029a.162.162,0,0,0,.112.251,3.622,3.622,0,0,0,.511.047A3.693,3.693,0,0,0,4.457,4.634,3.693,3.693,0,0,0,.845,0,3.8,3.8,0,0,0,.1.074.135.135,0,0,0,.011.125.1.1,0,0,0,.028.238,5.855,5.855,0,0,1,1.154,3.7" transform="translate(11.785 0.726)"/><path d="M5.7,1.633A2.912,2.912,0,0,0,3.456.294,16.755,16.755,0,0,0,.035,0,.039.039,0,0,0,0,.028a.049.049,0,0,0,.03.05c.64.31,3.111,1.657,2.8,4.5a.189.189,0,0,0,.213.212C3.653,4.7,5.218,4.373,5.7,3.348a1.923,1.923,0,0,0,0-1.715" transform="translate(12.354 9.477)"/></g></g></svg>
